<svg xmlns="http://www.w3.org/2000/svg" width="75" height="75" fill="none" viewBox="0 0 24 24"><g clip-path="url(#a)"><path fill="#fff" d="M24 19.2V4.8A4.8 4.8 0 0 0 19.2 0H4.8A4.8 4.8 0 0 0 0 4.8v14.4A4.8 4.8 0 0 0 4.8 24h14.4a4.8 4.8 0 0 0 4.8-4.8Z"/><path fill="#6F1585" d="M19.2.601H4.8A4.199 4.199 0 0 0 .601 4.8v14.4A4.199 4.199 0 0 0 4.8 23.399h14.4a4.199 4.199 0 0 0 4.199-4.199V4.8A4.199 4.199 0 0 0 19.2.601Z"/><path fill="#fff" d="M7.28 7.602a3.46 3.46 0 0 0 1.507.373c.627 0 .948-.254.948-.652s-.287-.584-1.007-.847c-.999-.347-1.642-.897-1.642-1.77 0-1.023.855-1.802 2.268-1.802.678 0 1.177.144 1.533.304l-.305 1.093a2.795 2.795 0 0 0-1.253-.288c-.584 0-.872.27-.872.575 0 .381.339.55 1.11.847 1.057.39 1.557.94 1.557 1.786 0 1.008-.77 1.863-2.421 1.863-.686 0-1.363-.178-1.702-.364l.28-1.118ZM13.401 2.997v2.302h2.235V2.997h1.355v6.002h-1.355V6.493h-2.235V9h-1.363V2.997h1.363ZM11.53 16.152c0 2.87-1.16 4.843-3.53 4.843s-3.454-2.159-3.47-4.783c0-2.684 1.142-4.817 3.538-4.817s3.454 2.218 3.454 4.757h.008Zm-4.817.06c-.017 2.125.5 3.14 1.346 3.14.847 0 1.304-1.058 1.304-3.174 0-2.117-.44-3.141-1.312-3.141-.796 0-1.346 1.016-1.33 3.175h-.008ZM15.348 13.486l-1.77.846-.355-1.625 2.455-1.143h1.803v9.287h-2.099v-7.365h-.034Z"/></g><defs><clipPath id="a"><path fill="#fff" d="M0 0h75v75H0z"/></clipPath></defs></svg>