<svg xmlns="http://www.w3.org/2000/svg" xml:space="preserve" id="レイヤー_1" x="0" y="0" style="enable-background:new 0 0 75 75" version="1.0" viewBox="0 0 75 75"><style>.st1{fill:#f7f8f8}</style><path d="M0 .59h75v75H0z" style="fill:#699acb"/><path d="M3.82 27.63h67.36v44.39H3.82z" class="st1"/><path d="M13.15-.59h48.69v31H13.15z" style="fill:none"/><path d="M18.72 14.32c0-6.47 4.74-10.61 11.03-10.61 1.79 0 3.31.15 5.04.75l-.3 3.61c-1.49-.7-2.8-.97-4.41-.97-4.14 0-6.89 2.5-6.89 7.1 0 4.62 3.04 7.25 6.95 7.25 1.52 0 2.95-.18 4.59-.81l.15 3.61c-1.31.45-3.07.69-4.86.69-6.71-.01-11.3-3.94-11.3-10.62zM38.28 3.91h5.69c7.04 0 12.28 2.8 12.28 10.5 0 7.28-5.4 10.32-12.28 10.32h-5.69V3.91zm5.3 17.62c4.62 0 8.32-1.82 8.32-7.16 0-5.6-3.7-7.19-8.32-7.19h-1.1v14.34h1.1z" class="st1"/><path d="M6.92 50.58c0-13.75 4.58-20.26 14.46-20.26 9.11 0 13.75 6.62 13.75 19.82 0 12.48-4.08 20.04-14.02 20.04-9.94-.01-14.19-7.46-14.19-19.6zm20.48-.28c0-9.55-2.26-14.3-6.35-14.3s-6.35 4.69-6.35 13.91c0 9.72 2.26 14.57 6.4 14.57 4.03.01 6.3-4.85 6.3-14.18zM56.49 61.62H38.66v-6.18l15.79-24.46h9.38v24.79h5.25v5.85h-5.25v7.89h-7.34v-7.89zm.17-5.85v-6.51c0-3.26.06-8.28.22-12.59h-.11c-1.43 2.82-4.14 7.4-5.46 9.5l-5.96 9.61h11.31z"/></svg>