<svg xmlns="http://www.w3.org/2000/svg" xmlns:xlink="http://www.w3.org/1999/xlink" width="75" height="75"><defs><clipPath id="b"><path d="M7 .625h9v18.75H7Zm0 0"/></clipPath><clipPath id="c"><path d="M19 .625h9v18.75h-9Zm0 0"/></clipPath><clipPath id="a"><path d="M0 0h35v20H0z"/></clipPath><clipPath id="e"><path d="M.074.762H19v26.875H.074Zm0 0"/></clipPath><clipPath id="f"><path d="M20 1h20.926v26.637H20Zm0 0"/></clipPath><clipPath id="d"><path d="M0 0h41v28H0z"/></clipPath><clipPath id="g"><path d="M0 0h75v75H0z"/></clipPath><g id="h" clip-path="url(#a)"><g clip-path="url(#b)"><path d="M7.344 15.86c.547.214 1.133.32 1.726.308 2.344 0 2.344-1.887 2.344-3.195V.926h3.645v13.82c0 1.926-1.227 4.617-4.954 4.617a9.7 9.7 0 0 1-2.761-.343Zm0 0"/></g><g clip-path="url(#c)"><path d="M19.977 15.86a4.5 4.5 0 0 0 1.73.308c2.344 0 2.344-1.887 2.344-3.195V.926h3.61v13.82c0 1.926-1.231 4.617-4.958 4.617a9.7 9.7 0 0 1-2.762-.343v-3.16Zm0 0"/></g></g><g id="i" clip-path="url(#d)"><g clip-path="url(#e)"><path d="M.754 14.273C.754 7.762 2.73.762 9.766.762c7.593 0 9.082 7.48 9.082 13.511 0 6.032-1.563 13.364-9.082 13.364-8.004 0-9.012-7.926-9.012-13.364m12.883 0c0-3.347 0-9.644-3.871-9.644-3.801 0-3.801 6.297-3.801 9.644 0 3.278-.035 9.493 3.8 9.493 3.91 0 3.872-6.215 3.872-9.493m0 0"/></g><g clip-path="url(#f)"><path d="M20.746 17.586 30.457 1.21h6.477v16.71h3.312v3.872h-3.312v5.398h-4.989v-5.398H20.746zm11.2.336V6.645h-.075l-6.437 11.277Zm0 0"/></g></g><g id="j" clip-path="url(#g)"><path fill="#03C18A" d="M0 68.5v-62A6.5 6.5 0 0 1 6.5 0h62A6.5 6.5 0 0 1 75 6.5v62a6.5 6.5 0 0 1-6.5 6.5h-62A6.5 6.5 0 0 1 0 68.5m0 0"/><path fill="#FFF" d="M7.5 67.5v-60h60v60Zm0 0"/><use xlink:href="#h" transform="translate(20 10)"/><use xlink:href="#i" transform="translate(17 33)"/></g></defs><use xlink:href="#j"/></svg>