<?xml version="1.0" encoding="UTF-8"?>
<!-- Created with Inkscape (http://www.inkscape.org/) -->
<svg width="75" height="75" version="1.1" viewBox="0 0 75 75" xml:space="preserve" xmlns="http://www.w3.org/2000/svg"><g stroke-width="11.504"><g fill-rule="evenodd"><path d="m10.83 0h53.295c6.0216 0 10.875 4.8532 10.875 10.875v53.295c0 5.9766-4.8531 10.83-10.875 10.83h-53.295c-5.9766 0-10.83-4.8532-10.83-10.83v-53.295c0-6.0216 4.8533-10.875 10.83-10.875" fill="#ed0f88"/><path d="m10.785 6.6956h53.43c2.2469 0 4.0893 1.8424 4.0893 4.1342v53.385c0 2.2918-1.8424 4.0893-4.0893 4.0893h-53.43c-2.2918 0-4.0893-1.7975-4.0893-4.0893v-53.385c0-2.2918 1.7975-4.1342 4.0893-4.1342" fill="#fff"/><path d="m10.83 8.7627h53.34c1.1228 0 2.067 0.94366 2.067 2.0671v53.385c0 1.1235-0.94332 2.0222-2.067 2.0222h-53.34c-1.1683 0-2.0671-0.8988-2.0671-2.0222v-53.385c0-1.1235 0.89845-2.0671 2.0671-2.0671" fill="#85cf48"/></g><g><path d="m10.83 10.83h53.295v53.34h-53.295z" fill="#fff"/><path d="m32.894 52.666h-1.6178l-10.156-23.951v23.951h-5.1228v-30.333h6.7855l10.111 23.951v-23.951h5.1228v30.333z" fill="#231f20"/><path d="m48.802 22.334h12.493v4.4937h-6.8304v25.839h-5.6621v-25.839h-6.9203v-4.4937z" fill="#231f20"/></g></g></svg>
