<?xml version="1.0" encoding="UTF-8"?>
<!-- Created with Inkscape (http://www.inkscape.org/) -->
<svg width="75" height="75" version="1.1" viewBox="0 0 75 75" xml:space="preserve" xmlns="http://www.w3.org/2000/svg"><g stroke-width="11.015"><path d="m37.479 0c-20.697 0-37.479 16.781-37.479 37.478 0 20.697 16.781 37.521 37.479 37.521 20.74 0 37.521-16.824 37.521-37.521 0-20.697-16.781-37.478-37.521-37.478" fill="#e52774"/><path d="m58.606 44.32c2.4526 5.6798 1.2908 11.747-0.99029 16.91-0.81735-0.12913-1.7212 0.08592-2.4096 0.60244-0.73143 0.51627-1.1618 1.2909-1.3339 2.1084-5.5938 0.55939-11.704-0.21513-16.351-4.2599-4.6471 4.0878-10.757 4.8193-16.394 4.3029-0.17184-0.86064-0.60254-1.6351-1.3339-2.1515-0.68846-0.51627-1.5491-0.68844-2.4096-0.55939-2.2376-5.2065-3.3994-11.231-0.99029-16.91-5.2925-3.1842-7.9174-8.7349-9.1652-14.243 0.77439-0.43027 1.334-1.0758 1.6351-1.9363 0.25776-0.81757 0.17184-1.7212-0.2148-2.4957 4.2599-3.7435 9.6385-6.7126 15.792-6.1532 1.3769-6.0241 5.852-10.241 10.714-13.081 0.6455 0.55939 1.463 0.9036 2.3236 0.9036 0.86031 0 1.6781-0.34426 2.3235-0.9036 4.8623 2.8399 9.3374 7.0568 10.714 13.081 6.1531-0.60244 11.575 2.4096 15.792 6.1532-0.34368 0.73156-0.47366 1.6351-0.17184 2.4527 0.25776 0.86053 0.86031 1.506 1.5921 1.9363-1.2048 5.5077-3.8296 11.059-9.1221 14.243" fill="#fff"/><path d="m20.611 45.482c0.73142 0.30114 2.1514 0.94666 4.0877 0.94666 2.6248 0 4.6472-1.2048 4.6472-3.3993 0-2.4527-2.2806-3.2272-4.475-4.0448-2.6678-0.90361-6.6266-2.3236-6.6266-7.0568 0-4.0448 3.0981-7.5301 8.1325-7.5301 2.4958 0 4.6041 0.94666 5.0775 1.2048 0.77439 0.47331 0.90327 1.0327 0.90327 1.7212 0 1.2048-0.81734 2.1515-1.7212 2.1515-0.30072 0-0.98919-0.25818-1.463-0.43026-0.90327-0.34426-1.7212-0.51627-2.7108-0.51627-2.5818 0-3.7436 1.6781-3.7436 3.1411 0 2.1084 1.7212 2.7108 3.7866 3.4423 3.3994 1.1618 7.3151 2.5387 7.3151 7.5731 0 4.6041-3.6576 7.8313-8.9931 7.8313-0.98919 0-3.5284-0.12913-6.1102-1.3769-0.4307-0.21513-1.2909-0.68844-1.2909-1.8503 0-0.98963 0.68846-2.1945 1.9364-2.1945 0.34368 0 0.6455 0.12913 1.2478 0.3873" fill="#231f20"/><path d="m50.559 40.189-3.8727-10.843-3.8295 10.843zm-9.0362 3.8296-1.5059 4.3029c-0.55958 1.506-0.77438 2.1945-2.2806 2.1945-0.86031 0-2.5386-0.43026-2.5386-1.8503 0-0.47331 0.2148-1.0327 0.51662-1.7642l7.272-19.363c0.60254-1.5491 1.1618-3.1411 3.7435-3.1411 2.5387 0 3.0981 1.6781 3.6575 3.1411l7.3149 19.363c0.38774 0.94667 0.51662 1.3339 0.51662 1.7642 0 1.42-1.6351 1.8503-2.5818 1.8503-1.463 0-1.7212-0.68844-2.2375-2.1945l-1.506-4.3029z" fill="#231f20"/></g></svg>
