<svg xmlns="http://www.w3.org/2000/svg" xmlns:xlink="http://www.w3.org/1999/xlink" width="75" height="75"><defs><path id="a" d="m5.734-7.969-6.046-8.625h5.156l3.078 4.532 3.062-4.532h5.141l-6.078 8.625V0H5.734Zm0 0"/><path id="b" d="M7.953-17.64H4.656v-4.985h9.172V0H7.953Zm0 0"/><path id="c" d="M11.344-9.156v-8.906L6.156-9.156Zm5.453 0h2.734v4.5h-2.734V0h-5.453v-4.656H.422v-3.782l8.64-14.187h7.735Zm0 0"/></defs><path fill="#C1A470" d="M74.996 37.5c0-20.71-16.789-37.5-37.5-37.5s-37.5 16.79-37.5 37.5S16.786 75 37.496 75s37.5-16.79 37.5-37.5m0 0"/><path fill="#FFF" d="M65.996 37.5c0-15.742-12.758-28.5-28.5-28.5-15.738 0-28.5 12.758-28.5 28.5S21.758 66 37.496 66c15.742 0 28.5-12.758 28.5-28.5m0 0"/><use xlink:href="#a" x="29.543" y="30.995"/><use xlink:href="#b" x="17.922" y="58.31"/><use xlink:href="#c" x="36.672" y="58.31"/></svg>