<?xml version="1.0" encoding="UTF-8" standalone="no"?>
<svg
   width="70"
   height="30"
   version="1.1"
   xml:space="preserve"
   id="svg343617"
   sodipodi:docname="000.svg"
   inkscape:version="1.2.2 (b0a8486541, 2022-12-01)"
   xmlns:inkscape="http://www.inkscape.org/namespaces/inkscape"
   xmlns:sodipodi="http://sodipodi.sourceforge.net/DTD/sodipodi-0.dtd"
   xmlns:xlink="http://www.w3.org/1999/xlink"
   xmlns="http://www.w3.org/2000/svg"
   xmlns:svg="http://www.w3.org/2000/svg"><defs
     id="defs343621"><clipPath
       id="b"><path
         d="M.46.129h30.08V17H.46Zm0 0"
         id="path344244" /></clipPath><clipPath
       id="a"><path
         d="M0 0h31v18H0z"
         id="path344247" /></clipPath><clipPath
       id="d"><path
         d="M2 .621h18v25H2Zm0 0"
         id="path344250" /></clipPath><clipPath
       id="e"><path
         d="M21 1h12v24.621H21Zm0 0"
         id="path344253" /></clipPath><clipPath
       id="c"><path
         d="M0 0h39v26H0z"
         id="path344256" /></clipPath><clipPath
       id="f"><path
         d="M0 0h75v75H0z"
         id="path344259" /></clipPath><g
       clip-path="url(#a)"
       id="g344265"><g
         id="g"
         clip-path="url(#b)"><path
           fill="#211B19"
           d="M5.672 2.992h-4.7V.426h12.65v2.566h-4.7v13.844h-3.25ZM19.43 14.27h1.793c2.82 0 5.472-2.051 5.472-5.641 0-3.586-2.652-5.637-5.472-5.637H19.43ZM16.098.426h4.527c5.043 0 9.402 1.71 9.402 8.203 0 6.496-4.359 8.207-9.402 8.207h-4.527Zm0 0"
           id="path344262" /></g></g><g
       id="h"
       clip-path="url(#c)"><g
         clip-path="url(#d)"
         id="g344269"><path
           d="M2.418 13.188C2.418 7.128 4.23.62 10.688.62c6.968 0 8.335 6.957 8.335 12.567 0 5.613-1.433 12.433-8.335 12.433-7.348 0-8.27-7.375-8.27-12.433m11.82 0c0-3.118 0-8.97-3.55-8.97-3.485 0-3.485 5.852-3.485 8.97 0 3.05-.035 8.832 3.484 8.832 3.59 0 3.551-5.782 3.551-8.832m0 0"
           id="path344267" /></g><g
         clip-path="url(#e)"
         id="g344273"><path
           d="M28.52 1.035h4.238v24.168h-4.781V6.54l-4.032 3.324-2.39-3.148z"
           id="path344271" /></g></g><g
       id="i"
       clip-path="url(#f)"><path
         fill="#4799D9"
         d="M0 54.148V20.852C0 9.336 9.336 0 20.852 0h33.3C65.664 0 75 9.336 75 20.852v33.296C75 65.664 65.664 75 54.152 75h-33.3C9.336 75 0 65.664 0 54.148m0 0"
         id="path344276" /><path
         fill="#FFF"
         d="M8.32 54.148V20.852c0-6.922 5.61-12.532 12.532-12.532h33.3c6.918 0 12.528 5.61 12.528 12.532v33.296c0 6.922-5.61 12.532-12.528 12.532h-33.3c-6.922 0-12.532-5.61-12.532-12.532m0 0"
         id="path344278" /><use
         xlink:href="#g"
         transform="translate(22 13)"
         id="use344280" /><use
         xlink:href="#h"
         transform="translate(18 36)"
         id="use344282" /></g><clipPath
       id="b-3"><path
         d="M3 .129h25v17H3Zm0 0"
         id="path355986" /></clipPath><clipPath
       id="a-2"><path
         d="M0 0h31v18H0z"
         id="path355989" /></clipPath><clipPath
       id="d-0"><path
         d="M2 .621h18v25H2Zm0 0"
         id="path355992" /></clipPath><clipPath
       id="e-6"><path
         d="M21 1h12v24.621H21Zm0 0"
         id="path355995" /></clipPath><clipPath
       id="c-1"><path
         d="M0 0h39v26H0z"
         id="path355998" /></clipPath><clipPath
       id="f-5"><path
         d="M0 0h75v75H0z"
         id="path356001" /></clipPath><g
       clip-path="url(#a-2)"
       id="g356007"><g
         id="g-5"
         clip-path="url(#b-3)"><path
           fill="#211B19"
           d="M7.715 3.09H3.098V.555h12.359V3.09h-4.613v13.789h-3.13Zm18.95.426a8 8 0 0 0-3.212-.762c-1.074 0-2.473.508-2.473 2.281 0 2.88 6.922 1.692 6.922 7.192 0 3.55-2.722 4.902-5.933 4.902-1.73 0-2.555-.168-4.121-.59l.332-2.96c1.07.589 2.304 1.015 3.543 1.015 1.234 0 2.882-.676 2.882-2.114 0-3.132-7.003-1.863-7.003-7.277C17.602 1.57 20.32.13 23.203.13c1.32 0 2.637.254 3.793.68Zm0 0"
           id="path356004" /></g></g><g
       id="h-4"
       clip-path="url(#c-1)"><g
         clip-path="url(#d-0)"
         id="g356011"><path
           d="M2.418 13.188C2.418 7.128 4.23.62 10.688.62c6.968 0 8.335 6.957 8.335 12.567 0 5.613-1.433 12.433-8.335 12.433-7.348 0-8.27-7.375-8.27-12.433m11.82 0c0-3.118 0-8.97-3.55-8.97-3.485 0-3.485 5.852-3.485 8.97 0 3.05-.035 8.832 3.484 8.832 3.59 0 3.551-5.782 3.551-8.832m0 0"
           id="path356009" /></g><g
         clip-path="url(#e-6)"
         id="g356015"><path
           d="M28.52 1.035h4.238v24.168h-4.781V6.54l-4.032 3.324-2.39-3.148z"
           id="path356013" /></g></g><g
       id="i-7"
       clip-path="url(#f-5)"><path
         fill="#3766B3"
         d="M0 54.148V20.852C0 9.336 9.336 0 20.852 0h33.3C65.664 0 75 9.336 75 20.852v33.296C75 65.664 65.664 75 54.152 75h-33.3C9.336 75 0 65.664 0 54.148m0 0"
         id="path356018" /><path
         fill="#FFF"
         d="M8.32 54.148V20.852c0-6.922 5.61-12.532 12.532-12.532h33.3c6.918 0 12.528 5.61 12.528 12.532v33.296c0 6.922-5.61 12.532-12.528 12.532h-33.3c-6.922 0-12.532-5.61-12.532-12.532m0 0"
         id="path356020" /><use
         xlink:href="#g-5"
         transform="translate(22 13)"
         id="use356022" /><use
         xlink:href="#h-4"
         transform="translate(18 36)"
         id="use356024" /></g><linearGradient
       id="a-6-2"
       x1="35"
       x2="35"
       y1="10"
       y2="20"
       gradientUnits="userSpaceOnUse"><stop
         stop-color="#3766b3"
         offset="0"
         id="stop361422" /><stop
         stop-color="#8f76d6"
         offset="1"
         id="stop361420"
         style="stop-color:#d92123;stop-opacity:1;" /></linearGradient><clipPath
       id="clipPath361427"><path
         d="m3 0.129h25v17h-25z"
         id="path361425" /></clipPath><clipPath
       id="a-64"><path
         d="M0 0h31v18H0z"
         id="path361429" /></clipPath><clipPath
       id="clipPath361434"><path
         d="m5 0.621h16v25h-16z"
         id="path361432" /></clipPath><clipPath
       id="e-65"><path
         d="M23 .621h13V25H23Zm0 0"
         id="path361436" /></clipPath><clipPath
       id="c-0"><path
         d="M0 0h41v26H0z"
         id="path361439" /></clipPath><clipPath
       id="f-6"><path
         d="M0 0h75v75H0z"
         id="path361442" /></clipPath><g
       clip-path="url(#a-64)"
       id="g361445" /><g
       id="h-9"
       clip-path="url(#c-0)" /><linearGradient
       id="linearGradient12"
       x1="35.8"
       x2="64.1"
       y1="-1.66"
       y2="26.7"
       gradientUnits="userSpaceOnUse"
       gradientTransform="translate(-10.213023,-36.605932)"><stop
         stop-color="#ffe501"
         offset="0"
         id="stop364060" /><stop
         stop-color="#8dcd6b"
         offset="1"
         id="stop364062" /></linearGradient><clipPath
       id="b-37"><path
         d="M5 .129h21V17H5Zm0 0"
         id="path371380" /></clipPath><clipPath
       id="a-4"><path
         d="M0 0h31v18H0z"
         id="path371383" /></clipPath><clipPath
       id="d-5"><path
         d="M2 .621h18v25H2Zm0 0"
         id="path371386" /></clipPath><clipPath
       id="e-2"><path
         d="M21 1h12v24.621H21Zm0 0"
         id="path371389" /></clipPath><clipPath
       id="c-5"><path
         d="M0 0h39v26H0z"
         id="path371392" /></clipPath><clipPath
       id="f-4"><path
         d="M0 0h75v75H0z"
         id="path371395" /></clipPath><g
       clip-path="url(#a-4)"
       id="g371401"><g
         id="g-7"
         clip-path="url(#b-37)"><path
           fill="#1E1917"
           d="M10.152 2.973h-4.64V.426h12.617v2.547h-4.637v13.804h-3.34ZM22.203.426h3.281v16.41h-3.28Zm0 0"
           id="path371398" /></g></g><g
       id="h-44"
       clip-path="url(#c-5)"><g
         clip-path="url(#d-5)"
         id="g371405"><path
           d="M2.418 13.188C2.418 7.128 4.23.62 10.688.62c6.968 0 8.335 6.957 8.335 12.567 0 5.613-1.433 12.433-8.335 12.433-7.348 0-8.27-7.375-8.27-12.433m11.82 0c0-3.118 0-8.97-3.55-8.97-3.485 0-3.485 5.852-3.485 8.97 0 3.05-.035 8.832 3.484 8.832 3.59 0 3.551-5.782 3.551-8.832m0 0"
           id="path371403" /></g><g
         clip-path="url(#e-2)"
         id="g371409"><path
           d="M28.52 1.035h4.238v24.168h-4.781V6.54l-4.032 3.324-2.39-3.148z"
           id="path371407" /></g></g><g
       id="i-3"
       clip-path="url(#f-4)"><path
         fill="#D92123"
         d="M0 54.148V20.852C0 9.336 9.336 0 20.852 0h33.3C65.664 0 75 9.336 75 20.852v33.296C75 65.664 65.664 75 54.152 75h-33.3C9.336 75 0 65.664 0 54.148m0 0"
         id="path371412" /><path
         fill="#FFF"
         d="M8.32 54.148V20.852c0-6.922 5.61-12.532 12.532-12.532h33.3c6.918 0 12.528 5.61 12.528 12.532v33.296c0 6.922-5.61 12.532-12.528 12.532h-33.3c-6.922 0-12.532-5.61-12.532-12.532m0 0"
         id="path371414" /><use
         xlink:href="#g-7"
         transform="translate(22 13)"
         id="use371416" /><use
         xlink:href="#h-44"
         transform="translate(18 36)"
         id="use371418" /></g><linearGradient
       id="a-0"
       x1="35"
       x2="35"
       y1="10"
       y2="20"
       gradientUnits="userSpaceOnUse"
       gradientTransform="translate(9.3084643,-23.668517)"><stop
         offset="0"
         stop-color="#0171c5"
         id="stop373285" /><stop
         offset="1"
         stop-color="#fdd700"
         id="stop373287" /></linearGradient><linearGradient
       id="b-7"
       x1="35.9"
       x2="64.1"
       y1="-1.64"
       y2="26.6"
       gradientUnits="userSpaceOnUse"
       gradientTransform="translate(0.04)"><stop
         offset="0"
         stop-color="#0171c5"
         id="stop373290"
         style="stop-color:#3766b3;stop-opacity:1;" /><stop
         offset="1"
         stop-color="#f22235"
         id="stop373292"
         style="stop-color:#b5b5ac;stop-opacity:1;" /></linearGradient><clipPath
       id="b-8"><path
         d="M1 .129h29V17H1Zm0 0"
         id="path374203" /></clipPath><clipPath
       id="a-6"><path
         d="M0 0h31v18H0z"
         id="path374206" /></clipPath><clipPath
       id="d-8"><path
         d="M2 .621h18v25H2Zm0 0"
         id="path374209" /></clipPath><clipPath
       id="e-8"><path
         d="M21 1h12v24.621H21Zm0 0"
         id="path374212" /></clipPath><clipPath
       id="c-4"><path
         d="M0 0h39v26H0z"
         id="path374215" /></clipPath><clipPath
       id="f-3"><path
         d="M0 0h75v75H0z"
         id="path374218" /></clipPath><g
       clip-path="url(#a-6)"
       id="g374224"><g
         id="g-1"
         clip-path="url(#b-8)"><path
           fill="#1E1917"
           d="M5.883 3.016H1.18V.426h12.644v2.59H9.121v13.82H5.945ZM16.352.426h4.058l6.235 12.293V.426h3.175v16.41h-4L19.527 4.602v12.234h-3.175Zm0 0"
           id="path374221" /></g></g><g
       id="h-49"
       clip-path="url(#c-4)"><g
         clip-path="url(#d-8)"
         id="g374228"><path
           d="M2.418 13.188C2.418 7.128 4.23.62 10.688.62c6.968 0 8.335 6.957 8.335 12.567 0 5.613-1.433 12.433-8.335 12.433-7.348 0-8.27-7.375-8.27-12.433m11.82 0c0-3.118 0-8.97-3.55-8.97-3.485 0-3.485 5.852-3.485 8.97 0 3.05-.035 8.832 3.484 8.832 3.59 0 3.551-5.782 3.551-8.832m0 0"
           id="path374226" /></g><g
         clip-path="url(#e-8)"
         id="g374232"><path
           d="M28.52 1.035h4.238v24.168h-4.781V6.54l-4.032 3.324-2.39-3.148z"
           id="path374230" /></g></g><g
       id="i-2"
       clip-path="url(#f-3)"><path
         fill="#E8871E"
         d="M0 54.148V20.852C0 9.336 9.336 0 20.852 0h33.3C65.664 0 75 9.336 75 20.852v33.296C75 65.664 65.664 75 54.152 75h-33.3C9.336 75 0 65.664 0 54.148m0 0"
         id="path374235" /><path
         fill="#FFF"
         d="M8.32 54.148V20.852c0-6.922 5.61-12.532 12.532-12.532h33.3c6.918 0 12.528 5.61 12.528 12.532v33.296c0 6.922-5.61 12.532-12.528 12.532h-33.3c-6.922 0-12.532-5.61-12.532-12.532m0 0"
         id="path374237" /><use
         xlink:href="#g-1"
         transform="translate(22 13)"
         id="use374239" /><use
         xlink:href="#h-49"
         transform="translate(18 36)"
         id="use374241" /></g><path
       id="a-06"
       d="M6.047-10.187h6.234v-6.407h4.313V0H12.28v-6.844H6.047V0H1.734v-16.594h4.313Zm0 0" /><path
       id="b-89"
       d="M6.422-11.344q-.002 1.502.266 2.735.262 1.237.765 2.14.497.892 1.188 1.39a2.63 2.63 0 0 0 1.562.485q.844.001 1.547-.484.704-.5 1.172-1.39.48-.904.75-2.141c.187-.82.281-1.735.281-2.735q0-1.465-.281-2.703-.27-1.247-.75-2.125-.469-.89-1.172-1.39a2.62 2.62 0 0 0-1.547-.5 2.6 2.6 0 0 0-1.562.5q-.69.5-1.188 1.39-.503.878-.766 2.125c-.18.824-.265 1.727-.265 2.703m-5.828 0q0-2.701.703-4.906.716-2.204 1.984-3.75a9.06 9.06 0 0 1 3.032-2.422c1.164-.57 2.46-.86 3.89-.86 1.395 0 2.68.29 3.86.86A8.7 8.7 0 0 1 17.093-20q1.266 1.546 1.97 3.75.702 2.204.703 4.906 0 2.706-.703 4.906-.704 2.205-1.97 3.782a8.55 8.55 0 0 1-3.03 2.437c-1.18.559-2.465.844-3.86.844-1.43 0-2.726-.285-3.89-.844A8.9 8.9 0 0 1 3.28-2.656C2.437-3.707 1.773-4.97 1.297-6.437.828-7.907.594-9.54.594-11.344m0 0" /><path
       id="c-2"
       d="M7.953-17.64H4.656v-4.985h9.172V0H7.953Zm0 0" /><clipPath
       id="b-6"><path
         d="M1 .129h29V17H1Zm0 0"
         id="path393460" /></clipPath><clipPath
       id="a-649"><path
         d="M0 0h31v18H0z"
         id="path393463" /></clipPath><clipPath
       id="d-50"><path
         d="M2 .621h18v25H2Zm0 0"
         id="path393466" /></clipPath><clipPath
       id="e-4"><path
         d="M21 1h12v24.621H21Zm0 0"
         id="path393469" /></clipPath><clipPath
       id="c-8"><path
         d="M0 0h39v26H0z"
         id="path393472" /></clipPath><clipPath
       id="f-7"><path
         d="M0 0h75v75H0z"
         id="path393475" /></clipPath><g
       clip-path="url(#a-649)"
       id="g393481"><g
         id="g-17"
         clip-path="url(#b-6)"><path
           fill="#1E1917"
           d="M5.883 3.016H1.18V.426h12.644v2.59H9.121v13.82H5.945ZM16.352.426h4.058l6.235 12.293V.426h3.175v16.41h-4L19.527 4.602v12.234h-3.175Zm0 0"
           id="path393478" /></g></g><g
       id="h-2"
       clip-path="url(#c-8)"><g
         clip-path="url(#d-50)"
         id="g393485"><path
           d="M2.418 13.188C2.418 7.128 4.23.62 10.688.62c6.968 0 8.335 6.957 8.335 12.567 0 5.613-1.433 12.433-8.335 12.433-7.348 0-8.27-7.375-8.27-12.433m11.82 0c0-3.118 0-8.97-3.55-8.97-3.485 0-3.485 5.852-3.485 8.97 0 3.05-.035 8.832 3.484 8.832 3.59 0 3.551-5.782 3.551-8.832m0 0"
           id="path393483" /></g><g
         clip-path="url(#e-4)"
         id="g393489"><path
           d="M28.52 1.035h4.238v24.168h-4.781V6.54l-4.032 3.324-2.39-3.148z"
           id="path393487" /></g></g><g
       id="i-72"
       clip-path="url(#f-7)"><path
         fill="#E8871E"
         d="M0 54.148V20.852C0 9.336 9.336 0 20.852 0h33.3C65.664 0 75 9.336 75 20.852v33.296C75 65.664 65.664 75 54.152 75h-33.3C9.336 75 0 65.664 0 54.148m0 0"
         id="path393492" /><path
         fill="#FFF"
         d="M8.32 54.148V20.852c0-6.922 5.61-12.532 12.532-12.532h33.3c6.918 0 12.528 5.61 12.528 12.532v33.296c0 6.922-5.61 12.532-12.528 12.532h-33.3c-6.922 0-12.532-5.61-12.532-12.532m0 0"
         id="path393494" /><use
         xlink:href="#g-17"
         transform="translate(22 13)"
         id="use393496" /><use
         xlink:href="#h-2"
         transform="translate(18 36)"
         id="use393498" /></g><clipPath
       id="b-2"><path
         d="M5 .129h21V17H5Zm0 0"
         id="path394440" /></clipPath><clipPath
       id="a-61"><path
         d="M0 0h31v18H0z"
         id="path394443" /></clipPath><clipPath
       id="d-06"><path
         d="M2 .621h18v25H2Zm0 0"
         id="path394446" /></clipPath><clipPath
       id="e-1"><path
         d="M21 .621h16v25H21Zm0 0"
         id="path394449" /></clipPath><clipPath
       id="c-59"><path
         d="M0 0h39v26H0z"
         id="path394452" /></clipPath><clipPath
       id="f-49"><path
         d="M0 0h75v75H0z"
         id="path394455" /></clipPath><g
       clip-path="url(#a-61)"
       id="g394461"><g
         id="g-0"
         clip-path="url(#b-2)"><path
           fill="#1E1917"
           d="M10.152 2.973h-4.64V.426h12.617v2.547h-4.637v13.804h-3.34ZM22.203.426h3.281v16.41h-3.28Zm0 0"
           id="path394458" /></g></g><g
       id="h-91"
       clip-path="url(#c-59)"><g
         clip-path="url(#d-06)"
         id="g394465"><path
           d="M2.258 13.191C2.258 7.13 4.09.621 10.637.621c7.062 0 8.445 6.957 8.445 12.57 0 5.61-1.453 12.43-8.445 12.43-7.442 0-8.38-7.375-8.38-12.43m11.981 0c0-3.117 0-8.972-3.601-8.972-3.535 0-3.535 5.855-3.535 8.972 0 3.047-.032 8.829 3.535 8.829 3.636 0 3.601-5.782 3.601-8.829m0 0"
           id="path394463" /></g><g
         clip-path="url(#e-1)"
         id="g394469"><path
           d="M21.438 20.703c1.66.656 3.464 1.106 5.37 1.106 2.005 0 5.087-.97 5.087-3.422 0-2.844-2.25-3.778-5.332-3.778h-2.356v-3.808h2.219c3.25 0 5.367-1.074 5.367-3.188 0-2.422-1.977-3.187-4.16-3.187-1.903 0-3.738.453-5.434 1.281l-.273-3.875c1.937-.766 4.254-1.21 6.75-1.21 2.976 0 7.96 1.034 7.96 6.194 0 3.29-2.038 4.848-4.5 5.786v.066c3.087.418 4.606 2.805 4.606 5.75 0 5.746-5.23 7.203-9.246 7.203-2.11 0-4.535-.281-6.336-.797z"
           id="path394467" /></g></g><g
       id="i-77"
       clip-path="url(#f-49)"><path
         fill="#D92123"
         d="M0 54.148V20.852C0 9.336 9.336 0 20.852 0h33.3C65.664 0 75 9.336 75 20.852v33.296C75 65.664 65.664 75 54.152 75h-33.3C9.336 75 0 65.664 0 54.148m0 0"
         id="path394472" /><path
         fill="#FFF"
         d="M8.32 54.148V20.852c0-6.922 5.61-12.532 12.532-12.532h33.3c6.918 0 12.528 5.61 12.528 12.532v33.296c0 6.922-5.61 12.532-12.528 12.532h-33.3c-6.922 0-12.532-5.61-12.532-12.532m0 0"
         id="path394474" /><use
         xlink:href="#g-0"
         transform="translate(22 13)"
         id="use394476" /><use
         xlink:href="#h-91"
         transform="translate(18 36)"
         id="use394478" /></g><clipPath
       id="b-1"><path
         d="M.46.129h30.08V17H.46Zm0 0"
         id="path395935" /></clipPath><clipPath
       id="a-1"><path
         d="M0 0h31v18H0z"
         id="path395938" /></clipPath><clipPath
       id="d-59"><path
         d="m2 0.621h18v25h-18z"
         id="path395941" /></clipPath><clipPath
       id="e-7"><path
         d="m21 1h12v24.621h-12z"
         id="path395944" /></clipPath><clipPath
       id="c-7"><path
         d="M0 0h39v26H0z"
         id="path395947" /></clipPath><clipPath
       id="f-67"><path
         d="M0 0h75v75H0z"
         id="path395950" /></clipPath><g
       clip-path="url(#a-1)"
       id="g395953" /><g
       id="h-3"
       clip-path="url(#c-7)" /><clipPath
       id="clipPath395958"><path
         d="m3 0.129h25v17h-25z"
         id="path395956" /></clipPath><clipPath
       id="a-2-6"><path
         d="M0 0h31v18H0z"
         id="path395960" /></clipPath><clipPath
       id="clipPath395965"><path
         d="m2 0.621h18v25h-18z"
         id="path395963" /></clipPath><clipPath
       id="clipPath395969"><path
         d="m21 1h12v24.621h-12z"
         id="path395967" /></clipPath><clipPath
       id="c-1-5"><path
         d="M0 0h39v26H0z"
         id="path395971" /></clipPath><clipPath
       id="clipPath395976"><path
         d="M0 0h75v75H0z"
         id="path395974" /></clipPath><g
       clip-path="url(#a-2-6)"
       id="g395978" /><g
       clip-path="url(#c-1-5)"
       id="g395980" /><linearGradient
       id="a-6-2-6"
       x1="35"
       x2="35"
       y1="10"
       y2="20"
       gradientUnits="userSpaceOnUse"
       gradientTransform="translate(35,-4.999999)"><stop
         stop-color="#8f76d6"
         offset="0"
         id="stop395982" /><stop
         stop-color="#3766b3"
         offset="1"
         id="stop395984" /></linearGradient><clipPath
       id="clipPath395989"><path
         d="M0 0h31v18H0z"
         id="path395987" /></clipPath><clipPath
       id="clipPath395993"><path
         d="M0 0h41v26H0z"
         id="path395991" /></clipPath><linearGradient
       id="a-6-0"
       x1="35"
       x2="35"
       y1="10"
       y2="20"
       gradientUnits="userSpaceOnUse"><stop
         stop-color="#8f76d6"
         offset="0"
         id="stop413900" /><stop
         stop-color="#00aa8e"
         offset="1"
         id="stop413898" /></linearGradient></defs><sodipodi:namedview
     id="namedview343619"
     pagecolor="#ffffff"
     bordercolor="#000000"
     borderopacity="0.25"
     inkscape:showpageshadow="2"
     inkscape:pageopacity="0.0"
     inkscape:pagecheckerboard="0"
     inkscape:deskcolor="#d1d1d1"
     showgrid="false"
     inkscape:zoom="4.2498062"
     inkscape:cx="-0.47060969"
     inkscape:cy="9.5298462"
     inkscape:window-width="1230"
     inkscape:window-height="710"
     inkscape:window-x="26"
     inkscape:window-y="23"
     inkscape:window-maximized="0"
     inkscape:current-layer="svg343617" /></svg>
