<svg xmlns="http://www.w3.org/2000/svg" xmlns:xlink="http://www.w3.org/1999/xlink" width="75" height="75"><defs><path id="a" d="m.984 0 2.829-16.594h4.265l3.313 8.844 3.312-8.844h4.266L21.78 0h-4.297l-1.422-9.547L12.142 0h-1.72L6.704-9.547 5.281 0Zm0 0"/><path id="b" d="M6.422-11.344q-.002 1.502.266 2.735.262 1.237.765 2.14.497.892 1.188 1.39a2.63 2.63 0 0 0 1.562.485q.844.001 1.547-.484.704-.5 1.172-1.39.48-.904.75-2.141c.187-.82.281-1.735.281-2.735q0-1.465-.281-2.703-.27-1.247-.75-2.125-.469-.89-1.172-1.39a2.62 2.62 0 0 0-1.547-.5 2.6 2.6 0 0 0-1.562.5q-.69.5-1.188 1.39-.503.878-.766 2.125c-.18.824-.265 1.727-.265 2.703m-5.828 0q0-2.701.703-4.906.716-2.204 1.984-3.75a9.06 9.06 0 0 1 3.032-2.422c1.164-.57 2.46-.86 3.89-.86 1.395 0 2.68.29 3.86.86A8.7 8.7 0 0 1 17.093-20q1.266 1.546 1.97 3.75.702 2.204.703 4.906 0 2.706-.703 4.906-.704 2.205-1.97 3.782a8.55 8.55 0 0 1-3.03 2.437c-1.18.559-2.465.844-3.86.844-1.43 0-2.726-.285-3.89-.844A8.9 8.9 0 0 1 3.28-2.656C2.437-3.707 1.773-4.97 1.297-6.437.828-7.907.594-9.54.594-11.344m0 0"/><path id="c" d="M7.5-6.844q-.001.58.203 1.094c.145.336.336.625.578.875q.358.375.844.61.498.22 1.078.218c.352 0 .695-.07 1.031-.219q.499-.234.875-.609.374-.374.579-.86.217-.497.218-1.077c0-.758-.265-1.407-.797-1.938a2.6 2.6 0 0 0-1.906-.797q-1.142 0-1.922.797A2.62 2.62 0 0 0 7.5-6.844m.203-10.015q-.001 1.049.719 1.78a2.41 2.41 0 0 0 1.781.735q.528.001.985-.203.452-.217.78-.562.33-.341.516-.782c.133-.3.204-.613.204-.937 0-.676-.243-1.258-.72-1.75a2.38 2.38 0 0 0-1.765-.735c-.7 0-1.293.243-1.781.72a2.36 2.36 0 0 0-.719 1.734m-1.672 4.922q-3.549-1.467-3.547-4.985 0-1.434.563-2.594A6.1 6.1 0 0 1 4.625-21.5q1.013-.841 2.438-1.297 1.418-.451 3.14-.453 1.7 0 3.125.453 1.436.456 2.438 1.297a6 6 0 0 1 1.562 1.984q.576 1.16.578 2.594c0 .606-.062 1.14-.187 1.61q-.175.703-.61 1.296c-.28.387-.664.75-1.14 1.094-.469.336-1.055.664-1.75.985q4.624 1.798 4.625 5.812a5.6 5.6 0 0 1-.657 2.672 6.5 6.5 0 0 1-1.796 2.14Q15.23-.42 13.656.079q-1.565.516-3.453.516-1.829-.001-3.406-.5c-1.055-.32-1.969-.781-2.75-1.375a6.6 6.6 0 0 1-1.828-2.14 5.66 5.66 0 0 1-.656-2.704q-.001-4.107 4.468-5.812m0 0"/></defs><path fill="#F62E36" d="M74.996 37.5c0-20.71-16.789-37.5-37.5-37.5s-37.5 16.79-37.5 37.5S16.786 75 37.496 75s37.5-16.79 37.5-37.5m0 0"/><path fill="#FFF" d="M65.996 37.5c0-15.742-12.758-28.5-28.5-28.5-15.738 0-28.5 12.758-28.5 28.5S21.758 66 37.496 66c15.742 0 28.5-12.758 28.5-28.5m0 0"/><use xlink:href="#a" x="26.112" y="30.995"/><use xlink:href="#b" x="17.097" y="58.325"/><use xlink:href="#c" x="37.497" y="58.325"/></svg>