<svg xmlns="http://www.w3.org/2000/svg" xmlns:xlink="http://www.w3.org/1999/xlink" width="75" height="75"><defs><path id="a" d="m.984 0 2.829-16.594h4.265l3.313 8.844 3.312-8.844h4.266L21.78 0h-4.297l-1.422-9.547L12.142 0h-1.72L6.704-9.547 5.281 0Zm0 0"/><path id="b" d="M19.047 0H.844l5.61-5.812q2.214-2.31 3.468-3.922 1.266-1.605 1.875-2.72c.414-.737.672-1.335.765-1.796.102-.457.157-.848.157-1.172q-.001-.516-.172-.984a2.5 2.5 0 0 0-.485-.86 2.4 2.4 0 0 0-.796-.593 2.4 2.4 0 0 0-1.094-.235q-1.207.001-1.875.782c-.45.523-.672 1.171-.672 1.953 0 .218.023.539.078.953H1.297c0-1.313.21-2.508.64-3.594a8 8 0 0 1 1.813-2.781 8 8 0 0 1 2.766-1.797c1.07-.426 2.25-.64 3.53-.64q1.89 0 3.5.609 1.606.595 2.767 1.672a7.65 7.65 0 0 1 1.828 2.562c.445.992.672 2.063.672 3.219q0 1.862-.797 3.437-.797 1.582-2.532 3.235l-3.75 3.5h7.313Zm0 0"/><path id="c" d="M8.969-13.797c.156.024.289.031.406.031h.281q1.107 0 1.797-.656.703-.669.703-1.719 0-1.013-.656-1.64-.643-.64-1.656-.64c-.719 0-1.305.241-1.75.718q-.657.72-.656 1.86H2.016q.199-1.765.875-3.141.67-1.39 1.718-2.328a7.2 7.2 0 0 1 2.47-1.438q1.404-.499 3.124-.5 1.67 0 3.031.469c.914.312 1.696.758 2.344 1.328a5.5 5.5 0 0 1 1.5 2.062c.352.805.531 1.703.531 2.703q-.001 1.63-.625 2.672c-.406.688-.992 1.282-1.75 1.782q1.745.532 2.72 1.937.983 1.395.983 3.422-.002 1.689-.671 3.063a7 7 0 0 1-1.844 2.375c-.793.656-1.735 1.164-2.828 1.515q-1.629.546-3.578.547c-1.743 0-3.313-.34-4.72-1.016Q3.202-1.404 1.954-3.625a6.5 6.5 0 0 1-.781-1.984 10.8 10.8 0 0 1-.188-2.016h5.829q.06 1.595.921 2.422c.582.555 1.364.828 2.344.828q1.56 0 2.281-.844c.477-.562.72-1.254.72-2.078 0-.976-.294-1.719-.876-2.219q-.862-.75-2.062-.75-.299 0-.578.047-.268.048-.594.11Zm0 0"/></defs><path fill="#F62E36" d="M74.996 37.5c0-20.71-16.789-37.5-37.5-37.5s-37.5 16.79-37.5 37.5S16.786 75 37.496 75s37.5-16.79 37.5-37.5m0 0"/><path fill="#FFF" d="M65.996 37.5c0-15.742-12.758-28.5-28.5-28.5-15.738 0-28.5 12.758-28.5 28.5S21.758 66 37.496 66c15.742 0 28.5-12.758 28.5-28.5m0 0"/><use xlink:href="#a" x="26.112" y="30.995"/><use xlink:href="#b" x="17.097" y="58.31"/><use xlink:href="#c" x="37.497" y="58.31"/></svg>