<svg xmlns="http://www.w3.org/2000/svg" xmlns:xlink="http://www.w3.org/1999/xlink" width="75" height="75"><defs><path id="a" d="M4.031-13.547H7.75q1.137.002 1.734.485.763.549.782 1.765 0 1.033-.657 1.719-.657.768-2 .781H4.031ZM1.656 0h2.375v-6.687h3.032L10.297 0h2.812L9.484-6.953q2.984-1.138 3.032-4.344-.064-2.156-1.563-3.328-1.237-1.03-3.187-1.031h-6.11Zm0 0"/><path id="b" d="M10.203-6.156C10.141-4 9.133-2.91 7.188-2.891q-2.926-.03-2.985-3.265v-9.047q.06-3.2 2.984-3.266c1.946.043 2.954 1.133 3.016 3.266Zm-9.062.172q.029 2.952 1.89 4.547C4.195-.383 5.582.147 7.187.172c1.665-.024 3.079-.555 4.235-1.61q1.781-1.593 1.828-4.546v-9.407c-.031-1.976-.64-3.5-1.828-4.562q-1.736-1.576-4.235-1.578-2.409 0-4.156 1.578c-1.242 1.062-1.87 2.586-1.89 4.562Zm0 0"/><path id="c" d="M5.281-9.656h1.282q1.417.002 2.343.86.936.907.969 2.53-.033 1.596-.969 2.454c-.617.617-1.37.921-2.265.921-.844 0-1.524-.226-2.032-.687-.492-.438-.875-1.008-1.156-1.719H.391c.332 1.774 1.062 3.125 2.187 4.063S4.992.172 6.453.172c1.875-.024 3.414-.617 4.625-1.797 1.219-1.156 1.836-2.734 1.86-4.734 0-.895-.196-1.754-.579-2.578q-.597-1.23-1.937-2.11 1.312-.89 1.828-2.031.436-1.137.438-2.375-.034-2.437-1.672-4.219c-1.149-1.219-2.688-1.836-4.625-1.86q-2.3.036-3.953 1.641-1.688 1.628-1.922 4h3.062c.195-.882.578-1.535 1.14-1.953a2.83 2.83 0 0 1 1.782-.625c.906.024 1.648.309 2.234.86q.856.86.891 2.218c0 .887-.29 1.606-.86 2.157-.585.586-1.398.875-2.437.875H5.281Zm0 0"/></defs><path fill="#8CCCD5" d="M74.996 37.5c0-20.71-16.789-37.5-37.5-37.5s-37.5 16.79-37.5 37.5S16.786 75 37.496 75s37.5-16.79 37.5-37.5m0 0"/><path fill="#FFF" d="M68.598 37.5c0-17.176-13.926-31.102-31.102-31.102S6.398 20.324 6.398 37.5 20.32 68.602 37.496 68.602 68.598 54.676 68.598 37.5m0 0"/><path fill="#3B2786" d="M65.797 37.5c0-15.629-12.668-28.3-28.3-28.3-15.63 0-28.298 12.671-28.298 28.3s12.668 28.3 28.297 28.3c15.633 0 28.3-12.671 28.3-28.3m0 0"/><use xlink:href="#a" x="30.788" y="29.632" fill="#FFF"/><g fill="#FFF"><use xlink:href="#b" x="23.097" y="56.779"/><use xlink:href="#c" x="37.497" y="56.779"/></g></svg>