<svg xmlns="http://www.w3.org/2000/svg" xmlns:xlink="http://www.w3.org/1999/xlink" width="75" height="75"><defs><path id="a" d="M4.031-13.547H7.75q1.137.002 1.734.485.763.549.782 1.765 0 1.033-.657 1.719-.657.768-2 .781H4.031ZM1.656 0h2.375v-6.687h3.032L10.297 0h2.812L9.484-6.953q2.984-1.138 3.032-4.344-.064-2.156-1.563-3.328-1.237-1.03-3.187-1.031h-6.11Zm0 0"/><path id="b" d="M10.203-6.156C10.141-4 9.133-2.91 7.188-2.891q-2.926-.03-2.985-3.265v-9.047q.06-3.2 2.984-3.266c1.946.043 2.954 1.133 3.016 3.266Zm-9.062.172q.029 2.952 1.89 4.547C4.195-.383 5.582.147 7.187.172c1.665-.024 3.079-.555 4.235-1.61q1.781-1.593 1.828-4.546v-9.407c-.031-1.976-.64-3.5-1.828-4.562q-1.736-1.576-4.235-1.578-2.409 0-4.156 1.578c-1.242 1.062-1.87 2.586-1.89 4.562Zm0 0"/><path id="c" d="M11.14-21.578q-.002 0-.156.312-.14.315-.406.86c-.18.367-.387.781-.625 1.25q-.346.704-.734 1.484-.393.767-.797 1.563a87 87 0 0 1-.766 1.5q-.376.72-.687 1.312-.3.58-.516.938c.29-.164.613-.266.969-.297a8 8 0 0 1 1.234-.031c.676.023 1.266.14 1.766.359q.748.315 1.297.797.544.486.906 1.078.357.595.563 1.156.199.563.28 1.063.079.485.079.765v.844c0 .188-.008.383-.016.578 0 .2-.008.367-.015.5l-.094.531a6.6 6.6 0 0 1-.297 1.032q-.205.58-.61 1.265a5.7 5.7 0 0 1-1.03 1.297q-.644.597-1.563 1.047-.926.439-2.203.531-1.33.123-2.36-.172a5.8 5.8 0 0 1-1.765-.828 5.4 5.4 0 0 1-1.25-1.25 6.5 6.5 0 0 1-.781-1.469c-.188-.5-.32-.976-.391-1.437q-.095-.686-.031-1.172c.062-.476.125-.906.187-1.281.07-.375.156-.727.25-1.063.094-.343.195-.68.313-1.015q.17-.498.406-1.094c.039-.094.148-.32.328-.687a79 79 0 0 0 .64-1.36q.388-.81.876-1.765.481-.967.968-1.97c.758-1.538 1.614-3.265 2.563-5.171Zm-.624 15.625q0-.545-.047-1.219a3.3 3.3 0 0 0-.328-1.281Q9.86-9.061 9.203-9.5c-.43-.3-1.031-.477-1.812-.531a2.3 2.3 0 0 0-1.016.125q-.456.157-.812.437-.346.269-.61.625-.252.362-.422.719-.175.346-.25.656-.063.3-.062.453 0 .363.015.813.013.456.094.906.076.438.266.86.2.407.547.734.356.315.906.531.544.204 1.36.203.668.017 1.156-.172.48-.187.828-.468a2.7 2.7 0 0 0 .562-.625q.233-.358.36-.703.122-.34.156-.61.047-.264.047-.406m0 0"/></defs><path fill="#8CCCD5" d="M74.996 37.5c0-20.71-16.789-37.5-37.5-37.5s-37.5 16.79-37.5 37.5S16.786 75 37.496 75s37.5-16.79 37.5-37.5m0 0"/><path fill="#FFF" d="M68.598 37.5c0-17.176-13.926-31.102-31.102-31.102S6.398 20.324 6.398 37.5 20.32 68.602 37.496 68.602 68.598 54.676 68.598 37.5m0 0"/><path fill="#3B2786" d="M65.797 37.5c0-15.629-12.668-28.3-28.3-28.3-15.63 0-28.298 12.671-28.298 28.3s12.668 28.3 28.297 28.3c15.633 0 28.3-12.671 28.3-28.3m0 0"/><use xlink:href="#a" x="30.788" y="29.632" fill="#FFF"/><g fill="#FFF"><use xlink:href="#b" x="23.097" y="56.75"/><use xlink:href="#c" x="37.497" y="56.75"/></g></svg>