<svg xmlns="http://www.w3.org/2000/svg" xmlns:xlink="http://www.w3.org/1999/xlink" width="75" height="75"><defs><path id="a" d="M4.031-13.547H7.75q1.137.002 1.734.485.763.549.782 1.765 0 1.033-.657 1.719-.657.768-2 .781H4.031ZM1.656 0h2.375v-6.687h3.032L10.297 0h2.812L9.484-6.953q2.984-1.138 3.032-4.344-.064-2.156-1.563-3.328-1.237-1.03-3.187-1.031h-6.11Zm0 0"/><path id="b" d="M10.203-6.156C10.141-4 9.133-2.91 7.188-2.891q-2.926-.03-2.985-3.265v-9.047q.06-3.2 2.984-3.266c1.946.043 2.954 1.133 3.016 3.266Zm-9.062.172q.029 2.952 1.89 4.547C4.195-.383 5.582.147 7.187.172c1.665-.024 3.079-.555 4.235-1.61q1.781-1.593 1.828-4.546v-9.407c-.031-1.976-.64-3.5-1.828-4.562q-1.736-1.576-4.235-1.578-2.409 0-4.156 1.578c-1.242 1.062-1.87 2.586-1.89 4.562Zm0 0"/><path id="c" d="M4.14-15.422q.03-1.53.954-2.297.902-.75 2.093-.75 1.232 0 2.141.75.89.768.922 2.297-.033 1.47-.922 2.25a3.1 3.1 0 0 1-2.14.813 3.03 3.03 0 0 1-2.094-.813q-.925-.78-.953-2.25M.689-6.234q.03 2.876 1.953 4.609C3.859-.445 5.375.148 7.188.172c1.832-.024 3.378-.617 4.64-1.797q1.856-1.733 1.89-4.61c-.023-2.062-.866-3.663-2.53-4.812a7.1 7.1 0 0 0 1.562-1.922q.563-.995.563-2.39-.036-2.672-1.735-4.422-1.706-1.716-4.39-1.75-2.626.034-4.297 1.75-1.782 1.75-1.813 4.422-.002 1.394.64 2.39a5.9 5.9 0 0 0 1.485 1.922C1.547-9.898.707-8.297.688-6.234m3.062-.032q.03-1.5 1.063-2.437.967-.919 2.375-.953 1.452.034 2.437.953.996.937 1.031 2.437-.035 1.454-1.031 2.391-.985.984-2.437.984-1.408 0-2.375-.984-1.033-.938-1.063-2.39m0 0"/></defs><path fill="#8CCCD5" d="M74.996 37.5c0-20.71-16.789-37.5-37.5-37.5s-37.5 16.79-37.5 37.5S16.786 75 37.496 75s37.5-16.79 37.5-37.5m0 0"/><path fill="#FFF" d="M68.598 37.5c0-17.176-13.926-31.102-31.102-31.102S6.398 20.324 6.398 37.5 20.32 68.602 37.496 68.602 68.598 54.676 68.598 37.5m0 0"/><path fill="#3B2786" d="M65.797 37.5c0-15.629-12.668-28.3-28.3-28.3-15.63 0-28.298 12.671-28.298 28.3s12.668 28.3 28.297 28.3c15.633 0 28.3-12.671 28.3-28.3m0 0"/><use xlink:href="#a" x="30.788" y="29.632" fill="#FFF"/><g fill="#FFF"><use xlink:href="#b" x="23.097" y="56.779"/><use xlink:href="#c" x="37.497" y="56.779"/></g></svg>