<svg xmlns="http://www.w3.org/2000/svg" xmlns:xlink="http://www.w3.org/1999/xlink" width="75" height="75"><defs><clipPath id="b"><path d="M.332 0H75v74.332H.332Zm0 0"/></clipPath><clipPath id="a"><path d="M0 0h75v75H0z"/></clipPath><clipPath id="d"><path d="M.04.582h8.937v13.5H.039Zm0 0"/></clipPath><clipPath id="e"><path d="M9 .582h12.637v13.5H9Zm0 0"/></clipPath><clipPath id="c"><path d="M0 0h22v15H0z"/></clipPath><clipPath id="g"><path d="M1 .133h18v24.402H1Zm0 0"/></clipPath><clipPath id="h"><path d="M21 .133h17v24.402H21Zm0 0"/></clipPath><clipPath id="f"><path d="M0 0h40v25H0z"/></clipPath><clipPath id="i"><path d="M0 0h75v75H0z"/></clipPath><g id="j" clip-path="url(#a)"><g clip-path="url(#b)"><path fill="#D75B80" d="M75.344 36.828c0 20.711-16.797 37.504-37.504 37.504C17.129 74.332.332 57.539.332 36.828.332 16.118 17.129-.676 37.84-.676c20.707 0 37.504 16.793 37.504 37.504Zm0 0"/></g><path fill="#FFF" stroke="#E53A7F" stroke-linecap="square" stroke-width=".069" d="M35.492 5.793c-5.812 3.883-9.777 8.07-10.484 12.797-4.824-.992-10.168 1.5-15.809 5.95.957.87.832 1.71.453 2.87-.375 1.164-.765 1.91-2.05 2.059 1.89 6.722 4.652 11.785 8.925 13.93-2.437 4.273-1.718 10.128.774 16.87 1.125-.64 1.879-.265 2.867.454.992.718 1.586 1.32 1.324 2.586 6.985.28 12.653-.774 16.008-4.188 3.316 3.64 9.105 4.77 16.281 4.48-.258-1.265.336-1.867 1.324-2.585.985-.72 1.747-1.098 2.872-.461 2.421-6.551 3.168-12.274.96-16.512 4.485-2.031 7.348-7.188 9.29-14.106-1.286-.14-1.672-.89-2.051-2.054-.375-1.164-.5-2.004.453-2.875-5.484-4.328-10.695-6.801-15.41-6.02-.547-4.89-4.567-9.203-10.543-13.195-.535 1.184-1.367 1.32-2.59 1.32-1.223 0-2.055-.136-2.594-1.32Zm0 0"/></g><g id="k" clip-path="url(#c)"><g clip-path="url(#d)"><path d="M.195 12.41c0 .485.262.746.668.961.938.465 2.114.711 3.176.711 2.441 0 4.656-1.398 4.656-4.055 0-.937-.316-1.797-.984-2.484-.734-.734-1.856-1.11-2.813-1.438-1.039-.347-1.964-.675-1.964-1.773 0-1.082.968-1.637 1.964-1.637.508 0 .993.137 1.47.305.316.137.46.184.644.184.586 0 .926-.59.926-1.122 0-.472-.204-.734-.61-.96-.691-.395-1.719-.52-2.5-.52-2.27 0-4.21 1.48-4.21 3.875 0 2.18 1.546 3.016 3.433 3.672 1.242.418 2.316.848 2.316 2.078 0 1.313-1.324 1.766-2.406 1.766-.758 0-1.438-.196-2.102-.489-.18-.09-.441-.203-.632-.203-.622 0-1.032.543-1.032 1.13Zm0 0"/></g><g clip-path="url(#e)"><path d="M12.836 10.715h5.367l.777 2.226c.262.746.407 1.141 1.165 1.141.554 0 1.335-.258 1.335-.926 0-.304-.148-.668-.261-.949l-3.774-10.02C17.13 1.353 16.77.583 15.547.583c-1.277 0-1.606.715-1.942 1.606L9.832 12.207c-.113.281-.25.621-.25.938 0 .68.746.937 1.324.937.742 0 .89-.371 1.153-1.14Zm.7-1.965 1.991-5.637 1.977 5.637Zm0 0"/></g></g><g id="l" clip-path="url(#f)"><g clip-path="url(#g)"><path d="M10.176 24.535c2.777 0 5.023-1.207 6.531-3.555 1.555-2.41 1.879-5.816 1.879-8.656 0-2.941-.324-6.25-1.938-8.781C15.2 1.34 12.79.133 10.176.133 7.48.133 5.133 1.34 3.664 3.625c-1.574 2.45-1.922 5.86-1.922 8.7 0 2.898.348 6.245 1.942 8.718 1.468 2.285 3.754 3.492 6.492 3.492Zm0-3.82c-3.961 0-4.227-5.492-4.227-8.39 0-2.88.266-8.376 4.227-8.376 3.941 0 4.25 5.496 4.25 8.375 0 2.899-.309 8.39-4.25 8.39Zm0 0"/></g><g clip-path="url(#h)"><path d="M26.5 9.484V5.422c0-.738.242-1 .977-1h6.964c1.266 0 1.942-.594 1.942-1.918 0-1.29-.676-1.902-1.942-1.902h-8.23c-2.633 0-3.57 1.265-3.57 3.757v7.864c0 1.343.386 2.14 1.898 2.14a3.19 3.19 0 0 0 1.695-.531c1.082-.793 1.817-1.18 3.203-1.18 2.348 0 4.29 1.387 4.29 3.918 0 3.063-2.633 4.145-5.309 4.145-1.594 0-2.797-.328-4.309-.817-.304-.12-.695-.265-1.039-.265-1.062 0-1.718 1.023-1.718 1.98 0 1 .492 1.43 1.347 1.797 1.715.774 4.067 1.125 5.942 1.125 2.41 0 4.922-.594 6.761-2.226 1.715-1.512 2.532-3.575 2.532-5.801 0-4.695-3.594-7.637-8.149-7.637-1.265 0-2.082.227-3.285.613Zm0 0"/></g></g><g id="m" clip-path="url(#i)"><use xlink:href="#j"/><use xlink:href="#k" transform="translate(27 14)"/><use xlink:href="#l" transform="translate(18 32)"/></g></defs><use xlink:href="#m"/></svg>