<svg xmlns="http://www.w3.org/2000/svg" xmlns:xlink="http://www.w3.org/1999/xlink" width="75" height="75"><defs><clipPath id="b"><path d="M.332 0H75v74.332H.332Zm0 0"/></clipPath><clipPath id="a"><path d="M0 0h75v75H0z"/></clipPath><clipPath id="d"><path d="M.04.582h8.937v13.5H.039Zm0 0"/></clipPath><clipPath id="e"><path d="M9 .582h12.637v13.5H9Zm0 0"/></clipPath><clipPath id="c"><path d="M0 0h22v15H0z"/></clipPath><clipPath id="g"><path d="M1 .133h18v24.402H1Zm0 0"/></clipPath><clipPath id="h"><path d="M20 .133h19v24.402H20Zm0 0"/></clipPath><clipPath id="f"><path d="M0 0h40v25H0z"/></clipPath><clipPath id="i"><path d="M0 0h75v75H0z"/></clipPath><g id="j" clip-path="url(#a)"><g clip-path="url(#b)"><path fill="#D75B80" d="M75.344 36.828c0 20.711-16.797 37.504-37.504 37.504C17.129 74.332.332 57.539.332 36.828.332 16.118 17.129-.676 37.84-.676c20.707 0 37.504 16.793 37.504 37.504Zm0 0"/></g><path fill="#FFF" stroke="#E53A7F" stroke-linecap="square" stroke-width=".069" d="M35.492 5.793c-5.812 3.883-9.777 8.07-10.484 12.797-4.824-.992-10.168 1.5-15.809 5.95.957.87.832 1.71.453 2.87-.375 1.164-.765 1.91-2.05 2.059 1.89 6.722 4.652 11.785 8.925 13.93-2.437 4.273-1.718 10.128.774 16.87 1.125-.64 1.879-.265 2.867.454.992.718 1.586 1.32 1.324 2.586 6.985.28 12.653-.774 16.008-4.188 3.316 3.64 9.105 4.77 16.281 4.48-.258-1.265.336-1.867 1.324-2.585.985-.72 1.747-1.098 2.872-.461 2.421-6.551 3.168-12.274.96-16.512 4.485-2.031 7.348-7.188 9.29-14.106-1.286-.14-1.672-.89-2.051-2.054-.375-1.164-.5-2.004.453-2.875-5.484-4.328-10.695-6.801-15.41-6.02-.547-4.89-4.567-9.203-10.543-13.195-.535 1.184-1.367 1.32-2.59 1.32-1.223 0-2.055-.136-2.594-1.32Zm0 0"/></g><g id="k" clip-path="url(#c)"><g clip-path="url(#d)"><path d="M.195 12.41c0 .485.262.746.668.961.938.465 2.114.711 3.176.711 2.441 0 4.656-1.398 4.656-4.055 0-.937-.316-1.797-.984-2.484-.734-.734-1.856-1.11-2.813-1.438-1.039-.347-1.964-.675-1.964-1.773 0-1.082.968-1.637 1.964-1.637.508 0 .993.137 1.47.305.316.137.46.184.644.184.586 0 .926-.59.926-1.122 0-.472-.204-.734-.61-.96-.691-.395-1.719-.52-2.5-.52-2.27 0-4.21 1.48-4.21 3.875 0 2.18 1.546 3.016 3.433 3.672 1.242.418 2.316.848 2.316 2.078 0 1.313-1.324 1.766-2.406 1.766-.758 0-1.438-.196-2.102-.489-.18-.09-.441-.203-.632-.203-.622 0-1.032.543-1.032 1.13Zm0 0"/></g><g clip-path="url(#e)"><path d="M12.836 10.715h5.367l.777 2.226c.262.746.407 1.141 1.165 1.141.554 0 1.335-.258 1.335-.926 0-.304-.148-.668-.261-.949l-3.774-10.02C17.13 1.353 16.77.583 15.547.583c-1.277 0-1.606.715-1.942 1.606L9.832 12.207c-.113.281-.25.621-.25.938 0 .68.746.937 1.324.937.742 0 .89-.371 1.153-1.14Zm.7-1.965 1.991-5.637 1.977 5.637Zm0 0"/></g></g><g id="l" clip-path="url(#f)"><g clip-path="url(#g)"><path d="M10.074 24.535c2.778 0 5.024-1.207 6.535-3.555 1.551-2.41 1.875-5.816 1.875-8.656 0-2.941-.324-6.25-1.937-8.781-1.45-2.203-3.86-3.41-6.473-3.41-2.695 0-5.043 1.207-6.511 3.492-1.575 2.45-1.922 5.86-1.922 8.7 0 2.898.347 6.245 1.941 8.718 1.469 2.285 3.758 3.492 6.492 3.492Zm0-3.82c-3.96 0-4.226-5.492-4.226-8.39 0-2.88.265-8.376 4.226-8.376 3.942 0 4.246 5.496 4.246 8.375 0 2.899-.304 8.39-4.246 8.39Zm0 0"/></g><g clip-path="url(#h)"><path d="M33.36 14.16c-.227 1.285-.43 2.309-1.083 3.492-1.203 2.082-3.082 3.063-5.472 3.063-.532 0-.899-.04-1.47-.121-.163-.02-.347-.063-.491-.063-1.063 0-1.735.86-1.735 1.88 0 .898.41 1.57 1.286 1.839.734.203 1.675.285 2.453.285 7.879 0 11.187-6.496 11.187-13.558 0-2.106-.328-4.536-1.328-6.414-1.469-2.875-4.289-4.43-7.492-4.43-4.758 0-8.313 3.492-8.313 8.293 0 4.469 3.207 7.734 7.68 7.734 2.102 0 3.285-.57 4.777-2ZM29.315 3.95c2.493 0 4.368 1.921 4.368 4.39 0 2.473-2.059 4.168-4.43 4.168-2.45 0-4.145-1.738-4.145-4.149 0-2.468 1.676-4.41 4.207-4.41Zm0 0"/></g></g><g id="m" clip-path="url(#i)"><use xlink:href="#j"/><use xlink:href="#k" transform="translate(27 14)"/><use xlink:href="#l" transform="translate(18 32)"/></g></defs><use xlink:href="#m"/></svg>