<svg xmlns="http://www.w3.org/2000/svg" xmlns:xlink="http://www.w3.org/1999/xlink" width="75" height="75"><defs><clipPath id="b"><path d="M.332 0H75v74.332H.332Zm0 0"/></clipPath><clipPath id="a"><path d="M0 0h75v75H0z"/></clipPath><clipPath id="d"><path d="M.04.582h8.937v13.5H.039Zm0 0"/></clipPath><clipPath id="e"><path d="M9 .582h12.637v13.5H9Zm0 0"/></clipPath><clipPath id="c"><path d="M0 0h22v15H0z"/></clipPath><clipPath id="g"><path d="M2 .133h10v24.402H2Zm0 0"/></clipPath><clipPath id="h"><path d="M19 .133h18v24.402H19Zm0 0"/></clipPath><clipPath id="f"><path d="M0 0h40v25H0z"/></clipPath><clipPath id="i"><path d="M0 0h75v75H0z"/></clipPath><g id="j" clip-path="url(#a)"><g clip-path="url(#b)"><path fill="#D75B80" d="M75.344 36.828c0 20.711-16.797 37.504-37.504 37.504C17.129 74.332.332 57.539.332 36.828.332 16.118 17.129-.676 37.84-.676c20.707 0 37.504 16.793 37.504 37.504Zm0 0"/></g><path fill="#FFF" stroke="#E53A7F" stroke-linecap="square" stroke-width=".069" d="M35.492 5.793c-5.812 3.883-9.777 8.07-10.484 12.797-4.824-.992-10.168 1.5-15.809 5.95.957.87.832 1.71.453 2.87-.375 1.164-.765 1.91-2.05 2.059 1.89 6.722 4.652 11.785 8.925 13.93-2.437 4.273-1.718 10.128.774 16.87 1.125-.64 1.879-.265 2.867.454.992.718 1.586 1.32 1.324 2.586 6.985.28 12.653-.774 16.008-4.188 3.316 3.64 9.105 4.77 16.281 4.48-.258-1.265.336-1.867 1.324-2.585.985-.72 1.747-1.098 2.872-.461 2.421-6.551 3.168-12.274.96-16.512 4.485-2.031 7.348-7.188 9.29-14.106-1.286-.14-1.672-.89-2.051-2.054-.375-1.164-.5-2.004.453-2.875-5.484-4.328-10.695-6.801-15.41-6.02-.547-4.89-4.567-9.203-10.543-13.195-.535 1.184-1.367 1.32-2.59 1.32-1.223 0-2.055-.136-2.594-1.32Zm0 0"/></g><g id="k" clip-path="url(#c)"><g clip-path="url(#d)"><path d="M.195 12.41c0 .485.262.746.668.961.938.465 2.114.711 3.176.711 2.441 0 4.656-1.398 4.656-4.055 0-.937-.316-1.797-.984-2.484-.734-.734-1.856-1.11-2.813-1.438-1.039-.347-1.964-.675-1.964-1.773 0-1.082.968-1.637 1.964-1.637.508 0 .993.137 1.47.305.316.137.46.184.644.184.586 0 .926-.59.926-1.122 0-.472-.204-.734-.61-.96-.691-.395-1.719-.52-2.5-.52-2.27 0-4.21 1.48-4.21 3.875 0 2.18 1.546 3.016 3.433 3.672 1.242.418 2.316.848 2.316 2.078 0 1.313-1.324 1.766-2.406 1.766-.758 0-1.438-.196-2.102-.489-.18-.09-.441-.203-.632-.203-.622 0-1.032.543-1.032 1.13Zm0 0"/></g><g clip-path="url(#e)"><path d="M12.836 10.715h5.367l.777 2.226c.262.746.407 1.141 1.165 1.141.554 0 1.335-.258 1.335-.926 0-.304-.148-.668-.261-.949l-3.774-10.02C17.13 1.353 16.77.583 15.547.583c-1.277 0-1.606.715-1.942 1.606L9.832 12.207c-.113.281-.25.621-.25.938 0 .68.746.937 1.324.937.742 0 .89-.371 1.153-1.14Zm.7-1.965 1.991-5.637 1.977 5.637Zm0 0"/></g></g><g id="l" clip-path="url(#f)"><g clip-path="url(#g)"><path d="M7.672 5.074v17.5c0 1.367.738 1.961 2.066 1.961 1.348 0 2.14-.531 2.14-1.96V2.397c0-.406-.019-.855-.222-1.242C11.31.461 10.453.133 9.72.133c-.84 0-1.453.347-2.125.797L3.797 3.48c-.535.348-1.086.758-1.086 1.473 0 .856.82 2 1.758 2 .449 0 .898-.285 1.246-.531Zm0 0"/></g><g clip-path="url(#h)"><path d="M32.29 14.16c-.227 1.285-.43 2.309-1.087 3.492-1.203 2.082-3.082 3.063-5.469 3.063-.535 0-.898-.04-1.472-.121-.16-.02-.348-.063-.489-.063-1.062 0-1.738.86-1.738 1.88 0 .898.41 1.57 1.29 1.839.734.203 1.671.285 2.448.285 7.883 0 11.192-6.496 11.192-13.558 0-2.106-.328-4.536-1.332-6.414-1.469-2.875-4.285-4.43-7.492-4.43-4.758 0-8.309 3.492-8.309 8.293 0 4.469 3.207 7.734 7.676 7.734 2.105 0 3.289-.57 4.781-2ZM28.241 3.95c2.492 0 4.375 1.921 4.375 4.39 0 2.473-2.066 4.168-4.433 4.168-2.45 0-4.149-1.738-4.149-4.149 0-2.468 1.676-4.41 4.207-4.41Zm0 0"/></g></g><g id="m" clip-path="url(#i)"><use xlink:href="#j"/><use xlink:href="#k" transform="translate(27 14)"/><use xlink:href="#l" transform="translate(18 32)"/></g></defs><use xlink:href="#m"/></svg>