<svg xmlns="http://www.w3.org/2000/svg" xmlns:xlink="http://www.w3.org/1999/xlink" width="75" height="75"><defs><clipPath id="b"><path d="M.332 0H75v74.332H.332Zm0 0"/></clipPath><clipPath id="a"><path d="M0 0h75v75H0z"/></clipPath><clipPath id="d"><path d="M.04.582h8.937v13.5H.039Zm0 0"/></clipPath><clipPath id="e"><path d="M9 .582h12.637v13.5H9Zm0 0"/></clipPath><clipPath id="c"><path d="M0 0h22v15H0z"/></clipPath><clipPath id="g"><path d="M1 .133h18v24.402H1Zm0 0"/></clipPath><clipPath id="h"><path d="M20 .133h19v24.402H20Zm0 0"/></clipPath><clipPath id="f"><path d="M0 0h40v25H0z"/></clipPath><clipPath id="i"><path d="M0 0h75v75H0z"/></clipPath><g id="j" clip-path="url(#a)"><g clip-path="url(#b)"><path fill="#D75B80" d="M75.344 36.828c0 20.711-16.797 37.504-37.504 37.504C17.129 74.332.332 57.539.332 36.828.332 16.118 17.129-.676 37.84-.676c20.707 0 37.504 16.793 37.504 37.504Zm0 0"/></g><path fill="#FFF" stroke="#E53A7F" stroke-linecap="square" stroke-width=".069" d="M35.492 5.793c-5.812 3.883-9.777 8.07-10.484 12.797-4.824-.992-10.168 1.5-15.809 5.95.957.87.832 1.71.453 2.87-.375 1.164-.765 1.91-2.05 2.059 1.89 6.722 4.652 11.785 8.925 13.93-2.437 4.273-1.718 10.128.774 16.87 1.125-.64 1.879-.265 2.867.454.992.718 1.586 1.32 1.324 2.586 6.985.28 12.653-.774 16.008-4.188 3.316 3.64 9.105 4.77 16.281 4.48-.258-1.265.336-1.867 1.324-2.585.985-.72 1.747-1.098 2.872-.461 2.421-6.551 3.168-12.274.96-16.512 4.485-2.031 7.348-7.188 9.29-14.106-1.286-.14-1.672-.89-2.051-2.054-.375-1.164-.5-2.004.453-2.875-5.484-4.328-10.695-6.801-15.41-6.02-.547-4.89-4.567-9.203-10.543-13.195-.535 1.184-1.367 1.32-2.59 1.32-1.223 0-2.055-.136-2.594-1.32Zm0 0"/></g><g id="k" clip-path="url(#c)"><g clip-path="url(#d)"><path d="M.195 12.41c0 .485.262.746.668.961.938.465 2.114.711 3.176.711 2.441 0 4.656-1.398 4.656-4.055 0-.937-.316-1.797-.984-2.484-.734-.734-1.856-1.11-2.813-1.438-1.039-.347-1.964-.675-1.964-1.773 0-1.082.968-1.637 1.964-1.637.508 0 .993.137 1.47.305.316.137.46.184.644.184.586 0 .926-.59.926-1.122 0-.472-.204-.734-.61-.96-.691-.395-1.719-.52-2.5-.52-2.27 0-4.21 1.48-4.21 3.875 0 2.18 1.546 3.016 3.433 3.672 1.242.418 2.316.848 2.316 2.078 0 1.313-1.324 1.766-2.406 1.766-.758 0-1.438-.196-2.102-.489-.18-.09-.441-.203-.632-.203-.622 0-1.032.543-1.032 1.13Zm0 0"/></g><g clip-path="url(#e)"><path d="M12.836 10.715h5.367l.777 2.226c.262.746.407 1.141 1.165 1.141.554 0 1.335-.258 1.335-.926 0-.304-.148-.668-.261-.949l-3.774-10.02C17.13 1.353 16.77.583 15.547.583c-1.277 0-1.606.715-1.942 1.606L9.832 12.207c-.113.281-.25.621-.25.938 0 .68.746.937 1.324.937.742 0 .89-.371 1.153-1.14Zm.7-1.965 1.991-5.637 1.977 5.637Zm0 0"/></g></g><g id="l" clip-path="url(#f)"><g clip-path="url(#g)"><path d="M7.367 20.246c2.227-1.879 4.434-3.777 6.496-5.82 2.02-2.063 3.735-4.125 3.735-7.188 0-4.347-3.328-7.105-7.535-7.105-2.083 0-4.368.695-5.981 2.062-.656.532-1.594 1.309-1.594 2.207 0 1.102.938 2.02 2.02 2.02.531 0 .879-.246 1.308-.594C7.106 4.75 8.305 3.95 10.102 3.95c1.84 0 3.312 1.535 3.312 3.39 0 1.571-.883 2.884-1.898 3.981-2.004 2.168-5.067 4.86-7.332 6.739-1.758 1.472-2.637 2.003-2.637 3.593 0 2.391 1.82 2.41 3.637 2.41h11.68c1.265 0 1.94-.613 1.94-1.917 0-1.31-.675-1.899-1.94-1.899Zm0 0"/></g><g clip-path="url(#h)"><path d="M25.629 10.445c.473-2.086 1.144-3.84 2.941-5.148 1.227-.875 2.633-1.266 4.149-1.328 1.203-.04 1.816-.551 1.816-1.774 0-1.511-.758-2.062-2.207-2.062-2.594 0-4.96.941-6.879 2.672-3.125 2.863-4.476 7.007-4.476 11.172 0 2.675.613 5.656 2.41 7.738 1.613 1.855 4.043 2.82 6.472 2.82 4.739 0 8.274-3.472 8.274-8.207 0-4.496-3.27-7.883-7.8-7.883-1.942 0-3.352.59-4.7 2Zm4.148 10.27c-2.574 0-4.472-1.98-4.472-4.535 0-2.489 2.203-4.02 4.53-4.02 2.513 0 4.087 1.613 4.087 4.082 0 2.555-1.512 4.473-4.145 4.473Zm0 0"/></g></g><g id="m" clip-path="url(#i)"><use xlink:href="#j"/><use xlink:href="#k" transform="translate(27 14)"/><use xlink:href="#l" transform="translate(18 32)"/></g></defs><use xlink:href="#m"/></svg>