<?xml version="1.0" encoding="UTF-8"?>
<!-- Created with Inkscape (http://www.inkscape.org/) -->
<svg width="100" height="100" version="1.1" viewBox="0 0 100 100" xmlns="http://www.w3.org/2000/svg">
 <g transform="translate(-92.1 -135)">
  <path d="m142 235c-27.4 0-49.9-22.4-49.9-50s22.5-50 49.9-50c27.7 0 50.1 22.4 50.1 50s-22.4 50-50.1 50zm0-94.1c-24.2 0-43.9 19.9-43.9 44.1s19.7 44.1 43.9 44.1c24.2 0 44.1-19.9 44.1-44.1s-19.8-44.1-44.1-44.1z" fill="#8dcd6b"/>
  <path d="m106 163v6.97h12.3v37.1h9.01v-37.1h12.5v-6.97zm38.5 0v44.1h8.81v-18.5h2.87c3.69 0 4.71 1.44 6.15 4.51l5.12 13.9h9.83l-6.97-17.4c-0.819-1.85-2.25-4.31-4.71-4.51 5.53-0.821 9.01-4.92 9.01-10.1 0-12.3-11.3-12.1-20.7-12.1zm8.81 6.97h2.87c4.3 0 9.22 0.614 9.22 5.74 0 5.33-4.92 5.95-9.22 5.95h-2.87z"/>
 </g>
</svg>
