<svg xmlns="http://www.w3.org/2000/svg" xmlns:xlink="http://www.w3.org/1999/xlink" width="75" height="75"><defs><clipPath id="b"><path d="M1 .625h14v18.75H1Zm0 0"/></clipPath><clipPath id="c"><path d="M16 .625h18v18.75H16Zm0 0"/></clipPath><clipPath id="a"><path d="M0 0h35v20H0z"/></clipPath><clipPath id="e"><path d="M2 .762h18v26.875H2Zm0 0"/></clipPath><clipPath id="f"><path d="M23 1h18v26.637H23Zm0 0"/></clipPath><clipPath id="d"><path d="M0 0h43v28H0z"/></clipPath><clipPath id="g"><path d="M0 0h75v75H0z"/></clipPath><g id="h" clip-path="url(#a)"><g clip-path="url(#b)"><path d="M14.738 18.797a17 17 0 0 1-4.004.578c-5.687 0-9.656-2.926-9.656-9.047 0-6.2 3.668-9.664 9.656-9.664 1.352.008 2.692.258 3.965.73l-.261 3.044a7.17 7.17 0 0 0-3.817-.961c-3.629 0-5.914 2.847-5.914 6.543 0 3.695 2.207 6.468 5.988 6.468 1.387 0 3.032-.308 3.856-.77Zm0 0"/></g><g clip-path="url(#c)"><path d="M25.316.625c5.54 0 8.606 3.852 8.606 9.316 0 5.47-3.067 9.399-8.606 9.399-5.652 0-8.609-3.852-8.609-9.399 0-5.543 2.996-9.316 8.61-9.316m0 15.863c3.593 0 4.94-3.312 4.94-6.547 0-3.23-1.425-6.464-4.94-6.464-3.52 0-4.942 3.27-4.942 6.464 0 3.274 1.348 6.547 4.941 6.547"/></g></g><g id="i" clip-path="url(#d)"><g clip-path="url(#e)"><path d="M3.227 22.352c1.789.707 3.718 1.191 5.77 1.191 2.155 0 5.468-1.043 5.468-3.684 0-3.054-2.422-4.058-5.735-4.058H6.2v-4.094h2.386c3.5 0 5.77-1.152 5.77-3.426 0-2.605-2.122-3.426-4.465-3.426-2.051 0-4.02.485-5.848 1.375l-.297-4.167C5.828 1.243 8.324.762 11.004.762c3.2 0 8.562 1.117 8.562 6.664 0 3.535-2.199 5.207-4.836 6.219v.074c3.31.445 4.946 3.011 4.946 6.18 0 6.171-5.617 7.738-9.938 7.738-2.27 0-4.875-.297-6.812-.856z"/></g><g clip-path="url(#f)"><path d="M39.441 5.082H29.426l-.113 5.547c.601-.113 1.382-.266 2.386-.266 3.649 0 8.375 1.719 8.375 8.45 0 4.878-3.426 8.824-10.125 8.824-2.012 0-4.351-.332-6.066-.742l.11-4.653c1.265.52 3.05 1.301 5.32 1.301 2.722 0 5.55-1.266 5.55-4.578 0-3.352-2.98-4.504-5.953-4.504-1.601 0-3.133.223-4.656.707l.262-13.957H39.44z"/></g></g><g id="j" clip-path="url(#g)"><path fill="#0171C5" d="M0 68.5v-62A6.5 6.5 0 0 1 6.5 0h62A6.5 6.5 0 0 1 75 6.5v62a6.5 6.5 0 0 1-6.5 6.5h-62A6.5 6.5 0 0 1 0 68.5m0 0"/><path fill="#FFF" d="M7.5 67.5v-60h60v60Zm0 0"/><use xlink:href="#h" transform="translate(20 10)"/><use xlink:href="#i" transform="translate(16 33)"/></g></defs><use xlink:href="#j"/></svg>