<svg xmlns="http://www.w3.org/2000/svg" xmlns:xlink="http://www.w3.org/1999/xlink" width="75" height="75"><defs><clipPath id="b"><path d="M1 .625h14v18.75H1Zm0 0"/></clipPath><clipPath id="c"><path d="M16 .625h18v18.75H16Zm0 0"/></clipPath><clipPath id="a"><path d="M0 0h35v20H0z"/></clipPath><clipPath id="e"><path d="M2 .762h18v26.875H2Zm0 0"/></clipPath><clipPath id="f"><path d="M22 .762h19v26.875H22Zm0 0"/></clipPath><clipPath id="d"><path d="M0 0h43v28H0z"/></clipPath><clipPath id="g"><path d="M0 0h75v75H0z"/></clipPath><g id="h" clip-path="url(#a)"><g clip-path="url(#b)"><path d="M14.738 18.797a17 17 0 0 1-4.004.578c-5.687 0-9.656-2.926-9.656-9.047 0-6.2 3.668-9.664 9.656-9.664 1.352.008 2.692.258 3.965.73l-.261 3.044a7.17 7.17 0 0 0-3.817-.961c-3.629 0-5.914 2.847-5.914 6.543 0 3.695 2.207 6.468 5.988 6.468 1.387 0 3.032-.308 3.856-.77Zm0 0"/></g><g clip-path="url(#c)"><path d="M25.316.625c5.54 0 8.606 3.852 8.606 9.316 0 5.47-3.067 9.399-8.606 9.399-5.652 0-8.609-3.852-8.609-9.399 0-5.543 2.996-9.316 8.61-9.316m0 15.863c3.593 0 4.94-3.312 4.94-6.547 0-3.23-1.425-6.464-4.94-6.464-3.52 0-4.942 3.27-4.942 6.464 0 3.274 1.348 6.547 4.941 6.547"/></g></g><g id="i" clip-path="url(#d)"><g clip-path="url(#e)"><path d="M3.113 22.348c1.785.71 3.723 1.195 5.774 1.195 2.156 0 5.465-1.043 5.465-3.684 0-3.054-2.415-4.062-5.73-4.062H6.09v-4.09h2.383c3.5 0 5.773-1.156 5.773-3.426 0-2.605-2.125-3.426-4.473-3.426-2.043 0-4.02.485-5.84 1.375l-.3-4.167C5.719 1.243 8.21.762 10.895.762c3.199 0 8.558 1.117 8.558 6.664 0 3.531-2.195 5.207-4.836 6.219v.074c3.313.441 4.95 3.011 4.95 6.176 0 6.175-5.622 7.742-9.938 7.742-2.27 0-4.879-.297-6.813-.856z"/></g><g clip-path="url(#f)"><path d="M38.215 5.898c-1.38-.597-2.793-1.043-4.543-1.043-4.504 0-6.031 4.168-6.176 8.04l.07.074c1.227-1.785 2.832-2.606 5.028-2.606 4.91 0 7.59 3.13 7.59 7.93 0 5.621-2.754 9.344-8.637 9.344-7.219 0-8.82-5.992-8.82-12.098C22.727 8.504 25 .762 33.414.762c1.895 0 3.684.3 5.469.933zM27.937 19.152c0 2.453 1.043 4.614 3.61 4.614 2.422 0 3.43-2.348 3.43-4.653 0-2.535-1.047-4.879-3.54-4.879-2.527 0-3.5 2.313-3.5 4.918m0 0"/></g></g><g id="j" clip-path="url(#g)"><path fill="#0171C5" d="M0 68.5v-62A6.5 6.5 0 0 1 6.5 0h62A6.5 6.5 0 0 1 75 6.5v62a6.5 6.5 0 0 1-6.5 6.5h-62A6.5 6.5 0 0 1 0 68.5m0 0"/><path fill="#FFF" d="M7.5 67.5v-60h60v60Zm0 0"/><use xlink:href="#h" transform="translate(20 10)"/><use xlink:href="#i" transform="translate(16 33)"/></g></defs><use xlink:href="#j"/></svg>