<svg xmlns="http://www.w3.org/2000/svg" xmlns:xlink="http://www.w3.org/1999/xlink" width="75" height="75"><defs><clipPath id="b"><path d="M1 .625h14v18.75H1Zm0 0"/></clipPath><clipPath id="c"><path d="M16 .625h18v18.75H16Zm0 0"/></clipPath><clipPath id="a"><path d="M0 0h35v20H0z"/></clipPath><clipPath id="e"><path d="M1 1h21v26.637H1Zm0 0"/></clipPath><clipPath id="f"><path d="M23 .762h19v26.875H23Zm0 0"/></clipPath><clipPath id="d"><path d="M0 0h43v28H0z"/></clipPath><clipPath id="g"><path d="M0 0h75v75H0z"/></clipPath><g id="h" clip-path="url(#a)"><g clip-path="url(#b)"><path d="M14.738 18.797a17 17 0 0 1-4.004.578c-5.687 0-9.656-2.926-9.656-9.047 0-6.2 3.668-9.664 9.656-9.664 1.352.008 2.692.258 3.965.73l-.261 3.044a7.17 7.17 0 0 0-3.817-.961c-3.629 0-5.914 2.847-5.914 6.543 0 3.695 2.207 6.468 5.988 6.468 1.387 0 3.032-.308 3.856-.77Zm0 0"/></g><g clip-path="url(#c)"><path d="M25.316.625c5.54 0 8.606 3.852 8.606 9.316 0 5.47-3.067 9.399-8.606 9.399-5.652 0-8.609-3.852-8.609-9.399 0-5.543 2.996-9.316 8.61-9.316m0 15.863c3.593 0 4.94-3.312 4.94-6.547 0-3.23-1.425-6.464-4.94-6.464-3.52 0-4.942 3.27-4.942 6.464 0 3.274 1.348 6.547 4.941 6.547"/></g></g><g id="i" clip-path="url(#d)"><g clip-path="url(#e)"><path d="M1.754 17.586 11.469 1.21h6.48v16.71h3.313v3.872h-3.313v5.398h-4.992v-5.398H1.754zm11.203.336V6.645h-.074L6.44 17.922Zm0 0"/></g><g clip-path="url(#f)"><path d="M36.258 13.195v.075c3.426 1.601 4.988 3.832 4.988 6.812 0 5.246-3.793 7.555-8.937 7.555-5.059 0-9.153-2.196-9.153-7.48 0-2.903 1.64-4.915 4.766-6.438v-.074c-2.61-1.157-4.32-3.317-4.32-6.032 0-4.656 3.539-6.851 8.261-6.851 4.582 0 8.715 1.898 8.715 6.254 0 2.343-1.453 5.062-4.32 6.218zm-7.895 6.887c0 2.16 1.867 3.684 3.946 3.684 2.09 0 3.726-1.305 3.726-3.461 0-2.57-2.195-3.797-4.355-4.504-1.864.894-3.317 2.086-3.317 4.281M35.59 7.91c0-1.937-1.23-3.277-3.203-3.277-1.899 0-3.797 1.043-3.797 3.129 0 2.234 2.305 3.234 4.098 3.906 1.449-.52 2.902-2.16 2.902-3.758m0 0"/></g></g><g id="j" clip-path="url(#g)"><path fill="#0171C5" d="M0 68.5v-62A6.5 6.5 0 0 1 6.5 0h62A6.5 6.5 0 0 1 75 6.5v62a6.5 6.5 0 0 1-6.5 6.5h-62A6.5 6.5 0 0 1 0 68.5m0 0"/><path fill="#FFF" d="M7.5 67.5v-60h60v60Zm0 0"/><use xlink:href="#h" transform="translate(20 10)"/><use xlink:href="#i" transform="translate(16 33)"/></g></defs><use xlink:href="#j"/></svg>