<svg xmlns="http://www.w3.org/2000/svg" xmlns:xlink="http://www.w3.org/1999/xlink" width="75" height="75"><defs><clipPath id="b"><path d="M1 .625h14v18.75H1Zm0 0"/></clipPath><clipPath id="c"><path d="M16 .625h18v18.75H16Zm0 0"/></clipPath><clipPath id="a"><path d="M0 0h35v20H0z"/></clipPath><clipPath id="e"><path d="M1 1h21v26.637H1Zm0 0"/></clipPath><clipPath id="f"><path d="M23 .762h19v26.875H23Zm0 0"/></clipPath><clipPath id="d"><path d="M0 0h43v28H0z"/></clipPath><clipPath id="g"><path d="M0 0h75v75H0z"/></clipPath><g id="h" clip-path="url(#a)"><g clip-path="url(#b)"><path d="M14.738 18.797a17 17 0 0 1-4.004.578c-5.687 0-9.656-2.926-9.656-9.047 0-6.2 3.668-9.664 9.656-9.664 1.352.008 2.692.258 3.965.73l-.261 3.044a7.17 7.17 0 0 0-3.817-.961c-3.629 0-5.914 2.847-5.914 6.543 0 3.695 2.207 6.468 5.988 6.468 1.387 0 3.032-.308 3.856-.77Zm0 0"/></g><g clip-path="url(#c)"><path d="M25.316.625c5.54 0 8.606 3.852 8.606 9.316 0 5.47-3.067 9.399-8.606 9.399-5.652 0-8.609-3.852-8.609-9.399 0-5.543 2.996-9.316 8.61-9.316m0 15.863c3.593 0 4.94-3.312 4.94-6.547 0-3.23-1.425-6.464-4.94-6.464-3.52 0-4.942 3.27-4.942 6.464 0 3.274 1.348 6.547 4.941 6.547"/></g></g><g id="i" clip-path="url(#d)"><g clip-path="url(#e)"><path d="M1.902 17.586 11.617 1.21h6.48v16.71h3.31v3.872h-3.31v5.398h-4.992v-5.398H1.902zm11.203.336V6.645h-.074L6.594 17.922Zm0 0"/></g><g clip-path="url(#f)"><path d="M25.61 22.5c1.378.598 2.792 1.043 4.542 1.043 4.508 0 6.028-4.168 6.18-8.043l-.074-.07c-1.23 1.824-2.832 2.601-5.028 2.601-4.91 0-7.59-3.125-7.59-7.926 0-5.62 2.75-9.343 8.633-9.343 7.223 0 8.825 5.992 8.825 12.101 0 7.032-2.27 14.774-10.688 14.774a16.1 16.1 0 0 1-5.472-.93zM35.883 9.25c0-2.457-1.043-4.617-3.61-4.617-2.418 0-3.421 2.344-3.421 4.652 0 2.531 1.039 4.88 3.535 4.88 2.531 0 3.496-2.31 3.496-4.915m0 0"/></g></g><g id="j" clip-path="url(#g)"><path fill="#0171C5" d="M0 68.5v-62A6.5 6.5 0 0 1 6.5 0h62A6.5 6.5 0 0 1 75 6.5v62a6.5 6.5 0 0 1-6.5 6.5h-62A6.5 6.5 0 0 1 0 68.5m0 0"/><path fill="#FFF" d="M7.5 67.5v-60h60v60Zm0 0"/><use xlink:href="#h" transform="translate(20 10)"/><use xlink:href="#i" transform="translate(16 33)"/></g></defs><use xlink:href="#j"/></svg>