<svg xmlns="http://www.w3.org/2000/svg" xmlns:xlink="http://www.w3.org/1999/xlink" width="75" height="75"><defs><path id="a" d="M13.688-11.047q-1.5-1.828-3.704-1.828-.971 0-1.796.36a4.25 4.25 0 0 0-1.407.953q-.597.609-.937 1.453A4.6 4.6 0 0 0 5.5-8.312q-.001.984.344 1.828.34.831.937 1.453.61.61 1.422.968.81.345 1.766.344 2.061.002 3.719-1.765v5.109l-.438.156q-1.003.34-1.86.516a8.7 8.7 0 0 1-1.687.172 8.6 8.6 0 0 1-3.297-.656 8.8 8.8 0 0 1-2.765-1.829 9 9 0 0 1-1.938-2.78Q.983-6.422.984-8.345q0-1.905.72-3.5a8.9 8.9 0 0 1 1.905-2.75 8.7 8.7 0 0 1 2.782-1.797 8.805 8.805 0 0 1 5.281-.437 12.3 12.3 0 0 1 2.016.64Zm0 0"/><path id="b" d="M7.953-17.64H4.656v-4.985h9.172V0H7.953Zm0 0"/><path id="c" d="M16.797-17.64H8.969l-.39 2.484q.543-.047.983-.094.452-.047.938-.047 1.7 0 3.172.61 1.482.597 2.531 1.64 1.043 1.051 1.64 2.516.61 1.47.61 3.219c0 1.218-.23 2.32-.687 3.296a7.06 7.06 0 0 1-1.907 2.5q-1.218 1.033-3 1.579c-1.18.375-2.484.562-3.921.562a15 15 0 0 1-3.891-.5q-1.846-.48-3.453-1.5l.86-5.531q1.499 1.3 3.062 1.968 1.56.673 2.968.672 1.81.002 2.86-.968c.695-.645 1.047-1.453 1.047-2.422 0-1.114-.477-2.016-1.422-2.703q-1.408-1.046-3.672-1.047-1.031 0-2.11.234a9.8 9.8 0 0 0-2.125.703l1.891-12.156h11.844Zm0 0"/></defs><path fill="#00BB85" d="M74.996 37.5c0-20.71-16.789-37.5-37.5-37.5s-37.5 16.79-37.5 37.5S16.786 75 37.496 75s37.5-16.79 37.5-37.5m0 0"/><path fill="#FFF" d="M65.996 37.5c0-15.742-12.758-28.5-28.5-28.5-15.738 0-28.5 12.758-28.5 28.5S21.758 66 37.496 66c15.742 0 28.5-12.758 28.5-28.5m0 0"/><use xlink:href="#a" x="30.16" y="30.995"/><use xlink:href="#b" x="18.042" y="57.996"/><use xlink:href="#c" x="36.551" y="57.996"/></svg>