<?xml version="1.0" encoding="UTF-8"?>
<!-- Created with Inkscape (http://www.inkscape.org/) -->
<svg width="100" height="100" version="1.1" viewBox="0 0 100 100" xml:space="preserve" xmlns="http://www.w3.org/2000/svg"><defs><style>.cls-1{fill:#0073bc;}.cls-2{fill:#fff;}.cls-3{fill:#f99d1c;}</style></defs><rect class="cls-1" width="100" height="100" rx="16.7" stroke-width="2.3"/><path class="cls-2" d="m40.9 36.1a40.9 40.9 0 0 0-12.7-2.23c-4.53 0-7.72 1.64-7.72 4.12 0 6.92 24.2 6.73 24.2 17 0 6.88-8.34 9.61-18.6 9.61a70 70 0 0 1-13-1.24v-5.09a44.6 44.6 0 0 0 14.3 2.88c5.37 0 9.3-1.43 9.3-4.74 0-7.54-24.2-7.07-24.2-17.3 0-5.33 6.2-8.44 16.8-8.44a102 102 0 0 1 11.8 0.868z" stroke-width="3.1"/><path class="cls-2" d="m50 47.8c0-9.86 5.58-17 20-17 14.4 0 20.1 6.95 20.1 17 0 10-5.64 17-20.1 17-14.5 0-20-7.26-20-17zm20 14.1c10 0 11.4-8.31 11.4-14.1s-1.4-14.3-11.4-14.3c-9.99 0-11.3 8.31-11.3 14.3s1.27 14 11.3 14z" stroke-width="3.1"/><rect class="cls-3" x="9.34" y="70.3" width="81.3" height="2.89" stroke-width="2.05"/></svg>
