<svg xmlns="http://www.w3.org/2000/svg" xmlns:xlink="http://www.w3.org/1999/xlink" width="75" height="75"><defs><path id="a" d="m10.766-6.156-1.938-5.531-1.937 5.53Zm1.14 3.281H5.734L4.75 0H.156L6.47-16.594h4.703L17.484 0h-4.593Zm0 0"/><path id="b" d="M7.953-17.64H4.656v-4.985h9.172V0H7.953Zm0 0"/></defs><path fill="#E14131" d="M74.996 37.5c0-20.71-16.789-37.5-37.5-37.5s-37.5 16.79-37.5 37.5S16.786 75 37.496 75s37.5-16.79 37.5-37.5m0 0"/><path fill="#FFF" d="M65.996 37.5c0-15.742-12.758-28.5-28.5-28.5-15.738 0-28.5 12.758-28.5 28.5S21.758 66 37.496 66c15.742 0 28.5-12.758 28.5-28.5m0 0"/><use xlink:href="#a" x="28.675" y="30.995"/><use xlink:href="#b" x="18.897" y="58.31"/><use xlink:href="#b" x="35.697" y="58.31"/></svg>