<?xml version="1.0" encoding="UTF-8"?>
<svg width="70" height="30" version="1.1" xml:space="preserve" xmlns="http://www.w3.org/2000/svg" xmlns:xlink="http://www.w3.org/1999/xlink"><defs><clipPath id="a"><path d="M0 0h35v20H0z"/></clipPath><clipPath id="d"><path d="M0 0h43v28H0z"/></clipPath><clipPath><path d="M0 0h35v20H0z"/></clipPath><clipPath><path d="M0 0h43v28H0z"/></clipPath><clipPath><path d="M.332 0H75v74.332H.332Zm0 0"/></clipPath><clipPath id="a-9"><path d="M0 0h75v75H0z"/></clipPath><clipPath><path d="M.04.582h8.937v13.5H.039Zm0 0"/></clipPath><clipPath><path d="M9 .582h12.637v13.5H9Zm0 0"/></clipPath><clipPath id="c-2"><path d="M0 0h22v15H0z"/></clipPath><clipPath id="g"><path d="m4 0.133h18v24.402h-18z"/></clipPath><clipPath><path d="m26 0.133h10v24.402h-10z"/></clipPath><clipPath id="f-7"><path d="M0 0h40v25H0z"/></clipPath><clipPath><path d="M0 0h75v75H0z"/></clipPath><g id="j" clip-path="url(#a-9)"/><g id="k" clip-path="url(#c-2)"/><g id="l" clip-path="url(#f-7)"/></defs><path d="m30 0h10v30h-10z" fill="#d75b80" stroke-width="0" style="paint-order:fill markers stroke"/><circle cx="35" cy="15" r="6" fill="#fff" stroke="#d75b80" stroke-width="2" style="paint-order:fill markers stroke"/><g transform="translate(63.957 -75.928)" fill="#0da95c" stroke-width="0"><path d="m30 0h10v30h-10z" style="paint-order:fill markers stroke"/><path d="m44 0h10v30h-10z" style="paint-order:fill markers stroke"/><path d="m16 0h10v30h-10z" style="paint-order:fill markers stroke"/></g><circle cx="84.957" cy="-60.928" r="6" fill="#fff" stroke="#0da95c" stroke-width="2" style="paint-order:fill markers stroke"/></svg>
