<svg xmlns="http://www.w3.org/2000/svg" width="75" height="75" fill="none" viewBox="0 0 24 24"><g clip-path="url(#a)"><path fill="#fff" d="M19.2 0H4.8A4.8 4.8 0 0 0 0 4.8v14.4A4.8 4.8 0 0 0 4.8 24h14.4a4.8 4.8 0 0 0 4.8-4.8V4.8A4.8 4.8 0 0 0 19.2 0Z"/><path fill="#FCC800" d="M19.2 23.399H4.808a4.233 4.233 0 0 1-4.232-4.233V4.775A4.233 4.233 0 0 1 4.808.542H19.2a4.233 4.233 0 0 1 4.233 4.233v14.391A4.233 4.233 0 0 1 19.2 23.4Z"/><path fill="#595757" d="M7.399 7.602c.468.237.983.364 1.507.373.618 0 .948-.254.948-.652s-.28-.584-.999-.847c-.999-.355-1.693-.914-1.693-1.786 0-1.024.846-1.795 2.269-1.795.527-.015 1.05.09 1.532.305l-.305 1.084a2.751 2.751 0 0 0-1.244-.288c-.584 0-.847.28-.847.584 0 .305.33.55 1.11.846 1.057.398 1.548.949 1.548 1.795 0 1.008-.761 1.854-2.412 1.854a3.86 3.86 0 0 1-1.693-.372l.279-1.1ZM16.999 8.72a6.696 6.696 0 0 1-2.006.338 3.386 3.386 0 0 1-2.438-.796 3.022 3.022 0 0 1-.847-2.192c0-1.99 1.456-3.132 3.428-3.132a4.232 4.232 0 0 1 1.694.287l-.28 1.092a3.116 3.116 0 0 0-1.388-.262 1.956 1.956 0 1 0-.102 3.911c.223.008.446-.017.66-.076V6.62h-.922V5.562h2.235l-.034 3.158ZM11.606 16.16c0 2.854-1.16 4.843-3.513 4.843-2.353 0-3.462-2.159-3.47-4.791-.01-2.633 1.125-4.817 3.52-4.817 2.397 0 3.463 2.218 3.463 4.766Zm-4.817.052c0 2.133.517 3.149 1.346 3.149.83 0 1.296-1.058 1.296-3.175 0-2.116-.44-3.14-1.312-3.14-.872 0-1.33.998-1.33 3.166ZM15.297 13.486h-.025l-1.77.846-.363-1.634 2.472-1.142h1.786v9.286h-2.1v-7.356Z"/></g><defs><clipPath id="a"><path fill="#fff" d="M0 0h75v75H0z"/></clipPath></defs></svg>