<svg xmlns="http://www.w3.org/2000/svg" width="75" height="75" fill="none" viewBox="0 0 24 24"><g clip-path="url(#a)"><path fill="#fff" d="M19.2 0H4.8A4.8 4.8 0 0 0 0 4.8v14.4A4.8 4.8 0 0 0 4.8 24h14.4a4.8 4.8 0 0 0 4.8-4.8V4.8A4.8 4.8 0 0 0 19.2 0Z"/><path fill="#FCC800" d="M19.2 23.399H4.808a4.233 4.233 0 0 1-4.232-4.233V4.775A4.233 4.233 0 0 1 4.808.542H19.2a4.233 4.233 0 0 1 4.233 4.233v14.391A4.233 4.233 0 0 1 19.2 23.4Z"/><path fill="#595757" d="M7.399 7.602c.468.237.983.364 1.507.373.618 0 .948-.254.948-.652s-.28-.584-.999-.847c-.999-.355-1.693-.914-1.693-1.786 0-1.024.846-1.795 2.269-1.795.527-.015 1.05.09 1.532.305l-.305 1.084a2.751 2.751 0 0 0-1.244-.288c-.584 0-.847.28-.847.584 0 .305.33.55 1.11.846 1.057.39 1.548.94 1.548 1.787 0 1.007-.761 1.862-2.412 1.862a3.852 3.852 0 0 1-1.693-.38l.279-1.093ZM16.999 8.728a7.018 7.018 0 0 1-2.006.33 3.386 3.386 0 0 1-2.438-.796 3.022 3.022 0 0 1-.847-2.192c0-1.99 1.456-3.132 3.428-3.132a4.232 4.232 0 0 1 1.694.287l-.28 1.092a3.133 3.133 0 0 0-1.388-.254 1.956 1.956 0 0 0-.102 3.903c.223.008.446-.017.66-.076V6.62h-.922V5.562h2.235l-.034 3.166ZM11.606 16.16c0 2.854-1.16 4.843-3.513 4.843-2.353 0-3.462-2.159-3.47-4.791-.01-2.633 1.125-4.809 3.52-4.809 2.397 0 3.463 2.21 3.463 4.758Zm-4.817.052c0 2.133.517 3.149 1.346 3.149.83 0 1.296-1.058 1.296-3.175 0-2.116-.44-3.14-1.312-3.14-.872 0-1.33.998-1.33 3.166ZM12.919 18.718a4.937 4.937 0 0 0 2.158.567c1.126 0 1.693-.542 1.693-1.228 0-.931-.914-1.346-1.87-1.346h-.847v-1.558h.846c.729 0 1.643-.279 1.643-1.066 0-.559-.44-.974-1.372-.974a4.15 4.15 0 0 0-1.93.559l-.44-1.575a5.807 5.807 0 0 1 2.87-.694c1.972 0 3.073 1.041 3.073 2.311a2.218 2.218 0 0 1-1.693 2.159 2.312 2.312 0 0 1 2.014 2.277c0 1.626-1.439 2.828-3.8 2.828a5.605 5.605 0 0 1-2.752-.644l.406-1.616Z"/></g><defs><clipPath id="a"><path fill="#fff" d="M0 0h75v75H0z"/></clipPath></defs></svg>