<svg xmlns="http://www.w3.org/2000/svg" width="75" height="75" fill="none" viewBox="0 0 24 24"><g clip-path="url(#a)"><path fill="#fff" d="M19.2 0H4.8A4.8 4.8 0 0 0 0 4.8v14.4A4.8 4.8 0 0 0 4.8 24h14.4a4.8 4.8 0 0 0 4.8-4.8V4.8A4.8 4.8 0 0 0 19.2 0Z"/><path fill="#FCC800" d="M19.2 23.424H4.808a4.233 4.233 0 0 1-4.232-4.232V4.8A4.233 4.233 0 0 1 4.808.567H19.2A4.233 4.233 0 0 1 23.433 4.8v14.392a4.233 4.233 0 0 1-4.233 4.232Z"/><path fill="#595757" d="M7.399 7.602c.468.237.983.364 1.507.373.618 0 .948-.254.948-.644s-.28-.592-.999-.846c-.999-.356-1.693-.915-1.693-1.787 0-1.015.846-1.794 2.269-1.794.527-.015 1.05.089 1.532.304l-.305 1.084a2.751 2.751 0 0 0-1.244-.288c-.584 0-.847.28-.847.584 0 .305.33.55 1.11.847 1.057.39 1.548.94 1.548 1.786 0 1.008-.761 1.863-2.412 1.863a3.733 3.733 0 0 1-1.693-.381l.279-1.1ZM16.999 8.728a7.018 7.018 0 0 1-2.006.33 3.386 3.386 0 0 1-2.438-.796 3.022 3.022 0 0 1-.847-2.192c0-1.99 1.456-3.132 3.428-3.132a4.232 4.232 0 0 1 1.694.287l-.28 1.092a3.133 3.133 0 0 0-1.388-.254 1.956 1.956 0 0 0-.102 3.903c.223.008.446-.017.66-.076V6.62h-.922V5.562h2.235l-.034 3.166ZM11.606 16.16c0 2.854-1.16 4.843-3.513 4.843-2.353 0-3.462-2.158-3.47-4.791-.01-2.633 1.125-4.809 3.52-4.809 2.397 0 3.463 2.21 3.463 4.758Zm-4.817.052c0 2.133.517 3.149 1.346 3.149.83 0 1.296-1.058 1.296-3.175 0-2.116-.44-3.14-1.312-3.14-.872 0-1.33.999-1.33 3.166ZM16.372 20.885v-2.21h-4.114v-1.422l3.505-5.655h2.667v5.443h1.1v1.634h-1.1v2.21h-2.058Zm0-3.844V14.96c0-.559 0-1.126.06-1.693-.305.6-.559 1.143-.847 1.693l-1.227 2.032 2.014.05Z"/></g><defs><clipPath id="a"><path fill="#fff" d="M0 0h75v75H0z"/></clipPath></defs></svg>