<svg xmlns="http://www.w3.org/2000/svg" width="75" height="75" fill="none" viewBox="0 0 24 24"><g clip-path="url(#a)"><path fill="#fff" d="M19.2 0H4.8A4.8 4.8 0 0 0 0 4.8v14.4A4.8 4.8 0 0 0 4.8 24h14.4a4.8 4.8 0 0 0 4.8-4.8V4.8A4.8 4.8 0 0 0 19.2 0Z"/><path fill="#FCC800" d="M19.2 23.399H4.808a4.233 4.233 0 0 1-4.232-4.233V4.775A4.233 4.233 0 0 1 4.808.542H19.2a4.233 4.233 0 0 1 4.233 4.233v14.391A4.232 4.232 0 0 1 19.2 23.4Z"/><path fill="#595757" d="M7.399 7.602c.468.237.983.364 1.507.373.618 0 .948-.254.948-.644s-.28-.592-.999-.846c-.999-.356-1.693-.906-1.693-1.787 0-1.015.846-1.794 2.269-1.794.527-.015 1.05.089 1.532.304l-.305 1.084a2.751 2.751 0 0 0-1.244-.288c-.584 0-.847.28-.847.584 0 .305.33.55 1.11.847 1.057.39 1.548.94 1.548 1.786 0 1.008-.761 1.863-2.412 1.863A3.86 3.86 0 0 1 7.12 8.71l.279-1.109ZM16.999 8.728a6.984 6.984 0 0 1-2.006.339 3.386 3.386 0 0 1-2.438-.805 3.022 3.022 0 0 1-.847-2.192c0-1.99 1.456-3.132 3.428-3.132a4.232 4.232 0 0 1 1.694.287l-.28 1.092a3.133 3.133 0 0 0-1.388-.254 1.956 1.956 0 0 0-.102 3.903c.223.008.446-.017.66-.076V6.62h-.922V5.562h2.235l-.034 3.166ZM11.606 16.16c0 2.854-1.16 4.843-3.513 4.843-2.353 0-3.462-2.159-3.47-4.791-.01-2.633 1.125-4.809 3.52-4.809 2.397 0 3.463 2.21 3.463 4.758Zm-4.817.052c0 2.133.517 3.149 1.346 3.149.83 0 1.296-1.058 1.296-3.175 0-2.116-.44-3.14-1.312-3.14-.872 0-1.33.998-1.33 3.166ZM18.734 13.342h-3.606l-.195 1.43a4.5 4.5 0 0 1 .601 0 4.232 4.232 0 0 1 2.438.67 2.642 2.642 0 0 1 1.126 2.327c0 1.693-1.481 3.26-3.978 3.26a5.926 5.926 0 0 1-2.59-.534l.397-1.625c.659.292 1.37.448 2.091.457.897 0 1.854-.432 1.854-1.414s-.753-1.54-2.616-1.54a7.378 7.378 0 0 0-1.236.084l.593-4.876h5.08l.041 1.76Z"/></g><defs><clipPath id="a"><path fill="#fff" d="M0 0h75v75H0z"/></clipPath></defs></svg>