<svg xmlns="http://www.w3.org/2000/svg" width="75" height="75" fill="none" viewBox="0 0 24 24"><g clip-path="url(#a)"><path fill="#fff" d="M19.2 0H4.8A4.8 4.8 0 0 0 0 4.8v14.4A4.8 4.8 0 0 0 4.8 24h14.4a4.8 4.8 0 0 0 4.8-4.8V4.8A4.8 4.8 0 0 0 19.2 0Z"/><path fill="#FCC800" d="M19.2 23.399H4.808a4.233 4.233 0 0 1-4.232-4.233V4.775A4.233 4.233 0 0 1 4.808.542H19.2a4.233 4.233 0 0 1 4.233 4.233v14.391A4.232 4.232 0 0 1 19.2 23.4Z"/><path fill="#595757" d="M7.399 7.594c.468.236.983.364 1.507.372.618 0 .948-.254.948-.643 0-.39-.28-.593-.999-.847-.999-.355-1.693-.906-1.693-1.778 0-1.024.846-1.803 2.269-1.803.527-.015 1.05.09 1.532.305l-.305 1.084a2.895 2.895 0 0 0-1.244-.28c-.584 0-.847.271-.847.576 0 .305.33.55 1.11.846 1.057.39 1.548.94 1.548 1.787 0 1.007-.761 1.862-2.412 1.862a3.86 3.86 0 0 1-1.693-.372l.279-1.11ZM16.999 8.728a6.984 6.984 0 0 1-2.006.339 3.386 3.386 0 0 1-2.438-.805 3.022 3.022 0 0 1-.847-2.192c0-1.99 1.456-3.132 3.428-3.132a4.232 4.232 0 0 1 1.694.287l-.28 1.092a3.133 3.133 0 0 0-1.388-.254 1.956 1.956 0 0 0-.102 3.903c.223.008.446-.017.66-.076V6.629h-.922V5.57h2.235l-.034 3.158ZM11.606 16.16c0 2.854-1.16 4.843-3.513 4.843-2.353 0-3.462-2.159-3.47-4.791-.01-2.633 1.125-4.809 3.52-4.809 2.397 0 3.463 2.21 3.463 4.758Zm-4.817.052c0 2.133.517 3.149 1.346 3.149.83 0 1.296-1.058 1.296-3.175 0-2.116-.44-3.14-1.312-3.14-.872 0-1.33.998-1.33 3.166ZM18.464 13.105a6.04 6.04 0 0 0-.847 0c-1.93.152-2.785 1.143-3.03 2.21a2.692 2.692 0 0 1 1.972-.729 2.827 2.827 0 0 1 2.878 3.03 3.329 3.329 0 0 1-3.386 3.387c-2.49 0-3.7-1.845-3.7-4.063a5.563 5.563 0 0 1 1.693-4.14 5.47 5.47 0 0 1 3.573-1.355 4.45 4.45 0 0 1 .846 0v1.66Zm-1.186 4.656a1.414 1.414 0 0 0-1.388-1.6 1.38 1.38 0 0 0-1.27.846 1.076 1.076 0 0 0-.101.56c0 .981.516 1.87 1.515 1.87.753 0 1.244-.703 1.244-1.642"/></g><defs><clipPath id="a"><path fill="#fff" d="M0 0h75v75H0z"/></clipPath></defs></svg>