<svg xmlns="http://www.w3.org/2000/svg" width="75" height="75" fill="none" viewBox="0 0 24 24"><g clip-path="url(#a)"><path fill="#fff" d="M19.2 0H4.8A4.8 4.8 0 0 0 0 4.8v14.4A4.8 4.8 0 0 0 4.8 24h14.4a4.8 4.8 0 0 0 4.8-4.8V4.8A4.8 4.8 0 0 0 19.2 0Z"/><path fill="#FCC800" d="M19.2 23.399H4.808a4.233 4.233 0 0 1-4.232-4.233V4.775A4.233 4.233 0 0 1 4.808.542H19.2a4.233 4.233 0 0 1 4.233 4.233v14.391A4.233 4.233 0 0 1 19.2 23.4Z"/><path fill="#595757" d="M7.399 7.602c.468.237.983.364 1.507.373.618 0 .948-.254.948-.644s-.28-.592-.999-.846c-.999-.356-1.693-.906-1.693-1.778 0-1.024.846-1.803 2.269-1.803.527-.015 1.05.089 1.532.304l-.305 1.084a2.895 2.895 0 0 0-1.244-.28c-.584 0-.847.272-.847.576 0 .305.33.55 1.11.847 1.057.39 1.548.94 1.548 1.786 0 1.008-.761 1.863-2.412 1.863A3.86 3.86 0 0 1 7.12 8.71l.279-1.109ZM16.999 8.728a6.696 6.696 0 0 1-2.006.339 3.386 3.386 0 0 1-2.438-.805 3.004 3.004 0 0 1-.847-2.192c0-1.99 1.456-3.132 3.428-3.132a4.233 4.233 0 0 1 1.694.287l-.288 1.11a3.26 3.26 0 0 0-1.389-.255 1.955 1.955 0 0 0-.101 3.903c.223.008.445-.017.66-.076V6.646h-.923V5.587h2.235L17 8.728ZM11.606 16.186c0 2.853-1.16 4.843-3.513 4.843-2.353 0-3.462-2.16-3.47-4.783-.01-2.625 1.125-4.817 3.52-4.817 2.397 0 3.463 2.21 3.463 4.757Zm-4.817.06c0 2.124.517 3.14 1.346 3.14.83 0 1.296-1.058 1.296-3.174 0-2.117-.44-3.141-1.312-3.141-.872 0-1.33.999-1.33 3.175ZM19.183 11.556v1.371l-3.826 7.915h-2.303l3.835-7.475v-.025H12.63v-1.786h6.552Z"/></g><defs><clipPath id="a"><path fill="#fff" d="M0 0h75v75H0z"/></clipPath></defs></svg>