<svg xmlns="http://www.w3.org/2000/svg" width="75" height="75" fill="none" viewBox="0 0 24 24"><g clip-path="url(#a)"><path fill="#fff" d="M19.2 0H4.8A4.8 4.8 0 0 0 0 4.8v14.4A4.8 4.8 0 0 0 4.8 24h14.4a4.8 4.8 0 0 0 4.8-4.8V4.8A4.8 4.8 0 0 0 19.2 0Z"/><path fill="#FCC800" d="M19.2 23.399H4.808a4.233 4.233 0 0 1-4.232-4.233V4.775A4.233 4.233 0 0 1 4.808.542H19.2a4.233 4.233 0 0 1 4.233 4.233v14.391A4.233 4.233 0 0 1 19.2 23.4Z"/><path fill="#595757" d="M7.399 7.602c.468.237.983.364 1.507.373.618 0 .948-.254.948-.644s-.28-.592-.999-.846c-.999-.356-1.693-.906-1.693-1.778 0-1.024.846-1.803 2.269-1.803.527-.015 1.05.089 1.532.304l-.305 1.084a2.895 2.895 0 0 0-1.244-.28c-.584 0-.847.272-.847.576 0 .305.33.55 1.11.847 1.057.39 1.548.94 1.548 1.786 0 1.008-.761 1.863-2.412 1.863A3.86 3.86 0 0 1 7.12 8.71l.279-1.109ZM16.999 8.694a6.696 6.696 0 0 1-2.006.339 3.386 3.386 0 0 1-2.438-.804 2.997 2.997 0 0 1-.847-2.185c0-1.997 1.456-3.14 3.428-3.14a4.233 4.233 0 0 1 1.694.288l-.28 1.092a3.26 3.26 0 0 0-1.388-.254 1.955 1.955 0 0 0-.102 3.902c.223.008.446-.017.66-.076V6.595h-.922V5.536h2.235l-.034 3.158ZM11.606 16.16c0 2.854-1.16 4.843-3.513 4.843-2.353 0-3.462-2.158-3.47-4.783-.01-2.624 1.125-4.817 3.52-4.817 2.397 0 3.463 2.21 3.463 4.758Zm-4.817.06c0 2.125.517 3.14 1.346 3.14.83 0 1.296-1.057 1.296-3.174 0-2.116-.44-3.14-1.312-3.14-.872 0-1.33.999-1.33 3.174ZM14.044 16.06a2.295 2.295 0 0 1-1.346-2.04c0-1.575 1.423-2.617 3.277-2.617 2.167 0 3.073 1.253 3.073 2.387a2.26 2.26 0 0 1-1.363 2.04v.043a2.464 2.464 0 0 1 1.693 2.303c0 1.693-1.414 2.827-3.573 2.827-2.353 0-3.445-1.329-3.445-2.59a2.48 2.48 0 0 1 1.693-2.328l-.009-.026Zm3.141 2.285c0-.847-.61-1.304-1.456-1.532a1.414 1.414 0 0 0-1.126 1.388 1.27 1.27 0 0 0 1.312 1.304 1.17 1.17 0 0 0 1.27-1.16Zm-2.421-4.402c0 .626.55 1.033 1.295 1.261a1.27 1.27 0 0 0 .94-1.177 1.056 1.056 0 0 0-1.126-1.15 1.024 1.024 0 0 0-1.109 1.066Z"/></g><defs><clipPath id="a"><path fill="#fff" d="M0 0h75v75H0z"/></clipPath></defs></svg>