<svg xmlns="http://www.w3.org/2000/svg" width="75" height="75" fill="none" viewBox="0 0 24 24"><g clip-path="url(#a)"><path fill="#fff" d="M19.2 0H4.8A4.8 4.8 0 0 0 0 4.8v14.4A4.8 4.8 0 0 0 4.8 24h14.4a4.8 4.8 0 0 0 4.8-4.8V4.8A4.8 4.8 0 0 0 19.2 0Z"/><path fill="#FCC800" d="M19.2 23.399H4.808a4.233 4.233 0 0 1-4.232-4.233V4.775A4.233 4.233 0 0 1 4.808.542H19.2a4.233 4.233 0 0 1 4.233 4.233v14.391A4.233 4.233 0 0 1 19.2 23.4Z"/><path fill="#595757" d="M7.399 7.602c.468.237.983.364 1.507.373.618 0 .948-.254.948-.644s-.28-.592-.999-.846c-.999-.356-1.693-.906-1.693-1.778 0-1.024.846-1.803 2.269-1.803.527-.015 1.05.089 1.532.304l-.305 1.084a2.895 2.895 0 0 0-1.244-.28c-.584 0-.847.272-.847.576 0 .305.33.55 1.11.847 1.057.39 1.548.94 1.548 1.786 0 1.008-.761 1.863-2.412 1.863A3.86 3.86 0 0 1 7.12 8.71l.279-1.109ZM16.999 8.728a6.696 6.696 0 0 1-2.006.339 3.386 3.386 0 0 1-2.438-.847 2.997 2.997 0 0 1-.847-2.184c0-1.998 1.456-3.132 3.428-3.132a4.284 4.284 0 0 1 1.694.28l-.28 1.1a3.115 3.115 0 0 0-1.388-.263 1.955 1.955 0 0 0-.102 3.903c.223.008.446-.018.66-.076V6.586h-.922V5.528h2.235l-.034 3.2ZM11.606 16.16c0 2.854-1.16 4.843-3.513 4.843-2.353 0-3.462-2.158-3.47-4.791-.01-2.633 1.125-4.809 3.52-4.809 2.397 0 3.463 2.21 3.463 4.758Zm-4.817.052c0 2.133.517 3.149 1.346 3.149.83 0 1.296-1.058 1.296-3.175 0-2.116-.44-3.14-1.312-3.14-.872 0-1.33.999-1.33 3.166ZM13.206 19.285c.313.025.627.025.94 0a3.673 3.673 0 0 0 1.829-.568c.591-.393 1.01-1 1.168-1.693a2.48 2.48 0 0 1-1.871.67 2.777 2.777 0 0 1-2.887-2.896 3.385 3.385 0 0 1 3.497-3.344c2.387 0 3.521 1.829 3.521 3.996a5.029 5.029 0 0 1-5.19 5.579 9.46 9.46 0 0 1-.981 0l-.026-1.744Zm1.313-4.665a1.329 1.329 0 0 0 1.312 1.482 1.38 1.38 0 0 0 1.219-.601 1.21 1.21 0 0 0 .093-.56c0-.981-.356-1.955-1.372-1.955-.728 0-1.253.66-1.253 1.634Z"/></g><defs><clipPath id="a"><path fill="#fff" d="M0 0h75v75H0z"/></clipPath></defs></svg>