<svg xmlns="http://www.w3.org/2000/svg" width="75" height="75" fill="none" viewBox="0 0 24 24"><g clip-path="url(#a)"><path fill="#fff" d="M19.2 0H4.8A4.8 4.8 0 0 0 0 4.8v14.4A4.8 4.8 0 0 0 4.8 24h14.4a4.8 4.8 0 0 0 4.8-4.8V4.8A4.8 4.8 0 0 0 19.2 0Z"/><path fill="#FCC800" d="M19.2 23.399H4.808a4.233 4.233 0 0 1-4.232-4.233V4.775A4.233 4.233 0 0 1 4.808.542H19.2a4.233 4.233 0 0 1 4.233 4.233v14.391A4.232 4.232 0 0 1 19.2 23.4Z"/><path fill="#595757" d="M7.399 7.602c.466.242.982.373 1.507.381.618 0 .948-.262.948-.652s-.28-.592-.999-.846c-.999-.356-1.693-.906-1.693-1.778 0-1.024.846-1.803 2.269-1.803.527-.015 1.05.089 1.532.304l-.305 1.084a2.895 2.895 0 0 0-1.244-.28c-.584 0-.847.272-.847.576 0 .305.33.55 1.11.847 1.057.39 1.548.94 1.548 1.786 0 1.008-.761 1.863-2.412 1.863A3.86 3.86 0 0 1 7.12 8.71l.279-1.109ZM16.999 8.728a6.696 6.696 0 0 1-2.006.339 3.386 3.386 0 0 1-2.438-.805 2.997 2.997 0 0 1-.847-2.184c0-1.998 1.456-3.132 3.428-3.132a4.284 4.284 0 0 1 1.694.28l-.28 1.1a3.116 3.116 0 0 0-1.388-.263 1.955 1.955 0 0 0-.102 3.903c.223.008.446-.017.66-.076V6.629h-.922V5.562h2.235l-.034 3.166ZM7.517 13.486h-.033l-1.77.838-.355-1.626 2.472-1.142h1.786v9.286h-2.1v-7.356ZM19.386 16.16c0 2.854-1.151 4.843-3.513 4.843s-3.454-2.159-3.47-4.783c-.018-2.624 1.125-4.817 3.53-4.817 2.404 0 3.453 2.21 3.453 4.758Zm-4.808.06c0 2.125.508 3.14 1.337 3.14.83 0 1.304-1.057 1.304-3.174 0-2.116-.449-3.14-1.32-3.14-.873 0-1.321.998-1.321 3.174Z"/></g><defs><clipPath id="a"><path fill="#fff" d="M0 0h75v75H0z"/></clipPath></defs></svg>