<svg xmlns="http://www.w3.org/2000/svg" xmlns:xlink="http://www.w3.org/1999/xlink" width="75" height="75"><defs><clipPath id="b"><path d="M4 .625h9v18.75H4Zm0 0"/></clipPath><clipPath id="c"><path d="M15 .625h16v18.75H15Zm0 0"/></clipPath><clipPath id="a"><path d="M0 0h35v20H0z"/></clipPath><clipPath id="e"><path d="M2 .762h19v26.875H2Zm0 0"/></clipPath><clipPath id="f"><path d="M22 1h17v26.637H22Zm0 0"/></clipPath><clipPath id="d"><path d="M0 0h41v28H0z"/></clipPath><clipPath id="g"><path d="M0 0h75v75H0z"/></clipPath><g id="h" clip-path="url(#a)"><g clip-path="url(#b)"><path d="M4.402 15.86a4.5 4.5 0 0 0 1.73.308c2.34 0 2.34-1.887 2.34-3.195V.926h3.614v13.82c0 1.926-1.23 4.617-4.957 4.617a9.7 9.7 0 0 1-2.766-.343v-3.16Zm0 0"/></g><g clip-path="url(#c)"><path d="M15.809.926h4.457l6.875 13.547h.039V.926h3.457V19.02h-4.418L19.305 5.504h-.035V19.02h-3.461Zm0 0"/></g></g><g id="i" clip-path="url(#d)"><g clip-path="url(#e)"><path d="M2.246 14.273C2.246 7.762 4.22.762 11.25.762c7.598 0 9.086 7.48 9.086 13.511 0 6.032-1.566 13.364-9.086 13.364-8 0-9.004-7.926-9.004-13.364m12.875 0c0-3.347 0-9.64-3.871-9.64-3.793 0-3.793 6.293-3.793 9.64 0 3.278-.039 9.493 3.793 9.493 3.91 0 3.871-6.215 3.871-9.493m0 0"/></g><g clip-path="url(#f)"><path d="M22.008 1.21h16.75v4.317l-9.23 21.664H23.87l9.637-21.89h-11.5z"/></g></g><g id="j" clip-path="url(#g)"><path fill="#FFE403" d="M0 68.5v-62A6.5 6.5 0 0 1 6.5 0h62A6.5 6.5 0 0 1 75 6.5v62a6.5 6.5 0 0 1-6.5 6.5h-62A6.5 6.5 0 0 1 0 68.5m0 0"/><path fill="#FFF" d="M7.5 67.5v-60h60v60Zm0 0"/><use xlink:href="#h" transform="translate(20 10)"/><use xlink:href="#i" transform="translate(17 33)"/></g></defs><use xlink:href="#j"/></svg>