<svg xmlns="http://www.w3.org/2000/svg" xmlns:xlink="http://www.w3.org/1999/xlink" width="75" height="75"><defs><clipPath id="b"><path d="M4 .625h9v18.75H4Zm0 0"/></clipPath><clipPath id="c"><path d="M15 .625h16v18.75H15Zm0 0"/></clipPath><clipPath id="a"><path d="M0 0h35v20H0z"/></clipPath><clipPath id="e"><path d="M3 1h13v26.637H3Zm0 0"/></clipPath><clipPath id="f"><path d="M22 .762h18v26.875H22Zm0 0"/></clipPath><clipPath id="d"><path d="M0 0h43v28H0z"/></clipPath><clipPath id="g"><path d="M0 0h75v75H0z"/></clipPath><g id="h" clip-path="url(#a)"><g clip-path="url(#b)"><path d="M4.402 15.86a4.5 4.5 0 0 0 1.73.308c2.34 0 2.34-1.887 2.34-3.195V.926h3.614v13.82c0 1.926-1.23 4.617-4.957 4.617a9.7 9.7 0 0 1-2.766-.343v-3.16Zm0 0"/></g><g clip-path="url(#c)"><path d="M15.809.926h4.457l6.875 13.547h.039V.926h3.457V19.02h-4.418L19.305 5.504h-.035V19.02h-3.461Zm0 0"/></g></g><g id="i" clip-path="url(#d)"><g clip-path="url(#e)"><path d="M10.824 1.21h4.614v25.981h-5.211V7.125l-4.391 3.574-2.61-3.383z"/></g><g clip-path="url(#f)"><path d="M22.508 27.191v-4.359c2.418-2.344 11.238-9.71 11.238-14.477 0-2.382-2.121-3.496-4.246-3.496-2.191 0-4.277.965-5.984 2.082l-.418-4.316C25.449 1.434 28.16.762 30.805.762c4.949 0 8.152 2.492 8.152 7.593 0 5.512-5.543 10.57-9.789 14.739h10.605v4.097z"/></g></g><g id="j" clip-path="url(#g)"><path fill="#FFE403" d="M0 68.5v-62A6.5 6.5 0 0 1 6.5 0h62A6.5 6.5 0 0 1 75 6.5v62a6.5 6.5 0 0 1-6.5 6.5h-62A6.5 6.5 0 0 1 0 68.5m0 0"/><path fill="#FFF" d="M7.5 67.5v-60h60v60Zm0 0"/><use xlink:href="#h" transform="translate(20 10)"/><use xlink:href="#i" transform="translate(16 33)"/></g></defs><use xlink:href="#j"/></svg>