<svg xmlns="http://www.w3.org/2000/svg" xmlns:xlink="http://www.w3.org/1999/xlink" width="75" height="75"><defs><clipPath id="b"><path d="M4 .625h9v18.75H4Zm0 0"/></clipPath><clipPath id="c"><path d="M15 .625h16v18.75H15Zm0 0"/></clipPath><clipPath id="a"><path d="M0 0h35v20H0z"/></clipPath><clipPath id="e"><path d="M3 1h13v26.637H3Zm0 0"/></clipPath><clipPath id="f"><path d="M22 .762h18v26.875H22Zm0 0"/></clipPath><clipPath id="d"><path d="M0 0h43v28H0z"/></clipPath><clipPath id="g"><path d="M0 0h75v75H0z"/></clipPath><g id="h" clip-path="url(#a)"><g clip-path="url(#b)"><path d="M4.402 15.86a4.5 4.5 0 0 0 1.73.308c2.34 0 2.34-1.887 2.34-3.195V.926h3.614v13.82c0 1.926-1.23 4.617-4.957 4.617a9.7 9.7 0 0 1-2.766-.343v-3.16Zm0 0"/></g><g clip-path="url(#c)"><path d="M15.809.926h4.457l6.875 13.547h.039V.926h3.457V19.02h-4.418L19.305 5.504h-.035V19.02h-3.461Zm0 0"/></g></g><g id="i" clip-path="url(#d)"><g clip-path="url(#e)"><path d="M11.004 1.21h4.617v25.981h-5.21V7.125L6.02 10.699 3.414 7.316z"/></g><g clip-path="url(#f)"><path d="M23.137 22.355c1.785.704 3.722 1.188 5.77 1.188 2.156 0 5.472-1.04 5.472-3.684 0-3.054-2.422-4.058-5.734-4.058h-2.532v-4.094H28.5c3.492 0 5.766-1.152 5.766-3.422 0-2.61-2.121-3.426-4.47-3.426-2.042 0-4.019.485-5.839 1.38L23.66 2.07c2.082-.824 4.574-1.308 7.254-1.308 3.203 0 8.566 1.12 8.566 6.664 0 3.535-2.199 5.21-4.84 6.219v.07c3.313.45 4.95 3.02 4.95 6.183 0 6.176-5.621 7.739-9.942 7.739-2.27 0-4.875-.297-6.808-.856z"/></g></g><g id="j" clip-path="url(#g)"><path fill="#FFE403" d="M0 68.5v-62A6.5 6.5 0 0 1 6.5 0h62A6.5 6.5 0 0 1 75 6.5v62a6.5 6.5 0 0 1-6.5 6.5h-62A6.5 6.5 0 0 1 0 68.5m0 0"/><path fill="#FFF" d="M7.5 67.5v-60h60v60Zm0 0"/><use xlink:href="#h" transform="translate(20 10)"/><use xlink:href="#i" transform="translate(16 33)"/></g></defs><use xlink:href="#j"/></svg>