<svg xmlns="http://www.w3.org/2000/svg" xmlns:xlink="http://www.w3.org/1999/xlink" width="75" height="75"><defs><clipPath id="b"><path d="M4 .625h9v18.75H4Zm0 0"/></clipPath><clipPath id="c"><path d="M15 .625h16v18.75H15Zm0 0"/></clipPath><clipPath id="a"><path d="M0 0h35v20H0z"/></clipPath><clipPath id="e"><path d="M2 1h14v26.637H2Zm0 0"/></clipPath><clipPath id="f"><path d="M22 .762h19v26.875H22Zm0 0"/></clipPath><clipPath id="d"><path d="M0 0h43v28H0z"/></clipPath><clipPath id="g"><path d="M0 0h75v75H0z"/></clipPath><g id="h" clip-path="url(#a)"><g clip-path="url(#b)"><path d="M4.402 15.86a4.5 4.5 0 0 0 1.73.308c2.34 0 2.34-1.887 2.34-3.195V.926h3.614v13.82c0 1.926-1.23 4.617-4.957 4.617a9.7 9.7 0 0 1-2.766-.343v-3.16Zm0 0"/></g><g clip-path="url(#c)"><path d="M15.809.926h4.457l6.875 13.547h.039V.926h3.457V19.02h-4.418L19.305 5.504h-.035V19.02h-3.461Zm0 0"/></g></g><g id="i" clip-path="url(#d)"><g clip-path="url(#e)"><path d="M10.39 1.21h4.618v25.981H9.797V7.13l-4.39 3.57L2.8 7.316z"/></g><g clip-path="url(#f)"><path d="M38.23 5.902c-1.378-.601-2.792-1.043-4.542-1.043-4.504 0-6.028 4.168-6.18 8.04l.074.074c1.23-1.782 2.828-2.606 5.027-2.606 4.914 0 7.594 3.125 7.594 7.93 0 5.621-2.754 9.34-8.637 9.34-7.218 0-8.82-5.989-8.82-12.098 0-7.035 2.27-14.777 10.68-14.777 1.902 0 3.683.3 5.472.933zm-10.273 13.25c0 2.457 1.04 4.618 3.61 4.618 2.421 0 3.421-2.352 3.421-4.653 0-2.535-1.039-4.879-3.535-4.879-2.531 0-3.496 2.305-3.496 4.914m0 0"/></g></g><g id="j" clip-path="url(#g)"><path fill="#FFE403" d="M0 68.5v-62A6.5 6.5 0 0 1 6.5 0h62A6.5 6.5 0 0 1 75 6.5v62a6.5 6.5 0 0 1-6.5 6.5h-62A6.5 6.5 0 0 1 0 68.5m0 0"/><path fill="#FFF" d="M7.5 67.5v-60h60v60Zm0 0"/><use xlink:href="#h" transform="translate(20 10)"/><use xlink:href="#i" transform="translate(16 33)"/></g></defs><use xlink:href="#j"/></svg>