<svg xmlns="http://www.w3.org/2000/svg" xmlns:xlink="http://www.w3.org/1999/xlink" width="75" height="75"><defs><clipPath id="b"><path d="M4 .625h9v18.75H4Zm0 0"/></clipPath><clipPath id="c"><path d="M15 .625h16v18.75H15Zm0 0"/></clipPath><clipPath id="a"><path d="M0 0h35v20H0z"/></clipPath><clipPath id="e"><path d="M4 1h17v26.637H4Zm0 0"/></clipPath><clipPath id="f"><path d="M23 .762h18v26.875H23Zm0 0"/></clipPath><clipPath id="d"><path d="M0 0h45v28H0z"/></clipPath><clipPath id="g"><path d="M0 0h75v75H0z"/></clipPath><g id="h" clip-path="url(#a)"><g clip-path="url(#b)"><path d="M4.402 15.86a4.5 4.5 0 0 0 1.73.308c2.34 0 2.34-1.887 2.34-3.195V.926h3.614v13.82c0 1.926-1.23 4.617-4.957 4.617a9.7 9.7 0 0 1-2.766-.343v-3.16Zm0 0"/></g><g clip-path="url(#c)"><path d="M15.809.926h4.457l6.875 13.547h.039V.926h3.457V19.02h-4.418L19.305 5.504h-.035V19.02h-3.461Zm0 0"/></g></g><g id="i" clip-path="url(#d)"><g clip-path="url(#e)"><path d="M19.645 5.082H9.602l-.118 5.547c.602-.113 1.387-.262 2.395-.262 3.656 0 8.398 1.711 8.398 8.45 0 4.874-3.433 8.82-10.152 8.82-2.02 0-4.371-.336-6.09-.746l.113-4.653c1.27.524 3.063 1.309 5.336 1.309 2.735 0 5.57-1.274 5.57-4.582 0-3.348-2.988-4.504-5.976-4.504-1.605 0-3.137.223-4.664.707l.258-13.957h14.973z"/></g><g clip-path="url(#f)"><path d="M23.637 27.191v-4.355c2.425-2.344 11.277-9.715 11.277-14.48 0-2.38-2.129-3.5-4.258-3.5-2.199 0-4.293.968-6.008 2.085l-.406-4.316C26.59 1.434 29.316.762 31.97.762c4.965 0 8.176 2.496 8.176 7.593 0 5.508-5.567 10.57-9.825 14.739h10.645v4.097z"/></g></g><g id="j" clip-path="url(#g)"><path fill="#FFE403" d="M0 68.5v-62A6.5 6.5 0 0 1 6.5 0h62A6.5 6.5 0 0 1 75 6.5v62a6.5 6.5 0 0 1-6.5 6.5h-62A6.5 6.5 0 0 1 0 68.5m0 0"/><path fill="#FFF" d="M7.5 67.5v-60h60v60Zm0 0"/><use xlink:href="#h" transform="translate(20 10)"/><use xlink:href="#i" transform="translate(15 33)"/></g></defs><use xlink:href="#j"/></svg>