<svg xmlns="http://www.w3.org/2000/svg" xmlns:xlink="http://www.w3.org/1999/xlink" width="75" height="75"><defs><clipPath id="b"><path d="M4 .625h9v18.75H4Zm0 0"/></clipPath><clipPath id="c"><path d="M15 .625h16v18.75H15Zm0 0"/></clipPath><clipPath id="a"><path d="M0 0h35v20H0z"/></clipPath><clipPath id="e"><path d="M4 1h17v26.637H4Zm0 0"/></clipPath><clipPath id="f"><path d="M23.61.762h17.257v26.875H23.61Zm0 0"/></clipPath><clipPath id="d"><path d="M0 0h45v28H0z"/></clipPath><clipPath id="g"><path d="M0 0h75v75H0z"/></clipPath><g id="h" clip-path="url(#a)"><g clip-path="url(#b)"><path d="M4.402 15.86a4.5 4.5 0 0 0 1.73.308c2.34 0 2.34-1.887 2.34-3.195V.926h3.614v13.82c0 1.926-1.23 4.617-4.957 4.617a9.7 9.7 0 0 1-2.766-.343v-3.16Zm0 0"/></g><g clip-path="url(#c)"><path d="M15.809.926h4.457l6.875 13.547h.039V.926h3.457V19.02h-4.418L19.305 5.504h-.035V19.02h-3.461Zm0 0"/></g></g><g id="i" clip-path="url(#d)"><g clip-path="url(#e)"><path d="M19.832 5.082H9.789l-.117 5.547c.601-.113 1.383-.262 2.394-.262 3.657 0 8.399 1.711 8.399 8.45 0 4.874-3.434 8.82-10.152 8.82-2.02 0-4.372-.336-6.094-.746l.117-4.653c1.27.524 3.062 1.309 5.336 1.309 2.73 0 5.566-1.274 5.566-4.582 0-3.348-2.988-4.504-5.976-4.504a15.2 15.2 0 0 0-4.664.707l.261-13.957h14.973z"/></g><g clip-path="url(#f)"><path d="M24.27 22.355c1.793.707 3.738 1.188 5.789 1.188 2.168 0 5.488-1.043 5.488-3.684 0-3.054-2.426-4.058-5.75-4.058h-2.535v-4.094h2.386c3.512 0 5.793-1.156 5.793-3.426 0-2.605-2.132-3.426-4.484-3.426-2.055 0-4.035.489-5.867 1.38l-.293-4.169c2.086-.82 4.594-1.304 7.281-1.304 3.211 0 8.59 1.117 8.59 6.664 0 3.535-2.207 5.21-4.855 6.215v.078c3.324.445 4.968 3.015 4.968 6.18 0 6.175-5.64 7.738-9.972 7.738-2.282 0-4.895-.297-6.836-.852z"/></g></g><g id="j" clip-path="url(#g)"><path fill="#FFE403" d="M0 68.5v-62A6.5 6.5 0 0 1 6.5 0h62A6.5 6.5 0 0 1 75 6.5v62a6.5 6.5 0 0 1-6.5 6.5h-62A6.5 6.5 0 0 1 0 68.5m0 0"/><path fill="#FFF" d="M7.5 67.5v-60h60v60Zm0 0"/><use xlink:href="#h" transform="translate(20 10)"/><use xlink:href="#i" transform="translate(15 33)"/></g></defs><use xlink:href="#j"/></svg>