<svg xmlns="http://www.w3.org/2000/svg" xml:space="preserve" style="enable-background:new 0 0 75 75" version="1.0" viewBox="0 0 75 75"><circle cx="37.62" cy="37.5" r="37.5" style="fill:#33589f"/><circle cx="37.62" cy="37.5" r="27.96" style="fill:#f7f8f8"/><path d="M31.65 20.23c-.18-2.03-1.69-2.77-3.77-2.77-1.87 0-3.21.85-3.21 2.21 0 .87.26 1.54 2.18 2l4.34 1.05c3.75.9 4.75 2.62 4.75 4.93 0 4.11-3.26 6.03-7.29 6.03-4.75 0-7.73-1.95-7.85-6.16h3.7c.05 1.87 1.44 2.98 3.9 2.98s3.85-.77 3.85-2.39c0-1.51-1.28-1.87-6.39-3-3.36-.74-4.77-2.34-4.77-5.16 0-3.21 2.28-5.67 7.08-5.67 4.31 0 7.08 2.36 7.19 5.95h-3.71zM48.39 14.77c3.54 0 5.6 2.44 5.6 5.21 0 2.03-1 3.77-2.85 4.39l.62.31c1.57.77 1.72 2.62 1.72 4.16v1.72c0 .62.03 1.95.82 2.16v.49h-4.26c-.21-.59-.38-1.69-.38-2.62l-.03-2C49.6 26.1 48.17 26 46.6 26h-3.95v7.21h-3.77V14.77h9.51zm-1.13 8.11c1.85 0 2.87-.64 2.87-2.52 0-1.46-1.03-2.41-2.59-2.41h-4.9v4.93h4.62zM32.64 36.74v19.88h-3.92v-13.7h-4.73v-2.74h.45c3.28 0 4.84-1.37 4.98-3.44h3.22zM45.01 57.15c-3.39 0-5.88-2.02-6.16-5.12h3.89c.2 1.37 1.09 1.99 2.3 1.99 2.04 0 3.28-2.16 3.28-5.54l-.06-.06c-.9 1.34-2.44 1.68-3.78 1.68-3.58 0-6.02-2.69-6.02-6.24 0-4.45 2.52-7.11 6.78-7.11 4.31 0 7 2.8 7 10.05 0 6.85-2.83 10.35-7.23 10.35zm3.19-13.53c0-2.27-.98-3.67-3-3.67-1.57 0-2.83 1.09-2.83 3.36 0 2.38.92 3.64 2.91 3.64 1.61.01 2.92-1.17 2.92-3.33z"/></svg>