<svg xmlns="http://www.w3.org/2000/svg" xml:space="preserve" style="enable-background:new 0 0 75 75" version="1.0" viewBox="0 0 75 75"><circle cx="37.62" cy="37.5" r="37.5" style="fill:#33589f"/><circle cx="37.62" cy="37.5" r="27.96" style="fill:#f7f8f8"/><path d="M31.65 20.23c-.18-2.03-1.69-2.77-3.77-2.77-1.87 0-3.21.85-3.21 2.21 0 .87.26 1.54 2.18 2l4.34 1.05c3.75.9 4.75 2.62 4.75 4.93 0 4.11-3.26 6.03-7.29 6.03-4.75 0-7.73-1.95-7.85-6.16h3.7c.05 1.87 1.44 2.98 3.9 2.98s3.85-.77 3.85-2.39c0-1.51-1.28-1.87-6.39-3-3.36-.74-4.77-2.34-4.77-5.16 0-3.21 2.28-5.67 7.08-5.67 4.31 0 7.08 2.36 7.19 5.95h-3.71zM48.39 14.77c3.54 0 5.6 2.44 5.6 5.21 0 2.03-1 3.77-2.85 4.39l.62.31c1.57.77 1.72 2.62 1.72 4.16v1.72c0 .62.03 1.95.82 2.16v.49h-4.26c-.21-.59-.38-1.69-.38-2.62l-.03-2C49.6 26.1 48.17 26 46.6 26h-3.95v7.21h-3.77V14.77h9.51zm-1.13 8.11c1.85 0 2.87-.64 2.87-2.52 0-1.46-1.03-2.41-2.59-2.41h-4.9v4.93h4.62zM32.22 49.48c-1.37.92-4.26 2.88-4.48 3.67h8.62v3.47H22.78c.06-1.26.22-2.3.5-3.05 1.34-3.64 4.96-5.1 7.67-7.59.95-.87 1.46-1.9 1.46-3.11 0-1.48-1.01-2.83-2.74-2.83-1.99 0-2.86 1.12-2.86 3.56v.17H23c0-4.51 2.46-7.03 6.52-7.03 3.84 0 6.8 2.38 6.8 6.27.01 1.37-.18 3.86-4.1 6.47zM47.78 49.48c-1.37.92-4.26 2.88-4.48 3.67h8.62v3.47H38.35c.06-1.26.22-2.3.5-3.05 1.34-3.64 4.96-5.1 7.67-7.59.95-.87 1.46-1.9 1.46-3.11 0-1.48-1.01-2.83-2.74-2.83-1.99 0-2.86 1.12-2.86 3.56v.17h-3.81c0-4.51 2.46-7.03 6.52-7.03 3.84 0 6.8 2.38 6.8 6.27.01 1.37-.19 3.86-4.11 6.47z"/></svg>