<svg xmlns="http://www.w3.org/2000/svg" xml:space="preserve" id="レイヤー_1" x="0" y="0" style="enable-background:new 0 0 75 75" version="1.0" viewBox="0 0 75 75"><style>.st1{fill:#f7f8f8}</style><path d="M0 .59h75v75H0z" style="fill:#bfb347"/><path d="M3.82 27.63h67.36v44.39H3.82z" class="st1"/><path d="M13.15-.59h48.69v31H13.15z" style="fill:none"/><path d="M25.07 14.32c0-6.47 4.74-10.61 11.03-10.61 1.79 0 3.31.15 5.04.75l-.3 3.61c-1.49-.69-2.8-.95-4.41-.95-4.14 0-6.89 2.5-6.89 7.1 0 4.62 3.04 7.25 6.95 7.25 1.52 0 2.95-.18 4.59-.81l.15 3.61c-1.31.45-3.07.69-4.86.69-6.71-.03-11.3-3.96-11.3-10.64zM44.62 3.91h4.2v20.81h-4.2V3.91z" class="st1"/><path d="M6.92 50.58c0-13.75 4.58-20.26 14.46-20.26 9.11 0 13.75 6.62 13.75 19.82 0 12.48-4.08 20.04-14.02 20.04-9.94-.01-14.19-7.46-14.19-19.6zm20.48-.28c0-9.55-2.26-14.3-6.35-14.3s-6.35 4.69-6.35 13.91c0 9.72 2.26 14.57 6.4 14.57 4.03.01 6.3-4.85 6.3-14.18zM39.93 51.57c0-13.64 6.62-21.25 17.56-21.25 2.93 0 5.96.39 8.28 1.21L65 37.6c-2.32-.99-4.69-1.49-7.12-1.49-6.46 0-10.32 4.64-10.49 12.7h.11c1.93-2.59 5.41-4.2 8.94-4.2 7.34 0 11.92 4.91 11.92 12.26 0 7.67-5.36 13.3-14.13 13.3-9.44 0-14.3-6.57-14.3-18.6zm20.92 5.85c0-4.14-1.66-7.29-6.02-7.29-3.48 0-6.85 3.15-6.85 7.01 0 4.31 2.76 7.62 6.51 7.62 4.21 0 6.36-3.36 6.36-7.34z"/></svg>