<svg xmlns="http://www.w3.org/2000/svg" xml:space="preserve" id="レイヤー_1" x="0" y="0" style="enable-background:new 0 0 75 75" version="1.0" viewBox="0 0 75 75"><style>.st1{fill:#f7f8f8}</style><path d="M0 .59h75v75H0z" style="fill:#19ad88"/><path d="M3.82 27.63h67.36v44.39H3.82z" class="st1"/><path d="M13.15-.59h48.69v31H13.15z" style="fill:none"/><path d="M23.83 14.32c0-6.47 4.74-10.61 11.03-10.61 1.79 0 3.31.15 5.04.75l-.3 3.61c-1.49-.69-2.8-.95-4.41-.95-4.14 0-6.89 2.5-6.89 7.1 0 4.62 3.04 7.25 6.95 7.25 1.52 0 2.95-.18 4.59-.81l.15 3.61c-1.31.45-3.07.69-4.86.69-6.71-.03-11.3-3.96-11.3-10.64zM41.27 24.66l.12-3.64c.66.21 1.43.3 2 .3 1.82 0 2.59-1.01 2.59-3.46V3.91h4.23v14.37c0 4.2-1.67 6.8-6.11 6.8-.89 0-1.93-.12-2.83-.42z" class="st1"/><path d="M6.92 50.58c0-13.75 4.58-20.26 14.46-20.26 9.11 0 13.75 6.62 13.75 19.82 0 12.48-4.08 20.04-14.02 20.04-9.94-.01-14.19-7.46-14.19-19.6zm20.48-.28c0-9.55-2.26-14.3-6.35-14.3s-6.35 4.69-6.35 13.91c0 9.72 2.26 14.57 6.4 14.57 4.03.01 6.3-4.85 6.3-14.18zM41.58 68.79l.72-6.13c2.37 1.1 4.91 1.71 7.56 1.71 7.07 0 10.49-4.91 10.66-12.97h-.11c-1.99 2.87-5.46 4.31-8.94 4.31-7.01 0-11.7-4.58-11.7-11.92 0-7.67 5.19-13.47 14.02-13.47 9.44 0 14.19 6.51 14.19 18.55 0 13.69-6.4 21.31-17.67 21.31-3.26-.01-6.41-.5-8.73-1.39zm18.33-25.45c0-4.25-2.54-7.62-6.18-7.62-4.2 0-6.29 3.53-6.29 7.51 0 4.14 2.21 6.9 6.24 6.9 3.64 0 6.23-2.87 6.23-6.79z"/></svg>