<svg xmlns="http://www.w3.org/2000/svg" xml:space="preserve" id="レイヤー_1" x="0" y="0" style="enable-background:new 0 0 75 75" version="1.0" viewBox="0 0 75 75"><style>.st1{fill:#f7f8f8}</style><path d="M0 .59h75v75H0z" style="fill:#19ad88"/><path d="M3.82 27.63h67.36v44.39H3.82z" class="st1"/><path d="M13.15-.59h48.69v31H13.15z" style="fill:none"/><path d="M23.83 14.32c0-6.47 4.74-10.61 11.03-10.61 1.79 0 3.31.15 5.04.75l-.3 3.61c-1.49-.69-2.8-.95-4.41-.95-4.14 0-6.89 2.5-6.89 7.1 0 4.62 3.04 7.25 6.95 7.25 1.52 0 2.95-.18 4.59-.81l.15 3.61c-1.31.45-3.07.69-4.86.69-6.71-.03-11.3-3.96-11.3-10.64zM41.27 24.66l.12-3.64c.66.21 1.43.3 2 .3 1.82 0 2.59-1.01 2.59-3.46V3.91h4.23v14.37c0 4.2-1.67 6.8-6.11 6.8-.89 0-1.93-.12-2.83-.42z" class="st1"/><path d="M19.56 49.36c0-3.26.11-8.5.22-10.54h-.11c-.88.88-2.71 2.43-4.69 4.03l-1.99 1.6-3.81-5.19 11.21-8.28h7.01v38.53h-7.84V49.36zM56.49 61.62H38.66v-6.18l15.79-24.46h9.38v24.79h5.25v5.85h-5.25v7.89h-7.34v-7.89zm.17-5.85v-6.51c0-3.26.06-8.28.22-12.59h-.11c-1.43 2.82-4.14 7.4-5.46 9.5l-5.96 9.61h11.31z"/></svg>