<svg xmlns="http://www.w3.org/2000/svg" xml:space="preserve" id="レイヤー_1" x="0" y="0" style="enable-background:new 0 0 75 75" version="1.0" viewBox="0 0 75 75"><style>.st1{fill:#f7f8f8}</style><path d="M0 .59h75v75H0z" style="fill:#ea8326"/><path d="M3.82 27.63h67.36v44.39H3.82z" class="st1"/><path d="M13.15-.59h48.69v31H13.15z" style="fill:none"/><path d="M18.84 14.32c0-6.47 4.74-10.61 11.03-10.61 1.79 0 3.31.15 5.04.75l-.3 3.61c-1.49-.69-2.8-.95-4.41-.95-4.14 0-6.89 2.5-6.89 7.1 0 4.62 3.04 7.25 6.95 7.25 1.52 0 2.95-.18 4.59-.81l.15 3.59c-1.31.45-3.07.69-4.86.69-6.71-.01-11.3-3.94-11.3-10.62zM44.24 3.91h4.74l8.29 20.81h-4.56l-1.82-4.8h-8.68l-1.82 4.8h-4.32l8.17-20.81zm5.51 12.85-1.73-4.86c-.45-1.25-1.16-3.64-1.43-4.71h-.06a93.26 93.26 0 0 1-1.52 4.71l-1.73 4.86h6.47z" class="st1"/><path d="m9.12 69.01.11-6.51c2.71 1.16 5.35 1.71 8.17 1.71 5.3 0 8.89-2.37 8.89-6.9 0-4.69-3.37-6.96-9.22-6.96-2.48 0-5.02.44-7.56 1.27l.28-20.65h22.86v5.8H16.52l-.22 8.45c1.6-.33 2.65-.39 4.25-.39 8 0 13.47 4.58 13.47 11.98 0 8.23-6.24 13.36-16.01 13.36-2.87 0-5.85-.33-8.89-1.16zM40.48 68.74l.39-6.46c3.37 1.32 6.35 1.99 9.33 1.99 4.86 0 8.45-1.77 8.45-5.91 0-4.14-3.81-5.85-10.43-5.85-.44 0-1.27 0-1.93.06v-5.74c.61.06 1.27.11 1.88.11 6.51 0 10.21-1.71 10.21-5.52 0-3.42-2.98-5.3-7.4-5.3-3.09 0-6.18.66-8.89 1.93l-.5-6.07c3.2-1.21 7.07-1.66 10.49-1.66 8.67 0 13.91 3.75 13.91 10.05 0 5.13-3.64 8.23-9.16 8.94v.17c5.8.61 9.66 4.2 9.66 9.44 0 6.96-6.57 11.26-15.9 11.26-3.37-.01-6.74-.39-10.11-1.44z"/></svg>