<svg xmlns="http://www.w3.org/2000/svg" xml:space="preserve" id="レイヤー_1" x="0" y="0" style="enable-background:new 0 0 75 75" version="1.0" viewBox="0 0 75 75"><style>.st1{fill:#f7f8f8}</style><path d="M0 .59h75v75H0z" style="fill:#ea8326"/><path d="M3.82 27.63h67.36v44.39H3.82z" class="st1"/><path d="M13.15-.59h48.69v31H13.15z" style="fill:none"/><path d="M18.84 14.32c0-6.47 4.74-10.61 11.03-10.61 1.79 0 3.31.15 5.04.75l-.3 3.61c-1.49-.69-2.8-.95-4.41-.95-4.14 0-6.89 2.5-6.89 7.1 0 4.62 3.04 7.25 6.95 7.25 1.52 0 2.95-.18 4.59-.81l.15 3.59c-1.31.45-3.07.69-4.86.69-6.71-.01-11.3-3.94-11.3-10.62zM44.24 3.91h4.74l8.29 20.81h-4.56l-1.82-4.8h-8.68l-1.82 4.8h-4.32l8.17-20.81zm5.51 12.85-1.73-4.86c-.45-1.25-1.16-3.64-1.43-4.71h-.06a93.26 93.26 0 0 1-1.52 4.71l-1.73 4.86h6.47z" class="st1"/><path d="m9.12 69.01.11-6.51c2.71 1.16 5.35 1.71 8.17 1.71 5.3 0 8.89-2.37 8.89-6.9 0-4.69-3.37-6.96-9.22-6.96-2.48 0-5.02.44-7.56 1.27l.28-20.65h22.86v5.8H16.52l-.22 8.45c1.6-.33 2.65-.39 4.25-.39 8 0 13.47 4.58 13.47 11.98 0 8.23-6.24 13.36-16.01 13.36-2.87 0-5.85-.33-8.89-1.16zM39.49 59.46c0-4.64 2.71-7.84 8.45-10.1-5.63-2.21-7.51-4.97-7.51-9.11 0-6.07 5.52-9.94 13.64-9.94 7.67 0 13.19 3.48 13.19 9.44 0 4.14-2.21 6.9-7.23 9.22 6.02 2.21 8.45 5.13 8.45 10.05 0 7.07-6.29 11.15-14.63 11.15-8.51 0-14.36-3.97-14.36-10.71zm21.31-.38c0-3.48-2.43-5.47-7.51-7.07-3.97 1.44-6.02 3.64-6.02 6.96 0 3.59 2.76 5.74 6.68 5.74 3.81 0 6.85-2.15 6.85-5.63zm-1.11-18.44c0-3.37-2.43-5.02-5.85-5.02-3.31 0-6.07 1.77-6.07 4.8 0 3.31 2.65 5.02 6.79 6.46 3.48-1.49 5.13-3.54 5.13-6.24z"/></svg>