<svg xmlns="http://www.w3.org/2000/svg" xml:space="preserve" id="レイヤー_1" x="0" y="0" style="enable-background:new 0 0 75 75" version="1.0" viewBox="0 0 75 75"><style>.st1{fill:#f7f8f8}</style><path d="M0 .59h75v75H0z" style="fill:#ea8326"/><path d="M3.82 27.63h67.36v44.39H3.82z" class="st1"/><path d="M13.15-.59h48.69v31H13.15z" style="fill:none"/><path d="M18.84 14.32c0-6.47 4.74-10.61 11.03-10.61 1.79 0 3.31.15 5.04.75l-.3 3.61c-1.49-.69-2.8-.95-4.41-.95-4.14 0-6.89 2.5-6.89 7.1 0 4.62 3.04 7.25 6.95 7.25 1.52 0 2.95-.18 4.59-.81l.15 3.59c-1.31.45-3.07.69-4.86.69-6.71-.01-11.3-3.94-11.3-10.62zM44.24 3.91h4.74l8.29 20.81h-4.56l-1.82-4.8h-8.68l-1.82 4.8h-4.32l8.17-20.81zm5.51 12.85-1.73-4.86c-.45-1.25-1.16-3.64-1.43-4.71h-.06a93.26 93.26 0 0 1-1.52 4.71l-1.73 4.86h6.47z" class="st1"/><path d="M7.03 51.57c0-13.64 6.62-21.25 17.56-21.25 2.93 0 5.96.39 8.28 1.21l-.77 6.07c-2.32-.99-4.69-1.49-7.12-1.49-6.46 0-10.32 4.64-10.49 12.7h.11c1.93-2.59 5.41-4.2 8.94-4.2 7.34 0 11.92 4.91 11.92 12.26 0 7.67-5.35 13.3-14.13 13.3-9.44 0-14.3-6.57-14.3-18.6zm20.92 5.85c0-4.14-1.66-7.29-6.02-7.29-3.48 0-6.85 3.15-6.85 7.01 0 4.31 2.76 7.62 6.51 7.62 4.21 0 6.36-3.36 6.36-7.34zM52.46 49.36c0-3.26.11-8.5.22-10.54h-.11c-.88.88-2.71 2.43-4.69 4.03l-1.99 1.6-3.81-5.19 11.21-8.28h7.01v38.53h-7.84V49.36z"/></svg>