<svg xmlns="http://www.w3.org/2000/svg" xml:space="preserve" id="レイヤー_1" x="0" y="0" style="enable-background:new 0 0 75 75" version="1.0" viewBox="0 0 75 75"><style>.st1{fill:#f7f8f8}</style><path d="M0 .59h75v75H0z" style="fill:#ea8326"/><path d="M3.82 27.63h67.36v44.39H3.82z" class="st1"/><path d="M13.15-.59h48.69v31H13.15z" style="fill:none"/><path d="M18.84 14.32c0-6.47 4.74-10.61 11.03-10.61 1.79 0 3.31.15 5.04.75l-.3 3.61c-1.49-.69-2.8-.95-4.41-.95-4.14 0-6.89 2.5-6.89 7.1 0 4.62 3.04 7.25 6.95 7.25 1.52 0 2.95-.18 4.59-.81l.15 3.59c-1.31.45-3.07.69-4.86.69-6.71-.01-11.3-3.94-11.3-10.62zM44.24 3.91h4.74l8.29 20.81h-4.56l-1.82-4.8h-8.68l-1.82 4.8h-4.32l8.17-20.81zm5.51 12.85-1.73-4.86c-.45-1.25-1.16-3.64-1.43-4.71h-.06a93.26 93.26 0 0 1-1.52 4.71l-1.73 4.86h6.47z" class="st1"/><path d="M7.03 51.57c0-13.64 6.62-21.25 17.56-21.25 2.93 0 5.96.39 8.28 1.21l-.77 6.07c-2.32-.99-4.69-1.49-7.12-1.49-6.46 0-10.32 4.64-10.49 12.7h.11c1.93-2.59 5.41-4.2 8.94-4.2 7.34 0 11.92 4.91 11.92 12.26 0 7.67-5.35 13.3-14.13 13.3-9.44 0-14.3-6.57-14.3-18.6zm20.92 5.85c0-4.14-1.66-7.29-6.02-7.29-3.48 0-6.85 3.15-6.85 7.01 0 4.31 2.76 7.62 6.51 7.62 4.21 0 6.36-3.36 6.36-7.34zM41.58 68.79l.72-6.13c2.37 1.1 4.91 1.71 7.56 1.71 7.07 0 10.49-4.91 10.66-12.97h-.11c-1.99 2.87-5.46 4.31-8.94 4.31-7.01 0-11.7-4.58-11.7-11.92 0-7.67 5.19-13.47 14.02-13.47 9.44 0 14.19 6.51 14.19 18.55 0 13.69-6.4 21.31-17.67 21.31-3.26-.01-6.41-.5-8.73-1.39zm18.33-25.45c0-4.25-2.54-7.62-6.18-7.62-4.2 0-6.29 3.53-6.29 7.51 0 4.14 2.21 6.9 6.24 6.9 3.64 0 6.23-2.87 6.23-6.79z"/></svg>