<svg xmlns="http://www.w3.org/2000/svg" width="75" height="75" fill="none" viewBox="0 0 24 24"><g clip-path="url(#a)"><path fill="#fff" d="M19.2 0H4.8A4.8 4.8 0 0 0 0 4.8v14.4A4.8 4.8 0 0 0 4.8 24h14.4a4.8 4.8 0 0 0 4.8-4.8V4.8A4.8 4.8 0 0 0 19.2 0Z"/><path fill="#009CD3" d="M19.2 23.399H4.808a4.233 4.233 0 0 1-4.232-4.233V4.775A4.233 4.233 0 0 1 4.808.542H19.2a4.233 4.233 0 0 1 4.233 4.233v14.391A4.233 4.233 0 0 1 19.2 23.4Z"/><path fill="#fff" d="M11.048 6.705c0-.72-.051-1.592-.051-2.464a39.602 39.602 0 0 1-.677 2.32l-.728 2.345H8.516l-.643-2.32a34.18 34.18 0 0 1-.542-2.345c0 .847-.068 1.736-.101 2.48L7.11 9H5.858l.381-6.002h1.812l.584 2.006c.195.694.372 1.44.508 2.142.16-.694.364-1.482.576-2.15l.626-1.998h1.786l.313 6.002h-1.312l-.084-2.294ZM18.252 8.72a6.697 6.697 0 0 1-2.006.338 3.386 3.386 0 0 1-2.439-.796 3.022 3.022 0 0 1-.846-2.192c0-1.99 1.464-3.132 3.428-3.132a4.292 4.292 0 0 1 1.694.287l-.288 1.092a3.132 3.132 0 0 0-1.389-.253 1.955 1.955 0 0 0-.093 3.902c.22.009.44-.017.652-.076V6.62h-.923V5.562h2.21V8.72ZM11.606 16.16c0 2.854-1.16 4.843-3.521 4.843-2.362 0-3.454-2.159-3.471-4.791-.017-2.633 1.134-4.809 3.53-4.809s3.462 2.21 3.462 4.758Zm-4.817.052c0 2.133.517 3.149 1.346 3.149.83 0 1.296-1.058 1.296-3.175 0-2.116-.44-3.14-1.312-3.14-.872 0-1.33.998-1.33 3.166ZM15.297 13.486h-.025l-1.77.846-.355-1.634 2.472-1.142h1.778v9.286h-2.1v-7.356Z"/></g><defs><clipPath id="a"><path fill="#fff" d="M0 0h75v75H0z"/></clipPath></defs></svg>