<svg xmlns="http://www.w3.org/2000/svg" width="75" height="75" fill="none" viewBox="0 0 24 24"><g clip-path="url(#a)"><path fill="#fff" d="M19.2 0H4.8A4.8 4.8 0 0 0 0 4.8v14.4A4.8 4.8 0 0 0 4.8 24h14.4a4.8 4.8 0 0 0 4.8-4.8V4.8A4.8 4.8 0 0 0 19.2 0Z"/><path fill="#009CD3" d="M19.2 23.399H4.808a4.233 4.233 0 0 1-4.232-4.233V4.775A4.233 4.233 0 0 1 4.808.542H19.2a4.233 4.233 0 0 1 4.233 4.233v14.391A4.233 4.233 0 0 1 19.2 23.4Z"/><path fill="#fff" d="M11.048 6.705c0-.72-.051-1.592-.051-2.464a39.602 39.602 0 0 1-.677 2.32l-.728 2.345H8.516l-.643-2.32a34.18 34.18 0 0 1-.542-2.345c0 .847-.068 1.736-.101 2.48L7.11 9H5.858l.381-6.002h1.812l.584 2.006c.195.694.372 1.44.508 2.142a29.7 29.7 0 0 1 .576-2.15l.626-1.998h1.786l.313 6.002h-1.312l-.084-2.294ZM18.252 8.728a7.018 7.018 0 0 1-2.006.33 3.386 3.386 0 0 1-2.439-.796 3.022 3.022 0 0 1-.846-2.192c0-1.99 1.464-3.132 3.428-3.132a4.292 4.292 0 0 1 1.694.287l-.288 1.092a3.132 3.132 0 0 0-1.389-.254 1.955 1.955 0 0 0-.093 3.903c.22.009.44-.017.652-.076V6.62h-.923V5.562h2.21v3.166ZM11.606 16.16c0 2.854-1.16 4.843-3.521 4.843-2.362 0-3.454-2.159-3.471-4.791-.017-2.633 1.134-4.809 3.53-4.809s3.462 2.21 3.462 4.758Zm-4.817.052c0 2.133.517 3.149 1.346 3.149.83 0 1.296-1.058 1.296-3.175 0-2.116-.44-3.174-1.338-3.174-.897 0-1.329.999-1.329 3.166M12.546 20.842V19.53l1.185-1.075c2.04-1.828 3.03-2.87 3.04-3.953 0-.762-.44-1.355-1.516-1.355-.723.037-1.416.3-1.98.753l-.619-1.54a5.079 5.079 0 0 1 3.056-.957c2.117 0 3.26 1.228 3.26 2.895 0 1.668-1.118 2.82-2.472 4.013l-.847.72h3.445v1.786l-6.552.025Z"/></g><defs><clipPath id="a"><path fill="#fff" d="M0 0h75v75H0z"/></clipPath></defs></svg>