<svg xmlns="http://www.w3.org/2000/svg" width="75" height="75" fill="none" viewBox="0 0 24 24"><g clip-path="url(#a)"><path fill="#fff" d="M19.2 0H4.8A4.8 4.8 0 0 0 0 4.8v14.4A4.8 4.8 0 0 0 4.8 24h14.4a4.8 4.8 0 0 0 4.8-4.8V4.8A4.8 4.8 0 0 0 19.2 0Z"/><path fill="#009CD3" d="M19.2 23.399H4.808a4.233 4.233 0 0 1-4.232-4.233V4.775A4.233 4.233 0 0 1 4.808.542H19.2a4.233 4.233 0 0 1 4.233 4.233v14.391A4.233 4.233 0 0 1 19.2 23.4Z"/><path fill="#fff" d="M11.048 6.705c0-.72-.051-1.592-.051-2.464a39.599 39.599 0 0 1-.677 2.32l-.728 2.345H8.516l-.643-2.32a34.18 34.18 0 0 1-.542-2.345c0 .805-.068 1.693-.101 2.48L7.11 9H5.858l.381-5.994h1.812l.584 1.998c.195.694.372 1.44.508 2.142.16-.686.364-1.481.576-2.15l.626-1.99h1.786L12.444 9h-1.312l-.084-2.294ZM18.252 8.728a6.985 6.985 0 0 1-2.006.339 3.386 3.386 0 0 1-2.439-.805 3.022 3.022 0 0 1-.846-2.192c0-1.99 1.464-3.132 3.428-3.132a4.292 4.292 0 0 1 1.694.287l-.288 1.092a3.132 3.132 0 0 0-1.389-.253 1.955 1.955 0 0 0-.093 3.902c.22.009.44-.017.652-.076V6.629h-.923V5.562h2.21v3.166ZM11.606 16.16c0 2.854-1.16 4.843-3.521 4.843-2.362 0-3.454-2.159-3.471-4.791-.017-2.633 1.134-4.809 3.53-4.809s3.462 2.21 3.462 4.758Zm-4.817.052c0 2.133.517 3.149 1.346 3.149.83 0 1.296-1.058 1.296-3.175 0-2.116-.44-3.14-1.312-3.14-.872 0-1.33.998-1.33 3.166ZM12.919 18.718c.664.35 1.4.544 2.15.567 1.134 0 1.693-.542 1.693-1.228 0-.931-.914-1.346-1.871-1.346h-.847v-1.55h.847c.728 0 1.642-.287 1.642-1.074 0-.559-.44-.974-1.371-.974a4.115 4.115 0 0 0-1.93.559l-.44-1.575a5.782 5.782 0 0 1 2.87-.694c1.972 0 3.072 1.041 3.072 2.311a2.218 2.218 0 0 1-1.693 2.159 2.312 2.312 0 0 1 2.015 2.277c0 1.626-1.44 2.828-3.801 2.828a5.638 5.638 0 0 1-2.76-.644l.424-1.616Z"/></g><defs><clipPath id="a"><path fill="#fff" d="M0 0h75v75H0z"/></clipPath></defs></svg>