<svg xmlns="http://www.w3.org/2000/svg" width="75" height="75" fill="none" viewBox="0 0 24 24"><g clip-path="url(#a)"><path fill="#fff" d="M19.2 0H4.8A4.8 4.8 0 0 0 0 4.8v14.4A4.8 4.8 0 0 0 4.8 24h14.4a4.8 4.8 0 0 0 4.8-4.8V4.8A4.8 4.8 0 0 0 19.2 0Z"/><path fill="#009CD3" d="M19.2 23.424H4.808a4.233 4.233 0 0 1-4.232-4.232V4.8A4.233 4.233 0 0 1 4.808.567H19.2A4.233 4.233 0 0 1 23.433 4.8v14.392a4.233 4.233 0 0 1-4.233 4.232Z"/><path fill="#fff" d="M11.048 6.705c0-.72-.051-1.592-.051-2.464a39.6 39.6 0 0 1-.677 2.32l-.728 2.345H8.516l-.643-2.32a34.18 34.18 0 0 1-.542-2.345c0 .847-.068 1.736-.101 2.48L7.11 9H5.858l.381-5.994h1.812l.584 1.998c.195.694.372 1.44.508 2.142.16-.686.364-1.481.576-2.15l.626-1.99h1.786L12.444 9h-1.312l-.084-2.294ZM18.252 8.728a6.985 6.985 0 0 1-2.006.339 3.386 3.386 0 0 1-2.439-.847 3.022 3.022 0 0 1-.846-2.192c0-1.99 1.464-3.133 3.428-3.133a4.292 4.292 0 0 1 1.694.288l-.288 1.092a3.132 3.132 0 0 0-1.389-.254 1.955 1.955 0 0 0-.093 3.903c.22.008.44-.018.652-.076V6.586h-.923V5.562h2.21v3.166ZM11.606 16.16c0 2.854-1.16 4.843-3.521 4.843-2.362 0-3.454-2.158-3.471-4.791-.017-2.633 1.134-4.809 3.53-4.809s3.462 2.21 3.462 4.758Zm-4.817.052c0 2.133.517 3.149 1.346 3.149.83 0 1.296-1.058 1.296-3.175 0-2.116-.44-3.14-1.312-3.14-.872 0-1.33.999-1.33 3.166ZM16.372 20.885v-2.21h-4.114v-1.414l3.497-5.663h2.675v5.443h1.1v1.634h-1.1v2.21h-2.058Zm0-3.844V14.96c0-.559 0-1.126.06-1.693-.305.6-.559 1.143-.847 1.693l-1.227 2.032 2.014.05Z"/></g><defs><clipPath id="a"><path fill="#fff" d="M0 0h75v75H0z"/></clipPath></defs></svg>