<svg xmlns="http://www.w3.org/2000/svg" width="75" height="75" fill="none" viewBox="0 0 24 24"><g clip-path="url(#a)"><path fill="#fff" d="M19.2 0H4.8A4.8 4.8 0 0 0 0 4.8v14.4A4.8 4.8 0 0 0 4.8 24h14.4a4.8 4.8 0 0 0 4.8-4.8V4.8A4.8 4.8 0 0 0 19.2 0Z"/><path fill="#009CD3" d="M19.2 23.399H4.808a4.233 4.233 0 0 1-4.232-4.233V4.775A4.233 4.233 0 0 1 4.808.542H19.2a4.233 4.233 0 0 1 4.233 4.233v14.391A4.233 4.233 0 0 1 19.2 23.4Z"/><path fill="#fff" d="M11.048 6.705c0-.72-.051-1.592-.051-2.464a39.601 39.601 0 0 1-.677 2.32l-.728 2.345H8.516l-.643-2.32a34.18 34.18 0 0 1-.542-2.345c0 .805-.068 1.736-.101 2.48L7.11 9H5.858l.381-5.994h1.812l.584 1.998c.195.694.372 1.448.508 2.15.16-.694.364-1.49.576-2.158l.626-1.99h1.786L12.444 9h-1.312l-.084-2.294ZM18.252 8.728a6.697 6.697 0 0 1-2.006.339 3.386 3.386 0 0 1-2.439-.805 3.004 3.004 0 0 1-.846-2.192c0-1.99 1.464-3.132 3.428-3.132a4.292 4.292 0 0 1 1.694.287l-.288 1.092a3.132 3.132 0 0 0-1.389-.254 1.955 1.955 0 0 0-.093 3.903c.22.008.44-.017.652-.076V6.62h-.923V5.562h2.21v3.166ZM11.606 16.16c0 2.854-1.16 4.843-3.521 4.843-2.362 0-3.454-2.159-3.471-4.791-.017-2.633 1.134-4.809 3.53-4.809s3.462 2.21 3.462 4.758Zm-4.817.052c0 2.133.517 3.149 1.346 3.149.83 0 1.296-1.058 1.296-3.175 0-2.116-.44-3.14-1.312-3.14-.872 0-1.33.998-1.33 3.166ZM18.726 13.342h-3.598l-.195 1.43c.198-.013.396-.013.593 0a4.233 4.233 0 0 1 2.447.67 2.642 2.642 0 0 1 1.125 2.327c0 1.693-1.481 3.26-3.987 3.26a5.926 5.926 0 0 1-2.54-.534l.398-1.625c.658.296 1.37.452 2.091.457.898 0 1.854-.432 1.854-1.414s-.753-1.54-2.616-1.54a7.5 7.5 0 0 0-1.244.084l.601-4.876h5.08l-.01 1.76Z"/></g><defs><clipPath id="a"><path fill="#fff" d="M0 0h75v75H0z"/></clipPath></defs></svg>