<svg xmlns="http://www.w3.org/2000/svg" width="75" height="75" fill="none" viewBox="0 0 24 24"><g clip-path="url(#a)"><path fill="#fff" d="M19.2 0H4.8A4.8 4.8 0 0 0 0 4.8v14.4A4.8 4.8 0 0 0 4.8 24h14.4a4.8 4.8 0 0 0 4.8-4.8V4.8A4.8 4.8 0 0 0 19.2 0Z"/><path fill="#009CD3" d="M19.2 23.399H4.808a4.233 4.233 0 0 1-4.232-4.233V4.775A4.233 4.233 0 0 1 4.808.542H19.2a4.233 4.233 0 0 1 4.233 4.233v14.391A4.233 4.233 0 0 1 19.2 23.4Z"/><path fill="#fff" d="M11.048 6.747c0-.72-.051-1.591-.051-2.463a39.599 39.599 0 0 1-.677 2.32l-.728 2.344H8.516l-.643-2.32a34.18 34.18 0 0 1-.542-2.344c0 .846-.068 1.693-.101 2.48L7.11 9.041H5.858l.381-5.993h1.812l.584 1.997c.195.695.372 1.448.508 2.15.16-.693.364-1.49.576-2.158l.626-1.99h1.786l.313 5.994h-1.312l-.084-2.294ZM18.252 8.728a6.697 6.697 0 0 1-2.006.339 3.386 3.386 0 0 1-2.439-.805 3.004 3.004 0 0 1-.846-2.192c0-1.99 1.464-3.132 3.428-3.132a4.292 4.292 0 0 1 1.694.287l-.288 1.092a3.132 3.132 0 0 0-1.389-.254 1.955 1.955 0 0 0-.093 3.903c.22.009.44-.017.652-.076V6.629h-.923V5.57h2.21v3.158ZM11.606 16.16c0 2.854-1.16 4.843-3.521 4.843-2.362 0-3.454-2.159-3.471-4.791-.017-2.633 1.134-4.809 3.53-4.809s3.462 2.21 3.462 4.758Zm-4.817.052c0 2.133.517 3.149 1.346 3.149.83 0 1.296-1.058 1.296-3.175 0-2.116-.44-3.14-1.312-3.14-.872 0-1.33.998-1.33 3.166ZM18.455 13.105a5.92 5.92 0 0 0-.846 0c-1.93.152-2.786 1.143-3.031 2.21h.042a2.693 2.693 0 0 1 1.973-.729 2.819 2.819 0 0 1 2.87 3.03 3.32 3.32 0 0 1-3.387 3.387c-2.489 0-3.7-1.845-3.7-4.055A5.572 5.572 0 0 1 14.07 12.8a5.511 5.511 0 0 1 3.572-1.355 4.37 4.37 0 0 1 .847 0l-.034 1.66ZM17.27 17.76a1.397 1.397 0 0 0-2.658-.787 1.186 1.186 0 0 0-.094.558c0 .982.508 1.871 1.516 1.871.753 0 1.236-.702 1.236-1.642Z"/></g><defs><clipPath id="a"><path fill="#fff" d="M0 0h75v75H0z"/></clipPath></defs></svg>