<svg xmlns="http://www.w3.org/2000/svg" width="75" height="75" fill="none" viewBox="0 0 24 24"><g clip-path="url(#a)"><path fill="#fff" d="M19.2 0H4.8A4.8 4.8 0 0 0 0 4.8v14.4A4.8 4.8 0 0 0 4.8 24h14.4a4.8 4.8 0 0 0 4.8-4.8V4.8A4.8 4.8 0 0 0 19.2 0Z"/><path fill="#009CD3" d="M19.2 23.399H4.808a4.233 4.233 0 0 1-4.232-4.233V4.775A4.233 4.233 0 0 1 4.808.542H19.2a4.233 4.233 0 0 1 4.233 4.233v14.391A4.233 4.233 0 0 1 19.2 23.4Z"/><path fill="#fff" d="M11.048 6.705c0-.72-.051-1.592-.051-2.464a39.599 39.599 0 0 1-.677 2.32l-.728 2.345H8.516l-.643-2.32a34.18 34.18 0 0 1-.542-2.345c0 .847-.068 1.736-.101 2.48L7.11 9H5.858l.381-5.994h1.812l.584 1.998c.195.694.372 1.448.508 2.15.16-.694.364-1.49.576-2.158l.626-1.99h1.786L12.444 9h-1.312l-.084-2.294ZM18.252 8.728a6.697 6.697 0 0 1-2.006.339 3.386 3.386 0 0 1-2.439-.805 2.997 2.997 0 0 1-.846-2.184c0-1.998 1.464-3.14 3.428-3.14a4.292 4.292 0 0 1 1.694.287l-.288 1.092a3.26 3.26 0 0 0-1.389-.254 1.955 1.955 0 0 0-.093 3.903c.22.009.44-.017.652-.076V6.629h-.923V5.57h2.21v3.158ZM11.606 16.186c0 2.853-1.16 4.843-3.521 4.843-2.362 0-3.454-2.16-3.471-4.783-.017-2.625 1.134-4.817 3.53-4.817s3.462 2.21 3.462 4.757Zm-4.817.06c0 2.124.517 3.14 1.346 3.14.83 0 1.296-1.058 1.296-3.174 0-2.117-.44-3.141-1.312-3.141-.872 0-1.33.999-1.33 3.175ZM19.183 11.556v1.371l-3.826 7.915h-2.303l3.835-7.475v-.025H12.63v-1.786h6.552Z"/></g><defs><clipPath id="a"><path fill="#fff" d="M0 0h75v75H0z"/></clipPath></defs></svg>