<svg xmlns="http://www.w3.org/2000/svg" width="75" height="75" fill="none" viewBox="0 0 24 24"><g clip-path="url(#a)"><path fill="#fff" d="M19.2 0H4.8A4.8 4.8 0 0 0 0 4.8v14.4A4.8 4.8 0 0 0 4.8 24h14.4a4.8 4.8 0 0 0 4.8-4.8V4.8A4.8 4.8 0 0 0 19.2 0Z"/><path fill="#009CD3" d="M19.2 23.399H4.808a4.233 4.233 0 0 1-4.232-4.233V4.775A4.233 4.233 0 0 1 4.808.542H19.2a4.233 4.233 0 0 1 4.233 4.233v14.391A4.233 4.233 0 0 1 19.2 23.4Z"/><path fill="#fff" d="M11.048 6.705c0-.72-.051-1.592-.051-2.464a39.6 39.6 0 0 1-.677 2.32l-.728 2.345H8.516l-.643-2.311c-.195-.72-.39-1.566-.542-2.354 0 .847-.068 1.736-.101 2.48L7.11 9H5.858l.381-5.994h1.812l.584 1.998c.195.694.372 1.448.508 2.15.16-.694.364-1.49.576-2.158l.626-1.99h1.786L12.444 9h-1.312l-.084-2.294ZM18.252 8.694a6.697 6.697 0 0 1-2.006.339 3.386 3.386 0 0 1-2.439-.804 2.998 2.998 0 0 1-.846-2.185c0-1.997 1.464-3.132 3.428-3.132a4.335 4.335 0 0 1 1.694.28l-.288 1.092a3.259 3.259 0 0 0-1.389-.254 1.956 1.956 0 0 0-.093 3.91c.22.007.44-.021.652-.084V6.595h-.923V5.537h2.21v3.157ZM11.606 16.16c0 2.854-1.16 4.843-3.521 4.843-2.362 0-3.454-2.158-3.471-4.783-.017-2.624 1.134-4.817 3.53-4.817s3.462 2.21 3.462 4.758Zm-4.817.06c0 2.125.517 3.14 1.346 3.14.83 0 1.296-1.057 1.296-3.174 0-2.116-.44-3.14-1.312-3.14-.872 0-1.33.999-1.33 3.174ZM14.02 16.06a2.294 2.294 0 0 1-1.347-2.04c0-1.575 1.414-2.617 3.276-2.617 2.167 0 3.073 1.253 3.073 2.387a2.26 2.26 0 0 1-1.363 2.04v.043a2.464 2.464 0 0 1 1.693 2.303c0 1.693-1.413 2.827-3.572 2.827-2.362 0-3.446-1.329-3.446-2.59a2.48 2.48 0 0 1 1.694-2.328l-.009-.026Zm3.14 2.285c0-.847-.61-1.304-1.456-1.532a1.414 1.414 0 0 0-1.126 1.388 1.272 1.272 0 0 0 1.312 1.304 1.17 1.17 0 0 0 1.27-1.16Zm-2.43-4.402c0 .626.559 1.033 1.304 1.261a1.27 1.27 0 0 0 .94-1.177 1.057 1.057 0 0 0-1.126-1.15 1.033 1.033 0 0 0-1.118 1.066Z"/></g><defs><clipPath id="a"><path fill="#fff" d="M0 0h75v75H0z"/></clipPath></defs></svg>