<svg xmlns="http://www.w3.org/2000/svg" width="75" height="75" fill="none" viewBox="0 0 24 24"><g clip-path="url(#a)"><path fill="#fff" d="M19.2 0H4.8A4.8 4.8 0 0 0 0 4.8v14.4A4.8 4.8 0 0 0 4.8 24h14.4a4.8 4.8 0 0 0 4.8-4.8V4.8A4.8 4.8 0 0 0 19.2 0Z"/><path fill="#009CD3" d="M19.2 23.399H4.808a4.233 4.233 0 0 1-4.232-4.233V4.775A4.233 4.233 0 0 1 4.808.542H19.2a4.233 4.233 0 0 1 4.233 4.233v14.391A4.233 4.233 0 0 1 19.2 23.4Z"/><path fill="#fff" d="M11.048 6.705c0-.72-.051-1.592-.051-2.464a39.6 39.6 0 0 1-.677 2.32l-.728 2.345H8.516l-.643-2.311c-.195-.72-.39-1.566-.542-2.354 0 .847-.068 1.736-.101 2.48L7.11 9.008H5.858l.381-6.002h1.812l.584 1.998c.195.694.372 1.448.508 2.15.16-.694.364-1.49.576-2.158l.626-1.99h1.786l.313 6.002h-1.312l-.084-2.302ZM18.252 8.728a6.697 6.697 0 0 1-2.006.339 3.386 3.386 0 0 1-2.439-.847 2.997 2.997 0 0 1-.846-2.184c0-1.998 1.464-3.132 3.428-3.132a4.334 4.334 0 0 1 1.694.28l-.288 1.1a3.115 3.115 0 0 0-1.389-.263 1.956 1.956 0 0 0-.093 3.911c.22.007.44-.022.652-.084V6.586h-.923V5.528h2.21v3.2ZM11.606 16.16c0 2.854-1.16 4.843-3.521 4.843-2.362 0-3.454-2.159-3.471-4.783-.017-2.624 1.134-4.817 3.53-4.817s3.462 2.21 3.462 4.758Zm-4.817.06c0 2.125.517 3.14 1.346 3.14.83 0 1.296-1.057 1.296-3.174 0-2.116-.44-3.132-1.338-3.132-.897 0-1.329.999-1.329 3.175M13.173 19.285c.315.025.632.025.948 0a3.698 3.698 0 0 0 1.828-.568 2.81 2.81 0 0 0 1.168-1.693 2.48 2.48 0 0 1-1.87.67 2.777 2.777 0 0 1-2.921-2.947 3.387 3.387 0 0 1 3.496-3.344c2.387 0 3.514 1.829 3.514 3.996a5.022 5.022 0 0 1-5.181 5.579c-.33.017-.661.017-.991 0l.008-1.693Zm1.32-4.665a1.329 1.329 0 0 0 1.312 1.482 1.354 1.354 0 0 0 1.21-.601c.083-.175.119-.367.102-.56 0-.981-.355-1.955-1.371-1.955-.728 0-1.253.66-1.253 1.634Z"/></g><defs><clipPath id="a"><path fill="#fff" d="M0 0h75v75H0z"/></clipPath></defs></svg>