<svg xmlns="http://www.w3.org/2000/svg" width="75" height="75" fill="none" viewBox="0 0 24 24"><g clip-path="url(#a)"><path fill="#fff" d="M19.2 0H4.8A4.8 4.8 0 0 0 0 4.8v14.4A4.8 4.8 0 0 0 4.8 24h14.4a4.8 4.8 0 0 0 4.8-4.8V4.8A4.8 4.8 0 0 0 19.2 0Z"/><path fill="#009CD3" d="M19.2 23.399H4.808a4.233 4.233 0 0 1-4.232-4.233V4.775A4.233 4.233 0 0 1 4.808.542H19.2a4.233 4.233 0 0 1 4.233 4.233v14.391A4.233 4.233 0 0 1 19.2 23.4Z"/><path fill="#fff" d="M11.048 6.705c0-.72-.051-1.592-.051-2.464a39.599 39.599 0 0 1-.677 2.32l-.728 2.345H8.516l-.643-2.311c-.195-.72-.39-1.566-.542-2.354 0 .847-.068 1.736-.101 2.48L7.11 9.008H5.858l.381-6.002h1.812l.584 1.998c.195.694.372 1.448.508 2.15.16-.694.364-1.49.576-2.158l.626-1.99h1.786l.313 6.002h-1.312l-.084-2.302ZM18.252 8.728a6.697 6.697 0 0 1-2.006.339 3.386 3.386 0 0 1-2.439-.805 2.997 2.997 0 0 1-.846-2.184c0-1.998 1.464-3.132 3.428-3.132a4.334 4.334 0 0 1 1.694.28l-.288 1.1a3.115 3.115 0 0 0-1.389-.262 1.956 1.956 0 0 0-.093 3.91c.22.007.44-.021.652-.084V6.629h-.923V5.562h2.21v3.166ZM7.517 13.486h-.025l-1.778.838-.355-1.626 2.472-1.142h1.786v9.286h-2.1v-7.356ZM19.386 16.16c0 2.854-1.16 4.843-3.513 4.843-2.353 0-3.454-2.159-3.47-4.783-.018-2.624 1.125-4.817 3.53-4.817 2.404 0 3.453 2.21 3.453 4.758Zm-4.817.06c0 2.125.517 3.14 1.346 3.14.83 0 1.304-1.057 1.304-3.174 0-2.116-.449-3.14-1.32-3.14-.872 0-1.33.998-1.33 3.174Z"/></g><defs><clipPath id="a"><path fill="#fff" d="M0 0h75v75H0z"/></clipPath></defs></svg>