<svg xmlns="http://www.w3.org/2000/svg" width="75" height="75" fill="none" viewBox="0 0 24 24"><g clip-path="url(#a)"><path fill="#fff" d="M19.2 0H4.8A4.8 4.8 0 0 0 0 4.8v14.4A4.8 4.8 0 0 0 4.8 24h14.4a4.8 4.8 0 0 0 4.8-4.8V4.8A4.8 4.8 0 0 0 19.2 0Z"/><path fill="#009CD3" d="M19.2 23.39H4.808a4.233 4.233 0 0 1-4.232-4.232V4.834A4.233 4.233 0 0 1 4.808.6H19.2a4.233 4.233 0 0 1 4.233 4.233v14.391a4.233 4.233 0 0 1-4.233 4.233"/><path fill="#fff" d="M11.048 6.696c0-.72-.051-1.591-.051-2.463-.195.77-.449 1.625-.677 2.328l-.728 2.336H8.516l-.643-2.31a33.319 33.319 0 0 1-.542-2.354c0 .846-.068 1.735-.101 2.489L7.11 8.999H5.858l.381-6.002h1.812l.584 2.006c.195.694.372 1.44.508 2.142.16-.694.364-1.49.576-2.15l.626-1.998h1.786l.313 6.002h-1.312l-.084-2.303ZM18.252 8.72a6.697 6.697 0 0 1-2.006.338 3.386 3.386 0 0 1-2.439-.846 2.997 2.997 0 0 1-.846-2.185c0-1.997 1.464-3.132 3.428-3.132a4.503 4.503 0 0 1 1.694.28l-.288 1.1a3.115 3.115 0 0 0-1.389-.262 1.956 1.956 0 1 0-.093 3.91c.22.008.44-.021.652-.084V6.578h-.923V5.52h2.21v3.2ZM7.517 13.486h-.025l-1.778.838-.355-1.626 2.472-1.142h1.786v9.286h-2.1v-7.356ZM15.297 13.486h-.025l-1.77.838-.355-1.626 2.472-1.142h1.778v9.286h-2.1v-7.356Z"/></g><defs><clipPath id="a"><path fill="#fff" d="M0 0h75v75H0z"/></clipPath></defs></svg>