<svg xmlns="http://www.w3.org/2000/svg" width="75" height="75" fill="none" viewBox="0 0 24 24"><g clip-path="url(#a)"><path fill="#fff" d="M19.2 0H4.8A4.8 4.8 0 0 0 0 4.8v14.4A4.8 4.8 0 0 0 4.8 24h14.4a4.8 4.8 0 0 0 4.8-4.8V4.8A4.8 4.8 0 0 0 19.2 0Z"/><path fill="#009CD3" d="M19.2 23.39H4.808a4.233 4.233 0 0 1-4.232-4.232V4.766A4.233 4.233 0 0 1 4.808.533H19.2a4.233 4.233 0 0 1 4.233 4.233v14.392A4.233 4.233 0 0 1 19.2 23.39Z"/><path fill="#fff" d="M11.048 6.705c0-.728-.051-1.6-.051-2.472-.195.77-.449 1.625-.677 2.328l-.728 2.336H8.516l-.643-2.31a33.317 33.317 0 0 1-.542-2.354c0 .846-.068 1.735-.101 2.489L7.11 8.999H5.858l.381-6.002h1.812l.584 2.006c.195.694.372 1.44.508 2.142a29.7 29.7 0 0 1 .576-2.15l.626-1.998h1.786l.313 6.002h-1.312l-.084-2.294ZM18.252 8.72a6.697 6.697 0 0 1-2.006.338 3.386 3.386 0 0 1-2.439-.846 2.997 2.997 0 0 1-.846-2.184c0-1.998 1.464-3.133 3.428-3.133a4.503 4.503 0 0 1 1.694.28l-.288 1.1a3.115 3.115 0 0 0-1.389-.262 1.956 1.956 0 0 0-.093 3.91c.22.008.44-.021.652-.084V6.654h-.923V5.596h2.21V8.72ZM7.517 13.486h-.025l-1.778.838-.355-1.626 2.472-1.142h1.786v9.286h-2.1v-7.356ZM12.546 20.842v-1.32l1.185-1.067c2.04-1.829 3.03-2.87 3.04-3.962 0-.753-.44-1.354-1.516-1.354-.723.036-1.416.3-1.98.753l-.619-1.54a5.122 5.122 0 0 1 3.056-.957c2.117 0 3.26 1.227 3.26 2.903 0 1.677-1.118 2.811-2.472 4.013l-.847.711h3.445v1.786l-6.552.034Z"/></g><defs><clipPath id="a"><path fill="#fff" d="M0 0h75v75H0z"/></clipPath></defs></svg>