<svg xmlns="http://www.w3.org/2000/svg" width="75" height="75" fill="none" viewBox="0 0 24 24"><g clip-path="url(#a)"><path fill="#fff" d="M19.2 0H4.8A4.8 4.8 0 0 0 0 4.8v14.4A4.8 4.8 0 0 0 4.8 24h14.4a4.8 4.8 0 0 0 4.8-4.8V4.8A4.8 4.8 0 0 0 19.2 0Z"/><path fill="#009CD3" d="M19.2 23.399H4.808a4.233 4.233 0 0 1-4.232-4.233V4.775A4.233 4.233 0 0 1 4.808.542H19.2a4.233 4.233 0 0 1 4.233 4.233v14.391A4.233 4.233 0 0 1 19.2 23.4Z"/><path fill="#fff" d="M11.048 6.705c0-.728-.051-1.6-.051-2.472-.195.77-.449 1.625-.677 2.328l-.728 2.336H8.516l-.643-2.31a33.319 33.319 0 0 1-.542-2.354c0 .846-.068 1.693-.101 2.489L7.11 8.999H5.858l.381-6.002h1.812l.584 2.006c.195.694.372 1.44.508 2.142a29.7 29.7 0 0 1 .576-2.15l.626-1.998h1.786l.313 6.002h-1.312l-.084-2.294ZM18.252 8.72a6.697 6.697 0 0 1-2.006.338 3.386 3.386 0 0 1-2.439-.796 3.022 3.022 0 0 1-.846-2.192c0-1.998 1.464-3.132 3.428-3.132a4.503 4.503 0 0 1 1.694.279l-.288 1.1a3.115 3.115 0 0 0-1.389-.262 1.956 1.956 0 1 0-.093 3.911c.22.011.442-.017.652-.085v-1.26h-.923V5.56h2.21V8.72ZM7.517 13.486h-.025l-1.778.838-.355-1.626 2.472-1.142h1.786v9.286h-2.1v-7.356ZM12.919 18.709a4.799 4.799 0 0 0 2.15.576c1.134 0 1.693-.542 1.693-1.228 0-.931-.914-1.346-1.871-1.346h-.847v-1.557h.847c.728 0 1.642-.288 1.642-1.076 0-.55-.44-.965-1.371-.965a4.02 4.02 0 0 0-1.93.559l-.44-1.575a5.774 5.774 0 0 1 2.87-.702c1.972 0 3.072 1.041 3.072 2.32a2.21 2.21 0 0 1-1.693 2.15 2.302 2.302 0 0 1 2.015 2.268c0 1.626-1.44 2.828-3.801 2.828a5.638 5.638 0 0 1-2.76-.643l.424-1.609Z"/></g><defs><clipPath id="a"><path fill="#fff" d="M0 0h75v75H0z"/></clipPath></defs></svg>