<svg xmlns="http://www.w3.org/2000/svg" width="100" height="100" viewBox="0 0 34 34"><g id="グループ_37" data-name="グループ 37" transform="translate(-859 659)"><path id="パス_44" data-name="パス 44" d="M30.6 0H3.4A3.4 3.4 0 000 3.4v27.2A3.4 3.4 0 003.4 34h27.2a3.4 3.4 0 003.4-3.4V3.4A3.4 3.4 0 0030.6 0" transform="translate(859 -659)" fill="#002a74"/><path id="長方形_73" data-name="長方形 73" transform="translate(862 -656)" fill="#fff" d="M0 0h28v28H0z"/><path id="パス_45" data-name="パス 45" d="M22.307 14.984h2.687l1.991 6.346h.024L29 14.984h2.687v8.373H30.08v-6.91h-.024L27.8 23.358h-1.606l-2.255-6.91-.024.024v6.886h-1.608z" transform="translate(844.338 -668.849)" fill="#1a1311"/><path id="パス_46" data-name="パス 46" d="M58.258 14.564c2.627 0 4.1 1.776 4.1 4.307s-1.452 4.354-4.1 4.354c-2.687 0-4.1-1.788-4.1-4.354s1.44-4.307 4.1-4.307m0 7.341c1.716 0 2.351-1.523 2.351-3.035 0-1.476-.684-2.987-2.351-2.987s-2.351 1.511-2.351 2.987c0 1.511.636 3.035 2.351 3.035" transform="translate(823.403 -668.573)" fill="#1a1311"/><path id="パス_47" data-name="パス 47" d="M23.156 50.412c0-2.938.89-6.095 4.063-6.095 3.425 0 4.1 3.375 4.1 6.095s-.705 6.028-4.1 6.028c-3.61 0-4.063-3.577-4.063-6.028m5.809 0c0-1.511 0-4.349-1.746-4.349-1.713 0-1.713 2.838-1.713 4.349 0 1.478-.017 4.282 1.713 4.282 1.763 0 1.746-2.8 1.746-4.282" transform="translate(843.78 -688.13)" fill="#1a1311"/><path id="パス_48" data-name="パス 48" d="M55.982 44.9h2.082v11.72h-2.351v-9.05l-1.981 1.612-1.175-1.528z" transform="translate(824.454 -688.516)" fill="#1a1311"/></g></svg>