<svg id="グループ_43" data-name="グループ 43" xmlns="http://www.w3.org/2000/svg" width="100" height="100" viewBox="0 0 34 34.001"><path id="パス_49" data-name="パス 49" d="M207.493 0h-27.2a3.4 3.4 0 00-3.4 3.4v27.2a3.4 3.4 0 003.4 3.4h27.2a3.4 3.4 0 003.4-3.4V3.4a3.4 3.4 0 00-3.4-3.4" transform="translate(-176.893)" fill="#002a74"/><path id="長方形_74" data-name="長方形 74" transform="translate(3.4 3.401)" fill="#fff" d="M0 0h27.2v27.2H0z"/><path id="パス_50" data-name="パス 50" d="M199.2 14.984h2.687l1.991 6.346h.024l1.991-6.346h2.687v8.373h-1.607v-6.91h-.024l-2.255 6.91h-1.607l-2.255-6.91-.024.024v6.886H199.2z" transform="translate(-191.555 -9.849)" fill="#1a1311"/><path id="パス_51" data-name="パス 51" d="M235.152 14.564c2.627 0 4.1 1.776 4.1 4.307s-1.452 4.354-4.1 4.354c-2.687 0-4.1-1.788-4.1-4.354s1.439-4.307 4.1-4.307m0 7.341c1.716 0 2.351-1.523 2.351-3.035 0-1.476-.684-2.987-2.351-2.987S232.8 17.4 232.8 18.871c0 1.511.636 3.035 2.351 3.035" transform="translate(-212.49 -9.573)" fill="#1a1311"/><path id="パス_52" data-name="パス 52" d="M200.049 50.412c0-2.938.89-6.095 4.063-6.095 3.425 0 4.1 3.375 4.1 6.095s-.705 6.028-4.1 6.028c-3.61 0-4.063-3.577-4.063-6.028m5.81 0c0-1.511 0-4.349-1.746-4.349-1.713 0-1.713 2.838-1.713 4.349 0 1.478-.017 4.282 1.713 4.282 1.763 0 1.746-2.8 1.746-4.282" transform="translate(-192.113 -29.129)" fill="#1a1311"/><path id="パス_53" data-name="パス 53" d="M227.587 56.239v-1.965c1.092-1.058 5.071-4.383 5.071-6.532 0-1.075-.957-1.578-1.914-1.578a5.089 5.089 0 00-2.7.94l-.185-1.948a7.8 7.8 0 013.476-.84c2.233 0 3.677 1.125 3.677 3.425 0 2.485-2.5 4.769-4.416 6.649h4.785v1.847z" transform="translate(-210.214 -29.129)" fill="#1a1311"/></svg>