<svg id="グループ_38" data-name="グループ 38" xmlns="http://www.w3.org/2000/svg" width="100" height="100" viewBox="0 0 34 34"><path id="パス_54" data-name="パス 54" d="M384.385 0h-27.2a3.4 3.4 0 00-3.4 3.4v27.2a3.4 3.4 0 003.4 3.4h27.2a3.4 3.4 0 003.4-3.4V3.4a3.4 3.4 0 00-3.4-3.4" transform="translate(-353.786)" fill="#002a74"/><path id="長方形_75" data-name="長方形 75" transform="translate(3.4 3.401)" fill="#fff" d="M0 0h27.2v27.2H0z"/><path id="パス_55" data-name="パス 55" d="M376.093 14.984h2.687l1.991 6.346h.024l1.991-6.346h2.687v8.373h-1.607v-6.91h-.024l-2.255 6.91h-1.607l-2.255-6.91-.024.024v6.886h-1.607z" transform="translate(-368.448 -9.849)" fill="#1a1311"/><path id="パス_56" data-name="パス 56" d="M412.044 14.564c2.627 0 4.1 1.776 4.1 4.307s-1.452 4.354-4.1 4.354c-2.687 0-4.1-1.788-4.1-4.354s1.44-4.307 4.1-4.307m0 7.341c1.716 0 2.351-1.523 2.351-3.035 0-1.476-.684-2.987-2.351-2.987s-2.351 1.511-2.351 2.987c0 1.511.636 3.035 2.351 3.035" transform="translate(-389.383 -9.573)" fill="#1a1311"/><path id="パス_57" data-name="パス 57" d="M376.943 50.412c0-2.938.89-6.095 4.063-6.095 3.425 0 4.1 3.375 4.1 6.095s-.705 6.028-4.1 6.028c-3.61 0-4.063-3.577-4.063-6.028m5.809 0c0-1.511 0-4.349-1.746-4.349-1.713 0-1.713 2.838-1.713 4.349 0 1.478-.017 4.282 1.713 4.282 1.763 0 1.746-2.8 1.746-4.282" transform="translate(-369.007 -29.13)" fill="#1a1311"/><path id="パス_58" data-name="パス 58" d="M404.81 54.055a7.062 7.062 0 002.6.537c.974 0 2.468-.47 2.468-1.662 0-1.377-1.091-1.83-2.586-1.83h-1.142v-1.848h1.075c1.578 0 2.6-.52 2.6-1.544 0-1.175-.957-1.545-2.015-1.545a5.963 5.963 0 00-2.636.621l-.134-1.88a9.033 9.033 0 013.274-.588c1.444 0 3.862.5 3.862 3.006a2.868 2.868 0 01-2.183 2.8v.034a2.562 2.562 0 012.233 2.787c0 2.787-2.535 3.492-4.483 3.492a11.937 11.937 0 01-3.073-.386z" transform="translate(-387.236 -29.129)" fill="#1a1311"/></svg>