<svg id="グループ_39" data-name="グループ 39" xmlns="http://www.w3.org/2000/svg" width="100" height="100" viewBox="0 0 34 34"><path id="パス_64" data-name="パス 64" d="M738.171 0h-27.2a3.4 3.4 0 00-3.4 3.4v27.2a3.4 3.4 0 003.4 3.4h27.2a3.4 3.4 0 003.4-3.4V3.4a3.4 3.4 0 00-3.4-3.4" transform="translate(-707.572)" fill="#002a74"/><path id="長方形_77" data-name="長方形 77" transform="translate(3.4 3.401)" fill="#fff" d="M0 0h27.2v27.2H0z"/><path id="パス_65" data-name="パス 65" d="M729.878 14.984h2.687l1.991 6.346h.024l1.991-6.346h2.687v8.373h-1.607v-6.909h-.024l-2.255 6.909h-1.607l-2.255-6.909-.024.024v6.885h-1.607z" transform="translate(-722.234 -9.849)" fill="#1a1311"/><path id="パス_66" data-name="パス 66" d="M765.829 14.564c2.627 0 4.1 1.776 4.1 4.307s-1.452 4.354-4.1 4.354c-2.687 0-4.1-1.788-4.1-4.354s1.439-4.307 4.1-4.307m0 7.341c1.716 0 2.351-1.523 2.351-3.035 0-1.476-.684-2.987-2.351-2.987s-2.351 1.511-2.351 2.987c0 1.511.636 3.035 2.351 3.035" transform="translate(-743.168 -9.573)" fill="#1a1311"/><path id="パス_67" data-name="パス 67" d="M730.728 50.412c0-2.938.89-6.095 4.063-6.095 3.425 0 4.1 3.375 4.1 6.095s-.705 6.028-4.1 6.028c-3.61 0-4.063-3.577-4.063-6.028m5.809 0c0-1.511 0-4.348-1.746-4.348-1.713 0-1.713 2.838-1.713 4.348 0 1.478-.017 4.282 1.713 4.282 1.763 0 1.746-2.8 1.746-4.282" transform="translate(-722.793 -29.13)" fill="#1a1311"/><path id="パス_68" data-name="パス 68" d="M766.8 46.65h-4.517l-.05 2.5a5.451 5.451 0 011.075-.118 3.486 3.486 0 013.778 3.811c0 2.2-1.545 3.979-4.567 3.979a12.72 12.72 0 01-2.737-.336l.051-2.1a6.042 6.042 0 002.4.588c1.226 0 2.5-.571 2.5-2.065 0-1.511-1.343-2.032-2.686-2.032a6.853 6.853 0 00-2.1.319l.117-6.3h6.736z" transform="translate(-741.891 -29.516)" fill="#1a1311"/></svg>