<svg xmlns="http://www.w3.org/2000/svg" width="100" height="100" viewBox="0 0 34 34.001"><g id="グループ_47" data-name="グループ 47" transform="translate(-1743.465 659)"><path id="パス_94" data-name="パス 94" d="M915.065 0h-27.2a3.4 3.4 0 00-3.4 3.4v27.2a3.4 3.4 0 003.4 3.4h27.2a3.4 3.4 0 003.4-3.4V3.4a3.4 3.4 0 00-3.4-3.4" transform="translate(859 -659)" fill="#002a74"/><path id="長方形_83" data-name="長方形 83" transform="translate(1746.865 -655.599)" fill="#fff" d="M0 0h27.2v27.2H0z"/><path id="パス_95" data-name="パス 95" d="M906.771 14.984h2.687l1.991 6.346h.024l1.991-6.346h2.687v8.373h-1.607v-6.91h-.024l-2.255 6.91h-1.607l-2.255-6.91-.024.024v6.886h-1.607z" transform="translate(844.338 -668.849)" fill="#1a1311"/><path id="パス_96" data-name="パス 96" d="M942.724 14.564c2.627 0 4.1 1.776 4.1 4.307s-1.452 4.354-4.1 4.354c-2.687 0-4.1-1.788-4.1-4.354s1.439-4.307 4.1-4.307m0 7.341c1.716 0 2.351-1.523 2.351-3.035 0-1.476-.684-2.987-2.351-2.987s-2.351 1.511-2.351 2.987c0 1.511.636 3.035 2.351 3.035" transform="translate(823.404 -668.573)" fill="#1a1311"/><path id="パス_97" data-name="パス 97" d="M907.621 50.412c0-2.938.89-6.095 4.063-6.095 3.425 0 4.1 3.375 4.1 6.095s-.705 6.028-4.1 6.028c-3.61 0-4.063-3.577-4.063-6.028m5.81 0c0-1.511 0-4.349-1.746-4.349-1.713 0-1.713 2.838-1.713 4.349 0 1.478-.017 4.282 1.713 4.282 1.763 0 1.746-2.8 1.746-4.282" transform="translate(843.78 -688.129)" fill="#1a1311"/><path id="パス_98" data-name="パス 98" d="M942.292 46.634a4.96 4.96 0 00-2.048-.47c-2.032 0-2.72 1.88-2.787 3.627l.034.033a2.543 2.543 0 012.267-1.175c2.217 0 3.425 1.411 3.425 3.576 0 2.535-1.243 4.215-3.9 4.215-3.257 0-3.979-2.7-3.979-5.457 0-3.173 1.024-6.666 4.819-6.666a7.26 7.26 0 012.468.42zm-4.634 5.977c0 1.108.47 2.082 1.629 2.082 1.091 0 1.545-1.058 1.545-2.1 0-1.142-.47-2.2-1.6-2.2-1.142 0-1.578 1.041-1.578 2.217" transform="translate(825.582 -688.129)" fill="#1a1311"/></g></svg>