<svg id="グループ_40" data-name="グループ 40" xmlns="http://www.w3.org/2000/svg" width="100" height="100" viewBox="0 0 34 34"><path id="パス_69" data-name="パス 69" d="M30.6 161.811H3.4a3.4 3.4 0 00-3.4 3.4v27.2a3.4 3.4 0 003.4 3.4h27.2a3.4 3.4 0 003.4-3.4v-27.2a3.4 3.4 0 00-3.4-3.4" transform="translate(0 -161.811)" fill="#002a74"/><path id="長方形_78" data-name="長方形 78" transform="translate(3.4 3.401)" fill="#fff" d="M0 0h27.2v27.2H0z"/><path id="パス_70" data-name="パス 70" d="M22.307 176.8h2.687l1.991 6.346h.024L29 176.8h2.687v8.373H30.08v-6.91h-.024l-2.255 6.91h-1.607l-2.255-6.91-.024.024v6.886h-1.608z" transform="translate(-14.662 -171.661)" fill="#1a1311"/><path id="パス_71" data-name="パス 71" d="M58.258 176.376c2.627 0 4.1 1.776 4.1 4.307s-1.452 4.354-4.1 4.354c-2.687 0-4.1-1.787-4.1-4.354s1.44-4.307 4.1-4.307m0 7.341c1.716 0 2.351-1.523 2.351-3.035 0-1.476-.684-2.987-2.351-2.987s-2.351 1.511-2.351 2.987c0 1.511.636 3.035 2.351 3.035" transform="translate(-35.597 -171.385)" fill="#1a1311"/><path id="パス_72" data-name="パス 72" d="M23.156 212.223c0-2.938.89-6.095 4.063-6.095 3.425 0 4.1 3.375 4.1 6.095s-.705 6.028-4.1 6.028c-3.61 0-4.063-3.577-4.063-6.028m5.809 0c0-1.511 0-4.349-1.746-4.349-1.713 0-1.713 2.838-1.713 4.349 0 1.478-.017 4.282 1.713 4.282 1.763 0 1.746-2.8 1.746-4.282" transform="translate(-15.22 -190.941)" fill="#1a1311"/><path id="パス_73" data-name="パス 73" d="M51.136 206.716h7.556v1.948l-4.164 9.772h-2.553l4.349-9.873h-5.188z" transform="translate(-33.612 -191.327)" fill="#1a1311"/></svg>