<svg id="グループ_45" data-name="グループ 45" xmlns="http://www.w3.org/2000/svg" width="100" height="100" viewBox="0 0 34 34.001"><path id="パス_74" data-name="パス 74" d="M207.493 161.811h-27.2a3.4 3.4 0 00-3.4 3.4v27.2a3.4 3.4 0 003.4 3.4h27.2a3.4 3.4 0 003.4-3.4v-27.2a3.4 3.4 0 00-3.4-3.4" transform="translate(-176.893 -161.811)" fill="#002a74"/><path id="長方形_79" data-name="長方形 79" transform="translate(3.4 3.401)" fill="#fff" d="M0 0h27.2v27.2H0z"/><path id="パス_75" data-name="パス 75" d="M199.2 176.8h2.687l1.991 6.346h.024l1.991-6.346h2.687v8.373h-1.607v-6.91h-.024l-2.255 6.91h-1.607l-2.255-6.91-.024.024v6.886H199.2z" transform="translate(-191.555 -171.661)" fill="#1a1311"/><path id="パス_76" data-name="パス 76" d="M235.152 176.376c2.627 0 4.1 1.776 4.1 4.307s-1.452 4.354-4.1 4.354c-2.687 0-4.1-1.787-4.1-4.354s1.439-4.307 4.1-4.307m0 7.341c1.716 0 2.351-1.523 2.351-3.035 0-1.476-.684-2.987-2.351-2.987s-2.351 1.511-2.351 2.987c0 1.511.636 3.035 2.351 3.035" transform="translate(-212.49 -171.385)" fill="#1a1311"/><path id="パス_77" data-name="パス 77" d="M200.049 212.223c0-2.938.89-6.1 4.063-6.1 3.425 0 4.1 3.375 4.1 6.1s-.705 6.028-4.1 6.028c-3.61 0-4.063-3.577-4.063-6.028m5.81 0c0-1.511 0-4.349-1.746-4.349-1.713 0-1.713 2.838-1.713 4.349 0 1.478-.017 4.282 1.713 4.282 1.763 0 1.746-2.8 1.746-4.282" transform="translate(-192.113 -190.94)" fill="#1a1311"/><path id="パス_78" data-name="パス 78" d="M229.442 211.938a2.986 2.986 0 01-1.948-2.72c0-2.1 1.595-3.089 3.728-3.089 2.065 0 3.929.856 3.929 2.821a3.086 3.086 0 01-1.948 2.8v.016a3.283 3.283 0 012.25 3.073c0 2.367-1.713 3.409-4.03 3.409-2.283 0-4.131-.991-4.131-3.375a3.165 3.165 0 012.149-2.905zm1.981 4.567a1.548 1.548 0 001.679-1.562c0-1.159-.991-1.712-1.964-2.032a2.134 2.134 0 00-1.495 1.931 1.715 1.715 0 001.78 1.662m.168-5.457a2.028 2.028 0 001.309-1.7 1.375 1.375 0 00-1.444-1.478 1.53 1.53 0 00-1.713 1.41c0 1.008 1.041 1.461 1.847 1.763" transform="translate(-210.021 -190.94)" fill="#1a1311"/></svg>