<svg id="グループ_41" data-name="グループ 41" xmlns="http://www.w3.org/2000/svg" width="100" height="100" viewBox="0 0 34 34"><path id="パス_79" data-name="パス 79" d="M384.385 161.811h-27.2a3.4 3.4 0 00-3.4 3.4v27.2a3.4 3.4 0 003.4 3.4h27.2a3.4 3.4 0 003.4-3.4v-27.2a3.4 3.4 0 00-3.4-3.4" transform="translate(-353.786 -161.811)" fill="#002a74"/><path id="長方形_80" data-name="長方形 80" transform="translate(3.4 3.401)" fill="#fff" d="M0 0h27.2v27.2H0z"/><path id="パス_80" data-name="パス 80" d="M376.093 176.8h2.687l1.991 6.346h.024l1.991-6.346h2.687v8.373h-1.607v-6.91h-.024l-2.255 6.91h-1.607l-2.255-6.91-.024.024v6.886h-1.607z" transform="translate(-368.448 -171.661)" fill="#1a1311"/><path id="パス_81" data-name="パス 81" d="M412.044 176.376c2.627 0 4.1 1.776 4.1 4.307s-1.452 4.354-4.1 4.354c-2.687 0-4.1-1.787-4.1-4.354s1.44-4.307 4.1-4.307m0 7.341c1.716 0 2.351-1.523 2.351-3.035 0-1.476-.684-2.987-2.351-2.987s-2.351 1.511-2.351 2.987c0 1.511.636 3.035 2.351 3.035" transform="translate(-389.383 -171.385)" fill="#1a1311"/><path id="パス_82" data-name="パス 82" d="M376.943 212.223c0-2.938.89-6.095 4.063-6.095 3.425 0 4.1 3.375 4.1 6.095s-.705 6.028-4.1 6.028c-3.61 0-4.063-3.577-4.063-6.028m5.809 0c0-1.511 0-4.349-1.746-4.349-1.713 0-1.713 2.838-1.713 4.349 0 1.478-.017 4.282 1.713 4.282 1.763 0 1.746-2.8 1.746-4.282" transform="translate(-369.007 -190.941)" fill="#1a1311"/><path id="パス_83" data-name="パス 83" d="M405.518 215.934a4.959 4.959 0 002.048.47c2.032 0 2.72-1.88 2.787-3.627l-.034-.033a2.508 2.508 0 01-2.267 1.175c-2.217 0-3.425-1.411-3.425-3.576 0-2.535 1.242-4.215 3.9-4.215 3.258 0 3.979 2.7 3.979 5.457 0 3.173-1.024 6.666-4.819 6.666a7.261 7.261 0 01-2.468-.42zm4.634-5.977c0-1.108-.47-2.082-1.629-2.082-1.091 0-1.545 1.058-1.545 2.1 0 1.142.47 2.2 1.6 2.2 1.142 0 1.578-1.041 1.578-2.217" transform="translate(-387.204 -190.941)" fill="#1a1311"/></svg>