<svg id="グループ_46" data-name="グループ 46" xmlns="http://www.w3.org/2000/svg" width="100" height="100" viewBox="0 0 34 34"><path id="パス_84" data-name="パス 84" d="M561.278 161.811h-27.2a3.4 3.4 0 00-3.4 3.4v27.2a3.4 3.4 0 003.4 3.4h27.2a3.4 3.4 0 003.4-3.4v-27.2a3.4 3.4 0 00-3.4-3.4" transform="translate(-530.679 -161.811)" fill="#002a74"/><path id="長方形_81" data-name="長方形 81" transform="translate(3.4 3.401)" fill="#fff" d="M0 0h27.2v27.2H0z"/><path id="パス_85" data-name="パス 85" d="M552.985 176.8h2.687l1.991 6.346h.024l1.991-6.346h2.687v8.373h-1.607v-6.91h-.024l-2.255 6.91h-1.607l-2.255-6.91-.024.024v6.885h-1.607z" transform="translate(-545.341 -171.661)" fill="#1a1311"/><path id="パス_86" data-name="パス 86" d="M588.937 176.376c2.627 0 4.1 1.776 4.1 4.307s-1.452 4.354-4.1 4.354c-2.687 0-4.1-1.787-4.1-4.354s1.439-4.307 4.1-4.307m0 7.341c1.716 0 2.351-1.523 2.351-3.035 0-1.476-.684-2.987-2.351-2.987s-2.351 1.511-2.351 2.987c0 1.511.636 3.035 2.351 3.035" transform="translate(-566.276 -171.385)" fill="#1a1311"/><path id="パス_87" data-name="パス 87" d="M559.417 206.716h2.083v11.72h-2.351v-9.05L557.167 211l-1.175-1.528z" transform="translate(-547.317 -191.327)" fill="#1a1311"/><path id="パス_88" data-name="パス 88" d="M581.079 212.223c0-2.938.89-6.095 4.063-6.095 3.425 0 4.1 3.375 4.1 6.095s-.705 6.028-4.1 6.028c-3.61 0-4.063-3.577-4.063-6.028m5.809 0c0-1.511 0-4.348-1.746-4.348-1.713 0-1.713 2.838-1.713 4.348 0 1.478-.017 4.282 1.713 4.282 1.763 0 1.746-2.8 1.746-4.282" transform="translate(-563.807 -190.941)" fill="#1a1311"/></svg>