<svg id="グループ_42" data-name="グループ 42" xmlns="http://www.w3.org/2000/svg" width="100" height="100" viewBox="0 0 34 34"><path id="パス_89" data-name="パス 89" d="M738.171 161.811h-27.2a3.4 3.4 0 00-3.4 3.4v27.2a3.4 3.4 0 003.4 3.4h27.2a3.4 3.4 0 003.4-3.4v-27.2a3.4 3.4 0 00-3.4-3.4" transform="translate(-707.572 -161.811)" fill="#002a74"/><path id="長方形_82" data-name="長方形 82" transform="translate(3.4 3.401)" fill="#fff" d="M0 0h27.2v27.2H0z"/><path id="パス_90" data-name="パス 90" d="M729.878 176.8h2.687l1.991 6.346h.024l1.991-6.346h2.687v8.373h-1.607v-6.91h-.024l-2.255 6.91h-1.607l-2.255-6.91-.024.024v6.885h-1.607z" transform="translate(-722.234 -171.661)" fill="#1a1311"/><path id="パス_91" data-name="パス 91" d="M765.829 176.376c2.627 0 4.1 1.776 4.1 4.307s-1.452 4.354-4.1 4.354c-2.687 0-4.1-1.787-4.1-4.354s1.439-4.307 4.1-4.307m0 7.341c1.716 0 2.351-1.523 2.351-3.035 0-1.476-.684-2.987-2.351-2.987s-2.351 1.511-2.351 2.987c0 1.511.636 3.035 2.351 3.035" transform="translate(-743.168 -171.385)" fill="#1a1311"/><path id="パス_92" data-name="パス 92" d="M736.309 206.716h2.082v11.72h-2.351v-9.05L734.059 211l-1.175-1.528z" transform="translate(-724.21 -191.327)" fill="#1a1311"/><path id="パス_93" data-name="パス 93" d="M763.553 206.716h2.082v11.72h-2.351v-9.05L761.3 211l-1.175-1.528z" transform="translate(-742.117 -191.327)" fill="#1a1311"/></svg>