<svg xmlns="http://www.w3.org/2000/svg" xml:space="preserve" id="レイヤー_1" x="0" y="0" style="enable-background:new 0 0 75 75" version="1.0" viewBox="0 0 75 75"><style>.st1{fill:#f7f8f8}</style><path d="M0 .59h75v75H0z" style="fill:#875838"/><path d="M3.82 27.63h67.36v44.39H3.82z" class="st1"/><path d="M13.15-.59h48.69v31H13.15z" style="fill:none"/><path d="M21.31 14.32c0-6.47 4.74-10.61 11.03-10.61 1.79 0 3.31.15 5.04.75l-.3 3.61c-1.49-.69-2.8-.95-4.41-.95-4.14 0-6.89 2.5-6.89 7.1 0 4.62 3.04 7.25 6.95 7.25 1.52 0 2.95-.18 4.59-.81l.15 3.61c-1.31.45-3.07.69-4.86.69-6.71-.03-11.3-3.96-11.3-10.64zM40.87 3.91h12.31v3.46h-8.17v5.01h7.51v3.37h-7.51v5.49h8.26v3.49h-12.4V3.91z" class="st1"/><path d="M6.92 50.58c0-13.75 4.58-20.26 14.46-20.26 9.11 0 13.75 6.62 13.75 19.82 0 12.48-4.08 20.04-14.02 20.04-9.94-.01-14.19-7.46-14.19-19.6zm20.48-.28c0-9.55-2.26-14.3-6.35-14.3s-6.35 4.69-6.35 13.91c0 9.72 2.26 14.57 6.4 14.57 4.03.01 6.3-4.85 6.3-14.18zM39.49 59.46c0-4.64 2.71-7.84 8.45-10.1-5.63-2.21-7.51-4.97-7.51-9.11 0-6.07 5.52-9.94 13.64-9.94 7.67 0 13.19 3.48 13.19 9.44 0 4.14-2.21 6.9-7.23 9.22 6.02 2.21 8.45 5.13 8.45 10.05 0 7.07-6.29 11.15-14.63 11.15-8.51 0-14.36-3.97-14.36-10.71zm21.31-.38c0-3.48-2.43-5.47-7.51-7.07-3.97 1.44-6.02 3.64-6.02 6.96 0 3.59 2.76 5.74 6.68 5.74 3.81 0 6.85-2.15 6.85-5.63zm-1.11-18.44c0-3.37-2.43-5.02-5.85-5.02-3.31 0-6.07 1.77-6.07 4.8 0 3.31 2.65 5.02 6.79 6.46 3.48-1.49 5.13-3.54 5.13-6.24z"/></svg>