<svg xmlns="http://www.w3.org/2000/svg" xmlns:xlink="http://www.w3.org/1999/xlink" width="75" height="75"><defs><path id="a" d="M11.172-12.937H6.047v2.78h4.844v3.641H6.047v2.86h5.125V0H1.734v-16.594h9.438Zm0 0"/><path id="b" d="M19.047 0H.844l5.61-5.812q2.214-2.31 3.468-3.922 1.266-1.605 1.875-2.72c.414-.737.672-1.335.765-1.796.102-.457.157-.848.157-1.172q-.001-.516-.172-.984a2.5 2.5 0 0 0-.485-.86 2.4 2.4 0 0 0-.796-.593 2.4 2.4 0 0 0-1.094-.235q-1.207.001-1.875.782c-.45.523-.672 1.171-.672 1.953 0 .218.023.539.078.953H1.297c0-1.313.21-2.508.64-3.594a8 8 0 0 1 1.813-2.781 8 8 0 0 1 2.766-1.797c1.07-.426 2.25-.64 3.53-.64q1.89 0 3.5.609 1.606.595 2.767 1.672a7.65 7.65 0 0 1 1.828 2.562 7.77 7.77 0 0 1 .672 3.219q0 1.862-.797 3.437-.797 1.582-2.532 3.235l-3.75 3.5h7.313Zm0 0"/><path id="c" d="M16.797-17.64H8.969l-.39 2.484q.543-.047.983-.094.452-.047.938-.047 1.7 0 3.172.61 1.482.597 2.531 1.64 1.043 1.051 1.64 2.516.61 1.47.61 3.219c0 1.218-.23 2.32-.687 3.296a7.06 7.06 0 0 1-1.907 2.5q-1.218 1.033-3 1.579c-1.18.375-2.484.562-3.921.562a15 15 0 0 1-3.891-.5q-1.846-.48-3.453-1.5l.86-5.531q1.499 1.3 3.062 1.968 1.56.673 2.968.672 1.81.002 2.86-.968c.695-.645 1.047-1.453 1.047-2.422 0-1.114-.477-2.016-1.422-2.703q-1.408-1.046-3.672-1.047-1.031 0-2.11.234a9.8 9.8 0 0 0-2.125.703l1.891-12.156h11.844Zm0 0"/></defs><path fill="#C6035D" d="M74.996 37.5c0-20.71-16.789-37.5-37.5-37.5s-37.5 16.79-37.5 37.5S16.786 75 37.496 75s37.5-16.79 37.5-37.5m0 0"/><path fill="#FFF" d="M65.996 37.5c0-15.742-12.758-28.5-28.5-28.5-15.738 0-28.5 12.758-28.5 28.5S21.758 66 37.496 66c15.742 0 28.5-12.758 28.5-28.5m0 0"/><use xlink:href="#a" x="31.227" y="30.995"/><use xlink:href="#b" x="17.097" y="58.296"/><use xlink:href="#c" x="37.497" y="58.296"/></svg>