<svg xmlns="http://www.w3.org/2000/svg" xmlns:xlink="http://www.w3.org/1999/xlink" width="75" height="75"><defs><path id="a" d="M11.172-12.937H6.047v2.78h4.844v3.641H6.047v2.86h5.125V0H1.734v-16.594h9.438Zm0 0"/><path id="b" d="M19.047 0H.844l5.61-5.812q2.214-2.31 3.468-3.922 1.266-1.605 1.875-2.72c.414-.737.672-1.335.765-1.796.102-.457.157-.848.157-1.172q-.001-.516-.172-.984a2.5 2.5 0 0 0-.485-.86 2.4 2.4 0 0 0-.796-.593 2.4 2.4 0 0 0-1.094-.235q-1.207.001-1.875.782c-.45.523-.672 1.171-.672 1.953 0 .218.023.539.078.953H1.297c0-1.313.21-2.508.64-3.594a8 8 0 0 1 1.813-2.781 8 8 0 0 1 2.766-1.797c1.07-.426 2.25-.64 3.53-.64q1.89 0 3.5.609 1.606.595 2.767 1.672a7.65 7.65 0 0 1 1.828 2.562 7.77 7.77 0 0 1 .672 3.219q0 1.862-.797 3.437-.797 1.582-2.532 3.235l-3.75 3.5h7.313Zm0 0"/><path id="c" d="m16.172-22.625-6.422 7.39h.125q.825-.514 1.375-.609c.363-.07.68-.11.953-.11 1.102 0 2.113.212 3.031.626a7.5 7.5 0 0 1 2.407 1.719 7.9 7.9 0 0 1 1.578 2.578 8.6 8.6 0 0 1 .578 3.14q0 1.799-.656 3.344a7.8 7.8 0 0 1-1.907 2.703c-.836.774-1.84 1.375-3.015 1.813q-1.77.656-3.985.656-2.25 0-4.03-.656-1.769-.655-3.016-1.797A7.9 7.9 0 0 1 1.28-4.484a8 8 0 0 1-.656-3.22q-.001-1.918.86-4.155.855-2.233 2.624-4.407l5.25-6.359ZM6.453-7.765q0 .784.297 1.452.292.674.797 1.188a4.2 4.2 0 0 0 1.187.813q.685.297 1.47.296.779.001 1.452-.296a4 4 0 0 0 1.172-.813q.514-.515.813-1.187.311-.668.312-1.454a3.4 3.4 0 0 0-.312-1.453 3.7 3.7 0 0 0-.813-1.187 3.607 3.607 0 0 0-2.625-1.11c-.523 0-1.012.102-1.469.297q-.672.298-1.187.813-.504.503-.797 1.187-.298.675-.297 1.453m0 0"/></defs><path fill="#C6035D" d="M74.996 37.5c0-20.71-16.789-37.5-37.5-37.5s-37.5 16.79-37.5 37.5S16.786 75 37.496 75s37.5-16.79 37.5-37.5m0 0"/><path fill="#FFF" d="M65.996 37.5c0-15.742-12.758-28.5-28.5-28.5-15.738 0-28.5 12.758-28.5 28.5S21.758 66 37.496 66c15.742 0 28.5-12.758 28.5-28.5m0 0"/><use xlink:href="#a" x="31.227" y="30.995"/><use xlink:href="#b" x="17.097" y="58.296"/><use xlink:href="#c" x="37.497" y="58.296"/></svg>