<svg xmlns="http://www.w3.org/2000/svg" xmlns:xlink="http://www.w3.org/1999/xlink" width="75" height="75"><defs><path id="a" d="M11.172-12.937H6.047v2.78h4.844v3.641H6.047v2.86h5.125V0H1.734v-16.594h9.438Zm0 0"/><path id="b" d="M19.047 0H.844l5.61-5.812q2.214-2.31 3.468-3.922 1.266-1.605 1.875-2.72c.414-.737.672-1.335.765-1.796.102-.457.157-.848.157-1.172q-.001-.516-.172-.984a2.5 2.5 0 0 0-.485-.86 2.4 2.4 0 0 0-.796-.593 2.4 2.4 0 0 0-1.094-.235q-1.207.001-1.875.782c-.45.523-.672 1.171-.672 1.953 0 .218.023.539.078.953H1.297c0-1.313.21-2.508.64-3.594a8 8 0 0 1 1.813-2.781 8 8 0 0 1 2.766-1.797c1.07-.426 2.25-.64 3.53-.64q1.89 0 3.5.609 1.606.595 2.767 1.672a7.65 7.65 0 0 1 1.828 2.562 7.77 7.77 0 0 1 .672 3.219q0 1.862-.797 3.437-.797 1.582-2.532 3.235l-3.75 3.5h7.313Zm0 0"/><path id="c" d="m4.234 0 6.422-7.375h-.125q-.844.505-1.39.61-.533.11-.953.109-1.641.001-3.047-.625a7.5 7.5 0 0 1-2.407-1.735 8.1 8.1 0 0 1-1.578-2.562 8.7 8.7 0 0 1-.562-3.156q0-1.796.656-3.344a8 8 0 0 1 1.906-2.703q1.247-1.155 3.016-1.813 1.78-.656 4-.656 2.248 0 4.015.656c1.176.438 2.18 1.04 3.016 1.797a7.8 7.8 0 0 1 1.906 2.656 8.1 8.1 0 0 1 .657 3.235c0 1.281-.29 2.668-.86 4.156q-.844 2.236-2.61 4.39L11.047 0Zm9.72-14.844a3.4 3.4 0 0 0-.313-1.453 3.7 3.7 0 0 0-.813-1.187 3.607 3.607 0 0 0-2.625-1.11c-.523 0-1.012.102-1.469.297q-.672.299-1.187.813-.504.503-.797 1.187-.298.675-.297 1.453 0 .786.297 1.453.292.673.797 1.188a4.2 4.2 0 0 0 1.187.812q.685.299 1.47.297.779.002 1.452-.297a4 4 0 0 0 1.172-.812q.514-.514.813-1.188.311-.668.312-1.453m0 0"/></defs><path fill="#C6035D" d="M74.996 37.5c0-20.71-16.789-37.5-37.5-37.5s-37.5 16.79-37.5 37.5S16.786 75 37.496 75s37.5-16.79 37.5-37.5m0 0"/><path fill="#FFF" d="M65.996 37.5c0-15.742-12.758-28.5-28.5-28.5-15.738 0-28.5 12.758-28.5 28.5S21.758 66 37.496 66c15.742 0 28.5-12.758 28.5-28.5m0 0"/><use xlink:href="#a" x="31.227" y="30.995"/><use xlink:href="#b" x="17.097" y="58.625"/><use xlink:href="#c" x="37.497" y="58.625"/></svg>