<svg xmlns="http://www.w3.org/2000/svg" xmlns:xlink="http://www.w3.org/1999/xlink" width="75" height="75"><defs><path id="a" d="M11.172-12.937H6.047v2.78h4.844v3.641H6.047v2.86h5.125V0H1.734v-16.594h9.438Zm0 0"/><path id="b" d="M8.969-13.797c.156.024.289.031.406.031h.281q1.107 0 1.797-.656.703-.669.703-1.719 0-1.013-.656-1.64-.643-.64-1.656-.64c-.719 0-1.305.241-1.75.718q-.657.72-.656 1.86H2.016q.199-1.765.875-3.141.67-1.39 1.718-2.328a7.2 7.2 0 0 1 2.47-1.438q1.404-.499 3.124-.5 1.67 0 3.031.469c.914.312 1.696.758 2.344 1.328a5.5 5.5 0 0 1 1.5 2.062c.352.805.531 1.703.531 2.703q-.001 1.63-.625 2.672c-.406.688-.992 1.282-1.75 1.782q1.745.532 2.72 1.937.983 1.395.983 3.422-.002 1.689-.671 3.063a7 7 0 0 1-1.844 2.375c-.793.656-1.735 1.164-2.828 1.515q-1.629.546-3.578.547c-1.743 0-3.313-.34-4.72-1.016Q3.202-1.404 1.954-3.625a6.5 6.5 0 0 1-.781-1.984 10.8 10.8 0 0 1-.188-2.016h5.829q.06 1.595.921 2.422c.582.555 1.364.828 2.344.828q1.56 0 2.281-.844c.477-.562.72-1.254.72-2.078 0-.976-.294-1.719-.876-2.219q-.862-.75-2.062-.75-.299 0-.578.047-.268.048-.594.11Zm0 0"/><path id="c" d="m16.172-22.625-6.422 7.39h.125q.825-.514 1.375-.609c.363-.07.68-.11.953-.11 1.102 0 2.113.212 3.031.626a7.5 7.5 0 0 1 2.407 1.719 7.9 7.9 0 0 1 1.578 2.578 8.6 8.6 0 0 1 .578 3.14q0 1.799-.656 3.344a7.8 7.8 0 0 1-1.907 2.703c-.836.774-1.84 1.375-3.015 1.813q-1.77.656-3.985.656-2.25 0-4.03-.656-1.769-.655-3.016-1.797A7.9 7.9 0 0 1 1.28-4.484a8 8 0 0 1-.656-3.22q-.001-1.918.86-4.155.855-2.233 2.624-4.407l5.25-6.359ZM6.453-7.765q0 .784.297 1.452.292.674.797 1.188a4.2 4.2 0 0 0 1.187.813q.685.297 1.47.296.779.001 1.452-.296a4 4 0 0 0 1.172-.813q.514-.515.813-1.187.311-.668.312-1.454a3.4 3.4 0 0 0-.312-1.453 3.7 3.7 0 0 0-.813-1.187 3.607 3.607 0 0 0-2.625-1.11c-.523 0-1.012.102-1.469.297q-.672.298-1.187.813-.504.503-.797 1.187-.298.675-.297 1.453m0 0"/></defs><path fill="#C6035D" d="M74.996 37.5c0-20.71-16.789-37.5-37.5-37.5s-37.5 16.79-37.5 37.5S16.786 75 37.496 75s37.5-16.79 37.5-37.5m0 0"/><path fill="#FFF" d="M65.996 37.5c0-15.742-12.758-28.5-28.5-28.5-15.738 0-28.5 12.758-28.5 28.5S21.758 66 37.496 66c15.742 0 28.5-12.758 28.5-28.5m0 0"/><use xlink:href="#a" x="31.227" y="30.995"/><use xlink:href="#b" x="17.097" y="58.31"/><use xlink:href="#c" x="37.497" y="58.31"/></svg>