<svg xmlns="http://www.w3.org/2000/svg" xmlns:xlink="http://www.w3.org/1999/xlink" width="75" height="75"><defs><path id="a" d="M11.172-12.937H6.047v2.78h4.844v3.641H6.047v2.86h5.125V0H1.734v-16.594h9.438Zm0 0"/><path id="b" d="M8.969-13.797c.156.024.289.031.406.031h.281q1.107 0 1.797-.656.703-.669.703-1.719 0-1.013-.656-1.64-.643-.64-1.656-.64c-.719 0-1.305.241-1.75.718q-.657.72-.656 1.86H2.016q.199-1.765.875-3.141.67-1.39 1.718-2.328a7.2 7.2 0 0 1 2.47-1.438q1.404-.499 3.124-.5 1.67 0 3.031.469c.914.312 1.696.758 2.344 1.328a5.5 5.5 0 0 1 1.5 2.062c.352.805.531 1.703.531 2.703q-.001 1.63-.625 2.672c-.406.688-.992 1.282-1.75 1.782q1.745.532 2.72 1.937.983 1.395.983 3.422-.002 1.689-.671 3.063a7 7 0 0 1-1.844 2.375c-.793.656-1.735 1.164-2.828 1.515q-1.629.546-3.578.547c-1.743 0-3.313-.34-4.72-1.016Q3.202-1.404 1.954-3.625a6.5 6.5 0 0 1-.781-1.984 10.8 10.8 0 0 1-.188-2.016h5.829q.06 1.595.921 2.422c.582.555 1.364.828 2.344.828q1.56 0 2.281-.844c.477-.562.72-1.254.72-2.078 0-.976-.294-1.719-.876-2.219q-.862-.75-2.062-.75-.299 0-.578.047-.268.048-.594.11Zm0 0"/><path id="c" d="M7.5-6.844q-.001.58.203 1.094c.145.336.336.625.578.875q.358.375.844.61.498.22 1.078.218c.352 0 .695-.07 1.031-.219q.499-.234.875-.609.374-.374.579-.86.217-.497.218-1.077a2.64 2.64 0 0 0-.797-1.938 2.6 2.6 0 0 0-1.906-.797q-1.142 0-1.922.797A2.62 2.62 0 0 0 7.5-6.844m.203-10.015q-.001 1.049.719 1.78a2.41 2.41 0 0 0 1.781.735q.528.001.985-.203.452-.217.78-.562.33-.341.516-.782c.133-.3.204-.613.204-.937 0-.676-.243-1.258-.72-1.75a2.38 2.38 0 0 0-1.765-.735c-.7 0-1.293.243-1.781.72a2.36 2.36 0 0 0-.719 1.734m-1.672 4.922q-3.549-1.467-3.547-4.985 0-1.434.563-2.594A6.1 6.1 0 0 1 4.625-21.5q1.013-.841 2.438-1.297 1.418-.451 3.14-.453 1.7 0 3.125.453 1.436.456 2.438 1.297a6 6 0 0 1 1.562 1.984q.576 1.16.578 2.594c0 .606-.062 1.14-.187 1.61q-.175.703-.61 1.296c-.28.387-.664.75-1.14 1.094-.469.336-1.055.664-1.75.985q4.624 1.798 4.625 5.812a5.6 5.6 0 0 1-.657 2.672 6.5 6.5 0 0 1-1.796 2.14Q15.23-.42 13.656.079q-1.565.516-3.453.516-1.829-.001-3.406-.5c-1.055-.32-1.969-.781-2.75-1.375a6.6 6.6 0 0 1-1.828-2.14 5.66 5.66 0 0 1-.656-2.704q-.001-4.107 4.468-5.812m0 0"/></defs><path fill="#C6035D" d="M74.996 37.5c0-20.71-16.789-37.5-37.5-37.5s-37.5 16.79-37.5 37.5S16.786 75 37.496 75s37.5-16.79 37.5-37.5m0 0"/><path fill="#FFF" d="M65.996 37.5c0-15.742-12.758-28.5-28.5-28.5-15.738 0-28.5 12.758-28.5 28.5S21.758 66 37.496 66c15.742 0 28.5-12.758 28.5-28.5m0 0"/><use xlink:href="#a" x="31.227" y="30.995"/><use xlink:href="#b" x="17.097" y="58.31"/><use xlink:href="#c" x="37.497" y="58.31"/></svg>