<?xml version="1.0" encoding="UTF-8"?>
<svg width="70" height="30" version="1.1" xml:space="preserve" xmlns="http://www.w3.org/2000/svg" xmlns:xlink="http://www.w3.org/1999/xlink"><defs><clipPath id="b"><path d="M.46.129h30.08V17H.46Zm0 0"/></clipPath><clipPath id="a"><path d="M0 0h31v18H0z"/></clipPath><clipPath id="d"><path d="m2 0.621h18v25h-18z"/></clipPath><clipPath id="e"><path d="m21 1h12v24.621h-12z"/></clipPath><clipPath id="c"><path d="M0 0h39v26H0z"/></clipPath><clipPath id="f"><path d="M0 0h75v75H0z"/></clipPath><g clip-path="url(#a)"/><g id="h" clip-path="url(#c)"/></defs><path d="m50 20s-4.794 0.069-9.736-2.402-10.264-8.431-10.264-17.598h10c0 5.833 2.179 7.374 4.736 8.652 2.558 1.28 5.264 1.348 5.264 1.348h10v10z" fill="#4799d9" style="paint-order:fill markers stroke"/><path d="m50 10s-4.794-0.069-9.736 2.402-10.264 8.431-10.264 17.598h10c0-5.833 2.179-7.374 4.736-8.652 2.558-1.28 5.264-1.348 5.264-1.348h10v-10z" fill="#4799d9" style="paint-order:fill markers stroke"/><circle cx="60" cy="15" r="6" fill="#fff" stroke="#4799d9" stroke-width="2" style="paint-order:fill markers stroke"/></svg>
