<?xml version="1.0" encoding="UTF-8"?>
<svg width="70" height="30" version="1.1" xml:space="preserve" xmlns="http://www.w3.org/2000/svg" xmlns:xlink="http://www.w3.org/1999/xlink"><defs><clipPath id="b"><path d="M.46.129h30.08V17H.46Zm0 0"/></clipPath><clipPath id="a"><path d="M0 0h31v18H0z"/></clipPath><clipPath id="d"><path d="m2 0.621h18v25h-18z"/></clipPath><clipPath id="e"><path d="m21 1h12v24.621h-12z"/></clipPath><clipPath id="c"><path d="M0 0h39v26H0z"/></clipPath><clipPath id="f"><path d="M0 0h75v75H0z"/></clipPath><g clip-path="url(#a)"/><g id="h" clip-path="url(#c)"/><clipPath><path d="m3 0.129h25v17h-25z"/></clipPath><clipPath id="a-2"><path d="M0 0h31v18H0z"/></clipPath><clipPath><path d="m2 0.621h18v25h-18z"/></clipPath><clipPath><path d="m21 1h12v24.621h-12z"/></clipPath><clipPath id="c-1"><path d="M0 0h39v26H0z"/></clipPath><clipPath><path d="M0 0h75v75H0z"/></clipPath><g clip-path="url(#a-2)"/><g clip-path="url(#c-1)"/><clipPath><path d="M0 0h31v18H0z"/></clipPath><clipPath><path d="M0 0h41v26H0z"/></clipPath></defs><rect x="30" width="10" height="30" fill="#3766b3" stroke-width="1.4142" style="paint-order:fill markers stroke"/><path d="m5.96 5s4.79-0.069 9.74 2.4c4.94 2.47 10.3 8.43 10.3 17.6v5h-10v-5c0-5.83-2.18-7.37-4.74-8.65s-5.26-1.35-5.26-1.35h-6v-10z" fill="#8f76d6" style="paint-order:fill markers stroke"/></svg>
