<?xml version="1.0" encoding="UTF-8"?>
<svg width="70" height="30" version="1.1" xml:space="preserve" xmlns="http://www.w3.org/2000/svg" xmlns:xlink="http://www.w3.org/1999/xlink"><defs><clipPath id="b"><path d="M.46.129h30.08V17H.46Zm0 0"/></clipPath><clipPath id="a"><path d="M0 0h31v18H0z"/></clipPath><clipPath id="d"><path d="m2 0.621h18v25h-18z"/></clipPath><clipPath id="e"><path d="m21 1h12v24.621h-12z"/></clipPath><clipPath id="c"><path d="M0 0h39v26H0z"/></clipPath><clipPath id="f"><path d="M0 0h75v75H0z"/></clipPath><g clip-path="url(#a)"/><g id="h" clip-path="url(#c)"/><clipPath><path d="m3 0.129h25v17h-25z"/></clipPath><clipPath id="a-2"><path d="M0 0h31v18H0z"/></clipPath><clipPath><path d="m2 0.621h18v25h-18z"/></clipPath><clipPath><path d="m21 1h12v24.621h-12z"/></clipPath><clipPath id="c-1"><path d="M0 0h39v26H0z"/></clipPath><clipPath><path d="M0 0h75v75H0z"/></clipPath><g clip-path="url(#a-2)"/><g clip-path="url(#c-1)"/><clipPath><path d="M0 0h31v18H0z"/></clipPath><clipPath><path d="M0 0h41v26H0z"/></clipPath><clipPath><path d="M5 .129h21V17H5Zm0 0"/></clipPath><clipPath id="a-4"><path d="M0 0h31v18H0z"/></clipPath><clipPath><path d="m2 0.621h18v25h-18z"/></clipPath><clipPath><path d="m21 1h12v24.621h-12z"/></clipPath><clipPath id="c-5"><path d="M0 0h39v26H0z"/></clipPath><clipPath><path d="M0 0h75v75H0z"/></clipPath><g clip-path="url(#a-4)"/><g clip-path="url(#c-5)"/><clipPath><path d="M1 .129h29V17H1Zm0 0"/></clipPath><clipPath id="a-6"><path d="M0 0h31v18H0z"/></clipPath><clipPath><path d="m2 0.621h18v25h-18z"/></clipPath><clipPath><path d="m21 1h12v24.621h-12z"/></clipPath><clipPath id="c-4"><path d="M0 0h39v26H0z"/></clipPath><clipPath><path d="M0 0h75v75H0z"/></clipPath><g clip-path="url(#a-6)"/><g clip-path="url(#c-4)"/><clipPath><path d="M1 .129h29V17H1Zm0 0"/></clipPath><clipPath id="a-649"><path d="M0 0h31v18H0z"/></clipPath><clipPath><path d="m2 0.621h18v25h-18z"/></clipPath><clipPath><path d="m21 1h12v24.621h-12z"/></clipPath><clipPath id="c-8"><path d="M0 0h39v26H0z"/></clipPath><clipPath><path d="M0 0h75v75H0z"/></clipPath><g clip-path="url(#a-649)"/><g clip-path="url(#c-8)"/><clipPath><path d="M5 .129h21V17H5Zm0 0"/></clipPath><clipPath id="a-61"><path d="M0 0h31v18H0z"/></clipPath><clipPath><path d="m2 0.621h18v25h-18z"/></clipPath><clipPath><path d="m21 0.621h16v25h-16z"/></clipPath><clipPath id="c-59"><path d="M0 0h39v26H0z"/></clipPath><clipPath><path d="M0 0h75v75H0z"/></clipPath><g clip-path="url(#a-61)"/><g clip-path="url(#c-59)"/><clipPath><path d="M0 0h31v18H0z"/></clipPath><clipPath><path d="M0 0h39v26H0z"/></clipPath><clipPath><path d="M0 0h31v18H0z"/></clipPath><clipPath><path d="M0 0h39v26H0z"/></clipPath></defs><path d="m30 0h10v30h-10z" fill="#e8871e" style="paint-order:fill markers stroke"/><path d="m50.04 25s-4.79 0.069-9.74-2.4c-4.94-2.47-10.3-8.43-10.3-17.6v-5h10v5c0 5.83 2.18 7.37 4.74 8.65s5.26 1.35 5.26 1.35h20v10z" fill="#e8871e" style="paint-order:fill markers stroke"/></svg>
