<?xml version="1.0" encoding="UTF-8" standalone="no"?>
<!-- Created with Inkscape (http://www.inkscape.org/) -->

<svg
   width="15pt"
   height="15pt"
   viewBox="0 0 15 15"
   version="1.1"
   id="svg1"
   inkscape:version="1.3.2 (1:1.3.2+202311252150+091e20ef0f)"
   sodipodi:docname="correct.svg"
   xmlns:inkscape="http://www.inkscape.org/namespaces/inkscape"
   xmlns:sodipodi="http://sodipodi.sourceforge.net/DTD/sodipodi-0.dtd"
   xmlns="http://www.w3.org/2000/svg"
   xmlns:svg="http://www.w3.org/2000/svg">
  <sodipodi:namedview
     id="namedview1"
     pagecolor="#ffffff"
     bordercolor="#111111"
     borderopacity="1"
     inkscape:showpageshadow="0"
     inkscape:pageopacity="0"
     inkscape:pagecheckerboard="1"
     inkscape:deskcolor="#d1d1d1"
     inkscape:document-units="px"
     inkscape:zoom="8"
     inkscape:cx="10.875"
     inkscape:cy="-1.375"
     inkscape:window-width="1280"
     inkscape:window-height="736"
     inkscape:window-x="0"
     inkscape:window-y="27"
     inkscape:window-maximized="1"
     inkscape:current-layer="layer1" />
  <defs
     id="defs1" />
  <g
     inkscape:label="Layer 1"
     inkscape:groupmode="layer"
     id="layer1">
    <path
       style="fill:#ff0000;fill-rule:evenodd;stroke:#ffffff;stroke-width:0.00387618;paint-order:markers stroke fill"
       d="M 10.278458,10.107503 C 9.3808684,10.83307 8.1981075,11.803547 5.8003185,11.803547 1.5186044,11.803547 0,8.6847381 0,7.0736553 0,2.8790647 3.6432488,0 7.8707912,0 12.117254,0 15,2.3473236 15,5.810524 c 0,6.502142 -5.8290966,8.297308 -7.5845581,8.934464 1.6485754,-0.940872 7.1088601,-2.873069 7.1088601,-8.9344639 0,-3.1905906 -2.690528,-5.33482673 -6.6535106,-5.33482673 -3.7650623,0 -7.395094,2.54837343 -7.395094,6.59795773 0,1.5478565 1.5113253,4.2541949 5.3246213,4.2541949 2.7803685,0 3.423779,-0.800137 4.4781393,-1.220347 z"
       id="path341"
       sodipodi:nodetypes="csssscssssc" />
  </g>
</svg>
