<svg xmlns="http://www.w3.org/2000/svg" xmlns:xlink="http://www.w3.org/1999/xlink" width="75" height="75"><defs><clipPath id="b"><path d="M5 .625h9v18.75H5Zm0 0"/></clipPath><clipPath id="c"><path d="M15 .625h15v18.75H15Zm0 0"/></clipPath><clipPath id="a"><path d="M0 0h35v20H0z"/></clipPath><clipPath id="e"><path d="M1 .762h19v26.875H1Zm0 0"/></clipPath><clipPath id="f"><path d="M22 .762h18v26.875H22Zm0 0"/></clipPath><clipPath id="d"><path d="M0 0h41v28H0z"/></clipPath><clipPath id="g"><path d="M0 0h75v75H0z"/></clipPath><g id="h" clip-path="url(#a)"><g clip-path="url(#b)"><path d="M5.688 15.86c.55.214 1.14.32 1.73.308 2.34 0 2.34-1.887 2.34-3.195V.926h3.613v13.82c0 1.926-1.23 4.617-4.953 4.617a9.8 9.8 0 0 1-2.77-.343v-3.16Zm0 0"/></g><g clip-path="url(#c)"><path d="M24.164 19.02h-3.61V3.77h-5.187V.926h13.985V3.77h-5.188Zm0 0"/></g></g><g id="i" clip-path="url(#d)"><g clip-path="url(#e)"><path d="M1.258 14.273C1.258 7.762 3.227.762 10.266.762c7.593 0 9.082 7.48 9.082 13.511 0 6.032-1.567 13.364-9.082 13.364-8.004 0-9.008-7.926-9.008-13.364m12.879 0c0-3.347 0-9.644-3.871-9.644-3.801 0-3.801 6.297-3.801 9.644 0 3.278-.031 9.493 3.8 9.493 3.907 0 3.872-6.215 3.872-9.493m0 0"/></g><g clip-path="url(#f)"><path d="M37.77 5.898c-1.375-.597-2.793-1.043-4.54-1.043-4.507 0-6.03 4.168-6.18 8.04l.071.074c1.234-1.785 2.832-2.606 5.027-2.606 4.918 0 7.598 3.13 7.598 7.934 0 5.617-2.754 9.34-8.637 9.34-7.222 0-8.824-5.992-8.824-12.098 0-7.035 2.27-14.777 10.684-14.777 1.902 0 3.683.297 5.472.93zM27.5 19.152c0 2.453 1.04 4.614 3.61 4.614 2.421 0 3.421-2.348 3.421-4.653 0-2.535-1.039-4.879-3.535-4.879-2.535 0-3.496 2.309-3.496 4.918m0 0"/></g></g><g id="j" clip-path="url(#g)"><path fill="#FF9844" d="M0 68.5v-62A6.5 6.5 0 0 1 6.5 0h62A6.5 6.5 0 0 1 75 6.5v62a6.5 6.5 0 0 1-6.5 6.5h-62A6.5 6.5 0 0 1 0 68.5m0 0"/><path fill="#FFF" d="M7.5 67.5v-60h60v60Zm0 0"/><use xlink:href="#h" transform="translate(20 10)"/><use xlink:href="#i" transform="translate(17 33)"/></g></defs><use xlink:href="#j"/></svg>