<svg xmlns="http://www.w3.org/2000/svg" xmlns:xlink="http://www.w3.org/1999/xlink" width="75" height="75"><defs><clipPath id="b"><path d="M5 .625h9v18.75H5Zm0 0"/></clipPath><clipPath id="c"><path d="M15 .625h15v18.75H15Zm0 0"/></clipPath><clipPath id="a"><path d="M0 0h35v20H0z"/></clipPath><clipPath id="e"><path d="M1 1h14v26.637H1Zm0 0"/></clipPath><clipPath id="f"><path d="M20 .762h20v26.875H20Zm0 0"/></clipPath><clipPath id="d"><path d="M0 0h41v28H0z"/></clipPath><clipPath id="g"><path d="M0 0h75v75H0z"/></clipPath><g id="h" clip-path="url(#a)"><g clip-path="url(#b)"><path d="M5.688 15.86c.55.214 1.14.32 1.73.308 2.34 0 2.34-1.887 2.34-3.195V.926h3.613v13.82c0 1.926-1.23 4.617-4.953 4.617a9.8 9.8 0 0 1-2.77-.343v-3.16Zm0 0"/></g><g clip-path="url(#c)"><path d="M24.164 19.02h-3.61V3.77h-5.187V.926h13.985V3.77h-5.188Zm0 0"/></g></g><g id="i" clip-path="url(#d)"><g clip-path="url(#e)"><path d="M9.52 1.21h4.617v25.981H8.926V7.125l-4.39 3.574-2.61-3.383z"/></g><g clip-path="url(#f)"><path d="M20.98 14.273c0-6.511 1.973-13.511 9.012-13.511 7.594 0 9.082 7.484 9.082 13.511 0 6.032-1.562 13.364-9.082 13.364-8.004 0-9.012-7.926-9.012-13.364m12.88 0c0-3.347 0-9.64-3.868-9.64-3.797 0-3.797 6.293-3.797 9.64 0 3.278-.039 9.493 3.797 9.493 3.906 0 3.867-6.215 3.867-9.493m0 0"/></g></g><g id="j" clip-path="url(#g)"><path fill="#FF9844" d="M0 68.5v-62A6.5 6.5 0 0 1 6.5 0h62A6.5 6.5 0 0 1 75 6.5v62a6.5 6.5 0 0 1-6.5 6.5h-62A6.5 6.5 0 0 1 0 68.5m0 0"/><path fill="#FFF" d="M7.5 67.5v-60h60v60Zm0 0"/><use xlink:href="#h" transform="translate(20 10)"/><use xlink:href="#i" transform="translate(17 33)"/></g></defs><use xlink:href="#j"/></svg>