<svg xmlns="http://www.w3.org/2000/svg" xmlns:xlink="http://www.w3.org/1999/xlink" width="75" height="75"><defs><clipPath id="b"><path d="M4 .625h8v18.75H4Zm0 0"/></clipPath><clipPath id="c"><path d="M14 .625h17v18.75H14Zm0 0"/></clipPath><clipPath id="a"><path d="M0 0h35v20H0z"/></clipPath><clipPath id="e"><path d="M1 .762h20v26.875H1Zm0 0"/></clipPath><clipPath id="f"><path d="M22 .762h18v26.875H22Zm0 0"/></clipPath><clipPath id="d"><path d="M0 0h41v28H0z"/></clipPath><clipPath id="g"><path d="M0 0h75v75H0z"/></clipPath><g id="h" clip-path="url(#a)"><g clip-path="url(#b)"><path d="M4.27 15.86a4.5 4.5 0 0 0 1.726.308c2.344 0 2.344-1.887 2.344-3.195V.926h3.648v13.82c0 1.926-1.226 4.617-4.953 4.617a9.7 9.7 0 0 1-2.765-.343Zm0 0"/></g><g clip-path="url(#c)"><path d="M20.668 11.895 14.063.925h4.222l4.266 7.622L26.93.926h3.8l-6.453 10.969v7.125h-3.609Zm0 0"/></g></g><g id="i" clip-path="url(#d)"><g clip-path="url(#e)"><path d="M1.965 14.273C1.965 7.762 3.938.762 10.973.762c7.593 0 9.082 7.48 9.082 13.511 0 6.032-1.563 13.364-9.082 13.364-8 0-9.008-7.926-9.008-13.364m12.879 0c0-3.347 0-9.644-3.871-9.644-3.797 0-3.797 6.297-3.797 9.644 0 3.278-.04 9.493 3.797 9.493 3.91 0 3.87-6.215 3.87-9.493m0 0"/></g><g clip-path="url(#f)"><path d="M22.582 22.352c1.79.707 3.727 1.191 5.773 1.191 2.157 0 5.473-1.043 5.473-3.684 0-3.054-2.422-4.058-5.734-4.058h-2.535v-4.094h2.386c3.496 0 5.77-1.156 5.77-3.43 0-2.601-2.121-3.422-4.473-3.422-2.043 0-4.015.485-5.84 1.375l-.297-4.167c2.086-.82 4.579-1.301 7.258-1.301 3.2 0 8.563 1.113 8.563 6.664 0 3.535-2.196 5.207-4.84 6.219v.07c3.316.45 4.95 3.015 4.95 6.18 0 6.175-5.622 7.742-9.938 7.742-2.27 0-4.875-.297-6.813-.856z"/></g></g><g id="j" clip-path="url(#g)"><path fill="#85C024" d="M0 68.5v-62A6.5 6.5 0 0 1 6.5 0h62A6.5 6.5 0 0 1 75 6.5v62a6.5 6.5 0 0 1-6.5 6.5h-62A6.5 6.5 0 0 1 0 68.5m0 0"/><path fill="#FFF" d="M7.5 67.5v-60h60v60Zm0 0"/><use xlink:href="#h" transform="translate(20 10)"/><use xlink:href="#i" transform="translate(17 33)"/></g></defs><use xlink:href="#j"/></svg>