<svg xmlns="http://www.w3.org/2000/svg" xmlns:xlink="http://www.w3.org/1999/xlink" width="75" height="75"><defs><clipPath id="b"><path d="M4 .625h8v18.75H4Zm0 0"/></clipPath><clipPath id="c"><path d="M14 .625h17v18.75H14Zm0 0"/></clipPath><clipPath id="a"><path d="M0 0h35v20H0z"/></clipPath><clipPath id="e"><path d="M3 1h13v26.637H3Zm0 0"/></clipPath><clipPath id="f"><path d="M23 1h13v26.637H23Zm0 0"/></clipPath><clipPath id="d"><path d="M0 0h41v28H0z"/></clipPath><clipPath id="g"><path d="M0 0h75v75H0z"/></clipPath><g id="h" clip-path="url(#a)"><g clip-path="url(#b)"><path d="M4.27 15.86a4.5 4.5 0 0 0 1.726.308c2.344 0 2.344-1.887 2.344-3.195V.926h3.648v13.82c0 1.926-1.226 4.617-4.953 4.617a9.7 9.7 0 0 1-2.765-.343Zm0 0"/></g><g clip-path="url(#c)"><path d="M20.668 11.895 14.063.925h4.222l4.266 7.622L26.93.926h3.8l-6.453 10.969v7.125h-3.609Zm0 0"/></g></g><g id="i" clip-path="url(#d)"><g clip-path="url(#e)"><path fill="#1A1A1A" d="M10.645 1.21h4.554v25.981h-5.144V7.125l-4.332 3.57-2.57-3.383z"/></g><g clip-path="url(#f)"><path fill="#1A1A1A" d="M30.695 1.21h4.555v25.981h-5.145V7.125l-4.335 3.57-2.567-3.383z"/></g></g><g id="j" clip-path="url(#g)"><path fill="#85C024" d="M0 68.5v-62A6.5 6.5 0 0 1 6.5 0h62A6.5 6.5 0 0 1 75 6.5v62a6.5 6.5 0 0 1-6.5 6.5h-62A6.5 6.5 0 0 1 0 68.5m0 0"/><path fill="#FFF" d="M7.5 67.5v-60h60v60Zm0 0"/><use xlink:href="#h" transform="translate(20 10)"/><use xlink:href="#i" transform="translate(17 33)"/></g></defs><use xlink:href="#j"/></svg>