<svg xmlns="http://www.w3.org/2000/svg" xmlns:xlink="http://www.w3.org/1999/xlink" width="75" height="75"><defs><clipPath id="b"><path d="M4 .625h8v18.75H4Zm0 0"/></clipPath><clipPath id="c"><path d="M14 .625h17v18.75H14Zm0 0"/></clipPath><clipPath id="a"><path d="M0 0h35v20H0z"/></clipPath><clipPath id="e"><path d="M1 .762h19v26.875H1Zm0 0"/></clipPath><clipPath id="f"><path d="M21 1h21v26.637H21Zm0 0"/></clipPath><clipPath id="d"><path d="M0 0h43v28H0z"/></clipPath><clipPath id="g"><path d="M0 0h75v75H0z"/></clipPath><g id="h" clip-path="url(#a)"><g clip-path="url(#b)"><path d="M4.27 15.86a4.5 4.5 0 0 0 1.726.308c2.344 0 2.344-1.887 2.344-3.195V.926h3.648v13.82c0 1.926-1.226 4.617-4.953 4.617a9.7 9.7 0 0 1-2.765-.343Zm0 0"/></g><g clip-path="url(#c)"><path d="M20.668 11.895 14.063.925h4.222l4.266 7.622L26.93.926h3.8l-6.453 10.969v7.125h-3.609Zm0 0"/></g></g><g id="i" clip-path="url(#d)"><g clip-path="url(#e)"><path d="M1.871 27.414V23.06C4.29 20.71 13.11 13.344 13.11 8.582c0-2.387-2.117-3.5-4.242-3.5-2.195 0-4.281.965-5.992 2.082l-.41-4.316C4.809 1.652 7.527.984 10.168.984c4.95 0 8.152 2.496 8.152 7.598 0 5.504-5.543 10.566-9.789 14.734h10.61v4.098z"/></g><g clip-path="url(#f)"><path d="m21.629 17.813 9.715-16.38h6.476v16.712h3.313v3.867H37.82v5.402h-4.988v-5.402H21.629zm11.203.333V6.867h-.07L26.32 18.145Zm0 0"/></g></g><g id="j" clip-path="url(#g)"><path fill="#85C024" d="M0 68.5v-62A6.5 6.5 0 0 1 6.5 0h62A6.5 6.5 0 0 1 75 6.5v62a6.5 6.5 0 0 1-6.5 6.5h-62A6.5 6.5 0 0 1 0 68.5m0 0"/><path fill="#FFF" d="M7.5 67.5v-60h60v60Zm0 0"/><use xlink:href="#h" transform="translate(20 10)"/><use xlink:href="#i" transform="translate(16 33)"/></g></defs><use xlink:href="#j"/></svg>