<svg xmlns="http://www.w3.org/2000/svg" xml:space="preserve" id="レイヤー_1" x="0" y="0" style="enable-background:new 0 0 75 75" version="1.0" viewBox="0 0 75 75"><style>.st1{fill:#f7f8f8}</style><path d="M0 .59h75v75H0z" style="fill:#447242"/><path d="M3.82 27.63h67.36v44.39H3.82z" class="st1"/><path d="M13.15-.59h48.69v31H13.15z" style="fill:none"/><path d="M20.34 14.32c0-6.47 4.74-10.61 11.03-10.61 1.79 0 3.31.15 5.04.75l-.3 3.61c-1.49-.69-2.8-.95-4.41-.95-4.14 0-6.89 2.5-6.89 7.1 0 4.62 3.04 7.25 6.95 7.25 1.52 0 2.95-.18 4.59-.81l.15 3.61c-1.31.45-3.07.69-4.86.69-6.7-.03-11.3-3.96-11.3-10.64zM39.9 3.91h6.38C50.93 3.91 54 5.4 54 9.25c0 2.39-1.43 4.17-4.32 4.77v.06c3.04.39 4.86 2.21 4.86 4.95 0 4.32-4.05 5.69-8.17 5.69H39.9V3.91zm5.16 8.77c2.86 0 4.83-.48 4.83-2.86 0-2.3-2-2.8-4.41-2.8h-1.52v5.67h1.1zm.27 8.91c3.4 0 5.01-.86 5.01-3.04 0-2.12-1.67-2.95-5.22-2.95h-1.16v5.99h1.37z" class="st1"/><path d="M6.92 50.58c0-13.75 4.58-20.26 14.46-20.26 9.11 0 13.75 6.62 13.75 19.82 0 12.48-4.08 20.04-14.02 20.04-9.94-.01-14.19-7.46-14.19-19.6zm20.48-.28c0-9.55-2.26-14.3-6.35-14.3s-6.35 4.69-6.35 13.91c0 9.72 2.26 14.57 6.4 14.57 4.03.01 6.3-4.85 6.3-14.18zM58.87 37.11H40.15v-6.13h26.61v6.35L52.68 69.51h-8.56l14.75-32.4z"/></svg>