<svg xmlns="http://www.w3.org/2000/svg" width="75" height="75" fill="none" viewBox="0 0 24 24"><g clip-path="url(#a)"><path fill="#fff" d="M19.2 0H4.8A4.8 4.8 0 0 0 0 4.8v14.4A4.8 4.8 0 0 0 4.8 24h14.4a4.8 4.8 0 0 0 4.8-4.8V4.8A4.8 4.8 0 0 0 19.2 0Z"/><path fill="#F18C43" d="M19.192 23.399H4.8a4.233 4.233 0 0 1-4.233-4.233V4.775A4.233 4.233 0 0 1 4.8.542h14.392a4.233 4.233 0 0 1 4.232 4.233v14.391a4.233 4.233 0 0 1-4.232 4.233Z"/><path fill="#fff" d="M11.285 5.934c0 1.981-1.177 3.167-2.946 3.167a2.802 2.802 0 0 1-2.82-3.065 2.912 2.912 0 0 1 2.921-3.14 2.794 2.794 0 0 1 2.845 3.038Zm-4.335.077c0 1.185.559 2.006 1.465 2.006s1.439-.847 1.439-2.032-.508-2.015-1.44-2.015c-.93 0-1.464.847-1.464 2.04ZM16.982 6.705c0-.72-.05-1.592-.05-2.464a39.601 39.601 0 0 1-.678 2.32l-.728 2.345h-1.058l-.644-2.32a34.14 34.14 0 0 1-.541-2.345c0 .847-.068 1.736-.102 2.48L13.062 9H11.81l.38-5.994h1.812l.584 1.998c.195.694.373 1.44.508 2.142.161-.694.364-1.482.576-2.15l.626-1.99h1.787L18.404 9h-1.32l-.102-2.294ZM11.623 16.16c0 2.854-1.16 4.843-3.521 4.843-2.362 0-3.454-2.159-3.471-4.791-.017-2.633 1.134-4.809 3.53-4.809s3.462 2.21 3.462 4.758Zm-4.817.052c0 2.133.517 3.149 1.338 3.149.821 0 1.304-1.058 1.304-3.175 0-2.116-.44-3.14-1.313-3.14-.872 0-1.329.998-1.329 3.166ZM12.546 20.842V19.53l1.185-1.075c2.04-1.828 3.03-2.87 3.04-3.953 0-.762-.44-1.355-1.516-1.355-.723.037-1.416.3-1.98.753l-.619-1.54a5.079 5.079 0 0 1 3.03-.957c2.117 0 3.26 1.228 3.26 2.895 0 1.668-1.117 2.82-2.472 4.013l-.847.72h3.514v1.786l-6.595.025Z"/></g><defs><clipPath id="a"><path fill="#fff" d="M0 0h75v75H0z"/></clipPath></defs></svg>