<svg xmlns="http://www.w3.org/2000/svg" width="75" height="75" fill="none" viewBox="0 0 24 24"><g clip-path="url(#a)"><path fill="#fff" d="M19.2 0H4.8A4.8 4.8 0 0 0 0 4.8v14.4A4.8 4.8 0 0 0 4.8 24h14.4a4.8 4.8 0 0 0 4.8-4.8V4.8A4.8 4.8 0 0 0 19.2 0Z"/><path fill="#F18C43" d="M19.192 23.399H4.8a4.233 4.233 0 0 1-4.233-4.233V4.775A4.233 4.233 0 0 1 4.8.542h14.392a4.233 4.233 0 0 1 4.232 4.233v14.391a4.233 4.233 0 0 1-4.232 4.233Z"/><path fill="#fff" d="M11.285 5.943c0 1.972-1.177 3.158-2.946 3.158a2.802 2.802 0 0 1-2.82-3.065 2.912 2.912 0 0 1 2.921-3.14 2.794 2.794 0 0 1 2.845 3.047ZM6.95 6.01c0 1.185.559 2.014 1.465 2.014s1.439-.846 1.439-2.04c0-1.193-.508-2.015-1.44-2.015-.93 0-1.464.847-1.464 2.04ZM16.982 6.705c0-.72-.05-1.592-.05-2.464a39.598 39.598 0 0 1-.678 2.32l-.728 2.345h-1.058l-.644-2.32a34.139 34.139 0 0 1-.541-2.345c0 .805-.068 1.693-.102 2.48L13.062 9H11.81l.38-5.994h1.812l.584 1.998c.195.694.373 1.44.508 2.142.161-.686.364-1.481.576-2.15l.626-1.99h1.787L18.404 9h-1.32l-.102-2.294ZM11.623 16.16c0 2.854-1.16 4.843-3.521 4.843-2.362 0-3.454-2.159-3.471-4.791-.017-2.633 1.134-4.809 3.53-4.809s3.462 2.21 3.462 4.758Zm-4.817.052c0 2.133.517 3.149 1.338 3.149.821 0 1.304-1.058 1.304-3.175 0-2.116-.44-3.14-1.313-3.14-.872 0-1.329.998-1.329 3.166ZM12.919 18.718c.664.35 1.4.544 2.15.567 1.134 0 1.693-.542 1.693-1.228 0-.931-.914-1.346-1.871-1.346h-.847v-1.55h.847c.728 0 1.642-.287 1.642-1.074 0-.559-.44-.974-1.371-.974a4.115 4.115 0 0 0-1.93.559l-.44-1.575a5.782 5.782 0 0 1 2.87-.694c1.972 0 3.072 1.041 3.072 2.311a2.218 2.218 0 0 1-1.693 2.159 2.31 2.31 0 0 1 2.015 2.277c0 1.626-1.448 2.828-3.801 2.828a5.638 5.638 0 0 1-2.76-.644l.424-1.616Z"/></g><defs><clipPath id="a"><path fill="#fff" d="M0 0h75v75H0z"/></clipPath></defs></svg>