<svg xmlns="http://www.w3.org/2000/svg" width="75" height="75" fill="none" viewBox="0 0 24 24"><g clip-path="url(#a)"><path fill="#fff" d="M19.2 0H4.8A4.8 4.8 0 0 0 0 4.8v14.4A4.8 4.8 0 0 0 4.8 24h14.4a4.8 4.8 0 0 0 4.8-4.8V4.8A4.8 4.8 0 0 0 19.2 0Z"/><path fill="#F18C43" d="M19.192 23.424H4.8a4.233 4.233 0 0 1-4.233-4.232V4.8A4.233 4.233 0 0 1 4.8.567h14.392A4.233 4.233 0 0 1 23.424 4.8v14.392a4.233 4.233 0 0 1-4.232 4.232Z"/><path fill="#fff" d="M11.285 5.943c0 1.972-1.177 3.158-2.946 3.158a2.802 2.802 0 0 1-2.82-3.065 2.912 2.912 0 0 1 2.921-3.14 2.794 2.794 0 0 1 2.845 3.047ZM6.95 6.01c0 1.185.559 2.014 1.465 2.014s1.439-.846 1.439-2.04c0-1.193-.508-2.015-1.44-2.015-.93 0-1.464.847-1.464 2.04ZM16.982 6.705c0-.72-.05-1.592-.05-2.464a39.603 39.603 0 0 1-.678 2.32l-.728 2.345h-1.058l-.644-2.32a34.14 34.14 0 0 1-.541-2.345c0 .847-.068 1.736-.102 2.48L13.062 9H11.81l.38-5.994h1.812l.584 1.998c.195.694.373 1.44.508 2.142.161-.686.364-1.481.576-2.15l.626-1.99h1.787l.313 6.028h-1.32l-.094-2.328ZM11.623 16.16c0 2.854-1.16 4.843-3.521 4.843-2.362 0-3.454-2.158-3.471-4.791-.017-2.633 1.134-4.809 3.53-4.809s3.462 2.21 3.462 4.758Zm-4.817.052c0 2.133.517 3.149 1.338 3.149.821 0 1.304-1.058 1.304-3.175 0-2.116-.44-3.14-1.313-3.14-.872 0-1.329.999-1.329 3.166ZM16.372 20.885v-2.21h-4.114v-1.414l3.497-5.663h2.64v5.443h1.101v1.634h-1.1v2.21h-2.024Zm0-3.844V14.96c0-.559 0-1.126.06-1.693-.305.6-.559 1.143-.847 1.693l-1.227 2.032 2.014.05Z"/></g><defs><clipPath id="a"><path fill="#fff" d="M0 0h75v75H0z"/></clipPath></defs></svg>