<svg xmlns="http://www.w3.org/2000/svg" width="75" height="75" fill="none" viewBox="0 0 24 24"><g clip-path="url(#a)"><path fill="#fff" d="M19.2 0H4.8A4.8 4.8 0 0 0 0 4.8v14.4A4.8 4.8 0 0 0 4.8 24h14.4a4.8 4.8 0 0 0 4.8-4.8V4.8A4.8 4.8 0 0 0 19.2 0Z"/><path fill="#F18C43" d="M19.192 23.399H4.8a4.233 4.233 0 0 1-4.233-4.233V4.775A4.233 4.233 0 0 1 4.8.542h14.392a4.233 4.233 0 0 1 4.232 4.233v14.391a4.233 4.233 0 0 1-4.232 4.233Z"/><path fill="#fff" d="M11.285 5.943c0 1.972-1.177 3.158-2.946 3.158a2.802 2.802 0 0 1-2.82-3.065 2.912 2.912 0 0 1 2.921-3.14 2.793 2.793 0 0 1 2.845 3.047ZM6.95 6.01c0 1.185.559 2.014 1.465 2.014s1.439-.846 1.439-2.04c0-1.193-.508-2.015-1.44-2.015-.93 0-1.464.847-1.464 2.04ZM16.982 6.747c0-.72-.05-1.591-.05-2.463a39.598 39.598 0 0 1-.678 2.32l-.728 2.344h-1.058l-.644-2.32a34.139 34.139 0 0 1-.541-2.344c0 .846-.068 1.693-.102 2.48l-.119 2.277H11.81l.38-5.993h1.812l.584 1.997c.195.695.373 1.448.508 2.15.161-.693.364-1.49.576-2.158l.626-1.99h1.787l.321 5.994h-1.32l-.102-2.294ZM11.623 16.16c0 2.854-1.16 4.843-3.521 4.843-2.362 0-3.454-2.159-3.471-4.783-.017-2.624 1.134-4.817 3.53-4.817s3.462 2.21 3.462 4.758Zm-4.817.06c0 2.125.517 3.14 1.338 3.14.821 0 1.304-1.057 1.304-3.174 0-2.116-.44-3.14-1.313-3.14-.872 0-1.329.998-1.329 3.174ZM18.455 13.105a5.92 5.92 0 0 0-.846 0c-1.93.16-2.786 1.143-3.031 2.218a2.692 2.692 0 0 1 1.972-.728 2.811 2.811 0 0 1 2.87 3.022 3.317 3.317 0 0 1-3.386 3.386c-2.489 0-3.7-1.845-3.7-4.055a5.612 5.612 0 0 1 1.694-4.148 5.528 5.528 0 0 1 3.572-1.355 4.45 4.45 0 0 1 .846 0l.009 1.66ZM17.27 17.76a1.42 1.42 0 0 0-1.38-1.6 1.396 1.396 0 0 0-1.278.846 1.184 1.184 0 0 0-.094.56c.043.981.508 1.87 1.507 1.87.762 0 1.245-.703 1.245-1.642"/></g><defs><clipPath id="a"><path fill="#fff" d="M0 0h75v75H0z"/></clipPath></defs></svg>