<svg xmlns="http://www.w3.org/2000/svg" width="75" height="75" fill="none" viewBox="0 0 24 24"><g clip-path="url(#a)"><path fill="#fff" d="M19.2 0H4.8A4.8 4.8 0 0 0 0 4.8v14.4A4.8 4.8 0 0 0 4.8 24h14.4a4.8 4.8 0 0 0 4.8-4.8V4.8A4.8 4.8 0 0 0 19.2 0Z"/><path fill="#F18C43" d="M19.192 23.399H4.8a4.233 4.233 0 0 1-4.233-4.233V4.775A4.233 4.233 0 0 1 4.8.542h14.392a4.233 4.233 0 0 1 4.232 4.233v14.391a4.233 4.233 0 0 1-4.232 4.233Z"/><path fill="#fff" d="M11.285 5.943c0 1.972-1.177 3.158-2.946 3.158a2.802 2.802 0 0 1-2.82-3.065 2.912 2.912 0 0 1 2.921-3.14 2.794 2.794 0 0 1 2.845 3.047ZM6.95 6.01c0 1.185.559 2.014 1.465 2.014s1.439-.846 1.439-2.04c0-1.193-.508-2.015-1.44-2.015-.93 0-1.464.847-1.464 2.04ZM16.982 6.705c0-.72-.05-1.592-.05-2.464a39.598 39.598 0 0 1-.678 2.32l-.728 2.345h-1.058l-.644-2.32a34.139 34.139 0 0 1-.541-2.345c0 .847-.068 1.736-.102 2.48L13.062 9H11.81l.38-5.994h1.812l.584 1.998c.195.694.373 1.448.508 2.15.161-.694.364-1.49.576-2.158l.626-1.99h1.787L18.404 9h-1.32l-.102-2.294ZM11.623 16.186c0 2.853-1.16 4.843-3.521 4.843-2.362 0-3.454-2.16-3.471-4.783-.017-2.625 1.134-4.817 3.53-4.817s3.462 2.218 3.462 4.757Zm-4.817.06c0 2.124.517 3.14 1.338 3.14.821 0 1.304-1.058 1.304-3.174 0-2.117-.44-3.141-1.313-3.141-.872 0-1.329.999-1.329 3.175ZM19.192 11.556v1.371l-3.835 7.915h-2.295l3.827-7.475v-.025H12.63v-1.786h6.56Z"/></g><defs><clipPath id="a"><path fill="#fff" d="M0 0h75v75H0z"/></clipPath></defs></svg>