<svg xmlns="http://www.w3.org/2000/svg" width="75" height="75" fill="none" viewBox="0 0 24 24"><g clip-path="url(#a)"><path fill="#fff" d="M19.2 0H4.8A4.8 4.8 0 0 0 0 4.8v14.4A4.8 4.8 0 0 0 4.8 24h14.4a4.8 4.8 0 0 0 4.8-4.8V4.8A4.8 4.8 0 0 0 19.2 0Z"/><path fill="#F18C43" d="M19.192 23.399H4.8a4.233 4.233 0 0 1-4.233-4.233V4.775A4.233 4.233 0 0 1 4.8.542h14.392a4.233 4.233 0 0 1 4.232 4.233v14.391a4.233 4.233 0 0 1-4.232 4.233Z"/><path fill="#fff" d="M11.285 5.943c0 1.972-1.177 3.158-2.946 3.158a2.802 2.802 0 0 1-2.82-3.065 2.912 2.912 0 0 1 2.921-3.14 2.794 2.794 0 0 1 2.845 3.047ZM6.95 6.01c0 1.185.559 2.014 1.465 2.014s1.439-.846 1.439-2.04c0-1.193-.508-2.015-1.44-2.015-.93 0-1.464.847-1.464 2.04ZM16.982 6.705c0-.72-.05-1.592-.05-2.464a39.6 39.6 0 0 1-.678 2.32l-.728 2.345h-1.058l-.644-2.311c-.194-.72-.39-1.566-.541-2.354 0 .847-.068 1.736-.102 2.48L13.062 9H11.81l.38-5.994h1.812l.584 1.998c.195.694.373 1.448.508 2.15.161-.694.364-1.49.576-2.158l.626-1.99h1.787L18.404 9h-1.32l-.102-2.294ZM11.623 16.16c0 2.854-1.16 4.843-3.521 4.843-2.362 0-3.454-2.158-3.471-4.783-.017-2.624 1.134-4.817 3.53-4.817s3.462 2.218 3.462 4.758Zm-4.817.06c0 2.125.517 3.14 1.338 3.14.821 0 1.304-1.057 1.304-3.174 0-2.116-.44-3.14-1.313-3.14-.872 0-1.329.999-1.329 3.174ZM14.044 16.06a2.295 2.295 0 0 1-1.346-2.04c0-1.575 1.414-2.617 3.277-2.617 2.167 0 3.073 1.253 3.073 2.387a2.26 2.26 0 0 1-1.363 2.04v.043a2.464 2.464 0 0 1 1.693 2.303c0 1.693-1.414 2.827-3.573 2.827-2.362 0-3.445-1.329-3.445-2.59a2.48 2.48 0 0 1 1.693-2.328l-.009-.026Zm3.141 2.285c0-.847-.61-1.304-1.456-1.524a1.405 1.405 0 0 0-1.126 1.38 1.27 1.27 0 0 0 1.312 1.304 1.178 1.178 0 0 0 1.27-1.16Zm-2.43-4.402c0 .635.56 1.033 1.304 1.261a1.27 1.27 0 0 0 .94-1.177 1.066 1.066 0 0 0-1.126-1.15 1.03 1.03 0 0 0-1.117 1.066Z"/></g><defs><clipPath id="a"><path fill="#fff" d="M0 0h75v75H0z"/></clipPath></defs></svg>