<svg xmlns="http://www.w3.org/2000/svg" width="75" height="75" fill="none" viewBox="0 0 24 24"><g clip-path="url(#a)"><path fill="#fff" d="M19.2 0H4.8A4.8 4.8 0 0 0 0 4.8v14.4A4.8 4.8 0 0 0 4.8 24h14.4a4.8 4.8 0 0 0 4.8-4.8V4.8A4.8 4.8 0 0 0 19.2 0Z"/><path fill="#F18C43" d="M19.192 23.399H4.8a4.233 4.233 0 0 1-4.233-4.233V4.775A4.233 4.233 0 0 1 4.8.542h14.392a4.233 4.233 0 0 1 4.232 4.233v14.391a4.233 4.233 0 0 1-4.232 4.233Z"/><path fill="#fff" d="M11.285 5.943c0 1.972-1.177 3.158-2.946 3.158a2.802 2.802 0 0 1-2.82-3.065 2.912 2.912 0 0 1 2.921-3.14 2.794 2.794 0 0 1 2.845 3.047ZM6.95 6.01c0 1.185.559 2.014 1.465 2.014s1.439-.846 1.439-2.04c0-1.193-.508-2.006-1.44-2.006-.93 0-1.464.846-1.464 2.032ZM16.982 6.705c0-.72-.05-1.592-.05-2.464a39.6 39.6 0 0 1-.678 2.32l-.728 2.345h-1.058l-.644-2.311a34.4 34.4 0 0 1-.541-2.354c0 .847-.068 1.736-.102 2.48l-.119 2.286H11.81l.38-6.002h1.812l.584 1.998c.195.694.373 1.448.508 2.15.161-.694.364-1.49.576-2.158l.626-1.99h1.787l.321 6.002h-1.32l-.102-2.302ZM11.623 16.16c0 2.854-1.16 4.843-3.521 4.843-2.362 0-3.454-2.159-3.471-4.783-.017-2.624 1.134-4.817 3.53-4.817s3.462 2.21 3.462 4.758Zm-4.817.06c0 2.125.517 3.14 1.338 3.14.821 0 1.304-1.057 1.304-3.174 0-2.116-.44-3.14-1.313-3.14-.872 0-1.329.998-1.329 3.174ZM13.198 19.293c.316.017.632.017.948 0a3.791 3.791 0 0 0 1.829-.576 2.81 2.81 0 0 0 1.168-1.693 2.48 2.48 0 0 1-1.871.67 2.777 2.777 0 0 1-2.887-2.896 3.385 3.385 0 0 1 3.497-3.344c2.387 0 3.513 1.829 3.513 3.996a5.02 5.02 0 0 1-5.181 5.579c-.33.017-.66.017-.99 0l-.026-1.736Zm1.32-4.673a1.328 1.328 0 0 0 1.338 1.482 1.354 1.354 0 0 0 1.21-.601c.083-.175.118-.367.102-.56 0-.981-.355-1.955-1.371-1.955-.728 0-1.253.66-1.253 1.634"/></g><defs><clipPath id="a"><path fill="#fff" d="M0 0h75v75H0z"/></clipPath></defs></svg>