<svg xmlns="http://www.w3.org/2000/svg" width="75" height="75" fill="none" viewBox="0 0 24 24"><g clip-path="url(#a)"><path fill="#fff" d="M19.2 0H4.8A4.8 4.8 0 0 0 0 4.8v14.4A4.8 4.8 0 0 0 4.8 24h14.4a4.8 4.8 0 0 0 4.8-4.8V4.8A4.8 4.8 0 0 0 19.2 0Z"/><path fill="#F18C43" d="M19.192 23.399H4.8a4.233 4.233 0 0 1-4.233-4.233V4.775A4.233 4.233 0 0 1 4.8.542h14.392a4.233 4.233 0 0 1 4.232 4.233v14.391a4.233 4.233 0 0 1-4.232 4.233Z"/><path fill="#fff" d="M11.285 5.943c0 1.972-1.177 3.158-2.946 3.158a2.802 2.802 0 0 1-2.82-3.065 2.912 2.912 0 0 1 2.921-3.14 2.794 2.794 0 0 1 2.845 3.047ZM6.95 6.01c0 1.185.559 2.014 1.465 2.014s1.439-.846 1.439-2.04c0-1.193-.508-2.006-1.44-2.006-.93 0-1.464.846-1.464 2.032ZM16.982 6.705c0-.72-.05-1.592-.05-2.464a39.598 39.598 0 0 1-.678 2.32l-.728 2.345h-1.058l-.644-2.311c-.194-.72-.39-1.566-.541-2.354 0 .847-.068 1.736-.102 2.48l-.119 2.286H11.81l.38-6.002h1.812l.584 1.998c.195.694.373 1.448.508 2.15.161-.694.364-1.49.576-2.158l.626-1.99h1.787l.321 6.002h-1.32l-.102-2.302ZM7.517 13.486h-.025l-1.778.838-.355-1.626 2.472-1.142h1.786v9.286h-2.1v-7.356ZM19.386 16.16c0 2.854-1.16 4.843-3.513 4.843-2.353 0-3.454-2.159-3.47-4.783-.018-2.624 1.125-4.817 3.53-4.817 2.404 0 3.453 2.218 3.453 4.758Zm-4.817.06c0 2.125.517 3.14 1.346 3.14.83 0 1.304-1.057 1.304-3.174 0-2.116-.449-3.14-1.32-3.14-.873 0-1.33.998-1.33 3.174Z"/></g><defs><clipPath id="a"><path fill="#fff" d="M0 0h75v75H0z"/></clipPath></defs></svg>