<svg xmlns="http://www.w3.org/2000/svg" width="75" height="75" fill="none" viewBox="0 0 24 24"><g clip-path="url(#a)"><path fill="#fff" d="M19.2 0H4.8A4.8 4.8 0 0 0 0 4.8v14.4A4.8 4.8 0 0 0 4.8 24h14.4a4.8 4.8 0 0 0 4.8-4.8V4.8A4.8 4.8 0 0 0 19.2 0Z"/><path fill="#F18C43" d="M19.192 23.399H4.8a4.233 4.233 0 0 1-4.233-4.233V4.834A4.233 4.233 0 0 1 4.8.6h14.392a4.233 4.233 0 0 1 4.232 4.233v14.391a4.233 4.233 0 0 1-4.232 4.233"/><path fill="#fff" d="M11.285 5.934c0 1.973-1.177 3.158-2.946 3.158a2.802 2.802 0 0 1-2.82-3.056 2.912 2.912 0 0 1 2.921-3.15 2.793 2.793 0 0 1 2.845 3.048Zm-4.335.068c0 1.185.559 2.015 1.465 2.015s1.439-.847 1.439-2.04c0-1.194-.508-2.007-1.44-2.007-.93 0-1.464.847-1.464 2.032ZM16.982 6.696c0-.72-.05-1.591-.05-2.463a38.07 38.07 0 0 1-.678 2.328l-.728 2.336h-1.058l-.644-2.31a33.281 33.281 0 0 1-.541-2.354c0 .846-.068 1.735-.102 2.489l-.119 2.277H11.81l.38-6.002h1.812l.584 2.006c.195.694.373 1.44.508 2.142.161-.694.364-1.482.576-2.15l.626-1.998h1.787l.321 6.002h-1.32l-.102-2.303ZM7.517 13.486h-.025l-1.778.838-.355-1.626 2.472-1.142h1.786v9.286h-2.1v-7.356ZM15.306 13.486h-.034l-1.77.838-.355-1.626 2.472-1.142h1.786v9.286h-2.1v-7.356Z"/></g><defs><clipPath id="a"><path fill="#fff" d="M0 0h75v75H0z"/></clipPath></defs></svg>