<svg xmlns="http://www.w3.org/2000/svg" width="75" height="75" fill="none" viewBox="0 0 24 24"><g clip-path="url(#a)"><path fill="#fff" d="M19.2 0H4.8A4.8 4.8 0 0 0 0 4.8v14.4A4.8 4.8 0 0 0 4.8 24h14.4a4.8 4.8 0 0 0 4.8-4.8V4.8A4.8 4.8 0 0 0 19.2 0Z"/><path fill="#F18C43" d="M19.192 23.399H4.8a4.233 4.233 0 0 1-4.233-4.233V4.775A4.233 4.233 0 0 1 4.8.542h14.392a4.233 4.233 0 0 1 4.232 4.233v14.391a4.233 4.233 0 0 1-4.232 4.233Z"/><path fill="#fff" d="M11.285 5.934c0 1.981-1.177 3.158-2.946 3.158a2.802 2.802 0 0 1-2.82-3.056 2.904 2.904 0 0 1 2.921-3.14 2.794 2.794 0 0 1 2.845 3.038Zm-4.335.077c0 1.176.559 2.006 1.465 2.006s1.439-.847 1.439-2.04c0-1.194-.508-2.007-1.44-2.007-.93 0-1.464.847-1.464 2.04ZM16.982 6.705c0-.728-.05-1.6-.05-2.472a38.07 38.07 0 0 1-.678 2.328l-.728 2.336h-1.058l-.644-2.31a33.281 33.281 0 0 1-.541-2.354c0 .846-.068 1.693-.102 2.489l-.119 2.277H11.81l.38-6.002h1.812l.584 2.006c.195.694.373 1.44.508 2.142.161-.694.364-1.481.576-2.15l.626-1.998h1.787l.321 6.002h-1.32l-.102-2.294ZM7.517 13.486h-.025l-1.778.838-.355-1.626 2.472-1.142h1.786v9.286h-2.1v-7.356ZM12.919 18.709a4.799 4.799 0 0 0 2.15.576c1.134 0 1.693-.542 1.693-1.228 0-.931-.914-1.346-1.871-1.346h-.847v-1.557h.847c.728 0 1.642-.288 1.642-1.076 0-.55-.44-.965-1.371-.965a4.115 4.115 0 0 0-1.93.559l-.44-1.575a5.774 5.774 0 0 1 2.87-.702c1.972 0 3.072 1.041 3.072 2.32a2.21 2.21 0 0 1-1.693 2.15 2.302 2.302 0 0 1 2.015 2.268c0 1.634-1.448 2.828-3.801 2.828a5.638 5.638 0 0 1-2.785-.635l.448-1.617Z"/></g><defs><clipPath id="a"><path fill="#fff" d="M0 0h75v75H0z"/></clipPath></defs></svg>