<svg xmlns="http://www.w3.org/2000/svg" width="75" height="75" fill="none" viewBox="0 0 24 24"><g clip-path="url(#a)"><path fill="#fff" d="M19.2 0H4.8A4.8 4.8 0 0 0 0 4.8v14.4A4.8 4.8 0 0 0 4.8 24h14.4a4.8 4.8 0 0 0 4.8-4.8V4.8A4.8 4.8 0 0 0 19.2 0Z"/><path fill="#F18C43" d="M19.192 23.399H4.8a4.233 4.233 0 0 1-4.233-4.233V4.775A4.233 4.233 0 0 1 4.8.542h14.392a4.233 4.233 0 0 1 4.232 4.233v14.391a4.233 4.233 0 0 1-4.232 4.233Z"/><path fill="#fff" d="M11.285 5.934c0 1.981-1.177 3.158-2.946 3.158a2.802 2.802 0 0 1-2.82-3.056 2.904 2.904 0 0 1 2.921-3.14 2.794 2.794 0 0 1 2.845 3.038Zm-4.335.077c0 1.176.559 2.006 1.465 2.006s1.439-.847 1.439-2.032-.508-2.015-1.44-2.015c-.93 0-1.464.847-1.464 2.04ZM16.982 6.705c0-.728-.05-1.6-.05-2.472a38.07 38.07 0 0 1-.678 2.328l-.728 2.336h-1.058l-.644-2.31a33.28 33.28 0 0 1-.541-2.354c0 .846-.068 1.693-.102 2.489l-.119 2.277H11.81l.38-6.002h1.812l.584 2.006c.195.694.373 1.44.508 2.142.161-.694.364-1.481.576-2.15l.626-1.998h1.787l.321 6.002h-1.32l-.102-2.294ZM7.517 13.486h-.025l-1.778.838-.355-1.626 2.472-1.142h1.786v9.286h-2.1v-7.356ZM18.726 13.342h-3.598l-.195 1.43c.197-.017.396-.017.593 0a4.233 4.233 0 0 1 2.447.67 2.641 2.641 0 0 1 1.125 2.327c0 1.736-1.481 3.26-3.987 3.26a5.926 5.926 0 0 1-2.54-.525l.398-1.634c.658.296 1.37.452 2.091.457.898 0 1.854-.423 1.854-1.414 0-.99-.753-1.54-2.616-1.54a7.5 7.5 0 0 0-1.244.084l.601-4.868h5.08l-.01 1.753Z"/></g><defs><clipPath id="a"><path fill="#fff" d="M0 0h75v75H0z"/></clipPath></defs></svg>