<svg xmlns="http://www.w3.org/2000/svg" width="75" height="75" fill="none" viewBox="0 0 24 24"><g clip-path="url(#a)"><path fill="#fff" d="M19.2 0H4.8A4.8 4.8 0 0 0 0 4.8v14.4A4.8 4.8 0 0 0 4.8 24h14.4a4.8 4.8 0 0 0 4.8-4.8V4.8A4.8 4.8 0 0 0 19.2 0Z"/><path fill="#F18C43" d="M19.192 23.399H4.8a4.233 4.233 0 0 1-4.233-4.233V4.775A4.233 4.233 0 0 1 4.8.542h14.392a4.233 4.233 0 0 1 4.232 4.233v14.391a4.233 4.233 0 0 1-4.232 4.233Z"/><path fill="#fff" d="M11.285 5.934c0 1.981-1.177 3.167-2.946 3.167a2.802 2.802 0 0 1-2.82-3.065 2.912 2.912 0 0 1 2.921-3.14 2.794 2.794 0 0 1 2.845 3.038Zm-4.335.077c0 1.185.559 2.006 1.465 2.006s1.439-.847 1.439-2.032-.508-2.015-1.44-2.015c-.93 0-1.464.847-1.464 2.04ZM16.982 6.705c0-.72-.05-1.592-.05-2.464a39.603 39.603 0 0 1-.678 2.32l-.728 2.336h-1.058l-.644-2.31a34.14 34.14 0 0 1-.541-2.346c0 .847-.068 1.736-.102 2.48L13.062 9H11.81l.38-6.002h1.812l.584 2.006c.195.694.373 1.44.508 2.142.161-.694.364-1.482.576-2.15l.626-1.998h1.787l.321 6.002h-1.32l-.102-2.294ZM7.517 13.486h-.025l-1.778.838-.355-1.626 2.472-1.142h1.786v9.286h-2.1v-7.356ZM18.455 13.088a5.92 5.92 0 0 0-.846 0c-1.93.16-2.786 1.151-3.031 2.218a2.69 2.69 0 0 1 1.972-.728 2.818 2.818 0 0 1 2.87 3.03 3.317 3.317 0 0 1-3.386 3.387c-2.489 0-3.7-1.837-3.7-4.055a5.155 5.155 0 0 1 5.224-5.503c.281-.028.565-.028.846 0l.051 1.65Zm-1.185 4.656a1.42 1.42 0 0 0-1.38-1.6 1.397 1.397 0 0 0-1.278.847 1.236 1.236 0 0 0-.094.558c.043.99.508 1.871 1.507 1.871.762 0 1.245-.694 1.245-1.642"/></g><defs><clipPath id="a"><path fill="#fff" d="M0 0h75v75H0z"/></clipPath></defs></svg>