<svg xmlns="http://www.w3.org/2000/svg" xmlns:xlink="http://www.w3.org/1999/xlink" width="75" height="75"><defs><clipPath id="b"><path d="M4 .625h9v18.75H4Zm0 0"/></clipPath><clipPath id="c"><path d="M16 .625h15v18.75H16Zm0 0"/></clipPath><clipPath id="a"><path d="M0 0h35v20H0z"/></clipPath><clipPath id="e"><path d="M1 .762h19v26.875H1Zm0 0"/></clipPath><clipPath id="f"><path d="M21 .762h19v26.875H21Zm0 0"/></clipPath><clipPath id="d"><path d="M0 0h41v28H0z"/></clipPath><clipPath id="g"><path d="M0 0h75v75H0z"/></clipPath><g id="h" clip-path="url(#a)"><g clip-path="url(#b)"><path d="M4.402 15.86a4.5 4.5 0 0 0 1.73.308c2.34 0 2.34-1.887 2.34-3.195V.926h3.65v13.82c0 1.926-1.227 4.617-4.954 4.617a9.7 9.7 0 0 1-2.766-.343Zm0 0"/></g><g clip-path="url(#c)"><path d="M19.613.926v7.773L26.145.926h4.453l-7.453 8.547 7.761 9.547h-4.722l-6.493-8.395h-.078v8.395h-3.61V.926Zm0 0"/></g></g><g id="i" clip-path="url(#d)"><g clip-path="url(#e)"><path d="M1.777 14.273C1.777 7.762 3.75.762 10.781.762c7.598 0 9.082 7.48 9.082 13.511 0 6.032-1.558 13.364-9.082 13.364-8 0-9.004-7.926-9.004-13.364m12.883 0c0-3.347 0-9.644-3.879-9.644-3.793 0-3.793 6.297-3.793 9.644 0 3.278-.039 9.493 3.793 9.493 3.914 0 3.88-6.215 3.88-9.493m0 0"/></g><g clip-path="url(#f)"><path d="M21.95 27.191v-4.355c2.421-2.348 11.241-9.719 11.241-14.48 0-2.383-2.12-3.5-4.246-3.5-2.191 0-4.277.968-5.988 2.085l-.414-4.316C24.891 1.43 27.609.762 30.25.762c4.953 0 8.152 2.492 8.152 7.593 0 5.508-5.547 10.57-9.789 14.739h10.61v4.097z"/></g></g><g id="j" clip-path="url(#g)"><path fill="#00A7E3" d="M0 68.5v-62A6.5 6.5 0 0 1 6.5 0h62A6.5 6.5 0 0 1 75 6.5v62a6.5 6.5 0 0 1-6.5 6.5h-62A6.5 6.5 0 0 1 0 68.5m0 0"/><path fill="#FFF" d="M7.5 67.5v-60h60v60Zm0 0"/><use xlink:href="#h" transform="translate(20 10)"/><use xlink:href="#i" transform="translate(17 33)"/></g></defs><use xlink:href="#j"/></svg>