<svg xmlns="http://www.w3.org/2000/svg" xmlns:xlink="http://www.w3.org/1999/xlink" width="75" height="75"><defs><clipPath id="b"><path d="M4 .625h9v18.75H4Zm0 0"/></clipPath><clipPath id="c"><path d="M16 .625h15v18.75H16Zm0 0"/></clipPath><clipPath id="a"><path d="M0 0h35v20H0z"/></clipPath><clipPath id="e"><path d="M2 .762h18v26.875H2Zm0 0"/></clipPath><clipPath id="f"><path d="M23 .762h18v26.875H23Zm0 0"/></clipPath><clipPath id="d"><path d="M0 0h43v28H0z"/></clipPath><clipPath id="g"><path d="M0 0h75v75H0z"/></clipPath><g id="h" clip-path="url(#a)"><g clip-path="url(#b)"><path d="M4.402 15.86a4.5 4.5 0 0 0 1.73.308c2.34 0 2.34-1.887 2.34-3.195V.926h3.65v13.82c0 1.926-1.227 4.617-4.954 4.617a9.7 9.7 0 0 1-2.766-.343Zm0 0"/></g><g clip-path="url(#c)"><path d="M19.613.926v7.773L26.145.926h4.453l-7.453 8.547 7.761 9.547h-4.722l-6.493-8.395h-.078v8.395h-3.61V.926Zm0 0"/></g></g><g id="i" clip-path="url(#d)"><g clip-path="url(#e)"><path d="M2.371 27.188v-4.356c2.418-2.344 11.242-9.715 11.242-14.477 0-2.382-2.125-3.5-4.246-3.5-2.195 0-4.281.965-5.992 2.086l-.41-4.32C5.309 1.43 8.027.761 10.668.761c4.95 0 8.152 2.493 8.152 7.594 0 5.504-5.547 10.57-9.789 14.739h10.61v4.093z"/></g><g clip-path="url(#f)"><path d="M25.148 22.496c1.38.598 2.79 1.047 4.543 1.047 4.504 0 6.028-4.168 6.176-8.043l-.07-.074c-1.23 1.824-2.832 2.605-5.031 2.605-4.91 0-7.594-3.125-7.594-7.926 0-5.62 2.758-9.343 8.637-9.343 7.222 0 8.82 5.992 8.82 12.097 0 7.036-2.27 14.778-10.68 14.778-1.898 0-3.683-.297-5.472-.93zM35.422 9.25c0-2.457-1.043-4.621-3.613-4.621-2.418 0-3.422 2.348-3.422 4.656 0 2.531 1.039 4.875 3.535 4.875 2.531 0 3.5-2.305 3.5-4.91m0 0"/></g></g><g id="j" clip-path="url(#g)"><path fill="#00A7E3" d="M0 68.5v-62A6.5 6.5 0 0 1 6.5 0h62A6.5 6.5 0 0 1 75 6.5v62a6.5 6.5 0 0 1-6.5 6.5h-62A6.5 6.5 0 0 1 0 68.5m0 0"/><path fill="#FFF" d="M7.5 67.5v-60h60v60Zm0 0"/><use xlink:href="#h" transform="translate(20 10)"/><use xlink:href="#i" transform="translate(16 33)"/></g></defs><use xlink:href="#j"/></svg>