<svg xmlns="http://www.w3.org/2000/svg" xmlns:xlink="http://www.w3.org/1999/xlink" width="75" height="75"><defs><clipPath id="b"><path d="M4 .625h9v18.75H4Zm0 0"/></clipPath><clipPath id="c"><path d="M16 .625h15v18.75H16Zm0 0"/></clipPath><clipPath id="a"><path d="M0 0h35v20H0z"/></clipPath><clipPath id="e"><path d="M2 .762h18v26.875H2Zm0 0"/></clipPath><clipPath id="f"><path d="M21 1h20v26.637H21Zm0 0"/></clipPath><clipPath id="d"><path d="M0 0h43v28H0z"/></clipPath><clipPath id="g"><path d="M0 0h75v75H0z"/></clipPath><g id="h" clip-path="url(#a)"><g clip-path="url(#b)"><path d="M4.402 15.86a4.5 4.5 0 0 0 1.73.308c2.34 0 2.34-1.887 2.34-3.195V.926h3.65v13.82c0 1.926-1.227 4.617-4.954 4.617a9.7 9.7 0 0 1-2.766-.343Zm0 0"/></g><g clip-path="url(#c)"><path d="M19.613.926v7.773L26.145.926h4.453l-7.453 8.547 7.761 9.547h-4.722l-6.493-8.395h-.078v8.395h-3.61V.926Zm0 0"/></g></g><g id="i" clip-path="url(#d)"><g clip-path="url(#e)"><path d="M2.613 22.352c1.785.707 3.719 1.191 5.766 1.191 2.164 0 5.476-1.043 5.476-3.684 0-3.054-2.421-4.062-5.738-4.062H5.59v-4.094h2.383c3.496 0 5.77-1.156 5.77-3.422 0-2.605-2.122-3.426-4.47-3.426-2.043 0-4.02.485-5.843 1.375l-.293-4.167C5.215 1.243 7.715.762 10.39.762c3.203 0 8.566 1.113 8.566 6.664 0 3.531-2.2 5.207-4.844 6.219v.074c3.313.441 4.95 3.011 4.95 6.176 0 6.18-5.618 7.742-9.938 7.742-2.273 0-4.875-.297-6.812-.852z"/></g><g clip-path="url(#f)"><path d="m21.184 17.586 9.718-16.379h6.473v16.711h3.313v3.875h-3.313v5.398h-4.988v-5.398H21.184zm11.203.332V6.645h-.07l-6.442 11.273Zm0 0"/></g></g><g id="j" clip-path="url(#g)"><path fill="#00A7E3" d="M0 68.5v-62A6.5 6.5 0 0 1 6.5 0h62A6.5 6.5 0 0 1 75 6.5v62a6.5 6.5 0 0 1-6.5 6.5h-62A6.5 6.5 0 0 1 0 68.5m0 0"/><path fill="#FFF" d="M7.5 67.5v-60h60v60Zm0 0"/><use xlink:href="#h" transform="translate(20 10)"/><use xlink:href="#i" transform="translate(16 33)"/></g></defs><use xlink:href="#j"/></svg>