<svg xmlns="http://www.w3.org/2000/svg" xmlns:xlink="http://www.w3.org/1999/xlink" width="75" height="75"><defs><clipPath id="b"><path d="M4 .625h9v18.75H4Zm0 0"/></clipPath><clipPath id="c"><path d="M16 .625h15v18.75H16Zm0 0"/></clipPath><clipPath id="a"><path d="M0 0h35v20H0z"/></clipPath><clipPath id="e"><path d="M2 .762h18v26.875H2Zm0 0"/></clipPath><clipPath id="f"><path d="M22 .762h19v26.875H22Zm0 0"/></clipPath><clipPath id="d"><path d="M0 0h43v28H0z"/></clipPath><clipPath id="g"><path d="M0 0h75v75H0z"/></clipPath><g id="h" clip-path="url(#a)"><g clip-path="url(#b)"><path d="M4.402 15.86a4.5 4.5 0 0 0 1.73.308c2.34 0 2.34-1.887 2.34-3.195V.926h3.65v13.82c0 1.926-1.227 4.617-4.954 4.617a9.7 9.7 0 0 1-2.766-.343Zm0 0"/></g><g clip-path="url(#c)"><path d="M19.613.926v7.773L26.145.926h4.453l-7.453 8.547 7.761 9.547h-4.722l-6.493-8.395h-.078v8.395h-3.61V.926Zm0 0"/></g></g><g id="i" clip-path="url(#d)"><g clip-path="url(#e)"><path d="M3.113 22.355c1.785.704 3.723 1.188 5.77 1.188 2.156 0 5.469-1.043 5.469-3.684 0-3.054-2.418-4.058-5.73-4.058H6.09v-4.094h2.383c3.5 0 5.773-1.156 5.773-3.426 0-2.605-2.125-3.422-4.469-3.422-2.047 0-4.023.485-5.843 1.375l-.301-4.168C5.719 1.246 8.21.762 10.89.762c3.203 0 8.562 1.117 8.562 6.664 0 3.539-2.195 5.21-4.836 6.219v.074c3.313.445 4.95 3.015 4.95 6.18 0 6.175-5.622 7.738-9.942 7.738-2.27 0-4.875-.297-6.809-.852z"/></g><g clip-path="url(#f)"><path d="M24.703 22.5c1.375.598 2.79 1.043 4.54 1.043 4.5 0 6.03-4.168 6.179-8.04l-.074-.073c-1.227 1.82-2.832 2.605-5.024 2.605-4.914 0-7.597-3.129-7.597-7.93 0-5.62 2.757-9.343 8.636-9.343 7.223 0 8.82 5.992 8.82 12.101 0 7.035-2.269 14.774-10.68 14.774-1.898 0-3.687-.297-5.472-.93zM34.977 9.25c0-2.457-1.043-4.617-3.614-4.617-2.422 0-3.425 2.347-3.425 4.656 0 2.527 1.042 4.875 3.535 4.875 2.53 0 3.504-2.309 3.504-4.914m0 0"/></g></g><g id="j" clip-path="url(#g)"><path fill="#00A7E3" d="M0 68.5v-62A6.5 6.5 0 0 1 6.5 0h62A6.5 6.5 0 0 1 75 6.5v62a6.5 6.5 0 0 1-6.5 6.5h-62A6.5 6.5 0 0 1 0 68.5m0 0"/><path fill="#FFF" d="M7.5 67.5v-60h60v60Zm0 0"/><use xlink:href="#h" transform="translate(20 10)"/><use xlink:href="#i" transform="translate(16 33)"/></g></defs><use xlink:href="#j"/></svg>