<svg xmlns="http://www.w3.org/2000/svg" xmlns:xlink="http://www.w3.org/1999/xlink" width="75" height="75"><defs><clipPath id="b"><path d="M4 .625h9v18.75H4Zm0 0"/></clipPath><clipPath id="c"><path d="M16 .625h15v18.75H16Zm0 0"/></clipPath><clipPath id="a"><path d="M0 0h35v20H0z"/></clipPath><clipPath id="e"><path d="M2 1h20v26.637H2Zm0 0"/></clipPath><clipPath id="f"><path d="M24 .762h17v26.875H24Zm0 0"/></clipPath><clipPath id="d"><path d="M0 0h43v28H0z"/></clipPath><clipPath id="g"><path d="M0 0h75v75H0z"/></clipPath><g id="h" clip-path="url(#a)"><g clip-path="url(#b)"><path d="M4.402 15.86a4.5 4.5 0 0 0 1.73.308c2.34 0 2.34-1.887 2.34-3.195V.926h3.65v13.82c0 1.926-1.227 4.617-4.954 4.617a9.7 9.7 0 0 1-2.766-.343Zm0 0"/></g><g clip-path="url(#c)"><path d="M19.613.926v7.773L26.145.926h4.453l-7.453 8.547 7.761 9.547h-4.722l-6.493-8.395h-.078v8.395h-3.61V.926Zm0 0"/></g></g><g id="i" clip-path="url(#d)"><g clip-path="url(#e)"><path d="M2.238 17.586 11.957 1.21h6.477v16.71h3.312v3.876h-3.312v5.394h-4.989v-5.394H2.238zm11.207.336V6.645h-.074L6.93 17.922Zm0 0"/></g><g clip-path="url(#f)"><path d="M24.309 22.355c1.789.707 3.722 1.188 5.77 1.188 2.16 0 5.472-1.043 5.472-3.684 0-3.054-2.422-4.058-5.735-4.058H27.29v-4.094h2.379c3.504 0 5.773-1.156 5.773-3.426 0-2.605-2.12-3.422-4.464-3.422-2.047 0-4.024.485-5.848 1.375l-.297-4.168c2.082-.82 4.582-1.304 7.258-1.304 3.203 0 8.562 1.117 8.562 6.664 0 3.539-2.199 5.21-4.84 6.219v.074c3.317.445 4.954 3.015 4.954 6.18 0 6.175-5.621 7.738-9.938 7.738-2.273 0-4.879-.297-6.816-.852z"/></g></g><g id="j" clip-path="url(#g)"><path fill="#00A7E3" d="M0 68.5v-62A6.5 6.5 0 0 1 6.5 0h62A6.5 6.5 0 0 1 75 6.5v62a6.5 6.5 0 0 1-6.5 6.5h-62A6.5 6.5 0 0 1 0 68.5m0 0"/><path fill="#FFF" d="M7.5 67.5v-60h60v60Zm0 0"/><use xlink:href="#h" transform="translate(20 10)"/><use xlink:href="#i" transform="translate(16 33)"/></g></defs><use xlink:href="#j"/></svg>