<svg xmlns="http://www.w3.org/2000/svg" xmlns:xlink="http://www.w3.org/1999/xlink" width="75" height="75"><defs><clipPath id="b"><path d="M4 .625h9v18.75H4Zm0 0"/></clipPath><clipPath id="c"><path d="M16 .625h15v18.75H16Zm0 0"/></clipPath><clipPath id="a"><path d="M0 0h35v20H0z"/></clipPath><clipPath id="e"><path d="M2 .762h20v26.875H2Zm0 0"/></clipPath><clipPath id="f"><path d="M24 .762h17v26.875H24Zm0 0"/></clipPath><clipPath id="d"><path d="M0 0h43v28H0z"/></clipPath><clipPath id="g"><path d="M0 0h75v75H0z"/></clipPath><g id="h" clip-path="url(#a)"><g clip-path="url(#b)"><path d="M4.402 15.86a4.5 4.5 0 0 0 1.73.308c2.34 0 2.34-1.887 2.34-3.195V.926h3.65v13.82c0 1.926-1.227 4.617-4.954 4.617a9.7 9.7 0 0 1-2.766-.343Zm0 0"/></g><g clip-path="url(#c)"><path d="M19.613.926v7.773L26.145.926h4.453l-7.453 8.547 7.761 9.547h-4.722l-6.493-8.395h-.078v8.395h-3.61V.926Zm0 0"/></g></g><g id="i" clip-path="url(#d)"><g clip-path="url(#e)"><path d="M2.02 17.41 11.734.785h6.473v16.969h3.313v3.926h-3.313v5.48h-4.984v-5.48H2.02zm11.203.344V6.3h-.075L6.707 17.754Zm0 0"/></g><g clip-path="url(#f)"><path d="M40.352 4.715H30.34l-.11 5.629c.59-.114 1.375-.266 2.383-.266 3.64 0 8.371 1.742 8.371 8.582 0 4.95-3.422 8.957-10.125 8.957-2.007 0-4.355-.34-6.066-.758l.113-4.722c1.266.527 3.051 1.32 5.324 1.32 2.715 0 5.543-1.285 5.543-4.645 0-3.402-2.98-4.578-5.957-4.578-1.597 0-3.125.227-4.652.723L25.43.785h14.922z"/></g></g><g id="j" clip-path="url(#g)"><path fill="#00A7E3" d="M0 68.5v-62A6.5 6.5 0 0 1 6.5 0h62A6.5 6.5 0 0 1 75 6.5v62a6.5 6.5 0 0 1-6.5 6.5h-62A6.5 6.5 0 0 1 0 68.5m0 0"/><path fill="#FFF" d="M7.5 67.5v-60h60v60Zm0 0"/><use xlink:href="#h" transform="translate(20 10)"/><use xlink:href="#i" transform="translate(16 33)"/></g></defs><use xlink:href="#j"/></svg>