<svg xmlns="http://www.w3.org/2000/svg" xmlns:xlink="http://www.w3.org/1999/xlink" width="75" height="75"><defs><clipPath id="b"><path d="M6 .625h9v18.75H6Zm0 0"/></clipPath><clipPath id="c"><path d="M17 .625h12v18.75H17Zm0 0"/></clipPath><clipPath id="a"><path d="M0 0h35v20H0z"/></clipPath><clipPath id="e"><path d="M2 .762h18v26.875H2Zm0 0"/></clipPath><clipPath id="f"><path d="M23 .762h18v26.875H23Zm0 0"/></clipPath><clipPath id="d"><path d="M0 0h43v28H0z"/></clipPath><clipPath id="g"><path d="M0 0h75v75H0z"/></clipPath><g id="h" clip-path="url(#a)"><g clip-path="url(#b)"><path d="M6.418 15.86c.55.214 1.137.32 1.727.308 2.343 0 2.343-1.887 2.343-3.195V.926h3.614v13.82c0 1.926-1.23 4.617-4.957 4.617a9.8 9.8 0 0 1-2.766-.343v-3.16Zm0 0"/></g><g clip-path="url(#c)"><path d="M17.98.926h3.61v15.242h7.031v2.852h-10.64Zm0 0"/></g></g><g id="i" clip-path="url(#d)"><g clip-path="url(#e)"><path d="M2.52 27.414v-4.36c2.418-2.343 11.238-9.71 11.238-14.476 0-2.383-2.121-3.496-4.242-3.496-2.196 0-4.282.965-5.993 2.082l-.406-4.32c2.344-1.188 5.059-1.86 7.7-1.86 4.953 0 8.152 2.496 8.152 7.594 0 5.508-5.547 10.57-9.79 14.738h10.606v4.098z"/></g><g clip-path="url(#f)"><path d="M23.21 27.414v-4.36c2.423-2.343 11.243-9.71 11.243-14.476 0-2.383-2.125-3.496-4.246-3.496-2.195 0-4.281.965-5.992 2.082l-.41-4.32c2.343-1.188 5.062-1.86 7.707-1.86 4.945 0 8.152 2.496 8.152 7.594 0 5.508-5.547 10.57-9.793 14.738h10.61v4.098z"/></g></g><g id="j" clip-path="url(#g)"><path fill="#9E9E9F" d="M0 68.5v-62A6.5 6.5 0 0 1 6.5 0h62A6.5 6.5 0 0 1 75 6.5v62a6.5 6.5 0 0 1-6.5 6.5h-62A6.5 6.5 0 0 1 0 68.5m0 0"/><path fill="#FFF" d="M7.5 67.5v-60h60v60Zm0 0"/><use xlink:href="#h" transform="translate(20 10)"/><use xlink:href="#i" transform="translate(16 33)"/></g></defs><use xlink:href="#j"/></svg>