<svg xmlns="http://www.w3.org/2000/svg" xmlns:xlink="http://www.w3.org/1999/xlink" width="75" height="75"><defs><clipPath id="b"><path d="M6 .625h9v18.75H6Zm0 0"/></clipPath><clipPath id="c"><path d="M17 .625h12v18.75H17Zm0 0"/></clipPath><clipPath id="a"><path d="M0 0h35v20H0z"/></clipPath><clipPath id="e"><path d="M2 .762h18v26.875H2Zm0 0"/></clipPath><clipPath id="f"><path d="M24 1h17v26.637H24Zm0 0"/></clipPath><clipPath id="d"><path d="M0 0h43v28H0z"/></clipPath><clipPath id="g"><path d="M0 0h75v75H0z"/></clipPath><g id="h" clip-path="url(#a)"><g clip-path="url(#b)"><path d="M6.418 15.86c.55.214 1.137.32 1.727.308 2.343 0 2.343-1.887 2.343-3.195V.926h3.614v13.82c0 1.926-1.23 4.617-4.957 4.617a9.8 9.8 0 0 1-2.766-.343v-3.16Zm0 0"/></g><g clip-path="url(#c)"><path d="M17.98.926h3.61v15.242h7.031v2.852h-10.64Zm0 0"/></g></g><g id="i" clip-path="url(#d)"><g clip-path="url(#e)"><path d="M2.484 27.191v-4.359c2.414-2.344 11.239-9.71 11.239-14.477 0-2.378-2.121-3.496-4.243-3.496-2.195 0-4.285.97-6 2.082l-.406-4.316C5.422 1.434 8.137.762 10.777.762c4.953 0 8.157 2.496 8.157 7.593 0 5.512-5.547 10.575-9.79 14.743H19.75v4.093z"/></g><g clip-path="url(#f)"><path d="M39.887 5.082H29.87l-.11 5.547c.598-.113 1.38-.258 2.384-.258 3.644 0 8.375 1.711 8.375 8.445 0 4.875-3.426 8.82-10.122 8.82-2.015 0-4.359-.335-6.074-.741l.117-4.653c1.266.52 3.055 1.301 5.32 1.301 2.716 0 5.544-1.266 5.544-4.578 0-3.352-2.977-4.504-5.953-4.504a15 15 0 0 0-4.653.71l.262-13.96h14.926z"/></g></g><g id="j" clip-path="url(#g)"><path fill="#9E9E9F" d="M0 68.5v-62A6.5 6.5 0 0 1 6.5 0h62A6.5 6.5 0 0 1 75 6.5v62a6.5 6.5 0 0 1-6.5 6.5h-62A6.5 6.5 0 0 1 0 68.5m0 0"/><path fill="#FFF" d="M7.5 67.5v-60h60v60Zm0 0"/><use xlink:href="#h" transform="translate(20 10)"/><use xlink:href="#i" transform="translate(16 33)"/></g></defs><use xlink:href="#j"/></svg>