<svg xmlns="http://www.w3.org/2000/svg" xmlns:xlink="http://www.w3.org/1999/xlink" width="75" height="75"><defs><clipPath id="b"><path d="M6 .625h9v18.75H6Zm0 0"/></clipPath><clipPath id="c"><path d="M17 .625h12v18.75H17Zm0 0"/></clipPath><clipPath id="a"><path d="M0 0h35v20H0z"/></clipPath><clipPath id="e"><path d="M3 .762h18v26.875H3Zm0 0"/></clipPath><clipPath id="f"><path d="M23 1h13v26.637H23Zm0 0"/></clipPath><clipPath id="d"><path d="M0 0h43v28H0z"/></clipPath><clipPath id="g"><path d="M0 0h75v75H0z"/></clipPath><g id="h" clip-path="url(#a)"><g clip-path="url(#b)"><path d="M6.418 15.86c.55.214 1.137.32 1.727.308 2.343 0 2.343-1.887 2.343-3.195V.926h3.614v13.82c0 1.926-1.23 4.617-4.957 4.617a9.8 9.8 0 0 1-2.766-.343v-3.16Zm0 0"/></g><g clip-path="url(#c)"><path d="M17.98.926h3.61v15.242h7.031v2.852h-10.64Zm0 0"/></g></g><g id="i" clip-path="url(#d)"><g clip-path="url(#e)"><path fill="#1A1A1A" d="M3.91 22.348c1.766.707 3.672 1.191 5.695 1.191 2.133 0 5.399-1.043 5.399-3.68 0-3.058-2.387-4.062-5.656-4.062H6.852v-4.09h2.347c3.457 0 5.7-1.156 5.7-3.43 0-2.605-2.098-3.422-4.415-3.422-2.015 0-3.964.485-5.765 1.375l-.293-4.167c2.058-.82 4.52-1.301 7.16-1.301 3.164 0 8.45 1.11 8.45 6.66 0 3.539-2.165 5.21-4.774 6.219v.074c3.27.445 4.883 3.012 4.883 6.176 0 6.18-5.547 7.746-9.805 7.746-2.242 0-4.813-.297-6.723-.856z"/></g><g clip-path="url(#f)"><path fill="#1A1A1A" d="M30.578 1.207h4.55v25.98h-5.136V7.13l-4.34 3.566-2.566-3.386z"/></g></g><g id="j" clip-path="url(#g)"><path fill="#9E9E9F" d="M0 68.5v-62A6.5 6.5 0 0 1 6.5 0h62A6.5 6.5 0 0 1 75 6.5v62a6.5 6.5 0 0 1-6.5 6.5h-62A6.5 6.5 0 0 1 0 68.5m0 0"/><path fill="#FFF" d="M7.5 67.5v-60h60v60Zm0 0"/><use xlink:href="#h" transform="translate(20 10)"/><use xlink:href="#i" transform="translate(16 33)"/></g></defs><use xlink:href="#j"/></svg>