<svg xmlns="http://www.w3.org/2000/svg" xmlns:xlink="http://www.w3.org/1999/xlink" width="75" height="75"><defs><clipPath id="b"><path d="M3 .625h8v18.75H3Zm0 0"/></clipPath><clipPath id="c"><path d="M12 .625h21v18.75H12Zm0 0"/></clipPath><clipPath id="a"><path d="M0 0h35v20H0z"/></clipPath><clipPath id="e"><path d="M3 1h13v26.637H3Zm0 0"/></clipPath><clipPath id="f"><path d="M23 1h17v26.637H23Zm0 0"/></clipPath><clipPath id="d"><path d="M0 0h43v28H0z"/></clipPath><clipPath id="g"><path d="M0 0h75v75H0z"/></clipPath><g id="h" clip-path="url(#a)"><g clip-path="url(#b)"><path d="M3.227 15.89a4.2 4.2 0 0 0 1.699.31c2.3 0 2.3-1.891 2.3-3.204V.926h3.547v13.847c0 1.93-1.207 4.63-4.867 4.63a9.3 9.3 0 0 1-2.718-.348V15.89Zm0 0"/></g><g clip-path="url(#c)"><path d="M26.629.926h5.7v18.129h-3.4V4.125h-.038l-4.793 14.93h-3.395l-4.797-14.93-.035.04v14.89h-3.434V.925h5.696l4.23 13.77h.035Zm0 0"/></g></g><g id="i" clip-path="url(#d)"><g clip-path="url(#e)"><path d="M10.781 1.21h4.614v25.981h-5.207V7.125l-4.391 3.574L3.19 7.313z"/></g><g clip-path="url(#f)"><path d="M39.176 5.082H29.164l-.11 5.547c.594-.113 1.376-.262 2.38-.262 3.648 0 8.375 1.711 8.375 8.45 0 4.874-3.422 8.816-10.121 8.816-2.012 0-4.356-.332-6.067-.742l.11-4.653c1.265.52 3.054 1.301 5.324 1.301 2.715 0 5.547-1.262 5.547-4.574 0-3.356-2.98-4.504-5.961-4.504-1.598 0-3.121.219-4.649.707l.262-13.957h14.922z"/></g></g><g id="j" clip-path="url(#g)"><path fill="#EB5C01" d="M0 68.5v-62A6.5 6.5 0 0 1 6.5 0h62A6.5 6.5 0 0 1 75 6.5v62a6.5 6.5 0 0 1-6.5 6.5h-62A6.5 6.5 0 0 1 0 68.5m0 0"/><path fill="#FFF" d="M7.5 67.5v-60h60v60Zm0 0"/><use xlink:href="#h" transform="translate(20 10)"/><use xlink:href="#i" transform="translate(16 33)"/></g></defs><use xlink:href="#j"/></svg>