<svg xmlns="http://www.w3.org/2000/svg" xmlns:xlink="http://www.w3.org/1999/xlink" width="75" height="75"><defs><clipPath id="b"><path d="M3 .625h8v18.75H3Zm0 0"/></clipPath><clipPath id="c"><path d="M12 .625h21v18.75H12Zm0 0"/></clipPath><clipPath id="a"><path d="M0 0h35v20H0z"/></clipPath><clipPath id="e"><path d="M2 .762h18v26.875H2Zm0 0"/></clipPath><clipPath id="f"><path d="M23 .762h18v26.875H23Zm0 0"/></clipPath><clipPath id="d"><path d="M0 0h43v28H0z"/></clipPath><clipPath id="g"><path d="M0 0h75v75H0z"/></clipPath><g id="h" clip-path="url(#a)"><g clip-path="url(#b)"><path d="M3.227 15.89a4.2 4.2 0 0 0 1.699.31c2.3 0 2.3-1.891 2.3-3.204V.926h3.547v13.847c0 1.93-1.207 4.63-4.867 4.63a9.3 9.3 0 0 1-2.718-.348V15.89Zm0 0"/></g><g clip-path="url(#c)"><path d="M26.629.926h5.7v18.129h-3.4V4.125h-.038l-4.793 14.93h-3.395l-4.797-14.93-.035.04v14.89h-3.434V.925h5.696l4.23 13.77h.035Zm0 0"/></g></g><g id="i" clip-path="url(#d)"><g clip-path="url(#e)"><path d="M2.703 27.191v-4.359c2.418-2.344 11.242-9.715 11.242-14.477 0-2.382-2.12-3.496-4.246-3.496-2.191 0-4.277.965-5.988 2.082L3.3 2.625C5.648 1.43 8.359.762 11.004.762c4.953 0 8.152 2.492 8.152 7.593 0 5.508-5.543 10.575-9.789 14.743h10.61v4.093z"/></g><g clip-path="url(#f)"><path d="M23.844 22.352c1.789.707 3.722 1.191 5.77 1.191 2.16 0 5.472-1.043 5.472-3.684 0-3.054-2.422-4.062-5.734-4.062h-2.528v-4.09h2.383c3.5 0 5.77-1.16 5.77-3.426 0-2.61-2.125-3.422-4.47-3.422-2.042 0-4.019.48-5.843 1.371l-.297-4.167c2.082-.82 4.578-1.301 7.258-1.301 3.203 0 8.559 1.117 8.559 6.664 0 3.535-2.196 5.207-4.836 6.219v.074c3.312.441 4.949 3.011 4.949 6.176 0 6.175-5.617 7.742-9.938 7.742-2.273 0-4.879-.297-6.812-.856z"/></g></g><g id="j" clip-path="url(#g)"><path fill="#EB5C01" d="M0 68.5v-62A6.5 6.5 0 0 1 6.5 0h62A6.5 6.5 0 0 1 75 6.5v62a6.5 6.5 0 0 1-6.5 6.5h-62A6.5 6.5 0 0 1 0 68.5m0 0"/><path fill="#FFF" d="M7.5 67.5v-60h60v60Zm0 0"/><use xlink:href="#h" transform="translate(20 10)"/><use xlink:href="#i" transform="translate(16 33)"/></g></defs><use xlink:href="#j"/></svg>