<svg xmlns="http://www.w3.org/2000/svg" xmlns:xlink="http://www.w3.org/1999/xlink" width="75" height="75"><defs><clipPath id="b"><path d="M3 .625h8v18.75H3Zm0 0"/></clipPath><clipPath id="c"><path d="M12 .625h21v18.75H12Zm0 0"/></clipPath><clipPath id="a"><path d="M0 0h35v20H0z"/></clipPath><clipPath id="e"><path d="M2 .762h18v26.875H2Zm0 0"/></clipPath><clipPath id="f"><path d="M22 .762h19v26.875H22Zm0 0"/></clipPath><clipPath id="d"><path d="M0 0h43v28H0z"/></clipPath><clipPath id="g"><path d="M0 0h75v75H0z"/></clipPath><g id="h" clip-path="url(#a)"><g clip-path="url(#b)"><path d="M3.227 15.89a4.2 4.2 0 0 0 1.699.31c2.3 0 2.3-1.891 2.3-3.204V.926h3.547v13.847c0 1.93-1.207 4.63-4.867 4.63a9.3 9.3 0 0 1-2.718-.348V15.89Zm0 0"/></g><g clip-path="url(#c)"><path d="M26.629.926h5.7v18.129h-3.4V4.125h-.038l-4.793 14.93h-3.395l-4.797-14.93-.035.04v14.89h-3.434V.925h5.696l4.23 13.77h.035Zm0 0"/></g></g><g id="i" clip-path="url(#d)"><g clip-path="url(#e)"><path d="M2.594 22.348c1.785.71 3.722 1.195 5.77 1.195 2.156 0 5.472-1.047 5.472-3.684 0-3.054-2.422-4.062-5.734-4.062H5.57v-4.09h2.383c3.496 0 5.77-1.16 5.77-3.43 0-2.605-2.125-3.422-4.47-3.422-2.042 0-4.019.485-5.839 1.375L3.11 2.063C5.2 1.243 7.691.762 10.371.762c3.203 0 8.559 1.113 8.559 6.66 0 3.535-2.196 5.21-4.836 6.223v.07c3.312.445 4.953 3.012 4.953 6.176 0 6.18-5.625 7.746-9.942 7.746-2.273 0-4.878-.297-6.808-.856z"/></g><g clip-path="url(#f)"><path d="M22.617 14.273c0-6.511 1.973-13.511 9.008-13.511 7.594 0 9.082 7.48 9.082 13.511 0 6.032-1.562 13.364-9.082 13.364-8.004 0-9.008-7.926-9.008-13.364m12.88 0c0-3.351 0-9.644-3.872-9.644-3.797 0-3.797 6.293-3.797 9.644 0 3.274-.039 9.493 3.797 9.493 3.906 0 3.871-6.22 3.871-9.493m0 0"/></g></g><g id="j" clip-path="url(#g)"><path fill="#EB5C01" d="M0 68.5v-62A6.5 6.5 0 0 1 6.5 0h62A6.5 6.5 0 0 1 75 6.5v62a6.5 6.5 0 0 1-6.5 6.5h-62A6.5 6.5 0 0 1 0 68.5m0 0"/><path fill="#FFF" d="M7.5 67.5v-60h60v60Zm0 0"/><use xlink:href="#h" transform="translate(20 10)"/><use xlink:href="#i" transform="translate(16 33)"/></g></defs><use xlink:href="#j"/></svg>