<svg xmlns="http://www.w3.org/2000/svg" xmlns:xlink="http://www.w3.org/1999/xlink" width="75" height="75"><defs><clipPath id="b"><path d="M.46.129h30.08V17H.46Zm0 0"/></clipPath><clipPath id="a"><path d="M0 0h31v18H0z"/></clipPath><clipPath id="d"><path d="M2 .621h17v25H2Zm0 0"/></clipPath><clipPath id="e"><path d="M20 .621h17v25H20Zm0 0"/></clipPath><clipPath id="c"><path d="M0 0h39v26H0z"/></clipPath><clipPath id="f"><path d="M0 0h75v75H0z"/></clipPath><g clip-path="url(#a)"><g id="g" clip-path="url(#b)"><path fill="#211B19" d="M5.672 2.992h-4.7V.426h12.65v2.566h-4.7v13.844h-3.25ZM19.43 14.27h1.793c2.82 0 5.472-2.051 5.472-5.641 0-3.586-2.652-5.637-5.472-5.637H19.43ZM16.098.426h4.527c5.043 0 9.402 1.71 9.402 8.203 0 6.496-4.359 8.207-9.402 8.207h-4.527Zm0 0"/></g></g><g id="h" clip-path="url(#c)"><g clip-path="url(#d)"><path d="M2.082 13.191c0-6.062 1.836-12.57 8.379-12.57 7.066 0 8.45 6.957 8.45 12.57 0 5.61-1.454 12.43-8.45 12.43-7.445 0-8.379-7.375-8.379-12.43m11.984 0c0-3.117 0-8.972-3.605-8.972-3.531 0-3.531 5.855-3.531 8.972 0 3.047-.035 8.829 3.53 8.829 3.638 0 3.606-5.782 3.606-8.829m0 0"/></g><g clip-path="url(#e)"><path d="M20.848 25.203v-4.05c2.25-2.18 10.457-9.04 10.457-13.47 0-2.218-1.973-3.257-3.95-3.257-2.039 0-3.98.902-5.57 1.941l-.383-4.015c2.18-1.11 4.711-1.73 7.164-1.73 4.61 0 7.586 2.32 7.586 7.062 0 5.125-5.16 9.832-9.105 13.71h9.871v3.81z"/></g></g><g id="i" clip-path="url(#f)"><path fill="#4799D9" d="M0 54.148V20.852C0 9.336 9.336 0 20.852 0h33.3C65.664 0 75 9.336 75 20.852v33.296C75 65.664 65.664 75 54.152 75h-33.3C9.336 75 0 65.664 0 54.148m0 0"/><path fill="#FFF" d="M8.32 54.148V20.852c0-6.922 5.61-12.532 12.532-12.532h33.3c6.918 0 12.528 5.61 12.528 12.532v33.296c0 6.922-5.61 12.532-12.528 12.532h-33.3c-6.922 0-12.532-5.61-12.532-12.532m0 0"/><use xlink:href="#g" transform="translate(22 13)"/><use xlink:href="#h" transform="translate(18 36)"/></g></defs><use xlink:href="#i"/></svg>