<svg xmlns="http://www.w3.org/2000/svg" xmlns:xlink="http://www.w3.org/1999/xlink" width="75" height="75"><defs><clipPath id="b"><path d="M.46.129h30.08V17H.46Zm0 0"/></clipPath><clipPath id="a"><path d="M0 0h31v18H0z"/></clipPath><clipPath id="d"><path d="M3 1h13v24.621H3Zm0 0"/></clipPath><clipPath id="e"><path d="M21 .621h17v25H21Zm0 0"/></clipPath><clipPath id="c"><path d="M0 0h41v26H0z"/></clipPath><clipPath id="f"><path d="M0 0h75v75H0z"/></clipPath><g clip-path="url(#a)"><g id="g" clip-path="url(#b)"><path fill="#211B19" d="M5.672 2.992h-4.7V.426h12.65v2.566h-4.7v13.844h-3.25ZM19.43 14.27h1.793c2.82 0 5.472-2.051 5.472-5.641 0-3.586-2.652-5.637-5.472-5.637H19.43ZM16.098.426h4.527c5.043 0 9.402 1.71 9.402 8.203 0 6.496-4.359 8.207-9.402 8.207h-4.527Zm0 0"/></g></g><g id="h" clip-path="url(#c)"><g clip-path="url(#d)"><path d="M10.738 1.035h4.293v24.172h-4.847V6.539L6.098 9.863 3.676 6.715z"/></g><g clip-path="url(#e)"><path d="M22.023 20.707c1.66.656 3.461 1.102 5.364 1.102 2.008 0 5.093-.965 5.093-3.426 0-2.84-2.253-3.774-5.335-3.774h-2.352v-3.808h2.219c3.25 0 5.363-1.07 5.363-3.184 0-2.426-1.973-3.187-4.156-3.187-1.903 0-3.739.449-5.434 1.285l-.277-3.88c1.937-.765 4.258-1.214 6.75-1.214 2.976 0 7.965 1.04 7.965 6.195 0 3.29-2.043 4.852-4.5 5.786v.066c3.082.418 4.601 2.809 4.601 5.754 0 5.746-5.226 7.2-9.242 7.2-2.113 0-4.539-.278-6.336-.798z"/></g></g><g id="i" clip-path="url(#f)"><path fill="#4799D9" d="M0 54.148V20.852C0 9.336 9.336 0 20.852 0h33.3C65.664 0 75 9.336 75 20.852v33.296C75 65.664 65.664 75 54.152 75h-33.3C9.336 75 0 65.664 0 54.148m0 0"/><path fill="#FFF" d="M8.32 54.148V20.852c0-6.922 5.61-12.532 12.532-12.532h33.3c6.918 0 12.528 5.61 12.528 12.532v33.296c0 6.922-5.61 12.532-12.528 12.532h-33.3c-6.922 0-12.532-5.61-12.532-12.532m0 0"/><use xlink:href="#g" transform="translate(22 13)"/><use xlink:href="#h" transform="translate(17 36)"/></g></defs><use xlink:href="#i"/></svg>