<svg xmlns="http://www.w3.org/2000/svg" xmlns:xlink="http://www.w3.org/1999/xlink" width="75" height="75"><defs><clipPath id="b"><path d="M.46.129h30.08V17H.46Zm0 0"/></clipPath><clipPath id="a"><path d="M0 0h31v18H0z"/></clipPath><clipPath id="d"><path d="M3 .621h17v25H3Zm0 0"/></clipPath><clipPath id="e"><path d="M22 1h12v24.621H22Zm0 0"/></clipPath><clipPath id="c"><path d="M0 0h41v26H0z"/></clipPath><clipPath id="f"><path d="M0 0h75v75H0z"/></clipPath><g clip-path="url(#a)"><g id="g" clip-path="url(#b)"><path fill="#211B19" d="M5.672 2.992h-4.7V.426h12.65v2.566h-4.7v13.844h-3.25ZM19.43 14.27h1.793c2.82 0 5.472-2.051 5.472-5.641 0-3.586-2.652-5.637-5.472-5.637H19.43ZM16.098.426h4.527c5.043 0 9.402 1.71 9.402 8.203 0 6.496-4.359 8.207-9.402 8.207h-4.527Zm0 0"/></g></g><g id="h" clip-path="url(#c)"><g clip-path="url(#d)"><path fill="#1A1A1A" d="M3.84 25.414V21.36c2.223-2.183 10.32-9.035 10.32-13.464 0-2.22-1.945-3.258-3.894-3.258-2.016 0-3.93.898-5.504 1.941l-.375-4.02C6.539 1.45 9.035.829 11.457.829c4.547 0 7.484 2.32 7.484 7.063 0 5.125-5.09 9.836-8.984 13.714h9.734v3.81z"/></g><g clip-path="url(#e)"><path fill="#1A1A1A" d="M29.734 1.242h4.239v24.172h-4.785V6.746L25.16 10.07l-2.394-3.148z"/></g></g><g id="i" clip-path="url(#f)"><path fill="#4799D9" d="M0 54.148V20.852C0 9.336 9.336 0 20.852 0h33.3C65.664 0 75 9.336 75 20.852v33.296C75 65.664 65.664 75 54.152 75h-33.3C9.336 75 0 65.664 0 54.148m0 0"/><path fill="#FFF" d="M8.32 54.148V20.852c0-6.922 5.61-12.532 12.532-12.532h33.3c6.918 0 12.528 5.61 12.528 12.532v33.296c0 6.922-5.61 12.532-12.528 12.532h-33.3c-6.922 0-12.532-5.61-12.532-12.532m0 0"/><use xlink:href="#g" transform="translate(22 13)"/><use xlink:href="#h" transform="translate(17 36)"/></g></defs><use xlink:href="#i"/></svg>