<svg xmlns="http://www.w3.org/2000/svg" xmlns:xlink="http://www.w3.org/1999/xlink" width="75" height="75"><defs><clipPath id="b"><path d="M.46.129h30.08V17H.46Zm0 0"/></clipPath><clipPath id="a"><path d="M0 0h31v18H0z"/></clipPath><clipPath id="d"><path d="M2 .621h17v25H2Zm0 0"/></clipPath><clipPath id="e"><path d="M22 .621h17v25H22Zm0 0"/></clipPath><clipPath id="c"><path d="M0 0h41v26H0z"/></clipPath><clipPath id="f"><path d="M0 0h75v75H0z"/></clipPath><g clip-path="url(#a)"><g id="g" clip-path="url(#b)"><path fill="#211B19" d="M5.672 2.992h-4.7V.426h12.65v2.566h-4.7v13.844h-3.25ZM19.43 14.27h1.793c2.82 0 5.472-2.051 5.472-5.641 0-3.586-2.652-5.637-5.472-5.637H19.43ZM16.098.426h4.527c5.043 0 9.402 1.71 9.402 8.203 0 6.496-4.359 8.207-9.402 8.207h-4.527Zm0 0"/></g></g><g id="h" clip-path="url(#c)"><g clip-path="url(#d)"><path d="M2.707 25.203v-4.05c2.25-2.184 10.453-9.04 10.453-13.47 0-2.214-1.973-3.253-3.945-3.253-2.043 0-3.985.898-5.574 1.937l-.383-4.015c2.18-1.106 4.71-1.73 7.168-1.73 4.601 0 7.582 2.32 7.582 7.062 0 5.125-5.16 9.832-9.106 13.71h9.868v3.81z"/></g><g clip-path="url(#e)"><path d="M36.46 5.398c-1.28-.55-2.597-.968-4.222-.968-4.191 0-5.61 3.879-5.75 7.476l.07.07c1.141-1.66 2.63-2.421 4.672-2.421 4.575 0 7.063 2.906 7.063 7.37 0 5.231-2.559 8.696-8.027 8.696-6.72 0-8.207-5.578-8.207-11.254 0-6.547 2.109-13.746 9.937-13.746 1.766 0 3.426.277 5.086.867zm-9.559 12.325c0 2.289.97 4.293 3.364 4.293 2.25 0 3.183-2.176 3.183-4.325 0-2.359-.972-4.539-3.293-4.539-2.355 0-3.254 2.149-3.254 4.57m0 0"/></g></g><g id="i" clip-path="url(#f)"><path fill="#4799D9" d="M0 54.148V20.852C0 9.336 9.336 0 20.852 0h33.3C65.664 0 75 9.336 75 20.852v33.296C75 65.664 65.664 75 54.152 75h-33.3C9.336 75 0 65.664 0 54.148m0 0"/><path fill="#FFF" d="M8.32 54.148V20.852c0-6.922 5.61-12.532 12.532-12.532h33.3c6.918 0 12.528 5.61 12.528 12.532v33.296c0 6.922-5.61 12.532-12.528 12.532h-33.3c-6.922 0-12.532-5.61-12.532-12.532m0 0"/><use xlink:href="#g" transform="translate(22 13)"/><use xlink:href="#h" transform="translate(17 36)"/></g></defs><use xlink:href="#i"/></svg>