<svg xmlns="http://www.w3.org/2000/svg" xmlns:xlink="http://www.w3.org/1999/xlink" width="75" height="75"><defs><clipPath id="b"><path d="M.46.129h30.08V17H.46Zm0 0"/></clipPath><clipPath id="a"><path d="M0 0h31v18H0z"/></clipPath><clipPath id="d"><path d="M2 .621h17v25H2Zm0 0"/></clipPath><clipPath id="e"><path d="M21 .621h18v25H21Zm0 0"/></clipPath><clipPath id="c"><path d="M0 0h41v26H0z"/></clipPath><clipPath id="f"><path d="M0 0h75v75H0z"/></clipPath><g clip-path="url(#a)"><g id="g" clip-path="url(#b)"><path fill="#211B19" d="M5.672 2.992h-4.7V.426h12.65v2.566h-4.7v13.844h-3.25ZM19.43 14.27h1.793c2.82 0 5.472-2.051 5.472-5.641 0-3.586-2.652-5.637-5.472-5.637H19.43ZM16.098.426h4.527c5.043 0 9.402 1.71 9.402 8.203 0 6.496-4.359 8.207-9.402 8.207h-4.527Zm0 0"/></g></g><g id="h" clip-path="url(#c)"><g clip-path="url(#d)"><path d="M2.566 25.2v-4.048c2.25-2.18 10.457-9.039 10.457-13.468 0-2.22-1.976-3.258-3.949-3.258-2.043 0-3.98.898-5.574 1.941l-.379-4.02A16.05 16.05 0 0 1 10.285.622c4.606 0 7.586 2.316 7.586 7.063 0 5.12-5.16 9.832-9.11 13.71h9.868V25.2z"/></g><g clip-path="url(#e)"><path d="M33.793 12.184v.07c3.187 1.488 4.64 3.566 4.64 6.336 0 4.883-3.53 7.031-8.308 7.031-4.707 0-8.52-2.047-8.52-6.965 0-2.699 1.524-4.57 4.434-5.988v-.066c-2.426-1.075-4.02-3.082-4.02-5.614 0-4.324 3.294-6.367 7.688-6.367 4.258 0 8.105 1.762 8.105 5.817 0 2.18-1.347 4.707-4.019 5.78zm-7.34 6.406c0 2.008 1.73 3.43 3.672 3.43 1.941 0 3.46-1.215 3.46-3.223 0-2.387-2.042-3.531-4.05-4.192-1.734.832-3.082 1.946-3.082 3.985m6.719-11.32c0-1.805-1.14-3.051-2.98-3.051-1.762 0-3.528.968-3.528 2.91 0 2.078 2.145 3.012 3.809 3.633 1.347-.485 2.699-2.008 2.699-3.492m0 0"/></g></g><g id="i" clip-path="url(#f)"><path fill="#4799D9" d="M0 54.148V20.852C0 9.336 9.336 0 20.852 0h33.3C65.664 0 75 9.336 75 20.852v33.296C75 65.664 65.664 75 54.152 75h-33.3C9.336 75 0 65.664 0 54.148m0 0"/><path fill="#FFF" d="M8.32 54.148V20.852c0-6.922 5.61-12.532 12.532-12.532h33.3c6.918 0 12.528 5.61 12.528 12.532v33.296c0 6.922-5.61 12.532-12.528 12.532h-33.3c-6.922 0-12.532-5.61-12.532-12.532m0 0"/><use xlink:href="#g" transform="translate(22 13)"/><use xlink:href="#h" transform="translate(17 36)"/></g></defs><use xlink:href="#i"/></svg>