<svg xmlns="http://www.w3.org/2000/svg" xmlns:xlink="http://www.w3.org/1999/xlink" width="75" height="75"><defs><clipPath id="b"><path d="M.46.129h30.08V17H.46Zm0 0"/></clipPath><clipPath id="a"><path d="M0 0h31v18H0z"/></clipPath><clipPath id="d"><path d="M2 .621h17v25H2Zm0 0"/></clipPath><clipPath id="e"><path d="M22 .621h17v25H22Zm0 0"/></clipPath><clipPath id="c"><path d="M0 0h41v26H0z"/></clipPath><clipPath id="f"><path d="M0 0h75v75H0z"/></clipPath><g clip-path="url(#a)"><g id="g" clip-path="url(#b)"><path fill="#211B19" d="M5.672 2.992h-4.7V.426h12.65v2.566h-4.7v13.844h-3.25ZM19.43 14.27h1.793c2.82 0 5.472-2.051 5.472-5.641 0-3.586-2.652-5.637-5.472-5.637H19.43ZM16.098.426h4.527c5.043 0 9.402 1.71 9.402 8.203 0 6.496-4.359 8.207-9.402 8.207h-4.527Zm0 0"/></g></g><g id="h" clip-path="url(#c)"><g clip-path="url(#d)"><path d="M2.707 25.2v-4.048c2.246-2.18 10.453-9.039 10.453-13.468 0-2.22-1.973-3.258-3.945-3.258-2.043 0-3.985.898-5.578 1.941l-.38-4.02C5.438 1.243 7.97.622 10.427.622c4.601 0 7.582 2.316 7.582 7.063 0 5.12-5.16 9.832-9.106 13.71h9.868V25.2z"/></g><g clip-path="url(#e)"><path d="M23.895 20.84c1.28.555 2.593.969 4.222.969 4.192 0 5.61-3.875 5.746-7.477l-.066-.07c-1.145 1.695-2.633 2.422-4.676 2.422-4.57 0-7.066-2.907-7.066-7.375C22.055 4.082 24.62.62 30.09.62c6.719 0 8.203 5.57 8.203 11.25 0 6.547-2.11 13.75-9.934 13.75-1.765 0-3.425-.281-5.09-.867zm9.554-12.324c0-2.286-.969-4.297-3.36-4.297-2.25 0-3.183 2.183-3.183 4.332 0 2.351.965 4.531 3.29 4.531 2.355 0 3.253-2.145 3.253-4.566m0 0"/></g></g><g id="i" clip-path="url(#f)"><path fill="#4799D9" d="M0 54.148V20.852C0 9.336 9.336 0 20.852 0h33.3C65.664 0 75 9.336 75 20.852v33.296C75 65.664 65.664 75 54.152 75h-33.3C9.336 75 0 65.664 0 54.148m0 0"/><path fill="#FFF" d="M8.32 54.148V20.852c0-6.922 5.61-12.532 12.532-12.532h33.3c6.918 0 12.528 5.61 12.528 12.532v33.296c0 6.922-5.61 12.532-12.528 12.532h-33.3c-6.922 0-12.532-5.61-12.532-12.532m0 0"/><use xlink:href="#g" transform="translate(22 13)"/><use xlink:href="#h" transform="translate(17 36)"/></g></defs><use xlink:href="#i"/></svg>