<svg xmlns="http://www.w3.org/2000/svg" xmlns:xlink="http://www.w3.org/1999/xlink" width="75" height="75"><defs><clipPath id="b"><path d="M.46.129h30.08V17H.46Zm0 0"/></clipPath><clipPath id="a"><path d="M0 0h31v18H0z"/></clipPath><clipPath id="d"><path d="M3 .621h16v25H3Zm0 0"/></clipPath><clipPath id="e"><path d="M21 .621h17v25H21Zm0 0"/></clipPath><clipPath id="c"><path d="M0 0h41v26H0z"/></clipPath><clipPath id="f"><path d="M0 0h75v75H0z"/></clipPath><g clip-path="url(#a)"><g id="g" clip-path="url(#b)"><path fill="#211B19" d="M5.672 2.992h-4.7V.426h12.65v2.566h-4.7v13.844h-3.25ZM19.43 14.27h1.793c2.82 0 5.472-2.051 5.472-5.641 0-3.586-2.652-5.637-5.472-5.637H19.43ZM16.098.426h4.527c5.043 0 9.402 1.71 9.402 8.203 0 6.496-4.359 8.207-9.402 8.207h-4.527Zm0 0"/></g></g><g id="h" clip-path="url(#c)"><g clip-path="url(#d)"><path d="M3.535 20.7c1.664.66 3.461 1.109 5.367 1.109 2.008 0 5.09-.97 5.09-3.426 0-2.84-2.25-3.778-5.332-3.778H6.305v-3.804h2.218c3.254 0 5.364-1.078 5.364-3.188 0-2.426-1.977-3.187-4.157-3.187-1.898 0-3.738.453-5.437 1.281L4.02 1.832c1.937-.766 4.257-1.21 6.753-1.21 2.977 0 7.965 1.03 7.965 6.194 0 3.29-2.047 4.848-4.504 5.786v.066c3.082.414 4.606 2.805 4.606 5.746 0 5.75-5.227 7.207-9.246 7.207-2.114 0-4.535-.281-6.336-.797z"/></g><g clip-path="url(#e)"><path d="M21.676 25.2v-4.048c2.25-2.18 10.46-9.039 10.46-13.468 0-2.22-1.976-3.258-3.952-3.258-2.04 0-3.98.898-5.57 1.941l-.384-4.02A16.06 16.06 0 0 1 29.398.622c4.606 0 7.582 2.316 7.582 7.063 0 5.12-5.16 9.832-9.109 13.71h9.871V25.2z"/></g></g><g id="i" clip-path="url(#f)"><path fill="#4799D9" d="M0 54.148V20.852C0 9.336 9.336 0 20.852 0h33.3C65.664 0 75 9.336 75 20.852v33.296C75 65.664 65.664 75 54.152 75h-33.3C9.336 75 0 65.664 0 54.148m0 0"/><path fill="#FFF" d="M8.32 54.148V20.852c0-6.922 5.61-12.532 12.532-12.532h33.3c6.918 0 12.528 5.61 12.528 12.532v33.296c0 6.922-5.61 12.532-12.528 12.532h-33.3c-6.922 0-12.532-5.61-12.532-12.532m0 0"/><use xlink:href="#g" transform="translate(22 13)"/><use xlink:href="#h" transform="translate(17 36)"/></g></defs><use xlink:href="#i"/></svg>