<svg xmlns="http://www.w3.org/2000/svg" xml:space="preserve" width="70" height="30"><path d="M30 0h10v30H30z" style="fill:#eb5c01;fill-opacity:1;stroke-width:.191111;paint-order:fill markers stroke"/><circle cx="35" cy="15" r="6" style="fill:#fff;fill-opacity:1;stroke:#eb5c01;stroke-width:2;stroke-dasharray:none;stroke-opacity:1;paint-order:fill markers stroke"/><path d="M44.016 0h10v15h-10z" style="fill:#ffe501;fill-opacity:1;stroke-width:.135136;paint-order:fill markers stroke"/><circle cx="49.016" cy="15" r="6" style="fill:#fff;fill-opacity:1;stroke:#ffe501;stroke-width:2;stroke-dasharray:none;stroke-opacity:1;paint-order:fill markers stroke"/><path fill="red" d="m43.076 6.94-2.12 2.12 5.94 5.94-5.94 5.94 2.12 2.12 5.94-5.94 5.94 5.94 2.12-2.12-5.94-5.94 5.94-5.94-2.12-2.12-5.94 5.94Z" style="paint-order:fill markers stroke;fill:red"/><path fill="red" d="m29.06 6.94-2.12 2.12L32.88 15l-5.94 5.94 2.12 2.12L35 17.12l5.94 5.94 2.12-2.12L37.12 15l5.94-5.94-2.12-2.12L35 12.88Z" style="fill:red;paint-order:fill markers stroke"/></svg>