<?xml version="1.0" encoding="UTF-8"?>
<!-- Created with Inkscape (http://www.inkscape.org/) -->
<svg width="70" height="30" version="1.1" viewBox="0 0 70 30" xml:space="preserve" xmlns="http://www.w3.org/2000/svg" xmlns:xlink="http://www.w3.org/1999/xlink"><defs><clipPath id="b"><path d="m1 0.625h14v18.8h-14z"/></clipPath><clipPath id="c"><path d="m16 0.625h18v18.8h-18z"/></clipPath><clipPath id="a"><path d="M0 0h35v20H0z"/></clipPath><clipPath id="e"><path d="m3 0.762h17v26.9h-17z"/></clipPath><clipPath id="f"><path d="m23 0.762h17v26.9h-17z"/></clipPath><clipPath id="d"><path d="M0 0h43v28H0z"/></clipPath><clipPath id="g"><path d="M0 0h75v75H0z"/></clipPath><g id="h" clip-path="url(#a)"/><g id="i" clip-path="url(#d)"/><linearGradient id="linearGradient13" x1="30" x2="70" y1="12.5" y2="12.5" gradientTransform="matrix(1,0,0,-1,0,30)" gradientUnits="userSpaceOnUse"><stop stop-color="#cf1126" offset="0"/><stop stop-color="#f22235" offset="1"/></linearGradient></defs><g><rect x="30" width="10" height="30" fill="#cf1126" stroke-width="0" style="paint-order:fill markers stroke"/><path d="m50 5s-4.79-0.069-9.74 2.4-10.3 8.43-10.3 17.6v5h10v-5c0-5.83 2.18-7.37 4.74-8.65 2.56-1.28 5.26-1.35 5.26-1.35h20v-10z" fill="url(#linearGradient13)" style="paint-order:fill markers stroke"/></g></svg>
