<?xml version="1.0" encoding="UTF-8"?>
<!-- Created with Inkscape (http://www.inkscape.org/) -->
<svg width="70" height="30" version="1.1" viewBox="0 0 70 30" xml:space="preserve" xmlns="http://www.w3.org/2000/svg" xmlns:xlink="http://www.w3.org/1999/xlink"><defs><clipPath id="b"><path d="m1 0.625h14v18.8h-14z"/></clipPath><clipPath id="c"><path d="m16 0.625h18v18.8h-18z"/></clipPath><clipPath id="a"><path d="M0 0h35v20H0z"/></clipPath><clipPath id="e"><path d="m3 0.762h17v26.9h-17z"/></clipPath><clipPath id="f"><path d="m23 0.762h17v26.9h-17z"/></clipPath><clipPath id="d"><path d="M0 0h43v28H0z"/></clipPath><clipPath id="g"><path d="M0 0h75v75H0z"/></clipPath><g id="h" clip-path="url(#a)"/><g id="i" clip-path="url(#d)"/></defs><g><rect x="30" width="10" height="30" fill="#85c024" stroke-width="0" style="paint-order:fill markers stroke"/><path d="m40 0v5c0 5.42 2.34 7.44 4.87 8.7s5.13 1.3 5.13 1.3h20v5h-20s-3.65 0.035-7.37-1.83c-3.72-1.86-7.63-6.09-7.63-13.2v-5z" fill="#00a7e3" style="paint-order:fill markers stroke"/></g></svg>
