<?xml version="1.0" encoding="UTF-8" standalone="no"?>
<!-- Created with Inkscape (http://www.inkscape.org/) -->

<svg
   width="70"
   height="30"
   version="1.1"
   viewBox="0 0 70 30"
   xml:space="preserve"
   id="svg8"
   sodipodi:docname="03A.svg"
   inkscape:version="1.4 (e7c3feb1, 2024-10-09)"
   xmlns:inkscape="http://www.inkscape.org/namespaces/inkscape"
   xmlns:sodipodi="http://sodipodi.sourceforge.net/DTD/sodipodi-0.dtd"
   xmlns="http://www.w3.org/2000/svg"
   xmlns:svg="http://www.w3.org/2000/svg"><sodipodi:namedview
     id="namedview8"
     pagecolor="#ffffff"
     bordercolor="#000000"
     borderopacity="0.25"
     inkscape:showpageshadow="2"
     inkscape:pageopacity="0.0"
     inkscape:pagecheckerboard="0"
     inkscape:deskcolor="#d1d1d1"
     inkscape:zoom="4.860698"
     inkscape:cx="39.70623"
     inkscape:cy="31.68269"
     inkscape:window-width="1440"
     inkscape:window-height="647"
     inkscape:window-x="0"
     inkscape:window-y="25"
     inkscape:window-maximized="0"
     inkscape:current-layer="svg8" /><defs
     id="defs7"><clipPath
       id="b"><path
         d="m1 0.625h14v18.8h-14z"
         id="path1" /></clipPath><clipPath
       id="c"><path
         d="m16 0.625h18v18.8h-18z"
         id="path2" /></clipPath><clipPath
       id="a"><path
         d="M0 0h35v20H0z"
         id="path3" /></clipPath><clipPath
       id="e"><path
         d="m3 0.762h17v26.9h-17z"
         id="path4" /></clipPath><clipPath
       id="f"><path
         d="m23 0.762h17v26.9h-17z"
         id="path5" /></clipPath><clipPath
       id="d"><path
         d="M0 0h43v28H0z"
         id="path6" /></clipPath><clipPath
       id="g"><path
         d="M0 0h75v75H0z"
         id="path7" /></clipPath><g
       id="h"
       clip-path="url(#a)" /><g
       id="i"
       clip-path="url(#d)" /></defs><rect
     x="30"
     width="10"
     height="30"
     fill="#85c024"
     stroke-width="0"
     style="paint-order:fill markers stroke;fill:#00a7e3;fill-opacity:1"
     id="rect7"
     y="0" /><path
     d="M 35,0 V 5.03 C 35,10.45 37.34,12.47 39.87,13.73 42.4,14.99 45,15.03 45,15.03 H 70 V 20.03 H 45 C 45,20.03 41.35,20.065 37.63,18.2 33.91,16.34 30,12.11 30,5 V 0 Z"
     fill="#00a7e3"
     style="fill:#85c024;fill-opacity:1;paint-order:fill markers stroke"
     id="path8"
     sodipodi:nodetypes="csscccccscc" /></svg>
