<?xml version="1.0" encoding="UTF-8"?>
<svg width="70" height="30" version="1.1" xml:space="preserve" xmlns="http://www.w3.org/2000/svg" xmlns:xlink="http://www.w3.org/1999/xlink"><defs><clipPath id="b"><path d="m1 0.625h14v18.8h-14z"/></clipPath><clipPath id="c"><path d="m16 0.625h18v18.8h-18z"/></clipPath><clipPath id="a"><path d="M0 0h35v20H0z"/></clipPath><clipPath id="e"><path d="m3 0.762h17v26.9h-17z"/></clipPath><clipPath id="f"><path d="m23 0.762h17v26.9h-17z"/></clipPath><clipPath id="d"><path d="M0 0h43v28H0z"/></clipPath><g id="h" clip-path="url(#a)"/><g id="i" clip-path="url(#d)"/><linearGradient id="linearGradient13" x1="64.1" x2="35.9" y1="5.84" y2="34.1" gradientUnits="userSpaceOnUse"><stop stop-color="#ff9844" offset="0"/><stop stop-color="#de0615" offset="1"/></linearGradient></defs><path d="m30 0h10v30h-10z" fill="#de0615" style="paint-order:fill markers stroke"/><path d="m35 0h5v30h-5z" fill="#0171c5" stroke-width="0" style="paint-order:fill markers stroke"/><path d="m35 30v-5c0-5.42 2.34-7.44 4.87-8.7s5.13-1.3 5.13-1.3h25v-5h-25s-3.65-0.035-7.37 1.83c-3.72 1.86-7.63 6.09-7.63 13.2v5z" fill="url(#linearGradient13)" style="paint-order:fill markers stroke"/></svg>
