<?xml version="1.0" encoding="UTF-8"?>
<svg width="70" height="30" version="1.1" xml:space="preserve" xmlns="http://www.w3.org/2000/svg" xmlns:xlink="http://www.w3.org/1999/xlink"><defs><clipPath id="b"><path d="m1 0.625h14v18.8h-14z"/></clipPath><clipPath id="c"><path d="m16 0.625h18v18.8h-18z"/></clipPath><clipPath id="a"><path d="M0 0h35v20H0z"/></clipPath><clipPath id="e"><path d="m3 0.762h17v26.9h-17z"/></clipPath><clipPath id="f"><path d="m23 0.762h17v26.9h-17z"/></clipPath><clipPath id="d"><path d="M0 0h43v28H0z"/></clipPath><g id="h" clip-path="url(#a)"/><g id="i" clip-path="url(#d)"/><style>.cls-1{fill:#0073bc;}.cls-2{fill:#fff;}.cls-3{fill:#f99d1c;}</style><linearGradient id="linearGradient15" x1="64.1" x2="35.9" y1="3.36" y2="31.6" gradientUnits="userSpaceOnUse"><stop stop-color="#0073bc" offset="0"/><stop stop-color="#de0615" offset="1"/></linearGradient></defs><g><path d="m30 0h10v30h-10z" fill="#de0615" style="paint-order:fill markers stroke"/><path d="m50 5s-4.79-0.069-9.74 2.4-10.3 8.43-10.3 17.6v5h10v-5c0-5.83 2.18-7.37 4.74-8.65 2.56-1.28 5.26-1.35 5.26-1.35h20v-10z" fill="url(#linearGradient15)" style="paint-order:fill markers stroke"/><path d="m40 0h-5v30h5z" fill="#0171c5" style="paint-order:fill markers stroke"/></g></svg>
