<svg xmlns="http://www.w3.org/2000/svg" xmlns:xlink="http://www.w3.org/1999/xlink" xml:space="preserve" width="70" height="30"><defs><linearGradient id="l"><stop offset="0" style="stop-color:#de0615;stop-opacity:1"/><stop offset="1" style="stop-color:#ff9844;stop-opacity:1"/></linearGradient><linearGradient id="n" x1="35.9" x2="64.1" y1="-1.64" y2="26.6" gradientTransform="translate(23.775 -31.948)" gradientUnits="userSpaceOnUse"><stop offset="0" stop-color="#de0615"/><stop offset="1" stop-color="#ff9844"/></linearGradient><linearGradient id="m" x1="35" x2="35" y1="0" y2="30" gradientUnits="userSpaceOnUse"><stop offset="0" stop-color="#de0615"/><stop offset="1" stop-color="#ff9844"/></linearGradient><linearGradient xlink:href="#l" id="o" x1="40.086" x2="64.834" y1="-2.359" y2="22.389" gradientTransform="translate(.04 -.015)" gradientUnits="userSpaceOnUse"/></defs><path fill="url(#m)" d="M30 0h10v30H30Z" style="fill:url(#m);paint-order:fill markers stroke"/><path fill="#de0615" d="M30 0h5v30h-5Z" style="fill:#ff9844;fill-opacity:1;stroke-width:.999997;paint-order:fill markers stroke"/><path fill="url(#n)" d="M50.04 25s-4.79.069-9.74-2.4S30 14.17 30 5V0h10v5c0 5.83 2.18 7.37 4.74 8.65S50 15 50 15h20v10Z" style="fill:#ff9844;paint-order:fill markers stroke;fill-opacity:1"/><path fill="#00a7e3" d="M40-.015v5.03c0 5.42 2.34 7.44 4.87 8.7s5.13 1.3 5.13 1.3h20v5H50s-3.65.035-7.37-1.83c-3.72-1.86-7.63-6.09-7.63-13.2v-5Z" style="fill:url(#o);paint-order:fill markers stroke"/></svg>