<?xml version="1.0" encoding="UTF-8"?>
<svg width="70" height="30" version="1.1" xml:space="preserve" xmlns="http://www.w3.org/2000/svg" xmlns:xlink="http://www.w3.org/1999/xlink"><defs><clipPath id="b"><path d="m1 0.625h14v18.8h-14z"/></clipPath><clipPath id="c"><path d="m16 0.625h18v18.8h-18z"/></clipPath><clipPath id="a"><path d="M0 0h35v20H0z"/></clipPath><clipPath id="e"><path d="m3 0.762h17v26.9h-17z"/></clipPath><clipPath id="f"><path d="m23 0.762h17v26.9h-17z"/></clipPath><clipPath id="d"><path d="M0 0h43v28H0z"/></clipPath><g id="h" clip-path="url(#a)"/><g id="i" clip-path="url(#d)"/><linearGradient id="linearGradient3" x1="35.9" x2="64.1" y1="-1.64" y2="26.6" gradientUnits="userSpaceOnUse"><stop stop-color="#de0615" offset="0"/><stop stop-color="#ff9844" offset="1"/></linearGradient><linearGradient id="linearGradient6" x1="35" x2="35" y1="10" y2="20" gradientUnits="userSpaceOnUse"><stop stop-color="#de0615" offset="0"/><stop stop-color="#ff9844" offset="1"/></linearGradient></defs><path d="m30 0h10v30h-10z" fill="url(#linearGradient6)" stroke-width="1.41" style="paint-order:fill markers stroke"/><path d="m50 25s-4.79 0.069-9.74-2.4-10.3-8.43-10.3-17.6v-5h10v5c0 5.83 2.18 7.37 4.74 8.65 2.56 1.28 5.26 1.35 5.26 1.35h20v10z" fill="url(#linearGradient3)" style="paint-order:fill markers stroke"/></svg>
