<?xml version="1.0" encoding="UTF-8"?>
<svg width="70" height="30" version="1.1" xml:space="preserve" xmlns="http://www.w3.org/2000/svg" xmlns:xlink="http://www.w3.org/1999/xlink"><defs><linearGradient id="linearGradient5" x1="35" x2="59" y1=".479" y2="24.5" gradientUnits="userSpaceOnUse"><stop stop-color="#ff9844" offset="0"/><stop stop-color="#e8871e" offset="1"/></linearGradient></defs><g><rect x="30" width="10" height="30" ry="0" fill="#ff9844" style="paint-order:fill markers stroke"/><path d="m50 25s-4.79 0.069-9.74-2.4-10.3-8.43-10.3-17.6v-5h10v5c0 5.83 2.18 7.37 4.74 8.65 2.56 1.28 5.26 1.35 5.26 1.35h14v10z" fill="url(#linearGradient5)" style="paint-order:fill markers stroke"/><path d="m64 25s-4.79 0.069-9.74-2.4-10.3-8.43-10.3-17.6v-5h10v5c0 5.83 2.18 7.37 4.74 8.65 2.56 1.28 5.26 1.35 5.26 1.35h6v10z" fill="#e8871e" style="paint-order:fill markers stroke"/></g></svg>
