<svg xmlns="http://www.w3.org/2000/svg" xml:space="preserve" width="70" height="30"><defs><linearGradient id="a" x1="35" x2="59" y1=".479" y2="24.5" gradientUnits="userSpaceOnUse"><stop offset="0" stop-color="#ff9844"/><stop offset="1" stop-color="#e8871e"/></linearGradient></defs><rect width="10" height="30" x="30" fill="#ff9844" ry="0" style="paint-order:fill markers stroke"/><path fill="url(#a)" d="M50 25s-4.79.069-9.74-2.4-10.3-8.43-10.3-17.6V0h10v5c0 5.83 2.18 7.37 4.74 8.65S49.96 15 49.96 15h14v10z" style="paint-order:fill markers stroke"/><path fill="#e8871e" d="M64 25s-4.79.069-9.74-2.4-10.3-8.43-10.3-17.6V0h10v5c0 5.83 2.18 7.37 4.74 8.65S63.96 15 63.96 15h6v10z" style="paint-order:fill markers stroke"/></svg>