<?xml version="1.0" encoding="UTF-8"?>
<svg width="70" height="30" version="1.1" xml:space="preserve" xmlns="http://www.w3.org/2000/svg" xmlns:xlink="http://www.w3.org/1999/xlink"><defs><clipPath id="b"><path d="m1 0.625h14v18.75h-14z"/></clipPath><clipPath id="c"><path d="m16 0.625h18v18.75h-18z"/></clipPath><clipPath id="a"><path d="M0 0h35v20H0z"/></clipPath><clipPath id="e"><path d="m3 0.762h17v26.875h-17z"/></clipPath><clipPath id="f"><path d="m23 0.762h17v26.875h-17z"/></clipPath><clipPath id="d"><path d="M0 0h43v28H0z"/></clipPath><g id="h" clip-path="url(#a)"/><g id="i" clip-path="url(#d)"/><linearGradient id="b-1" x1="66.195" x2="47.821" y1="8.313" y2="26.687" gradientTransform="matrix(1 0 0 -1 -.015989 25)" gradientUnits="userSpaceOnUse"><stop stop-color="#0171c5" offset="0"/><stop stop-color="#0da95c" offset="1"/></linearGradient></defs><g><rect transform="rotate(90)" x="10" y="-70" width="10" height="70" ry="0" fill="#0171c5" style="paint-order:fill markers stroke"/><path d="m29 0h12v30h-12z" fill="#fff" stroke-width="0" style="paint-order:fill markers stroke"/><path d="M30 0h10v30H30z" fill="#0da95c" stroke-width="0" style="paint-order:fill markers stroke"/></g><path d="m64 20s-4.794 0.069-9.736-2.402-10.264-8.431-10.264-17.598h10c0 5.833 2.179 7.374 4.736 8.652 2.558 1.28 5.264 1.348 5.264 1.348h6v10z" fill="url(#b-1)" style="paint-order:fill markers stroke"/></svg>
