<?xml version="1.0" encoding="UTF-8"?>
<svg width="70" height="30" version="1.1" xml:space="preserve" xmlns="http://www.w3.org/2000/svg" xmlns:xlink="http://www.w3.org/1999/xlink"><defs><clipPath id="b"><path d="m1 0.625h14v18.75h-14z"/></clipPath><clipPath id="c"><path d="m16 0.625h18v18.75h-18z"/></clipPath><clipPath id="a"><path d="M0 0h35v20H0z"/></clipPath><clipPath id="e"><path d="m3 0.762h17v26.875h-17z"/></clipPath><clipPath id="f"><path d="m23 0.762h17v26.875h-17z"/></clipPath><clipPath id="d"><path d="M0 0h43v28H0z"/></clipPath><g id="h" clip-path="url(#a)"/><g id="i" clip-path="url(#d)"/></defs><g><path d="m29 0h12v30h-12z" fill="#fff" stroke-width="0" style="paint-order:fill markers stroke"/><path d="M30 0h10v30H30z" fill="#0da95c" stroke-width="0" style="paint-order:fill markers stroke"/><path d="m40 29.97v-5c0-5.42 2.34-7.44 4.87-8.7s5.13-1.3 5.13-1.3h20v-5h-20s-3.65-0.035-7.37 1.83c-3.72 1.86-7.63 6.09-7.63 13.2v5z" fill="#e8d206" style="paint-order:fill markers stroke"/></g></svg>
