<?xml version="1.0" encoding="UTF-8"?>
<svg width="70" height="30" version="1.1" xml:space="preserve" xmlns="http://www.w3.org/2000/svg" xmlns:xlink="http://www.w3.org/1999/xlink"><defs><clipPath id="b"><path d="m1 0.625h14v18.75h-14z"/></clipPath><clipPath id="c"><path d="m16 0.625h18v18.75h-18z"/></clipPath><clipPath id="a"><path d="M0 0h35v20H0z"/></clipPath><clipPath id="e"><path d="m3 0.762h17v26.875h-17z"/></clipPath><clipPath id="f"><path d="m23 0.762h17v26.875h-17z"/></clipPath><clipPath id="d"><path d="M0 0h43v28H0z"/></clipPath><g id="h" clip-path="url(#a)"/><g id="i" clip-path="url(#d)"/><clipPath><path d="M0 0h35v20H0z"/></clipPath><clipPath><path d="M0 0h43v28H0z"/></clipPath></defs><g stroke-width="0"><path d="m29 0h12v30h-12z" fill="#fff" style="paint-order:fill markers stroke"/><path d="M30 0h10v30H30z" fill="#0da95c" style="paint-order:fill markers stroke"/><path d="m35 0h5v30h-5z" fill="#e8d206" style="paint-order:fill markers stroke"/></g><circle cx="35" cy="15" r="6" fill="#fff" stroke="#0da95c" stroke-width="2" style="paint-order:fill markers stroke"/></svg>
