<svg xmlns="http://www.w3.org/2000/svg" xmlns:xlink="http://www.w3.org/1999/xlink" width="75" height="75"><defs><clipPath id="b"><path d="M2 1h17v21.75H2Zm0 0"/></clipPath><clipPath id="c"><path d="M20 1h17v21.75H20Zm0 0"/></clipPath><clipPath id="a"><path d="M0 0h39v23H0z"/></clipPath><clipPath id="e"><path d="M2 .848h18v26.004H2Zm0 0"/></clipPath><clipPath id="f"><path d="M21 .848h18v26.004H21Zm0 0"/></clipPath><clipPath id="d"><path d="M0 0h41v27H0z"/></clipPath><clipPath id="g"><path d="M0 0h75v75H0z"/></clipPath><g id="h" clip-path="url(#a)"><g clip-path="url(#b)"><path d="M8.531 4.45H2.758V1.09h15.875v3.36h-5.867v17.874H8.53Zm0 0"/></g><g clip-path="url(#c)"><path d="M20.848 1.09h4.425c4.426 0 9.72-.098 9.72 5.828 0 2.469-1.638 4.445-4.235 4.84 1.156.097 1.828 1.285 2.215 2.172l3.27 8.394h-4.618l-2.406-6.715c-.672-1.48-1.157-2.171-2.887-2.171h-1.348v8.886h-4.136Zm4.136 8.988h1.348c2.02 0 4.328-.297 4.328-2.863 0-2.469-2.308-2.766-4.328-2.766h-1.348Zm0 0"/></g></g><g id="i" clip-path="url(#d)"><g clip-path="url(#e)"><path d="M2.387 13.922c0-6.3 1.91-13.074 8.71-13.074 7.348 0 8.79 7.238 8.79 13.074 0 5.836-1.512 12.93-8.79 12.93-7.738 0-8.71-7.672-8.71-12.93m12.46 0c0-3.242 0-9.328-3.75-9.328-3.667 0-3.667 6.086-3.667 9.328 0 3.172-.04 9.183 3.668 9.183 3.785 0 3.75-6.011 3.75-9.183Zm0 0"/></g><g clip-path="url(#f)"><path d="M21.902 26.418v-4.211c2.34-2.273 10.875-9.402 10.875-14.012 0-2.304-2.054-3.386-4.105-3.386-2.125 0-4.14.937-5.797 2.02l-.398-4.177C24.747 1.496 27.375.848 29.93.848c4.793 0 7.89 2.414 7.89 7.347 0 5.328-5.367 10.227-9.472 14.258h10.265v3.965h-16.71"/></g></g><g id="j" clip-path="url(#g)"><path fill="#8DCD6B" d="M75 37.5C75 16.79 58.21 0 37.5 0S0 16.79 0 37.5 16.79 75 37.5 75 75 58.21 75 37.5Zm0 0"/><path fill="#FFF" d="M70.602 37.5c0-18.281-14.82-33.102-33.102-33.102-18.281 0-33.098 14.82-33.098 33.102 0 18.281 14.817 33.102 33.098 33.102S70.602 55.782 70.602 37.5Zm0 0"/><use xlink:href="#h" transform="translate(18 10)"/><use xlink:href="#i" transform="translate(17 38)"/></g></defs><use xlink:href="#j"/></svg>