<svg xmlns="http://www.w3.org/2000/svg" xmlns:xlink="http://www.w3.org/1999/xlink" width="75" height="75"><defs><clipPath id="b"><path d="M2 1h17v21.75H2Zm0 0"/></clipPath><clipPath id="c"><path d="M20 1h17v21.75H20Zm0 0"/></clipPath><clipPath id="a"><path d="M0 0h39v23H0z"/></clipPath><clipPath id="e"><path d="M2 .848h19v26.004H2Zm0 0"/></clipPath><clipPath id="f"><path d="M22 .848h17v26.004H22Zm0 0"/></clipPath><clipPath id="d"><path d="M0 0h41v27H0z"/></clipPath><clipPath id="g"><path d="M0 0h75v75H0z"/></clipPath><g id="h" clip-path="url(#a)"><g clip-path="url(#b)"><path d="M8.531 4.45H2.758V1.09h15.875v3.36h-5.867v17.874H8.53Zm0 0"/></g><g clip-path="url(#c)"><path d="M20.848 1.09h4.425c4.426 0 9.72-.098 9.72 5.828 0 2.469-1.638 4.445-4.235 4.84 1.156.097 1.828 1.285 2.215 2.172l3.27 8.394h-4.618l-2.406-6.715c-.672-1.48-1.157-2.171-2.887-2.171h-1.348v8.886h-4.136Zm4.136 8.988h1.348c2.02 0 4.328-.297 4.328-2.863 0-2.469-2.308-2.766-4.328-2.766h-1.348Zm0 0"/></g></g><g id="i" clip-path="url(#d)"><g clip-path="url(#e)"><path d="M2.566 13.922c0-6.3 1.907-13.074 8.72-13.074 7.343 0 8.78 7.238 8.78 13.074 0 5.836-1.511 12.93-8.78 12.93-7.743 0-8.72-7.672-8.72-12.93m12.461 0c0-3.242 0-9.328-3.742-9.328-3.676 0-3.676 6.086-3.676 9.328 0 3.172-.035 9.183 3.676 9.183 3.778 0 3.742-6.011 3.742-9.183Zm0 0"/></g><g clip-path="url(#f)"><path d="M22.516 21.738c1.726.68 3.601 1.149 5.586 1.149 2.082 0 5.289-1.008 5.289-3.563 0-2.953-2.34-3.926-5.547-3.926h-2.45v-3.96h2.31c3.382 0 5.581-1.118 5.581-3.317 0-2.52-2.055-3.312-4.328-3.312-1.977 0-3.887.468-5.648 1.332l-.286-4.032c2.012-.793 4.426-1.261 7.02-1.261 3.094 0 8.281 1.078 8.281 6.449 0 3.418-2.125 5.039-4.68 6.016v.07c3.208.433 4.79 2.914 4.79 5.976 0 5.977-5.438 7.493-9.618 7.493-2.195 0-4.718-.293-6.59-.829l.29-4.285"/></g></g><g id="j" clip-path="url(#g)"><path fill="#8DCD6B" d="M75 37.5C75 16.79 58.21 0 37.5 0S0 16.79 0 37.5 16.79 75 37.5 75 75 58.21 75 37.5Zm0 0"/><path fill="#FFF" d="M70.602 37.5c0-18.281-14.82-33.102-33.102-33.102-18.281 0-33.098 14.82-33.098 33.102 0 18.281 14.817 33.102 33.098 33.102S70.602 55.782 70.602 37.5Zm0 0"/><use xlink:href="#h" transform="translate(18 10)"/><use xlink:href="#i" transform="translate(17 38)"/></g></defs><use xlink:href="#j"/></svg>