<svg xmlns="http://www.w3.org/2000/svg" xmlns:xlink="http://www.w3.org/1999/xlink" width="75" height="75"><defs><clipPath id="b"><path d="M2 1h17v21.75H2Zm0 0"/></clipPath><clipPath id="c"><path d="M20 1h17v21.75H20Zm0 0"/></clipPath><clipPath id="a"><path d="M0 0h39v23H0z"/></clipPath><clipPath id="e"><path d="M2 .848h18v26.004H2Zm0 0"/></clipPath><clipPath id="f"><path d="M22 1h17v25.852H22Zm0 0"/></clipPath><clipPath id="d"><path d="M0 0h41v27H0z"/></clipPath><clipPath id="g"><path d="M0 0h75v75H0z"/></clipPath><g id="h" clip-path="url(#a)"><g clip-path="url(#b)"><path d="M8.531 4.45H2.758V1.09h15.875v3.36h-5.867v17.874H8.53Zm0 0"/></g><g clip-path="url(#c)"><path d="M20.848 1.09h4.425c4.426 0 9.72-.098 9.72 5.828 0 2.469-1.638 4.445-4.235 4.84 1.156.097 1.828 1.285 2.215 2.172l3.27 8.394h-4.618l-2.406-6.715c-.672-1.48-1.157-2.171-2.887-2.171h-1.348v8.886h-4.136Zm4.136 8.988h1.348c2.02 0 4.328-.297 4.328-2.863 0-2.469-2.308-2.766-4.328-2.766h-1.348Zm0 0"/></g></g><g id="i" clip-path="url(#d)"><g clip-path="url(#e)"><path d="M2.352 13.922c0-6.3 1.91-13.074 8.714-13.074 7.344 0 8.786 7.238 8.786 13.074 0 5.836-1.512 12.93-8.786 12.93-7.742 0-8.714-7.672-8.714-12.93m12.46 0c0-3.242 0-9.328-3.746-9.328-3.671 0-3.671 6.086-3.671 9.328 0 3.172-.036 9.183 3.671 9.183 3.782 0 3.746-6.011 3.746-9.183Zm0 0"/></g><g clip-path="url(#f)"><path d="M38.035 5.027h-9.683l-.106 5.368c.57-.11 1.328-.254 2.3-.254 3.528 0 8.102 1.66 8.102 8.175 0 4.72-3.308 8.536-9.793 8.536-1.945 0-4.214-.329-5.867-.723l.106-4.5c1.222.504 2.953 1.262 5.152 1.262 2.625 0 5.363-1.227 5.363-4.43 0-3.242-2.882-4.36-5.765-4.36-1.547 0-3.02.215-4.496.688l.25-13.508h14.437v3.746"/></g></g><g id="j" clip-path="url(#g)"><path fill="#8DCD6B" d="M75 37.5C75 16.79 58.21 0 37.5 0S0 16.79 0 37.5 16.79 75 37.5 75 75 58.21 75 37.5Zm0 0"/><path fill="#FFF" d="M70.602 37.5c0-18.281-14.82-33.102-33.102-33.102-18.281 0-33.098 14.82-33.098 33.102 0 18.281 14.817 33.102 33.098 33.102S70.602 55.782 70.602 37.5Zm0 0"/><use xlink:href="#h" transform="translate(18 10)"/><use xlink:href="#i" transform="translate(17 38)"/></g></defs><use xlink:href="#j"/></svg>