<svg xmlns="http://www.w3.org/2000/svg" xmlns:xlink="http://www.w3.org/1999/xlink" width="75" height="75"><defs><clipPath id="b"><path d="M2 1h17v21.75H2Zm0 0"/></clipPath><clipPath id="c"><path d="M20 1h17v21.75H20Zm0 0"/></clipPath><clipPath id="a"><path d="M0 0h39v23H0z"/></clipPath><clipPath id="e"><path d="M1 .848h19v26.004H1Zm0 0"/></clipPath><clipPath id="f"><path d="M22 .848h18v26.004H22Zm0 0"/></clipPath><clipPath id="d"><path d="M0 0h41v27H0z"/></clipPath><clipPath id="g"><path d="M0 0h75v75H0z"/></clipPath><g id="h" clip-path="url(#a)"><g clip-path="url(#b)"><path d="M8.531 4.45H2.758V1.09h15.875v3.36h-5.867v17.874H8.53Zm0 0"/></g><g clip-path="url(#c)"><path d="M20.848 1.09h4.425c4.426 0 9.72-.098 9.72 5.828 0 2.469-1.638 4.445-4.235 4.84 1.156.097 1.828 1.285 2.215 2.172l3.27 8.394h-4.618l-2.406-6.715c-.672-1.48-1.157-2.171-2.887-2.171h-1.348v8.886h-4.136Zm4.136 8.988h1.348c2.02 0 4.328-.297 4.328-2.863 0-2.469-2.308-2.766-4.328-2.766h-1.348Zm0 0"/></g></g><g id="i" clip-path="url(#d)"><g clip-path="url(#e)"><path d="M1.883 13.922c0-6.3 1.906-13.074 8.715-13.074 7.343 0 8.785 7.238 8.785 13.074 0 5.832-1.512 12.93-8.785 12.93-7.743 0-8.715-7.672-8.715-12.93m12.46 0c0-3.242 0-9.328-3.745-9.328-3.676 0-3.676 6.086-3.676 9.328 0 3.172-.031 9.183 3.676 9.183 3.777 0 3.746-6.011 3.746-9.183Zm0 0"/></g><g clip-path="url(#f)"><path d="M37.207 5.82c-1.332-.578-2.703-1.011-4.39-1.011-4.364 0-5.837 4.03-5.981 7.78l.07.071c1.196-1.726 2.739-2.52 4.864-2.52 4.757 0 7.347 3.024 7.347 7.672 0 5.438-2.664 9.04-8.355 9.04-6.989 0-8.535-5.801-8.535-11.704 0-6.808 2.195-14.3 10.336-14.3 1.84 0 3.566.289 5.292.902l-.648 4.07M27.27 18.64c0 2.372 1.007 4.465 3.492 4.465 2.343 0 3.312-2.27 3.312-4.503 0-2.45-1.008-4.715-3.422-4.715-2.449 0-3.382 2.23-3.382 4.754Zm0 0"/></g></g><g id="j" clip-path="url(#g)"><path fill="#8DCD6B" d="M75 37.5C75 16.79 58.21 0 37.5 0S0 16.79 0 37.5 16.79 75 37.5 75 75 58.21 75 37.5Zm0 0"/><path fill="#FFF" d="M70.602 37.5c0-18.281-14.82-33.102-33.102-33.102-18.281 0-33.098 14.82-33.098 33.102 0 18.281 14.817 33.102 33.098 33.102S70.602 55.782 70.602 37.5Zm0 0"/><use xlink:href="#h" transform="translate(18 10)"/><use xlink:href="#i" transform="translate(17 38)"/></g></defs><use xlink:href="#j"/></svg>