<?xml version="1.0" encoding="UTF-8"?>
<svg xmlns="http://www.w3.org/2000/svg" xmlns:xlink="http://www.w3.org/1999/xlink" width="75" height="75" viewBox="0 0 75 75">
<defs>
<clipPath id="clip-0">
<path clip-rule="nonzero" d="M 2 1 L 19 1 L 19 22.75 L 2 22.75 Z M 2 1 "/>
</clipPath>
<clipPath id="clip-1">
<path clip-rule="nonzero" d="M 20 1 L 37 1 L 37 22.75 L 20 22.75 Z M 20 1 "/>
</clipPath>
<clipPath id="clip-2">
<rect x="0" y="0" width="39" height="23"/>
</clipPath>
<g id="source-6" clip-path="url(#clip-2)">
<g clip-path="url(#clip-0)">
<path fill-rule="nonzero" fill="rgb(0%, 0%, 0%)" fill-opacity="1" d="M 8.53125 4.449219 L 2.757812 4.449219 L 2.757812 1.089844 L 18.632812 1.089844 L 18.632812 4.449219 L 12.765625 4.449219 L 12.765625 22.324219 L 8.53125 22.324219 Z M 8.53125 4.449219 "/>
</g>
<g clip-path="url(#clip-1)">
<path fill-rule="nonzero" fill="rgb(0%, 0%, 0%)" fill-opacity="1" d="M 20.847656 1.089844 C 25.273438 1.089844 25.273438 1.089844 25.273438 1.089844 C 29.699219 1.089844 34.992188 0.992188 34.992188 6.917969 C 34.992188 9.386719 33.355469 11.363281 30.757812 11.757812 C 31.914062 11.855469 32.585938 13.042969 32.972656 13.929688 C 36.242188 22.324219 36.242188 22.324219 36.242188 22.324219 C 31.625 22.324219 31.625 22.324219 31.625 22.324219 C 29.21875 15.609375 29.21875 15.609375 29.21875 15.609375 C 28.546875 14.128906 28.0625 13.4375 26.332031 13.4375 C 24.984375 13.4375 24.984375 13.4375 24.984375 13.4375 C 24.984375 22.324219 24.984375 22.324219 24.984375 22.324219 C 20.847656 22.324219 20.847656 22.324219 20.847656 22.324219 Z M 24.984375 10.078125 C 26.332031 10.078125 26.332031 10.078125 26.332031 10.078125 C 28.351562 10.078125 30.660156 9.78125 30.660156 7.214844 C 30.660156 4.746094 28.351562 4.449219 26.332031 4.449219 C 24.984375 4.449219 24.984375 4.449219 24.984375 4.449219 Z M 24.984375 10.078125 "/>
</g>
</g>
<clipPath id="clip-3">
<path clip-rule="nonzero" d="M 2 0.847656 L 21 0.847656 L 21 26.851562 L 2 26.851562 Z M 2 0.847656 "/>
</clipPath>
<clipPath id="clip-4">
<path clip-rule="nonzero" d="M 21 1 L 39 1 L 39 26.851562 L 21 26.851562 Z M 21 1 "/>
</clipPath>
<clipPath id="clip-5">
<rect x="0" y="0" width="41" height="27"/>
</clipPath>
<g id="source-9" clip-path="url(#clip-5)">
<g clip-path="url(#clip-3)">
<path fill-rule="nonzero" fill="rgb(0%, 0%, 0%)" fill-opacity="1" d="M 2.839844 13.921875 C 2.839844 7.621094 4.746094 0.847656 11.550781 0.847656 C 18.898438 0.847656 20.339844 8.085938 20.339844 13.921875 C 20.339844 19.753906 18.828125 26.851562 11.550781 26.851562 C 3.8125 26.851562 2.839844 19.179688 2.839844 13.921875 M 15.296875 13.921875 C 15.296875 10.679688 15.296875 4.59375 11.550781 4.59375 C 7.882812 4.59375 7.882812 10.679688 7.882812 13.921875 C 7.882812 17.09375 7.84375 23.105469 11.550781 23.105469 C 15.335938 23.105469 15.296875 17.09375 15.296875 13.921875 Z M 15.296875 13.921875 "/>
</g>
<g clip-path="url(#clip-4)">
<path fill-rule="nonzero" fill="rgb(0%, 0%, 0%)" fill-opacity="1" d="M 21.960938 1.28125 L 38.160156 1.28125 L 38.160156 5.457031 L 29.230469 26.417969 L 23.761719 26.417969 L 33.082031 5.242188 L 21.960938 5.242188 L 21.960938 1.28125 "/>
</g>
</g>
<clipPath id="clip-6">
<rect x="0" y="0" width="75" height="75"/>
</clipPath>
<g id="source-11" clip-path="url(#clip-6)">
<path fill-rule="nonzero" fill="rgb(55.291748%, 80.39093%, 41.96167%)" fill-opacity="1" d="M 75 37.5 C 75 16.789062 58.210938 0 37.5 0 C 16.789062 0 0 16.789062 0 37.5 C 0 58.210938 16.789062 75 37.5 75 C 58.210938 75 75 58.210938 75 37.5 Z M 75 37.5 "/>
<path fill-rule="nonzero" fill="rgb(100%, 100%, 100%)" fill-opacity="1" d="M 70.601562 37.5 C 70.601562 19.21875 55.78125 4.398438 37.5 4.398438 C 19.21875 4.398438 4.402344 19.21875 4.402344 37.5 C 4.402344 55.78125 19.21875 70.601562 37.5 70.601562 C 55.78125 70.601562 70.601562 55.78125 70.601562 37.5 Z M 70.601562 37.5 "/>
<use xlink:href="#source-6" transform="matrix(1, 0, 0, 1, 18, 10)"/>
<use xlink:href="#source-9" transform="matrix(1, 0, 0, 1, 17, 38)"/>
</g>
</defs>
<use xlink:href="#source-11"/>
</svg>
