<?xml version="1.0" encoding="UTF-8"?>
<svg xmlns="http://www.w3.org/2000/svg" xmlns:xlink="http://www.w3.org/1999/xlink" width="75" height="75" viewBox="0 0 75 75">
<defs>
<clipPath id="clip-0">
<path clip-rule="nonzero" d="M 2 1 L 19 1 L 19 22.75 L 2 22.75 Z M 2 1 "/>
</clipPath>
<clipPath id="clip-1">
<path clip-rule="nonzero" d="M 20 1 L 37 1 L 37 22.75 L 20 22.75 Z M 20 1 "/>
</clipPath>
<clipPath id="clip-2">
<rect x="0" y="0" width="39" height="23"/>
</clipPath>
<g id="source-6" clip-path="url(#clip-2)">
<g clip-path="url(#clip-0)">
<path fill-rule="nonzero" fill="rgb(0%, 0%, 0%)" fill-opacity="1" d="M 8.53125 4.449219 L 2.757812 4.449219 L 2.757812 1.089844 L 18.632812 1.089844 L 18.632812 4.449219 L 12.765625 4.449219 L 12.765625 22.324219 L 8.53125 22.324219 Z M 8.53125 4.449219 "/>
</g>
<g clip-path="url(#clip-1)">
<path fill-rule="nonzero" fill="rgb(0%, 0%, 0%)" fill-opacity="1" d="M 20.847656 1.089844 C 25.273438 1.089844 25.273438 1.089844 25.273438 1.089844 C 29.699219 1.089844 34.992188 0.992188 34.992188 6.917969 C 34.992188 9.386719 33.355469 11.363281 30.757812 11.757812 C 31.914062 11.855469 32.585938 13.042969 32.972656 13.929688 C 36.242188 22.324219 36.242188 22.324219 36.242188 22.324219 C 31.625 22.324219 31.625 22.324219 31.625 22.324219 C 29.21875 15.609375 29.21875 15.609375 29.21875 15.609375 C 28.546875 14.128906 28.0625 13.4375 26.332031 13.4375 C 24.984375 13.4375 24.984375 13.4375 24.984375 13.4375 C 24.984375 22.324219 24.984375 22.324219 24.984375 22.324219 C 20.847656 22.324219 20.847656 22.324219 20.847656 22.324219 Z M 24.984375 10.078125 C 26.332031 10.078125 26.332031 10.078125 26.332031 10.078125 C 28.351562 10.078125 30.660156 9.78125 30.660156 7.214844 C 30.660156 4.746094 28.351562 4.449219 26.332031 4.449219 C 24.984375 4.449219 24.984375 4.449219 24.984375 4.449219 Z M 24.984375 10.078125 "/>
</g>
</g>
<clipPath id="clip-3">
<path clip-rule="nonzero" d="M 1 0.847656 L 19 0.847656 L 19 26.851562 L 1 26.851562 Z M 1 0.847656 "/>
</clipPath>
<clipPath id="clip-4">
<path clip-rule="nonzero" d="M 22 0.847656 L 40 0.847656 L 40 26.851562 L 22 26.851562 Z M 22 0.847656 "/>
</clipPath>
<clipPath id="clip-5">
<rect x="0" y="0" width="41" height="27"/>
</clipPath>
<g id="source-9" clip-path="url(#clip-5)">
<g clip-path="url(#clip-3)">
<path fill-rule="nonzero" fill="rgb(0%, 0%, 0%)" fill-opacity="1" d="M 1.378906 13.921875 C 1.378906 7.621094 3.285156 0.847656 10.09375 0.847656 C 17.4375 0.847656 18.878906 8.085938 18.878906 13.921875 C 18.878906 19.757812 17.363281 26.851562 10.09375 26.851562 C 2.351562 26.851562 1.378906 19.179688 1.378906 13.921875 M 13.835938 13.921875 C 13.835938 10.679688 13.835938 4.59375 10.089844 4.59375 C 6.417969 4.59375 6.417969 10.679688 6.417969 13.921875 C 6.417969 17.09375 6.382812 23.105469 10.089844 23.105469 C 13.871094 23.105469 13.835938 17.09375 13.835938 13.921875 Z M 13.835938 13.921875 "/>
</g>
<g clip-path="url(#clip-4)">
<path fill-rule="nonzero" fill="rgb(0%, 0%, 0%)" fill-opacity="1" d="M 34.792969 12.878906 L 34.792969 12.949219 C 38.109375 14.5 39.621094 16.660156 39.621094 19.539062 C 39.621094 24.617188 35.945312 26.851562 30.976562 26.851562 C 26.078125 26.851562 22.121094 24.726562 22.121094 19.613281 C 22.121094 16.800781 23.703125 14.855469 26.726562 13.382812 L 26.726562 13.3125 C 24.207031 12.191406 22.550781 10.105469 22.550781 7.472656 C 22.550781 2.976562 25.972656 0.847656 30.542969 0.847656 C 34.976562 0.847656 38.972656 2.683594 38.972656 6.898438 C 38.972656 9.167969 37.566406 11.800781 34.792969 12.914062 L 34.792969 12.878906 M 27.164062 19.539062 C 27.164062 21.632812 28.964844 23.105469 30.976562 23.105469 C 32.996094 23.105469 34.578125 21.84375 34.578125 19.757812 C 34.578125 17.273438 32.453125 16.085938 30.367188 15.398438 C 28.5625 16.261719 27.164062 17.417969 27.164062 19.539062 Z M 34.148438 7.765625 C 34.148438 5.890625 32.957031 4.59375 31.050781 4.59375 C 29.210938 4.59375 27.375 5.601562 27.375 7.621094 C 27.375 9.78125 29.609375 10.75 31.339844 11.40625 C 32.742188 10.898438 34.148438 9.3125 34.148438 7.765625 Z M 34.148438 7.765625 "/>
</g>
</g>
<clipPath id="clip-6">
<rect x="0" y="0" width="75" height="75"/>
</clipPath>
<g id="source-11" clip-path="url(#clip-6)">
<path fill-rule="nonzero" fill="rgb(55.291748%, 80.39093%, 41.96167%)" fill-opacity="1" d="M 75 37.5 C 75 16.789062 58.210938 0 37.5 0 C 16.789062 0 0 16.789062 0 37.5 C 0 58.210938 16.789062 75 37.5 75 C 58.210938 75 75 58.210938 75 37.5 Z M 75 37.5 "/>
<path fill-rule="nonzero" fill="rgb(100%, 100%, 100%)" fill-opacity="1" d="M 70.601562 37.5 C 70.601562 19.21875 55.78125 4.398438 37.5 4.398438 C 19.21875 4.398438 4.402344 19.21875 4.402344 37.5 C 4.402344 55.78125 19.21875 70.601562 37.5 70.601562 C 55.78125 70.601562 70.601562 55.78125 70.601562 37.5 Z M 70.601562 37.5 "/>
<use xlink:href="#source-6" transform="matrix(1, 0, 0, 1, 18, 10)"/>
<use xlink:href="#source-9" transform="matrix(1, 0, 0, 1, 17, 38)"/>
</g>
</defs>
<use xlink:href="#source-11"/>
</svg>
