<svg xmlns="http://www.w3.org/2000/svg" xmlns:xlink="http://www.w3.org/1999/xlink" width="75" height="75"><defs><clipPath id="b"><path d="M2 1h17v21.75H2Zm0 0"/></clipPath><clipPath id="c"><path d="M20 1h17v21.75H20Zm0 0"/></clipPath><clipPath id="a"><path d="M0 0h39v23H0z"/></clipPath><clipPath id="e"><path d="M1 .848h18v26.004H1Zm0 0"/></clipPath><clipPath id="f"><path d="M22 .848h18v26.004H22Zm0 0"/></clipPath><clipPath id="d"><path d="M0 0h41v27H0z"/></clipPath><clipPath id="g"><path d="M0 0h75v75H0z"/></clipPath><g id="h" clip-path="url(#a)"><g clip-path="url(#b)"><path d="M8.531 4.45H2.758V1.09h15.875v3.36h-5.867v17.874H8.53Zm0 0"/></g><g clip-path="url(#c)"><path d="M20.848 1.09h4.425c4.426 0 9.72-.098 9.72 5.828 0 2.469-1.638 4.445-4.235 4.84 1.156.097 1.828 1.285 2.215 2.172l3.27 8.394h-4.618l-2.406-6.715c-.672-1.48-1.157-2.171-2.887-2.171h-1.348v8.886h-4.136Zm4.136 8.988h1.348c2.02 0 4.328-.297 4.328-2.863 0-2.469-2.308-2.766-4.328-2.766h-1.348Zm0 0"/></g></g><g id="i" clip-path="url(#d)"><g clip-path="url(#e)"><path d="M1.379 13.922c0-6.3 1.906-13.074 8.715-13.074 7.344 0 8.785 7.238 8.785 13.074 0 5.836-1.516 12.93-8.785 12.93-7.742 0-8.715-7.672-8.715-12.93m12.457 0c0-3.242 0-9.328-3.746-9.328-3.672 0-3.672 6.086-3.672 9.328 0 3.172-.035 9.183 3.672 9.183 3.781 0 3.746-6.011 3.746-9.183Zm0 0"/></g><g clip-path="url(#f)"><path d="M34.793 12.879v.07c3.316 1.551 4.828 3.711 4.828 6.59 0 5.078-3.676 7.313-8.644 7.313-4.899 0-8.856-2.125-8.856-7.239 0-2.812 1.582-4.758 4.606-6.23v-.07c-2.52-1.122-4.176-3.208-4.176-5.84 0-4.496 3.422-6.625 7.992-6.625 4.434 0 8.43 1.836 8.43 6.05 0 2.27-1.407 4.903-4.18 6.016v-.035m-7.629 6.66c0 2.094 1.8 3.566 3.813 3.566 2.02 0 3.601-1.261 3.601-3.347 0-2.485-2.125-3.672-4.21-4.36-1.805.864-3.204 2.02-3.204 4.141Zm6.984-11.773c0-1.875-1.191-3.172-3.097-3.172-1.84 0-3.676 1.008-3.676 3.027 0 2.16 2.234 3.129 3.965 3.785 1.402-.508 2.808-2.094 2.808-3.64Zm0 0"/></g></g><g id="j" clip-path="url(#g)"><path fill="#8DCD6B" d="M75 37.5C75 16.79 58.21 0 37.5 0S0 16.79 0 37.5 16.79 75 37.5 75 75 58.21 75 37.5Zm0 0"/><path fill="#FFF" d="M70.602 37.5c0-18.281-14.82-33.102-33.102-33.102-18.281 0-33.098 14.82-33.098 33.102 0 18.281 14.817 33.102 33.098 33.102S70.602 55.782 70.602 37.5Zm0 0"/><use xlink:href="#h" transform="translate(18 10)"/><use xlink:href="#i" transform="translate(17 38)"/></g></defs><use xlink:href="#j"/></svg>