<svg xmlns="http://www.w3.org/2000/svg" xmlns:xlink="http://www.w3.org/1999/xlink" width="75" height="75"><defs><clipPath id="b"><path d="M2 1h17v21.75H2Zm0 0"/></clipPath><clipPath id="c"><path d="M20 1h17v21.75H20Zm0 0"/></clipPath><clipPath id="a"><path d="M0 0h39v23H0z"/></clipPath><clipPath id="e"><path d="M1 .848h19v26.004H1Zm0 0"/></clipPath><clipPath id="f"><path d="M22 .848h18v26.004H22Zm0 0"/></clipPath><clipPath id="d"><path d="M0 0h41v27H0z"/></clipPath><clipPath id="g"><path d="M0 0h75v75H0z"/></clipPath><g id="h" clip-path="url(#a)"><g clip-path="url(#b)"><path d="M8.531 4.45H2.758V1.09h15.875v3.36h-5.867v17.874H8.53Zm0 0"/></g><g clip-path="url(#c)"><path d="M20.848 1.09h4.425c4.426 0 9.72-.098 9.72 5.828 0 2.469-1.638 4.445-4.235 4.84 1.156.097 1.828 1.285 2.215 2.172l3.27 8.394h-4.618l-2.406-6.715c-.672-1.48-1.157-2.171-2.887-2.171h-1.348v8.886h-4.136Zm4.136 8.988h1.348c2.02 0 4.328-.297 4.328-2.863 0-2.469-2.308-2.766-4.328-2.766h-1.348Zm0 0"/></g></g><g id="i" clip-path="url(#d)"><g clip-path="url(#e)"><path d="M1.883 13.922c0-6.3 1.91-13.074 8.715-13.074 7.343 0 8.785 7.238 8.785 13.074 0 5.832-1.512 12.93-8.785 12.93-7.739 0-8.715-7.672-8.715-12.93m12.457 0c0-3.242 0-9.328-3.742-9.328-3.676 0-3.676 6.086-3.676 9.328 0 3.172-.035 9.183 3.676 9.183 3.78 0 3.742-6.011 3.742-9.183Zm0 0"/></g><g clip-path="url(#f)"><path d="M24.137 21.879c1.332.574 2.699 1.012 4.394 1.012 4.356 0 5.832-4.036 5.977-7.778l-.074-.074c-1.184 1.762-2.735 2.52-4.86 2.52-4.75 0-7.347-3.024-7.347-7.668 0-5.438 2.668-9.043 8.355-9.043 6.984 0 8.535 5.797 8.535 11.707 0 6.804-2.195 14.297-10.332 14.297-1.84 0-3.57-.293-5.297-.903l.649-4.07m9.937-12.817c0-2.378-1.008-4.468-3.492-4.468-2.34 0-3.312 2.27-3.312 4.504 0 2.449 1.007 4.718 3.421 4.718 2.446 0 3.383-2.234 3.383-4.754Zm0 0"/></g></g><g id="j" clip-path="url(#g)"><path fill="#8DCD6B" d="M75 37.5C75 16.79 58.21 0 37.5 0S0 16.79 0 37.5 16.79 75 37.5 75 75 58.21 75 37.5Zm0 0"/><path fill="#FFF" d="M70.602 37.5c0-18.281-14.82-33.102-33.102-33.102-18.281 0-33.098 14.82-33.098 33.102 0 18.281 14.817 33.102 33.098 33.102S70.602 55.782 70.602 37.5Zm0 0"/><use xlink:href="#h" transform="translate(18 10)"/><use xlink:href="#i" transform="translate(17 38)"/></g></defs><use xlink:href="#j"/></svg>