<svg xmlns="http://www.w3.org/2000/svg" xmlns:xlink="http://www.w3.org/1999/xlink" width="75" height="75"><defs><clipPath id="b"><path d="M3 .129h25v17H3Zm0 0"/></clipPath><clipPath id="a"><path d="M0 0h31v18H0z"/></clipPath><clipPath id="d"><path d="M2 .621h18v25H2Zm0 0"/></clipPath><clipPath id="e"><path d="M21 1h12v24.621H21Zm0 0"/></clipPath><clipPath id="c"><path d="M0 0h39v26H0z"/></clipPath><clipPath id="f"><path d="M0 0h75v75H0z"/></clipPath><g clip-path="url(#a)"><g id="g" clip-path="url(#b)"><path fill="#211B19" d="M7.715 3.09H3.098V.555h12.359V3.09h-4.613v13.789h-3.13Zm18.95.426a8 8 0 0 0-3.212-.762c-1.074 0-2.473.508-2.473 2.281 0 2.88 6.922 1.692 6.922 7.192 0 3.55-2.722 4.902-5.933 4.902-1.73 0-2.555-.168-4.121-.59l.332-2.96c1.07.589 2.304 1.015 3.543 1.015 1.234 0 2.882-.676 2.882-2.114 0-3.132-7.003-1.863-7.003-7.277C17.602 1.57 20.32.13 23.203.13c1.32 0 2.637.254 3.793.68Zm0 0"/></g></g><g id="h" clip-path="url(#c)"><g clip-path="url(#d)"><path d="M2.418 13.188C2.418 7.128 4.23.62 10.688.62c6.968 0 8.335 6.957 8.335 12.567 0 5.613-1.433 12.433-8.335 12.433-7.348 0-8.27-7.375-8.27-12.433m11.82 0c0-3.118 0-8.97-3.55-8.97-3.485 0-3.485 5.852-3.485 8.97 0 3.05-.035 8.832 3.484 8.832 3.59 0 3.551-5.782 3.551-8.832m0 0"/></g><g clip-path="url(#e)"><path d="M28.52 1.035h4.238v24.168h-4.781V6.54l-4.032 3.324-2.39-3.148z"/></g></g><g id="i" clip-path="url(#f)"><path fill="#3766B3" d="M0 54.148V20.852C0 9.336 9.336 0 20.852 0h33.3C65.664 0 75 9.336 75 20.852v33.296C75 65.664 65.664 75 54.152 75h-33.3C9.336 75 0 65.664 0 54.148m0 0"/><path fill="#FFF" d="M8.32 54.148V20.852c0-6.922 5.61-12.532 12.532-12.532h33.3c6.918 0 12.528 5.61 12.528 12.532v33.296c0 6.922-5.61 12.532-12.528 12.532h-33.3c-6.922 0-12.532-5.61-12.532-12.532m0 0"/><use xlink:href="#g" transform="translate(22 13)"/><use xlink:href="#h" transform="translate(18 36)"/></g></defs><use xlink:href="#i"/></svg>