<svg xmlns="http://www.w3.org/2000/svg" xmlns:xlink="http://www.w3.org/1999/xlink" width="75" height="75"><defs><clipPath id="b"><path d="M3 .129h25v17H3Zm0 0"/></clipPath><clipPath id="a"><path d="M0 0h31v18H0z"/></clipPath><clipPath id="d"><path d="M3 1h12v24.621H3Zm0 0"/></clipPath><clipPath id="e"><path d="M20 .621h18v25H20Zm0 0"/></clipPath><clipPath id="c"><path d="M0 0h41v26H0z"/></clipPath><clipPath id="f"><path d="M0 0h75v75H0z"/></clipPath><g clip-path="url(#a)"><g id="g" clip-path="url(#b)"><path fill="#211B19" d="M7.715 3.09H3.098V.555h12.359V3.09h-4.613v13.789h-3.13Zm18.95.426a8 8 0 0 0-3.212-.762c-1.074 0-2.473.508-2.473 2.281 0 2.88 6.922 1.692 6.922 7.192 0 3.55-2.722 4.902-5.933 4.902-1.73 0-2.555-.168-4.121-.59l.332-2.96c1.07.589 2.304 1.015 3.543 1.015 1.234 0 2.882-.676 2.882-2.114 0-3.132-7.003-1.863-7.003-7.277C17.602 1.57 20.32.13 23.203.13c1.32 0 2.637.254 3.793.68Zm0 0"/></g></g><g id="h" clip-path="url(#c)"><g clip-path="url(#d)"><path d="M10.285 1.035h4.293v24.172H9.73V6.543l-4.085 3.32-2.422-3.148z"/></g><g clip-path="url(#e)"><path d="M33.137 12.188v.066c3.187 1.488 4.64 3.566 4.64 6.336 0 4.883-3.53 7.031-8.312 7.031-4.707 0-8.516-2.039-8.516-6.96 0-2.704 1.524-4.571 4.43-5.993v-.066c-2.422-1.075-4.016-3.082-4.016-5.61 0-4.332 3.29-6.37 7.688-6.37 4.262 0 8.101 1.765 8.101 5.816 0 2.18-1.347 4.71-4.015 5.78zM25.8 18.59c0 2.008 1.726 3.43 3.664 3.43 1.937 0 3.465-1.211 3.465-3.22 0-2.39-2.043-3.534-4.051-4.195-1.73.836-3.078 1.946-3.078 3.985m6.715-11.32c0-1.805-1.145-3.047-2.977-3.047-1.766 0-3.535.968-3.535 2.906 0 2.078 2.148 3.012 3.812 3.637 1.348-.485 2.7-2.012 2.7-3.496m0 0"/></g></g><g id="i" clip-path="url(#f)"><path fill="#3766B3" d="M0 54.148V20.852C0 9.336 9.336 0 20.852 0h33.3C65.664 0 75 9.336 75 20.852v33.296C75 65.664 65.664 75 54.152 75h-33.3C9.336 75 0 65.664 0 54.148m0 0"/><path fill="#FFF" d="M8.32 54.148V20.852c0-6.922 5.61-12.532 12.532-12.532h33.3c6.918 0 12.528 5.61 12.528 12.532v33.296c0 6.922-5.61 12.532-12.528 12.532h-33.3c-6.922 0-12.532-5.61-12.532-12.532m0 0"/><use xlink:href="#g" transform="translate(22 13)"/><use xlink:href="#h" transform="translate(17 36)"/></g></defs><use xlink:href="#i"/></svg>