<svg xmlns="http://www.w3.org/2000/svg" xmlns:xlink="http://www.w3.org/1999/xlink" width="75" height="75"><defs><clipPath id="b"><path d="M3 .129h25v17H3Zm0 0"/></clipPath><clipPath id="a"><path d="M0 0h31v18H0z"/></clipPath><clipPath id="d"><path d="M2 .621h17v25H2Zm0 0"/></clipPath><clipPath id="e"><path d="M22 .621h17v25H22Zm0 0"/></clipPath><clipPath id="c"><path d="M0 0h41v26H0z"/></clipPath><clipPath id="f"><path d="M0 0h75v75H0z"/></clipPath><g clip-path="url(#a)"><g id="g" clip-path="url(#b)"><path fill="#211B19" d="M7.715 3.09H3.098V.555h12.359V3.09h-4.613v13.789h-3.13Zm18.95.426a8 8 0 0 0-3.212-.762c-1.074 0-2.473.508-2.473 2.281 0 2.88 6.922 1.692 6.922 7.192 0 3.55-2.722 4.902-5.933 4.902-1.73 0-2.555-.168-4.121-.59l.332-2.96c1.07.589 2.304 1.015 3.543 1.015 1.234 0 2.882-.676 2.882-2.114 0-3.132-7.003-1.863-7.003-7.277C17.602 1.57 20.32.13 23.203.13c1.32 0 2.637.254 3.793.68Zm0 0"/></g></g><g id="h" clip-path="url(#c)"><g clip-path="url(#d)"><path d="M2.844 25.414v-4.059C5.09 19.175 13.3 12.325 13.3 7.891c0-2.215-1.977-3.254-3.95-3.254-2.042 0-3.98.898-5.574 1.937L3.398 2.56c2.184-1.11 4.707-1.73 7.164-1.73 4.606 0 7.583 2.32 7.583 7.062 0 5.125-5.157 9.832-9.106 13.71h9.867v3.813z"/></g><g clip-path="url(#e)"><path d="M22.09 25.414v-4.059c2.254-2.18 10.457-9.03 10.457-13.464 0-2.215-1.973-3.254-3.95-3.254-2.038 0-3.98.898-5.57 1.937l-.382-4.015c2.18-1.11 4.71-1.73 7.168-1.73 4.601 0 7.585 2.32 7.585 7.062 0 5.125-5.164 9.832-9.113 13.71h9.871v3.813z"/></g></g><g id="i" clip-path="url(#f)"><path fill="#3766B3" d="M0 54.148V20.852C0 9.336 9.336 0 20.852 0h33.3C65.664 0 75 9.336 75 20.852v33.296C75 65.664 65.664 75 54.152 75h-33.3C9.336 75 0 65.664 0 54.148m0 0"/><path fill="#FFF" d="M8.32 54.148V20.852c0-6.922 5.61-12.532 12.532-12.532h33.3c6.918 0 12.528 5.61 12.528 12.532v33.296c0 6.922-5.61 12.532-12.528 12.532h-33.3c-6.922 0-12.532-5.61-12.532-12.532m0 0"/><use xlink:href="#g" transform="translate(22 13)"/><use xlink:href="#h" transform="translate(17 36)"/></g></defs><use xlink:href="#i"/></svg>