<svg xmlns="http://www.w3.org/2000/svg" xmlns:xlink="http://www.w3.org/1999/xlink" width="75" height="75"><defs><clipPath id="b"><path d="M3 .129h25v17H3Zm0 0"/></clipPath><clipPath id="a"><path d="M0 0h31v18H0z"/></clipPath><clipPath id="d"><path d="M3 .621h17v25H3Zm0 0"/></clipPath><clipPath id="e"><path d="M22 .621h16v25H22Zm0 0"/></clipPath><clipPath id="c"><path d="M0 0h41v26H0z"/></clipPath><clipPath id="f"><path d="M0 0h75v75H0z"/></clipPath><g clip-path="url(#a)"><g id="g" clip-path="url(#b)"><path fill="#211B19" d="M7.715 3.09H3.098V.555h12.359V3.09h-4.613v13.789h-3.13Zm18.95.426a8 8 0 0 0-3.212-.762c-1.074 0-2.473.508-2.473 2.281 0 2.88 6.922 1.692 6.922 7.192 0 3.55-2.722 4.902-5.933 4.902-1.73 0-2.555-.168-4.121-.59l.332-2.96c1.07.589 2.304 1.015 3.543 1.015 1.234 0 2.882-.676 2.882-2.114 0-3.132-7.003-1.863-7.003-7.277C17.602 1.57 20.32.13 23.203.13c1.32 0 2.637.254 3.793.68Zm0 0"/></g></g><g id="h" clip-path="url(#c)"><g clip-path="url(#d)"><path d="M3.016 25.207v-4.055c2.25-2.18 10.457-9.039 10.457-13.468 0-2.22-1.977-3.254-3.95-3.254-2.043 0-3.98.898-5.574 1.937L3.57 2.352a16 16 0 0 1 7.168-1.73c4.606 0 7.582 2.32 7.582 7.062 0 5.125-5.16 9.836-9.105 13.71h9.867v3.813z"/></g><g clip-path="url(#e)"><path d="M22.68 20.703c1.664.66 3.465 1.106 5.367 1.106 2.008 0 5.09-.97 5.09-3.422 0-2.844-2.25-3.782-5.336-3.782h-2.352v-3.804h2.219c3.258 0 5.367-1.078 5.367-3.188 0-2.426-1.976-3.183-4.156-3.183-1.902 0-3.738.449-5.438 1.277l-.273-3.875c1.937-.766 4.258-1.21 6.75-1.21 2.977 0 7.96 1.038 7.96 6.194 0 3.29-2.042 4.848-4.5 5.786v.07c3.087.41 4.606 2.8 4.606 5.746 0 5.746-5.226 7.203-9.246 7.203-2.11 0-4.535-.281-6.336-.797z"/></g></g><g id="i" clip-path="url(#f)"><path fill="#3766B3" d="M0 54.148V20.852C0 9.336 9.336 0 20.852 0h33.3C65.664 0 75 9.336 75 20.852v33.296C75 65.664 65.664 75 54.152 75h-33.3C9.336 75 0 65.664 0 54.148m0 0"/><path fill="#FFF" d="M8.32 54.148V20.852c0-6.922 5.61-12.532 12.532-12.532h33.3c6.918 0 12.528 5.61 12.528 12.532v33.296c0 6.922-5.61 12.532-12.528 12.532h-33.3c-6.922 0-12.532-5.61-12.532-12.532m0 0"/><use xlink:href="#g" transform="translate(22 13)"/><use xlink:href="#h" transform="translate(17 36)"/></g></defs><use xlink:href="#i"/></svg>