<svg xmlns="http://www.w3.org/2000/svg" xmlns:xlink="http://www.w3.org/1999/xlink" width="75" height="75"><defs><clipPath id="b"><path d="M3 .129h25v17H3Zm0 0"/></clipPath><clipPath id="a"><path d="M0 0h31v18H0z"/></clipPath><clipPath id="d"><path d="M2 1h19v24.621H2Zm0 0"/></clipPath><clipPath id="e"><path d="M22 .621h17v25H22Zm0 0"/></clipPath><clipPath id="c"><path d="M0 0h41v26H0z"/></clipPath><clipPath id="f"><path d="M0 0h75v75H0z"/></clipPath><g clip-path="url(#a)"><g id="g" clip-path="url(#b)"><path fill="#211B19" d="M7.715 3.09H3.098V.555h12.359V3.09h-4.613v13.789h-3.13Zm18.95.426a8 8 0 0 0-3.212-.762c-1.074 0-2.473.508-2.473 2.281 0 2.88 6.922 1.692 6.922 7.192 0 3.55-2.722 4.902-5.933 4.902-1.73 0-2.555-.168-4.121-.59l.332-2.96c1.07.589 2.304 1.015 3.543 1.015 1.234 0 2.882-.676 2.882-2.114 0-3.132-7.003-1.863-7.003-7.277C17.602 1.57 20.32.13 23.203.13c1.32 0 2.637.254 3.793.68Zm0 0"/></g></g><g id="h" clip-path="url(#c)"><g clip-path="url(#d)"><path d="m2.582 16.27 9.04-15.235h6.023v15.547h3.082v3.602h-3.082v5.023h-4.641v-5.023H2.582zm10.422.312V6.09h-.066L6.945 16.582Zm0 0"/></g><g clip-path="url(#e)"><path d="M23.113 20.707c1.664.656 3.461 1.105 5.367 1.105 2.008 0 5.09-.972 5.09-3.425 0-2.844-2.25-3.778-5.332-3.778h-2.351v-3.808h2.21c3.258 0 5.372-1.074 5.372-3.188 0-2.422-1.973-3.183-4.157-3.183-1.902 0-3.738.449-5.437 1.28l-.277-3.878c1.937-.762 4.261-1.21 6.754-1.21 2.976 0 7.964 1.038 7.964 6.194 0 3.293-2.046 4.852-4.504 5.786v.07c3.086.414 4.606 2.805 4.606 5.746 0 5.75-5.227 7.203-9.242 7.203-2.117 0-4.54-.277-6.34-.797z"/></g></g><g id="i" clip-path="url(#f)"><path fill="#3766B3" d="M0 54.148V20.852C0 9.336 9.336 0 20.852 0h33.3C65.664 0 75 9.336 75 20.852v33.296C75 65.664 65.664 75 54.152 75h-33.3C9.336 75 0 65.664 0 54.148m0 0"/><path fill="#FFF" d="M8.32 54.148V20.852c0-6.922 5.61-12.532 12.532-12.532h33.3c6.918 0 12.528 5.61 12.528 12.532v33.296c0 6.922-5.61 12.532-12.528 12.532h-33.3c-6.922 0-12.532-5.61-12.532-12.532m0 0"/><use xlink:href="#g" transform="translate(22 13)"/><use xlink:href="#h" transform="translate(17 36)"/></g></defs><use xlink:href="#i"/></svg>