<svg xmlns="http://www.w3.org/2000/svg" xmlns:xlink="http://www.w3.org/1999/xlink" width="75" height="75"><defs><clipPath id="b"><path d="M3 .129h25v17H3Zm0 0"/></clipPath><clipPath id="a"><path d="M0 0h31v18H0z"/></clipPath><clipPath id="d"><path d="M5 .621h16v25H5Zm0 0"/></clipPath><clipPath id="e"><path d="M23 .621h13V25H23Zm0 0"/></clipPath><clipPath id="c"><path d="M0 0h41v26H0z"/></clipPath><clipPath id="f"><path d="M0 0h75v75H0z"/></clipPath><g clip-path="url(#a)"><g id="g" clip-path="url(#b)"><path fill="#211B19" d="M7.715 3.09H3.098V.555h12.359V3.09h-4.613v13.789h-3.13Zm18.95.426a8 8 0 0 0-3.212-.762c-1.074 0-2.473.508-2.473 2.281 0 2.88 6.922 1.692 6.922 7.192 0 3.55-2.722 4.902-5.933 4.902-1.73 0-2.555-.168-4.121-.59l.332-2.96c1.07.589 2.304 1.015 3.543 1.015 1.234 0 2.882-.676 2.882-2.114 0-3.132-7.003-1.863-7.003-7.277C17.602 1.57 20.32.13 23.203.13c1.32 0 2.637.254 3.793.68Zm0 0"/></g></g><g id="h" clip-path="url(#c)"><g clip-path="url(#d)"><path d="M20.242 4.43H10.93l-.106 5.16c.555-.106 1.281-.242 2.219-.242 3.39 0 7.785 1.59 7.785 7.859 0 4.531-3.183 8.207-9.414 8.207-1.871 0-4.05-.316-5.644-.695l.105-4.328c1.176.484 2.84 1.214 4.95 1.214 2.53 0 5.16-1.18 5.16-4.261 0-3.114-2.77-4.192-5.544-4.192-1.484 0-2.906.211-4.324.66L6.36.829h13.883z"/></g><g clip-path="url(#e)"><path d="M30.938.828h4.296v24.168h-4.851V6.332l-4.086 3.324-2.422-3.148z"/></g></g><g id="i" clip-path="url(#f)"><path fill="#3766B3" d="M0 54.148V20.852C0 9.336 9.336 0 20.852 0h33.3C65.664 0 75 9.336 75 20.852v33.296C75 65.664 65.664 75 54.152 75h-33.3C9.336 75 0 65.664 0 54.148m0 0"/><path fill="#FFF" d="M8.32 54.148V20.852c0-6.922 5.61-12.532 12.532-12.532h33.3c6.918 0 12.528 5.61 12.528 12.532v33.296c0 6.922-5.61 12.532-12.528 12.532h-33.3c-6.922 0-12.532-5.61-12.532-12.532m0 0"/><use xlink:href="#g" transform="translate(22 13)"/><use xlink:href="#h" transform="translate(17 36)"/></g></defs><use xlink:href="#i"/></svg>