<svg xmlns="http://www.w3.org/2000/svg" width="75" height="75" fill="none" viewBox="0 0 24 24"><g clip-path="url(#a)"><path fill="#fff" d="M19.2 0H4.8A4.8 4.8 0 0 0 0 4.8v14.4A4.8 4.8 0 0 0 4.8 24h14.4a4.8 4.8 0 0 0 4.8-4.8V4.8A4.8 4.8 0 0 0 19.2 0Z"/><path fill="#00AA8E" d="M19.2 23.399H4.808a4.233 4.233 0 0 1-4.232-4.233V4.775A4.233 4.233 0 0 1 4.808.542H19.2a4.233 4.233 0 0 1 4.233 4.233v14.391A4.233 4.233 0 0 1 19.2 23.4Z"/><path fill="#fff" d="M7.103 3.09c.605-.09 1.216-.135 1.828-.135a3.86 3.86 0 0 1 2.464.643 2.65 2.65 0 0 1 1.016 2.26 3.048 3.048 0 0 1-.99 2.43c-.81.567-1.791.839-2.778.77-.514.004-1.03-.024-1.54-.084V3.09Zm1.354 4.885c.158.013.316.013.474 0a1.871 1.871 0 0 0 2.049-2.1A1.737 1.737 0 0 0 9.075 3.97a2.43 2.43 0 0 0-.618.06v3.945ZM14.29 4.14h-1.625V2.997h4.613V4.14h-1.634v4.859H14.29v-4.86ZM11.598 16.16c0 2.854-1.151 4.843-3.513 4.843s-3.454-2.159-3.471-4.791c-.017-2.633 1.126-4.809 3.53-4.809s3.454 2.21 3.454 4.758Zm-4.809.052c0 2.133.508 3.149 1.338 3.149.83 0 1.304-1.058 1.304-3.175 0-2.116-.449-3.14-1.32-3.14-.873 0-1.322.998-1.322 3.166ZM15.297 13.486h-.025l-1.77.846-.363-1.634 2.472-1.142h1.786v9.286h-2.1v-7.356Z"/></g><defs><clipPath id="a"><path fill="#fff" d="M0 0h75v75H0z"/></clipPath></defs></svg>