<svg xmlns="http://www.w3.org/2000/svg" width="75" height="75" fill="none" viewBox="0 0 24 24"><g clip-path="url(#a)"><path fill="#fff" d="M19.2 0H4.8A4.8 4.8 0 0 0 0 4.8v14.4A4.8 4.8 0 0 0 4.8 24h14.4a4.8 4.8 0 0 0 4.8-4.8V4.8A4.8 4.8 0 0 0 19.2 0Z"/><path fill="#00AA8E" d="M19.2 23.399H4.808a4.233 4.233 0 0 1-4.232-4.233V4.775A4.233 4.233 0 0 1 4.808.542H19.2a4.233 4.233 0 0 1 4.233 4.233v14.391A4.233 4.233 0 0 1 19.2 23.4Z"/><path fill="#fff" d="M7.103 3.09c.605-.09 1.216-.135 1.828-.135a3.92 3.92 0 0 1 2.464.643 2.65 2.65 0 0 1 1.016 2.26 3.048 3.048 0 0 1-.99 2.43c-.81.57-1.79.845-2.778.779-.515.002-1.03-.029-1.54-.093V3.09Zm1.354 4.885c.158.013.316.013.474 0a1.863 1.863 0 0 0 2.049-2.1A1.737 1.737 0 0 0 9.075 3.97a2.912 2.912 0 0 0-.618.06v3.945ZM14.29 4.14h-1.625V2.997h4.613V4.14h-1.634v4.859H14.29v-4.86ZM11.598 16.16c0 2.854-1.151 4.843-3.513 4.843s-3.454-2.159-3.471-4.791c-.017-2.633 1.126-4.809 3.53-4.809s3.454 2.21 3.454 4.758Zm-4.809.052c0 2.133.508 3.149 1.338 3.149.83 0 1.304-1.058 1.304-3.175 0-2.116-.449-3.14-1.32-3.14-.873 0-1.322.998-1.322 3.166ZM12.91 18.718c.667.35 1.406.544 2.159.567 1.126 0 1.693-.542 1.693-1.228 0-.931-.914-1.346-1.871-1.346h-.889v-1.55h.847c.728 0 1.642-.287 1.642-1.074 0-.559-.449-.974-1.371-.974a4.114 4.114 0 0 0-1.93.559l-.45-1.575a5.815 5.815 0 0 1 2.88-.694c1.972 0 3.072 1.041 3.072 2.311A2.218 2.218 0 0 1 17 15.873a2.32 2.32 0 0 1 2.015 2.277c0 1.626-1.448 2.828-3.801 2.828a5.638 5.638 0 0 1-2.76-.644l.457-1.616Z"/></g><defs><clipPath id="a"><path fill="#fff" d="M0 0h75v75H0z"/></clipPath></defs></svg>