<svg xmlns="http://www.w3.org/2000/svg" width="75" height="75" fill="none" viewBox="0 0 24 24"><g clip-path="url(#a)"><path fill="#fff" d="M19.2 0H4.8A4.8 4.8 0 0 0 0 4.8v14.4A4.8 4.8 0 0 0 4.8 24h14.4a4.8 4.8 0 0 0 4.8-4.8V4.8A4.8 4.8 0 0 0 19.2 0Z"/><path fill="#00AA8E" d="M19.2 23.424H4.808a4.233 4.233 0 0 1-4.232-4.232V4.8A4.233 4.233 0 0 1 4.808.567H19.2A4.233 4.233 0 0 1 23.433 4.8v14.392a4.233 4.233 0 0 1-4.233 4.232Z"/><path fill="#fff" d="M7.103 3.107c.605-.09 1.216-.135 1.828-.136a3.92 3.92 0 0 1 2.464.644 2.65 2.65 0 0 1 1.016 2.26 3.048 3.048 0 0 1-.99 2.43c-.81.57-1.79.845-2.778.779-.515.002-1.03-.029-1.54-.093V3.107Zm1.354 4.885c.158.013.316.013.474 0A1.863 1.863 0 0 0 11.005 5.9a1.737 1.737 0 0 0-1.904-1.905 2.912 2.912 0 0 0-.618.059l-.026 3.937ZM14.29 4.14h-1.625V2.997h4.613V4.14h-1.634v4.859H14.29v-4.86ZM11.598 16.16c0 2.854-1.151 4.843-3.513 4.843s-3.454-2.158-3.471-4.791c-.017-2.633 1.126-4.809 3.53-4.809s3.454 2.21 3.454 4.758Zm-4.809.052c0 2.133.508 3.149 1.338 3.149.83 0 1.304-1.058 1.304-3.175 0-2.116-.449-3.14-1.32-3.14-.873 0-1.322.999-1.322 3.166ZM16.372 20.885v-2.21h-4.114v-1.414l3.497-5.663h2.675v5.443h1.1v1.634h-1.1v2.21h-2.058Zm0-3.844V14.96c0-.559 0-1.126.051-1.693-.296.6-.55 1.143-.846 1.693l-1.228 2.032 2.023.05Z"/></g><defs><clipPath id="a"><path fill="#fff" d="M0 0h75v75H0z"/></clipPath></defs></svg>