<svg xmlns="http://www.w3.org/2000/svg" width="75" height="75" fill="none" viewBox="0 0 24 24"><g clip-path="url(#a)"><path fill="#fff" d="M19.2 0H4.8A4.8 4.8 0 0 0 0 4.8v14.4A4.8 4.8 0 0 0 4.8 24h14.4a4.8 4.8 0 0 0 4.8-4.8V4.8A4.8 4.8 0 0 0 19.2 0Z"/><path fill="#00AA8E" d="M19.2 23.399H4.808a4.233 4.233 0 0 1-4.232-4.233V4.775A4.233 4.233 0 0 1 4.808.542H19.2a4.233 4.233 0 0 1 4.233 4.233v14.391A4.233 4.233 0 0 1 19.2 23.4Z"/><path fill="#fff" d="M7.103 3.09c.605-.09 1.216-.135 1.828-.135a3.92 3.92 0 0 1 2.464.643 2.65 2.65 0 0 1 1.016 2.26 3.048 3.048 0 0 1-.99 2.43c-.81.57-1.79.845-2.778.779-.515.002-1.03-.029-1.54-.093V3.09Zm1.354 4.885c.158.018.317.018.474 0A1.871 1.871 0 0 0 11.005 5.9a1.737 1.737 0 0 0-1.904-1.905 2.913 2.913 0 0 0-.618.059l-.026 3.92ZM14.29 4.14h-1.625V2.997h4.613V4.14h-1.634v4.859H14.29v-4.86ZM11.598 16.16c0 2.854-1.151 4.843-3.513 4.843S4.63 18.844 4.614 16.22c-.017-2.624 1.126-4.817 3.53-4.817s3.454 2.21 3.454 4.758Zm-4.809.06c0 2.125.508 3.14 1.338 3.14.83 0 1.304-1.057 1.304-3.174 0-2.116-.449-3.14-1.32-3.14-.873 0-1.322.998-1.322 3.174ZM18.455 13.105a5.921 5.921 0 0 0-.847 0c-1.93.16-2.793 1.143-3.03 2.218a2.676 2.676 0 0 1 1.972-.728 2.81 2.81 0 0 1 2.87 3.022 3.319 3.319 0 0 1-3.386 3.386c-2.489 0-3.708-1.845-3.708-4.055a5.587 5.587 0 0 1 1.693-4.148 5.529 5.529 0 0 1 3.573-1.355 4.45 4.45 0 0 1 .846 0l.017 1.66ZM17.27 17.76a1.422 1.422 0 0 0-1.388-1.6 1.388 1.388 0 0 0-1.27.846c-.08.175-.115.367-.102.56.042.981.516 1.87 1.515 1.87.762 0 1.245-.703 1.245-1.642"/></g><defs><clipPath id="a"><path fill="#fff" d="M0 0h75v75H0z"/></clipPath></defs></svg>