<svg xmlns="http://www.w3.org/2000/svg" width="75" height="75" fill="none" viewBox="0 0 24 24"><g clip-path="url(#a)"><path fill="#fff" d="M19.2 0H4.8A4.8 4.8 0 0 0 0 4.8v14.4A4.8 4.8 0 0 0 4.8 24h14.4a4.8 4.8 0 0 0 4.8-4.8V4.8A4.8 4.8 0 0 0 19.2 0Z"/><path fill="#00AA8E" d="M19.2 23.399H4.808a4.233 4.233 0 0 1-4.232-4.233V4.775A4.233 4.233 0 0 1 4.808.542H19.2a4.233 4.233 0 0 1 4.233 4.233v14.391A4.233 4.233 0 0 1 19.2 23.4Z"/><path fill="#fff" d="M7.103 3.09a12.63 12.63 0 0 1 1.828-.127 3.92 3.92 0 0 1 2.464.635 2.65 2.65 0 0 1 1.016 2.26 3.048 3.048 0 0 1-.99 2.43c-.81.57-1.79.845-2.778.779a11.85 11.85 0 0 1-1.54-.093V3.09Zm1.354 4.893c.158.014.316.014.474 0a1.871 1.871 0 0 0 2.049-2.1A1.695 1.695 0 0 0 9.075 3.98a3.081 3.081 0 0 0-.618.05v3.954ZM14.29 4.14h-1.625V2.997h4.613V4.14h-1.634v4.859H14.29v-4.86ZM11.598 16.186c0 2.853-1.151 4.843-3.513 4.843s-3.454-2.16-3.471-4.783c-.017-2.625 1.126-4.817 3.53-4.817s3.454 2.218 3.454 4.757Zm-4.826 0c0 2.125.508 3.141 1.338 3.141.83 0 1.304-1.058 1.304-3.175 0-2.116-.449-3.14-1.32-3.14-.873 0-1.322 1.032-1.322 3.174ZM19.183 11.556v1.371l-3.826 7.915h-2.303l3.835-7.475v-.025H12.63v-1.786h6.552Z"/></g><defs><clipPath id="a"><path fill="#fff" d="M0 0h75v75H0z"/></clipPath></defs></svg>