<svg xmlns="http://www.w3.org/2000/svg" width="75" height="75" fill="none" viewBox="0 0 24 24"><g clip-path="url(#a)"><path fill="#fff" d="M19.2 0H4.8A4.8 4.8 0 0 0 0 4.8v14.4A4.8 4.8 0 0 0 4.8 24h14.4a4.8 4.8 0 0 0 4.8-4.8V4.8A4.8 4.8 0 0 0 19.2 0Z"/><path fill="#00AA8E" d="M19.2 23.399H4.808a4.233 4.233 0 0 1-4.232-4.233V4.775A4.233 4.233 0 0 1 4.808.542H19.2a4.233 4.233 0 0 1 4.233 4.233v14.391A4.233 4.233 0 0 1 19.2 23.4Z"/><path fill="#fff" d="M7.103 3.09a12.63 12.63 0 0 1 1.828-.127 3.92 3.92 0 0 1 2.464.635 2.65 2.65 0 0 1 1.016 2.26 3.031 3.031 0 0 1-.99 2.43c-.81.57-1.79.845-2.778.779-.515.006-1.03-.025-1.54-.093V3.09Zm1.363 4.885c.157.013.316.013.474 0a1.87 1.87 0 0 0 2.048-2.1A1.693 1.693 0 0 0 9.084 3.97a3.082 3.082 0 0 0-.618.051v3.954ZM14.29 4.14h-1.625V2.997h4.613V4.14h-1.634v4.859H14.29v-4.86ZM11.598 16.16c0 2.854-1.151 4.843-3.513 4.843S4.63 18.844 4.614 16.22c-.017-2.624 1.126-4.817 3.53-4.817s3.454 2.21 3.454 4.758Zm-4.809.06c0 2.125.508 3.14 1.338 3.14.83 0 1.304-1.057 1.304-3.174 0-2.116-.449-3.14-1.32-3.14-.873 0-1.322.998-1.322 3.174ZM13.198 19.293c.316.017.632.017.948 0a3.792 3.792 0 0 0 1.829-.575 2.844 2.844 0 0 0 1.168-1.694 2.453 2.453 0 0 1-1.871.67 2.776 2.776 0 0 1-2.887-2.896 3.386 3.386 0 0 1 3.505-3.344c2.387 0 3.513 1.829 3.513 3.996a5.02 5.02 0 0 1-5.19 5.579 9.462 9.462 0 0 1-.981 0l-.034-1.736Zm1.312-4.673a1.336 1.336 0 0 0 1.32 1.482 1.363 1.363 0 0 0 1.211-.601c.079-.176.113-.367.102-.56 0-.981-.356-1.955-1.372-1.955-.728 0-1.26.66-1.26 1.634Z"/></g><defs><clipPath id="a"><path fill="#fff" d="M0 0h75v75H0z"/></clipPath></defs></svg>