<svg xmlns="http://www.w3.org/2000/svg" width="75" height="75" fill="none" viewBox="0 0 24 24"><g clip-path="url(#a)"><path fill="#fff" d="M19.2 0H4.8A4.8 4.8 0 0 0 0 4.8v14.4A4.8 4.8 0 0 0 4.8 24h14.4a4.8 4.8 0 0 0 4.8-4.8V4.8A4.8 4.8 0 0 0 19.2 0Z"/><path fill="#00AA8E" d="M19.2 23.399H4.808a4.233 4.233 0 0 1-4.232-4.233V4.775A4.233 4.233 0 0 1 4.808.542H19.2a4.233 4.233 0 0 1 4.233 4.233v14.391A4.233 4.233 0 0 1 19.2 23.4Z"/><path fill="#fff" d="M7.103 3.09a12.63 12.63 0 0 1 1.828-.127 3.92 3.92 0 0 1 2.464.635 2.65 2.65 0 0 1 1.016 2.26 3.031 3.031 0 0 1-.99 2.43c-.81.57-1.79.845-2.778.779-.515.006-1.03-.025-1.54-.093V3.09Zm1.354 4.893c.158.014.316.014.474 0a1.871 1.871 0 0 0 2.049-2.1A1.695 1.695 0 0 0 9.075 3.98a3.081 3.081 0 0 0-.618.05v3.954ZM14.29 4.14h-1.625V2.997h4.613V4.14h-1.634v4.859H14.29v-4.86ZM7.517 13.486h-.033l-1.77.838-.355-1.626 2.472-1.142h1.786v9.286h-2.1v-7.356ZM19.386 16.16c0 2.854-1.16 4.843-3.513 4.843-2.353 0-3.462-2.159-3.47-4.783-.01-2.624 1.125-4.817 3.52-4.817 2.397 0 3.463 2.218 3.463 4.758Zm-4.817.06c0 2.125.517 3.14 1.346 3.14.83 0 1.296-1.057 1.296-3.174 0-2.116-.44-3.14-1.313-3.14-.872 0-1.329.998-1.329 3.174Z"/></g><defs><clipPath id="a"><path fill="#fff" d="M0 0h75v75H0z"/></clipPath></defs></svg>