<svg xmlns="http://www.w3.org/2000/svg" width="75" height="75" fill="none" viewBox="0 0 24 24"><g clip-path="url(#a)"><path fill="#fff" d="M19.2 0H4.8A4.8 4.8 0 0 0 0 4.8v14.4A4.8 4.8 0 0 0 4.8 24h14.4a4.8 4.8 0 0 0 4.8-4.8V4.8A4.8 4.8 0 0 0 19.2 0Z"/><path fill="#00AA8E" d="M19.2 23.399H4.808a4.233 4.233 0 0 1-4.232-4.233V4.775A4.233 4.233 0 0 1 4.808.542H19.2a4.233 4.233 0 0 1 4.233 4.233v14.391A4.233 4.233 0 0 1 19.2 23.4Z"/><path fill="#fff" d="M7.103 3.09c.605-.094 1.216-.14 1.828-.136a3.86 3.86 0 0 1 2.464.644 2.641 2.641 0 0 1 1.016 2.26 3.056 3.056 0 0 1-.99 2.43c-.81.567-1.791.839-2.778.77-.514.004-1.03-.024-1.54-.084V3.09Zm1.354 4.885c.158.013.316.013.474 0a1.87 1.87 0 0 0 2.074-2.04A1.737 1.737 0 0 0 9.101 4.03a3.081 3.081 0 0 0-.618.05l-.026 3.895ZM14.29 4.14h-1.625V2.997h4.613V4.14h-1.634v4.859H14.29v-4.86ZM7.517 13.486h-.033l-1.77.838-.355-1.626 2.472-1.142h1.786v9.286h-2.1v-7.356ZM12.91 18.709a4.841 4.841 0 0 0 2.159.576c1.126 0 1.693-.542 1.693-1.228 0-.931-.914-1.346-1.871-1.346h-.889v-1.557h.847c.728 0 1.642-.288 1.642-1.076 0-.55-.449-.965-1.371-.965a4.115 4.115 0 0 0-1.93.559l-.45-1.575a5.808 5.808 0 0 1 2.88-.702c1.972 0 3.072 1.041 3.072 2.32A2.21 2.21 0 0 1 17 15.864a2.311 2.311 0 0 1 2.015 2.268c0 1.634-1.448 2.828-3.801 2.828a5.64 5.64 0 0 1-2.76-.643l.457-1.609Z"/></g><defs><clipPath id="a"><path fill="#fff" d="M0 0h75v75H0z"/></clipPath></defs></svg>