<svg xmlns="http://www.w3.org/2000/svg" width="75" height="75" fill="none" viewBox="0 0 24 24"><g clip-path="url(#a)"><path fill="#fff" d="M19.2 0H4.8A4.8 4.8 0 0 0 0 4.8v14.4A4.8 4.8 0 0 0 4.8 24h14.4a4.8 4.8 0 0 0 4.8-4.8V4.8A4.8 4.8 0 0 0 19.2 0Z"/><path fill="#00AA8E" d="M19.2 23.399H4.808a4.233 4.233 0 0 1-4.232-4.233V4.775A4.233 4.233 0 0 1 4.808.542H19.2a4.233 4.233 0 0 1 4.233 4.233v14.391A4.233 4.233 0 0 1 19.2 23.4Z"/><path fill="#fff" d="M7.103 3.09c.605-.094 1.216-.14 1.828-.136a3.86 3.86 0 0 1 2.464.644 2.641 2.641 0 0 1 1.016 2.26 3.056 3.056 0 0 1-.99 2.43c-.81.567-1.791.839-2.778.77-.514.004-1.03-.024-1.54-.084V3.09Zm1.354 4.885c.158.013.316.013.474 0a1.87 1.87 0 0 0 2.049-2.1A1.737 1.737 0 0 0 9.075 3.97a3.081 3.081 0 0 0-.618.051v3.954ZM14.29 4.14h-1.625V2.997h4.613V4.14h-1.634v4.859H14.29v-4.86ZM7.517 13.486h-.033l-1.77.838-.355-1.626 2.472-1.142h1.786v9.286h-2.1v-7.356ZM18.726 13.342h-3.598l-.203 1.43c.2-.017.401-.017.6 0a4.233 4.233 0 0 1 2.448.67 2.641 2.641 0 0 1 1.125 2.327c0 1.736-1.481 3.26-3.987 3.26a5.926 5.926 0 0 1-2.582-.525l.398-1.634a5.139 5.139 0 0 0 2.082.457c.906 0 1.863-.423 1.863-1.414 0-.99-.787-1.566-2.616-1.566a8.536 8.536 0 0 0-1.244.085l.6-4.868h5.08l.034 1.778Z"/></g><defs><clipPath id="a"><path fill="#fff" d="M0 0h75v75H0z"/></clipPath></defs></svg>