<svg xmlns="http://www.w3.org/2000/svg" width="75" height="75" fill="none" viewBox="0 0 24 24"><g clip-path="url(#a)"><path fill="#fff" d="M19.2 0H4.8A4.8 4.8 0 0 0 0 4.8v14.4A4.8 4.8 0 0 0 4.8 24h14.4a4.8 4.8 0 0 0 4.8-4.8V4.8A4.8 4.8 0 0 0 19.2 0Z"/><path fill="#00AA8E" d="M19.2 23.399H4.808a4.233 4.233 0 0 1-4.232-4.233V4.775A4.233 4.233 0 0 1 4.808.542H19.2a4.233 4.233 0 0 1 4.233 4.233v14.391A4.233 4.233 0 0 1 19.2 23.4Z"/><path fill="#fff" d="M7.103 3.09c.605-.094 1.216-.14 1.828-.135a3.86 3.86 0 0 1 2.464.643 2.65 2.65 0 0 1 1.016 2.26 3.048 3.048 0 0 1-.99 2.43c-.81.567-1.791.839-2.778.77-.514.004-1.03-.024-1.54-.084V3.09Zm1.363 4.918c.157.014.316.014.474 0a1.871 1.871 0 0 0 2.048-2.099 1.735 1.735 0 0 0-1.904-1.905 3.08 3.08 0 0 0-.618.051v3.953ZM14.29 4.14h-1.625V2.997h4.613V4.14h-1.634v4.859H14.29v-4.86ZM7.517 13.486h-.025l-1.778.846-.355-1.634 2.472-1.142h1.786v9.286h-2.1v-7.356ZM18.455 13.088a6.071 6.071 0 0 0-.847 0c-1.93.152-2.785 1.143-3.03 2.21a2.692 2.692 0 0 1 1.972-.729 2.819 2.819 0 0 1 2.87 3.031 3.319 3.319 0 0 1-3.386 3.386c-2.489 0-3.7-1.845-3.7-4.063a5.578 5.578 0 0 1 1.651-4.14 5.485 5.485 0 0 1 3.573-1.354c.281-.031.565-.031.846 0l.051 1.659Zm-1.185 4.656a1.413 1.413 0 0 0-1.38-1.592 1.397 1.397 0 0 0-1.278.847 1.168 1.168 0 0 0-.094.55c.043.99.508 1.88 1.507 1.88.762 0 1.245-.703 1.245-1.694"/></g><defs><clipPath id="a"><path fill="#fff" d="M0 0h75v75H0z"/></clipPath></defs></svg>