<svg xmlns="http://www.w3.org/2000/svg" width="75" height="75" fill="none" viewBox="0 0 24 24"><g clip-path="url(#a)"><path fill="#fff" d="M19.2 0H4.8A4.8 4.8 0 0 0 0 4.8v14.4A4.8 4.8 0 0 0 4.8 24h14.4a4.8 4.8 0 0 0 4.8-4.8V4.8A4.8 4.8 0 0 0 19.2 0Z"/><path fill="#00AA8E" d="M19.2 23.374H4.808A4.233 4.233 0 0 1 .576 19.14V4.749A4.233 4.233 0 0 1 4.808.516H19.2a4.233 4.233 0 0 1 4.233 4.233v14.392a4.233 4.233 0 0 1-4.233 4.233Z"/><path fill="#fff" d="M7.103 3.056c.605-.094 1.216-.14 1.828-.135a3.86 3.86 0 0 1 2.464.643 2.65 2.65 0 0 1 1.016 2.26 3.048 3.048 0 0 1-.99 2.43c-.81.567-1.791.84-2.778.77-.514.004-1.03-.024-1.54-.084V3.056Zm1.354 4.885c.158.014.316.014.474 0a1.871 1.871 0 0 0 2.049-2.1 1.737 1.737 0 0 0-1.905-1.905 3.081 3.081 0 0 0-.618.051v3.954ZM14.29 4.14h-1.625V2.997h4.613V4.14h-1.634v4.859H14.29v-4.86ZM7.517 13.486h-.025l-1.778.846-.355-1.634 2.472-1.142h1.786v9.286h-2.1v-7.356ZM19.183 11.556v1.371l-3.826 7.915h-2.303l3.835-7.475v-.025H12.63v-1.786h6.552Z"/></g><defs><clipPath id="a"><path fill="#fff" d="M0 0h75v75H0z"/></clipPath></defs></svg>