<svg xmlns="http://www.w3.org/2000/svg" width="75" height="75" fill="none" viewBox="0 0 24 24"><g clip-path="url(#a)"><path fill="#fff" d="M19.2 0H4.8A4.8 4.8 0 0 0 0 4.8v14.4A4.8 4.8 0 0 0 4.8 24h14.4a4.8 4.8 0 0 0 4.8-4.8V4.8A4.8 4.8 0 0 0 19.2 0Z"/><path fill="#00AA8E" d="M19.2 23.399H4.808a4.233 4.233 0 0 1-4.232-4.233V4.775A4.233 4.233 0 0 1 4.808.542H19.2a4.233 4.233 0 0 1 4.233 4.233v14.391A4.233 4.233 0 0 1 19.2 23.4Z"/><path fill="#fff" d="M7.103 3.09c.605-.09 1.216-.135 1.828-.136a3.86 3.86 0 0 1 2.464.644 2.65 2.65 0 0 1 1.016 2.26 3.048 3.048 0 0 1-.99 2.43c-.81.567-1.791.839-2.778.77-.514.004-1.03-.024-1.54-.084V3.09Zm1.354 4.885c.158.013.316.013.474 0a1.87 1.87 0 0 0 2.049-2.1A1.737 1.737 0 0 0 9.075 3.97a2.43 2.43 0 0 0-.618.06v3.945ZM14.29 4.14h-1.625V2.997h4.613V4.14h-1.634v4.859H14.29v-4.86ZM7.517 13.486h-.025l-1.778.846-.355-1.634 2.472-1.142h1.786v9.286h-2.1v-7.356ZM14.044 16.06a2.302 2.302 0 0 1-1.346-2.05c0-1.566 1.414-2.607 3.277-2.607 2.167 0 3.073 1.253 3.073 2.379a2.26 2.26 0 0 1-1.363 2.049 2.446 2.446 0 0 1 1.693 2.302c0 1.693-1.414 2.828-3.573 2.828-2.362 0-3.445-1.33-3.445-2.59a2.472 2.472 0 0 1 1.693-2.329l-.009.017Zm3.141 2.285c0-.847-.61-1.304-1.456-1.532a1.414 1.414 0 0 0-1.126 1.388 1.269 1.269 0 0 0 1.312 1.295 1.175 1.175 0 0 0 1.27-1.151Zm-2.43-4.402c0 .626.56 1.024 1.304 1.253a1.253 1.253 0 0 0 .94-1.168 1.074 1.074 0 0 0-1.126-1.16 1.033 1.033 0 0 0-1.117 1.075Z"/></g><defs><clipPath id="a"><path fill="#fff" d="M0 0h75v75H0z"/></clipPath></defs></svg>