<svg xmlns="http://www.w3.org/2000/svg" width="75" height="75" fill="none" viewBox="0 0 24 24"><g clip-path="url(#a)"><path fill="#fff" d="M19.2 0H4.8A4.8 4.8 0 0 0 0 4.8v14.4A4.8 4.8 0 0 0 4.8 24h14.4a4.8 4.8 0 0 0 4.8-4.8V4.8A4.8 4.8 0 0 0 19.2 0Z"/><path fill="#00AA8E" d="M19.2 23.399H4.808a4.233 4.233 0 0 1-4.232-4.233V4.775A4.233 4.233 0 0 1 4.808.542H19.2a4.233 4.233 0 0 1 4.233 4.233v14.391A4.233 4.233 0 0 1 19.2 23.4Z"/><path fill="#fff" d="M7.111 3.09a11.26 11.26 0 0 1 1.82-.135 3.86 3.86 0 0 1 2.464.643 2.65 2.65 0 0 1 1.016 2.26 3.048 3.048 0 0 1-.99 2.43 4.309 4.309 0 0 1-2.77.77c-.514.005-1.029-.023-1.54-.084V3.09Zm1.346 4.885c.158.013.316.013.474 0a1.87 1.87 0 0 0 2.049-2.1A1.693 1.693 0 0 0 9.075 3.97a3.081 3.081 0 0 0-.618.051v3.954ZM14.29 4.14h-1.625V2.997h4.613V4.14h-1.634v4.859H14.29v-4.86ZM7.517 13.486h-.025l-1.778.846-.355-1.634 2.472-1.142h1.786v9.286h-2.1v-7.356ZM13.198 19.285c.315.025.633.025.948 0a3.7 3.7 0 0 0 1.829-.567 2.802 2.802 0 0 0 1.168-1.694 2.54 2.54 0 0 1-1.871.67 2.777 2.777 0 0 1-2.887-2.905 3.387 3.387 0 0 1 3.497-3.335c2.387 0 3.521 1.829 3.521 3.996a5.03 5.03 0 0 1-5.19 5.57c-.329.026-.66.026-.99 0l-.025-1.735Zm1.32-4.673a1.329 1.329 0 0 0 1.313 1.49 1.354 1.354 0 0 0 1.21-.601c.083-.175.118-.367.102-.56 0-.981-.356-1.955-1.372-1.955-.728 0-1.253.652-1.253 1.626Z"/></g><defs><clipPath id="a"><path fill="#fff" d="M0 0h75v75H0z"/></clipPath></defs></svg>