<svg xmlns="http://www.w3.org/2000/svg" width="75" height="75" fill="none" viewBox="0 0 24 24"><g clip-path="url(#a)"><path fill="#fff" d="M19.2 0H4.8A4.8 4.8 0 0 0 0 4.8v14.4A4.8 4.8 0 0 0 4.8 24h14.4a4.8 4.8 0 0 0 4.8-4.8V4.8A4.8 4.8 0 0 0 19.2 0Z"/><path fill="#00AA8E" d="M19.2 23.399H4.808a4.233 4.233 0 0 1-4.232-4.233V4.775A4.233 4.233 0 0 1 4.808.542H19.2a4.233 4.233 0 0 1 4.233 4.233v14.391A4.232 4.232 0 0 1 19.2 23.4Z"/><path fill="#fff" d="M7.111 3.09c.603-.09 1.211-.135 1.82-.136a3.86 3.86 0 0 1 2.464.644 2.65 2.65 0 0 1 1.016 2.26 3.048 3.048 0 0 1-.99 2.43 4.309 4.309 0 0 1-2.77.77c-.514.005-1.029-.023-1.54-.084V3.09Zm1.346 4.885c.158.013.316.013.474 0a1.87 1.87 0 0 0 2.049-2.1A1.693 1.693 0 0 0 9.075 3.97a2.43 2.43 0 0 0-.618.06v3.945ZM14.29 4.14h-1.625V2.997h4.613V4.14h-1.634v4.859H14.29v-4.86ZM4.758 20.842V19.53l1.185-1.075c2.049-1.828 3.03-2.87 3.047-3.953 0-.762-.44-1.363-1.515-1.363a3.505 3.505 0 0 0-1.99.761l-.609-1.54a5.079 5.079 0 0 1 3.03-.957c2.109 0 3.252 1.228 3.252 2.895 0 1.668-1.11 2.82-2.472 4.013l-.847.72h3.513v1.786l-6.594.025ZM19.386 16.16c0 2.854-1.151 4.843-3.513 4.843s-3.454-2.159-3.47-4.791c-.018-2.633 1.125-4.817 3.53-4.817 2.404 0 3.453 2.218 3.453 4.766Zm-4.808.052c0 2.133.508 3.149 1.337 3.149.83 0 1.304-1.058 1.304-3.175 0-2.116-.466-3.174-1.312-3.174-.847 0-1.32.999-1.32 3.166"/></g><defs><clipPath id="a"><path fill="#fff" d="M0 0h75v75H0z"/></clipPath></defs></svg>