<svg xmlns="http://www.w3.org/2000/svg" width="75" height="75" fill="none" viewBox="0 0 24 24"><g clip-path="url(#a)"><path fill="#fff" d="M19.2 0H4.8A4.8 4.8 0 0 0 0 4.8v14.4A4.8 4.8 0 0 0 4.8 24h14.4a4.8 4.8 0 0 0 4.8-4.8V4.8A4.8 4.8 0 0 0 19.2 0Z"/><path fill="#00AA8E" d="M19.2 23.424H4.808a4.233 4.233 0 0 1-4.232-4.232V4.8A4.233 4.233 0 0 1 4.808.567H19.2A4.233 4.233 0 0 1 23.433 4.8v14.392a4.233 4.233 0 0 1-4.233 4.232Z"/><path fill="#fff" d="M7.111 3.107c.603-.087 1.211-.13 1.82-.127a3.92 3.92 0 0 1 2.464.635 2.65 2.65 0 0 1 1.016 2.26 3.048 3.048 0 0 1-.99 2.43 4.309 4.309 0 0 1-2.77.779c-.514.003-1.029-.028-1.54-.094V3.107ZM8.457 8c.158.014.316.014.474 0a1.87 1.87 0 0 0 2.049-2.1 1.693 1.693 0 0 0-1.905-1.904 3.081 3.081 0 0 0-.618.05V8ZM14.29 4.14h-1.625V2.997h4.613V4.14h-1.634v4.859H14.29v-4.86ZM4.758 20.885V19.53l1.185-1.067c2.049-1.828 3.03-2.878 3.047-3.961 0-.754-.44-1.355-1.515-1.355a3.496 3.496 0 0 0-1.99.753l-.609-1.54a5.121 5.121 0 0 1 3.03-.957c2.109 0 3.252 1.228 3.252 2.904s-1.11 2.81-2.472 4.013l-.847.71h3.513v1.855H4.758ZM12.52 20.885V19.53l1.186-1.067c2.04-1.828 3.03-2.878 3.039-3.961 0-.754-.44-1.355-1.507-1.355-.726.036-1.422.3-1.99.753l-.617-1.54a5.121 5.121 0 0 1 3.03-.957c2.117 0 3.26 1.228 3.26 2.904s-1.118 2.81-2.472 4.013l-.847.71h3.513v1.855h-6.594Z"/></g><defs><clipPath id="a"><path fill="#fff" d="M0 0h75v75H0z"/></clipPath></defs></svg>