<svg xmlns="http://www.w3.org/2000/svg" width="75" height="75" fill="none" viewBox="0 0 24 24"><g clip-path="url(#a)"><path fill="#fff" d="M19.2 0H4.8A4.8 4.8 0 0 0 0 4.8v14.4A4.8 4.8 0 0 0 4.8 24h14.4a4.8 4.8 0 0 0 4.8-4.8V4.8A4.8 4.8 0 0 0 19.2 0Z"/><path fill="#00AA8E" d="M19.2 23.399H4.808a4.233 4.233 0 0 1-4.232-4.233V4.775A4.233 4.233 0 0 1 4.808.542H19.2a4.233 4.233 0 0 1 4.233 4.233v14.391A4.232 4.232 0 0 1 19.2 23.4Z"/><path fill="#fff" d="M7.111 3.09a12.42 12.42 0 0 1 1.82-.127 3.92 3.92 0 0 1 2.464.635 2.65 2.65 0 0 1 1.016 2.26 3.031 3.031 0 0 1-.99 2.43 4.309 4.309 0 0 1-2.77.779c-.514.007-1.03-.024-1.54-.093V3.09Zm1.346 4.893c.158.014.316.014.474 0a1.87 1.87 0 0 0 2.049-2.1A1.693 1.693 0 0 0 9.075 3.98a3.081 3.081 0 0 0-.618.05v3.954ZM14.29 4.14h-1.625V2.997h4.613V4.14h-1.634v4.859H14.29v-4.86ZM4.758 20.85v-1.32l1.185-1.067c2.049-1.828 3.03-2.87 3.047-3.961 0-.754-.44-1.355-1.515-1.355a3.497 3.497 0 0 0-1.99.753l-.609-1.54a5.121 5.121 0 0 1 3.03-.957c2.109 0 3.252 1.228 3.252 2.904s-1.11 2.81-2.472 4.013l-.847.71h3.513v1.787l-6.594.034ZM16.372 20.85V18.6h-4.114v-1.414l3.505-5.655h2.684v5.444h1.1v1.625h-1.1v2.218l-2.075.034Zm0-3.843V14.95c0-.558 0-1.134.06-1.735h-.043c-.304.6-.558 1.143-.846 1.735l-1.228 2.024 2.057.033Z"/></g><defs><clipPath id="a"><path fill="#fff" d="M0 0h75v75H0z"/></clipPath></defs></svg>