<svg xmlns="http://www.w3.org/2000/svg" width="75" height="75" fill="none" viewBox="0 0 24 24"><g clip-path="url(#a)"><path fill="#fff" d="M19.2 0H4.8A4.8 4.8 0 0 0 0 4.8v14.4A4.8 4.8 0 0 0 4.8 24h14.4a4.8 4.8 0 0 0 4.8-4.8V4.8A4.8 4.8 0 0 0 19.2 0Z"/><path fill="#00AA8E" d="M19.2 23.39H4.808a4.233 4.233 0 0 1-4.232-4.232V4.766A4.233 4.233 0 0 1 4.808.533H19.2a4.233 4.233 0 0 1 4.233 4.233v14.392A4.232 4.232 0 0 1 19.2 23.39Z"/><path fill="#fff" d="M7.111 3.09a11.26 11.26 0 0 1 1.82-.136 3.92 3.92 0 0 1 2.464.635 2.65 2.65 0 0 1 1.016 2.26 3.031 3.031 0 0 1-.99 2.43 4.233 4.233 0 0 1-2.77.78c-.514.007-1.03-.025-1.54-.094V3.09Zm1.346 4.885c.158.013.316.013.474 0a1.87 1.87 0 0 0 2.049-2.1A1.693 1.693 0 0 0 9.075 3.97a3.081 3.081 0 0 0-.618.051v3.954ZM14.29 4.14h-1.625V2.997h4.613V4.14h-1.634v4.859H14.29v-4.86ZM4.758 20.842v-1.278l1.185-1.067c2.049-1.828 3.03-2.878 3.047-3.961 0-.754-.44-1.355-1.515-1.355a3.496 3.496 0 0 0-1.99.753l-.609-1.54a5.122 5.122 0 0 1 3.03-.957c2.109 0 3.252 1.228 3.252 2.904s-1.11 2.81-2.472 4.013l-.847.71h3.513v1.787l-6.594-.009ZM18.734 13.342h-3.606l-.195 1.422a4.5 4.5 0 0 1 .601 0 4.233 4.233 0 0 1 2.438.669 2.64 2.64 0 0 1 1.126 2.328c0 1.735-1.481 3.26-3.978 3.26a5.925 5.925 0 0 1-2.59-.526l.397-1.634c.658.297 1.37.452 2.091.457.897 0 1.854-.423 1.854-1.413s-.753-1.541-2.616-1.541a7.389 7.389 0 0 0-1.236.085l.593-4.868h5.08l.041 1.76Z"/></g><defs><clipPath id="a"><path fill="#fff" d="M0 0h75v75H0z"/></clipPath></defs></svg>