<svg xmlns="http://www.w3.org/2000/svg" width="75" height="75" fill="none" viewBox="0 0 24 24"><g clip-path="url(#a)"><path fill="#fff" d="M19.2 0H4.8A4.8 4.8 0 0 0 0 4.8v14.4A4.8 4.8 0 0 0 4.8 24h14.4a4.8 4.8 0 0 0 4.8-4.8V4.8A4.8 4.8 0 0 0 19.2 0Z"/><path fill="#00AA8E" d="M19.2 23.39H4.808a4.233 4.233 0 0 1-4.232-4.232V4.766A4.233 4.233 0 0 1 4.808.533H19.2a4.233 4.233 0 0 1 4.233 4.233v14.392A4.232 4.232 0 0 1 19.2 23.39Z"/><path fill="#fff" d="M7.111 3.09a11.26 11.26 0 0 1 1.82-.135 3.86 3.86 0 0 1 2.464.643 2.625 2.625 0 0 1 1.016 2.26 3.057 3.057 0 0 1-.99 2.43 4.309 4.309 0 0 1-2.77.77c-.514.008-1.03-.024-1.54-.093V3.09Zm1.346 4.885c.158.013.316.013.474 0a1.87 1.87 0 0 0 2.049-2.1A1.693 1.693 0 0 0 9.075 3.97a3.081 3.081 0 0 0-.618.051v3.954ZM14.29 4.14h-1.625V2.997h4.613V4.14h-1.634v4.859H14.29v-4.86ZM4.758 20.842v-1.32l1.185-1.067c2.049-1.828 3.03-2.878 3.047-3.962 0-.753-.44-1.354-1.515-1.354a3.497 3.497 0 0 0-1.99.753l-.609-1.54a5.122 5.122 0 0 1 3.03-.957c2.109 0 3.252 1.227 3.252 2.903 0 1.677-1.11 2.811-2.472 4.013l-.847.711h3.513v1.787l-6.594.033ZM18.447 13.096a6.04 6.04 0 0 0-.847 0c-1.93.161-2.785 1.143-3.03 2.218h.042a2.693 2.693 0 0 1 1.972-.728 2.818 2.818 0 0 1 2.87 3.03 3.32 3.32 0 0 1-3.386 3.387c-2.49 0-3.7-1.845-3.7-4.055a5.154 5.154 0 0 1 5.232-5.503c.282-.022.565-.022.847 0v1.651Zm-1.194 4.656a1.424 1.424 0 0 0-1.38-1.6 1.38 1.38 0 0 0-1.27.847 1.092 1.092 0 0 0-.101.559c.042.99.516 1.87 1.515 1.87.753 0 1.236-.702 1.236-1.642"/></g><defs><clipPath id="a"><path fill="#fff" d="M0 0h75v75H0z"/></clipPath></defs></svg>