<svg xmlns="http://www.w3.org/2000/svg" width="75" height="75" fill="none" viewBox="0 0 24 24"><g clip-path="url(#a)"><path fill="#fff" d="M19.2 0H4.8A4.8 4.8 0 0 0 0 4.8v14.4A4.8 4.8 0 0 0 4.8 24h14.4a4.8 4.8 0 0 0 4.8-4.8V4.8A4.8 4.8 0 0 0 19.2 0Z"/><path fill="#00AA8E" d="M19.2 23.399H4.808a4.233 4.233 0 0 1-4.232-4.233V4.775A4.233 4.233 0 0 1 4.808.542H19.2a4.233 4.233 0 0 1 4.233 4.233v14.391A4.232 4.232 0 0 1 19.2 23.4Z"/><path fill="#fff" d="M7.111 3.09a11.26 11.26 0 0 1 1.82-.135 3.86 3.86 0 0 1 2.464.643 2.625 2.625 0 0 1 1.016 2.26 3.057 3.057 0 0 1-.99 2.43 4.309 4.309 0 0 1-2.77.77c-.514.005-1.029-.023-1.54-.084V3.09Zm1.346 4.876c.158.014.316.014.474 0a1.871 1.871 0 0 0 2.049-2.1 1.693 1.693 0 0 0-1.905-1.904 3.081 3.081 0 0 0-.618.05v3.954ZM14.29 4.14h-1.625V2.997h4.613V4.14h-1.634v4.859H14.29v-4.86ZM4.758 20.842v-1.32l1.185-1.067c2.049-1.828 3.03-2.87 3.047-3.962 0-.753-.44-1.354-1.515-1.354a3.496 3.496 0 0 0-1.99.753l-.609-1.54a5.122 5.122 0 0 1 3.03-.957c2.109 0 3.252 1.227 3.252 2.903 0 1.677-1.11 2.811-2.472 4.013l-.847.711h3.513v1.787l-6.594.033ZM19.183 11.556v1.371l-3.826 7.915h-2.303l3.835-7.475v-.025H12.63v-1.786h6.552Z"/></g><defs><clipPath id="a"><path fill="#fff" d="M0 0h75v75H0z"/></clipPath></defs></svg>