<svg xmlns="http://www.w3.org/2000/svg" xmlns:xlink="http://www.w3.org/1999/xlink" width="75" height="75"><defs><path id="a" d="M6.047-10.187h6.234v-6.407h4.313V0H12.28v-6.844H6.047V0H1.734v-16.594h4.313Zm0 0"/><path id="b" d="M7.953-17.64H4.656v-4.985h9.172V0H7.953Zm0 0"/><path id="c" d="M19.047 0H.844l5.61-5.812q2.214-2.31 3.468-3.922 1.266-1.605 1.875-2.72c.414-.737.672-1.335.765-1.796.102-.457.157-.848.157-1.172q-.001-.516-.172-.984a2.5 2.5 0 0 0-.485-.86 2.4 2.4 0 0 0-.796-.593 2.4 2.4 0 0 0-1.094-.235q-1.207.001-1.875.782c-.45.523-.672 1.171-.672 1.953 0 .218.023.539.078.953H1.297c0-1.313.21-2.508.64-3.594a8 8 0 0 1 1.813-2.781 8 8 0 0 1 2.766-1.797c1.07-.426 2.25-.64 3.53-.64q1.89 0 3.5.609 1.606.595 2.767 1.672a7.65 7.65 0 0 1 1.828 2.562c.445.992.672 2.063.672 3.219q0 1.862-.797 3.437-.797 1.582-2.532 3.235l-3.75 3.5h7.313Zm0 0"/></defs><path fill="#B5B5AC" d="M74.996 37.5c0-20.71-16.789-37.5-37.5-37.5s-37.5 16.79-37.5 37.5S16.786 75 37.496 75s37.5-16.79 37.5-37.5m0 0"/><path fill="#FFF" d="M65.996 37.5c0-15.742-12.758-28.5-28.5-28.5-15.738 0-28.5 12.758-28.5 28.5S21.758 66 37.496 66c15.742 0 28.5-12.758 28.5-28.5m0 0"/><use xlink:href="#a" x="28.334" y="30.995"/><use xlink:href="#b" x="18.117" y="58.61"/><use xlink:href="#c" x="36.477" y="58.61"/></svg>