<svg xmlns="http://www.w3.org/2000/svg" width="400" height="400"><rect width="355.5" height="355.5" x="22.3" y="22.3" rx="89" ry="89" style="fill:#fff;stroke:#006cba;stroke-width:44.5;stroke-linejoin:round"/><path d="M122.6 146.8H78v-24.5h120.4v24.5h-44.6v131h-31.2m179.2-127a80.3 80.3 0 0 0-31.6-6.7c-10.7 0-24.6 4.7-24.6 21.7 0 27 68.3 15.6 68.3 67.7 0 34.1-27 47.1-58.5 47.1-16.9 0-24.5-2.3-39.9-6l2.9-28.1c10.7 5.8 23 9.6 35.3 9.6 11.8 0 27.5-6 27.5-20.2 0-29.6-68.2-17.3-68.2-68.8 0-34.8 27-47.5 54.6-47.5 13.3 0 25.6 1.8 37.2 5.6l-3 25.6z"/></svg>