<svg xmlns="http://www.w3.org/2000/svg" width="75" height="75" fill="none" viewBox="0 0 24 24"><g clip-path="url(#a)"><path fill="#fff" d="M19.2 0H4.8A4.8 4.8 0 0 0 0 4.8v14.4A4.8 4.8 0 0 0 4.8 24h14.4a4.8 4.8 0 0 0 4.8-4.8V4.8A4.8 4.8 0 0 0 19.2 0Z"/><path fill="#EE86A7" d="M19.2 23.399H4.808a4.233 4.233 0 0 1-4.232-4.233V4.775A4.233 4.233 0 0 1 4.808.542H19.2a4.233 4.233 0 0 1 4.233 4.233v14.391A4.233 4.233 0 0 1 19.2 23.4Z"/><path fill="#fff" d="M11.852 2.997h1.346v2.658c.135-.237.27-.449.415-.66l1.354-1.998h1.693l-1.99 2.54 2.083 3.445H15.18l-1.473-2.59-.508.634v1.956h-1.346V2.997ZM10.455 4.123V2.997H7.881v1.126h.61v3.75h-.61v1.126h2.574V7.873h-.61v-3.75h.61ZM11.598 16.16c0 2.854-1.16 4.843-3.513 4.843-2.354 0-3.454-2.159-3.471-4.791-.017-2.633 1.126-4.809 3.53-4.809s3.454 2.21 3.454 4.758Zm-4.817.052c0 2.133.516 3.149 1.346 3.149.83 0 1.304-1.058 1.304-3.175 0-2.116-.449-3.14-1.321-3.14-.872 0-1.33.998-1.33 3.166ZM12.538 20.842V19.53l1.185-1.075c2.048-1.828 3.03-2.87 3.047-3.953 0-.762-.44-1.363-1.515-1.363a3.505 3.505 0 0 0-1.99.761l-.609-1.54a5.079 5.079 0 0 1 3.03-.957c2.109 0 3.252 1.228 3.252 2.895 0 1.668-1.11 2.82-2.472 4.013l-.847.72h3.513v1.786l-6.595.025Z"/></g><defs><clipPath id="a"><path fill="#fff" d="M0 0h75v75H0z"/></clipPath></defs></svg>