<svg xmlns="http://www.w3.org/2000/svg" width="75" height="75" fill="none" viewBox="0 0 24 24"><g clip-path="url(#a)"><path fill="#fff" d="M19.2 0H4.8A4.8 4.8 0 0 0 0 4.8v14.4A4.8 4.8 0 0 0 4.8 24h14.4a4.8 4.8 0 0 0 4.8-4.8V4.8A4.8 4.8 0 0 0 19.2 0Z"/><path fill="#EE86A7" d="M19.2 23.399H4.808a4.233 4.233 0 0 1-4.232-4.233V4.775A4.233 4.233 0 0 1 4.808.542H19.2a4.233 4.233 0 0 1 4.233 4.233v14.391A4.233 4.233 0 0 1 19.2 23.4Z"/><path fill="#fff" d="M11.852 2.98h1.346v2.65c.135-.229.27-.449.415-.66l1.354-1.99h1.693l-1.99 2.54 2.083 3.445H15.18l-1.473-2.59-.508.635v1.955h-1.346V2.98ZM10.455 4.123V2.997H7.881v1.126h.61v3.75h-.61v1.126h2.574V7.873h-.61v-3.75h.61ZM11.598 16.16c0 2.854-1.16 4.843-3.513 4.843-2.354 0-3.454-2.159-3.471-4.791-.017-2.633 1.126-4.809 3.53-4.809s3.454 2.21 3.454 4.758Zm-4.817.052c0 2.133.516 3.149 1.346 3.149.83 0 1.304-1.058 1.304-3.175 0-2.116-.449-3.14-1.321-3.14-.872 0-1.33.998-1.33 3.166ZM12.91 18.718a4.97 4.97 0 0 0 2.159.567c1.126 0 1.693-.542 1.693-1.228 0-.931-.914-1.337-1.871-1.337h-.847v-1.558h.847c.728 0 1.642-.288 1.642-1.075 0-.559-.44-.974-1.371-.974a4.106 4.106 0 0 0-1.922.559l-.448-1.575a5.815 5.815 0 0 1 2.878-.694c1.964 0 3.064 1.041 3.064 2.311a2.21 2.21 0 0 1-1.693 2.159 2.32 2.32 0 0 1 2.015 2.277c0 1.626-1.448 2.828-3.801 2.828a5.638 5.638 0 0 1-2.76-.644l.415-1.616Z"/></g><defs><clipPath id="a"><path fill="#fff" d="M0 0h75v75H0z"/></clipPath></defs></svg>