<svg xmlns="http://www.w3.org/2000/svg" width="75" height="75" fill="none" viewBox="0 0 24 24"><g clip-path="url(#a)"><path fill="#fff" d="M19.2 0H4.8A4.8 4.8 0 0 0 0 4.8v14.4A4.8 4.8 0 0 0 4.8 24h14.4a4.8 4.8 0 0 0 4.8-4.8V4.8A4.8 4.8 0 0 0 19.2 0Z"/><path fill="#EE86A7" d="M19.2 23.424H4.808a4.233 4.233 0 0 1-4.232-4.232V4.8A4.233 4.233 0 0 1 4.808.567H19.2A4.233 4.233 0 0 1 23.433 4.8v14.392a4.233 4.233 0 0 1-4.233 4.232Z"/><path fill="#fff" d="M11.852 3.005h1.346v2.642c.135-.229.27-.45.415-.66l1.354-1.99h1.693l-1.99 2.54 2.083 3.445H15.18l-1.473-2.59-.508.634v2.007h-1.346V3.005ZM10.455 4.123V2.997H7.881v1.126h.61v3.75h-.61v1.126h2.574V7.873h-.61v-3.75h.61ZM11.598 16.16c0 2.854-1.16 4.843-3.513 4.843-2.354 0-3.454-2.158-3.471-4.791-.017-2.633 1.126-4.809 3.53-4.809s3.454 2.21 3.454 4.758Zm-4.817.052c0 2.133.516 3.149 1.346 3.149.83 0 1.304-1.058 1.304-3.175 0-2.116-.449-3.14-1.321-3.14-.872 0-1.33.999-1.33 3.166ZM16.364 20.885v-2.21H12.25v-1.414l3.496-5.663h2.675v5.443h1.1v1.634h-1.1v2.21h-2.057Zm0-3.844V14.96c0-.559 0-1.126.05-1.693h-.05c-.296.6-.559 1.143-.847 1.693L14.29 16.99l2.074.05Z"/></g><defs><clipPath id="a"><path fill="#fff" d="M0 0h75v75H0z"/></clipPath></defs></svg>