<svg xmlns="http://www.w3.org/2000/svg" width="75" height="75" fill="none" viewBox="0 0 24 24"><g clip-path="url(#a)"><path fill="#fff" d="M19.2 0H4.8A4.8 4.8 0 0 0 0 4.8v14.4A4.8 4.8 0 0 0 4.8 24h14.4a4.8 4.8 0 0 0 4.8-4.8V4.8A4.8 4.8 0 0 0 19.2 0Z"/><path fill="#EE86A7" d="M19.2 23.399H4.808a4.233 4.233 0 0 1-4.232-4.233V4.775A4.233 4.233 0 0 1 4.808.542H19.2a4.233 4.233 0 0 1 4.233 4.233v14.391A4.233 4.233 0 0 1 19.2 23.4Z"/><path fill="#fff" d="M11.852 3.005h1.346v2.65c.135-.229.27-.449.415-.66l1.354-1.99h1.693l-1.99 2.54 2.083 3.445H15.18L13.706 6.4l-.508.635V8.99h-1.346V3.005ZM10.455 4.123V2.997H7.881v1.126h.61v3.75h-.61v1.126h2.574V7.873h-.61v-3.75h.61ZM11.598 16.16c0 2.854-1.16 4.843-3.513 4.843-2.354 0-3.454-2.159-3.471-4.791-.017-2.633 1.126-4.809 3.53-4.809s3.454 2.21 3.454 4.758Zm-4.817.052c0 2.133.516 3.149 1.346 3.149.83 0 1.304-1.058 1.304-3.175 0-2.116-.449-3.14-1.321-3.14-.872 0-1.33.998-1.33 3.166ZM18.726 13.342h-3.598l-.203 1.43c.2-.013.4-.013.6 0a4.233 4.233 0 0 1 2.448.67 2.658 2.658 0 0 1 1.125 2.327c0 1.693-1.49 3.26-3.987 3.26a5.868 5.868 0 0 1-2.54-.534l.398-1.625a5.139 5.139 0 0 0 2.083.457c.906 0 1.862-.432 1.862-1.414s-.762-1.54-2.616-1.54a7.5 7.5 0 0 0-1.244.084l.601-4.876h5.08l-.01 1.76Z"/></g><defs><clipPath id="a"><path fill="#fff" d="M0 0h75v75H0z"/></clipPath></defs></svg>