<svg xmlns="http://www.w3.org/2000/svg" width="75" height="75" fill="none" viewBox="0 0 24 24"><g clip-path="url(#a)"><path fill="#fff" d="M19.2 0H4.8A4.8 4.8 0 0 0 0 4.8v14.4A4.8 4.8 0 0 0 4.8 24h14.4a4.8 4.8 0 0 0 4.8-4.8V4.8A4.8 4.8 0 0 0 19.2 0Z"/><path fill="#EE86A7" d="M19.2 23.399H4.808a4.233 4.233 0 0 1-4.232-4.233V4.775A4.233 4.233 0 0 1 4.808.542H19.2a4.233 4.233 0 0 1 4.233 4.233v14.391A4.233 4.233 0 0 1 19.2 23.4Z"/><path fill="#fff" d="M11.852 3.005h1.346v2.65c.135-.229.27-.449.415-.66l1.354-1.99h1.693l-1.99 2.54 2.083 3.445H15.18l-1.473-2.598-.508.634V8.99h-1.346V3.005ZM10.455 4.123V2.997H7.881v1.126h.61v3.75h-.61v1.126h2.574V7.873h-.61v-3.75h.61ZM11.598 16.16c0 2.854-1.16 4.843-3.513 4.843-2.354 0-3.454-2.159-3.471-4.783-.017-2.624 1.126-4.817 3.53-4.817s3.454 2.21 3.454 4.758Zm-4.817.06c0 2.125.516 3.14 1.346 3.14.83 0 1.304-1.057 1.304-3.174 0-2.116-.449-3.14-1.321-3.14-.872 0-1.33.998-1.33 3.174ZM18.455 13.105a6.04 6.04 0 0 0-.847 0c-1.921.16-2.785 1.143-3.022 2.218h.085a2.682 2.682 0 0 1 1.972-.737 2.819 2.819 0 0 1 2.87 3.03 3.327 3.327 0 0 1-3.386 3.387c-2.48 0-3.7-1.845-3.7-4.055a5.587 5.587 0 0 1 1.694-4.148 5.529 5.529 0 0 1 3.572-1.355 4.45 4.45 0 0 1 .847 0l-.085 1.66ZM17.27 17.76a1.414 1.414 0 0 0-1.388-1.6 1.388 1.388 0 0 0-1.27.846c-.08.175-.115.367-.102.56.042.981.516 1.87 1.515 1.87.762 0 1.245-.703 1.245-1.642"/></g><defs><clipPath id="a"><path fill="#fff" d="M0 0h75v75H0z"/></clipPath></defs></svg>