<svg xmlns="http://www.w3.org/2000/svg" width="75" height="75" fill="none" viewBox="0 0 24 24"><g clip-path="url(#a)"><path fill="#fff" d="M19.2 0H4.8A4.8 4.8 0 0 0 0 4.8v14.4A4.8 4.8 0 0 0 4.8 24h14.4a4.8 4.8 0 0 0 4.8-4.8V4.8A4.8 4.8 0 0 0 19.2 0Z"/><path fill="#EE86A7" d="M19.2 23.399H4.808a4.233 4.233 0 0 1-4.232-4.233V4.775A4.233 4.233 0 0 1 4.808.542H19.2a4.233 4.233 0 0 1 4.233 4.233v14.391A4.233 4.233 0 0 1 19.2 23.4Z"/><path fill="#fff" d="M11.852 3.005h1.346v2.65c.135-.229.27-.449.415-.66l1.354-1.99h1.693l-1.99 2.54 2.083 3.445H15.18l-1.473-2.598-.508.634V8.99h-1.346V3.005ZM10.455 4.123V2.997H7.881v1.126h.61v3.75h-.61v1.126h2.574V7.873h-.61v-3.75h.61ZM11.598 16.186c0 2.853-1.16 4.843-3.513 4.843-2.354 0-3.454-2.16-3.471-4.783-.017-2.625 1.126-4.817 3.53-4.817s3.454 2.218 3.454 4.757Zm-4.817.06c0 2.124.516 3.14 1.346 3.14.83 0 1.304-1.058 1.304-3.174 0-2.117-.449-3.141-1.321-3.141-.872 0-1.33.999-1.33 3.175ZM19.183 11.556v1.371l-3.826 7.915h-2.303l3.835-7.475v-.025H12.63v-1.786h6.552Z"/></g><defs><clipPath id="a"><path fill="#fff" d="M0 0h75v75H0z"/></clipPath></defs></svg>