<svg xmlns="http://www.w3.org/2000/svg" width="75" height="75" fill="none" viewBox="0 0 24 24"><g clip-path="url(#a)"><path fill="#fff" d="M19.2 0H4.8A4.8 4.8 0 0 0 0 4.8v14.4A4.8 4.8 0 0 0 4.8 24h14.4a4.8 4.8 0 0 0 4.8-4.8V4.8A4.8 4.8 0 0 0 19.2 0Z"/><path fill="#EE86A7" d="M19.2 23.39H4.808a4.233 4.233 0 0 1-4.232-4.232V4.766A4.233 4.233 0 0 1 4.808.533H19.2a4.233 4.233 0 0 1 4.233 4.233v14.392A4.233 4.233 0 0 1 19.2 23.39Z"/><path fill="#fff" d="M11.852 2.997h1.346v2.65c.135-.229.27-.44.415-.66l1.354-1.99h1.693l-1.99 2.54 2.083 3.445H15.18l-1.473-2.59-.508.626v1.964h-1.346V2.997ZM10.455 4.123V2.997H7.881v1.126h.61v3.75h-.61v1.126h2.574V7.873h-.61v-3.75h.61ZM11.598 16.152c0 2.853-1.16 4.843-3.513 4.843-2.354 0-3.454-2.159-3.471-4.783-.017-2.625 1.126-4.817 3.53-4.817s3.454 2.218 3.454 4.757Zm-4.817.06c0 2.125.516 3.14 1.346 3.14.83 0 1.304-1.058 1.304-3.174 0-2.117-.449-3.141-1.321-3.141-.872 0-1.33.999-1.33 3.175ZM14.045 16.05a2.286 2.286 0 0 1-1.347-2.04c0-1.574 1.414-2.615 3.268-2.615 2.176 0 3.073 1.253 3.073 2.387a2.243 2.243 0 0 1-1.354 2.04v.043a2.455 2.455 0 0 1 1.693 2.302c0 1.693-1.414 2.828-3.564 2.828-2.362 0-3.446-1.33-3.446-2.59a2.48 2.48 0 0 1 1.693-2.329l-.017-.025Zm3.14 2.287c0-.847-.618-1.304-1.456-1.524a1.396 1.396 0 0 0-1.134 1.38 1.276 1.276 0 0 0 1.32 1.303 1.175 1.175 0 0 0 1.27-1.16Zm-2.43-4.403c0 .635.56 1.033 1.296 1.262a1.27 1.27 0 0 0 .948-1.177 1.067 1.067 0 0 0-1.126-1.151 1.035 1.035 0 0 0-1.117 1.066Z"/></g><defs><clipPath id="a"><path fill="#fff" d="M0 0h75v75H0z"/></clipPath></defs></svg>