<svg xmlns="http://www.w3.org/2000/svg" width="75" height="75" fill="none" viewBox="0 0 24 24"><g clip-path="url(#a)"><path fill="#fff" d="M19.2 0H4.8A4.8 4.8 0 0 0 0 4.8v14.4A4.8 4.8 0 0 0 4.8 24h14.4a4.8 4.8 0 0 0 4.8-4.8V4.8A4.8 4.8 0 0 0 19.2 0Z"/><path fill="#EE86A7" d="M19.2 23.39H4.808a4.233 4.233 0 0 1-4.232-4.232V4.766A4.233 4.233 0 0 1 4.808.533H19.2a4.233 4.233 0 0 1 4.233 4.233v14.392A4.233 4.233 0 0 1 19.2 23.39Z"/><path fill="#fff" d="M11.852 2.997h1.346v2.65c.135-.229.27-.44.415-.66l1.354-1.99h1.693l-1.99 2.54 2.083 3.445H15.18l-1.473-2.59-.508.626v1.964h-1.346V2.997ZM10.455 4.123V2.997H7.881v1.126h.61v3.75h-.61v1.126h2.574V7.873h-.61v-3.75h.61ZM11.598 16.152c0 2.853-1.16 4.843-3.513 4.843-2.354 0-3.454-2.159-3.471-4.783-.017-2.625 1.126-4.817 3.53-4.817s3.454 2.21 3.454 4.757Zm-4.817.06c0 2.125.516 3.14 1.346 3.14.83 0 1.304-1.058 1.304-3.174 0-2.117-.449-3.141-1.321-3.141-.872 0-1.33.999-1.33 3.175ZM13.198 19.276c.313.026.627.026.94 0a3.65 3.65 0 0 0 1.828-.567c.592-.395 1.013-1 1.177-1.693a2.463 2.463 0 0 1-1.871.669 2.78 2.78 0 0 1-2.701-1.77 2.775 2.775 0 0 1-.186-1.126 3.384 3.384 0 0 1 3.505-3.344c2.387 0 3.513 1.83 3.513 3.996a5.02 5.02 0 0 1-5.19 5.58 9.407 9.407 0 0 1-.981 0l-.034-1.745Zm1.312-4.664a1.338 1.338 0 0 0 1.32 1.481 1.371 1.371 0 0 0 1.211-.6c.079-.176.113-.368.102-.56 0-.982-.356-1.955-1.372-1.955-.728 0-1.261.66-1.261 1.634Z"/></g><defs><clipPath id="a"><path fill="#fff" d="M0 0h75v75H0z"/></clipPath></defs></svg>