<svg xmlns="http://www.w3.org/2000/svg" width="75" height="75" fill="none" viewBox="0 0 24 24"><g clip-path="url(#a)"><path fill="#fff" d="M19.2 0H4.8A4.8 4.8 0 0 0 0 4.8v14.4A4.8 4.8 0 0 0 4.8 24h14.4a4.8 4.8 0 0 0 4.8-4.8V4.8A4.8 4.8 0 0 0 19.2 0Z"/><path fill="#EE86A7" d="M19.2 23.39H4.808a4.233 4.233 0 0 1-4.232-4.232V4.766A4.233 4.233 0 0 1 4.808.533H19.2a4.233 4.233 0 0 1 4.233 4.233v14.392A4.233 4.233 0 0 1 19.2 23.39Z"/><path fill="#fff" d="M11.852 3.014h1.346v2.65c.135-.23.27-.44.415-.66l1.354-1.99h1.693l-1.99 2.54 2.083 3.445H15.18L13.706 6.4l-.508.626V8.99h-1.346V3.014ZM10.455 4.123V2.997H7.881v1.126h.61v3.75h-.61v1.126h2.574V7.873h-.61v-3.75h.61ZM7.517 13.486h-.033l-1.77.838-.355-1.626 2.472-1.142h1.786v9.286h-2.1v-7.356ZM19.386 16.152c0 2.853-1.16 4.843-3.513 4.843-2.353 0-3.462-2.159-3.48-4.783-.016-2.625 1.135-4.817 3.53-4.817 2.397 0 3.463 2.218 3.463 4.757Zm-4.817.06c0 2.125.517 3.14 1.346 3.14.83 0 1.296-1.058 1.296-3.174 0-2.117-.44-3.141-1.313-3.141-.872 0-1.329.999-1.329 3.175Z"/></g><defs><clipPath id="a"><path fill="#fff" d="M0 0h75v75H0z"/></clipPath></defs></svg>