<svg xmlns="http://www.w3.org/2000/svg" width="75" height="75" fill="none" viewBox="0 0 24 24"><g clip-path="url(#a)"><path fill="#fff" d="M19.2 0H4.8A4.8 4.8 0 0 0 0 4.8v14.4A4.8 4.8 0 0 0 4.8 24h14.4a4.8 4.8 0 0 0 4.8-4.8V4.8A4.8 4.8 0 0 0 19.2 0Z"/><path fill="#EE86A7" d="M19.2 23.399H4.808a4.233 4.233 0 0 1-4.232-4.233V4.834A4.233 4.233 0 0 1 4.808.6H19.2a4.233 4.233 0 0 1 4.233 4.233v14.391a4.233 4.233 0 0 1-4.233 4.233"/><path fill="#fff" d="M11.852 2.997h1.346V5.68c.135-.228.27-.44.415-.651l1.354-1.998h1.693l-1.99 2.54 2.083 3.445H15.18l-1.473-2.59-.508.626v1.964h-1.346v-6.02ZM10.455 4.123V2.997H7.881v1.126h.61v3.75h-.61v1.126h2.574V7.873h-.61v-3.75h.61ZM7.517 13.486h-.033l-1.77.838-.355-1.626 2.472-1.142h1.786v9.286h-2.1v-7.356ZM15.297 13.486h-.025l-1.77.838-.363-1.626 2.472-1.142h1.786v9.286h-2.1v-7.356Z"/></g><defs><clipPath id="a"><path fill="#fff" d="M0 0h75v75H0z"/></clipPath></defs></svg>