<svg xmlns="http://www.w3.org/2000/svg" width="75" height="75" fill="none" viewBox="0 0 24 24"><g clip-path="url(#a)"><path fill="#fff" d="M19.2 0H4.8A4.8 4.8 0 0 0 0 4.8v14.4A4.8 4.8 0 0 0 4.8 24h14.4a4.8 4.8 0 0 0 4.8-4.8V4.8A4.8 4.8 0 0 0 19.2 0Z"/><path fill="#EE86A7" d="M19.2 23.399H4.808a4.233 4.233 0 0 1-4.232-4.233V4.775A4.233 4.233 0 0 1 4.808.542H19.2a4.233 4.233 0 0 1 4.233 4.233v14.391A4.233 4.233 0 0 1 19.2 23.4Z"/><path fill="#fff" d="M11.852 2.997h1.346v2.658c.135-.237.27-.449.415-.66l1.354-1.998h1.693l-1.99 2.54 2.083 3.445H15.18l-1.473-2.59-.508.626v1.964h-1.346V2.997ZM10.455 4.123V2.997H7.881v1.126h.61v3.75h-.61v1.126h2.574V7.873h-.61v-3.75h.61ZM7.517 13.486h-.033l-1.77.838-.355-1.626 2.472-1.142h1.786v9.286h-2.1v-7.356ZM12.538 20.842v-1.32l1.185-1.067c2.048-1.829 3.03-2.87 3.047-3.962 0-.753-.44-1.354-1.515-1.354a3.496 3.496 0 0 0-1.99.753l-.609-1.54a5.121 5.121 0 0 1 3.03-.957c2.109 0 3.252 1.227 3.252 2.903 0 1.677-1.11 2.811-2.472 4.013l-.847.711h3.513v1.786l-6.595.034Z"/></g><defs><clipPath id="a"><path fill="#fff" d="M0 0h75v75H0z"/></clipPath></defs></svg>