<svg xmlns="http://www.w3.org/2000/svg" width="75" height="75" fill="none" viewBox="0 0 24 24"><g clip-path="url(#a)"><path fill="#fff" d="M19.2 0H4.8A4.8 4.8 0 0 0 0 4.8v14.4A4.8 4.8 0 0 0 4.8 24h14.4a4.8 4.8 0 0 0 4.8-4.8V4.8A4.8 4.8 0 0 0 19.2 0Z"/><path fill="#EE86A7" d="M19.2 23.399H4.808a4.233 4.233 0 0 1-4.232-4.233V4.775A4.233 4.233 0 0 1 4.808.542H19.2a4.233 4.233 0 0 1 4.233 4.233v14.391A4.233 4.233 0 0 1 19.2 23.4Z"/><path fill="#fff" d="M11.852 2.997h1.346v2.658a9.79 9.79 0 0 1 .415-.66l1.354-1.998h1.693l-1.99 2.54 2.083 3.445H15.18l-1.473-2.59-.508.626v1.964h-1.346V2.997ZM10.455 4.123V2.997H7.881v1.126h.61v3.75h-.61v1.126h2.574V7.873h-.61v-3.75h.61ZM7.517 13.486h-.033l-1.77.838-.355-1.626 2.472-1.142h1.786v9.286h-2.1v-7.356ZM12.91 18.709a4.842 4.842 0 0 0 2.159.576c1.126 0 1.693-.542 1.693-1.228 0-.931-.914-1.346-1.871-1.346h-.847v-1.557h.847c.728 0 1.642-.288 1.642-1.076 0-.55-.44-.965-1.371-.965a4.013 4.013 0 0 0-1.922.559l-.448-1.575a5.807 5.807 0 0 1 2.878-.702c1.964 0 3.064 1.041 3.064 2.32a2.201 2.201 0 0 1-1.693 2.15 2.31 2.31 0 0 1 2.015 2.268c0 1.626-1.448 2.828-3.801 2.828a5.64 5.64 0 0 1-2.76-.643l.415-1.609Z"/></g><defs><clipPath id="a"><path fill="#fff" d="M0 0h75v75H0z"/></clipPath></defs></svg>