<svg xmlns="http://www.w3.org/2000/svg" width="75" height="75" fill="none" viewBox="0 0 24 24"><g clip-path="url(#a)"><path fill="#fff" d="M19.2 0H4.8A4.8 4.8 0 0 0 0 4.8v14.4A4.8 4.8 0 0 0 4.8 24h14.4a4.8 4.8 0 0 0 4.8-4.8V4.8A4.8 4.8 0 0 0 19.2 0Z"/><path fill="#EE86A7" d="M19.2 23.399H4.808a4.233 4.233 0 0 1-4.232-4.233V4.775A4.233 4.233 0 0 1 4.808.542H19.2a4.233 4.233 0 0 1 4.233 4.233v14.391A4.233 4.233 0 0 1 19.2 23.4Z"/><path fill="#fff" d="M11.852 2.997h1.346v2.658a9.79 9.79 0 0 1 .415-.66l1.354-1.998h1.693l-1.99 2.54 2.083 3.445H15.18l-1.473-2.59-.508.634v1.956h-1.346V2.997ZM10.455 4.123V2.997H7.881v1.126h.61v3.75h-.61v1.126h2.574V7.873h-.61v-3.75h.61ZM7.517 13.486h-.033l-1.77.838-.355-1.626 2.472-1.142h1.786v9.286h-2.1v-7.356ZM18.726 13.342h-3.598l-.203 1.422c.2-.013.4-.013.6 0a4.233 4.233 0 0 1 2.448.669 2.658 2.658 0 0 1 1.125 2.328c0 1.735-1.49 3.26-3.987 3.26a5.927 5.927 0 0 1-2.54-.526l.398-1.634a5.139 5.139 0 0 0 2.083.457c.906 0 1.862-.423 1.862-1.413s-.762-1.541-2.616-1.541a7.49 7.49 0 0 0-1.244.085l.601-4.868h5.08l-.01 1.76Z"/></g><defs><clipPath id="a"><path fill="#fff" d="M0 0h75v75H0z"/></clipPath></defs></svg>