<svg xmlns="http://www.w3.org/2000/svg" xmlns:xlink="http://www.w3.org/1999/xlink" width="75" height="75"><defs><path id="a" d="m.984 0 2.829-16.594h4.265l3.313 8.844 3.312-8.844h4.266L21.78 0h-4.297l-1.422-9.547L12.142 0h-1.72L6.704-9.547 5.281 0Zm0 0"/><path id="b" d="M10.36-5.61c0-.35-.07-.687-.204-1a2.3 2.3 0 0 0-.547-.812q-.344-.357-.812-.562a2.3 2.3 0 0 0-1.016-.22c-.343 0-.672.071-.984.204q-.457.189-.797.547a2.8 2.8 0 0 0-.562.828 2.5 2.5 0 0 0-.204 1q0 .516.188.984.2.457.562.797.359.345.829.563.467.204 1 .203.527 0 .984-.188.468-.199.797-.562.34-.356.547-.813c.144-.312.218-.632.218-.968M5.343-18.265v8.11q1.406-1.484 3.515-1.485 1.266.002 2.297.485 1.044.468 1.781 1.265A5.6 5.6 0 0 1 14.095-8q.422 1.097.422 2.328a6.4 6.4 0 0 1-.438 2.36 5.8 5.8 0 0 1-1.187 1.906A5.8 5.8 0 0 1 11.078-.11c-.7.308-1.45.468-2.25.468C7.36.36 6.195-.176 5.344-1.25V0H1.359v-18.266Zm0 0"/><path id="c" d="M6.422-11.344q-.002 1.502.266 2.735.262 1.237.765 2.14.497.892 1.188 1.39a2.63 2.63 0 0 0 1.562.485q.844.001 1.547-.484.704-.5 1.172-1.39.48-.904.75-2.141c.187-.82.281-1.735.281-2.735q0-1.465-.281-2.703-.27-1.247-.75-2.125-.469-.89-1.172-1.39a2.62 2.62 0 0 0-1.547-.5 2.6 2.6 0 0 0-1.562.5q-.69.5-1.188 1.39-.503.878-.766 2.125c-.18.824-.265 1.727-.265 2.703m-5.828 0q0-2.701.703-4.906.716-2.204 1.984-3.75a9.06 9.06 0 0 1 3.032-2.422c1.164-.57 2.46-.86 3.89-.86 1.395 0 2.68.29 3.86.86A8.7 8.7 0 0 1 17.093-20q1.266 1.546 1.97 3.75.702 2.204.703 4.906 0 2.706-.703 4.906-.704 2.205-1.97 3.782a8.55 8.55 0 0 1-3.03 2.437c-1.18.559-2.465.844-3.86.844-1.43 0-2.726-.285-3.89-.844A8.9 8.9 0 0 1 3.28-2.656C2.437-3.707 1.773-4.97 1.297-6.437.828-7.907.594-9.54.594-11.344m0 0"/><path id="d" d="M11.344-9.156v-8.906L6.156-9.156Zm5.453 0h2.734v4.5h-2.734V0h-5.453v-4.656H.422v-3.782l8.64-14.187h7.735Zm0 0"/></defs><path fill="#F62E36" d="M74.996 37.5c0-20.71-16.789-37.5-37.5-37.5s-37.5 16.79-37.5 37.5S16.786 75 37.496 75s37.5-16.79 37.5-37.5m0 0"/><path fill="#FFF" d="M65.996 37.5c0-15.742-12.758-28.5-28.5-28.5-15.738 0-28.5 12.758-28.5 28.5S21.758 66 37.496 66c15.742 0 28.5-12.758 28.5-28.5m0 0"/><use xlink:href="#a" x="18.401" y="31.655"/><use xlink:href="#b" x="41.171" y="31.655"/><use xlink:href="#c" x="16.707" y="58.325"/><use xlink:href="#d" x="37.886" y="58.325"/></svg>