<svg xmlns="http://www.w3.org/2000/svg" xmlns:xlink="http://www.w3.org/1999/xlink" width="75" height="75"><defs><path id="a" d="M8.438-2.594q1.323.002 2.156-.297 1.576-.56 1.578-2.093-.001-.89-.781-1.375-.785-.48-2.453-.844L7.03-7.625q-2.814-.64-3.875-1.39-1.828-1.23-1.828-3.891c0-1.602.582-2.938 1.75-4 1.176-1.07 2.899-1.61 5.172-1.61 1.895 0 3.508.508 4.844 1.516q2.016 1.5 2.11 4.36h-3.61q-.094-1.624-1.406-2.297-.892-.453-2.188-.454-1.454.001-2.328.594-.86.582-.86 1.625c0 .649.286 1.125.86 1.438q.544.327 2.344.75l3.093.75q2.03.486 3.079 1.297c1.07.843 1.609 2.07 1.609 3.671 0 1.649-.633 3.016-1.89 4.11C12.656-.07 10.878.469 8.577.469q-3.514.001-5.53-1.61Q1.03-2.746 1.03-5.547h3.594q.169 1.22.672 1.828.92 1.125 3.14 1.125m0 0"/><path id="b" d="M10.734.688Q5.466.69 3.344-3 1.218-6.703 1.219-13.547q-.001-6.826 2.125-10.531 2.122-3.717 7.39-3.719 5.28 0 7.407 3.703 2.123 3.72 2.125 10.547Q20.264-6.703 18.14-3 16.014.689 10.734.688m3.188-6.954q.733-2.512.734-7.28 0-4.983-.75-7.376c-.5-1.601-1.558-2.406-3.172-2.406-1.605 0-2.668.805-3.187 2.406-.524 1.594-.781 4.055-.781 7.375 0 3.18.257 5.61.78 7.297q.78 2.518 3.188 2.516 2.42 0 3.188-2.532m0 0"/><path id="c" d="M3.406-1.734C1.82-3.36 1.031-5.332 1.031-7.656q0-2.327 1.047-4.203 1.06-1.888 3.11-2.844c-1.336-.883-2.204-1.844-2.61-2.875q-.596-1.56-.594-2.906-.001-3.013 2.266-5.141 2.264-2.123 6.39-2.125 4.138.001 6.407 2.125 2.264 2.128 2.265 5.14 0 1.35-.609 2.907c-.398 1.031-1.262 1.93-2.594 2.687q2.03 1.144 3.063 3.032 1.03 1.876 1.031 4.203 0 3.487-2.578 5.937Q15.045.72 10.422.72C7.336.719 5-.098 3.406-1.734m3.266-6.282q0 2.033 1.047 3.157 1.06 1.125 2.922 1.125 1.874 0 2.922-1.125 1.061-1.124 1.062-3.157 0-2.108-1.078-3.203-1.079-1.108-2.906-1.11-1.83.002-2.907 1.11-1.063 1.095-1.062 3.203m1.422-9.406c.601.637 1.453.953 2.547.953q1.653.001 2.562-.953.905-.951.906-2.453c0-1.094-.304-1.945-.906-2.562q-.908-.922-2.562-.922-1.642 0-2.563.922c-.617.617-.922 1.468-.922 2.562q0 1.502.938 2.453m0 0"/></defs><path fill="#00A8B5" d="M-.004 62.602V12.398C-.004 5.551 5.551 0 12.398 0h50.2c6.847 0 12.398 5.55 12.398 12.398v50.204c0 6.847-5.55 12.398-12.398 12.398h-50.2C5.551 75-.004 69.45-.004 62.602m0 0"/><path fill="#FFF" d="M6.2 43.5V32c0-.828.667-1.5 1.5-1.5h59.597a1.5 1.5 0 0 1 1.5 1.5v11.5a1.5 1.5 0 0 1-1.5 1.5H7.699c-.832 0-1.5-.672-1.5-1.5m0 0"/><path fill="#FFF" d="M6.2 43.602v19.097a6.1 6.1 0 0 0 6.097 6.102h50.402a6.1 6.1 0 0 0 6.098-6.102V43.602a6.1 6.1 0 0 0-6.098-6.102H12.297a6.1 6.1 0 0 0-6.098 6.102m0 0"/><g fill="#FFF"><use xlink:href="#a" x="20.822" y="24.828"/><use xlink:href="#a" x="37.497" y="24.828"/></g><use xlink:href="#b" x="15.807" y="62.64"/><use xlink:href="#c" x="37.499" y="62.64"/></svg>