<svg xmlns="http://www.w3.org/2000/svg" xmlns:xlink="http://www.w3.org/1999/xlink" width="75" height="75"><defs><path id="a" d="M8.438-2.594q1.323.002 2.156-.297 1.576-.56 1.578-2.093-.001-.89-.781-1.375-.785-.48-2.453-.844L7.03-7.625q-2.814-.64-3.875-1.39-1.828-1.23-1.828-3.891c0-1.602.582-2.938 1.75-4 1.176-1.07 2.899-1.61 5.172-1.61 1.895 0 3.508.508 4.844 1.516q2.016 1.5 2.11 4.36h-3.61q-.094-1.624-1.406-2.297-.892-.453-2.188-.454-1.454.001-2.328.594-.86.582-.86 1.625c0 .649.286 1.125.86 1.438q.544.327 2.344.75l3.093.75q2.03.486 3.079 1.297c1.07.843 1.609 2.07 1.609 3.671 0 1.649-.633 3.016-1.89 4.11C12.656-.07 10.878.469 8.577.469q-3.514.001-5.53-1.61Q1.03-2.746 1.03-5.547h3.594q.169 1.22.672 1.828.92 1.125 3.14 1.125m0 0"/><path id="b" d="M14.766 0H9.203v-19.047h-6.5v-3.687c1.719-.082 2.914-.196 3.594-.344q1.64-.357 2.672-1.453c.469-.489.82-1.149 1.062-1.985q.218-.731.219-1.093h4.516Zm0 0"/><path id="c" d="M7.469-22.11c-.617.813-.907 1.9-.875 3.25H1.53q.06-2.045.703-3.89c.438-1.082 1.133-2.082 2.094-3q1.06-.968 2.531-1.484 1.466-.516 3.594-.516 3.967.001 6.39 2.047 2.422 2.05 2.423 5.5 0 2.438-1.438 4.11-.924 1.049-1.906 1.437.731 0 2.125 1.265 2.076 1.925 2.078 5.266 0 3.503-2.437 6.156C16.07-.195 13.68.688 10.516.688Q4.639.69 2.359-3.141 1.154-5.186 1.031-8.469H6.36q-.001 1.658.532 2.735c.664 1.336 1.867 2 3.609 2q1.593 0 2.781-1.094 1.186-1.092 1.188-3.156 0-2.719-2.203-3.625-1.266-.516-3.97-.516v-3.89q2.655-.03 3.704-.516 1.812-.798 1.813-3.235 0-1.576-.938-2.562-.924-.998-2.594-1-1.922 0-2.812 1.219m0 0"/></defs><path fill="#00A8B5" d="M-.004 62.602V12.398C-.004 5.551 5.551 0 12.398 0h50.2c6.847 0 12.398 5.55 12.398 12.398v50.204c0 6.847-5.55 12.398-12.398 12.398h-50.2C5.551 75-.004 69.45-.004 62.602m0 0"/><path fill="#FFF" d="M6.2 43.5V32c0-.828.667-1.5 1.5-1.5h59.597a1.5 1.5 0 0 1 1.5 1.5v11.5a1.5 1.5 0 0 1-1.5 1.5H7.699c-.832 0-1.5-.672-1.5-1.5m0 0"/><path fill="#FFF" d="M6.2 43.602v19.097a6.1 6.1 0 0 0 6.097 6.102h50.402a6.1 6.1 0 0 0 6.098-6.102V43.602a6.1 6.1 0 0 0-6.098-6.102H12.297a6.1 6.1 0 0 0-6.098 6.102m0 0"/><g fill="#FFF"><use xlink:href="#a" x="20.822" y="24.828"/><use xlink:href="#a" x="37.497" y="24.828"/></g><use xlink:href="#b" x="15.807" y="62.63"/><use xlink:href="#c" x="37.499" y="62.63"/></svg>