<svg xmlns="http://www.w3.org/2000/svg" xml:space="preserve" id="レイヤー_1" x="0" y="0" style="enable-background:new 0 0 75 75" version="1.0" viewBox="0 0 75 75"><style>.st1{fill:#f7f8f8}</style><path d="M0 .59h75v75H0z" style="fill:#306d92"/><path d="M3.82 27.63h67.36v44.39H3.82z" class="st1"/><path d="M13.15-.59h48.69v31H13.15z" style="fill:none"/><path d="M22.04 14.32c0-6.47 4.74-10.61 11.03-10.61 1.79 0 3.31.15 5.04.75l-.3 3.61c-1.49-.69-2.8-.95-4.41-.95-4.14 0-6.89 2.5-6.89 7.1 0 4.62 3.04 7.25 6.95 7.25 1.52 0 2.95-.18 4.59-.81l.15 3.61c-1.31.45-3.07.69-4.86.69-6.7-.03-11.3-3.96-11.3-10.64zM41.6 3.91h11.63V7.4H45.8v5.25h7.04v3.4H45.8v8.68h-4.2V3.91z" class="st1"/><path d="M7.58 63.11C19.95 53.06 24.91 47.82 24.91 42.3c0-4.2-3.04-5.91-6.9-5.91-2.82 0-5.8.83-8.89 2.59l-.77-6.4c3.09-1.44 7.23-2.26 11.48-2.26 7.12 0 13.19 3.59 13.19 11.15 0 4.86-2.26 9.22-9.38 15.9-3.26 3.04-5.63 4.8-7.67 6.18v.11c3.48-.11 8-.17 11.43-.17h6.46v6.02H7.58v-6.4zM42.03 69.01l.11-6.51c2.71 1.16 5.35 1.71 8.17 1.71 5.3 0 8.89-2.37 8.89-6.9 0-4.69-3.37-6.96-9.22-6.96-2.48 0-5.02.44-7.56 1.27l.28-20.65h22.86v5.8H49.42l-.22 8.45c1.6-.33 2.65-.39 4.25-.39 8 0 13.47 4.58 13.47 11.98 0 8.23-6.24 13.36-16.01 13.36-2.87 0-5.85-.33-8.88-1.16z"/></svg>