<svg xmlns="http://www.w3.org/2000/svg" xml:space="preserve" id="レイヤー_1" x="0" y="0" style="enable-background:new 0 0 75 75" version="1.0" viewBox="0 0 75 75"><style>.st1{fill:#f7f8f8}</style><path d="M0 .59h75v75H0z" style="fill:#306d92"/><path d="M3.82 27.63h67.36v44.39H3.82z" class="st1"/><path d="M13.15-.59h48.69v31H13.15z" style="fill:none"/><path d="M22.04 14.32c0-6.47 4.74-10.61 11.03-10.61 1.79 0 3.31.15 5.04.75l-.3 3.61c-1.49-.69-2.8-.95-4.41-.95-4.14 0-6.89 2.5-6.89 7.1 0 4.62 3.04 7.25 6.95 7.25 1.52 0 2.95-.18 4.59-.81l.15 3.61c-1.31.45-3.07.69-4.86.69-6.7-.03-11.3-3.96-11.3-10.64zM41.6 3.91h11.63V7.4H45.8v5.25h7.04v3.4H45.8v8.68h-4.2V3.91z" class="st1"/><path d="M7.58 63.11C19.95 53.06 24.91 47.82 24.91 42.3c0-4.2-3.04-5.91-6.9-5.91-2.82 0-5.8.83-8.89 2.59l-.77-6.4c3.09-1.44 7.23-2.26 11.48-2.26 7.12 0 13.19 3.59 13.19 11.15 0 4.86-2.26 9.22-9.38 15.9-3.26 3.04-5.63 4.8-7.67 6.18v.11c3.48-.11 8-.17 11.43-.17h6.46v6.02H7.58v-6.4zM41.58 68.79l.72-6.13c2.37 1.1 4.91 1.71 7.56 1.71 7.07 0 10.49-4.91 10.66-12.97h-.11c-1.99 2.87-5.46 4.31-8.94 4.31-7.01 0-11.7-4.58-11.7-11.92 0-7.67 5.19-13.47 14.02-13.47 9.44 0 14.19 6.51 14.19 18.55 0 13.69-6.4 21.31-17.67 21.31-3.26-.01-6.41-.5-8.73-1.39zm18.33-25.45c0-4.25-2.54-7.62-6.18-7.62-4.2 0-6.29 3.53-6.29 7.51 0 4.14 2.21 6.9 6.24 6.9 3.64 0 6.23-2.87 6.23-6.79z"/></svg>