<svg xmlns="http://www.w3.org/2000/svg" xmlns:xlink="http://www.w3.org/1999/xlink" width="75" height="75"><defs><path id="a" d="M8.438-2.594q1.323.002 2.156-.297 1.576-.56 1.578-2.093-.001-.89-.781-1.375-.785-.48-2.453-.844L7.03-7.625q-2.814-.64-3.875-1.39-1.828-1.23-1.828-3.891c0-1.602.582-2.938 1.75-4 1.176-1.07 2.899-1.61 5.172-1.61 1.895 0 3.508.508 4.844 1.516q2.016 1.5 2.11 4.36h-3.61q-.094-1.624-1.406-2.297-.892-.453-2.188-.454-1.454.001-2.328.594-.86.582-.86 1.625c0 .649.286 1.125.86 1.438q.544.327 2.344.75l3.093.75q2.03.486 3.079 1.297c1.07.843 1.609 2.07 1.609 3.671 0 1.649-.633 3.016-1.89 4.11C12.656-.07 10.878.469 8.577.469q-3.514.001-5.53-1.61Q1.03-2.746 1.03-5.547h3.594q.169 1.22.672 1.828.92 1.125 3.14 1.125m0 0"/><path id="b" d="M14.984-18v3.188h-5.39V0H5.813v-14.812H.406V-18Zm0 0"/><path id="c" d="M10.734.688Q5.466.69 3.344-3 1.218-6.703 1.219-13.547q-.001-6.826 2.125-10.531 2.122-3.717 7.39-3.719 5.28 0 7.407 3.703 2.123 3.72 2.125 10.547Q20.264-6.703 18.14-3 16.014.689 10.734.688m3.188-6.954q.733-2.512.734-7.28 0-4.983-.75-7.376c-.5-1.601-1.558-2.406-3.172-2.406-1.605 0-2.668.805-3.187 2.406-.524 1.594-.781 4.055-.781 7.375 0 3.18.257 5.61.78 7.297q.78 2.518 3.188 2.516 2.42 0 3.188-2.532m0 0"/><path id="d" d="M10.39-13.719c-.656 0-1.226.086-1.703.25q-1.283.471-1.921 1.703L1.89-12l1.937-15.25h15.219v4.61H7.75l-.984 6.03q1.249-.808 1.953-1.078c.789-.289 1.75-.437 2.875-.437q3.435.002 5.984 2.313c1.695 1.53 2.547 3.761 2.547 6.687q-.002 3.832-2.453 6.844-2.456 3-7.344 3c-2.637 0-4.797-.707-6.484-2.11Q1.313-3.5 1.03-7.39h5.407q.326 1.769 1.234 2.735.92.97 2.672.968 2.015.001 3.062-1.421 1.062-1.42 1.063-3.578 0-2.11-.985-3.563-.984-1.467-3.093-1.469m0 0"/></defs><path fill="#FFA600" d="M-.004 62.602V12.398C-.004 5.551 5.551 0 12.398 0h50.2c6.847 0 12.398 5.55 12.398 12.398v50.204c0 6.847-5.55 12.398-12.398 12.398h-50.2C5.551 75-.004 69.45-.004 62.602m0 0"/><path fill="#FFF" d="M6.2 43.5V32c0-.828.667-1.5 1.5-1.5h59.597a1.5 1.5 0 0 1 1.5 1.5v11.5a1.5 1.5 0 0 1-1.5 1.5H7.699c-.832 0-1.5-.672-1.5-1.5m0 0"/><path fill="#FFF" d="M6.2 43.602v19.097a6.1 6.1 0 0 0 6.097 6.102h50.402a6.1 6.1 0 0 0 6.098-6.102V43.602a6.1 6.1 0 0 0-6.098-6.102H12.297a6.1 6.1 0 0 0-6.098 6.102m0 0"/><g fill="#FFF"><use xlink:href="#a" x="21.525" y="24.828"/><use xlink:href="#b" x="38.199" y="24.828"/></g><use xlink:href="#c" x="15.807" y="62.64"/><use xlink:href="#d" x="37.499" y="62.64"/></svg>