<svg xmlns="http://www.w3.org/2000/svg" xmlns:xlink="http://www.w3.org/1999/xlink" width="75" height="75"><defs><clipPath id="b"><path d="M3 .625h9v18.75H3Zm0 0"/></clipPath><clipPath id="c"><path d="M13 .625h19v18.75H13Zm0 0"/></clipPath><clipPath id="a"><path d="M0 0h35v20H0z"/></clipPath><clipPath id="e"><path d="M2 .762h18v26.875H2Zm0 0"/></clipPath><clipPath id="f"><path d="M23 .762h18v26.875H23Zm0 0"/></clipPath><clipPath id="d"><path d="M0 0h43v28H0z"/></clipPath><clipPath id="g"><path d="M0 0h75v75H0z"/></clipPath><g id="h" clip-path="url(#a)"><g clip-path="url(#b)"><path d="M3.54 15.867c.55.219 1.136.324 1.733.309 2.348 0 2.348-1.887 2.348-3.196V.926h3.621v13.828c0 1.926-1.234 4.621-4.969 4.621a10 10 0 0 1-2.773-.348v-3.16Zm0 0"/></g><g clip-path="url(#c)"><path d="M20.332.926h4.082l7.09 18.101h-4.008l-1.539-4.16h-7.36l-1.577 4.16h-3.774Zm2.004 3.656h-.04l-2.62 7.473h5.277Zm0 0"/></g></g><g id="i" clip-path="url(#d)"><g clip-path="url(#e)"><path d="M2.52 27.414v-4.36c2.418-2.343 11.238-9.71 11.238-14.476 0-2.383-2.121-3.496-4.242-3.496-2.196 0-4.282.965-5.993 2.082l-.406-4.32c2.344-1.188 5.059-1.86 7.7-1.86 4.953 0 8.152 2.496 8.152 7.594 0 5.508-5.547 10.57-9.79 14.738h10.606v4.098z"/></g><g clip-path="url(#f)"><path d="M23.21 27.414v-4.36c2.423-2.343 11.243-9.71 11.243-14.476 0-2.383-2.125-3.496-4.246-3.496-2.195 0-4.281.965-5.992 2.082l-.41-4.32c2.343-1.188 5.062-1.86 7.707-1.86 4.945 0 8.152 2.496 8.152 7.594 0 5.508-5.547 10.57-9.793 14.738h10.61v4.098z"/></g></g><g id="j" clip-path="url(#g)"><path fill="#05AC84" d="M0 68.5v-62A6.5 6.5 0 0 1 6.5 0h62A6.5 6.5 0 0 1 75 6.5v62a6.5 6.5 0 0 1-6.5 6.5h-62A6.5 6.5 0 0 1 0 68.5m0 0"/><path fill="#FFF" d="M7.5 67.5v-60h60v60Zm0 0"/><use xlink:href="#h" transform="translate(20 10)"/><use xlink:href="#i" transform="translate(16 33)"/></g></defs><use xlink:href="#j"/></svg>