<svg xmlns="http://www.w3.org/2000/svg" width="75" height="75" fill="none" viewBox="0 0 24 24"><g clip-path="url(#a)"><path fill="#fff" d="M19.2 0H4.8A4.8 4.8 0 0 0 0 4.8v14.4A4.8 4.8 0 0 0 4.8 24h14.4a4.8 4.8 0 0 0 4.8-4.8V4.8A4.8 4.8 0 0 0 19.2 0Z"/><path fill="#AE0179" d="M19.2 23.399H4.808a4.233 4.233 0 0 1-4.232-4.233V4.775A4.233 4.233 0 0 1 4.808.542H19.2a4.233 4.233 0 0 1 4.233 4.233v14.391A4.233 4.233 0 0 1 19.2 23.4Z"/><path fill="#fff" d="M7.848 4.14H6.23V2.997h4.605V4.14H9.202v4.859H7.848v-4.86ZM16.5 6.705c0-.72-.051-1.592-.051-2.464-.195.762-.44 1.617-.678 2.32l-.728 2.345h-1.058l-.643-2.32a34.197 34.197 0 0 1-.542-2.345c0 .847-.068 1.736-.102 2.48L12.588 9h-1.295l.39-6.002h1.811l.584 2.006c.204.694.373 1.44.508 2.142h.043c.16-.694.364-1.482.567-2.15l.626-1.998h1.787l.321 6.002h-1.32l-.11-2.294ZM11.606 16.16c0 2.854-1.16 4.843-3.513 4.843-2.353 0-3.462-2.159-3.47-4.791-.01-2.633 1.125-4.809 3.52-4.809 2.397 0 3.463 2.21 3.463 4.758Zm-4.817.052c0 2.133.517 3.149 1.346 3.149.83 0 1.296-1.058 1.296-3.175 0-2.116-.44-3.14-1.312-3.14-.872 0-1.33.998-1.33 3.166ZM12.546 20.842V19.53l1.185-1.075c2.04-1.828 3.03-2.87 3.04-3.953 0-.762-.44-1.363-1.508-1.363a3.454 3.454 0 0 0-1.989.761l-.618-1.54a5.079 5.079 0 0 1 3.03-.957c2.117 0 3.26 1.228 3.26 2.895 0 1.668-1.117 2.82-2.472 4.013l-.847.72h3.514v1.786l-6.595.025Z"/></g><defs><clipPath id="a"><path fill="#fff" d="M0 0h75v75H0z"/></clipPath></defs></svg>