<svg xmlns="http://www.w3.org/2000/svg" width="75" height="75" fill="none" viewBox="0 0 24 24"><g clip-path="url(#a)"><path fill="#fff" d="M19.2 0H4.8A4.8 4.8 0 0 0 0 4.8v14.4A4.8 4.8 0 0 0 4.8 24h14.4a4.8 4.8 0 0 0 4.8-4.8V4.8A4.8 4.8 0 0 0 19.2 0Z"/><path fill="#AE0179" d="M19.2 23.399H4.808a4.233 4.233 0 0 1-4.232-4.233V4.775A4.233 4.233 0 0 1 4.808.542H19.2a4.233 4.233 0 0 1 4.233 4.233v14.391A4.233 4.233 0 0 1 19.2 23.4Z"/><path fill="#fff" d="M7.848 4.14H6.23V2.997h4.605V4.14H9.202v4.859H7.848v-4.86ZM16.5 6.705c0-.72-.051-1.592-.051-2.464-.195.762-.44 1.617-.678 2.32l-.728 2.345h-1.058l-.643-2.32a34.197 34.197 0 0 1-.542-2.345c0 .805-.068 1.693-.102 2.48L12.588 9h-1.295l.39-5.994h1.811l.584 1.998a23.3 23.3 0 0 1 .508 2.15h.043c.16-.702.364-1.49.567-2.158l.626-1.99h1.787L17.93 9h-1.32l-.11-2.294ZM11.606 16.16c0 2.854-1.16 4.843-3.513 4.843-2.353 0-3.462-2.159-3.47-4.791-.01-2.633 1.125-4.809 3.52-4.809 2.397 0 3.463 2.21 3.463 4.758Zm-4.817.052c0 2.133.517 3.149 1.346 3.149.83 0 1.296-1.058 1.296-3.175 0-2.116-.44-3.14-1.312-3.14-.872 0-1.33.998-1.33 3.166ZM12.919 18.718a4.937 4.937 0 0 0 2.158.567c1.126 0 1.693-.542 1.693-1.228 0-.931-.914-1.346-1.879-1.346h-.847v-1.558h.847c.728 0 1.642-.279 1.642-1.066 0-.559-.44-.974-1.371-.974a4.15 4.15 0 0 0-1.93.559l-.44-1.575a5.808 5.808 0 0 1 2.87-.694c1.972 0 3.072 1.041 3.072 2.311a2.218 2.218 0 0 1-1.693 2.159 2.312 2.312 0 0 1 2.015 2.277c0 1.626-1.44 2.828-3.801 2.828a5.605 5.605 0 0 1-2.751-.644l.415-1.616Z"/></g><defs><clipPath id="a"><path fill="#fff" d="M0 0h75v75H0z"/></clipPath></defs></svg>