<svg xmlns="http://www.w3.org/2000/svg" width="75" height="75" fill="none" viewBox="0 0 24 24"><g clip-path="url(#a)"><path fill="#fff" d="M19.2 0H4.8A4.8 4.8 0 0 0 0 4.8v14.4A4.8 4.8 0 0 0 4.8 24h14.4a4.8 4.8 0 0 0 4.8-4.8V4.8A4.8 4.8 0 0 0 19.2 0Z"/><path fill="#AE0179" d="M19.2 23.424H4.808a4.233 4.233 0 0 1-4.232-4.232V4.8A4.233 4.233 0 0 1 4.808.567H19.2A4.233 4.233 0 0 1 23.433 4.8v14.392a4.233 4.233 0 0 1-4.233 4.232Z"/><path fill="#fff" d="M7.848 4.14H6.23V2.997h4.605V4.14H9.202v4.859H7.848v-4.86ZM16.5 6.705c0-.72-.051-1.592-.051-2.464-.195.762-.44 1.617-.678 2.32l-.728 2.345h-1.058l-.643-2.32a34.198 34.198 0 0 1-.542-2.345c0 .847-.068 1.736-.102 2.48L12.588 9h-1.295l.39-5.994h1.811l.584 1.998a23.3 23.3 0 0 1 .508 2.15h.043c.16-.702.364-1.49.567-2.158l.626-1.99h1.787L17.93 9h-1.32l-.11-2.294ZM11.606 16.16c0 2.854-1.16 4.843-3.513 4.843-2.353 0-3.462-2.158-3.47-4.791-.01-2.633 1.125-4.809 3.52-4.809 2.397 0 3.463 2.21 3.463 4.758Zm-4.817.052c0 2.133.517 3.149 1.346 3.149.83 0 1.296-1.058 1.296-3.175 0-2.116-.44-3.14-1.312-3.14-.872 0-1.33.999-1.33 3.166ZM16.372 20.885v-2.21h-4.114v-1.422l3.505-5.655h2.667v5.443h1.1v1.634h-1.1v2.21h-2.058Zm0-3.844V14.96c0-.559 0-1.126.06-1.693h-.043c-.304.6-.558 1.143-.846 1.693l-1.228 2.032 2.057.05Z"/></g><defs><clipPath id="a"><path fill="#fff" d="M0 0h75v75H0z"/></clipPath></defs></svg>