<svg xmlns="http://www.w3.org/2000/svg" width="75" height="75" fill="none" viewBox="0 0 24 24"><g clip-path="url(#a)"><path fill="#fff" d="M19.2 0H4.8A4.8 4.8 0 0 0 0 4.8v14.4A4.8 4.8 0 0 0 4.8 24h14.4a4.8 4.8 0 0 0 4.8-4.8V4.8A4.8 4.8 0 0 0 19.2 0Z"/><path fill="#AE0179" d="M19.2 23.399H4.808a4.233 4.233 0 0 1-4.232-4.233V4.775A4.233 4.233 0 0 1 4.808.542H19.2a4.233 4.233 0 0 1 4.233 4.233v14.391A4.233 4.233 0 0 1 19.2 23.4Z"/><path fill="#fff" d="M7.848 4.14H6.23V2.997h4.605V4.14H9.202v4.859H7.848v-4.86ZM16.5 6.705c0-.72-.051-1.592-.051-2.464-.195.762-.44 1.617-.678 2.32l-.728 2.345h-1.058l-.66-2.286a34.139 34.139 0 0 1-.542-2.345c0 .804-.068 1.736-.101 2.48l-.11 2.278h-1.279l.39-5.994h1.811l.584 1.998c.204.694.373 1.448.508 2.15h.043c.16-.694.364-1.49.567-2.158l.626-1.99h1.787l.321 5.994h-1.32l-.11-2.328ZM11.606 16.16c0 2.854-1.16 4.843-3.513 4.843-2.353 0-3.462-2.159-3.47-4.791-.01-2.633 1.125-4.809 3.52-4.809 2.397 0 3.463 2.21 3.463 4.758Zm-4.817.052c0 2.133.517 3.149 1.346 3.149.83 0 1.296-1.058 1.296-3.175 0-2.116-.44-3.14-1.312-3.14-.872 0-1.33.998-1.33 3.166ZM18.734 13.342h-3.606l-.195 1.43c.2-.013.401-.013.601 0a4.233 4.233 0 0 1 2.438.67 2.65 2.65 0 0 1 1.135 2.327c0 1.693-1.49 3.26-3.987 3.26a5.926 5.926 0 0 1-2.59-.534l.406-1.625a5.24 5.24 0 0 0 2.082.457c.897 0 1.854-.432 1.854-1.414s-.753-1.54-2.616-1.54a7.379 7.379 0 0 0-1.236.084l.593-4.876h5.121v1.76Z"/></g><defs><clipPath id="a"><path fill="#fff" d="M0 0h75v75H0z"/></clipPath></defs></svg>