<svg xmlns="http://www.w3.org/2000/svg" width="75" height="75" fill="none" viewBox="0 0 24 24"><g clip-path="url(#a)"><path fill="#fff" d="M19.2 0H4.8A4.8 4.8 0 0 0 0 4.8v14.4A4.8 4.8 0 0 0 4.8 24h14.4a4.8 4.8 0 0 0 4.8-4.8V4.8A4.8 4.8 0 0 0 19.2 0Z"/><path fill="#AE0179" d="M19.2 23.399H4.808a4.233 4.233 0 0 1-4.232-4.233V4.775A4.233 4.233 0 0 1 4.808.542H19.2a4.233 4.233 0 0 1 4.233 4.233v14.391A4.233 4.233 0 0 1 19.2 23.4Z"/><path fill="#fff" d="M7.848 4.14H6.23V2.997h4.605V4.14H9.202v4.859H7.848v-4.86ZM16.5 6.747c0-.72-.051-1.591-.051-2.463-.195.761-.44 1.617-.678 2.32l-.728 2.344h-1.058l-.643-2.32a34.197 34.197 0 0 1-.542-2.344c0 .846-.068 1.693-.102 2.48l-.11 2.277h-1.295l.39-5.993h1.811l.584 1.997c.204.695.373 1.448.508 2.15h.043c.16-.693.364-1.49.567-2.158l.626-1.99h1.787l.321 5.994h-1.32l-.11-2.294ZM11.606 16.16c0 2.854-1.16 4.843-3.513 4.843-2.353 0-3.462-2.159-3.47-4.791-.01-2.633 1.125-4.809 3.52-4.809 2.397 0 3.463 2.21 3.463 4.758Zm-4.817.052c0 2.133.517 3.149 1.346 3.149.83 0 1.296-1.058 1.296-3.175 0-2.116-.44-3.14-1.312-3.14-.872 0-1.33.998-1.33 3.166ZM18.464 13.105a6.04 6.04 0 0 0-.847 0c-1.93.152-2.785 1.143-3.03 2.21h.042a2.692 2.692 0 0 1 1.972-.729 2.819 2.819 0 0 1 2.87 3.03 3.319 3.319 0 0 1-3.386 3.387c-2.49 0-3.7-1.845-3.7-4.063a5.562 5.562 0 0 1 1.693-4.14 5.469 5.469 0 0 1 3.573-1.355 4.45 4.45 0 0 1 .846 0l-.034 1.66ZM17.27 17.76c0-.847-.449-1.6-1.38-1.6a1.379 1.379 0 0 0-1.27.846 1.076 1.076 0 0 0-.101.56c0 .981.516 1.87 1.515 1.87.753 0 1.236-.703 1.236-1.642"/></g><defs><clipPath id="a"><path fill="#fff" d="M0 0h75v75H0z"/></clipPath></defs></svg>