<svg xmlns="http://www.w3.org/2000/svg" width="75" height="75" fill="none" viewBox="0 0 24 24"><g clip-path="url(#a)"><path fill="#fff" d="M19.2 0H4.8A4.8 4.8 0 0 0 0 4.8v14.4A4.8 4.8 0 0 0 4.8 24h14.4a4.8 4.8 0 0 0 4.8-4.8V4.8A4.8 4.8 0 0 0 19.2 0Z"/><path fill="#AE0179" d="M19.2 23.399H4.808a4.233 4.233 0 0 1-4.232-4.233V4.775A4.233 4.233 0 0 1 4.808.542H19.2a4.233 4.233 0 0 1 4.233 4.233v14.391A4.233 4.233 0 0 1 19.2 23.4Z"/><path fill="#fff" d="M7.848 4.14H6.23V2.997h4.605V4.14H9.202v4.859H7.848v-4.86ZM16.5 6.705c0-.72-.051-1.592-.051-2.464-.195.762-.44 1.617-.678 2.32l-.728 2.345h-1.058l-.643-2.32a34.197 34.197 0 0 1-.542-2.345c0 .847-.068 1.736-.102 2.48L12.588 9h-1.295l.39-5.994h1.811l.584 1.998c.204.694.373 1.448.508 2.15h.043c.16-.694.364-1.49.567-2.158l.626-1.99h1.787L17.93 9h-1.32l-.11-2.294ZM11.606 16.186c0 2.853-1.16 4.843-3.513 4.843-2.353 0-3.462-2.16-3.47-4.783-.01-2.625 1.125-4.817 3.52-4.817 2.397 0 3.463 2.21 3.463 4.757Zm-4.817.06c0 2.124.517 3.14 1.346 3.14.83 0 1.296-1.058 1.296-3.174 0-2.117-.44-3.141-1.312-3.141-.872 0-1.33.999-1.33 3.175ZM19.183 11.556v1.371l-3.826 7.915h-2.303l3.835-7.475v-.025H12.63v-1.786h6.552Z"/></g><defs><clipPath id="a"><path fill="#fff" d="M0 0h75v75H0z"/></clipPath></defs></svg>