<svg xmlns="http://www.w3.org/2000/svg" xmlns:xlink="http://www.w3.org/1999/xlink" width="75" height="75"><defs><path id="a" d="M9.813-9.281h8.562c0 .875-.04 1.672-.11 2.39a8.2 8.2 0 0 1-.453 2 8 8 0 0 1-1.25 2.313 7.1 7.1 0 0 1-1.859 1.672Q13.638-.231 12.36.109a9.8 9.8 0 0 1-2.671.36Q7.748.468 6.14-.171 4.545-.81 3.406-1.97a8.1 8.1 0 0 1-1.781-2.765c-.43-1.082-.64-2.274-.64-3.578q-.002-1.935.624-3.547.639-1.623 1.782-2.766 1.154-1.155 2.78-1.781 1.64-.64 3.641-.64 2.59 0 4.547 1.124 1.968 1.114 3.11 3.469l-4.094 1.687c-.387-.906-.883-1.554-1.484-1.953q-.908-.592-2.078-.594c-.649 0-1.235.126-1.766.376a3.85 3.85 0 0 0-1.344 1.03q-.563.676-.89 1.626-.315.938-.313 2.094-.002 1.066.266 1.968c.187.594.46 1.117.828 1.563Q7.155-4 7.969-3.641c.539.243 1.172.36 1.89.36q.638 0 1.235-.14c.394-.095.75-.243 1.062-.454.313-.219.57-.492.781-.828q.312-.515.422-1.234H9.813Zm0 0"/><path id="b" d="M6.422-11.344q-.002 1.502.266 2.735.262 1.237.765 2.14.497.892 1.188 1.39a2.63 2.63 0 0 0 1.562.485q.844.001 1.547-.484.704-.5 1.172-1.39.48-.904.75-2.141c.187-.82.281-1.735.281-2.735q0-1.465-.281-2.703-.27-1.247-.75-2.125-.469-.89-1.172-1.39a2.62 2.62 0 0 0-1.547-.5 2.6 2.6 0 0 0-1.562.5q-.69.5-1.188 1.39-.503.878-.766 2.125c-.18.824-.265 1.727-.265 2.703m-5.828 0q0-2.701.703-4.906.716-2.204 1.984-3.75a9.06 9.06 0 0 1 3.032-2.422c1.164-.57 2.46-.86 3.89-.86 1.395 0 2.68.29 3.86.86A8.7 8.7 0 0 1 17.093-20q1.266 1.546 1.97 3.75.702 2.204.703 4.906 0 2.706-.703 4.906-.704 2.205-1.97 3.782a8.55 8.55 0 0 1-3.03 2.437c-1.18.559-2.465.844-3.86.844-1.43 0-2.726-.285-3.89-.844A8.9 8.9 0 0 1 3.28-2.656C2.437-3.707 1.773-4.97 1.297-6.437.828-7.907.594-9.54.594-11.344m0 0"/><path id="c" d="M19.047 0H.844l5.61-5.812q2.214-2.31 3.468-3.922 1.266-1.605 1.875-2.72c.414-.737.672-1.335.765-1.796.102-.457.157-.848.157-1.172q-.001-.516-.172-.984a2.5 2.5 0 0 0-.485-.86 2.4 2.4 0 0 0-.796-.593 2.4 2.4 0 0 0-1.094-.235q-1.207.001-1.875.782c-.45.523-.672 1.171-.672 1.953 0 .218.023.539.078.953H1.297c0-1.313.21-2.508.64-3.594a8 8 0 0 1 1.813-2.781 8 8 0 0 1 2.766-1.797c1.07-.426 2.25-.64 3.53-.64q1.89 0 3.5.609 1.606.595 2.767 1.672a7.65 7.65 0 0 1 1.828 2.562c.445.992.672 2.063.672 3.219q0 1.862-.797 3.437-.797 1.582-2.532 3.235l-3.75 3.5h7.313Zm0 0"/></defs><path fill="#FF9500" d="M74.996 37.5c0-20.71-16.789-37.5-37.5-37.5s-37.5 16.79-37.5 37.5S16.786 75 37.496 75s37.5-16.79 37.5-37.5m0 0"/><path fill="#FFF" d="M65.996 37.5c0-15.742-12.758-28.5-28.5-28.5-15.738 0-28.5 12.758-28.5 28.5S21.758 66 37.496 66c15.742 0 28.5-12.758 28.5-28.5m0 0"/><use xlink:href="#a" x="27.817" y="30.995"/><use xlink:href="#b" x="17.097" y="58.325"/><use xlink:href="#c" x="37.497" y="58.325"/></svg>