<svg xmlns="http://www.w3.org/2000/svg" xmlns:xlink="http://www.w3.org/1999/xlink" width="75" height="75"><defs><path id="a" d="M9.813-9.281h8.562c0 .875-.04 1.672-.11 2.39a8.2 8.2 0 0 1-.453 2 8 8 0 0 1-1.25 2.313 7.1 7.1 0 0 1-1.859 1.672Q13.638-.231 12.36.109a9.8 9.8 0 0 1-2.671.36Q7.748.468 6.14-.171 4.545-.81 3.406-1.97a8.1 8.1 0 0 1-1.781-2.765c-.43-1.082-.64-2.274-.64-3.578q-.002-1.935.624-3.547.639-1.623 1.782-2.766 1.154-1.155 2.78-1.781 1.64-.64 3.641-.64 2.59 0 4.547 1.124 1.968 1.114 3.11 3.469l-4.094 1.687c-.387-.906-.883-1.554-1.484-1.953q-.908-.592-2.078-.594c-.649 0-1.235.126-1.766.376a3.85 3.85 0 0 0-1.344 1.03q-.563.676-.89 1.626-.315.938-.313 2.094-.002 1.066.266 1.968c.187.594.46 1.117.828 1.563Q7.155-4 7.969-3.641c.539.243 1.172.36 1.89.36q.638 0 1.235-.14c.394-.095.75-.243 1.062-.454.313-.219.57-.492.781-.828q.312-.515.422-1.234H9.813Zm0 0"/><path id="b" d="M7.953-17.64H4.656v-4.985h9.172V0H7.953Zm0 0"/><path id="c" d="M8.969-13.797c.156.024.289.031.406.031h.281q1.107 0 1.797-.656.703-.669.703-1.719 0-1.013-.656-1.64-.643-.64-1.656-.64c-.719 0-1.305.241-1.75.718q-.657.72-.656 1.86H2.016q.199-1.765.875-3.141.67-1.39 1.718-2.328a7.2 7.2 0 0 1 2.47-1.438q1.404-.499 3.124-.5 1.67 0 3.031.469c.914.312 1.696.758 2.344 1.328a5.5 5.5 0 0 1 1.5 2.062c.352.805.531 1.703.531 2.703q-.001 1.63-.625 2.672c-.406.688-.992 1.282-1.75 1.782q1.745.532 2.72 1.937.983 1.395.983 3.422-.002 1.689-.671 3.063a7 7 0 0 1-1.844 2.375c-.793.656-1.735 1.164-2.828 1.515q-1.629.546-3.578.547c-1.743 0-3.313-.34-4.72-1.016Q3.202-1.404 1.954-3.625a6.5 6.5 0 0 1-.781-1.984 10.8 10.8 0 0 1-.188-2.016h5.829q.06 1.595.921 2.422c.582.555 1.364.828 2.344.828q1.56 0 2.281-.844c.477-.562.72-1.254.72-2.078 0-.976-.294-1.719-.876-2.219q-.862-.75-2.062-.75-.299 0-.578.047-.268.048-.594.11Zm0 0"/></defs><path fill="#FF9500" d="M74.996 37.5c0-20.71-16.789-37.5-37.5-37.5s-37.5 16.79-37.5 37.5S16.786 75 37.496 75s37.5-16.79 37.5-37.5m0 0"/><path fill="#FFF" d="M65.996 37.5c0-15.742-12.758-28.5-28.5-28.5-15.738 0-28.5 12.758-28.5 28.5S21.758 66 37.496 66c15.742 0 28.5-12.758 28.5-28.5m0 0"/><use xlink:href="#a" x="27.817" y="30.995"/><use xlink:href="#b" x="17.967" y="58.31"/><use xlink:href="#c" x="36.627" y="58.31"/></svg>