<svg xmlns="http://www.w3.org/2000/svg" xmlns:xlink="http://www.w3.org/1999/xlink" width="75" height="75"><defs><path id="a" d="M9.813-9.281h8.562c0 .875-.04 1.672-.11 2.39a8.2 8.2 0 0 1-.453 2 8 8 0 0 1-1.25 2.313 7.1 7.1 0 0 1-1.859 1.672Q13.638-.231 12.36.109a9.8 9.8 0 0 1-2.671.36Q7.748.468 6.14-.171 4.545-.81 3.406-1.97a8.1 8.1 0 0 1-1.781-2.765c-.43-1.082-.64-2.274-.64-3.578q-.002-1.935.624-3.547.639-1.623 1.782-2.766 1.154-1.155 2.78-1.781 1.64-.64 3.641-.64 2.59 0 4.547 1.124 1.968 1.114 3.11 3.469l-4.094 1.687c-.387-.906-.883-1.554-1.484-1.953q-.908-.592-2.078-.594c-.649 0-1.235.126-1.766.376a3.85 3.85 0 0 0-1.344 1.03q-.563.676-.89 1.626-.315.938-.313 2.094-.002 1.066.266 1.968c.187.594.46 1.117.828 1.563Q7.155-4 7.969-3.641c.539.243 1.172.36 1.89.36q.638 0 1.235-.14c.394-.095.75-.243 1.062-.454.313-.219.57-.492.781-.828q.312-.515.422-1.234H9.813Zm0 0"/><path id="b" d="M7.953-17.64H4.656v-4.985h9.172V0H7.953Zm0 0"/><path id="c" d="M16.797-17.64H8.969l-.39 2.484q.543-.047.983-.094.452-.047.938-.047 1.7 0 3.172.61 1.482.597 2.531 1.64 1.043 1.051 1.64 2.516.61 1.47.61 3.219c0 1.218-.23 2.32-.687 3.296a7.06 7.06 0 0 1-1.907 2.5q-1.218 1.033-3 1.579c-1.18.375-2.484.562-3.921.562a15 15 0 0 1-3.891-.5q-1.846-.48-3.453-1.5l.86-5.531q1.499 1.3 3.062 1.968 1.56.673 2.968.672 1.81.002 2.86-.968c.695-.645 1.047-1.453 1.047-2.422 0-1.114-.477-2.016-1.422-2.703q-1.408-1.046-3.672-1.047-1.031 0-2.11.234a9.8 9.8 0 0 0-2.125.703l1.891-12.156h11.844Zm0 0"/></defs><path fill="#FF9500" d="M74.996 37.5c0-20.71-16.789-37.5-37.5-37.5s-37.5 16.79-37.5 37.5S16.786 75 37.496 75s37.5-16.79 37.5-37.5m0 0"/><path fill="#FFF" d="M65.996 37.5c0-15.742-12.758-28.5-28.5-28.5-15.738 0-28.5 12.758-28.5 28.5S21.758 66 37.496 66c15.742 0 28.5-12.758 28.5-28.5m0 0"/><use xlink:href="#a" x="27.817" y="30.995"/><use xlink:href="#b" x="18.042" y="57.996"/><use xlink:href="#c" x="36.551" y="57.996"/></svg>