<svg xmlns="http://www.w3.org/2000/svg" xmlns:xlink="http://www.w3.org/1999/xlink" width="75" height="75"><defs><clipPath id="b"><path d="M3 .625h9v18.75H3Zm0 0"/></clipPath><clipPath id="c"><path d="M14 .625h18v18.75H14Zm0 0"/></clipPath><clipPath id="a"><path d="M0 0h35v20H0z"/></clipPath><clipPath id="e"><path d="M2 .762h18v26.875H2Zm0 0"/></clipPath><clipPath id="f"><path d="M23 .762h18v26.875H23Zm0 0"/></clipPath><clipPath id="d"><path d="M0 0h43v28H0z"/></clipPath><clipPath id="g"><path d="M0 0h75v75H0z"/></clipPath><g id="h" clip-path="url(#a)"><g clip-path="url(#b)"><path d="M3.328 15.871c.55.215 1.137.32 1.727.309 2.343 0 2.343-1.887 2.343-3.196V.934h3.61v13.824c0 1.918-1.23 4.617-4.953 4.617a9.9 9.9 0 0 1-2.766-.348v-3.156Zm0 0"/></g><g clip-path="url(#c)"><path d="M22.875.625c5.688 0 8.836 3.852 8.836 9.316 0 5.47-3.148 9.395-8.836 9.395-5.797 0-8.832-3.852-8.832-9.395S17.117.625 22.875.625m0 15.863c3.691 0 5.074-3.312 5.074-6.547s-1.46-6.468-5.074-6.468c-3.605 0-5.066 3.273-5.066 6.468 0 3.274 1.382 6.547 5.066 6.547"/></g></g><g id="i" clip-path="url(#d)"><g clip-path="url(#e)"><path d="M2.52 27.414v-4.36c2.418-2.343 11.238-9.71 11.238-14.476 0-2.383-2.121-3.496-4.242-3.496-2.196 0-4.282.965-5.993 2.082l-.406-4.32c2.344-1.188 5.059-1.86 7.7-1.86 4.953 0 8.152 2.496 8.152 7.594 0 5.508-5.547 10.57-9.79 14.738h10.606v4.098z"/></g><g clip-path="url(#f)"><path d="M23.21 27.414v-4.36c2.423-2.343 11.243-9.71 11.243-14.476 0-2.383-2.125-3.496-4.246-3.496-2.195 0-4.281.965-5.992 2.082l-.41-4.32c2.343-1.188 5.062-1.86 7.707-1.86 4.945 0 8.152 2.496 8.152 7.594 0 5.508-5.547 10.57-9.793 14.738h10.61v4.098z"/></g></g><g id="j" clip-path="url(#g)"><path fill="#0171C5" d="M0 68.5v-62A6.5 6.5 0 0 1 6.5 0h62A6.5 6.5 0 0 1 75 6.5v62a6.5 6.5 0 0 1-6.5 6.5h-62A6.5 6.5 0 0 1 0 68.5m0 0"/><path fill="#FFF" d="M7.5 67.5v-60h60v60Zm0 0"/><use xlink:href="#h" transform="translate(20 10)"/><use xlink:href="#i" transform="translate(16 33)"/></g></defs><use xlink:href="#j"/></svg>