<svg xmlns="http://www.w3.org/2000/svg" xmlns:xlink="http://www.w3.org/1999/xlink" width="75" height="75"><defs><clipPath id="b"><path d="M5 .625h8v18.75H5Zm0 0"/></clipPath><clipPath id="c"><path d="M15 .625h15v18.75H15Zm0 0"/></clipPath><clipPath id="a"><path d="M0 0h35v20H0z"/></clipPath><clipPath id="e"><path d="M1 .762h19v26.875H1Zm0 0"/></clipPath><clipPath id="f"><path d="M23 1h17v26.637H23Zm0 0"/></clipPath><clipPath id="d"><path d="M0 0h41v28H0z"/></clipPath><clipPath id="g"><path d="M0 0h75v75H0z"/></clipPath><g id="h" clip-path="url(#a)"><g clip-path="url(#b)"><path d="M5.125 15.863c.55.215 1.14.32 1.734.309 2.348 0 2.348-1.89 2.348-3.203V.895h3.617v13.851c0 1.93-1.23 4.629-4.965 4.629a10 10 0 0 1-2.773-.348v-3.164Zm0 0"/></g><g clip-path="url(#c)"><path d="M29.914 18.797a18.3 18.3 0 0 1-4.121.578c-5.848 0-9.926-2.934-9.926-9.066 0-6.211 3.77-9.684 9.926-9.684 1.395.012 2.773.258 4.082.734l-.27 3.047a7.6 7.6 0 0 0-3.925-.965c-3.735 0-6.082 2.856-6.082 6.559s2.273 6.48 6.16 6.48c1.422 0 3.113-.308 3.965-.77Zm0 0"/></g></g><g id="i" clip-path="url(#d)"><g clip-path="url(#e)"><path d="M1.742 14.273C1.742 7.762 3.715.762 10.75.762c7.594 0 9.082 7.48 9.082 13.511 0 6.032-1.562 13.364-9.082 13.364-8 0-9.008-7.926-9.008-13.364m12.88 0c0-3.347 0-9.644-3.872-9.644-3.797 0-3.797 6.297-3.797 9.644 0 3.278-.035 9.493 3.797 9.493 3.91 0 3.871-6.215 3.871-9.493m0 0"/></g><g clip-path="url(#f)"><path d="M38.629 5.082H28.617l-.11 5.547c.59-.113 1.376-.266 2.38-.266 3.644 0 8.375 1.719 8.375 8.453 0 4.875-3.422 8.82-10.125 8.82-2.008 0-4.356-.335-6.067-.741l.114-4.657c1.261.524 3.05 1.305 5.324 1.305 2.71 0 5.543-1.266 5.543-4.578 0-3.352-2.98-4.504-5.957-4.504-1.598 0-3.125.219-4.653.707L23.7 1.211h14.93z"/></g></g><g id="j" clip-path="url(#g)"><path fill="#EB5C01" d="M0 68.5v-62A6.5 6.5 0 0 1 6.5 0h62A6.5 6.5 0 0 1 75 6.5v62a6.5 6.5 0 0 1-6.5 6.5h-62A6.5 6.5 0 0 1 0 68.5m0 0"/><path fill="#FFF" d="M7.5 67.5v-60h60v60Zm0 0"/><use xlink:href="#h" transform="translate(20 10)"/><use xlink:href="#i" transform="translate(17 33)"/></g></defs><use xlink:href="#j"/></svg>