<svg xmlns="http://www.w3.org/2000/svg" xmlns:xlink="http://www.w3.org/1999/xlink" width="75" height="75"><defs><clipPath id="b"><path d="M5 .625h8v18.75H5Zm0 0"/></clipPath><clipPath id="c"><path d="M15 .625h15v18.75H15Zm0 0"/></clipPath><clipPath id="a"><path d="M0 0h35v20H0z"/></clipPath><clipPath id="e"><path d="M3 1h13v26.637H3Zm0 0"/></clipPath><clipPath id="f"><path d="M22 .762h18v26.875H22Zm0 0"/></clipPath><clipPath id="d"><path d="M0 0h43v28H0z"/></clipPath><clipPath id="g"><path d="M0 0h75v75H0z"/></clipPath><g id="h" clip-path="url(#a)"><g clip-path="url(#b)"><path d="M5.125 15.863c.55.215 1.14.32 1.734.309 2.348 0 2.348-1.89 2.348-3.203V.895h3.617v13.851c0 1.93-1.23 4.629-4.965 4.629a10 10 0 0 1-2.773-.348v-3.164Zm0 0"/></g><g clip-path="url(#c)"><path d="M29.914 18.797a18.3 18.3 0 0 1-4.121.578c-5.848 0-9.926-2.934-9.926-9.066 0-6.211 3.77-9.684 9.926-9.684 1.395.012 2.773.258 4.082.734l-.27 3.047a7.6 7.6 0 0 0-3.925-.965c-3.735 0-6.082 2.856-6.082 6.559s2.273 6.48 6.16 6.48c1.422 0 3.113-.308 3.965-.77Zm0 0"/></g></g><g id="i" clip-path="url(#d)"><g clip-path="url(#e)"><path d="M11.004 1.21h4.617v25.981h-5.21V7.125L6.02 10.699 3.414 7.316z"/></g><g clip-path="url(#f)"><path d="M23.137 22.355c1.785.704 3.722 1.188 5.77 1.188 2.156 0 5.472-1.04 5.472-3.684 0-3.054-2.422-4.058-5.734-4.058h-2.532v-4.094H28.5c3.492 0 5.766-1.152 5.766-3.422 0-2.61-2.121-3.426-4.47-3.426-2.042 0-4.019.485-5.839 1.38L23.66 2.07c2.082-.824 4.574-1.308 7.254-1.308 3.203 0 8.566 1.12 8.566 6.664 0 3.535-2.199 5.21-4.84 6.219v.07c3.313.45 4.95 3.02 4.95 6.183 0 6.176-5.621 7.739-9.942 7.739-2.27 0-4.875-.297-6.808-.856z"/></g></g><g id="j" clip-path="url(#g)"><path fill="#EB5C01" d="M0 68.5v-62A6.5 6.5 0 0 1 6.5 0h62A6.5 6.5 0 0 1 75 6.5v62a6.5 6.5 0 0 1-6.5 6.5h-62A6.5 6.5 0 0 1 0 68.5m0 0"/><path fill="#FFF" d="M7.5 67.5v-60h60v60Zm0 0"/><use xlink:href="#h" transform="translate(20 10)"/><use xlink:href="#i" transform="translate(16 33)"/></g></defs><use xlink:href="#j"/></svg>