<svg xmlns="http://www.w3.org/2000/svg" xmlns:xlink="http://www.w3.org/1999/xlink" width="75" height="75"><defs><clipPath id="b"><path d="M5 .625h8v18.75H5Zm0 0"/></clipPath><clipPath id="c"><path d="M15 .625h15v18.75H15Zm0 0"/></clipPath><clipPath id="a"><path d="M0 0h35v20H0z"/></clipPath><clipPath id="e"><path d="M2 1h14v26.637H2Zm0 0"/></clipPath><clipPath id="f"><path d="M21 .762h20v26.875H21Zm0 0"/></clipPath><clipPath id="d"><path d="M0 0h43v28H0z"/></clipPath><clipPath id="g"><path d="M0 0h75v75H0z"/></clipPath><g id="h" clip-path="url(#a)"><g clip-path="url(#b)"><path d="M5.125 15.863c.55.215 1.14.32 1.734.309 2.348 0 2.348-1.89 2.348-3.203V.895h3.617v13.851c0 1.93-1.23 4.629-4.965 4.629a10 10 0 0 1-2.773-.348v-3.164Zm0 0"/></g><g clip-path="url(#c)"><path d="M29.914 18.797a18.3 18.3 0 0 1-4.121.578c-5.848 0-9.926-2.934-9.926-9.066 0-6.211 3.77-9.684 9.926-9.684 1.395.012 2.773.258 4.082.734l-.27 3.047a7.6 7.6 0 0 0-3.925-.965c-3.735 0-6.082 2.856-6.082 6.559s2.273 6.48 6.16 6.48c1.422 0 3.113-.308 3.965-.77Zm0 0"/></g></g><g id="i" clip-path="url(#d)"><g clip-path="url(#e)"><path d="M10.52 1.21h4.613v25.981H9.926V7.13l-4.395 3.57-2.605-3.386z"/></g><g clip-path="url(#f)"><path d="M35.086 13.2v.07c3.426 1.597 4.988 3.832 4.988 6.812 0 5.25-3.793 7.555-8.933 7.555-5.063 0-9.157-2.192-9.157-7.48 0-2.907 1.637-4.915 4.762-6.442v-.07c-2.601-1.157-4.316-3.313-4.316-6.032 0-4.656 3.535-6.851 8.261-6.851 4.582 0 8.711 1.898 8.711 6.254 0 2.343-1.449 5.066-4.316 6.214zm-7.887 6.882c0 2.156 1.86 3.684 3.942 3.684s3.722-1.301 3.722-3.461c0-2.567-2.195-3.797-4.355-4.508-1.86.898-3.309 2.09-3.309 4.285M34.418 7.91c0-1.937-1.23-3.277-3.2-3.277-1.898 0-3.8 1.043-3.8 3.129 0 2.23 2.309 3.234 4.098 3.906 1.449-.52 2.902-2.16 2.902-3.758m0 0"/></g></g><g id="j" clip-path="url(#g)"><path fill="#EB5C01" d="M0 68.5v-62A6.5 6.5 0 0 1 6.5 0h62A6.5 6.5 0 0 1 75 6.5v62a6.5 6.5 0 0 1-6.5 6.5h-62A6.5 6.5 0 0 1 0 68.5m0 0"/><path fill="#FFF" d="M7.5 67.5v-60h60v60Zm0 0"/><use xlink:href="#h" transform="translate(20 10)"/><use xlink:href="#i" transform="translate(16 33)"/></g></defs><use xlink:href="#j"/></svg>