<svg xmlns="http://www.w3.org/2000/svg" xmlns:xlink="http://www.w3.org/1999/xlink" width="75" height="75"><defs><clipPath id="b"><path d="M5 .625h8v18.75H5Zm0 0"/></clipPath><clipPath id="c"><path d="M15 .625h15v18.75H15Zm0 0"/></clipPath><clipPath id="a"><path d="M0 0h35v20H0z"/></clipPath><clipPath id="e"><path d="M3 .762h18v26.875H3Zm0 0"/></clipPath><clipPath id="f"><path d="M23 1h13v26.637H23Zm0 0"/></clipPath><clipPath id="d"><path d="M0 0h43v28H0z"/></clipPath><clipPath id="g"><path d="M0 0h75v75H0z"/></clipPath><g id="h" clip-path="url(#a)"><g clip-path="url(#b)"><path d="M5.125 15.863c.55.215 1.14.32 1.734.309 2.348 0 2.348-1.89 2.348-3.203V.895h3.617v13.851c0 1.93-1.23 4.629-4.965 4.629a10 10 0 0 1-2.773-.348v-3.164Zm0 0"/></g><g clip-path="url(#c)"><path d="M29.914 18.797a18.3 18.3 0 0 1-4.121.578c-5.848 0-9.926-2.934-9.926-9.066 0-6.211 3.77-9.684 9.926-9.684 1.395.012 2.773.258 4.082.734l-.27 3.047a7.6 7.6 0 0 0-3.925-.965c-3.735 0-6.082 2.856-6.082 6.559s2.273 6.48 6.16 6.48c1.422 0 3.113-.308 3.965-.77Zm0 0"/></g></g><g id="i" clip-path="url(#d)"><g clip-path="url(#e)"><path fill="#1A1A1A" d="M3.594 27.414v-4.36c2.386-2.343 11.09-9.71 11.09-14.472 0-2.387-2.09-3.504-4.184-3.504-2.168 0-4.227.969-5.918 2.086L4.18 2.848C6.492 1.656 9.176.984 11.78.984c4.883 0 8.047 2.496 8.047 7.594 0 5.512-5.473 10.574-9.66 14.742h10.465v4.094z"/></g><g clip-path="url(#f)"><path fill="#1A1A1A" d="M31.43 1.434h4.554v25.98H30.84V7.348l-4.332 3.574-2.57-3.387z"/></g></g><g id="j" clip-path="url(#g)"><path fill="#EB5C01" d="M0 68.5v-62A6.5 6.5 0 0 1 6.5 0h62A6.5 6.5 0 0 1 75 6.5v62a6.5 6.5 0 0 1-6.5 6.5h-62A6.5 6.5 0 0 1 0 68.5m0 0"/><path fill="#FFF" d="M7.5 67.5v-60h60v60Zm0 0"/><use xlink:href="#h" transform="translate(20 10)"/><use xlink:href="#i" transform="translate(16 33)"/></g></defs><use xlink:href="#j"/></svg>