<svg xmlns="http://www.w3.org/2000/svg" xmlns:xlink="http://www.w3.org/1999/xlink" width="75" height="75"><defs><clipPath id="b"><path d="M5 .625h8v18.75H5Zm0 0"/></clipPath><clipPath id="c"><path d="M15 .625h15v18.75H15Zm0 0"/></clipPath><clipPath id="a"><path d="M0 0h35v20H0z"/></clipPath><clipPath id="e"><path d="M2 .762h18v26.875H2Zm0 0"/></clipPath><clipPath id="f"><path d="M23 .762h18v26.875H23Zm0 0"/></clipPath><clipPath id="d"><path d="M0 0h43v28H0z"/></clipPath><clipPath id="g"><path d="M0 0h75v75H0z"/></clipPath><g id="h" clip-path="url(#a)"><g clip-path="url(#b)"><path d="M5.125 15.863c.55.215 1.14.32 1.734.309 2.348 0 2.348-1.89 2.348-3.203V.895h3.617v13.851c0 1.93-1.23 4.629-4.965 4.629a10 10 0 0 1-2.773-.348v-3.164Zm0 0"/></g><g clip-path="url(#c)"><path d="M29.914 18.797a18.3 18.3 0 0 1-4.121.578c-5.848 0-9.926-2.934-9.926-9.066 0-6.211 3.77-9.684 9.926-9.684 1.395.012 2.773.258 4.082.734l-.27 3.047a7.6 7.6 0 0 0-3.925-.965c-3.735 0-6.082 2.856-6.082 6.559s2.273 6.48 6.16 6.48c1.422 0 3.113-.308 3.965-.77Zm0 0"/></g></g><g id="i" clip-path="url(#d)"><g clip-path="url(#e)"><path d="M2.371 27.188v-4.356c2.418-2.344 11.242-9.715 11.242-14.477 0-2.382-2.125-3.5-4.246-3.5-2.195 0-4.281.965-5.992 2.086l-.41-4.32C5.309 1.43 8.027.761 10.668.761c4.95 0 8.152 2.493 8.152 7.594 0 5.504-5.547 10.57-9.789 14.739h10.61v4.093z"/></g><g clip-path="url(#f)"><path d="M25.148 22.496c1.38.598 2.79 1.047 4.543 1.047 4.504 0 6.028-4.168 6.176-8.043l-.07-.074c-1.23 1.824-2.832 2.605-5.031 2.605-4.91 0-7.594-3.125-7.594-7.926 0-5.62 2.758-9.343 8.637-9.343 7.222 0 8.82 5.992 8.82 12.097 0 7.036-2.27 14.778-10.68 14.778-1.898 0-3.683-.297-5.472-.93zM35.422 9.25c0-2.457-1.043-4.621-3.613-4.621-2.418 0-3.422 2.348-3.422 4.656 0 2.531 1.039 4.875 3.535 4.875 2.531 0 3.5-2.305 3.5-4.91m0 0"/></g></g><g id="j" clip-path="url(#g)"><path fill="#EB5C01" d="M0 68.5v-62A6.5 6.5 0 0 1 6.5 0h62A6.5 6.5 0 0 1 75 6.5v62a6.5 6.5 0 0 1-6.5 6.5h-62A6.5 6.5 0 0 1 0 68.5m0 0"/><path fill="#FFF" d="M7.5 67.5v-60h60v60Zm0 0"/><use xlink:href="#h" transform="translate(20 10)"/><use xlink:href="#i" transform="translate(16 33)"/></g></defs><use xlink:href="#j"/></svg>