<svg xmlns="http://www.w3.org/2000/svg" xmlns:xlink="http://www.w3.org/1999/xlink" width="75" height="75"><defs><clipPath id="b"><path d="M5 .625h8v18.75H5Zm0 0"/></clipPath><clipPath id="c"><path d="M15 .625h15v18.75H15Zm0 0"/></clipPath><clipPath id="a"><path d="M0 0h35v20H0z"/></clipPath><clipPath id="e"><path d="M2 .762h18v26.875H2Zm0 0"/></clipPath><clipPath id="f"><path d="M22.176.762h20.133v26.851H22.176Zm0 0"/></clipPath><clipPath id="d"><path d="M0 0h45v28H0z"/></clipPath><clipPath id="g"><path d="M0 0h75v75H0z"/></clipPath><g id="h" clip-path="url(#a)"><g clip-path="url(#b)"><path d="M5.125 15.863c.55.215 1.14.32 1.734.309 2.348 0 2.348-1.89 2.348-3.203V.895h3.617v13.851c0 1.93-1.23 4.629-4.965 4.629a10 10 0 0 1-2.773-.348v-3.164Zm0 0"/></g><g clip-path="url(#c)"><path d="M29.914 18.797a18.3 18.3 0 0 1-4.121.578c-5.848 0-9.926-2.934-9.926-9.066 0-6.211 3.77-9.684 9.926-9.684 1.395.012 2.773.258 4.082.734l-.27 3.047a7.6 7.6 0 0 0-3.925-.965c-3.735 0-6.082 2.856-6.082 6.559s2.273 6.48 6.16 6.48c1.422 0 3.113-.308 3.965-.77Zm0 0"/></g></g><g id="i" clip-path="url(#d)"><g clip-path="url(#e)"><path d="M18.523 4.86H8.48l-.117 5.542c.602-.113 1.387-.257 2.395-.257 3.656 0 8.398 1.71 8.398 8.449 0 4.87-3.433 8.82-10.156 8.82-2.016 0-4.371-.336-6.086-.746l.113-4.652c1.27.523 3.063 1.304 5.336 1.304 2.73 0 5.57-1.27 5.57-4.578 0-3.347-2.988-4.508-5.98-4.508-1.601 0-3.137.227-4.664.711L3.551.985h14.972z"/></g><g clip-path="url(#f)"><path d="M22.52 17.613 32.262.984h6.496v16.97h3.328v3.929h-3.328v5.48h-4.996v-5.48H22.52zm11.238.34V6.503h-.074l-6.461 11.45Zm0 0"/></g></g><g id="j" clip-path="url(#g)"><path fill="#EB5C01" d="M0 68.5v-62A6.5 6.5 0 0 1 6.5 0h62A6.5 6.5 0 0 1 75 6.5v62a6.5 6.5 0 0 1-6.5 6.5h-62A6.5 6.5 0 0 1 0 68.5m0 0"/><path fill="#FFF" d="M7.5 67.5v-60h60v60Zm0 0"/><use xlink:href="#h" transform="translate(20 10)"/><use xlink:href="#i" transform="translate(15 33)"/></g></defs><use xlink:href="#j"/></svg>