<?xml version="1.0" encoding="utf-8"?>
<!-- Generator: Adobe Illustrator 15.0.0, SVG Export Plug-In . SVG Version: 6.00 Build 0)  -->
<!DOCTYPE svg PUBLIC "-//W3C//DTD SVG 1.1//EN" "http://www.w3.org/Graphics/SVG/1.1/DTD/svg11.dtd">
<svg version="1.1" id="レイヤー_3" xmlns="http://www.w3.org/2000/svg" xmlns:xlink="http://www.w3.org/1999/xlink" x="0px"
	 y="0px" width="500px" height="500px" viewBox="0 0 500 500" enable-background="new 0 0 500 500" xml:space="preserve">
<path fill="#FFFFFF" d="M250,29C104,29,29,110.2,29,250c0,139.8,75,221,221,221c145.9,0,221-81.2,221-221C471,110.2,396,29,250,29z"/>
<path fill="#0085CE" d="M132.481,310.691c0-42.202,12.781-87.542,58.343-87.542c49.201,0,58.845,48.455,58.845,87.542
	c0,39.057-10.121,86.563-58.845,86.563C138.979,397.254,132.481,345.899,132.481,310.691 M215.911,310.691
	c0-21.715,0-62.479-25.087-62.479c-24.58,0-24.58,40.763-24.58,62.479c0,21.214-0.257,61.482,24.58,61.482
	C216.155,372.173,215.911,331.905,215.911,310.691z"/>
<polyline fill="#0085CE" points="316.683,226.043 346.591,226.043 346.591,394.354 312.84,394.354 312.84,264.384 284.388,287.532
	267.512,265.596 316.683,226.043 "/>
<path fill="#0085CE" d="M198.814,93.52c32.511,0,49.47,19.358,49.47,51.033c0,31.358-17.239,51.009-49.47,51.009
	c-32.224,0-49.458-19.651-49.458-51.009C149.356,112.877,166.305,93.52,198.814,93.52 M198.814,176.061
	c15.975,0,22.342-15.265,22.342-31.508c0-17.108-6.367-31.532-22.342-31.532s-22.342,14.423-22.342,31.532
	C176.473,160.796,182.84,176.061,198.814,176.061z"/>
<polyline fill="#0085CE" points="260.166,95.214 286.44,95.214 286.44,132.958 317.542,132.958 317.542,95.214 343.834,95.214
	343.834,193.868 317.542,193.868 317.542,151.606 286.44,151.606 286.44,193.868 260.166,193.868 260.166,95.214 "/>
<path fill="#0085CE" d="M249.997,50.99c132.053,0,199.019,66.96,199.019,199.007c0,132.053-66.966,199.013-199.019,199.013
	c-132.047,0-199.007-66.96-199.007-199.013C50.99,117.95,117.95,50.99,249.997,50.99 M249.997,10C91.503,10,10,98.174,10,249.997
	C10,401.813,91.503,490,249.997,490C408.497,490,490,401.813,490,249.997C490,98.174,408.497,10,249.997,10z"/>
</svg>
