<svg xmlns="http://www.w3.org/2000/svg" xml:space="preserve" width="500" height="500"><path fill="#FFF" d="M250 29C104 29 29 110.2 29 250s75 221 221 221c145.9 0 221-81.2 221-221S396 29 250 29z"/><path fill="#0085CE" d="M132.481 310.691c0-42.202 12.781-87.542 58.343-87.542 49.201 0 58.845 48.455 58.845 87.542 0 39.057-10.121 86.563-58.845 86.563-51.845 0-58.343-51.355-58.343-86.563m83.43 0c0-21.715 0-62.479-25.087-62.479-24.58 0-24.58 40.763-24.58 62.479 0 21.214-.257 61.482 24.58 61.482 25.331 0 25.087-40.268 25.087-61.482zM316.683 226.043h29.908v168.311H312.84v-129.97l-28.452 23.148-16.876-21.936 49.171-39.553M198.814 93.52c32.511 0 49.47 19.358 49.47 51.033 0 31.358-17.239 51.009-49.47 51.009-32.224 0-49.458-19.651-49.458-51.009 0-31.676 16.949-51.033 49.458-51.033m0 82.541c15.975 0 22.342-15.265 22.342-31.508 0-17.108-6.367-31.532-22.342-31.532s-22.342 14.423-22.342 31.532c.001 16.243 6.368 31.508 22.342 31.508zM260.166 95.214h26.274v37.744h31.102V95.214h26.292v98.654h-26.292v-42.262H286.44v42.262h-26.274V95.214"/><path fill="#0085CE" d="M249.997 50.99c132.053 0 199.019 66.96 199.019 199.007 0 132.053-66.966 199.013-199.019 199.013-132.047 0-199.007-66.96-199.007-199.013 0-132.047 66.96-199.007 199.007-199.007m0-40.99C91.503 10 10 98.174 10 249.997 10 401.813 91.503 490 249.997 490 408.497 490 490 401.813 490 249.997 490 98.174 408.497 10 249.997 10z"/></svg>