<svg xmlns="http://www.w3.org/2000/svg" xml:space="preserve" width="500" height="500"><path fill="#FFF" d="M250 29C104 29 29 110.2 29 250s75 221 221 221c145.9 0 221-81.2 221-221S396 29 250 29z"/><path fill="#0085CE" d="M125.574 310.69c0-42.201 12.77-87.54 58.342-87.54 49.188 0 58.831 48.454 58.831 87.54 0 39.056-10.121 86.561-58.831 86.561-51.844 0-58.342-51.355-58.342-86.561m83.434 0c0-21.715 0-62.478-25.092-62.478-24.591 0-24.591 40.763-24.591 62.478 0 21.213-.245 61.48 24.591 61.48 25.318 0 25.092-40.267 25.092-61.48zM256.239 394.351v-28.207c15.682-15.187 72.824-62.937 72.824-93.805 0-15.432-13.737-22.67-27.485-22.67-14.226 0-27.729 6.271-38.823 13.504L260.1 235.21c15.192-7.722 32.802-12.06 49.91-12.06 32.08 0 52.822 16.153 52.822 49.188 0 35.684-35.941 68.474-63.414 95.482h68.719v26.53H256.239M202.844 93.523c32.509 0 49.474 19.358 49.474 51.032 0 31.358-17.245 51.008-49.474 51.008-32.223 0-49.469-19.65-49.469-51.008 0-31.674 16.965-51.032 49.469-51.032m0 82.54c15.962 0 22.341-15.264 22.341-31.507 0-17.108-6.379-31.531-22.341-31.531-15.98 0-22.335 14.423-22.335 31.531-.001 16.242 6.354 31.507 22.335 31.507zM264.181 95.218h26.292v37.743h31.101V95.218h26.274v98.651h-26.274v-42.26h-31.101v42.26h-26.292V95.218"/><path fill="#0085CE" d="M250.009 50.983c132.043 0 199.002 66.958 199.002 199.014 0 132.062-66.958 199.02-199.002 199.02-132.062 0-199.032-66.958-199.032-199.02 0-132.056 66.97-199.014 199.032-199.014m0-40.989C91.489 9.994 10 98.178 10 249.997c0 151.825 81.488 240.009 240.008 240.009 158.49 0 239.991-88.184 239.991-240.009C490 98.178 408.499 9.994 250.009 9.994z"/></svg>