<?xml version="1.0" encoding="utf-8"?>
<!-- Generator: Adobe Illustrator 15.0.0, SVG Export Plug-In . SVG Version: 6.00 Build 0)  -->
<!DOCTYPE svg PUBLIC "-//W3C//DTD SVG 1.1//EN" "http://www.w3.org/Graphics/SVG/1.1/DTD/svg11.dtd">
<svg version="1.1" id="レイヤー_4" xmlns="http://www.w3.org/2000/svg" xmlns:xlink="http://www.w3.org/1999/xlink" x="0px"
	 y="0px" width="500px" height="500px" viewBox="0 0 500 500" enable-background="new 0 0 500 500" xml:space="preserve">
<path fill="#FFFFFF" d="M250,29C104,29,29,110.2,29,250c0,139.8,75,221,221,221c145.9,0,221-81.2,221-221C471,110.2,396,29,250,29z"/>
<path fill="#0085CE" d="M125.574,310.69c0-42.201,12.77-87.54,58.342-87.54c49.188,0,58.831,48.454,58.831,87.54
	c0,39.056-10.121,86.561-58.831,86.561C132.072,397.251,125.574,345.896,125.574,310.69 M209.008,310.69
	c0-21.715,0-62.478-25.092-62.478c-24.591,0-24.591,40.763-24.591,62.478c0,21.213-0.245,61.48,24.591,61.48
	C209.234,372.17,209.008,331.903,209.008,310.69z"/>
<path fill="#0085CE" d="M256.239,394.351v-28.207c15.682-15.187,72.824-62.937,72.824-93.805c0-15.432-13.737-22.67-27.485-22.67
	c-14.226,0-27.729,6.271-38.823,13.504L260.1,235.21c15.192-7.722,32.802-12.06,49.91-12.06c32.08,0,52.822,16.153,52.822,49.188
	c0,35.684-35.941,68.474-63.414,95.482h68.719v26.53H256.239"/>
<path fill="#0085CE" d="M202.844,93.523c32.509,0,49.474,19.358,49.474,51.032c0,31.358-17.245,51.008-49.474,51.008
	c-32.223,0-49.469-19.65-49.469-51.008C153.375,112.881,170.34,93.523,202.844,93.523 M202.844,176.063
	c15.962,0,22.341-15.264,22.341-31.507c0-17.108-6.379-31.531-22.341-31.531c-15.98,0-22.335,14.423-22.335,31.531
	C180.508,160.798,186.863,176.063,202.844,176.063z"/>
<polyline fill="#0085CE" points="264.181,95.218 290.473,95.218 290.473,132.961 321.574,132.961 321.574,95.218 347.848,95.218
	347.848,193.869 321.574,193.869 321.574,151.609 290.473,151.609 290.473,193.869 264.181,193.869 264.181,95.218 "/>
<path fill="#0085CE" d="M250.009,50.983c132.043,0,199.002,66.958,199.002,199.014c0,132.062-66.958,199.02-199.002,199.02
	c-132.062,0-199.032-66.958-199.032-199.02C50.977,117.941,117.947,50.983,250.009,50.983 M250.009,9.994
	C91.489,9.994,10,98.178,10,249.997c0,151.825,81.488,240.009,240.008,240.009c158.49,0,239.991-88.184,239.991-240.009
	C490,98.178,408.499,9.994,250.009,9.994z"/>
</svg>
