<?xml version="1.0" encoding="utf-8"?>
<!-- Generator: Adobe Illustrator 15.0.0, SVG Export Plug-In . SVG Version: 6.00 Build 0)  -->
<!DOCTYPE svg PUBLIC "-//W3C//DTD SVG 1.1//EN" "http://www.w3.org/Graphics/SVG/1.1/DTD/svg11.dtd">
<svg version="1.1" id="レイヤー_5" xmlns="http://www.w3.org/2000/svg" xmlns:xlink="http://www.w3.org/1999/xlink" x="0px"
	 y="0px" width="500px" height="500px" viewBox="0 0 500 500" enable-background="new 0 0 500 500" xml:space="preserve">
<path fill="#FFFFFF" d="M250,29C104,29,29,110.2,29,250c0,139.8,75,221,221,221c145.9,0,221-81.2,221-221C471,110.2,396,29,250,29z"/>
<path fill="#0085CE" d="M123.228,310.689c0-42.2,12.77-87.539,58.364-87.539c49.176,0,58.819,48.454,58.819,87.539
	c0,39.055-10.133,86.56-58.819,86.56C129.755,397.249,123.228,345.896,123.228,310.689 M206.66,310.689
	c0-21.715,0-62.477-25.068-62.477c-24.608,0-24.608,40.762-24.608,62.477c0,21.213-0.232,61.479,24.608,61.479
	C206.905,372.169,206.66,331.902,206.66,310.689z"/>
<path fill="#0085CE" d="M256.803,363.004c11.57,4.582,24.119,7.721,37.384,7.721c13.976,0,35.439-6.754,35.439-23.862
	c0-19.787-15.682-26.297-37.14-26.297h-16.404v-26.524h15.449c22.646,0,37.372-7.477,37.372-22.192
	c0-16.875-13.748-22.18-28.952-22.18c-13.247,0-26.029,3.127-37.844,8.921l-1.922-27.008c13.492-5.305,29.646-8.432,47.016-8.432
	c20.724,0,55.453,7.221,55.453,43.161c0,22.914-14.22,33.756-31.334,40.272v0.472c21.464,2.899,32.067,19.542,32.067,40.039
	c0,40.022-36.417,50.154-64.392,50.154c-14.709,0-31.59-1.934-44.127-5.549L256.803,363.004"/>
<path fill="#0085CE" d="M192.398,93.525c32.516,0,49.468,19.357,49.468,51.031c0,31.357-17.245,51.008-49.468,51.008
	c-32.217,0-49.474-19.65-49.474-51.008C142.925,112.883,159.89,93.525,192.398,93.525 M192.398,176.063
	c15.956,0,22.335-15.264,22.335-31.507c0-17.107-6.379-31.53-22.335-31.53c-15.985,0-22.329,14.423-22.329,31.53
	C170.069,160.8,176.413,176.063,192.398,176.063z"/>
<polyline fill="#0085CE" points="253.747,95.221 280.033,95.221 280.033,132.963 311.122,132.963 311.122,95.221 337.407,95.221
	337.407,193.87 311.122,193.87 311.122,151.61 280.033,151.61 280.033,193.87 253.747,193.87 253.747,95.221 "/>
<path fill="#0085CE" d="M250.006,50.985c132.048,0,199.005,66.958,199.005,199.012c0,132.06-66.957,199.018-199.005,199.018
	c-132.06,0-199.018-66.958-199.018-199.018C50.988,117.943,117.946,50.985,250.006,50.985 M250.006,9.997
	C91.487,9.997,10,98.18,10,249.997c0,151.823,81.487,240.006,240.006,240.006C408.482,490.003,490,401.82,490,249.997
	C490,98.18,408.482,9.997,250.006,9.997z"/>
</svg>
