<svg xmlns="http://www.w3.org/2000/svg" xml:space="preserve" width="500" height="500"><path fill="#FFF" d="M250 29C104 29 29 110.2 29 250s75 221 221 221c145.9 0 221-81.2 221-221S396 29 250 29z"/><path fill="#0085CE" d="M123.228 310.689c0-42.2 12.77-87.539 58.364-87.539 49.176 0 58.819 48.454 58.819 87.539 0 39.055-10.133 86.56-58.819 86.56-51.837 0-58.364-51.353-58.364-86.56m83.432 0c0-21.715 0-62.477-25.068-62.477-24.608 0-24.608 40.762-24.608 62.477 0 21.213-.232 61.479 24.608 61.479 25.313.001 25.068-40.266 25.068-61.479zM256.803 363.004c11.57 4.582 24.119 7.721 37.384 7.721 13.976 0 35.439-6.754 35.439-23.862 0-19.787-15.682-26.297-37.14-26.297h-16.404v-26.524h15.449c22.646 0 37.372-7.477 37.372-22.192 0-16.875-13.748-22.18-28.952-22.18-13.247 0-26.029 3.127-37.844 8.921l-1.922-27.008c13.492-5.305 29.646-8.432 47.016-8.432 20.724 0 55.453 7.221 55.453 43.161 0 22.914-14.22 33.756-31.334 40.272v.472c21.464 2.899 32.067 19.542 32.067 40.039 0 40.022-36.417 50.154-64.392 50.154-14.709 0-31.59-1.934-44.127-5.549l1.935-28.696M192.398 93.525c32.516 0 49.468 19.357 49.468 51.031 0 31.357-17.245 51.008-49.468 51.008-32.217 0-49.474-19.65-49.474-51.008.001-31.673 16.966-51.031 49.474-51.031m0 82.538c15.956 0 22.335-15.264 22.335-31.507 0-17.107-6.379-31.53-22.335-31.53-15.985 0-22.329 14.423-22.329 31.53 0 16.244 6.344 31.507 22.329 31.507zM253.747 95.221h26.286v37.742h31.089V95.221h26.285v98.649h-26.285v-42.26h-31.089v42.26h-26.286V95.221"/><path fill="#0085CE" d="M250.006 50.985c132.048 0 199.005 66.958 199.005 199.012 0 132.06-66.957 199.018-199.005 199.018-132.06 0-199.018-66.958-199.018-199.018 0-132.054 66.958-199.012 199.018-199.012m0-40.988C91.487 9.997 10 98.18 10 249.997c0 151.823 81.487 240.006 240.006 240.006C408.482 490.003 490 401.82 490 249.997c0-151.817-81.518-240-239.994-240z"/></svg>