<?xml version="1.0" encoding="utf-8"?>
<!-- Generator: Adobe Illustrator 15.0.0, SVG Export Plug-In . SVG Version: 6.00 Build 0)  -->
<!DOCTYPE svg PUBLIC "-//W3C//DTD SVG 1.1//EN" "http://www.w3.org/Graphics/SVG/1.1/DTD/svg11.dtd">
<svg version="1.1" id="レイヤー_6" xmlns="http://www.w3.org/2000/svg" xmlns:xlink="http://www.w3.org/1999/xlink" x="0px"
	 y="0px" width="500px" height="500px" viewBox="0 0 500 500" enable-background="new 0 0 500 500" xml:space="preserve">
<path fill="#FFFFFF" d="M250,29C104,29,29,110.2,29,250c0,139.8,75,221,221,221c145.9,0,221-81.2,221-221C471,110.2,396,29,250,29z"/>
<path fill="#0085CE" d="M121.167,310.688c0-42.199,12.781-87.537,58.352-87.537c49.205,0,58.848,48.453,58.848,87.537
	c0,39.055-10.132,86.559-58.848,86.559C127.684,397.248,121.167,345.895,121.167,310.688 M204.6,310.688
	c0-21.714,0-62.476-25.08-62.476c-24.596,0-24.596,40.762-24.596,62.476c0,21.213-0.245,61.479,24.596,61.479
	C204.856,372.168,204.6,331.902,204.6,310.688z"/>
<path fill="#0085CE" d="M250.647,332.146l62.923-106.101h41.966v108.267h21.446v25.074h-21.446v34.961h-32.324v-34.961h-72.566
	V332.146 M323.213,334.313v-73.055h-0.477l-41.71,73.055H323.213z"/>
<path fill="#0085CE" d="M200.005,93.528c32.509,0,49.479,19.357,49.479,51.031c0,31.357-17.257,51.007-49.479,51.007
	c-32.229,0-49.467-19.65-49.467-51.007C150.538,112.885,167.496,93.528,200.005,93.528 M200.005,176.065
	c15.974,0,22.329-15.264,22.329-31.506c0-17.108-6.355-31.53-22.329-31.53c-15.974,0-22.329,14.422-22.329,31.53
	C177.676,160.801,184.031,176.065,200.005,176.065z"/>
<polyline fill="#0085CE" points="261.353,95.223 287.638,95.223 287.638,132.964 318.727,132.964 318.727,95.223 345.012,95.223
	345.012,193.871 318.727,193.871 318.727,151.611 287.638,151.611 287.638,193.871 261.353,193.871 261.353,95.223 "/>
<path fill="#0085CE" d="M249.997,50.988c132.058,0,199.015,66.957,199.015,199.009c0,132.058-66.957,199.015-199.015,199.015
	c-132.052,0-199.009-66.957-199.009-199.015C50.988,117.945,117.945,50.988,249.997,50.988 M249.997,10
	C91.499,10,10,98.182,10,249.997C10,401.818,91.499,490,249.997,490C408.501,490,490,401.818,490,249.997
	C490,98.182,408.501,10,249.997,10z"/>
</svg>
