<svg xmlns="http://www.w3.org/2000/svg" xml:space="preserve" width="500" height="500"><path fill="#FFF" d="M250 29C104 29 29 110.2 29 250s75 221 221 221c145.9 0 221-81.2 221-221S396 29 250 29z"/><path fill="#0085CE" d="M121.167 310.688c0-42.199 12.781-87.537 58.352-87.537 49.205 0 58.848 48.453 58.848 87.537 0 39.055-10.132 86.559-58.848 86.559-51.835.001-58.352-51.352-58.352-86.559m83.433 0c0-21.714 0-62.476-25.08-62.476-24.596 0-24.596 40.762-24.596 62.476 0 21.213-.245 61.479 24.596 61.479 25.336.001 25.08-40.265 25.08-61.479zM250.647 332.146l62.923-106.101h41.966v108.267h21.446v25.074h-21.446v34.961h-32.324v-34.961h-72.566v-27.24m72.567 2.167v-73.055h-.477l-41.71 73.055h42.187zM200.005 93.528c32.509 0 49.479 19.357 49.479 51.031 0 31.357-17.257 51.007-49.479 51.007-32.229 0-49.467-19.65-49.467-51.007 0-31.674 16.958-51.031 49.467-51.031m0 82.537c15.974 0 22.329-15.264 22.329-31.506 0-17.108-6.355-31.53-22.329-31.53s-22.329 14.422-22.329 31.53c0 16.242 6.355 31.506 22.329 31.506zM261.353 95.223h26.285v37.741h31.089V95.223h26.285v98.648h-26.285v-42.26h-31.089v42.26h-26.285V95.223"/><path fill="#0085CE" d="M249.997 50.988c132.058 0 199.015 66.957 199.015 199.009 0 132.058-66.957 199.015-199.015 199.015-132.052 0-199.009-66.957-199.009-199.015 0-132.052 66.957-199.009 199.009-199.009m0-40.988C91.499 10 10 98.182 10 249.997 10 401.818 91.499 490 249.997 490 408.501 490 490 401.818 490 249.997 490 98.182 408.501 10 249.997 10z"/></svg>