<svg xmlns="http://www.w3.org/2000/svg" xml:space="preserve" width="500" height="500"><path fill="#FFF" d="M250 29C104 29 29 110.2 29 250s75 221 221 221c145.9 0 221-81.2 221-221S396 29 250 29z"/><path fill="#0085CE" d="M122.069 310.692c0-42.202 12.782-87.542 58.368-87.542 49.184 0 58.833 48.456 58.833 87.542 0 39.057-10.126 86.564-58.833 86.564-51.839 0-58.368-51.356-58.368-86.564m83.45 0c0-21.715 0-62.479-25.081-62.479-24.598 0-24.598 40.764-24.598 62.479 0 21.214-.233 61.483 24.598 61.483 25.313 0 25.081-40.269 25.081-61.483zM361.031 251.125h-64.854l-.716 35.93c3.831-.722 8.903-1.701 15.42-1.701 23.62 0 54.245 11.112 54.245 54.752 0 31.592-22.163 57.15-65.583 57.15-13.021 0-28.214-2.178-39.302-4.828l.728-30.142c8.188 3.377 19.776 8.45 34.492 8.45 17.58 0 35.913-8.205 35.913-29.664 0-21.704-19.287-29.181-38.586-29.181-10.36 0-20.242 1.438-30.136 4.583l1.683-90.431h96.697v25.082M196.06 93.518c32.505 0 49.471 19.358 49.471 51.034 0 31.359-17.246 51.01-49.471 51.01-32.23 0-49.488-19.651-49.488-51.01 0-31.676 16.977-51.034 49.488-51.034m0 82.542c15.969 0 22.324-15.265 22.324-31.508 0-17.109-6.355-31.532-22.324-31.532-15.975 0-22.33 14.423-22.33 31.532 0 16.243 6.355 31.508 22.33 31.508zM257.412 95.212h26.28v37.745h31.103V95.212h26.268v98.655h-26.268v-42.262h-31.103v42.262h-26.28V95.212"/><path fill="#0085CE" d="M250 50.987c132.061 0 198.992 66.961 198.992 199.01 0 132.054-66.932 199.015-198.992 199.015-132.048 0-199.009-66.961-199.009-199.015 0-132.048 66.961-199.01 199.009-199.01m0-40.99c-158.52 0-240 88.175-240 240 0 151.818 81.48 240.006 240 240.006 158.508 0 240-88.188 240-240.006 0-151.825-81.492-240-240-240z"/></svg>