<?xml version="1.0" encoding="utf-8"?>
<!-- Generator: Adobe Illustrator 15.0.0, SVG Export Plug-In . SVG Version: 6.00 Build 0)  -->
<!DOCTYPE svg PUBLIC "-//W3C//DTD SVG 1.1//EN" "http://www.w3.org/Graphics/SVG/1.1/DTD/svg11.dtd">
<svg version="1.1" id="レイヤー_7" xmlns="http://www.w3.org/2000/svg" xmlns:xlink="http://www.w3.org/1999/xlink" x="0px"
	 y="0px" width="500px" height="500px" viewBox="0 0 500 500" enable-background="new 0 0 500 500" xml:space="preserve">
<path fill="#FFFFFF" d="M250,29C104,29,29,110.2,29,250c0,139.8,75,221,221,221c145.9,0,221-81.2,221-221C471,110.2,396,29,250,29z"/>
<path fill="#0085CE" d="M122.069,310.692c0-42.202,12.782-87.542,58.368-87.542c49.184,0,58.833,48.456,58.833,87.542
	c0,39.057-10.126,86.564-58.833,86.564C128.598,397.256,122.069,345.9,122.069,310.692 M205.519,310.692
	c0-21.715,0-62.479-25.081-62.479c-24.598,0-24.598,40.764-24.598,62.479c0,21.214-0.233,61.483,24.598,61.483
	C205.751,372.175,205.519,331.906,205.519,310.692z"/>
<path fill="#0085CE" d="M361.031,251.125h-64.854l-0.716,35.93c3.831-0.722,8.903-1.701,15.42-1.701
	c23.62,0,54.245,11.112,54.245,54.752c0,31.592-22.163,57.15-65.583,57.15c-13.021,0-28.214-2.178-39.302-4.828l0.728-30.142
	c8.188,3.377,19.776,8.45,34.492,8.45c17.58,0,35.913-8.205,35.913-29.664c0-21.704-19.287-29.181-38.586-29.181
	c-10.36,0-20.242,1.438-30.136,4.583l1.683-90.431h96.697V251.125"/>
<path fill="#0085CE" d="M196.06,93.518c32.505,0,49.471,19.358,49.471,51.034c0,31.359-17.246,51.01-49.471,51.01
	c-32.23,0-49.488-19.651-49.488-51.01C146.572,112.876,163.549,93.518,196.06,93.518 M196.06,176.06
	c15.969,0,22.324-15.265,22.324-31.508c0-17.109-6.355-31.532-22.324-31.532c-15.975,0-22.33,14.423-22.33,31.532
	C173.73,160.795,180.085,176.06,196.06,176.06z"/>
<polyline fill="#0085CE" points="257.412,95.212 283.692,95.212 283.692,132.957 314.795,132.957 314.795,95.212 341.063,95.212
	341.063,193.867 314.795,193.867 314.795,151.605 283.692,151.605 283.692,193.867 257.412,193.867 257.412,95.212 "/>
<path fill="#0085CE" d="M250,50.987c132.061,0,198.992,66.961,198.992,199.01c0,132.054-66.932,199.015-198.992,199.015
	c-132.048,0-199.009-66.961-199.009-199.015C50.991,117.949,117.952,50.987,250,50.987 M250,9.997c-158.52,0-240,88.175-240,240
	c0,151.818,81.48,240.006,240,240.006c158.508,0,240-88.188,240-240.006C490,98.172,408.508,9.997,250,9.997z"/>
</svg>
