<svg xmlns="http://www.w3.org/2000/svg" xml:space="preserve" width="500" height="500"><path fill="#FFF" d="M250 29C104 29 29 110.2 29 250s75 221 221 221c145.9 0 221-81.2 221-221S396 29 250 29z"/><path fill="#0085CE" d="M119.684 310.688c0-42.199 12.77-87.537 58.359-87.537 49.181 0 58.835 48.453 58.835 87.537 0 39.055-10.144 86.559-58.835 86.559-51.842.001-58.359-51.352-58.359-86.559m83.433 0c0-21.714 0-62.476-25.074-62.476-24.609 0-24.609 40.762-24.609 62.476 0 21.213-.227 61.479 24.609 61.479 25.3.001 25.074-40.265 25.074-61.479zM356.22 256.43c-8.927-3.866-18.092-6.761-29.418-6.761-29.191 0-39.072 27.007-40.039 52.087l.478.478c7.984-11.564 18.331-16.881 32.557-16.881 31.852 0 49.204 20.264 49.204 51.376 0 36.406-17.842 60.519-55.947 60.519-46.782 0-57.141-38.828-57.141-78.36 0-45.583 14.69-95.736 69.194-95.736 12.316 0 23.868 1.927 35.444 6.027l-4.332 27.251m-66.545 85.849c0 15.896 6.73 29.889 23.379 29.889 15.682 0 22.186-15.192 22.186-30.146 0-16.404-6.755-31.59-22.914-31.59-16.398 0-22.651 14.954-22.651 31.847zM195.144 93.528c32.497 0 49.467 19.37 49.467 51.031 0 31.369-17.221 51.024-49.467 51.024-32.222 0-49.467-19.655-49.467-51.024 0-31.662 16.97-51.031 49.467-51.031m0 82.537c15.98 0 22.329-15.252 22.329-31.506 0-17.096-6.349-31.518-22.329-31.518-15.956 0-22.329 14.422-22.329 31.518 0 16.254 6.373 31.506 22.329 31.506zM256.499 95.234h26.278v37.73h31.077v-37.73h26.304v98.648h-26.304v-42.258h-31.077v42.258h-26.278V95.234"/><path fill="#0085CE" d="M250.006 50.988c132.041 0 199.014 66.957 199.014 199.009 0 132.058-66.974 199.015-199.014 199.015-132.052 0-199.027-66.957-199.027-199.015 0-132.052 66.975-199.009 199.027-199.009m0-40.988C91.507 10 10.009 98.183 10.009 249.998 10.009 401.818 91.507 490 250.006 490c158.487 0 239.985-88.182 239.985-240.002C489.991 98.183 408.493 10 250.006 10z"/></svg>