<?xml version="1.0" encoding="utf-8"?>
<!-- Generator: Adobe Illustrator 15.0.0, SVG Export Plug-In . SVG Version: 6.00 Build 0)  -->
<!DOCTYPE svg PUBLIC "-//W3C//DTD SVG 1.1//EN" "http://www.w3.org/Graphics/SVG/1.1/DTD/svg11.dtd">
<svg version="1.1" id="レイヤー_8" xmlns="http://www.w3.org/2000/svg" xmlns:xlink="http://www.w3.org/1999/xlink" x="0px"
	 y="0px" width="500px" height="500px" viewBox="0 0 500 500" enable-background="new 0 0 500 500" xml:space="preserve">
<path fill="#FFFFFF" d="M250,29C104,29,29,110.2,29,250c0,139.8,75,221,221,221c145.9,0,221-81.2,221-221C471,110.2,396,29,250,29z"/>
<path fill="#0085CE" d="M119.684,310.688c0-42.199,12.77-87.537,58.359-87.537c49.181,0,58.835,48.453,58.835,87.537
	c0,39.055-10.144,86.559-58.835,86.559C126.201,397.248,119.684,345.895,119.684,310.688 M203.117,310.688
	c0-21.714,0-62.476-25.074-62.476c-24.609,0-24.609,40.762-24.609,62.476c0,21.213-0.227,61.479,24.609,61.479
	C203.343,372.168,203.117,331.902,203.117,310.688z"/>
<path fill="#0085CE" d="M356.22,256.43c-8.927-3.866-18.092-6.761-29.418-6.761c-29.191,0-39.072,27.007-40.039,52.087l0.478,0.478
	c7.984-11.564,18.331-16.881,32.557-16.881c31.852,0,49.204,20.264,49.204,51.376c0,36.406-17.842,60.519-55.947,60.519
	c-46.782,0-57.141-38.828-57.141-78.36c0-45.583,14.69-95.736,69.194-95.736c12.316,0,23.868,1.927,35.444,6.027L356.22,256.43
	 M289.675,342.279c0,15.896,6.73,29.889,23.379,29.889c15.682,0,22.186-15.192,22.186-30.146c0-16.404-6.755-31.59-22.914-31.59
	C295.928,310.432,289.675,325.386,289.675,342.279z"/>
<path fill="#0085CE" d="M195.144,93.528c32.497,0,49.467,19.37,49.467,51.031c0,31.369-17.221,51.024-49.467,51.024
	c-32.222,0-49.467-19.655-49.467-51.024C145.677,112.897,162.647,93.528,195.144,93.528 M195.144,176.065
	c15.98,0,22.329-15.252,22.329-31.506c0-17.096-6.349-31.518-22.329-31.518c-15.956,0-22.329,14.422-22.329,31.518
	C172.815,160.813,179.188,176.065,195.144,176.065z"/>
<polyline fill="#0085CE" points="256.499,95.234 282.777,95.234 282.777,132.964 313.854,132.964 313.854,95.234 340.158,95.234
	340.158,193.882 313.854,193.882 313.854,151.624 282.777,151.624 282.777,193.882 256.499,193.882 256.499,95.234 "/>
<path fill="#0085CE" d="M250.006,50.988c132.041,0,199.014,66.957,199.014,199.009c0,132.058-66.974,199.015-199.014,199.015
	c-132.052,0-199.027-66.957-199.027-199.015C50.979,117.945,117.954,50.988,250.006,50.988 M250.006,10
	C91.507,10,10.009,98.183,10.009,249.998C10.009,401.818,91.507,490,250.006,490c158.487,0,239.985-88.182,239.985-240.002
	C489.991,98.183,408.493,10,250.006,10z"/>
</svg>
