<?xml version="1.0" encoding="utf-8"?>
<!-- Generator: Adobe Illustrator 15.0.0, SVG Export Plug-In . SVG Version: 6.00 Build 0)  -->
<!DOCTYPE svg PUBLIC "-//W3C//DTD SVG 1.1//EN" "http://www.w3.org/Graphics/SVG/1.1/DTD/svg11.dtd">
<svg version="1.1" id="レイヤー_9" xmlns="http://www.w3.org/2000/svg" xmlns:xlink="http://www.w3.org/1999/xlink" x="0px"
	 y="0px" width="500px" height="500px" viewBox="0 0 500 500" enable-background="new 0 0 500 500" xml:space="preserve">
<path fill="#FFFFFF" d="M250,29C104,29,29,110.2,29,250c0,139.8,75,221,221,221c145.9,0,221-81.2,221-221C471,110.2,396,29,250,29z"/>
<path fill="#0085CE" d="M124.672,310.688c0-42.188,12.781-87.526,58.346-87.526c49.193,0,58.848,48.453,58.848,87.526
	c0,39.066-10.132,86.571-58.848,86.571C131.177,397.26,124.672,345.895,124.672,310.688 M208.093,310.688
	c0-21.703,0-62.445-25.075-62.445c-24.584,0-24.584,40.743-24.584,62.445c0,21.225-0.251,61.491,24.584,61.491
	C208.355,372.179,208.093,331.913,208.093,310.688z"/>
<polyline fill="#0085CE" points="252.703,226.057 361.197,226.057 361.197,254.019 301.406,394.359 264.769,394.359
	327.196,252.575 252.703,252.575 252.703,226.057 "/>
<path fill="#0085CE" d="M196.719,93.527c32.498,0,49.456,19.37,49.456,51.031c0,31.37-17.246,51.025-49.456,51.025
	c-32.234,0-49.479-19.656-49.479-51.025C147.24,112.897,164.199,93.527,196.719,93.527 M196.719,176.064
	c15.956,0,22.317-15.252,22.317-31.506c0-17.096-6.361-31.518-22.317-31.518c-15.98,0-22.353,14.422-22.353,31.518
	C174.366,160.813,180.739,176.064,196.719,176.064z"/>
<polyline fill="#0085CE" points="258.049,95.234 284.329,95.234 284.329,132.964 315.417,132.964 315.417,95.234 341.72,95.234
	341.72,193.882 315.417,193.882 315.417,151.624 284.329,151.624 284.329,193.882 258.049,193.882 258.049,95.234 "/>
<path fill="#0085CE" d="M250.006,50.988c132.051,0,199.002,66.957,199.002,199.009c0,132.058-66.951,199.015-199.002,199.015
	c-132.064,0-199.015-66.957-199.015-199.015C50.991,117.945,117.942,50.988,250.006,50.988 M250.006,10
	C91.495,10,9.997,98.182,9.997,249.997C9.997,401.818,91.495,490,250.006,490c158.498,0,239.997-88.182,239.997-240.003
	C490.003,98.182,408.504,10,250.006,10z"/>
</svg>
