<svg xmlns="http://www.w3.org/2000/svg" xml:space="preserve" width="500" height="500"><path fill="#FFF" d="M250 29C104 29 29 110.2 29 250s75 221 221 221c145.9 0 221-81.2 221-221S396 29 250 29z"/><path fill="#0085CE" d="M124.672 310.688c0-42.188 12.781-87.526 58.346-87.526 49.193 0 58.848 48.453 58.848 87.526 0 39.066-10.132 86.571-58.848 86.571-51.841.001-58.346-51.364-58.346-86.571m83.421 0c0-21.703 0-62.445-25.075-62.445-24.584 0-24.584 40.743-24.584 62.445 0 21.225-.251 61.491 24.584 61.491 25.337 0 25.075-40.266 25.075-61.491zM252.703 226.057h108.494v27.962l-59.791 140.34h-36.637l62.427-141.784h-74.493v-26.518M196.719 93.527c32.498 0 49.456 19.37 49.456 51.031 0 31.37-17.246 51.025-49.456 51.025-32.234 0-49.479-19.656-49.479-51.025 0-31.661 16.959-51.031 49.479-51.031m0 82.537c15.956 0 22.317-15.252 22.317-31.506 0-17.096-6.361-31.518-22.317-31.518-15.98 0-22.353 14.422-22.353 31.518 0 16.255 6.373 31.506 22.353 31.506zM258.049 95.234h26.28v37.73h31.088v-37.73h26.303v98.648h-26.303v-42.258h-31.088v42.258h-26.28V95.234"/><path fill="#0085CE" d="M250.006 50.988c132.051 0 199.002 66.957 199.002 199.009 0 132.058-66.951 199.015-199.002 199.015-132.064 0-199.015-66.957-199.015-199.015 0-132.052 66.951-199.009 199.015-199.009m0-40.988C91.495 10 9.997 98.182 9.997 249.997 9.997 401.818 91.495 490 250.006 490c158.498 0 239.997-88.182 239.997-240.003C490.003 98.182 408.504 10 250.006 10z"/></svg>