<?xml version="1.0" encoding="utf-8"?>
<!-- Generator: Adobe Illustrator 15.0.0, SVG Export Plug-In . SVG Version: 6.00 Build 0)  -->
<!DOCTYPE svg PUBLIC "-//W3C//DTD SVG 1.1//EN" "http://www.w3.org/Graphics/SVG/1.1/DTD/svg11.dtd">
<svg version="1.1" id="レイヤー_10" xmlns="http://www.w3.org/2000/svg" xmlns:xlink="http://www.w3.org/1999/xlink" x="0px"
	 y="0px" width="500px" height="500px" viewBox="0 0 500 500" enable-background="new 0 0 500 500" xml:space="preserve">
<path fill="#FFFFFF" d="M250,29C104,29,29,110.2,29,250c0,139.8,75,221,221,221c145.9,0,221-81.2,221-221C471,110.2,396,29,250,29z"/>
<path fill="#0085CE" d="M121.431,310.689c0-42.202,12.771-87.542,58.35-87.542c49.184,0,58.839,48.456,58.839,87.542
	c0,39.063-10.145,86.564-58.839,86.564C127.947,397.253,121.431,345.897,121.431,310.689 M204.856,310.689
	c0-21.709,0-62.479-25.076-62.479c-24.61,0-24.61,40.77-24.61,62.479c0,21.22-0.227,61.489,24.61,61.489
	C205.095,372.178,204.856,331.909,204.856,310.689z"/>
<path fill="#0085CE" d="M345.187,303.684v0.477c22.199,10.383,32.32,24.86,32.32,44.147c0,33.991-24.61,48.945-57.885,48.945
	c-32.785,0-59.316-14.214-59.316-48.467c0-18.81,10.61-31.843,30.852-41.725v-0.478c-16.876-7.483-27.963-21.459-27.963-39.075
	c0-30.124,22.903-44.362,53.528-44.362c29.682,0,56.428,12.292,56.428,40.519c0,15.181-9.393,32.797-27.963,40.269V303.684
	 M294.082,348.308c0,13.988,12.055,23.87,25.541,23.87c13.511,0,24.109-8.45,24.109-22.425c0-16.638-14.227-24.598-28.202-29.181
	C303.462,326.36,294.082,334.082,294.082,348.308z M340.855,269.442c0-12.532-7.973-21.232-20.744-21.232
	c-12.305,0-24.598,6.767-24.598,20.278c0,14.465,14.943,20.97,26.532,25.326C331.438,290.423,340.855,279.813,340.855,269.442z"/>
<path fill="#0085CE" d="M196.549,93.509c32.523,0,49.471,19.371,49.471,51.022c0,31.377-17.222,51.034-49.471,51.034
	c-32.212,0-49.47-19.657-49.47-51.034C147.079,112.879,164.063,93.509,196.549,93.509 M196.549,176.051
	c15.981,0,22.342-15.265,22.342-31.52c0-17.103-6.361-31.508-22.342-31.508c-15.968,0-22.33,14.406-22.33,31.508
	C174.219,160.786,180.581,176.051,196.549,176.051z"/>
<polyline fill="#0085CE" points="257.918,95.204 284.188,95.204 284.188,132.942 315.302,132.942 315.302,95.204 341.571,95.204
	341.571,193.858 315.302,193.858 315.302,151.596 284.188,151.596 284.188,193.858 257.918,193.858 257.918,95.204 "/>
<path fill="#0085CE" d="M250.006,50.984c132.061,0,199.003,66.967,199.003,199.016c0,132.048-66.943,199.015-199.003,199.015
	S51.002,382.048,51.002,250C51.002,117.951,117.945,50.984,250.006,50.984 M250.006,10C91.486,10,9.994,98.175,9.994,250
	c0,151.813,81.492,240,240.012,240c158.508,0,240-88.188,240-240C490.006,98.175,408.514,10,250.006,10z"/>
</svg>
