<svg xmlns="http://www.w3.org/2000/svg" xml:space="preserve" width="500" height="500"><path fill="#FFF" d="M250 29C104 29 29 110.2 29 250s75 221 221 221c145.9 0 221-81.2 221-221S396 29 250 29z"/><path fill="#0085CE" d="M121.431 310.689c0-42.202 12.771-87.542 58.35-87.542 49.184 0 58.839 48.456 58.839 87.542 0 39.063-10.145 86.564-58.839 86.564-51.834 0-58.35-51.356-58.35-86.564m83.425 0c0-21.709 0-62.479-25.076-62.479-24.61 0-24.61 40.77-24.61 62.479 0 21.22-.227 61.489 24.61 61.489 25.315 0 25.076-40.269 25.076-61.489zM345.187 303.684v.477c22.199 10.383 32.32 24.86 32.32 44.147 0 33.991-24.61 48.945-57.885 48.945-32.785 0-59.316-14.214-59.316-48.467 0-18.81 10.61-31.843 30.852-41.725v-.478c-16.876-7.483-27.963-21.459-27.963-39.075 0-30.124 22.903-44.362 53.528-44.362 29.682 0 56.428 12.292 56.428 40.519 0 15.181-9.393 32.797-27.963 40.269v-.25m-51.106 44.624c0 13.988 12.055 23.87 25.541 23.87 13.511 0 24.109-8.45 24.109-22.425 0-16.638-14.227-24.598-28.202-29.181-12.068 5.788-21.448 13.51-21.448 27.736zm46.773-78.866c0-12.532-7.973-21.232-20.744-21.232-12.305 0-24.598 6.767-24.598 20.278 0 14.465 14.943 20.97 26.532 25.326 9.393-3.391 18.81-14.001 18.81-24.372zM196.549 93.509c32.523 0 49.471 19.371 49.471 51.022 0 31.377-17.222 51.034-49.471 51.034-32.212 0-49.47-19.657-49.47-51.034 0-31.652 16.984-51.022 49.47-51.022m0 82.542c15.981 0 22.342-15.265 22.342-31.52 0-17.103-6.361-31.508-22.342-31.508-15.968 0-22.33 14.406-22.33 31.508 0 16.255 6.362 31.52 22.33 31.52zM257.918 95.204h26.27v37.738h31.114V95.204h26.269v98.654h-26.269v-42.262h-31.114v42.262h-26.27V95.204"/><path fill="#0085CE" d="M250.006 50.984c132.061 0 199.003 66.967 199.003 199.016 0 132.048-66.943 199.015-199.003 199.015S51.002 382.048 51.002 250c0-132.049 66.943-199.016 199.004-199.016m0-40.984C91.486 10 9.994 98.175 9.994 250c0 151.813 81.492 240 240.012 240 158.508 0 240-88.188 240-240 0-151.825-81.492-240-240-240z"/></svg>