<svg xmlns="http://www.w3.org/2000/svg" xml:space="preserve" width="500" height="500"><path fill="#FFF" d="M250 29C104 29 29 110.2 29 250s75 221 221 221c145.9 0 221-81.2 221-221S396 29 250 29z"/><path fill="#0085CE" d="M126.135 310.688c0-42.199 12.782-87.537 58.37-87.537 49.181 0 58.824 48.453 58.824 87.537 0 39.055-10.132 86.559-58.824 86.559-51.842.001-58.37-51.352-58.37-86.559m83.432 0c0-21.714 0-62.476-25.062-62.476-24.608 0-24.608 40.762-24.608 62.476 0 21.213-.238 61.479 24.608 61.479 25.301.001 25.062-40.265 25.062-61.479zM275.157 363.969c8.903 3.849 18.068 6.761 29.418 6.761 29.167 0 39.049-27.013 40.016-52.087l-.489-.489c-7.937 11.815-18.319 16.875-32.545 16.875-31.816 0-49.181-20.246-49.181-51.347 0-36.417 17.854-60.53 55.947-60.53 46.759 0 57.142 38.81 57.142 78.372 0 45.57-14.703 95.724-69.195 95.724-12.304 0-23.893-1.934-35.469-6.027l4.356-27.252m66.545-85.837c0-15.915-6.755-29.919-23.379-29.919-15.682 0-22.197 15.204-22.197 30.152 0 16.398 6.743 31.59 22.914 31.59 16.385 0 22.662-14.96 22.662-31.823zM197.37 93.528c32.509 0 49.467 19.357 49.467 51.031 0 31.357-17.245 51.007-49.467 51.007s-49.467-19.65-49.467-51.007c0-31.674 16.958-51.031 49.467-51.031m0 82.537c15.968 0 22.329-15.264 22.329-31.506 0-17.108-6.361-31.53-22.329-31.53-15.956 0-22.341 14.422-22.341 31.53 0 16.242 6.385 31.506 22.341 31.506zM258.724 95.223h26.267v37.741h31.089V95.223h26.303v98.648H316.08v-42.26h-31.089v42.26h-26.267V95.223"/><path fill="#0085CE" d="M250 50.988c132.064 0 199.003 66.957 199.003 199.009 0 132.058-66.938 199.015-199.003 199.015-132.064 0-199.015-66.957-199.015-199.015 0-132.052 66.951-199.009 199.015-199.009M250 10C91.49 10 9.991 98.182 9.991 249.997 9.991 401.818 91.49 490 250 490c158.498 0 240.009-88.182 240.009-240.003C490.009 98.182 408.498 10 250 10z"/></svg>