<?xml version="1.0" encoding="utf-8"?>
<!-- Generator: Adobe Illustrator 15.0.0, SVG Export Plug-In . SVG Version: 6.00 Build 0)  -->
<!DOCTYPE svg PUBLIC "-//W3C//DTD SVG 1.1//EN" "http://www.w3.org/Graphics/SVG/1.1/DTD/svg11.dtd">
<svg version="1.1" id="レイヤー_11" xmlns="http://www.w3.org/2000/svg" xmlns:xlink="http://www.w3.org/1999/xlink" x="0px"
	 y="0px" width="500px" height="500px" viewBox="0 0 500 500" enable-background="new 0 0 500 500" xml:space="preserve">
<path fill="#FFFFFF" d="M250,29C104,29,29,110.2,29,250c0,139.8,75,221,221,221c145.9,0,221-81.2,221-221C471,110.2,396,29,250,29z"/>
<path fill="#0085CE" d="M126.135,310.688c0-42.199,12.782-87.537,58.37-87.537c49.181,0,58.824,48.453,58.824,87.537
	c0,39.055-10.132,86.559-58.824,86.559C132.663,397.248,126.135,345.895,126.135,310.688 M209.567,310.688
	c0-21.714,0-62.476-25.062-62.476c-24.608,0-24.608,40.762-24.608,62.476c0,21.213-0.238,61.479,24.608,61.479
	C209.806,372.168,209.567,331.902,209.567,310.688z"/>
<path fill="#0085CE" d="M275.157,363.969c8.903,3.849,18.068,6.761,29.418,6.761c29.167,0,39.049-27.013,40.016-52.087l-0.489-0.489
	c-7.937,11.815-18.319,16.875-32.545,16.875c-31.816,0-49.181-20.246-49.181-51.347c0-36.417,17.854-60.53,55.947-60.53
	c46.759,0,57.142,38.81,57.142,78.372c0,45.57-14.703,95.724-69.195,95.724c-12.304,0-23.893-1.934-35.469-6.027L275.157,363.969
	 M341.702,278.132c0-15.915-6.755-29.919-23.379-29.919c-15.682,0-22.197,15.204-22.197,30.152c0,16.398,6.743,31.59,22.914,31.59
	C335.425,309.955,341.702,294.995,341.702,278.132z"/>
<path fill="#0085CE" d="M197.37,93.528c32.509,0,49.467,19.357,49.467,51.031c0,31.357-17.245,51.007-49.467,51.007
	s-49.467-19.65-49.467-51.007C147.903,112.885,164.861,93.528,197.37,93.528 M197.37,176.065c15.968,0,22.329-15.264,22.329-31.506
	c0-17.108-6.361-31.53-22.329-31.53c-15.956,0-22.341,14.422-22.341,31.53C175.029,160.801,181.414,176.065,197.37,176.065z"/>
<polyline fill="#0085CE" points="258.724,95.223 284.991,95.223 284.991,132.964 316.08,132.964 316.08,95.223 342.383,95.223
	342.383,193.871 316.08,193.871 316.08,151.611 284.991,151.611 284.991,193.871 258.724,193.871 258.724,95.223 "/>
<path fill="#0085CE" d="M250,50.988c132.064,0,199.003,66.957,199.003,199.009c0,132.058-66.938,199.015-199.003,199.015
	c-132.064,0-199.015-66.957-199.015-199.015C50.985,117.945,117.936,50.988,250,50.988 M250,10C91.49,10,9.991,98.182,9.991,249.997
	C9.991,401.818,91.49,490,250,490c158.498,0,240.009-88.182,240.009-240.003C490.009,98.182,408.498,10,250,10z"/>
</svg>
