<?xml version="1.0" encoding="utf-8"?>
<!-- Generator: Adobe Illustrator 15.0.0, SVG Export Plug-In . SVG Version: 6.00 Build 0)  -->
<!DOCTYPE svg PUBLIC "-//W3C//DTD SVG 1.1//EN" "http://www.w3.org/Graphics/SVG/1.1/DTD/svg11.dtd">
<svg version="1.1" id="レイヤー_12" xmlns="http://www.w3.org/2000/svg" xmlns:xlink="http://www.w3.org/1999/xlink" x="0px"
	 y="0px" width="500px" height="500px" viewBox="0 0 500 500" enable-background="new 0 0 500 500" xml:space="preserve">
<path fill="#FFFFFF" d="M250,29C104,29,29,110.2,29,250c0,139.8,75,221,221,221c145.9,0,221-81.2,221-221C471,110.2,396,29,250,29z"/>
<path fill="#0085CE" d="M250,50.988c132.042,0,199.006,66.958,199.006,199.006c0,132.06-66.964,199.018-199.006,199.018
	S50.995,382.054,50.995,249.994C50.995,117.946,117.958,50.988,250,50.988 M250,10C91.511,10,10.012,98.189,10.012,249.994
	C10.012,401.812,91.511,490,250,490s239.988-88.188,239.988-240.006C489.988,98.189,408.489,10,250,10z"/>
<path fill="#0085CE" d="M198.813,95.82c32.509,0,49.468,19.357,49.468,51.02c0,31.369-17.233,50.995-49.468,50.995
	c-32.223,0-49.456-19.626-49.456-50.995C149.358,115.177,166.305,95.82,198.813,95.82 M198.813,178.347
	c15.98,0,22.342-15.253,22.342-31.507c0-17.12-6.362-31.531-22.342-31.531c-15.969,0-22.341,14.411-22.341,31.531
	C176.472,163.094,182.845,178.347,198.813,178.347z"/>
<polyline fill="#0085CE" points="260.167,97.502 286.436,97.502 286.436,135.228 317.537,135.228 317.537,97.502 343.828,97.502
	343.828,196.152 317.537,196.152 317.537,153.905 286.436,153.905 286.436,196.152 260.167,196.152 260.167,97.502 "/>
<polyline fill="#0085CE" points="175.649,228.327 205.557,228.327 205.557,396.644 171.794,396.644 171.794,266.649
	143.343,289.807 126.455,267.872 175.649,228.327 "/>
<path fill="#0085CE" d="M249.905,312.954c0-42.194,12.769-87.533,58.347-87.533c49.206,0,58.849,48.478,58.849,87.533
	c0,39.073-10.121,86.572-58.849,86.572C256.409,399.526,249.905,348.167,249.905,312.954 M333.326,312.954
	c0-21.691,0-62.447-25.075-62.447c-24.584,0-24.584,40.756-24.584,62.447c0,21.231-0.251,61.498,24.584,61.498
	C333.577,374.452,333.326,334.185,333.326,312.954z"/>
</svg>
