<svg xmlns="http://www.w3.org/2000/svg" xml:space="preserve" width="500" height="500"><path fill="#FFF" d="M250 29C104 29 29 110.2 29 250s75 221 221 221c145.9 0 221-81.2 221-221S396 29 250 29z"/><path fill="#0085CE" d="M250 50.988c132.042 0 199.006 66.958 199.006 199.006 0 132.06-66.964 199.018-199.006 199.018S50.995 382.054 50.995 249.994c0-132.048 66.963-199.006 199.005-199.006M250 10C91.511 10 10.012 98.189 10.012 249.994 10.012 401.812 91.511 490 250 490s239.988-88.188 239.988-240.006C489.988 98.189 408.489 10 250 10z"/><path fill="#0085CE" d="M198.813 95.82c32.509 0 49.468 19.357 49.468 51.02 0 31.369-17.233 50.995-49.468 50.995-32.223 0-49.456-19.626-49.456-50.995.001-31.663 16.948-51.02 49.456-51.02m0 82.527c15.98 0 22.342-15.253 22.342-31.507 0-17.12-6.362-31.531-22.342-31.531-15.969 0-22.341 14.411-22.341 31.531 0 16.254 6.373 31.507 22.341 31.507zM260.167 97.502h26.269v37.726h31.101V97.502h26.291v98.65h-26.291v-42.247h-31.101v42.247h-26.269v-98.65M175.649 228.327h29.908v168.317h-33.763V266.649l-28.451 23.158-16.888-21.935 49.194-39.545M249.905 312.954c0-42.194 12.769-87.533 58.347-87.533 49.206 0 58.849 48.478 58.849 87.533 0 39.073-10.121 86.572-58.849 86.572-51.843 0-58.347-51.359-58.347-86.572m83.421 0c0-21.691 0-62.447-25.075-62.447-24.584 0-24.584 40.756-24.584 62.447 0 21.231-.251 61.498 24.584 61.498 25.326 0 25.075-40.267 25.075-61.498z"/></svg>