<svg xmlns="http://www.w3.org/2000/svg" xml:space="preserve" width="500" height="500"><path fill="#FFF" d="M250 29C104 29 29 110.2 29 250s75 221 221 221c145.9 0 221-81.2 221-221S396 29 250 29z"/><path fill="#0085CE" d="M250.009 50.988c132.038 0 198.995 66.956 198.995 199.012 0 132.057-66.957 199.013-198.995 199.013-132.056 0-199.012-66.956-199.012-199.013 0-132.056 66.956-199.012 199.012-199.012m0-40.988c-158.514 0-240 88.199-240 240 0 151.831 81.486 240 240 240 158.484 0 239.982-88.169 239.982-240 0-151.801-81.498-240-239.982-240z"/><path fill="#0085CE" d="M178.369 223.435h29.895v168.324h-33.756V261.767l-28.451 23.146-16.874-21.934 49.186-39.544M310.007 223.435h29.907v168.324h-33.768V261.767l-28.462 23.146-16.875-21.934 49.198-39.544M193.412 90.925c32.52 0 49.484 19.357 49.484 51.024 0 31.38-17.256 51.006-49.484 51.006-32.21 0-49.455-19.625-49.455-51.006 0-31.667 16.964-51.024 49.455-51.024m0 82.536c15.962 0 22.34-15.264 22.34-31.512 0-17.108-6.378-31.518-22.34-31.518-15.968 0-22.311 14.41-22.311 31.518 0 16.248 6.343 31.512 22.311 31.512zM254.759 92.625h26.303v37.724h31.087V92.625h26.273v98.629h-26.273v-42.246h-31.087v42.246h-26.303V92.625"/></svg>