<?xml version="1.0" encoding="utf-8"?>
<!-- Generator: Adobe Illustrator 15.0.0, SVG Export Plug-In . SVG Version: 6.00 Build 0)  -->
<!DOCTYPE svg PUBLIC "-//W3C//DTD SVG 1.1//EN" "http://www.w3.org/Graphics/SVG/1.1/DTD/svg11.dtd">
<svg version="1.1" id="レイヤー_13" xmlns="http://www.w3.org/2000/svg" xmlns:xlink="http://www.w3.org/1999/xlink" x="0px"
	 y="0px" width="500px" height="500px" viewBox="0 0 500 500" enable-background="new 0 0 500 500" xml:space="preserve">
<path fill="#FFFFFF" d="M250,29C104,29,29,110.2,29,250c0,139.8,75,221,221,221c145.9,0,221-81.2,221-221C471,110.2,396,29,250,29z"/>
<path fill="#0085CE" d="M250.009,50.988c132.038,0,198.995,66.956,198.995,199.012c0,132.057-66.957,199.013-198.995,199.013
	c-132.056,0-199.012-66.956-199.012-199.013C50.997,117.944,117.953,50.988,250.009,50.988 M250.009,10
	c-158.514,0-240,88.199-240,240c0,151.831,81.486,240,240,240c158.484,0,239.982-88.169,239.982-240
	C489.991,98.199,408.493,10,250.009,10z"/>
<polyline fill="#0085CE" points="178.369,223.435 208.264,223.435 208.264,391.759 174.508,391.759 174.508,261.767
	146.057,284.913 129.183,262.979 178.369,223.435 "/>
<polyline fill="#0085CE" points="310.007,223.435 339.914,223.435 339.914,391.759 306.146,391.759 306.146,261.767
	277.684,284.913 260.809,262.979 310.007,223.435 "/>
<path fill="#0085CE" d="M193.412,90.925c32.52,0,49.484,19.357,49.484,51.024c0,31.38-17.256,51.006-49.484,51.006
	c-32.21,0-49.455-19.625-49.455-51.006C143.957,110.282,160.921,90.925,193.412,90.925 M193.412,173.461
	c15.962,0,22.34-15.264,22.34-31.512c0-17.108-6.378-31.518-22.34-31.518c-15.968,0-22.311,14.41-22.311,31.518
	C171.101,158.197,177.444,173.461,193.412,173.461z"/>
<polyline fill="#0085CE" points="254.759,92.625 281.062,92.625 281.062,130.349 312.149,130.349 312.149,92.625 338.422,92.625
	338.422,191.254 312.149,191.254 312.149,149.008 281.062,149.008 281.062,191.254 254.759,191.254 254.759,92.625 "/>
</svg>
