<?xml version="1.0" encoding="utf-8"?>
<!-- Generator: Adobe Illustrator 15.0.0, SVG Export Plug-In . SVG Version: 6.00 Build 0)  -->
<!DOCTYPE svg PUBLIC "-//W3C//DTD SVG 1.1//EN" "http://www.w3.org/Graphics/SVG/1.1/DTD/svg11.dtd">
<svg version="1.1" id="レイヤー_14" xmlns="http://www.w3.org/2000/svg" xmlns:xlink="http://www.w3.org/1999/xlink" x="0px"
	 y="0px" width="500px" height="500px" viewBox="0 0 500 500" enable-background="new 0 0 500 500" xml:space="preserve">
<path fill="#FFFFFF" d="M250,29C104,29,29,110.2,29,250c0,139.8,75,221,221,221c145.9,0,221-81.2,221-221C471,110.2,396,29,250,29z"/>
<path fill="#0085CE" d="M250.012,50.988c132.045,0,198.989,66.956,198.989,199.012c0,132.057-66.944,199.013-198.989,199.013
	C117.943,449.013,51,382.057,51,250C51,117.944,117.943,50.988,250.012,50.988 M250.012,10C91.516,10,10,98.199,10,250
	c0,151.831,81.516,240,240.012,240C408.515,490,490,401.831,490,250C490,98.199,408.515,10,250.012,10z"/>
<polyline fill="#0085CE" points="175.322,228.333 205.224,228.333 205.224,396.646 171.462,396.646 171.462,266.654
	143.012,289.812 126.118,267.877 175.322,228.333 "/>
<path fill="#0085CE" d="M251.026,396.646v-28.23c15.67-15.192,72.821-62.922,72.821-93.778c0-15.448-13.748-22.681-27.496-22.681
	c-14.225,0-27.74,6.277-38.81,13.516l-2.679-27.974c15.216-7.721,32.801-12.077,49.932-12.077c32.056,0,52.809,16.17,52.809,49.216
	c0,35.683-35.928,68.472-63.424,95.479h68.711v26.53H251.026"/>
<path fill="#0085CE" d="M192.114,95.83c32.514,0,49.467,19.357,49.467,51.019c0,31.369-17.245,50.994-49.467,50.994
	c-32.217,0-49.473-19.625-49.473-50.994C142.642,115.187,159.605,95.83,192.114,95.83 M192.114,178.354
	c15.955,0,22.334-15.252,22.334-31.506c0-17.12-6.379-31.53-22.334-31.53c-15.986,0-22.329,14.41-22.329,31.53
	C169.785,163.102,176.128,178.354,192.114,178.354z"/>
<polyline fill="#0085CE" points="253.461,97.513 279.746,97.513 279.746,135.236 310.834,135.236 310.834,97.513 337.119,97.513
	337.119,196.16 310.834,196.16 310.834,153.913 279.746,153.913 279.746,196.16 253.461,196.16 253.461,97.513 "/>
</svg>
