<svg xmlns="http://www.w3.org/2000/svg" xml:space="preserve" width="500" height="500"><path fill="#FFF" d="M250 29C104 29 29 110.2 29 250s75 221 221 221c145.9 0 221-81.2 221-221S396 29 250 29z"/><path fill="#0085CE" d="M250.012 50.988c132.045 0 198.989 66.956 198.989 199.012 0 132.057-66.944 199.013-198.989 199.013C117.943 449.013 51 382.057 51 250c0-132.056 66.943-199.012 199.012-199.012m0-40.988C91.516 10 10 98.199 10 250c0 151.831 81.516 240 240.012 240C408.515 490 490 401.831 490 250c0-151.801-81.485-240-239.988-240z"/><path fill="#0085CE" d="M175.322 228.333h29.902v168.313h-33.762V266.654l-28.45 23.158-16.894-21.935 49.204-39.544M251.026 396.646v-28.23c15.67-15.192 72.821-62.922 72.821-93.778 0-15.448-13.748-22.681-27.496-22.681-14.225 0-27.74 6.277-38.81 13.516l-2.679-27.974c15.216-7.721 32.801-12.077 49.932-12.077 32.056 0 52.809 16.17 52.809 49.216 0 35.683-35.928 68.472-63.424 95.479h68.711v26.53H251.026M192.114 95.83c32.514 0 49.467 19.357 49.467 51.019 0 31.369-17.245 50.994-49.467 50.994-32.217 0-49.473-19.625-49.473-50.994.001-31.662 16.964-51.019 49.473-51.019m0 82.524c15.955 0 22.334-15.252 22.334-31.506 0-17.12-6.379-31.53-22.334-31.53-15.986 0-22.329 14.41-22.329 31.53 0 16.254 6.343 31.506 22.329 31.506zM253.461 97.513h26.285v37.723h31.088V97.513h26.285v98.647h-26.285v-42.247h-31.088v42.247h-26.285V97.513"/></svg>