<svg xmlns="http://www.w3.org/2000/svg" xml:space="preserve" width="500" height="500"><path fill="#FFF" d="M250 29C104 29 29 110.2 29 250s75 221 221 221c145.9 0 221-81.2 221-221S396 29 250 29z"/><path fill="#0085CE" d="M249.991 50.988c132.057 0 199.013 66.956 199.013 199.012 0 132.057-66.956 199.013-199.013 199.013-132.039 0-199.007-66.956-199.007-199.013 0-132.056 66.969-199.012 199.007-199.012m0-40.988C91.507 10 10.009 98.199 10.009 250c0 151.831 81.498 240 239.982 240 158.502 0 240-88.169 240-240 0-151.801-81.498-240-240-240z"/><path fill="#0085CE" d="M177.134 228.333h29.918v168.313h-33.779V266.654l-28.439 23.158-16.887-21.935 49.187-39.544M255.737 365.301c11.558 4.583 24.113 7.698 37.372 7.698 13.981 0 35.45-6.731 35.45-23.868 0-19.769-15.681-26.285-37.138-26.285h-16.397v-26.518h15.442c22.645 0 37.36-7.465 37.36-22.18 0-16.875-13.748-22.191-28.94-22.191-13.259 0-26.04 3.139-37.843 8.933l-1.933-27.006c13.503-5.317 29.662-8.461 47.014-8.461 20.735 0 55.47 7.25 55.47 43.166 0 22.913-14.226 33.768-31.345 40.277v.478c21.469 2.9 32.066 19.542 32.066 40.051 0 40.009-36.405 50.135-64.39 50.135-14.715 0-31.589-1.927-44.12-5.543l1.932-28.686M196.885 95.83c32.508 0 49.466 19.357 49.466 51.019 0 31.369-17.256 50.994-49.466 50.994-32.228 0-49.455-19.625-49.455-50.994 0-31.662 16.934-51.019 49.455-51.019m0 82.524c15.961 0 22.34-15.252 22.34-31.506 0-17.12-6.379-31.53-22.34-31.53-15.974 0-22.341 14.41-22.341 31.53 0 16.254 6.367 31.506 22.341 31.506zM258.231 97.513h26.273v37.723h31.089V97.513h26.297v98.647h-26.297v-42.247h-31.089v42.247h-26.273V97.513"/></svg>