<?xml version="1.0" encoding="utf-8"?>
<!-- Generator: Adobe Illustrator 15.0.0, SVG Export Plug-In . SVG Version: 6.00 Build 0)  -->
<!DOCTYPE svg PUBLIC "-//W3C//DTD SVG 1.1//EN" "http://www.w3.org/Graphics/SVG/1.1/DTD/svg11.dtd">
<svg version="1.1" id="レイヤー_15" xmlns="http://www.w3.org/2000/svg" xmlns:xlink="http://www.w3.org/1999/xlink" x="0px"
	 y="0px" width="500px" height="500px" viewBox="0 0 500 500" enable-background="new 0 0 500 500" xml:space="preserve">
<path fill="#FFFFFF" d="M250,29C104,29,29,110.2,29,250c0,139.8,75,221,221,221c145.9,0,221-81.2,221-221C471,110.2,396,29,250,29z"/>
<path fill="#0085CE" d="M249.991,50.988c132.057,0,199.013,66.956,199.013,199.012c0,132.057-66.956,199.013-199.013,199.013
	c-132.039,0-199.007-66.956-199.007-199.013C50.984,117.944,117.953,50.988,249.991,50.988 M249.991,10
	C91.507,10,10.009,98.199,10.009,250c0,151.831,81.498,240,239.982,240c158.502,0,240-88.169,240-240
	C489.991,98.199,408.493,10,249.991,10z"/>
<polyline fill="#0085CE" points="177.134,228.333 207.052,228.333 207.052,396.646 173.273,396.646 173.273,266.654
	144.834,289.812 127.947,267.877 177.134,228.333 "/>
<path fill="#0085CE" d="M255.737,365.301c11.558,4.583,24.113,7.698,37.372,7.698c13.981,0,35.45-6.731,35.45-23.868
	c0-19.769-15.681-26.285-37.138-26.285h-16.397v-26.518h15.442c22.645,0,37.36-7.465,37.36-22.18
	c0-16.875-13.748-22.191-28.94-22.191c-13.259,0-26.04,3.139-37.843,8.933l-1.933-27.006c13.503-5.317,29.662-8.461,47.014-8.461
	c20.735,0,55.47,7.25,55.47,43.166c0,22.913-14.226,33.768-31.345,40.277v0.478c21.469,2.9,32.066,19.542,32.066,40.051
	c0,40.009-36.405,50.135-64.39,50.135c-14.715,0-31.589-1.927-44.12-5.543L255.737,365.301"/>
<path fill="#0085CE" d="M196.885,95.83c32.508,0,49.466,19.357,49.466,51.019c0,31.369-17.256,50.994-49.466,50.994
	c-32.228,0-49.455-19.625-49.455-50.994C147.43,115.187,164.364,95.83,196.885,95.83 M196.885,178.354
	c15.961,0,22.34-15.252,22.34-31.506c0-17.12-6.379-31.53-22.34-31.53c-15.974,0-22.341,14.41-22.341,31.53
	C174.544,163.102,180.911,178.354,196.885,178.354z"/>
<polyline fill="#0085CE" points="258.231,97.513 284.504,97.513 284.504,135.236 315.593,135.236 315.593,97.513 341.89,97.513
	341.89,196.16 315.593,196.16 315.593,153.913 284.504,153.913 284.504,196.16 258.231,196.16 258.231,97.513 "/>
</svg>
