<?xml version="1.0" encoding="utf-8"?>
<!-- Generator: Adobe Illustrator 15.0.0, SVG Export Plug-In . SVG Version: 6.00 Build 0)  -->
<!DOCTYPE svg PUBLIC "-//W3C//DTD SVG 1.1//EN" "http://www.w3.org/Graphics/SVG/1.1/DTD/svg11.dtd">
<svg version="1.1" id="レイヤー_16" xmlns="http://www.w3.org/2000/svg" xmlns:xlink="http://www.w3.org/1999/xlink" x="0px"
	 y="0px" width="500px" height="500px" viewBox="0 0 500 500" enable-background="new 0 0 500 500" xml:space="preserve">
<path fill="#FFFFFF" d="M250,29C104,29,29,110.2,29,250c0,139.8,75,221,221,221c145.9,0,221-81.2,221-221C471,110.2,396,29,250,29z"/>
<path fill="#0085CE" d="M250.012,50.988c132.039,0,199.012,66.956,199.012,199.012c0,132.057-66.974,199.013-199.012,199.013
	C117.95,449.013,50.988,382.057,50.988,250C50.988,117.944,117.95,50.988,250.012,50.988 M250.012,10
	C91.504,10,10.006,98.199,10.006,250c0,151.831,81.498,240,240.006,240c158.484,0,239.982-88.169,239.982-240
	C489.994,98.199,408.497,10,250.012,10z"/>
<polyline fill="#0085CE" points="175.806,228.334 205.725,228.334 205.725,396.646 171.951,396.646 171.951,266.654
	143.524,289.812 126.626,267.877 175.806,228.334 "/>
<path fill="#0085CE" d="M245.477,334.434l62.952-106.1h41.948v108.26h21.458v25.091h-21.458v34.961h-32.305v-34.961h-72.595V334.434
	 M318.072,336.594v-73.066h-0.478l-41.722,73.066H318.072z"/>
<path fill="#0085CE" d="M195.76,95.83c32.508,0,49.467,19.357,49.467,51.018c0,31.369-17.245,50.994-49.467,50.994
	s-49.479-19.625-49.479-50.994C146.281,115.187,163.251,95.83,195.76,95.83 M195.76,178.354c15.968,0,22.329-15.252,22.329-31.506
	c0-17.12-6.361-31.53-22.329-31.53s-22.329,14.41-22.329,31.53C173.431,163.102,179.792,178.354,195.76,178.354z"/>
<polyline fill="#0085CE" points="257.113,97.513 283.392,97.513 283.392,135.236 314.492,135.236 314.492,97.513 340.759,97.513
	340.759,196.16 314.492,196.16 314.492,153.913 283.392,153.913 283.392,196.16 257.113,196.16 257.113,97.513 "/>
</svg>
