<svg xmlns="http://www.w3.org/2000/svg" xml:space="preserve" width="500" height="500"><path fill="#FFF" d="M250 29C104 29 29 110.2 29 250s75 221 221 221c145.9 0 221-81.2 221-221S396 29 250 29z"/><path fill="#0085CE" d="M250.012 50.988c132.039 0 199.012 66.956 199.012 199.012 0 132.057-66.974 199.013-199.012 199.013-132.062 0-199.024-66.956-199.024-199.013 0-132.056 66.962-199.012 199.024-199.012m0-40.988C91.504 10 10.006 98.199 10.006 250c0 151.831 81.498 240 240.006 240 158.484 0 239.982-88.169 239.982-240 0-151.801-81.497-240-239.982-240z"/><path fill="#0085CE" d="M175.806 228.334h29.919v168.312h-33.774V266.654l-28.427 23.158-16.898-21.935 49.18-39.543M245.477 334.434l62.952-106.1h41.948v108.26h21.458v25.091h-21.458v34.961h-32.305v-34.961h-72.595v-27.251m72.595 2.16v-73.066h-.478l-41.722 73.066h42.2zM195.76 95.83c32.508 0 49.467 19.357 49.467 51.018 0 31.369-17.245 50.994-49.467 50.994s-49.479-19.625-49.479-50.994c0-31.661 16.97-51.018 49.479-51.018m0 82.524c15.968 0 22.329-15.252 22.329-31.506 0-17.12-6.361-31.53-22.329-31.53s-22.329 14.41-22.329 31.53c0 16.254 6.361 31.506 22.329 31.506zM257.113 97.513h26.279v37.723h31.1V97.513h26.267v98.647h-26.267v-42.247h-31.1v42.247h-26.279V97.513"/></svg>