<?xml version="1.0" encoding="utf-8"?>
<!-- Generator: Adobe Illustrator 15.0.0, SVG Export Plug-In . SVG Version: 6.00 Build 0)  -->
<!DOCTYPE svg PUBLIC "-//W3C//DTD SVG 1.1//EN" "http://www.w3.org/Graphics/SVG/1.1/DTD/svg11.dtd">
<svg version="1.1" id="レイヤー_17" xmlns="http://www.w3.org/2000/svg" xmlns:xlink="http://www.w3.org/1999/xlink" x="0px"
	 y="0px" width="500px" height="500px" viewBox="0 0 500 500" enable-background="new 0 0 500 500" xml:space="preserve">
<path fill="#FFFFFF" d="M250,29C104,29,29,110.2,29,250c0,139.8,75,221,221,221c145.9,0,221-81.2,221-221C471,110.2,396,29,250,29z"/>
<path fill="#0085CE" d="M250.018,50.989c132.042,0,198.97,66.958,198.97,199.005c0,132.06-66.928,199.017-198.97,199.017
	c-132.066,0-199.006-66.958-199.006-199.017C51.012,117.946,117.952,50.989,250.018,50.989 M250.018,10
	C91.494,10,10.006,98.189,10.006,249.994C10.006,401.811,91.494,490,250.018,490c158.488,0,239.976-88.189,239.976-240.006
	C489.994,98.189,408.506,10,250.018,10z"/>
<polyline fill="#0085CE" points="175.488,228.327 205.383,228.327 205.383,396.644 171.633,396.644 171.633,266.648
	143.182,289.807 126.306,267.872 175.488,228.327 "/>
<path fill="#0085CE" d="M359.456,253.401h-64.875l-0.705,35.934c3.843-0.722,8.903-1.688,15.419-1.688
	c23.63,0,54.266,11.081,54.266,54.737c0,31.59-22.186,57.142-65.591,57.142c-13.021,0-28.225-2.16-39.3-4.827l0.716-30.134
	c8.187,3.372,19.775,8.432,34.49,8.432c17.591,0,35.923-8.187,35.923-29.645c0-21.721-19.298-29.173-38.596-29.173
	c-10.359,0-20.24,1.432-30.134,4.583l1.694-90.433h96.692V253.401"/>
<path fill="#0085CE" d="M194.833,95.82c32.497,0,49.468,19.358,49.468,51.02c0,31.37-17.221,51.02-49.468,51.02
	c-32.223,0-49.468-19.65-49.468-51.02C145.365,115.178,162.336,95.82,194.833,95.82 M194.833,178.346
	c15.98,0,22.329-15.252,22.329-31.507c0-17.108-6.349-31.519-22.329-31.519c-15.957,0-22.329,14.411-22.329,31.519
	C172.504,163.094,178.877,178.346,194.833,178.346z"/>
<polyline fill="#0085CE" points="256.188,97.503 282.467,97.503 282.467,135.239 313.544,135.239 313.544,97.503 339.848,97.503
	339.848,196.176 313.544,196.176 313.544,153.904 282.467,153.904 282.467,196.176 256.188,196.176 256.188,97.503 "/>
</svg>
