<svg xmlns="http://www.w3.org/2000/svg" xml:space="preserve" width="500" height="500"><path fill="#FFF" d="M250 29C104 29 29 110.2 29 250s75 221 221 221c145.9 0 221-81.2 221-221S396 29 250 29z"/><path fill="#0085CE" d="M250.018 50.989c132.042 0 198.97 66.958 198.97 199.005 0 132.06-66.928 199.017-198.97 199.017-132.066 0-199.006-66.958-199.006-199.017 0-132.048 66.94-199.005 199.006-199.005m0-40.989C91.494 10 10.006 98.189 10.006 249.994 10.006 401.811 91.494 490 250.018 490c158.488 0 239.976-88.189 239.976-240.006C489.994 98.189 408.506 10 250.018 10z"/><path fill="#0085CE" d="M175.488 228.327h29.895v168.317h-33.75V266.648l-28.451 23.159-16.876-21.935 49.182-39.545M359.456 253.401h-64.875l-.705 35.934c3.843-.722 8.903-1.688 15.419-1.688 23.63 0 54.266 11.081 54.266 54.737 0 31.59-22.186 57.142-65.591 57.142-13.021 0-28.225-2.16-39.3-4.827l.716-30.134c8.187 3.372 19.775 8.432 34.49 8.432 17.591 0 35.923-8.187 35.923-29.645 0-21.721-19.298-29.173-38.596-29.173-10.359 0-20.24 1.432-30.134 4.583l1.694-90.433h96.692v25.072M194.833 95.82c32.497 0 49.468 19.358 49.468 51.02 0 31.37-17.221 51.02-49.468 51.02-32.223 0-49.468-19.65-49.468-51.02 0-31.662 16.971-51.02 49.468-51.02m0 82.526c15.98 0 22.329-15.252 22.329-31.507 0-17.108-6.349-31.519-22.329-31.519-15.957 0-22.329 14.411-22.329 31.519 0 16.255 6.373 31.507 22.329 31.507zM256.188 97.503h26.279v37.736h31.077V97.503h26.304v98.673h-26.304v-42.272h-31.077v42.272h-26.279V97.503"/></svg>