<?xml version="1.0" encoding="utf-8"?>
<!-- Generator: Adobe Illustrator 15.0.0, SVG Export Plug-In . SVG Version: 6.00 Build 0)  -->
<!DOCTYPE svg PUBLIC "-//W3C//DTD SVG 1.1//EN" "http://www.w3.org/Graphics/SVG/1.1/DTD/svg11.dtd">
<svg version="1.1" id="レイヤー_18" xmlns="http://www.w3.org/2000/svg" xmlns:xlink="http://www.w3.org/1999/xlink" x="0px"
	 y="0px" width="500px" height="500px" viewBox="0 0 500 500" enable-background="new 0 0 500 500" xml:space="preserve">
<path fill="#FFFFFF" d="M250,29C104,29,29,110.2,29,250c0,139.8,75,221,221,221c145.9,0,221-81.2,221-221C471,110.2,396,29,250,29z"/>
<path fill="#0085CE" d="M250.006,50.989C382.048,50.989,449,117.946,449,249.994c0,132.06-66.952,199.017-198.994,199.017
	c-132.054,0-198.994-66.958-198.994-199.017C51.012,117.946,117.952,50.989,250.006,50.989 M250.006,10
	c-158.512,0-240,88.189-240,239.994c0,151.817,81.488,240.006,240,240.006c158.488,0,239.988-88.189,239.988-240.006
	C489.994,98.189,408.494,10,250.006,10z"/>
<polyline fill="#0085CE" points="173.507,228.327 203.402,228.327 203.402,396.644 169.652,396.644 169.652,266.648 141.2,289.807 
	124.325,267.872 173.507,228.327 "/>
<path fill="#0085CE" d="M353.871,258.706c-8.939-3.873-18.104-6.755-29.43-6.755c-29.179,0-39.061,27.007-40.04,52.094l0.489,0.477
	c7.972-11.558,18.319-16.875,32.557-16.875c31.841,0,49.193,20.235,49.193,51.365c0,36.418-17.83,60.513-55.937,60.513
	c-46.783,0-57.154-38.811-57.154-78.367c0-45.571,14.691-95.744,69.208-95.744c12.304,0,23.869,1.945,35.445,6.039L353.871,258.706
	 M287.313,344.544c0,15.926,6.731,29.908,23.391,29.908c15.67,0,22.174-15.205,22.174-30.134c0-16.416-6.754-31.59-22.914-31.59
	C293.566,312.727,287.313,327.657,287.313,344.544z"/>
<path fill="#0085CE" d="M195.74,95.82c32.509,0,49.468,19.358,49.468,51.02c0,31.37-17.233,50.996-49.468,50.996
	c-32.223,0-49.456-19.626-49.456-50.996C146.284,115.178,163.243,95.82,195.74,95.82 M195.74,178.346
	c15.968,0,22.341-15.252,22.341-31.507c0-17.12-6.373-31.531-22.341-31.531c-15.968,0-22.329,14.411-22.329,31.531
	C173.411,163.094,179.772,178.346,195.74,178.346z"/>
<polyline fill="#0085CE" points="257.083,97.503 283.375,97.503 283.375,135.227 314.452,135.227 314.452,97.503 340.767,97.503 
	340.767,196.152 314.452,196.152 314.452,153.904 283.375,153.904 283.375,196.152 257.083,196.152 257.083,97.503 "/>
</svg>
