<svg xmlns="http://www.w3.org/2000/svg" xml:space="preserve" width="500" height="500"><path fill="#FFF" d="M250 29C104 29 29 110.2 29 250s75 221 221 221c145.9 0 221-81.2 221-221S396 29 250 29z"/><path fill="#0085CE" d="M250.006 50.989C382.048 50.989 449 117.946 449 249.994c0 132.06-66.952 199.017-198.994 199.017-132.054 0-198.994-66.958-198.994-199.017 0-132.048 66.94-199.005 198.994-199.005m0-40.989c-158.512 0-240 88.189-240 239.994 0 151.817 81.488 240.006 240 240.006 158.488 0 239.988-88.189 239.988-240.006C489.994 98.189 408.494 10 250.006 10z"/><path fill="#0085CE" d="M173.507 228.327h29.895v168.317h-33.75V266.648L141.2 289.807l-16.875-21.935 49.182-39.545M353.871 258.706c-8.939-3.873-18.104-6.755-29.43-6.755-29.179 0-39.061 27.007-40.04 52.094l.489.477c7.972-11.558 18.319-16.875 32.557-16.875 31.841 0 49.193 20.235 49.193 51.365 0 36.418-17.83 60.513-55.937 60.513-46.783 0-57.154-38.811-57.154-78.367 0-45.571 14.691-95.744 69.208-95.744 12.304 0 23.869 1.945 35.445 6.039l-4.331 27.253m-66.558 85.838c0 15.926 6.731 29.908 23.391 29.908 15.67 0 22.174-15.205 22.174-30.134 0-16.416-6.754-31.59-22.914-31.59-16.398-.001-22.651 14.929-22.651 31.816zM195.74 95.82c32.509 0 49.468 19.358 49.468 51.02 0 31.37-17.233 50.996-49.468 50.996-32.223 0-49.456-19.626-49.456-50.996 0-31.662 16.959-51.02 49.456-51.02m0 82.526c15.968 0 22.341-15.252 22.341-31.507 0-17.12-6.373-31.531-22.341-31.531s-22.329 14.411-22.329 31.531c0 16.255 6.361 31.507 22.329 31.507zM257.083 97.503h26.292v37.724h31.077V97.503h26.315v98.649h-26.315v-42.248h-31.077v42.248h-26.292V97.503"/></svg>