<svg xmlns="http://www.w3.org/2000/svg" xml:space="preserve" width="500" height="500"><path fill="#FFF" d="M250 29C104 29 29 110.2 29 250s75 221 221 221c145.9 0 221-81.2 221-221S396 29 250 29z"/><path fill="#0085CE" d="M249.994 50.988c132.063 0 199.013 66.956 199.013 199.012 0 132.057-66.95 199.013-199.013 199.013-132.039 0-199-66.956-199-199.013 0-132.056 66.962-199.012 199-199.012m0-40.988C91.51 10 10.012 98.199 10.012 250c0 151.831 81.498 240 239.982 240 158.496 0 239.994-88.169 239.994-240 0-151.801-81.498-240-239.994-240z"/><path fill="#0085CE" d="M180.049 228.334h29.894v168.312h-33.761V266.654l-28.451 23.158-16.875-21.935 49.193-39.543M253.085 228.334h108.517v27.973L301.8 396.646h-36.638l62.44-141.807h-74.517v-26.505M190.336 95.83c32.508 0 49.466 19.357 49.466 51.018 0 31.369-17.245 50.994-49.466 50.994-32.222 0-49.467-19.625-49.467-50.994 0-31.661 16.958-51.018 49.467-51.018m0 82.524c15.956 0 22.34-15.252 22.34-31.506 0-17.12-6.385-31.53-22.34-31.53-15.968 0-22.341 14.41-22.341 31.53 0 16.254 6.373 31.506 22.341 31.506zM251.665 97.513h26.303v37.723h31.076V97.513h26.303v98.647h-26.303v-42.247h-31.076v42.247h-26.303V97.513"/></svg>