<?xml version="1.0" encoding="utf-8"?>
<!-- Generator: Adobe Illustrator 15.0.0, SVG Export Plug-In . SVG Version: 6.00 Build 0)  -->
<!DOCTYPE svg PUBLIC "-//W3C//DTD SVG 1.1//EN" "http://www.w3.org/Graphics/SVG/1.1/DTD/svg11.dtd">
<svg version="1.1" id="レイヤー_19" xmlns="http://www.w3.org/2000/svg" xmlns:xlink="http://www.w3.org/1999/xlink" x="0px"
	 y="0px" width="500px" height="500px" viewBox="0 0 500 500" enable-background="new 0 0 500 500" xml:space="preserve">
<path fill="#FFFFFF" d="M250,29C104,29,29,110.2,29,250c0,139.8,75,221,221,221c145.9,0,221-81.2,221-221C471,110.2,396,29,250,29z"/>
<path fill="#0085CE" d="M249.994,50.988c132.063,0,199.013,66.956,199.013,199.012c0,132.057-66.95,199.013-199.013,199.013
	c-132.039,0-199-66.956-199-199.013C50.994,117.944,117.956,50.988,249.994,50.988 M249.994,10C91.51,10,10.012,98.199,10.012,250
	c0,151.831,81.498,240,239.982,240c158.496,0,239.994-88.169,239.994-240C489.988,98.199,408.49,10,249.994,10z"/>
<polyline fill="#0085CE" points="180.049,228.334 209.943,228.334 209.943,396.646 176.182,396.646 176.182,266.654 
	147.731,289.812 130.856,267.877 180.049,228.334 "/>
<polyline fill="#0085CE" points="253.085,228.334 361.602,228.334 361.602,256.307 301.8,396.646 265.162,396.646 327.602,254.839 
	253.085,254.839 253.085,228.334 "/>
<path fill="#0085CE" d="M190.336,95.83c32.508,0,49.466,19.357,49.466,51.018c0,31.369-17.245,50.994-49.466,50.994
	c-32.222,0-49.467-19.625-49.467-50.994C140.869,115.187,157.827,95.83,190.336,95.83 M190.336,178.354
	c15.956,0,22.34-15.252,22.34-31.506c0-17.12-6.385-31.53-22.34-31.53c-15.968,0-22.341,14.41-22.341,31.53
	C167.995,163.102,174.368,178.354,190.336,178.354z"/>
<polyline fill="#0085CE" points="251.665,97.513 277.968,97.513 277.968,135.236 309.044,135.236 309.044,97.513 335.347,97.513 
	335.347,196.16 309.044,196.16 309.044,153.913 277.968,153.913 277.968,196.16 251.665,196.16 251.665,97.513 "/>
</svg>
