<svg xmlns="http://www.w3.org/2000/svg" xml:space="preserve" width="500" height="500"><path fill="#FFF" d="M250 29C104 29 29 110.2 29 250s75 221 221 221c145.9 0 221-81.2 221-221S396 29 250 29z"/><path fill="#0085CE" d="M250 50.989c132.054 0 199.005 66.958 199.005 199.005 0 132.06-66.952 199.017-199.005 199.017S51.006 382.054 51.006 249.994c0-132.048 66.94-199.005 198.994-199.005M250 10C91.5 10 10 98.189 10 249.994 10 401.811 91.5 490 250 490s240-88.189 240-240.006C490 98.189 408.5 10 250 10z"/><path fill="#0085CE" d="M195.138 95.558c32.521 0 49.48 19.357 49.48 51.013 0 31.381-17.245 51.031-49.48 51.031-32.223 0-49.456-19.65-49.456-51.031 0-31.656 16.959-51.013 49.456-51.013m0 82.544c15.956 0 22.329-15.264 22.329-31.531 0-17.096-6.373-31.507-22.329-31.507-15.98 0-22.317 14.411-22.317 31.507-.001 16.266 6.337 31.531 22.317 31.531zM256.48 97.258h26.304v37.724h31.089V97.258h26.267v98.638h-26.267v-42.248h-31.089v42.248H256.48V97.258M168.166 228.071h29.896v168.316h-33.75V266.41l-28.452 23.14-16.887-21.935 49.193-39.544M327.299 305.722v.477c22.198 10.359 32.318 24.83 32.318 44.127 0 34.001-24.597 48.943-57.882 48.943-32.784 0-59.302-14.208-59.302-48.454 0-18.82 10.598-31.835 30.851-41.723v-.477c-16.875-7.477-27.975-21.458-27.975-39.067 0-30.152 22.902-44.372 53.526-44.372 29.681 0 56.426 12.304 56.426 40.511 0 15.187-9.393 32.802-27.962 40.267v-.232m-51.103 44.604c0 13.981 12.042 23.869 25.54 23.869s24.12-8.432 24.12-22.424c0-16.631-14.226-24.603-28.201-29.186-12.067 5.806-21.459 13.516-21.459 27.741zm46.771-78.85c0-12.549-7.972-21.226-20.73-21.226-12.292 0-24.609 6.761-24.609 20.265 0 14.453 14.942 20.969 26.53 25.307 9.392-3.36 18.809-13.993 18.809-24.346z"/></svg>