<?xml version="1.0" encoding="utf-8"?>
<!-- Generator: Adobe Illustrator 15.0.0, SVG Export Plug-In . SVG Version: 6.00 Build 0)  -->
<!DOCTYPE svg PUBLIC "-//W3C//DTD SVG 1.1//EN" "http://www.w3.org/Graphics/SVG/1.1/DTD/svg11.dtd">
<svg version="1.1" id="レイヤー_20" xmlns="http://www.w3.org/2000/svg" xmlns:xlink="http://www.w3.org/1999/xlink" x="0px"
	 y="0px" width="500px" height="500px" viewBox="0 0 500 500" enable-background="new 0 0 500 500" xml:space="preserve">
<path fill="#FFFFFF" d="M250,29C104,29,29,110.2,29,250c0,139.8,75,221,221,221c145.9,0,221-81.2,221-221C471,110.2,396,29,250,29z"/>
<path fill="#0085CE" d="M250,50.989c132.054,0,199.005,66.958,199.005,199.005c0,132.06-66.952,199.017-199.005,199.017
	S51.006,382.054,51.006,249.994C51.006,117.946,117.946,50.989,250,50.989 M250,10C91.5,10,10,98.189,10,249.994
	C10,401.811,91.5,490,250,490c158.5,0,240-88.189,240-240.006C490,98.189,408.5,10,250,10z"/>
<path fill="#0085CE" d="M195.138,95.558c32.521,0,49.48,19.357,49.48,51.013c0,31.381-17.245,51.031-49.48,51.031
	c-32.223,0-49.456-19.65-49.456-51.031C145.682,114.915,162.641,95.558,195.138,95.558 M195.138,178.102
	c15.956,0,22.329-15.264,22.329-31.531c0-17.096-6.373-31.507-22.329-31.507c-15.98,0-22.317,14.411-22.317,31.507
	C172.82,162.837,179.158,178.102,195.138,178.102z"/>
<polyline fill="#0085CE" points="256.48,97.258 282.784,97.258 282.784,134.982 313.873,134.982 313.873,97.258 340.14,97.258 
	340.14,195.896 313.873,195.896 313.873,153.648 282.784,153.648 282.784,195.896 256.48,195.896 256.48,97.258 "/>
<polyline fill="#0085CE" points="168.166,228.071 198.062,228.071 198.062,396.387 164.312,396.387 164.312,266.41 135.86,289.55 
	118.973,267.615 168.166,228.071 "/>
<path fill="#0085CE" d="M327.299,305.722v0.477c22.198,10.359,32.318,24.83,32.318,44.127c0,34.001-24.597,48.943-57.882,48.943
	c-32.784,0-59.302-14.208-59.302-48.454c0-18.82,10.598-31.835,30.851-41.723v-0.477c-16.875-7.477-27.975-21.458-27.975-39.067
	c0-30.152,22.902-44.372,53.526-44.372c29.681,0,56.426,12.304,56.426,40.511c0,15.187-9.393,32.802-27.962,40.267V305.722
	 M276.196,350.326c0,13.981,12.042,23.869,25.54,23.869c13.498,0,24.12-8.432,24.12-22.424c0-16.631-14.226-24.603-28.201-29.186
	C285.588,328.391,276.196,336.101,276.196,350.326z M322.967,271.476c0-12.549-7.972-21.226-20.73-21.226
	c-12.292,0-24.609,6.761-24.609,20.265c0,14.453,14.942,20.969,26.53,25.307C313.55,292.462,322.967,281.829,322.967,271.476z"/>
</svg>
