<svg xmlns="http://www.w3.org/2000/svg" xml:space="preserve" width="500" height="500"><path fill="#FFF" d="M250 29C104 29 29 110.2 29 250s75 221 221 221c145.9 0 221-81.2 221-221S396 29 250 29z"/><path fill="#0085CE" d="M250.024 50.995c132.042 0 198.981 66.94 198.981 199.005 0 132.054-66.94 199.018-198.981 199.018-132.066 0-199.029-66.964-199.029-199.018 0-132.065 66.963-199.005 199.029-199.005m0-40.995C91.512 10 10 98.195 10 250c0 151.817 81.512 240 240.024 240C408.512 490 490 401.817 490 250c0-151.805-81.488-240-239.976-240z"/><path fill="#0085CE" d="M173.333 228.064h29.896v168.323h-33.75V266.398l-28.463 23.152-16.864-21.935 49.181-39.551M262.531 365.99c8.927 3.867 18.081 6.755 29.418 6.755 29.191 0 39.061-27.008 40.028-52.094l-.489-.478c-7.948 11.815-18.307 16.887-32.545 16.887-31.829 0-49.193-20.252-49.193-51.365 0-36.412 17.842-60.519 55.936-60.519 46.783 0 57.154 38.822 57.154 78.373 0 45.565-14.691 95.726-69.195 95.726-12.304 0-23.869-1.933-35.457-6.027l4.343-27.258m66.558-85.844c0-15.908-6.767-29.896-23.403-29.896-15.669 0-22.162 15.192-22.162 30.134 0 16.398 6.743 31.59 22.902 31.59 16.386.001 22.663-14.953 22.663-31.828zM195.818 95.558c32.521 0 49.48 19.357 49.48 51.019 0 31.375-17.233 51.02-49.48 51.02-32.211 0-49.456-19.644-49.456-51.02 0-31.662 16.971-51.019 49.456-51.019m0 82.525c15.992 0 22.341-15.264 22.341-31.507 0-17.114-6.349-31.519-22.341-31.519-15.968 0-22.317 14.405-22.317 31.519 0 16.243 6.349 31.507 22.317 31.507zM257.185 97.264h26.279v37.713h31.101V97.264h26.279v98.626h-26.279v-42.26h-31.101v42.26h-26.279V97.264"/></svg>