<?xml version="1.0" encoding="utf-8"?>
<!-- Generator: Adobe Illustrator 15.0.0, SVG Export Plug-In . SVG Version: 6.00 Build 0)  -->
<!DOCTYPE svg PUBLIC "-//W3C//DTD SVG 1.1//EN" "http://www.w3.org/Graphics/SVG/1.1/DTD/svg11.dtd">
<svg version="1.1" id="レイヤー_21" xmlns="http://www.w3.org/2000/svg" xmlns:xlink="http://www.w3.org/1999/xlink" x="0px"
	 y="0px" width="500px" height="500px" viewBox="0 0 500 500" enable-background="new 0 0 500 500" xml:space="preserve">
<path fill="#FFFFFF" d="M250,29C104,29,29,110.2,29,250c0,139.8,75,221,221,221c145.9,0,221-81.2,221-221C471,110.2,396,29,250,29z"/>
<path fill="#0085CE" d="M250.024,50.995c132.042,0,198.981,66.94,198.981,199.005c0,132.054-66.94,199.018-198.981,199.018
	c-132.066,0-199.029-66.964-199.029-199.018C50.995,117.935,117.958,50.995,250.024,50.995 M250.024,10C91.512,10,10,98.195,10,250
	c0,151.817,81.512,240,240.024,240C408.512,490,490,401.817,490,250C490,98.195,408.512,10,250.024,10z"/>
<polyline fill="#0085CE" points="173.333,228.064 203.229,228.064 203.229,396.387 169.479,396.387 169.479,266.398 141.016,289.55 
	124.152,267.615 173.333,228.064 "/>
<path fill="#0085CE" d="M262.531,365.99c8.927,3.867,18.081,6.755,29.418,6.755c29.191,0,39.061-27.008,40.028-52.094l-0.489-0.478
	c-7.948,11.815-18.307,16.887-32.545,16.887c-31.829,0-49.193-20.252-49.193-51.365c0-36.412,17.842-60.519,55.936-60.519
	c46.783,0,57.154,38.822,57.154,78.373c0,45.565-14.691,95.726-69.195,95.726c-12.304,0-23.869-1.933-35.457-6.027L262.531,365.99
	 M329.089,280.146c0-15.908-6.767-29.896-23.403-29.896c-15.669,0-22.162,15.192-22.162,30.134c0,16.398,6.743,31.59,22.902,31.59
	C322.812,311.975,329.089,297.021,329.089,280.146z"/>
<path fill="#0085CE" d="M195.818,95.558c32.521,0,49.48,19.357,49.48,51.019c0,31.375-17.233,51.02-49.48,51.02
	c-32.211,0-49.456-19.644-49.456-51.02C146.362,114.915,163.333,95.558,195.818,95.558 M195.818,178.083
	c15.992,0,22.341-15.264,22.341-31.507c0-17.114-6.349-31.519-22.341-31.519c-15.968,0-22.317,14.405-22.317,31.519
	C173.501,162.819,179.85,178.083,195.818,178.083z"/>
<polyline fill="#0085CE" points="257.185,97.264 283.464,97.264 283.464,134.977 314.565,134.977 314.565,97.264 340.844,97.264 
	340.844,195.89 314.565,195.89 314.565,153.63 283.464,153.63 283.464,195.89 257.185,195.89 257.185,97.264 "/>
</svg>
