<svg xmlns="http://www.w3.org/2000/svg" xml:space="preserve" width="500" height="500"><path fill="#FFF" d="M250 29C104 29 29 110.2 29 250s75 221 221 221c145.9 0 221-81.2 221-221S396 29 250 29z"/><path fill="#0085CE" d="M250 50.995c132.054 0 199.005 66.94 199.005 199.005 0 132.054-66.952 199.018-199.005 199.018S50.971 382.054 50.971 250c0-132.065 66.975-199.005 199.029-199.005M250 10C91.488 10 10 98.195 10 250c0 151.817 81.488 240 240 240 158.488 0 240-88.183 240-240 0-151.805-81.512-240-240-240z"/><path fill="#0085CE" d="M125.763 396.387v-28.225c15.67-15.192 72.824-62.93 72.824-93.792 0-15.443-13.749-22.664-27.497-22.664-14.226 0-27.723 6.253-38.822 13.498l-2.638-27.974c15.181-7.734 32.772-12.054 49.91-12.054 32.067 0 52.797 16.159 52.797 49.193 0 35.684-35.922 68.479-63.419 95.487h68.73v26.53H125.763M258.366 312.703c0-42.2 12.793-87.526 58.359-87.526 49.193 0 58.836 48.465 58.836 87.526 0 39.073-10.121 86.572-58.836 86.572-51.843 0-58.359-51.365-58.359-86.572m83.433 0c0-21.697 0-62.453-25.074-62.453-24.597 0-24.597 40.756-24.597 62.453 0 21.231-.239 61.486 24.597 61.486 25.313 0 25.074-40.254 25.074-61.486zM196.88 95.558c32.521 0 49.468 19.357 49.468 51.019 0 31.375-17.245 51.02-49.468 51.02s-49.456-19.644-49.456-51.02c0-31.662 16.947-51.019 49.456-51.019m0 82.525c15.956 0 22.341-15.264 22.341-31.507 0-17.114-6.385-31.519-22.341-31.519-15.98 0-22.341 14.405-22.341 31.519 0 16.243 6.361 31.507 22.341 31.507zM258.223 97.264h26.291v37.713h31.089V97.264h26.292v98.626h-26.292v-42.26h-31.089v42.26h-26.291V97.264"/></svg>