<?xml version="1.0" encoding="utf-8"?>
<!-- Generator: Adobe Illustrator 15.0.0, SVG Export Plug-In . SVG Version: 6.00 Build 0)  -->
<!DOCTYPE svg PUBLIC "-//W3C//DTD SVG 1.1//EN" "http://www.w3.org/Graphics/SVG/1.1/DTD/svg11.dtd">
<svg version="1.1" id="レイヤー_22" xmlns="http://www.w3.org/2000/svg" xmlns:xlink="http://www.w3.org/1999/xlink" x="0px"
	 y="0px" width="500px" height="500px" viewBox="0 0 500 500" enable-background="new 0 0 500 500" xml:space="preserve">
<path fill="#FFFFFF" d="M250,29C104,29,29,110.2,29,250c0,139.8,75,221,221,221c145.9,0,221-81.2,221-221C471,110.2,396,29,250,29z"/>
<path fill="#0085CE" d="M250,50.995c132.054,0,199.005,66.94,199.005,199.005c0,132.054-66.952,199.018-199.005,199.018
	S50.971,382.054,50.971,250C50.971,117.935,117.946,50.995,250,50.995 M250,10C91.488,10,10,98.195,10,250
	c0,151.817,81.488,240,240,240c158.488,0,240-88.183,240-240C490,98.195,408.488,10,250,10z"/>
<path fill="#0085CE" d="M125.763,396.387v-28.225c15.67-15.192,72.824-62.93,72.824-93.792c0-15.443-13.749-22.664-27.497-22.664
	c-14.226,0-27.723,6.253-38.822,13.498l-2.638-27.974c15.181-7.734,32.772-12.054,49.91-12.054
	c32.067,0,52.797,16.159,52.797,49.193c0,35.684-35.922,68.479-63.419,95.487h68.73v26.53H125.763"/>
<path fill="#0085CE" d="M258.366,312.703c0-42.2,12.793-87.526,58.359-87.526c49.193,0,58.836,48.465,58.836,87.526
	c0,39.073-10.121,86.572-58.836,86.572C264.882,399.275,258.366,347.91,258.366,312.703 M341.799,312.703
	c0-21.697,0-62.453-25.074-62.453c-24.597,0-24.597,40.756-24.597,62.453c0,21.231-0.239,61.486,24.597,61.486
	C342.038,374.189,341.799,333.935,341.799,312.703z"/>
<path fill="#0085CE" d="M196.88,95.558c32.521,0,49.468,19.357,49.468,51.019c0,31.375-17.245,51.02-49.468,51.02
	c-32.223,0-49.456-19.644-49.456-51.02C147.424,114.915,164.371,95.558,196.88,95.558 M196.88,178.083
	c15.956,0,22.341-15.264,22.341-31.507c0-17.114-6.385-31.519-22.341-31.519c-15.98,0-22.341,14.405-22.341,31.519
	C174.539,162.819,180.9,178.083,196.88,178.083z"/>
<polyline fill="#0085CE" points="258.223,97.264 284.514,97.264 284.514,134.977 315.603,134.977 315.603,97.264 341.895,97.264 
	341.895,195.89 315.603,195.89 315.603,153.63 284.514,153.63 284.514,195.89 258.223,195.89 258.223,97.264 "/>
</svg>
