<?xml version="1.0" encoding="utf-8"?>
<!-- Generator: Adobe Illustrator 15.0.0, SVG Export Plug-In . SVG Version: 6.00 Build 0)  -->
<!DOCTYPE svg PUBLIC "-//W3C//DTD SVG 1.1//EN" "http://www.w3.org/Graphics/SVG/1.1/DTD/svg11.dtd">
<svg version="1.1" id="レイヤー_23" xmlns="http://www.w3.org/2000/svg" xmlns:xlink="http://www.w3.org/1999/xlink" x="0px"
	 y="0px" width="500px" height="500px" viewBox="0 0 500 500" enable-background="new 0 0 500 500" xml:space="preserve">
<path fill="#FFFFFF" d="M250,29C104,29,29,110.2,29,250c0,139.8,75,221,221,221c145.9,0,221-81.2,221-221C471,110.2,396,29,250,29z"/>
<path fill="#0085CE" d="M250,50.995c132.06,0,199.018,66.94,199.018,199.005c0,132.054-66.958,199.018-199.018,199.018
	S50.971,382.054,50.971,250C50.971,117.935,117.94,50.995,250,50.995 M250,10C91.494,10,9.994,98.195,9.994,250
	c0,151.817,81.5,240,240.006,240c158.488,0,240.006-88.183,240.006-240C490.006,98.195,408.488,10,250,10z"/>
<path fill="#0085CE" d="M137.913,396.387v-28.225c15.664-15.192,72.823-62.93,72.823-93.792c0-15.443-13.736-22.664-27.485-22.664
	c-14.226,0-27.741,6.253-38.84,13.498l-2.649-27.974c15.198-7.734,32.802-12.054,49.91-12.054c32.08,0,52.815,16.159,52.815,49.193
	c0,35.684-35.917,68.479-63.413,95.487h68.718v26.53H137.913"/>
<polyline fill="#0085CE" points="320.675,228.064 350.565,228.064 350.565,396.387 316.809,396.387 316.809,266.398 288.363,289.55 
	271.482,267.615 320.675,228.064 "/>
<path fill="#0085CE" d="M195.752,95.558c32.509,0,49.48,19.357,49.48,51.019c0,31.375-17.257,51.02-49.48,51.02
	c-32.229,0-49.468-19.644-49.468-51.02C146.284,114.915,163.243,95.558,195.752,95.558 M195.752,178.083
	c15.974,0,22.329-15.264,22.329-31.507c0-17.114-6.355-31.519-22.329-31.519s-22.329,14.405-22.329,31.519
	C173.423,162.819,179.778,178.083,195.752,178.083z"/>
<polyline fill="#0085CE" points="257.101,97.264 283.386,97.264 283.386,134.977 314.476,134.977 314.476,97.264 340.761,97.264 
	340.761,195.89 314.476,195.89 314.476,153.63 283.386,153.63 283.386,195.89 257.101,195.89 257.101,97.264 "/>
</svg>
