<svg xmlns="http://www.w3.org/2000/svg" xml:space="preserve" width="500" height="500"><path fill="#FFF" d="M250 29C104 29 29 110.2 29 250s75 221 221 221c145.9 0 221-81.2 221-221S396 29 250 29z"/><path fill="#0085CE" d="M250 50.995c132.06 0 199.018 66.94 199.018 199.005 0 132.054-66.958 199.018-199.018 199.018S50.971 382.054 50.971 250C50.971 117.935 117.94 50.995 250 50.995M250 10C91.494 10 9.994 98.195 9.994 250c0 151.817 81.5 240 240.006 240 158.488 0 240.006-88.183 240.006-240 0-151.805-81.518-240-240.006-240z"/><path fill="#0085CE" d="M137.913 396.387v-28.225c15.664-15.192 72.823-62.93 72.823-93.792 0-15.443-13.736-22.664-27.485-22.664-14.226 0-27.741 6.253-38.84 13.498l-2.649-27.974c15.198-7.734 32.802-12.054 49.91-12.054 32.08 0 52.815 16.159 52.815 49.193 0 35.684-35.917 68.479-63.413 95.487h68.718v26.53H137.913M320.675 228.064h29.89v168.323h-33.756V266.398l-28.446 23.152-16.881-21.935 49.193-39.551M195.752 95.558c32.509 0 49.48 19.357 49.48 51.019 0 31.375-17.257 51.02-49.48 51.02-32.229 0-49.468-19.644-49.468-51.02 0-31.662 16.959-51.019 49.468-51.019m0 82.525c15.974 0 22.329-15.264 22.329-31.507 0-17.114-6.355-31.519-22.329-31.519s-22.329 14.405-22.329 31.519c0 16.243 6.355 31.507 22.329 31.507zM257.101 97.264h26.285v37.713h31.09V97.264h26.285v98.626h-26.285v-42.26h-31.09v42.26h-26.285V97.264"/></svg>