<?xml version="1.0" encoding="utf-8"?>
<!-- Generator: Adobe Illustrator 15.0.0, SVG Export Plug-In . SVG Version: 6.00 Build 0)  -->
<!DOCTYPE svg PUBLIC "-//W3C//DTD SVG 1.1//EN" "http://www.w3.org/Graphics/SVG/1.1/DTD/svg11.dtd">
<svg version="1.1" id="レイヤー_24" xmlns="http://www.w3.org/2000/svg" xmlns:xlink="http://www.w3.org/1999/xlink" x="0px"
	 y="0px" width="500px" height="500px" viewBox="0 0 500 500" enable-background="new 0 0 500 500" xml:space="preserve">
<path fill="#FFFFFF" d="M250,29C104,29,29,110.2,29,250c0,139.8,75,221,221,221c145.9,0,221-81.2,221-221C471,110.2,396,29,250,29z"/>
<path fill="#0085CE" d="M250.012,50.985c132.048,0,198.992,66.955,198.992,199.003c0,132.06-66.943,199.027-198.992,199.027
	c-132.06,0-199.015-66.967-199.015-199.027C50.997,117.94,117.952,50.985,250.012,50.985 M250.012,10
	C91.492,10,10,98.188,10,249.988C10,401.813,91.492,490,250.012,490C408.508,490,490,401.813,490,249.988
	C490,98.188,408.508,10,250.012,10z"/>
<path fill="#0085CE" d="M124.624,396.394v-28.238c15.646-15.193,72.815-62.921,72.815-93.797c0-15.432-13.737-22.665-27.486-22.665
	c-14.227,0-27.737,6.266-38.848,13.499l-2.625-27.976c15.193-7.722,32.785-12.054,49.9-12.054c32.081,0,52.824,16.16,52.824,49.196
	c0,35.686-35.937,68.482-63.435,95.503h68.733v26.531H124.624"/>
<path fill="#0085CE" d="M258.677,396.394v-28.238c15.683-15.193,72.827-62.921,72.827-93.797c0-15.432-13.749-22.665-27.498-22.665
	c-14.215,0-27.737,6.266-38.813,13.499l-2.662-27.976c15.181-7.722,32.809-12.054,49.924-12.054
	c32.045,0,52.812,16.16,52.812,49.196c0,35.686-35.936,68.482-63.434,95.503h68.733v26.531H258.677"/>
<path fill="#0085CE" d="M194.836,95.55c32.499,0,49.471,19.358,49.471,51.022c0,31.377-17.234,51.022-49.471,51.022
	c-32.236,0-49.482-19.645-49.482-51.022C145.354,114.908,162.338,95.55,194.836,95.55 M194.836,178.08
	c15.981,0,22.318-15.265,22.318-31.508c0-17.103-6.337-31.521-22.318-31.521c-15.969,0-22.33,14.417-22.33,31.521
	C172.506,162.815,178.868,178.08,194.836,178.08z"/>
<polyline fill="#0085CE" points="256.182,97.245 282.475,97.245 282.475,134.971 313.565,134.971 313.565,97.245 339.846,97.245 
	339.846,195.899 313.565,195.899 313.565,153.625 282.475,153.625 282.475,195.899 256.182,195.899 256.182,97.245 "/>
</svg>
