<svg xmlns="http://www.w3.org/2000/svg" xml:space="preserve" width="500" height="500"><path fill="#FFF" d="M250 29C104 29 29 110.2 29 250s75 221 221 221c145.9 0 221-81.2 221-221S396 29 250 29z"/><path fill="#0085CE" d="M250.012 50.985c132.048 0 198.992 66.955 198.992 199.003 0 132.06-66.943 199.027-198.992 199.027-132.06 0-199.015-66.967-199.015-199.027 0-132.048 66.955-199.003 199.015-199.003m0-40.985C91.492 10 10 98.188 10 249.988 10 401.813 91.492 490 250.012 490 408.508 490 490 401.813 490 249.988 490 98.188 408.508 10 250.012 10z"/><path fill="#0085CE" d="M124.624 396.394v-28.238c15.646-15.193 72.815-62.921 72.815-93.797 0-15.432-13.737-22.665-27.486-22.665-14.227 0-27.737 6.266-38.848 13.499l-2.625-27.976c15.193-7.722 32.785-12.054 49.9-12.054 32.081 0 52.824 16.16 52.824 49.196 0 35.686-35.937 68.482-63.435 95.503h68.733v26.531H124.624M258.677 396.394v-28.238c15.683-15.193 72.827-62.921 72.827-93.797 0-15.432-13.749-22.665-27.498-22.665-14.215 0-27.737 6.266-38.813 13.499l-2.662-27.976c15.181-7.722 32.809-12.054 49.924-12.054 32.045 0 52.812 16.16 52.812 49.196 0 35.686-35.936 68.482-63.434 95.503h68.733v26.531H258.677M194.836 95.55c32.499 0 49.471 19.358 49.471 51.022 0 31.377-17.234 51.022-49.471 51.022-32.236 0-49.482-19.645-49.482-51.022 0-31.664 16.984-51.022 49.482-51.022m0 82.53c15.981 0 22.318-15.265 22.318-31.508 0-17.103-6.337-31.521-22.318-31.521-15.969 0-22.33 14.417-22.33 31.521 0 16.243 6.362 31.508 22.33 31.508zM256.182 97.245h26.293v37.726h31.09V97.245h26.281v98.654h-26.281v-42.274h-31.09v42.274h-26.293V97.245"/></svg>