<svg xmlns="http://www.w3.org/2000/svg" xml:space="preserve" width="500" height="500"><path fill="#FFF" d="M250 29C104 29 29 110.2 29 250s75 221 221 221c145.9 0 221-81.2 221-221S396 29 250 29z"/><path fill="#0085CE" d="M249.988 50.995c132.065 0 199.017 66.94 199.017 199.005 0 132.054-66.952 199.018-199.017 199.018-132.042 0-199.012-66.964-199.012-199.018.001-132.065 66.97-199.005 199.012-199.005m0-40.995C91.488 10 10 98.195 10 250c0 151.817 81.488 240 239.988 240C408.5 490 490 401.817 490 250c0-151.805-81.5-240-240.012-240z"/><path fill="#0085CE" d="M129.773 396.387v-28.225c15.669-15.192 72.812-62.93 72.812-93.792 0-15.443-13.737-22.664-27.485-22.664-14.22 0-27.724 6.253-38.823 13.498l-2.637-27.974c15.187-7.734 32.771-12.054 49.897-12.054 32.08 0 52.815 16.159 52.815 49.193 0 35.684-35.917 68.479-63.413 95.487h68.718v26.53H129.773M266.708 365.035c11.588 4.583 24.131 7.71 37.391 7.71 13.975 0 35.433-6.755 35.433-23.857 0-19.787-15.682-26.303-37.14-26.303h-16.386v-26.519h15.431c22.688 0 37.391-7.482 37.391-22.174 0-16.899-13.749-22.186-28.929-22.186-13.271 0-26.053 3.127-37.879 8.915l-1.91-27.02c13.486-5.299 29.645-8.425 46.998-8.425 20.754 0 55.459 7.232 55.459 43.167 0 22.902-14.226 33.75-31.34 40.267v.489c21.47 2.876 32.068 19.524 32.068 40.016 0 40.028-36.4 50.16-64.386 50.16-14.703 0-31.579-1.933-44.122-5.549l1.921-28.691M196.391 95.558c32.509 0 49.468 19.357 49.468 51.031 0 31.363-17.239 51.019-49.468 51.019s-49.468-19.656-49.468-51.019c0-31.674 16.959-51.031 49.468-51.031m0 82.525c15.974 0 22.341-15.264 22.341-31.495 0-17.102-6.367-31.519-22.341-31.519-15.962 0-22.341 14.417-22.341 31.519 0 16.231 6.379 31.495 22.341 31.495zM257.733 97.264h26.292v37.725h31.077V97.264h26.303v98.637h-26.303V153.63h-31.077v42.271h-26.292V97.264"/></svg>