<?xml version="1.0" encoding="utf-8"?>
<!-- Generator: Adobe Illustrator 15.0.0, SVG Export Plug-In . SVG Version: 6.00 Build 0)  -->
<!DOCTYPE svg PUBLIC "-//W3C//DTD SVG 1.1//EN" "http://www.w3.org/Graphics/SVG/1.1/DTD/svg11.dtd">
<svg version="1.1" id="レイヤー_25" xmlns="http://www.w3.org/2000/svg" xmlns:xlink="http://www.w3.org/1999/xlink" x="0px"
	 y="0px" width="500px" height="500px" viewBox="0 0 500 500" enable-background="new 0 0 500 500" xml:space="preserve">
<path fill="#FFFFFF" d="M250,29C104,29,29,110.2,29,250c0,139.8,75,221,221,221c145.9,0,221-81.2,221-221C471,110.2,396,29,250,29z"/>
<path fill="#0085CE" d="M249.988,50.995c132.065,0,199.017,66.94,199.017,199.005c0,132.054-66.952,199.018-199.017,199.018
	c-132.042,0-199.012-66.964-199.012-199.018C50.977,117.935,117.946,50.995,249.988,50.995 M249.988,10C91.488,10,10,98.195,10,250
	c0,151.817,81.488,240,239.988,240C408.5,490,490,401.817,490,250C490,98.195,408.5,10,249.988,10z"/>
<path fill="#0085CE" d="M129.773,396.387v-28.225c15.669-15.192,72.812-62.93,72.812-93.792c0-15.443-13.737-22.664-27.485-22.664
	c-14.22,0-27.724,6.253-38.823,13.498l-2.637-27.974c15.187-7.734,32.771-12.054,49.897-12.054c32.08,0,52.815,16.159,52.815,49.193
	c0,35.684-35.917,68.479-63.413,95.487h68.718v26.53H129.773"/>
<path fill="#0085CE" d="M266.708,365.035c11.588,4.583,24.131,7.71,37.391,7.71c13.975,0,35.433-6.755,35.433-23.857
	c0-19.787-15.682-26.303-37.14-26.303h-16.386v-26.519h15.431c22.688,0,37.391-7.482,37.391-22.174
	c0-16.899-13.749-22.186-28.929-22.186c-13.271,0-26.053,3.127-37.879,8.915l-1.91-27.02c13.486-5.299,29.645-8.425,46.998-8.425
	c20.754,0,55.459,7.232,55.459,43.167c0,22.902-14.226,33.75-31.34,40.267v0.489c21.47,2.876,32.068,19.524,32.068,40.016
	c0,40.028-36.4,50.16-64.386,50.16c-14.703,0-31.579-1.933-44.122-5.549L266.708,365.035"/>
<path fill="#0085CE" d="M196.391,95.558c32.509,0,49.468,19.357,49.468,51.031c0,31.363-17.239,51.019-49.468,51.019
	c-32.229,0-49.468-19.656-49.468-51.019C146.923,114.915,163.882,95.558,196.391,95.558 M196.391,178.083
	c15.974,0,22.341-15.264,22.341-31.495c0-17.102-6.367-31.519-22.341-31.519c-15.962,0-22.341,14.417-22.341,31.519
	C174.05,162.819,180.429,178.083,196.391,178.083z"/>
<polyline fill="#0085CE" points="257.733,97.264 284.025,97.264 284.025,134.989 315.102,134.989 315.102,97.264 341.405,97.264 
	341.405,195.901 315.102,195.901 315.102,153.63 284.025,153.63 284.025,195.901 257.733,195.901 257.733,97.264 "/>
</svg>
