<?xml version="1.0" encoding="utf-8"?>
<!-- Generator: Adobe Illustrator 15.0.0, SVG Export Plug-In . SVG Version: 6.00 Build 0)  -->
<!DOCTYPE svg PUBLIC "-//W3C//DTD SVG 1.1//EN" "http://www.w3.org/Graphics/SVG/1.1/DTD/svg11.dtd">
<svg version="1.1" id="レイヤー_26" xmlns="http://www.w3.org/2000/svg" xmlns:xlink="http://www.w3.org/1999/xlink" x="0px"
	 y="0px" width="500px" height="500px" viewBox="0 0 500 500" enable-background="new 0 0 500 500" xml:space="preserve">
<path fill="#FFFFFF" d="M250,29C104,29,29,110.2,29,250c0,139.8,75,221,221,221c145.9,0,221-81.2,221-221C471,110.2,396,29,250,29z"/>
<path fill="#0085CE" d="M250.006,50.994c132.042,0,199.018,66.94,199.018,199.006c0,132.053-66.976,199.018-199.018,199.018
	c-132.054,0-199.029-66.964-199.029-199.018C50.977,117.935,117.952,50.994,250.006,50.994 M250.006,10c-158.5,0-240,88.195-240,240
	c0,151.817,81.5,240,240,240c158.488,0,239.988-88.183,239.988-240C489.994,98.195,408.494,10,250.006,10z"/>
<path fill="#0085CE" d="M129.779,396.387v-28.225c15.67-15.192,72.824-62.93,72.824-93.792c0-15.443-13.736-22.664-27.485-22.664
	c-14.226,0-27.748,6.254-38.834,13.498l-2.649-27.974c15.192-7.734,32.795-12.054,49.897-12.054
	c32.08,0,52.822,16.159,52.822,49.194c0,35.684-35.911,68.479-63.407,95.487h68.718v26.53H129.779"/>
<path fill="#0085CE" d="M257.799,334.173l62.941-106.108h41.949v108.269h21.458v25.074H362.69v34.98h-32.306v-34.98h-72.584V334.173
	 M330.384,336.333v-73.063h-0.478l-41.723,73.063H330.384z"/>
<path fill="#0085CE" d="M196.409,95.558c32.497,0,49.468,19.357,49.468,51.031c0,31.364-17.245,51.02-49.468,51.02
	c-32.247,0-49.48-19.656-49.48-51.02C146.929,114.915,163.899,95.558,196.409,95.558 M196.409,178.083
	c15.956,0,22.317-15.264,22.317-31.495c0-17.102-6.361-31.519-22.317-31.519c-15.98,0-22.341,14.417-22.341,31.519
	C174.067,162.819,180.428,178.083,196.409,178.083z"/>
<polyline fill="#0085CE" points="257.739,97.264 284.031,97.264 284.031,134.988 315.12,134.988 315.12,97.264 341.399,97.264 
	341.399,195.901 315.12,195.901 315.12,153.63 284.031,153.63 284.031,195.901 257.739,195.901 257.739,97.264 "/>
</svg>
