<svg xmlns="http://www.w3.org/2000/svg" xml:space="preserve" width="500" height="500"><path fill="#FFF" d="M250 29C104 29 29 110.2 29 250s75 221 221 221c145.9 0 221-81.2 221-221S396 29 250 29z"/><path fill="#0085CE" d="M250.006 50.994c132.042 0 199.018 66.94 199.018 199.006 0 132.053-66.976 199.018-199.018 199.018-132.054 0-199.029-66.964-199.029-199.018 0-132.065 66.975-199.006 199.029-199.006m0-40.994c-158.5 0-240 88.195-240 240 0 151.817 81.5 240 240 240 158.488 0 239.988-88.183 239.988-240 0-151.805-81.5-240-239.988-240z"/><path fill="#0085CE" d="M129.779 396.387v-28.225c15.67-15.192 72.824-62.93 72.824-93.792 0-15.443-13.736-22.664-27.485-22.664-14.226 0-27.748 6.254-38.834 13.498l-2.649-27.974c15.192-7.734 32.795-12.054 49.897-12.054 32.08 0 52.822 16.159 52.822 49.194 0 35.684-35.911 68.479-63.407 95.487h68.718v26.53H129.779M257.799 334.173l62.941-106.108h41.949v108.269h21.458v25.074H362.69v34.98h-32.306v-34.98H257.8v-27.235m72.584 2.16V263.27h-.478l-41.723 73.063h42.201zM196.409 95.558c32.497 0 49.468 19.357 49.468 51.031 0 31.364-17.245 51.02-49.468 51.02-32.247 0-49.48-19.656-49.48-51.02 0-31.674 16.97-51.031 49.48-51.031m0 82.525c15.956 0 22.317-15.264 22.317-31.495 0-17.102-6.361-31.519-22.317-31.519-15.98 0-22.341 14.417-22.341 31.519-.001 16.231 6.36 31.495 22.341 31.495zM257.739 97.264h26.292v37.724h31.089V97.264h26.279v98.637H315.12V153.63h-31.089v42.271h-26.292V97.264"/></svg>