<svg xmlns="http://www.w3.org/2000/svg" xml:space="preserve" width="500" height="500"><path fill="#FFF" d="M250 29C104 29 29 110.2 29 250s75 221 221 221c145.9 0 221-81.2 221-221S396 29 250 29z"/><path fill="#0085CE" d="M250.006 50.982c132.054 0 199.005 66.952 199.005 199.006 0 132.065-66.952 199.029-199.005 199.029-132.065 0-199.017-66.964-199.017-199.029 0-132.053 66.951-199.006 199.017-199.006m0-40.982C91.494 10 9.994 98.183 9.994 249.988 9.994 401.805 91.494 490 250.006 490c158.5 0 240-88.195 240-240.012 0-151.805-81.5-239.988-240-239.988z"/><path fill="#0085CE" d="M129.779 396.387V368.15c15.658-15.193 72.823-62.918 72.823-93.792 0-15.419-13.736-22.663-27.485-22.663-14.226 0-27.747 6.277-38.846 13.498l-2.649-27.962c15.216-7.734 32.795-12.078 49.91-12.078 32.08 0 52.833 16.171 52.833 49.205 0 35.684-35.934 68.479-63.431 95.487h68.718v26.542H129.779M372.095 253.139H307.22l-.704 35.935c3.855-.728 8.915-1.683 15.431-1.683 23.618 0 54.253 11.087 54.253 54.719 0 31.59-22.186 57.154-65.579 57.154-13.044 0-28.225-2.172-39.324-4.833l.728-30.11c8.199 3.354 19.787 8.414 34.49 8.414 17.591 0 35.911-8.187 35.911-29.657 0-21.708-19.286-29.156-38.572-29.156-10.371 0-20.253 1.432-30.146 4.583l1.707-90.439h96.681v25.073M196.397 95.569c32.497 0 49.479 19.357 49.479 51.007 0 31.388-17.245 51.02-49.479 51.02-32.235 0-49.48-19.632-49.48-51.02 0-31.649 16.982-51.007 49.48-51.007m0 82.527c15.98 0 22.317-15.264 22.317-31.519 0-17.114-6.337-31.519-22.317-31.519-15.968 0-22.341 14.405-22.341 31.519 0 16.255 6.373 31.519 22.341 31.519zM257.751 97.264h26.268v37.713h31.101V97.264h26.279v98.637H315.12v-42.259h-31.101v42.259h-26.268V97.264"/></svg>