<?xml version="1.0" encoding="utf-8"?>
<!-- Generator: Adobe Illustrator 15.0.0, SVG Export Plug-In . SVG Version: 6.00 Build 0)  -->
<!DOCTYPE svg PUBLIC "-//W3C//DTD SVG 1.1//EN" "http://www.w3.org/Graphics/SVG/1.1/DTD/svg11.dtd">
<svg version="1.1" id="レイヤー_27" xmlns="http://www.w3.org/2000/svg" xmlns:xlink="http://www.w3.org/1999/xlink" x="0px"
	 y="0px" width="500px" height="500px" viewBox="0 0 500 500" enable-background="new 0 0 500 500" xml:space="preserve">
<path fill="#FFFFFF" d="M250,29C104,29,29,110.2,29,250c0,139.8,75,221,221,221c145.9,0,221-81.2,221-221C471,110.2,396,29,250,29z"/>
<path fill="#0085CE" d="M250.006,50.982c132.054,0,199.005,66.952,199.005,199.006c0,132.065-66.952,199.029-199.005,199.029
	c-132.065,0-199.017-66.964-199.017-199.029C50.989,117.935,117.94,50.982,250.006,50.982 M250.006,10
	C91.494,10,9.994,98.183,9.994,249.988C9.994,401.805,91.494,490,250.006,490c158.5,0,240-88.195,240-240.012
	C490.006,98.183,408.506,10,250.006,10z"/>
<path fill="#0085CE" d="M129.779,396.387V368.15c15.658-15.193,72.823-62.918,72.823-93.792c0-15.419-13.736-22.663-27.485-22.663
	c-14.226,0-27.747,6.277-38.846,13.498l-2.649-27.962c15.216-7.734,32.795-12.078,49.91-12.078c32.08,0,52.833,16.171,52.833,49.205
	c0,35.684-35.934,68.479-63.431,95.487h68.718v26.542H129.779"/>
<path fill="#0085CE" d="M372.095,253.139h-64.875l-0.704,35.935c3.855-0.728,8.915-1.683,15.431-1.683
	c23.618,0,54.253,11.087,54.253,54.719c0,31.59-22.186,57.154-65.579,57.154c-13.044,0-28.225-2.172-39.324-4.833l0.728-30.11
	c8.199,3.354,19.787,8.414,34.49,8.414c17.591,0,35.911-8.187,35.911-29.657c0-21.708-19.286-29.156-38.572-29.156
	c-10.371,0-20.253,1.432-30.146,4.583l1.707-90.439h96.681V253.139"/>
<path fill="#0085CE" d="M196.397,95.569c32.497,0,49.479,19.357,49.479,51.007c0,31.388-17.245,51.02-49.479,51.02
	c-32.235,0-49.48-19.632-49.48-51.02C146.917,114.927,163.899,95.569,196.397,95.569 M196.397,178.096
	c15.98,0,22.317-15.264,22.317-31.519c0-17.114-6.337-31.519-22.317-31.519c-15.968,0-22.341,14.405-22.341,31.519
	C174.056,162.832,180.429,178.096,196.397,178.096z"/>
<polyline fill="#0085CE" points="257.751,97.264 284.019,97.264 284.019,134.977 315.12,134.977 315.12,97.264 341.399,97.264 
	341.399,195.901 315.12,195.901 315.12,153.642 284.019,153.642 284.019,195.901 257.751,195.901 257.751,97.264 "/>
</svg>
