<?xml version="1.0" encoding="utf-8"?>
<!-- Generator: Adobe Illustrator 15.0.0, SVG Export Plug-In . SVG Version: 6.00 Build 0)  -->
<!DOCTYPE svg PUBLIC "-//W3C//DTD SVG 1.1//EN" "http://www.w3.org/Graphics/SVG/1.1/DTD/svg11.dtd">
<svg version="1.1" id="レイヤー_28" xmlns="http://www.w3.org/2000/svg" xmlns:xlink="http://www.w3.org/1999/xlink" x="0px"
	 y="0px" width="500px" height="500px" viewBox="0 0 500 500" enable-background="new 0 0 500 500" xml:space="preserve">
<path fill="#FFFFFF" d="M250,29C104,29,29,110.2,29,250c0,139.8,75,221,221,221c145.9,0,221-81.2,221-221C471,110.2,396,29,250,29z"/>
<path fill="#0085CE" d="M249.994,50.982c132.065,0,199.017,66.952,199.017,199.006c0,132.065-66.952,199.029-199.017,199.029
	c-132.042,0-199.005-66.964-199.005-199.029C50.989,117.935,117.952,50.982,249.994,50.982 M249.994,10
	C91.506,10,10.006,98.183,10.006,249.988C10.006,401.805,91.506,490,249.994,490c158.5,0,240-88.195,240-240.012
	C489.994,98.183,408.494,10,249.994,10z"/>
<path fill="#0085CE" d="M124.11,396.625v-28.201c15.67-15.216,72.824-62.954,72.824-93.816c0-15.431-13.749-22.663-27.497-22.663
	c-14.226,0-27.735,6.266-38.811,13.498l-2.673-27.962c15.192-7.722,32.808-12.066,49.934-12.066
	c32.056,0,52.797,16.171,52.797,49.193c0,35.696-35.922,68.479-63.407,95.499h68.718v26.518H124.11"/>
<path fill="#0085CE" d="M359.206,258.688c-8.939-3.843-18.104-6.743-29.43-6.743c-29.18,0-39.062,27.007-40.04,52.082l0.489,0.489
	c7.972-11.576,18.319-16.875,32.557-16.875c31.841,0,49.193,20.241,49.193,51.354c0,36.412-17.83,60.531-55.937,60.531
	c-46.783,0-57.153-38.834-57.153-78.373c0-45.589,14.691-95.738,69.207-95.738c12.305,0,23.869,1.945,35.445,6.051L359.206,258.688
	 M292.647,344.544c0,15.909,6.731,29.884,23.391,29.884c15.67,0,22.174-15.168,22.174-30.123c0-16.41-6.755-31.602-22.914-31.602
	C298.901,312.703,292.647,327.669,292.647,344.544z"/>
<path fill="#0085CE" d="M190.334,95.796c32.509,0,49.468,19.37,49.468,51.02c0,31.387-17.245,51.031-49.468,51.031
	c-32.223,0-49.468-19.644-49.468-51.031C140.866,115.166,157.825,95.796,190.334,95.796 M190.334,178.334
	c15.957,0,22.341-15.264,22.341-31.519c0-17.102-6.385-31.507-22.341-31.507c-15.968,0-22.341,14.405-22.341,31.507
	C167.993,163.07,174.366,178.334,190.334,178.334z"/>
<polyline fill="#0085CE" points="251.665,97.503 277.968,97.503 277.968,135.227 309.045,135.227 309.045,97.503 335.349,97.503 
	335.349,196.14 309.045,196.14 309.045,153.881 277.968,153.881 277.968,196.14 251.665,196.14 251.665,97.503 "/>
</svg>
