<svg xmlns="http://www.w3.org/2000/svg" xml:space="preserve" width="500" height="500"><path fill="#FFF" d="M250 29C104 29 29 110.2 29 250s75 221 221 221c145.9 0 221-81.2 221-221S396 29 250 29z"/><path fill="#0085CE" d="M249.994 50.982c132.065 0 199.017 66.952 199.017 199.006 0 132.065-66.952 199.029-199.017 199.029-132.042 0-199.005-66.964-199.005-199.029 0-132.053 66.963-199.006 199.005-199.006m0-40.982C91.506 10 10.006 98.183 10.006 249.988 10.006 401.805 91.506 490 249.994 490c158.5 0 240-88.195 240-240.012 0-151.805-81.5-239.988-240-239.988z"/><path fill="#0085CE" d="M124.11 396.625v-28.201c15.67-15.216 72.824-62.954 72.824-93.816 0-15.431-13.749-22.663-27.497-22.663-14.226 0-27.735 6.266-38.811 13.498l-2.673-27.962c15.192-7.722 32.808-12.066 49.934-12.066 32.056 0 52.797 16.171 52.797 49.193 0 35.696-35.922 68.479-63.407 95.499h68.718v26.518H124.11M359.206 258.688c-8.939-3.843-18.104-6.743-29.43-6.743-29.18 0-39.062 27.007-40.04 52.082l.489.489c7.972-11.576 18.319-16.875 32.557-16.875 31.841 0 49.193 20.241 49.193 51.354 0 36.412-17.83 60.531-55.937 60.531-46.783 0-57.153-38.834-57.153-78.373 0-45.589 14.691-95.738 69.207-95.738 12.305 0 23.869 1.945 35.445 6.051l-4.331 27.222m-66.559 85.856c0 15.909 6.731 29.884 23.391 29.884 15.67 0 22.174-15.168 22.174-30.123 0-16.41-6.755-31.602-22.914-31.602-16.397 0-22.651 14.966-22.651 31.841zM190.334 95.796c32.509 0 49.468 19.37 49.468 51.02 0 31.387-17.245 51.031-49.468 51.031s-49.468-19.644-49.468-51.031c0-31.65 16.959-51.02 49.468-51.02m0 82.538c15.957 0 22.341-15.264 22.341-31.519 0-17.102-6.385-31.507-22.341-31.507-15.968 0-22.341 14.405-22.341 31.507 0 16.255 6.373 31.519 22.341 31.519zM251.665 97.503h26.303v37.724h31.077V97.503h26.304v98.637h-26.304v-42.259h-31.077v42.259h-26.303V97.503"/></svg>