<?xml version="1.0" encoding="utf-8"?>
<!-- Generator: Adobe Illustrator 15.0.0, SVG Export Plug-In . SVG Version: 6.00 Build 0)  -->
<!DOCTYPE svg PUBLIC "-//W3C//DTD SVG 1.1//EN" "http://www.w3.org/Graphics/SVG/1.1/DTD/svg11.dtd">
<svg version="1.1" id="レイヤー_29" xmlns="http://www.w3.org/2000/svg" xmlns:xlink="http://www.w3.org/1999/xlink" x="0px"
	 y="0px" width="500px" height="500px" viewBox="0 0 500 500" enable-background="new 0 0 500 500" xml:space="preserve">
<path fill="#FFFFFF" d="M250,29C104,29,29,110.2,29,250c0,139.8,75,221,221,221c145.9,0,221-81.2,221-221C471,110.2,396,29,250,29z"/>
<path fill="#0085CE" d="M250,50.985c132.06,0,199.016,66.955,199.016,199.003c0,132.06-66.956,199.027-199.016,199.027
	S50.997,382.048,50.997,249.988C50.997,117.94,117.94,50.985,250,50.985 M250,10C91.492,10,9.988,98.188,9.988,249.988
	C9.988,401.813,91.492,490,250,490s240.012-88.188,240.012-240.012C490.012,98.188,408.508,10,250,10z"/>
<path fill="#0085CE" d="M195.135,95.55c32.522,0,49.482,19.347,49.482,51.01c0,31.389-17.246,51.022-49.482,51.022
	c-32.225,0-49.458-19.633-49.458-51.022C145.677,114.896,162.636,95.55,195.135,95.55 M195.135,178.08
	c15.957,0,22.33-15.265,22.33-31.521c0-17.103-6.373-31.52-22.33-31.52c-15.981,0-22.319,14.417-22.319,31.52
	C172.816,162.815,179.154,178.08,195.135,178.08z"/>
<polyline fill="#0085CE" points="256.48,97.245 282.785,97.245 282.785,134.971 313.876,134.971 313.876,97.245 340.145,97.245 
	340.145,195.887 313.876,195.887 313.876,153.625 282.785,153.625 282.785,195.887 256.48,195.887 256.48,97.245 "/>
<path fill="#0085CE" d="M129.099,396.394v-28.238c15.67-15.193,72.815-62.921,72.815-93.797c0-15.42-13.737-22.665-27.486-22.665
	c-14.227,0-27.725,6.278-38.813,13.499l-2.661-27.964c15.193-7.734,32.797-12.078,49.924-12.078c32.069,0,52.8,16.172,52.8,49.208
	c0,35.686-35.924,68.482-63.411,95.491h68.722v26.543H129.099"/>
<polyline fill="#0085CE" points="265.325,228.063 373.849,228.063 373.849,256.027 314.031,396.394 277.379,396.394 
	339.846,254.583 265.325,254.583 265.325,228.063 "/>
</svg>
