<svg xmlns="http://www.w3.org/2000/svg" xml:space="preserve" width="500" height="500"><path fill="#FFF" d="M250 29C104 29 29 110.2 29 250s75 221 221 221c145.9 0 221-81.2 221-221S396 29 250 29z"/><path fill="#0085CE" d="M250 50.985c132.06 0 199.016 66.955 199.016 199.003 0 132.06-66.956 199.027-199.016 199.027S50.997 382.048 50.997 249.988C50.997 117.94 117.94 50.985 250 50.985M250 10C91.492 10 9.988 98.188 9.988 249.988 9.988 401.813 91.492 490 250 490s240.012-88.188 240.012-240.012C490.012 98.188 408.508 10 250 10z"/><path fill="#0085CE" d="M195.135 95.55c32.522 0 49.482 19.347 49.482 51.01 0 31.389-17.246 51.022-49.482 51.022-32.225 0-49.458-19.633-49.458-51.022 0-31.664 16.959-51.01 49.458-51.01m0 82.53c15.957 0 22.33-15.265 22.33-31.521 0-17.103-6.373-31.52-22.33-31.52-15.981 0-22.319 14.417-22.319 31.52 0 16.256 6.338 31.521 22.319 31.521zM256.48 97.245h26.305v37.726h31.091V97.245h26.269v98.642h-26.269v-42.262h-31.091v42.262H256.48V97.245M129.099 396.394v-28.238c15.67-15.193 72.815-62.921 72.815-93.797 0-15.42-13.737-22.665-27.486-22.665-14.227 0-27.725 6.278-38.813 13.499l-2.661-27.964c15.193-7.734 32.797-12.078 49.924-12.078 32.069 0 52.8 16.172 52.8 49.208 0 35.686-35.924 68.482-63.411 95.491h68.722v26.543h-111.89M265.325 228.063h108.524v27.964l-59.818 140.367h-36.652l62.467-141.811h-74.521v-26.52"/></svg>