<?xml version="1.0" encoding="utf-8"?>
<!-- Generator: Adobe Illustrator 15.0.0, SVG Export Plug-In . SVG Version: 6.00 Build 0)  -->
<!DOCTYPE svg PUBLIC "-//W3C//DTD SVG 1.1//EN" "http://www.w3.org/Graphics/SVG/1.1/DTD/svg11.dtd">
<svg version="1.1" id="レイヤー_30" xmlns="http://www.w3.org/2000/svg" xmlns:xlink="http://www.w3.org/1999/xlink" x="0px"
	 y="0px" width="500px" height="500px" viewBox="0 0 500 500" enable-background="new 0 0 500 500" xml:space="preserve">
<path fill="#FFFFFF" d="M250,29C104,29,29,110.2,29,250c0,139.8,75,221,221,221c145.9,0,221-81.2,221-221C471,110.2,396,29,250,29z"/>
<path fill="#0085CE" d="M250.024,50.995c132.042,0,198.981,66.952,198.981,199.005s-66.94,199.018-198.981,199.018
	c-132.066,0-199.029-66.964-199.029-199.018S117.958,50.995,250.024,50.995 M250.024,10C91.512,10,10,98.183,10,250
	c0,151.829,81.512,240,240.024,240C408.512,490,490,401.829,490,250C490,98.183,408.512,10,250.024,10z"/>
<path fill="#0085CE" d="M129.439,396.375v-28.201c15.67-15.18,72.824-62.93,72.824-93.804c0-15.431-13.749-22.675-27.497-22.675
	c-14.226,0-27.723,6.265-38.811,13.51l-2.649-27.974c15.181-7.722,32.784-12.042,49.91-12.042c32.067,0,52.81,16.135,52.81,49.182
	c0,35.672-35.935,68.479-63.431,95.487h68.73v26.518H129.439"/>
<path fill="#0085CE" d="M346.919,305.722v0.477c22.186,10.371,32.318,24.848,32.318,44.122c0,34.001-24.609,48.967-57.87,48.967
	c-32.796,0-59.326-14.238-59.326-48.489c0-18.797,10.609-31.829,30.874-41.711v-0.465c-16.887-7.483-27.986-21.47-27.986-39.073
	c0-30.134,22.914-44.36,53.538-44.36c29.657,0,56.438,12.28,56.438,40.505c0,15.18-9.404,32.795-27.986,40.266V305.722
	 M295.804,350.32c0,13.987,12.042,23.88,25.563,23.88c13.509,0,24.095-8.449,24.095-22.424c0-16.637-14.226-24.597-28.201-29.18
	C305.196,328.373,295.804,336.118,295.804,350.32z M342.587,271.482c0-12.543-7.948-21.231-20.742-21.231
	c-12.292,0-24.584,6.755-24.584,20.277c0,14.452,14.941,20.968,26.518,25.301C333.17,292.451,342.587,281.841,342.587,271.482z"/>
<path fill="#0085CE" d="M195.818,95.558c32.521,0,49.48,19.357,49.48,51.019c0,31.375-17.233,51.031-49.48,51.031
	c-32.211,0-49.456-19.656-49.456-51.031C146.362,114.915,163.333,95.558,195.818,95.558 M195.818,178.083
	c15.992,0,22.341-15.264,22.341-31.507c0-17.102-6.349-31.519-22.341-31.519c-15.968,0-22.317,14.417-22.317,31.519
	C173.501,162.819,179.85,178.083,195.818,178.083z"/>
<polyline fill="#0085CE" points="257.185,97.252 283.464,97.252 283.464,135 314.565,135 314.565,97.252 340.844,97.252 
	340.844,195.901 314.565,195.901 314.565,153.63 283.464,153.63 283.464,195.901 257.185,195.901 257.185,97.252 "/>
</svg>
