<svg xmlns="http://www.w3.org/2000/svg" xml:space="preserve" width="500" height="500"><path fill="#FFF" d="M250 29C104 29 29 110.2 29 250s75 221 221 221c145.9 0 221-81.2 221-221S396 29 250 29z"/><path fill="#0085CE" d="M250.024 50.995c132.042 0 198.981 66.952 198.981 199.005s-66.94 199.018-198.981 199.018c-132.066 0-199.029-66.964-199.029-199.018S117.958 50.995 250.024 50.995m0-40.995C91.512 10 10 98.183 10 250c0 151.829 81.512 240 240.024 240C408.512 490 490 401.829 490 250c0-151.817-81.488-240-239.976-240z"/><path fill="#0085CE" d="M129.439 396.375v-28.201c15.67-15.18 72.824-62.93 72.824-93.804 0-15.431-13.749-22.675-27.497-22.675-14.226 0-27.723 6.265-38.811 13.51l-2.649-27.974c15.181-7.722 32.784-12.042 49.91-12.042 32.067 0 52.81 16.135 52.81 49.182 0 35.672-35.935 68.479-63.431 95.487h68.73v26.518H129.439M346.919 305.722v.477c22.186 10.371 32.318 24.848 32.318 44.122 0 34.001-24.609 48.967-57.87 48.967-32.796 0-59.326-14.238-59.326-48.489 0-18.797 10.609-31.829 30.874-41.711v-.465c-16.887-7.483-27.986-21.47-27.986-39.073 0-30.134 22.914-44.36 53.538-44.36 29.657 0 56.438 12.28 56.438 40.505 0 15.18-9.404 32.795-27.986 40.266v-.239m-51.115 44.598c0 13.987 12.042 23.88 25.563 23.88 13.509 0 24.095-8.449 24.095-22.424 0-16.637-14.226-24.597-28.201-29.18-12.065 5.777-21.457 13.522-21.457 27.724zm46.783-78.838c0-12.543-7.948-21.231-20.742-21.231-12.292 0-24.584 6.755-24.584 20.277 0 14.452 14.941 20.968 26.518 25.301 9.391-3.378 18.808-13.988 18.808-24.347zM195.818 95.558c32.521 0 49.48 19.357 49.48 51.019 0 31.375-17.233 51.031-49.48 51.031-32.211 0-49.456-19.656-49.456-51.031 0-31.662 16.971-51.019 49.456-51.019m0 82.525c15.992 0 22.341-15.264 22.341-31.507 0-17.102-6.349-31.519-22.341-31.519-15.968 0-22.317 14.417-22.317 31.519 0 16.243 6.349 31.507 22.317 31.507zM257.185 97.252h26.279V135h31.101V97.252h26.279v98.649h-26.279V153.63h-31.101v42.271h-26.279V97.252"/></svg>