<?xml version="1.0" encoding="utf-8"?>
<!-- Generator: Adobe Illustrator 15.0.0, SVG Export Plug-In . SVG Version: 6.00 Build 0)  -->
<!DOCTYPE svg PUBLIC "-//W3C//DTD SVG 1.1//EN" "http://www.w3.org/Graphics/SVG/1.1/DTD/svg11.dtd">
<svg version="1.1" id="レイヤー_31" xmlns="http://www.w3.org/2000/svg" xmlns:xlink="http://www.w3.org/1999/xlink" x="0px"
	 y="0px" width="500px" height="500px" viewBox="0 0 500 500" enable-background="new 0 0 500 500" xml:space="preserve">
<path fill="#FFFFFF" d="M250,29C104,29,29,110.2,29,250c0,139.8,75,221,221,221c145.9,0,221-81.2,221-221C471,110.2,396,29,250,29z"/>
<path fill="#0085CE" d="M250,50.989c132.056,0,199.008,66.958,199.008,199.014c0,132.049-66.952,199.02-199.008,199.02
	c-132.055,0-199.032-66.97-199.032-199.02C50.968,117.948,117.945,50.989,250,50.989 M250,10C91.486,10,9.997,98.184,9.997,250.003
	C9.997,401.828,91.486,490,250,490c158.49,0,240.003-88.172,240.003-239.997C490.003,98.184,408.49,10,250,10z"/>
<path fill="#0085CE" d="M130.595,396.374v-28.201c15.658-15.181,72.824-62.931,72.824-93.799c0-15.431-13.749-22.682-27.497-22.682
	c-14.226,0-27.748,6.271-38.834,13.516l-2.65-27.974c15.181-7.722,32.808-12.048,49.91-12.048c32.068,0,52.811,16.141,52.811,49.188
	c0,35.672-35.923,68.474-63.42,95.482h68.719v26.519H130.595"/>
<path fill="#0085CE" d="M278.142,365.995c8.927,3.861,18.081,6.761,29.418,6.761c29.18,0,39.062-27.014,40.028-52.088l-0.477-0.489
	c-7.96,11.827-18.332,16.887-32.569,16.887c-31.817,0-49.194-20.247-49.194-51.36c0-36.406,17.854-60.52,55.949-60.52
	c46.783,0,57.143,38.811,57.143,78.362c0,45.572-14.704,95.739-69.196,95.739c-12.293,0-23.857-1.945-35.446-6.039L278.142,365.995
	 M344.688,280.167c0-15.926-6.743-29.919-23.392-29.919c-15.67,0-22.163,15.192-22.163,30.152c0,16.398,6.731,31.591,22.902,31.591
	C338.435,311.991,344.688,297.031,344.688,280.167z"/>
<path fill="#0085CE" d="M196.879,95.559c32.521,0,49.469,19.358,49.469,51.02c0,31.37-17.246,51.026-49.469,51.026
	s-49.457-19.656-49.457-51.026C147.423,114.917,164.37,95.559,196.879,95.559 M196.879,178.086
	c15.957,0,22.342-15.264,22.342-31.507c0-17.108-6.385-31.519-22.342-31.519c-15.98,0-22.341,14.411-22.341,31.519
	C174.538,162.822,180.899,178.086,196.879,178.086z"/>
<polyline fill="#0085CE" points="258.223,97.253 284.515,97.253 284.515,134.996 315.604,134.996 315.604,97.253 341.896,97.253 
	341.896,195.904 315.604,195.904 315.604,153.632 284.515,153.632 284.515,195.904 258.223,195.904 258.223,97.253 "/>
</svg>
