<svg xmlns="http://www.w3.org/2000/svg" xml:space="preserve" width="500" height="500"><path fill="#FFF" d="M250 29C104 29 29 110.2 29 250s75 221 221 221c145.9 0 221-81.2 221-221S396 29 250 29z"/><path fill="#0085CE" d="M250 50.989c132.056 0 199.008 66.958 199.008 199.014 0 132.049-66.952 199.02-199.008 199.02-132.055 0-199.032-66.97-199.032-199.02 0-132.055 66.977-199.014 199.032-199.014M250 10C91.486 10 9.997 98.184 9.997 250.003 9.997 401.828 91.486 490 250 490c158.49 0 240.003-88.172 240.003-239.997C490.003 98.184 408.49 10 250 10z"/><path fill="#0085CE" d="M130.595 396.374v-28.201c15.658-15.181 72.824-62.931 72.824-93.799 0-15.431-13.749-22.682-27.497-22.682-14.226 0-27.748 6.271-38.834 13.516l-2.65-27.974c15.181-7.722 32.808-12.048 49.91-12.048 32.068 0 52.811 16.141 52.811 49.188 0 35.672-35.923 68.474-63.42 95.482h68.719v26.519H130.595M278.142 365.995c8.927 3.861 18.081 6.761 29.418 6.761 29.18 0 39.062-27.014 40.028-52.088l-.477-.489c-7.96 11.827-18.332 16.887-32.569 16.887-31.817 0-49.194-20.247-49.194-51.36 0-36.406 17.854-60.52 55.949-60.52 46.783 0 57.143 38.811 57.143 78.362 0 45.572-14.704 95.739-69.196 95.739-12.293 0-23.857-1.945-35.446-6.039l4.344-27.253m66.546-85.828c0-15.926-6.743-29.919-23.392-29.919-15.67 0-22.163 15.192-22.163 30.152 0 16.398 6.731 31.591 22.902 31.591 16.4 0 22.653-14.96 22.653-31.824zM196.879 95.559c32.521 0 49.469 19.358 49.469 51.02 0 31.37-17.246 51.026-49.469 51.026s-49.457-19.656-49.457-51.026c.001-31.662 16.948-51.02 49.457-51.02m0 82.527c15.957 0 22.342-15.264 22.342-31.507 0-17.108-6.385-31.519-22.342-31.519-15.98 0-22.341 14.411-22.341 31.519 0 16.243 6.361 31.507 22.341 31.507zM258.223 97.253h26.292v37.743h31.089V97.253h26.292v98.651h-26.292v-42.272h-31.089v42.272h-26.292V97.253"/></svg>