<?xml version="1.0" encoding="utf-8"?>
<!-- Generator: Adobe Illustrator 15.0.0, SVG Export Plug-In . SVG Version: 6.00 Build 0)  -->
<!DOCTYPE svg PUBLIC "-//W3C//DTD SVG 1.1//EN" "http://www.w3.org/Graphics/SVG/1.1/DTD/svg11.dtd">
<svg version="1.1" id="レイヤー_32" xmlns="http://www.w3.org/2000/svg" xmlns:xlink="http://www.w3.org/1999/xlink" x="0px"
	 y="0px" width="500px" height="500px" viewBox="0 0 500 500" enable-background="new 0 0 500 500" xml:space="preserve">
<path fill="#FFFFFF" d="M250,29C104,29,29,110.2,29,250c0,139.8,75,221,221,221c145.9,0,221-81.2,221-221C471,110.2,396,29,250,29z"/>
<path fill="#0085CE" d="M250,50.995c132.06,0,199.018,66.952,199.018,199.005S382.06,449.018,250,449.018S50.971,382.054,50.971,250
	S117.94,50.995,250,50.995 M250,10C91.494,10,9.994,98.183,9.994,250c0,151.829,81.5,240,240.006,240
	c158.488,0,240.006-88.171,240.006-240C490.006,98.183,408.488,10,250,10z"/>
<path fill="#0085CE" d="M131.164,365.035c11.564,4.583,24.113,7.722,37.373,7.722c13.993,0,35.451-6.767,35.451-23.869
	c0-19.787-15.676-26.292-37.14-26.292H150.45v-26.518h15.437c22.657,0,37.366-7.495,37.366-22.198
	c0-16.875-13.748-22.186-28.935-22.186c-13.259,0-26.047,3.139-37.85,8.927l-1.945-27.007c13.516-5.299,29.675-8.426,47.027-8.426
	c20.742,0,55.459,7.208,55.459,43.143c0,22.914-14.226,33.762-31.345,40.291v0.478c21.458,2.888,32.079,19.513,32.079,40.016
	c0,40.04-36.429,50.172-64.38,50.172c-14.727,0-31.602-1.945-44.127-5.55L131.164,365.035"/>
<path fill="#0085CE" d="M260.878,312.715c0-42.188,12.77-87.526,58.354-87.526c49.188,0,58.83,48.454,58.83,87.526
	c0,39.062-10.12,86.572-58.83,86.572C267.376,399.287,260.878,347.921,260.878,312.715 M344.305,312.715
	c0-21.708,0-62.464-25.074-62.464c-24.603,0-24.603,40.756-24.603,62.464c0,21.208-0.245,61.486,24.603,61.486
	C344.55,374.201,344.305,333.922,344.305,312.715z"/>
<path fill="#0085CE" d="M195.752,95.558c32.509,0,49.48,19.357,49.48,51.019c0,31.375-17.257,51.031-49.48,51.031
	c-32.229,0-49.468-19.656-49.468-51.031C146.284,114.915,163.243,95.558,195.752,95.558 M195.752,178.083
	c15.974,0,22.329-15.264,22.329-31.507c0-17.102-6.355-31.519-22.329-31.519s-22.329,14.417-22.329,31.519
	C173.423,162.819,179.778,178.083,195.752,178.083z"/>
<polyline fill="#0085CE" points="257.101,97.252 283.386,97.252 283.386,135 314.476,135 314.476,97.252 340.761,97.252 
	340.761,195.901 314.476,195.901 314.476,153.63 283.386,153.63 283.386,195.901 257.101,195.901 257.101,97.252 "/>
</svg>
