<svg xmlns="http://www.w3.org/2000/svg" xml:space="preserve" width="500" height="500"><path fill="#FFF" d="M250 29C104 29 29 110.2 29 250s75 221 221 221c145.9 0 221-81.2 221-221S396 29 250 29z"/><path fill="#0085CE" d="M250 50.995c132.06 0 199.018 66.952 199.018 199.005S382.06 449.018 250 449.018 50.971 382.054 50.971 250 117.94 50.995 250 50.995M250 10C91.494 10 9.994 98.183 9.994 250c0 151.829 81.5 240 240.006 240 158.488 0 240.006-88.171 240.006-240 0-151.817-81.518-240-240.006-240z"/><path fill="#0085CE" d="M131.164 365.035c11.564 4.583 24.113 7.722 37.373 7.722 13.993 0 35.451-6.767 35.451-23.869 0-19.787-15.676-26.292-37.14-26.292H150.45v-26.518h15.437c22.657 0 37.366-7.495 37.366-22.198 0-16.875-13.748-22.186-28.935-22.186-13.259 0-26.047 3.139-37.85 8.927l-1.945-27.007c13.516-5.299 29.675-8.426 47.027-8.426 20.742 0 55.459 7.208 55.459 43.143 0 22.914-14.226 33.762-31.345 40.291v.478c21.458 2.888 32.079 19.513 32.079 40.016 0 40.04-36.429 50.172-64.38 50.172-14.727 0-31.602-1.945-44.127-5.55l1.928-28.703M260.878 312.715c0-42.188 12.77-87.526 58.354-87.526 49.188 0 58.83 48.454 58.83 87.526 0 39.062-10.12 86.572-58.83 86.572-51.856 0-58.354-51.366-58.354-86.572m83.427 0c0-21.708 0-62.464-25.074-62.464-24.603 0-24.603 40.756-24.603 62.464 0 21.208-.245 61.486 24.603 61.486 25.319 0 25.074-40.279 25.074-61.486zM195.752 95.558c32.509 0 49.48 19.357 49.48 51.019 0 31.375-17.257 51.031-49.48 51.031-32.229 0-49.468-19.656-49.468-51.031 0-31.662 16.959-51.019 49.468-51.019m0 82.525c15.974 0 22.329-15.264 22.329-31.507 0-17.102-6.355-31.519-22.329-31.519s-22.329 14.417-22.329 31.519c0 16.243 6.355 31.507 22.329 31.507zM257.101 97.252h26.285V135h31.09V97.252h26.285v98.649h-26.285V153.63h-31.09v42.271h-26.285V97.252"/></svg>