<?xml version="1.0" encoding="utf-8"?>
<!-- Generator: Adobe Illustrator 15.0.0, SVG Export Plug-In . SVG Version: 6.00 Build 0)  -->
<!DOCTYPE svg PUBLIC "-//W3C//DTD SVG 1.1//EN" "http://www.w3.org/Graphics/SVG/1.1/DTD/svg11.dtd">
<svg version="1.1" id="レイヤー_33" xmlns="http://www.w3.org/2000/svg" xmlns:xlink="http://www.w3.org/1999/xlink" x="0px"
	 y="0px" width="500px" height="500px" viewBox="0 0 500 500" enable-background="new 0 0 500 500" xml:space="preserve">
<path fill="#FFFFFF" d="M250,29C104,29,29,110.2,29,250c0,139.8,75,221,221,221c145.9,0,221-81.2,221-221C471,110.2,396,29,250,29z"/>
<path fill="#0085CE" d="M250.012,50.997c132.048,0,198.992,66.955,198.992,199.003S382.06,449.016,250.012,449.016
	c-132.06,0-199.015-66.967-199.015-199.016S117.952,50.997,250.012,50.997 M250.012,10C91.492,10,10,98.175,10,250
	s81.492,240,240.012,240C408.508,490,490,401.825,490,250S408.508,10,250.012,10z"/>
<path fill="#0085CE" d="M139.566,365.041c11.577,4.583,24.097,7.722,37.368,7.722c14,0,35.459-6.767,35.459-23.87
	c0-19.788-15.683-26.292-37.142-26.292h-16.399v-26.52h15.444c22.665,0,37.38-7.495,37.38-22.199
	c0-16.876-13.749-22.187-28.954-22.187c-13.248,0-26.042,3.139-37.87,8.927l-1.91-27.009c13.499-5.299,29.659-8.426,47.024-8.426
	c20.731,0,55.461,7.209,55.461,43.145c0,22.915-14.226,33.764-31.365,40.292v0.478c21.471,2.888,32.069,19.514,32.069,40.018
	c0,40.042-36.402,50.175-64.365,50.175c-14.716,0-31.592-1.945-44.136-5.55L139.566,365.041"/>
<polyline fill="#0085CE" points="314.628,228.076 344.501,228.076 344.501,396.382 310.761,396.382 310.761,266.422 
	282.296,289.552 265.432,267.604 314.628,228.076 "/>
<path fill="#0085CE" d="M194.836,95.55c32.499,0,49.471,19.371,49.471,51.022c0,31.377-17.234,51.034-49.471,51.034
	c-32.236,0-49.482-19.657-49.482-51.034C145.354,114.92,162.338,95.55,194.836,95.55 M194.836,178.092
	c15.981,0,22.318-15.253,22.318-31.52c0-17.103-6.337-31.521-22.318-31.521c-15.969,0-22.33,14.417-22.33,31.521
	C172.506,162.839,178.868,178.092,194.836,178.092z"/>
<polyline fill="#0085CE" points="256.182,97.245 282.475,97.245 282.475,134.995 313.565,134.995 313.565,97.245 339.846,97.245 
	339.846,195.899 313.565,195.899 313.565,153.649 282.475,153.649 282.475,195.899 256.182,195.899 256.182,97.245 "/>
</svg>
