<svg xmlns="http://www.w3.org/2000/svg" xml:space="preserve" width="500" height="500"><path fill="#FFF" d="M250 29C104 29 29 110.2 29 250s75 221 221 221c145.9 0 221-81.2 221-221S396 29 250 29z"/><path fill="#0085CE" d="M250.012 50.997c132.048 0 198.992 66.955 198.992 199.003S382.06 449.016 250.012 449.016c-132.06 0-199.015-66.967-199.015-199.016S117.952 50.997 250.012 50.997m0-40.997C91.492 10 10 98.175 10 250s81.492 240 240.012 240C408.508 490 490 401.825 490 250S408.508 10 250.012 10z"/><path fill="#0085CE" d="M139.566 365.041c11.577 4.583 24.097 7.722 37.368 7.722 14 0 35.459-6.767 35.459-23.87 0-19.788-15.683-26.292-37.142-26.292h-16.399v-26.52h15.444c22.665 0 37.38-7.495 37.38-22.199 0-16.876-13.749-22.187-28.954-22.187-13.248 0-26.042 3.139-37.87 8.927l-1.91-27.009c13.499-5.299 29.659-8.426 47.024-8.426 20.731 0 55.461 7.209 55.461 43.145 0 22.915-14.226 33.764-31.365 40.292v.478c21.471 2.888 32.069 19.514 32.069 40.018 0 40.042-36.402 50.175-64.365 50.175-14.716 0-31.592-1.945-44.136-5.55l1.936-28.704M314.628 228.076h29.873v168.306h-33.74v-129.96l-28.465 23.13-16.864-21.948 49.196-39.528M194.836 95.55c32.499 0 49.471 19.371 49.471 51.022 0 31.377-17.234 51.034-49.471 51.034-32.236 0-49.482-19.657-49.482-51.034 0-31.652 16.984-51.022 49.482-51.022m0 82.542c15.981 0 22.318-15.253 22.318-31.52 0-17.103-6.337-31.521-22.318-31.521-15.969 0-22.33 14.417-22.33 31.521 0 16.267 6.362 31.52 22.33 31.52zM256.182 97.245h26.293v37.75h31.09v-37.75h26.281v98.654h-26.281v-42.25h-31.09v42.25h-26.293V97.245"/></svg>