<svg xmlns="http://www.w3.org/2000/svg" xml:space="preserve" width="500" height="500"><path fill="#FFF" d="M250 29C104 29 29 110.2 29 250s75 221 221 221c145.9 0 221-81.2 221-221S396 29 250 29z"/><path fill="#0085CE" d="M249.988 50.995c132.065 0 199.017 66.952 199.017 199.005s-66.952 199.018-199.017 199.018c-132.042 0-199.012-66.964-199.012-199.018s66.97-199.005 199.012-199.005m0-40.995C91.488 10 10 98.183 10 250c0 151.829 81.488 240 239.988 240C408.5 490 490 401.829 490 250c0-151.817-81.5-240-240.012-240z"/><path fill="#0085CE" d="M135.078 365.035c11.576 4.583 24.113 7.722 37.373 7.722 13.993 0 35.451-6.767 35.451-23.869 0-19.787-15.676-26.292-37.14-26.292h-16.398v-26.518h15.449c22.646 0 37.354-7.495 37.354-22.198 0-16.875-13.749-22.186-28.935-22.186-13.248 0-26.047 3.139-37.862 8.927l-1.921-27.007c13.509-5.299 29.663-8.426 47.027-8.426 20.73 0 55.459 7.208 55.459 43.143 0 22.914-14.226 33.762-31.346 40.291v.478c21.458 2.888 32.067 19.513 32.067 40.016 0 40.04-36.406 50.172-64.38 50.172-14.715 0-31.59-1.945-44.127-5.55l1.929-28.703M261.421 396.375v-28.201c15.669-15.18 72.823-62.93 72.823-93.804 0-15.431-13.749-22.675-27.497-22.675-14.226 0-27.736 6.265-38.811 13.51l-2.673-27.974c15.192-7.722 32.808-12.042 49.921-12.042 32.067 0 52.797 16.135 52.797 49.182 0 35.672-35.922 68.479-63.419 95.487h68.73v26.518H261.421M196.391 95.558c32.509 0 49.468 19.369 49.468 51.019 0 31.375-17.239 51.031-49.468 51.031s-49.468-19.656-49.468-51.031c0-31.65 16.959-51.019 49.468-51.019m0 82.538c15.974 0 22.341-15.252 22.341-31.519 0-17.102-6.367-31.519-22.341-31.519-15.962 0-22.341 14.417-22.341 31.519 0 16.266 6.379 31.519 22.341 31.519zM257.733 97.252h26.292V135h31.077V97.252h26.303v98.649h-26.303v-42.247h-31.077v42.247h-26.292V97.252"/></svg>