<?xml version="1.0" encoding="utf-8"?>
<!-- Generator: Adobe Illustrator 15.0.0, SVG Export Plug-In . SVG Version: 6.00 Build 0)  -->
<!DOCTYPE svg PUBLIC "-//W3C//DTD SVG 1.1//EN" "http://www.w3.org/Graphics/SVG/1.1/DTD/svg11.dtd">
<svg version="1.1" id="レイヤー_34" xmlns="http://www.w3.org/2000/svg" xmlns:xlink="http://www.w3.org/1999/xlink" x="0px"
	 y="0px" width="500px" height="500px" viewBox="0 0 500 500" enable-background="new 0 0 500 500" xml:space="preserve">
<path fill="#FFFFFF" d="M250,29C104,29,29,110.2,29,250c0,139.8,75,221,221,221c145.9,0,221-81.2,221-221C471,110.2,396,29,250,29z"/>
<path fill="#0085CE" d="M249.988,50.995c132.065,0,199.017,66.952,199.017,199.005s-66.952,199.018-199.017,199.018
	c-132.042,0-199.012-66.964-199.012-199.018S117.946,50.995,249.988,50.995 M249.988,10C91.488,10,10,98.183,10,250
	c0,151.829,81.488,240,239.988,240C408.5,490,490,401.829,490,250C490,98.183,408.5,10,249.988,10z"/>
<path fill="#0085CE" d="M135.078,365.035c11.576,4.583,24.113,7.722,37.373,7.722c13.993,0,35.451-6.767,35.451-23.869
	c0-19.787-15.676-26.292-37.14-26.292h-16.398v-26.518h15.449c22.646,0,37.354-7.495,37.354-22.198
	c0-16.875-13.749-22.186-28.935-22.186c-13.248,0-26.047,3.139-37.862,8.927l-1.921-27.007c13.509-5.299,29.663-8.426,47.027-8.426
	c20.73,0,55.459,7.208,55.459,43.143c0,22.914-14.226,33.762-31.346,40.291v0.478c21.458,2.888,32.067,19.513,32.067,40.016
	c0,40.04-36.406,50.172-64.38,50.172c-14.715,0-31.59-1.945-44.127-5.55L135.078,365.035"/>
<path fill="#0085CE" d="M261.421,396.375v-28.201c15.669-15.18,72.823-62.93,72.823-93.804c0-15.431-13.749-22.675-27.497-22.675
	c-14.226,0-27.736,6.265-38.811,13.51l-2.673-27.974c15.192-7.722,32.808-12.042,49.921-12.042
	c32.067,0,52.797,16.135,52.797,49.182c0,35.672-35.922,68.479-63.419,95.487h68.73v26.518H261.421"/>
<path fill="#0085CE" d="M196.391,95.558c32.509,0,49.468,19.369,49.468,51.019c0,31.375-17.239,51.031-49.468,51.031
	c-32.229,0-49.468-19.656-49.468-51.031C146.923,114.927,163.882,95.558,196.391,95.558 M196.391,178.096
	c15.974,0,22.341-15.252,22.341-31.519c0-17.102-6.367-31.519-22.341-31.519c-15.962,0-22.341,14.417-22.341,31.519
	C174.05,162.843,180.429,178.096,196.391,178.096z"/>
<polyline fill="#0085CE" points="257.733,97.252 284.025,97.252 284.025,135 315.102,135 315.102,97.252 341.405,97.252 
	341.405,195.901 315.102,195.901 315.102,153.654 284.025,153.654 284.025,195.901 257.733,195.901 257.733,97.252 "/>
</svg>
