<?xml version="1.0" encoding="utf-8"?>
<!-- Generator: Adobe Illustrator 15.0.0, SVG Export Plug-In . SVG Version: 6.00 Build 0)  -->
<!DOCTYPE svg PUBLIC "-//W3C//DTD SVG 1.1//EN" "http://www.w3.org/Graphics/SVG/1.1/DTD/svg11.dtd">
<svg version="1.1" id="レイヤー_35" xmlns="http://www.w3.org/2000/svg" xmlns:xlink="http://www.w3.org/1999/xlink" x="0px"
	 y="0px" width="500px" height="500px" viewBox="0 0 500 500" enable-background="new 0 0 500 500" xml:space="preserve">
<path fill="#FFFFFF" d="M250,29C104,29,29,110.2,29,250c0,139.8,75,221,221,221c145.9,0,221-81.2,221-221C471,110.2,396,29,250,29z"/>
<path fill="#0085CE" d="M250.006,50.995c132.042,0,199.018,66.952,199.018,199.005s-66.976,199.018-199.018,199.018
	c-132.054,0-199.029-66.964-199.029-199.018S117.952,50.995,250.006,50.995 M250.006,10c-158.5,0-240,88.183-240,240
	c0,151.829,81.5,240,240,240c158.488,0,239.988-88.171,239.988-240C489.994,98.183,408.494,10,250.006,10z"/>
<path fill="#0085CE" d="M135.078,365.035c11.576,4.583,24.119,7.722,37.378,7.722c13.987,0,35.445-6.767,35.445-23.869
	c0-19.787-15.682-26.292-37.14-26.292h-16.398v-26.518h15.443c22.663,0,37.378-7.495,37.378-22.198
	c0-16.875-13.749-22.186-28.953-22.186c-13.248,0-26.029,3.139-37.844,8.927l-1.921-27.007c13.486-5.299,29.645-8.426,47.01-8.426
	c20.742,0,55.459,7.208,55.459,43.143c0,22.914-14.226,33.762-31.34,40.291v0.478c21.47,2.888,32.068,19.513,32.068,40.016
	c0,40.04-36.412,50.172-64.386,50.172c-14.715,0-31.602-1.945-44.133-5.55L135.078,365.035"/>
<path fill="#0085CE" d="M264.303,365.035c11.588,4.583,24.12,7.722,37.378,7.722c13.999,0,35.445-6.767,35.445-23.869
	c0-19.787-15.67-26.292-37.128-26.292h-16.398v-26.518h15.431c22.675,0,37.391-7.495,37.391-22.198
	c0-16.875-13.749-22.186-28.941-22.186c-13.259,0-26.041,3.139-37.856,8.927l-1.933-27.007c13.486-5.299,29.657-8.426,47.009-8.426
	c20.742,0,55.471,7.208,55.471,43.143c0,22.914-14.237,33.762-31.352,40.291v0.478c21.47,2.888,32.068,19.513,32.068,40.016
	c0,40.04-36.4,50.172-64.374,50.172c-14.715,0-31.578-1.945-44.145-5.55L264.303,365.035"/>
<path fill="#0085CE" d="M196.409,95.558c32.498,0,49.468,19.369,49.468,51.019c0,31.375-17.245,51.031-49.468,51.031
	c-32.247,0-49.48-19.656-49.48-51.031C146.929,114.927,163.899,95.558,196.409,95.558 M196.409,178.096
	c15.956,0,22.317-15.252,22.317-31.519c0-17.102-6.361-31.519-22.317-31.519c-15.98,0-22.341,14.417-22.341,31.519
	C174.067,162.843,180.429,178.096,196.409,178.096z"/>
<polyline fill="#0085CE" points="257.739,97.252 284.031,97.252 284.031,135 315.12,135 315.12,97.252 341.399,97.252 
	341.399,195.901 315.12,195.901 315.12,153.654 284.031,153.654 284.031,195.901 257.739,195.901 257.739,97.252 "/>
</svg>
