<?xml version="1.0" encoding="utf-8"?>
<!-- Generator: Adobe Illustrator 15.0.0, SVG Export Plug-In . SVG Version: 6.00 Build 0)  -->
<!DOCTYPE svg PUBLIC "-//W3C//DTD SVG 1.1//EN" "http://www.w3.org/Graphics/SVG/1.1/DTD/svg11.dtd">
<svg version="1.1" id="レイヤー_36" xmlns="http://www.w3.org/2000/svg" xmlns:xlink="http://www.w3.org/1999/xlink" x="0px"
	 y="0px" width="500px" height="500px" viewBox="0 0 500 500" enable-background="new 0 0 500 500" xml:space="preserve">
<path fill="#FFFFFF" d="M250,29C104,29,29,110.2,29,250c0,139.8,75,221,221,221c145.9,0,221-81.2,221-221C471,110.2,396,29,250,29z"/>
<path fill="#0085CE" d="M250.006,51.006c132.054,0,199.005,66.94,199.005,198.994S382.06,449.005,250.006,449.005
	C117.94,449.005,50.989,382.054,50.989,250S117.94,51.006,250.006,51.006 M250.006,10C91.494,10,9.994,98.183,9.994,250
	c0,151.829,81.5,240,240.012,240c158.5,0,240-88.171,240-240C490.006,98.183,408.506,10,250.006,10z"/>
<path fill="#0085CE" d="M135.09,365.047c11.564,4.583,24.096,7.721,37.354,7.721c14.011,0,35.469-6.767,35.469-23.869
	c0-19.787-15.694-26.303-37.152-26.303h-16.386v-26.53h15.431c22.663,0,37.378-7.471,37.378-22.174
	c0-16.875-13.749-22.186-28.941-22.186c-13.259,0-26.041,3.139-37.868,8.915l-1.91-26.996c13.486-5.311,29.657-8.438,47.01-8.438
	c20.742,0,55.471,7.22,55.471,43.155c0,22.902-14.226,33.762-31.363,40.29v0.478c21.47,2.876,32.067,19.513,32.067,40.016
	c0,40.04-36.388,50.16-64.362,50.16c-14.727,0-31.603-1.934-44.146-5.538L135.09,365.047"/>
<path fill="#0085CE" d="M255.376,334.185l62.954-106.108h41.949v108.269h21.458v25.074h-21.458v34.968h-32.306v-34.968h-72.597
	V334.185 M327.973,336.345v-73.05h-0.478l-41.722,73.05H327.973z"/>
<path fill="#0085CE" d="M196.397,95.569c32.497,0,49.479,19.357,49.479,51.02c0,31.375-17.245,51.031-49.479,51.031
	c-32.235,0-49.48-19.656-49.48-51.031C146.917,114.927,163.899,95.569,196.397,95.569 M196.397,178.096
	c15.98,0,22.317-15.264,22.317-31.507c0-17.102-6.337-31.519-22.317-31.519c-15.968,0-22.341,14.417-22.341,31.519
	C174.056,162.832,180.429,178.096,196.397,178.096z"/>
<polyline fill="#0085CE" points="257.751,97.264 284.019,97.264 284.019,135.012 315.12,135.012 315.12,97.264 341.399,97.264 
	341.399,195.914 315.12,195.914 315.12,153.642 284.019,153.642 284.019,195.914 257.751,195.914 257.751,97.264 "/>
</svg>
