<svg xmlns="http://www.w3.org/2000/svg" xml:space="preserve" width="500" height="500"><path fill="#FFF" d="M250 29C104 29 29 110.2 29 250s75 221 221 221c145.9 0 221-81.2 221-221S396 29 250 29z"/><path fill="#0085CE" d="M250.006 51.006c132.054 0 199.005 66.94 199.005 198.994S382.06 449.005 250.006 449.005C117.94 449.005 50.989 382.054 50.989 250S117.94 51.006 250.006 51.006m0-41.006C91.494 10 9.994 98.183 9.994 250c0 151.829 81.5 240 240.012 240 158.5 0 240-88.171 240-240 0-151.817-81.5-240-240-240z"/><path fill="#0085CE" d="M135.09 365.047c11.564 4.583 24.096 7.721 37.354 7.721 14.011 0 35.469-6.767 35.469-23.869 0-19.787-15.694-26.303-37.152-26.303h-16.386v-26.53h15.431c22.663 0 37.378-7.471 37.378-22.174 0-16.875-13.749-22.186-28.941-22.186-13.259 0-26.041 3.139-37.868 8.915l-1.91-26.996c13.486-5.311 29.657-8.438 47.01-8.438 20.742 0 55.471 7.22 55.471 43.155 0 22.902-14.226 33.762-31.363 40.29v.478c21.47 2.876 32.067 19.513 32.067 40.016 0 40.04-36.388 50.16-64.362 50.16-14.727 0-31.603-1.934-44.146-5.538l1.948-28.701M255.376 334.185l62.954-106.108h41.949v108.269h21.458v25.074h-21.458v34.968h-32.306V361.42h-72.597v-27.235m72.597 2.16v-73.05h-.478l-41.722 73.05h42.2zM196.397 95.569c32.497 0 49.479 19.357 49.479 51.02 0 31.375-17.245 51.031-49.479 51.031-32.235 0-49.48-19.656-49.48-51.031 0-31.662 16.982-51.02 49.48-51.02m0 82.527c15.98 0 22.317-15.264 22.317-31.507 0-17.102-6.337-31.519-22.317-31.519-15.968 0-22.341 14.417-22.341 31.519 0 16.243 6.373 31.507 22.341 31.507zM257.751 97.264h26.268v37.748h31.101V97.264h26.279v98.65H315.12v-42.272h-31.101v42.272h-26.268v-98.65"/></svg>