<svg xmlns="http://www.w3.org/2000/svg" xml:space="preserve" width="500" height="500"><path fill="#FFF" d="M250 29C104 29 29 110.2 29 250s75 221 221 221c145.9 0 221-81.2 221-221S396 29 250 29z"/><path fill="#0085CE" d="M135.14 362.292c11.514 4.553 23.953 7.66 37.15 7.66 13.885 0 35.206-6.7 35.206-23.704 0-19.66-15.581-26.123-36.901-26.123h-16.292v-26.348h15.344c22.529 0 37.15-7.423 37.15-22.043 0-16.767-13.66-22.056-28.755-22.056-13.186 0-25.874 3.119-37.625 8.87l-1.909-26.834c13.399-5.276 29.455-8.383 46.696-8.383 20.621 0 55.115 7.186 55.115 42.889 0 22.755-14.135 33.522-31.139 40.008v.486c21.332 2.87 31.85 19.399 31.85 39.771 0 39.759-36.154 49.826-63.96 49.826-14.609 0-31.375-1.921-43.85-5.514l1.92-28.505M368.251 251.126h-64.458l-.723 35.704c3.854-.723 8.881-1.696 15.344-1.696 23.49 0 53.917 11.04 53.917 54.392 0 31.399-22.067 56.787-65.182 56.787-12.949 0-28.02-2.146-39.048-4.791l.712-29.94c8.146 3.344 19.648 8.372 34.257 8.372 17.514 0 35.715-8.134 35.715-29.466 0-21.558-19.174-28.98-38.336-28.98-10.304 0-20.134 1.423-29.953 4.553l1.684-89.846h96.071v24.911M199.16 94.545c32.289 0 49.162 19.245 49.162 50.704 0 31.174-17.134 50.68-49.162 50.68s-49.15-19.506-49.15-50.68c0-31.458 16.862-50.704 49.15-50.704m0 82.008c15.866 0 22.186-15.154 22.186-31.304 0-17.016-6.32-31.328-22.186-31.328-15.877 0-22.174 14.313-22.174 31.328 0 16.15 6.297 31.304 22.174 31.304zM260.097 96.229h26.146v37.494h30.878V96.229h26.122v98.016h-26.122v-41.976h-30.878v41.976h-26.146V96.229"/><path fill="#0085CE" d="M249.994 50.85c131.11 0 197.597 67.008 197.597 199.162 0 132.143-66.486 199.139-197.597 199.139S52.421 382.155 52.421 250.012c0-132.154 66.462-199.162 197.573-199.162m0-40.85C92.536 10 11.559 98.198 11.559 250.012 11.559 401.826 92.536 490 249.994 490c157.47 0 238.447-88.174 238.447-239.988S407.464 10 249.994 10z"/></svg>