<?xml version="1.0" encoding="utf-8"?>
<!-- Generator: Adobe Illustrator 15.0.0, SVG Export Plug-In . SVG Version: 6.00 Build 0)  -->
<!DOCTYPE svg PUBLIC "-//W3C//DTD SVG 1.1//EN" "http://www.w3.org/Graphics/SVG/1.1/DTD/svg11.dtd">
<svg version="1.1" id="レイヤー_37" xmlns="http://www.w3.org/2000/svg" xmlns:xlink="http://www.w3.org/1999/xlink" x="0px"
	 y="0px" width="500px" height="500px" viewBox="0 0 500 500" enable-background="new 0 0 500 500" xml:space="preserve">
<path fill="#FFFFFF" d="M250,29C104,29,29,110.2,29,250c0,139.8,75,221,221,221c145.9,0,221-81.2,221-221C471,110.2,396,29,250,29z"/>
<path fill="#0085CE" d="M135.14,362.292c11.514,4.553,23.953,7.66,37.15,7.66c13.885,0,35.206-6.7,35.206-23.704
	c0-19.66-15.581-26.123-36.901-26.123h-16.292v-26.348h15.344c22.529,0,37.15-7.423,37.15-22.043
	c0-16.767-13.66-22.056-28.755-22.056c-13.186,0-25.874,3.119-37.625,8.87l-1.909-26.834c13.399-5.276,29.455-8.383,46.696-8.383
	c20.621,0,55.115,7.186,55.115,42.889c0,22.755-14.135,33.522-31.139,40.008v0.486c21.332,2.87,31.85,19.399,31.85,39.771
	c0,39.759-36.154,49.826-63.96,49.826c-14.609,0-31.375-1.921-43.85-5.514L135.14,362.292"/>
<path fill="#0085CE" d="M368.251,251.126h-64.458l-0.723,35.704c3.854-0.723,8.881-1.696,15.344-1.696
	c23.49,0,53.917,11.04,53.917,54.392c0,31.399-22.067,56.787-65.182,56.787c-12.949,0-28.02-2.146-39.048-4.791l0.712-29.94
	c8.146,3.344,19.648,8.372,34.257,8.372c17.514,0,35.715-8.134,35.715-29.466c0-21.558-19.174-28.98-38.336-28.98
	c-10.304,0-20.134,1.423-29.953,4.553l1.684-89.846h96.071V251.126"/>
<path fill="#0085CE" d="M199.16,94.545c32.289,0,49.162,19.245,49.162,50.704c0,31.174-17.134,50.68-49.162,50.68
	s-49.15-19.506-49.15-50.68C150.01,113.791,166.872,94.545,199.16,94.545 M199.16,176.553c15.866,0,22.186-15.154,22.186-31.304
	c0-17.016-6.32-31.328-22.186-31.328c-15.877,0-22.174,14.313-22.174,31.328C176.986,161.399,183.283,176.553,199.16,176.553z"/>
<polyline fill="#0085CE" points="260.097,96.229 286.243,96.229 286.243,133.723 317.121,133.723 317.121,96.229 343.243,96.229 
	343.243,194.245 317.121,194.245 317.121,152.269 286.243,152.269 286.243,194.245 260.097,194.245 260.097,96.229 "/>
<path fill="#0085CE" d="M249.994,50.85c131.11,0,197.597,67.008,197.597,199.162c0,132.143-66.486,199.139-197.597,199.139
	c-131.111,0-197.573-66.996-197.573-199.139C52.421,117.858,118.883,50.85,249.994,50.85 M249.994,10
	C92.536,10,11.559,98.198,11.559,250.012C11.559,401.826,92.536,490,249.994,490c157.47,0,238.447-88.174,238.447-239.988
	C488.441,98.198,407.464,10,249.994,10z"/>
</svg>
