<svg xmlns="http://www.w3.org/2000/svg" xml:space="preserve" width="500" height="500"><path fill="#FFF" d="M250 29C104 29 29 110.2 29 250s75 221 221 221c145.9 0 221-81.2 221-221S396 29 250 29z"/><path fill="#0085CE" d="M134.72 363.006c11.576 4.583 24.119 7.722 37.39 7.722 13.975 0 35.433-6.755 35.433-23.857 0-19.787-15.658-26.303-37.128-26.303h-16.41V294.05h15.455c22.651 0 37.367-7.471 37.367-22.186 0-16.875-13.749-22.186-28.953-22.186-13.247 0-26.041 3.127-37.832 8.915l-1.945-27.007c13.509-5.299 29.657-8.426 47.021-8.426 20.73 0 55.459 7.232 55.459 43.167 0 22.89-14.226 33.738-31.339 40.267v.489c21.47 2.876 32.067 19.524 32.067 40.016 0 40.028-36.412 50.16-64.386 50.16-14.703 0-31.59-1.934-44.121-5.55l1.922-28.703M362.105 256.433c-8.939-3.855-18.104-6.755-29.43-6.755-29.167 0-39.061 27.007-40.016 52.082l.478.489c7.948-11.576 18.331-16.887 32.545-16.887 31.841 0 49.193 20.265 49.193 51.366 0 36.412-17.842 60.531-55.948 60.531-46.771 0-57.142-38.834-57.142-78.373 0-45.578 14.727-95.726 69.219-95.726 12.281 0 23.869 1.933 35.433 6.039l-4.332 27.234m-66.558 85.856c0 15.896 6.755 29.883 23.379 29.883 15.682 0 22.198-15.192 22.198-30.134 0-16.41-6.767-31.602-22.914-31.602-16.385 0-22.663 14.965-22.663 31.853zM202.841 93.529c32.509 0 49.48 19.369 49.48 51.031 0 31.375-17.233 51.019-49.48 51.019-32.211 0-49.468-19.644-49.468-51.019.001-31.662 16.971-51.031 49.468-51.031m0 82.537c15.98 0 22.341-15.252 22.341-31.506 0-17.114-6.361-31.531-22.341-31.531-15.956 0-22.317 14.417-22.317 31.531 0 16.254 6.361 31.506 22.317 31.506zM264.196 95.223h26.291v37.749h31.077V95.223h26.292v98.65h-26.292v-42.248h-31.077v42.248h-26.291v-98.65"/><path fill="#0085CE" d="M250.018 50.995c132.03 0 199.005 66.952 199.005 199.005s-66.976 199.018-199.005 199.018C117.94 449.018 50.977 382.054 50.977 250S117.94 50.995 250.018 50.995m0-40.995C91.506 10 10.006 98.183 10.006 250c0 151.829 81.5 240 240.012 240 158.476 0 239.976-88.171 239.976-240 0-151.817-81.5-240-239.976-240z"/></svg>