<?xml version="1.0" encoding="utf-8"?>
<!-- Generator: Adobe Illustrator 15.0.0, SVG Export Plug-In . SVG Version: 6.00 Build 0)  -->
<!DOCTYPE svg PUBLIC "-//W3C//DTD SVG 1.1//EN" "http://www.w3.org/Graphics/SVG/1.1/DTD/svg11.dtd">
<svg version="1.1" id="レイヤー_39" xmlns="http://www.w3.org/2000/svg" xmlns:xlink="http://www.w3.org/1999/xlink" x="0px"
	 y="0px" width="500px" height="500px" viewBox="0 0 500 500" enable-background="new 0 0 500 500" xml:space="preserve">
<path fill="#FFFFFF" d="M250,29C104,29,29,110.2,29,250c0,139.8,75,221,221,221c145.9,0,221-81.2,221-221C471,110.2,396,29,250,29z"/>
<path fill="#0085CE" d="M137.208,363.019c11.576,4.583,24.119,7.709,37.39,7.709c13.975,0,35.433-6.755,35.433-23.869
	c0-19.775-15.67-26.292-37.14-26.292h-16.398V294.05h15.455c22.651,0,37.354-7.483,37.354-22.186
	c0-16.875-13.736-22.186-28.941-22.186c-13.247,0-26.041,3.139-37.844,8.927l-1.933-27.007c13.51-5.311,29.657-8.45,47.009-8.45
	c20.742,0,55.471,7.232,55.471,43.167c0,22.914-14.226,33.762-31.328,40.278v0.478c21.458,2.888,32.056,19.536,32.056,40.028
	c0,40.028-36.412,50.148-64.386,50.148c-14.715,0-31.602-1.921-44.121-5.538L137.208,363.019"/>
<polyline fill="#0085CE" points="265.729,226.048 374.237,226.048 374.237,254.022 314.422,394.358 277.771,394.358 
	340.236,252.578 265.729,252.578 265.729,226.048 "/>
<path fill="#0085CE" d="M192.405,93.529c32.509,0,49.468,19.369,49.468,51.019c0,31.388-17.245,51.031-49.468,51.031
	c-32.235,0-49.48-19.644-49.48-51.031C142.925,112.898,159.896,93.529,192.405,93.529 M192.405,176.066
	c15.968,0,22.329-15.264,22.329-31.519c0-17.09-6.361-31.519-22.329-31.519c-15.98,0-22.341,14.429-22.341,31.519
	C170.063,160.803,176.425,176.066,192.405,176.066z"/>
<polyline fill="#0085CE" points="253.748,95.223 280.027,95.223 280.027,132.959 311.128,132.959 311.128,95.223 337.419,95.223 
	337.419,193.885 311.128,193.885 311.128,151.613 280.027,151.613 280.027,193.885 253.748,193.885 253.748,95.223 "/>
<path fill="#0085CE" d="M250,50.982c132.054,0,199.018,66.964,199.018,199.018S382.054,449.018,250,449.018
	S50.982,382.054,50.982,250S117.946,50.982,250,50.982 M250,10C91.5,10,10,98.183,10,250s81.5,240,240,240
	c158.5,0,240-88.183,240-240S408.5,10,250,10z"/>
</svg>
