<svg xmlns="http://www.w3.org/2000/svg" xml:space="preserve" width="500" height="500"><path fill="#FFF" d="M250 29C104 29 29 110.2 29 250s75 221 221 221c145.9 0 221-81.2 221-221S396 29 250 29z"/><path fill="#0085CE" d="M137.208 363.019c11.576 4.583 24.119 7.709 37.39 7.709 13.975 0 35.433-6.755 35.433-23.869 0-19.775-15.67-26.292-37.14-26.292h-16.398V294.05h15.455c22.651 0 37.354-7.483 37.354-22.186 0-16.875-13.736-22.186-28.941-22.186-13.247 0-26.041 3.139-37.844 8.927l-1.933-27.007c13.51-5.311 29.657-8.45 47.009-8.45 20.742 0 55.471 7.232 55.471 43.167 0 22.914-14.226 33.762-31.328 40.278v.478c21.458 2.888 32.056 19.536 32.056 40.028 0 40.028-36.412 50.148-64.386 50.148-14.715 0-31.602-1.921-44.121-5.538l1.923-28.69M265.729 226.048h108.508v27.974l-59.815 140.336h-36.651l62.465-141.78h-74.507v-26.53M192.405 93.529c32.509 0 49.468 19.369 49.468 51.019 0 31.388-17.245 51.031-49.468 51.031-32.235 0-49.48-19.644-49.48-51.031 0-31.65 16.971-51.019 49.48-51.019m0 82.537c15.968 0 22.329-15.264 22.329-31.519 0-17.09-6.361-31.519-22.329-31.519-15.98 0-22.341 14.429-22.341 31.519-.001 16.256 6.361 31.519 22.341 31.519zM253.748 95.223h26.279v37.736h31.101V95.223h26.291v98.662h-26.291v-42.272h-31.101v42.272h-26.279V95.223"/><path fill="#0085CE" d="M250 50.982c132.054 0 199.018 66.964 199.018 199.018S382.054 449.018 250 449.018 50.982 382.054 50.982 250 117.946 50.982 250 50.982M250 10C91.5 10 10 98.183 10 250s81.5 240 240 240 240-88.183 240-240S408.5 10 250 10z"/></svg>