<svg xmlns="http://www.w3.org/2000/svg" xml:space="preserve" width="500" height="500"><path fill="#FFF" d="M250 29C104 29 29 110.2 29 250s75 221 221 221c145.9 0 221-81.2 221-221S396 29 250 29z"/><path fill="#0085CE" d="M132.733 363.019c11.576 4.583 24.12 7.709 37.378 7.709 13.987 0 35.433-6.755 35.433-23.869 0-19.775-15.682-26.292-37.14-26.292H152.03V294.05h15.419c22.675 0 37.39-7.483 37.39-22.186 0-16.875-13.749-22.186-28.941-22.186-13.259 0-26.053 3.139-37.868 8.927l-1.91-27.007c13.474-5.311 29.645-8.45 47.021-8.45 20.73 0 55.447 7.232 55.447 43.167 0 22.914-14.226 33.762-31.34 40.278v.478c21.458 2.888 32.068 19.536 32.068 40.028 0 40.028-36.412 50.148-64.386 50.148-14.703 0-31.59-1.921-44.145-5.538l1.948-28.69M342.515 303.693v.489c22.174 10.359 32.306 24.835 32.306 44.121 0 34.001-24.608 48.943-57.87 48.943-32.795 0-59.337-14.214-59.337-48.465 0-18.809 10.609-31.829 30.886-41.71v-.478c-16.887-7.483-27.974-21.458-27.974-39.073 0-30.134 22.902-44.372 53.514-44.372 29.669 0 56.438 12.305 56.438 40.518 0 15.192-9.404 32.795-27.962 40.266v-.239m-51.128 44.61c0 13.987 12.042 23.869 25.563 23.869 13.498 0 24.096-8.438 24.096-22.413 0-16.648-14.226-24.608-28.201-29.191-12.065 5.788-21.458 13.51-21.458 27.735zm46.783-78.85c0-12.531-7.96-21.219-20.742-21.219-12.292 0-24.585 6.755-24.585 20.252 0 14.477 14.942 20.98 26.518 25.325 9.405-3.377 18.809-13.999 18.809-24.358zM199.995 93.529c32.521 0 49.468 19.369 49.468 51.019 0 31.388-17.221 51.031-49.468 51.031-32.211 0-49.456-19.644-49.456-51.031 0-31.65 16.971-51.019 49.456-51.019m0 82.537c15.98 0 22.341-15.264 22.341-31.519 0-17.09-6.361-31.519-22.341-31.519-15.968 0-22.329 14.429-22.329 31.519 0 16.256 6.361 31.519 22.329 31.519zM261.35 95.223h26.279v37.736h31.089V95.223h26.303v98.662h-26.303v-42.272h-31.089v42.272H261.35V95.223"/><path fill="#0085CE" d="M250 50.982c132.054 0 199.005 66.964 199.005 199.018S382.054 449.018 250 449.018 50.982 382.054 50.982 250 117.946 50.982 250 50.982M250 10C91.488 10 10 98.183 10 250s81.488 240 240 240c158.488 0 240-88.183 240-240S408.488 10 250 10z"/></svg>