<?xml version="1.0" encoding="utf-8"?>
<!-- Generator: Adobe Illustrator 15.0.0, SVG Export Plug-In . SVG Version: 6.00 Build 0)  -->
<!DOCTYPE svg PUBLIC "-//W3C//DTD SVG 1.1//EN" "http://www.w3.org/Graphics/SVG/1.1/DTD/svg11.dtd">
<svg version="1.1" id="レイヤー_40" xmlns="http://www.w3.org/2000/svg" xmlns:xlink="http://www.w3.org/1999/xlink" x="0px"
	 y="0px" width="500px" height="500px" viewBox="0 0 500 500" enable-background="new 0 0 500 500" xml:space="preserve">
<path fill="#FFFFFF" d="M250,29C104,29,29,110.2,29,250c0,139.8,75,221,221,221c145.9,0,221-81.2,221-221C471,110.2,396,29,250,29z"/>
<path fill="#0085CE" d="M132.733,363.019c11.576,4.583,24.12,7.709,37.378,7.709c13.987,0,35.433-6.755,35.433-23.869
	c0-19.775-15.682-26.292-37.14-26.292h-16.374V294.05h15.419c22.675,0,37.39-7.483,37.39-22.186
	c0-16.875-13.749-22.186-28.941-22.186c-13.259,0-26.053,3.139-37.868,8.927l-1.91-27.007c13.474-5.311,29.645-8.45,47.021-8.45
	c20.73,0,55.447,7.232,55.447,43.167c0,22.914-14.226,33.762-31.34,40.278v0.478c21.458,2.888,32.068,19.536,32.068,40.028
	c0,40.028-36.412,50.148-64.386,50.148c-14.703,0-31.59-1.921-44.145-5.538L132.733,363.019"/>
<path fill="#0085CE" d="M342.515,303.693v0.489c22.174,10.359,32.306,24.835,32.306,44.121c0,34.001-24.608,48.943-57.87,48.943
	c-32.795,0-59.337-14.214-59.337-48.465c0-18.809,10.609-31.829,30.886-41.71v-0.478c-16.887-7.483-27.974-21.458-27.974-39.073
	c0-30.134,22.902-44.372,53.514-44.372c29.669,0,56.438,12.305,56.438,40.518c0,15.192-9.404,32.795-27.962,40.266V303.693
	 M291.388,348.303c0,13.987,12.042,23.869,25.563,23.869c13.498,0,24.096-8.438,24.096-22.413c0-16.648-14.226-24.608-28.201-29.191
	C300.781,326.356,291.388,334.078,291.388,348.303z M338.171,269.453c0-12.531-7.96-21.219-20.742-21.219
	c-12.292,0-24.585,6.755-24.585,20.252c0,14.477,14.942,20.98,26.518,25.325C328.767,290.434,338.171,279.812,338.171,269.453z"/>
<path fill="#0085CE" d="M199.995,93.529c32.521,0,49.468,19.369,49.468,51.019c0,31.388-17.221,51.031-49.468,51.031
	c-32.211,0-49.456-19.644-49.456-51.031C150.539,112.898,167.51,93.529,199.995,93.529 M199.995,176.066
	c15.98,0,22.341-15.264,22.341-31.519c0-17.09-6.361-31.519-22.341-31.519c-15.968,0-22.329,14.429-22.329,31.519
	C177.666,160.803,184.027,176.066,199.995,176.066z"/>
<polyline fill="#0085CE" points="261.35,95.223 287.629,95.223 287.629,132.959 318.718,132.959 318.718,95.223 345.021,95.223 
	345.021,193.885 318.718,193.885 318.718,151.613 287.629,151.613 287.629,193.885 261.35,193.885 261.35,95.223 "/>
<path fill="#0085CE" d="M250,50.982c132.054,0,199.005,66.964,199.005,199.018S382.054,449.018,250,449.018
	S50.982,382.054,50.982,250S117.946,50.982,250,50.982 M250,10C91.488,10,10,98.183,10,250s81.488,240,240,240
	c158.488,0,240-88.183,240-240S408.488,10,250,10z"/>
</svg>
