<svg xmlns="http://www.w3.org/2000/svg" xml:space="preserve" width="500" height="500"><path fill="#FFF" d="M250 29C104 29 29 110.2 29 250s75 221 221 221c145.9 0 221-81.2 221-221S396 29 250 29z"/><path fill="#0085CE" d="M136.075 363.019c11.576 4.583 24.119 7.709 37.378 7.709 13.975 0 35.445-6.755 35.445-23.869 0-19.775-15.67-26.292-37.128-26.292h-16.41V294.05h15.455c22.651 0 37.367-7.483 37.367-22.186 0-16.875-13.749-22.186-28.941-22.186-13.259 0-26.041 3.139-37.856 8.927l-1.933-27.007c13.51-5.311 29.657-8.45 47.009-8.45 20.754 0 55.471 7.232 55.471 43.167 0 22.914-14.226 33.762-31.339 40.278v.478c21.47 2.888 32.067 19.536 32.067 40.028 0 40.028-36.423 50.148-64.397 50.148-14.715 0-31.59-1.921-44.109-5.538l1.921-28.69M275.934 363.973c8.903 3.867 18.068 6.755 29.406 6.755 29.167 0 39.061-27.007 40.016-52.082l-.465-.489c-7.948 11.815-18.331 16.887-32.557 16.887-31.817 0-49.193-20.265-49.193-51.366 0-36.412 17.854-60.531 55.948-60.531 46.783 0 57.142 38.834 57.142 78.373 0 45.578-14.703 95.726-69.195 95.726-12.304 0-23.893-1.921-35.445-6.015l4.343-27.258m66.545-85.844c0-15.909-6.755-29.896-23.392-29.896-15.682 0-22.198 15.192-22.198 30.146 0 16.386 6.755 31.578 22.902 31.578 16.399.001 22.688-14.94 22.688-31.828zM196.057 93.529c32.521 0 49.48 19.369 49.48 51.019 0 31.388-17.233 51.031-49.48 51.031-32.211 0-49.444-19.644-49.444-51.031 0-31.65 16.947-51.019 49.444-51.019m0 82.537c15.992 0 22.353-15.264 22.353-31.519 0-17.09-6.361-31.519-22.353-31.519-15.956 0-22.317 14.429-22.317 31.519-.001 16.256 6.361 31.519 22.317 31.519zM257.423 95.223h26.28v37.736h31.077V95.223h26.315v98.662H314.78v-42.272h-31.077v42.272h-26.28V95.223"/><path fill="#0085CE" d="M250.012 50.982c132.03 0 198.994 66.964 198.994 199.018s-66.963 199.018-198.994 199.018c-132.054 0-199.029-66.964-199.029-199.018S117.958 50.982 250.012 50.982m0-40.982c-158.5 0-240 88.195-240 240s81.5 240 240 240c158.477 0 239.977-88.195 239.977-240S408.488 10 250.012 10z"/></svg>