<?xml version="1.0" encoding="utf-8"?>
<!-- Generator: Adobe Illustrator 15.0.0, SVG Export Plug-In . SVG Version: 6.00 Build 0)  -->
<!DOCTYPE svg PUBLIC "-//W3C//DTD SVG 1.1//EN" "http://www.w3.org/Graphics/SVG/1.1/DTD/svg11.dtd">
<svg version="1.1" id="レイヤー_41" xmlns="http://www.w3.org/2000/svg" xmlns:xlink="http://www.w3.org/1999/xlink" x="0px"
	 y="0px" width="500px" height="500px" viewBox="0 0 500 500" enable-background="new 0 0 500 500" xml:space="preserve">
<path fill="#FFFFFF" d="M250,29C104,29,29,110.2,29,250c0,139.8,75,221,221,221c145.9,0,221-81.2,221-221C471,110.2,396,29,250,29z"/>
<path fill="#0085CE" d="M136.075,363.019c11.576,4.583,24.119,7.709,37.378,7.709c13.975,0,35.445-6.755,35.445-23.869
	c0-19.775-15.67-26.292-37.128-26.292h-16.41V294.05h15.455c22.651,0,37.367-7.483,37.367-22.186
	c0-16.875-13.749-22.186-28.941-22.186c-13.259,0-26.041,3.139-37.856,8.927l-1.933-27.007c13.51-5.311,29.657-8.45,47.009-8.45
	c20.754,0,55.471,7.232,55.471,43.167c0,22.914-14.226,33.762-31.339,40.278v0.478c21.47,2.888,32.067,19.536,32.067,40.028
	c0,40.028-36.423,50.148-64.397,50.148c-14.715,0-31.59-1.921-44.109-5.538L136.075,363.019"/>
<path fill="#0085CE" d="M275.934,363.973c8.903,3.867,18.068,6.755,29.406,6.755c29.167,0,39.061-27.007,40.016-52.082l-0.465-0.489
	c-7.948,11.815-18.331,16.887-32.557,16.887c-31.817,0-49.193-20.265-49.193-51.366c0-36.412,17.854-60.531,55.948-60.531
	c46.783,0,57.142,38.834,57.142,78.373c0,45.578-14.703,95.726-69.195,95.726c-12.304,0-23.893-1.921-35.445-6.015L275.934,363.973
	 M342.479,278.129c0-15.909-6.755-29.896-23.392-29.896c-15.682,0-22.198,15.192-22.198,30.146c0,16.386,6.755,31.578,22.902,31.578
	C336.19,309.958,342.479,295.017,342.479,278.129z"/>
<path fill="#0085CE" d="M196.057,93.529c32.521,0,49.48,19.369,49.48,51.019c0,31.388-17.233,51.031-49.48,51.031
	c-32.211,0-49.444-19.644-49.444-51.031C146.613,112.898,163.56,93.529,196.057,93.529 M196.057,176.066
	c15.992,0,22.353-15.264,22.353-31.519c0-17.09-6.361-31.519-22.353-31.519c-15.956,0-22.317,14.429-22.317,31.519
	C173.739,160.803,180.101,176.066,196.057,176.066z"/>
<polyline fill="#0085CE" points="257.423,95.223 283.703,95.223 283.703,132.959 314.78,132.959 314.78,95.223 341.095,95.223 
	341.095,193.885 314.78,193.885 314.78,151.613 283.703,151.613 283.703,193.885 257.423,193.885 257.423,95.223 "/>
<path fill="#0085CE" d="M250.012,50.982c132.03,0,198.994,66.964,198.994,199.018s-66.963,199.018-198.994,199.018
	c-132.054,0-199.029-66.964-199.029-199.018S117.958,50.982,250.012,50.982 M250.012,10c-158.5,0-240,88.195-240,240
	s81.5,240,240,240c158.477,0,239.977-88.195,239.977-240S408.488,10,250.012,10z"/>
</svg>
