<?xml version="1.0" encoding="utf-8"?>
<!-- Generator: Adobe Illustrator 15.0.0, SVG Export Plug-In . SVG Version: 6.00 Build 0)  -->
<!DOCTYPE svg PUBLIC "-//W3C//DTD SVG 1.1//EN" "http://www.w3.org/Graphics/SVG/1.1/DTD/svg11.dtd">
<svg version="1.1" id="レイヤー_42" xmlns="http://www.w3.org/2000/svg" xmlns:xlink="http://www.w3.org/1999/xlink" x="0px"
	 y="0px" width="500px" height="500px" viewBox="0 0 500 500" enable-background="new 0 0 500 500" xml:space="preserve">
<path fill="#FFFFFF" d="M250,29C104,29,29,110.2,29,250c0,139.8,75,221,221,221c145.9,0,221-81.2,221-221C471,110.2,396,29,250,29z"/>
<path fill="#0085CE" d="M115.094,332.144l62.942-106.096h41.961v108.269h21.458v25.074h-21.458v34.968h-32.33V359.39h-72.573
	V332.144 M187.667,334.316v-73.063h-0.478l-41.71,73.063H187.667z"/>
<path fill="#0085CE" d="M253.724,310.686c0-42.2,12.782-87.539,58.359-87.539c49.182,0,58.825,48.478,58.825,87.539
	c0,39.073-10.121,86.56-58.825,86.56C260.24,397.246,253.724,345.893,253.724,310.686 M337.168,310.686
	c0-21.708,0-62.452-25.086-62.452c-24.585,0-24.585,40.744-24.585,62.452c0,21.219-0.25,61.486,24.585,61.486
	C337.407,372.172,337.168,331.905,337.168,310.686z"/>
<path fill="#0085CE" d="M195.149,93.541c32.509,0,49.456,19.357,49.456,51.007c0,31.388-17.245,51.031-49.456,51.031
	c-32.223,0-49.468-19.644-49.468-51.031C145.682,112.898,162.628,93.541,195.149,93.541 M195.149,176.079
	c15.968,0,22.33-15.264,22.33-31.531c0-17.09-6.361-31.519-22.33-31.519c-15.968,0-22.353,14.429-22.353,31.519
	C172.796,160.814,179.182,176.079,195.149,176.079z"/>
<polyline fill="#0085CE" points="256.492,95.223 282.772,95.223 282.772,132.972 313.861,132.972 313.861,95.223 340.152,95.223 
	340.152,193.885 313.861,193.885 313.861,151.625 282.772,151.625 282.772,193.885 256.492,193.885 256.492,95.223 "/>
<path fill="#0085CE" d="M250,50.982c132.054,0,199.018,66.964,199.018,199.018S382.054,449.018,250,449.018
	S50.982,382.054,50.982,250S117.946,50.982,250,50.982 M250,10C91.488,10,10,98.183,10,250s81.488,240,240,240
	c158.488,0,240-88.183,240-240S408.488,10,250,10z"/>
</svg>
