<svg xmlns="http://www.w3.org/2000/svg" xml:space="preserve" width="500" height="500"><path fill="#FFF" d="M250 29C104 29 29 110.2 29 250s75 221 221 221c145.9 0 221-81.2 221-221S396 29 250 29z"/><path fill="#0085CE" d="m115.094 332.144 62.942-106.096h41.961v108.269h21.458v25.074h-21.458v34.968h-32.33V359.39h-72.573v-27.246m72.573 2.172v-73.063h-.478l-41.71 73.063h42.188zM253.724 310.686c0-42.2 12.782-87.539 58.359-87.539 49.182 0 58.825 48.478 58.825 87.539 0 39.073-10.121 86.56-58.825 86.56-51.843 0-58.359-51.353-58.359-86.56m83.444 0c0-21.708 0-62.452-25.086-62.452-24.585 0-24.585 40.744-24.585 62.452 0 21.219-.25 61.486 24.585 61.486 25.325 0 25.086-40.267 25.086-61.486zM195.149 93.541c32.509 0 49.456 19.357 49.456 51.007 0 31.388-17.245 51.031-49.456 51.031-32.223 0-49.468-19.644-49.468-51.031.001-31.65 16.947-51.007 49.468-51.007m0 82.538c15.968 0 22.33-15.264 22.33-31.531 0-17.09-6.361-31.519-22.33-31.519-15.968 0-22.353 14.429-22.353 31.519 0 16.266 6.386 31.531 22.353 31.531zM256.492 95.223h26.28v37.749h31.089V95.223h26.291v98.662h-26.291v-42.26h-31.089v42.26h-26.28V95.223"/><path fill="#0085CE" d="M250 50.982c132.054 0 199.018 66.964 199.018 199.018S382.054 449.018 250 449.018 50.982 382.054 50.982 250 117.946 50.982 250 50.982M250 10C91.488 10 10 98.183 10 250s81.488 240 240 240c158.488 0 240-88.183 240-240S408.488 10 250 10z"/></svg>