<?xml version="1.0" encoding="utf-8"?>
<!-- Generator: Adobe Illustrator 15.0.0, SVG Export Plug-In . SVG Version: 6.00 Build 0)  -->
<!DOCTYPE svg PUBLIC "-//W3C//DTD SVG 1.1//EN" "http://www.w3.org/Graphics/SVG/1.1/DTD/svg11.dtd">
<svg version="1.1" id="レイヤー_43" xmlns="http://www.w3.org/2000/svg" xmlns:xlink="http://www.w3.org/1999/xlink" x="0px"
	 y="0px" width="500px" height="500px" viewBox="0 0 500 500" enable-background="new 0 0 500 500" xml:space="preserve">
<path fill="#FFFFFF" d="M250,29C104,29,29,110.2,29,250c0,139.8,75,221,221,221c145.9,0,221-81.2,221-221C471,110.2,396,29,250,29z"/>
<path fill="#0085CE" d="M129.713,332.156l62.948-106.097h41.956v108.269h21.458v25.074h-21.458v34.968h-32.313v-34.968h-72.591
	V332.156 M202.304,334.328v-73.062h-0.477l-41.717,73.062H202.304z"/>
<polyline fill="#0085CE" points="318.527,226.06 348.423,226.06 348.423,394.37 314.66,394.37 314.66,264.393 286.197,287.545 
	269.322,265.61 318.527,226.06 "/>
<path fill="#0085CE" d="M196.695,93.541c32.509,0,49.474,19.357,49.474,51.007c0,31.388-17.245,51.031-49.474,51.031
	c-32.223,0-49.468-19.644-49.468-51.031C147.227,112.898,164.192,93.541,196.695,93.541 M196.695,176.079
	c15.974,0,22.329-15.264,22.329-31.531c0-17.09-6.355-31.519-22.329-31.519s-22.335,14.429-22.335,31.519
	C174.36,160.814,180.721,176.079,196.695,176.079z"/>
<polyline fill="#0085CE" points="258.032,95.223 284.323,95.223 284.323,132.972 315.424,132.972 315.424,95.223 341.692,95.223 
	341.692,193.885 315.424,193.885 315.424,151.625 284.323,151.625 284.323,193.885 258.032,193.885 258.032,95.223 "/>
<path fill="#0085CE" d="M249.988,50.982c132.065,0,199.017,66.964,199.017,199.018s-66.952,199.018-199.017,199.018
	c-132.042,0-199.012-66.964-199.012-199.018S117.946,50.982,249.988,50.982 M249.988,10C91.488,10,10,98.183,10,250
	s81.488,240,239.988,240C408.488,490,490,401.817,490,250S408.488,10,249.988,10z"/>
</svg>
