<svg xmlns="http://www.w3.org/2000/svg" xml:space="preserve" width="500" height="500"><path fill="#FFF" d="M250 29C104 29 29 110.2 29 250s75 221 221 221c145.9 0 221-81.2 221-221S396 29 250 29z"/><path fill="#0085CE" d="m129.713 332.156 62.948-106.097h41.956v108.269h21.458v25.074h-21.458v34.968h-32.313v-34.968h-72.591v-27.246m72.591 2.172v-73.062h-.477l-41.717 73.062h42.194zM318.527 226.06h29.896v168.31H314.66V264.393l-28.463 23.152-16.875-21.935 49.205-39.55M196.695 93.541c32.509 0 49.474 19.357 49.474 51.007 0 31.388-17.245 51.031-49.474 51.031-32.223 0-49.468-19.644-49.468-51.031 0-31.65 16.965-51.007 49.468-51.007m0 82.538c15.974 0 22.329-15.264 22.329-31.531 0-17.09-6.355-31.519-22.329-31.519s-22.335 14.429-22.335 31.519c0 16.266 6.361 31.531 22.335 31.531zM258.032 95.223h26.291v37.749h31.101V95.223h26.268v98.662h-26.268v-42.26h-31.101v42.26h-26.291V95.223"/><path fill="#0085CE" d="M249.988 50.982c132.065 0 199.017 66.964 199.017 199.018s-66.952 199.018-199.017 199.018c-132.042 0-199.012-66.964-199.012-199.018s66.97-199.018 199.012-199.018m0-40.982C91.488 10 10 98.183 10 250s81.488 240 239.988 240S490 401.817 490 250 408.488 10 249.988 10z"/></svg>