<svg xmlns="http://www.w3.org/2000/svg" xml:space="preserve" width="500" height="500"><path fill="#FFF" d="M250 29C104 29 29 110.2 29 250s75 221 221 221c145.9 0 221-81.2 221-221S396 29 250 29z"/><path fill="#0085CE" d="m119.238 332.146 62.956-106.099h41.95v108.271h21.458v25.075h-21.458v34.968h-32.307v-34.968h-72.599v-27.247m72.598 2.172v-73.064h-.478l-41.724 73.064h42.202zM259.327 394.361v-28.213c15.67-15.193 72.826-62.932 72.826-93.794 0-15.432-13.749-22.676-27.498-22.676-14.226 0-27.724 6.266-38.824 13.51l-2.625-27.975c15.181-7.722 32.772-12.066 49.911-12.066 32.057 0 52.811 16.16 52.811 49.207 0 35.673-35.947 68.469-63.445 95.489h68.744v26.519h-111.9M196.55 93.513c32.522 0 49.481 19.37 49.481 51.021 0 31.388-17.258 51.033-49.481 51.033-32.211 0-49.445-19.645-49.445-51.033 0-31.651 16.936-51.021 49.445-51.021m0 82.54c15.969 0 22.354-15.252 22.354-31.52 0-17.102-6.385-31.52-22.354-31.52-15.957 0-22.33 14.417-22.33 31.52.001 16.267 6.374 31.52 22.33 31.52zM257.907 95.195h26.28v37.738h31.089V95.195h26.305v98.664h-26.305V151.61h-31.089v42.249h-26.28V95.195"/><path fill="#0085CE" d="M250.006 50.978c132.045 0 199.022 66.965 199.022 199.022S382.05 449.022 250.006 449.022c-132.057 0-199.034-66.966-199.034-199.022 0-132.057 66.977-199.022 199.034-199.022m0-40.984C91.501 9.994 10 98.191 10 250s81.501 240.006 240.006 240.006C408.498 490.006 490 401.809 490 250S408.498 9.994 250.006 9.994z"/></svg>