<?xml version="1.0" encoding="utf-8"?>
<!-- Generator: Adobe Illustrator 15.0.0, SVG Export Plug-In . SVG Version: 6.00 Build 0)  -->
<!DOCTYPE svg PUBLIC "-//W3C//DTD SVG 1.1//EN" "http://www.w3.org/Graphics/SVG/1.1/DTD/svg11.dtd">
<svg version="1.1" id="レイヤー_44" xmlns="http://www.w3.org/2000/svg" xmlns:xlink="http://www.w3.org/1999/xlink" x="0px"
	 y="0px" width="500px" height="500px" viewBox="0 0 500 500" enable-background="new 0 0 500 500" xml:space="preserve">
<path fill="#FFFFFF" d="M250,29C104,29,29,110.2,29,250c0,139.8,75,221,221,221c145.9,0,221-81.2,221-221C471,110.2,396,29,250,29z"/>
<path fill="#0085CE" d="M119.238,332.146l62.956-106.099h41.95v108.271h21.458v25.075h-21.458v34.968h-32.307v-34.968h-72.599
	V332.146 M191.836,334.318v-73.064h-0.478l-41.724,73.064H191.836z"/>
<path fill="#0085CE" d="M259.327,394.361v-28.213c15.67-15.193,72.826-62.932,72.826-93.794c0-15.432-13.749-22.676-27.498-22.676
	c-14.226,0-27.724,6.266-38.824,13.51l-2.625-27.975c15.181-7.722,32.772-12.066,49.911-12.066c32.057,0,52.811,16.16,52.811,49.207
	c0,35.673-35.947,68.469-63.445,95.489h68.744v26.519H259.327"/>
<path fill="#0085CE" d="M196.55,93.513c32.522,0,49.481,19.37,49.481,51.021c0,31.388-17.258,51.033-49.481,51.033
	c-32.211,0-49.445-19.645-49.445-51.033C147.105,112.883,164.041,93.513,196.55,93.513 M196.55,176.053
	c15.969,0,22.354-15.252,22.354-31.52c0-17.102-6.385-31.52-22.354-31.52c-15.957,0-22.33,14.417-22.33,31.52
	C174.221,160.8,180.594,176.053,196.55,176.053z"/>
<polyline fill="#0085CE" points="257.907,95.195 284.187,95.195 284.187,132.933 315.276,132.933 315.276,95.195 341.581,95.195 
	341.581,193.859 315.276,193.859 315.276,151.61 284.187,151.61 284.187,193.859 257.907,193.859 257.907,95.195 "/>
<path fill="#0085CE" d="M250.006,50.978c132.045,0,199.022,66.965,199.022,199.022c0,132.057-66.978,199.022-199.022,199.022
	c-132.057,0-199.034-66.966-199.034-199.022C50.972,117.943,117.949,50.978,250.006,50.978 M250.006,9.994
	C91.501,9.994,10,98.191,10,250c0,151.809,81.501,240.006,240.006,240.006C408.498,490.006,490,401.809,490,250
	C490,98.191,408.498,9.994,250.006,9.994z"/>
</svg>
