<svg xmlns="http://www.w3.org/2000/svg" xml:space="preserve" width="500" height="500"><path fill="#FFF" d="M250 29C104 29 29 110.2 29 250s75 221 221 221c145.9 0 221-81.2 221-221S396 29 250 29z"/><path fill="#0085CE" d="m126.375 332.146 62.956-106.099h41.95v108.271h21.458v25.075H231.28v34.968h-32.307v-34.968h-72.599v-27.247m72.599 2.172v-73.064h-.477l-41.724 73.064h42.201zM269.352 363.021c11.588 4.583 24.12 7.71 37.379 7.71 13.999 0 35.446-6.755 35.446-23.87 0-19.775-15.67-26.292-37.129-26.292h-16.386V294.05h15.42c22.688 0 37.391-7.483 37.391-22.187 0-16.875-13.749-22.187-28.93-22.187-13.271 0-26.053 3.139-37.88 8.927l-1.91-27.008c13.486-5.311 29.658-8.45 47.01-8.45 20.743 0 55.473 7.232 55.473 43.167 0 22.915-14.25 33.763-31.364 40.28v.477c21.47 2.888 32.08 19.537 32.08 40.029 0 40.029-36.413 50.149-64.387 50.149-14.715 0-31.579-1.921-44.134-5.538l1.921-28.688M197.374 93.524c32.51 0 49.469 19.37 49.469 51.021 0 31.388-17.246 51.032-49.469 51.032-32.235 0-49.469-19.644-49.469-51.032 0-31.65 16.959-51.021 49.469-51.021m0 82.54c15.957 0 22.342-15.264 22.342-31.519 0-17.091-6.385-31.52-22.342-31.52-15.98 0-22.342 14.429-22.342 31.52 0 16.255 6.362 31.519 22.342 31.519zM258.706 95.219h26.304v37.738h31.09V95.219h26.268v98.664H316.1V151.61h-31.09v42.273h-26.304V95.219"/><path fill="#0085CE" d="M249.994 50.978c132.057 0 199.034 66.965 199.034 199.022S382.05 449.022 249.994 449.022c-132.045 0-199.022-66.966-199.022-199.022 0-132.057 66.977-199.022 199.022-199.022m0-40.984C91.49 9.994 10 98.179 10 250s81.49 240.006 239.994 240.006C408.486 490.006 490 401.821 490 250S408.486 9.994 249.994 9.994z"/></svg>