<?xml version="1.0" encoding="utf-8"?>
<!-- Generator: Adobe Illustrator 15.0.0, SVG Export Plug-In . SVG Version: 6.00 Build 0)  -->
<!DOCTYPE svg PUBLIC "-//W3C//DTD SVG 1.1//EN" "http://www.w3.org/Graphics/SVG/1.1/DTD/svg11.dtd">
<svg version="1.1" id="レイヤー_45" xmlns="http://www.w3.org/2000/svg" xmlns:xlink="http://www.w3.org/1999/xlink" x="0px"
	 y="0px" width="500px" height="500px" viewBox="0 0 500 500" enable-background="new 0 0 500 500" xml:space="preserve">
<path fill="#FFFFFF" d="M250,29C104,29,29,110.2,29,250c0,139.8,75,221,221,221c145.9,0,221-81.2,221-221C471,110.2,396,29,250,29z"/>
<path fill="#0085CE" d="M126.375,332.146l62.956-106.099h41.95v108.271h21.458v25.075H231.28v34.968h-32.307v-34.968h-72.599
	V332.146 M198.973,334.318v-73.064h-0.477l-41.724,73.064H198.973z"/>
<path fill="#0085CE" d="M269.352,363.021c11.588,4.583,24.12,7.71,37.379,7.71c13.999,0,35.446-6.755,35.446-23.87
	c0-19.775-15.67-26.292-37.129-26.292h-16.386v-26.519h15.42c22.688,0,37.391-7.483,37.391-22.187
	c0-16.875-13.749-22.187-28.93-22.187c-13.271,0-26.053,3.139-37.88,8.927l-1.91-27.008c13.486-5.311,29.658-8.45,47.01-8.45
	c20.743,0,55.473,7.232,55.473,43.167c0,22.915-14.25,33.763-31.364,40.28v0.477c21.47,2.888,32.08,19.537,32.08,40.029
	c0,40.029-36.413,50.149-64.387,50.149c-14.715,0-31.579-1.921-44.134-5.538L269.352,363.021"/>
<path fill="#0085CE" d="M197.374,93.524c32.51,0,49.469,19.37,49.469,51.021c0,31.388-17.246,51.032-49.469,51.032
	c-32.235,0-49.469-19.644-49.469-51.032C147.905,112.895,164.864,93.524,197.374,93.524 M197.374,176.064
	c15.957,0,22.342-15.264,22.342-31.519c0-17.091-6.385-31.52-22.342-31.52c-15.98,0-22.342,14.429-22.342,31.52
	C175.032,160.8,181.394,176.064,197.374,176.064z"/>
<polyline fill="#0085CE" points="258.706,95.219 285.01,95.219 285.01,132.957 316.1,132.957 316.1,95.219 342.368,95.219 
	342.368,193.883 316.1,193.883 316.1,151.61 285.01,151.61 285.01,193.883 258.706,193.883 258.706,95.219 "/>
<path fill="#0085CE" d="M249.994,50.978c132.057,0,199.034,66.965,199.034,199.022c0,132.057-66.978,199.022-199.034,199.022
	c-132.045,0-199.022-66.966-199.022-199.022C50.972,117.943,117.949,50.978,249.994,50.978 M249.994,9.994
	C91.49,9.994,10,98.179,10,250s81.49,240.006,239.994,240.006C408.486,490.006,490,401.821,490,250S408.486,9.994,249.994,9.994z"/>
</svg>
