<?xml version="1.0" encoding="utf-8"?>
<!-- Generator: Adobe Illustrator 15.0.0, SVG Export Plug-In . SVG Version: 6.00 Build 0)  -->
<!DOCTYPE svg PUBLIC "-//W3C//DTD SVG 1.1//EN" "http://www.w3.org/Graphics/SVG/1.1/DTD/svg11.dtd">
<svg version="1.1" id="レイヤー_46" xmlns="http://www.w3.org/2000/svg" xmlns:xlink="http://www.w3.org/1999/xlink" x="0px"
	 y="0px" width="500px" height="500px" viewBox="0 0 500 500" enable-background="new 0 0 500 500" xml:space="preserve">
<path fill="#FFFFFF" d="M250,29C104,29,29,110.2,29,250c0,139.8,75,221,221,221c145.9,0,221-81.2,221-221C471,110.2,396,29,250,29z"/>
<path fill="#0085CE" d="M249.994,50.966c132.067,0,199.021,66.979,199.021,199.034s-66.955,199.021-199.021,199.021
	c-132.043,0-199.021-66.967-199.021-199.021S117.951,50.966,249.994,50.966 M249.994,9.994C91.497,9.994,10,98.18,10,250
	s81.497,240.006,239.994,240.006C408.516,490.006,490,401.82,490,250S408.516,9.994,249.994,9.994z"/>
<path fill="#0085CE" d="M198.902,93.43c32.514,0,49.468,19.656,49.468,51.806c0,31.859-17.232,51.819-49.468,51.819
	c-32.223,0-49.443-19.959-49.443-51.819C149.459,113.085,166.389,93.43,198.902,93.43 M198.902,177.241
	c15.972,0,22.347-15.5,22.347-32.005c0-17.366-6.375-32.005-22.347-32.005c-15.96,0-22.334,14.639-22.334,32.005
	C176.568,161.741,182.942,177.241,198.902,177.241z"/>
<polyline fill="#0085CE" points="260.258,95.15 286.543,95.15 286.543,133.469 317.639,133.469 317.639,95.15 343.924,95.15 
	343.924,195.321 317.639,195.321 317.639,152.41 286.543,152.41 286.543,195.321 260.258,195.321 260.258,95.15 "/>
<path fill="#0085CE" d="M112.159,335.726l62.907-107.733h41.966v109.939h21.474v25.461h-21.474v35.507h-32.308v-35.507h-72.565
	V335.726 M184.724,337.932v-74.189h-0.485l-41.724,74.189H184.724z"/>
<path fill="#0085CE" d="M252.236,335.726l62.919-107.733h41.954v109.939h21.486v25.461h-21.486v35.507h-32.295v-35.507h-72.578
	V335.726 M324.813,337.932v-74.189h-0.485l-41.724,74.189H324.813z"/>
</svg>
