<svg xmlns="http://www.w3.org/2000/svg" xml:space="preserve" width="500" height="500"><path fill="#FFF" d="M250 29C104 29 29 110.2 29 250s75 221 221 221c145.9 0 221-81.2 221-221S396 29 250 29z"/><path fill="#0085CE" d="M249.994 50.966c132.067 0 199.021 66.979 199.021 199.034S382.06 449.021 249.994 449.021c-132.043 0-199.021-66.967-199.021-199.021S117.951 50.966 249.994 50.966m0-40.972C91.497 9.994 10 98.18 10 250s81.497 240.006 239.994 240.006C408.516 490.006 490 401.82 490 250S408.516 9.994 249.994 9.994z"/><path fill="#0085CE" d="M198.902 93.43c32.514 0 49.468 19.656 49.468 51.806 0 31.859-17.232 51.819-49.468 51.819-32.223 0-49.443-19.959-49.443-51.819 0-32.151 16.93-51.806 49.443-51.806m0 83.811c15.972 0 22.347-15.5 22.347-32.005 0-17.366-6.375-32.005-22.347-32.005-15.96 0-22.334 14.639-22.334 32.005 0 16.505 6.374 32.005 22.334 32.005zM260.258 95.15h26.285v38.319h31.096V95.15h26.285v100.171h-26.285V152.41h-31.096v42.911h-26.285V95.15M112.159 335.726l62.907-107.733h41.966v109.939h21.474v25.461h-21.474V398.9h-32.308v-35.507h-72.565v-27.667m72.565 2.206v-74.189h-.485l-41.724 74.189h42.209zM252.236 335.726l62.919-107.733h41.954v109.939h21.486v25.461h-21.486V398.9h-32.295v-35.507h-72.578v-27.667m72.577 2.206v-74.189h-.485l-41.724 74.189h42.209z"/></svg>