<?xml version="1.0" encoding="utf-8"?>
<!-- Generator: Adobe Illustrator 15.0.0, SVG Export Plug-In . SVG Version: 6.00 Build 0)  -->
<!DOCTYPE svg PUBLIC "-//W3C//DTD SVG 1.1//EN" "http://www.w3.org/Graphics/SVG/1.1/DTD/svg11.dtd">
<svg version="1.1" id="レイヤー_47" xmlns="http://www.w3.org/2000/svg" xmlns:xlink="http://www.w3.org/1999/xlink" x="0px"
	 y="0px" width="500px" height="500px" viewBox="0 0 500 500" enable-background="new 0 0 500 500" xml:space="preserve">
<path fill="#FFFFFF" d="M250,29C104,29,29,110.2,29,250c0,139.8,75,221,221,221c145.9,0,221-81.2,221-221C471,110.2,396,29,250,29z"/>
<path fill="#0085CE" d="M249.982,50.977c132.072,0,199.023,66.976,199.023,199.023c0,132.048-66.951,199.012-199.023,199.012
	c-132.048,0-198.987-66.963-198.987-199.012C50.995,117.952,117.934,50.977,249.982,50.977 M249.982,10.006
	C91.493,10.006,10,98.188,10,250s81.493,239.994,239.982,239.994C408.496,489.994,490,401.813,490,250
	S408.496,10.006,249.982,10.006z"/>
<path fill="#0085CE" d="M117.583,330.753l62.94-107.728h41.952v109.933h21.46v25.459h-21.46v35.505h-32.306v-35.505h-72.586V330.753
	 M190.168,332.959v-74.186h-0.473l-41.722,74.186H190.168z"/>
<path fill="#0085CE" d="M365.938,248.485h-64.867l-0.715,36.487c3.841-0.739,8.906-1.721,15.438-1.721
	c23.605,0,54.239,11.27,54.239,55.584c0,32.076-22.175,58.032-65.582,58.032c-13.015,0-28.223-2.205-39.31-4.896l0.715-30.609
	c8.204,3.429,19.776,8.567,34.5,8.567c17.595,0,35.917-8.325,35.917-30.113c0-22.03-19.292-29.628-38.571-29.628
	c-10.373,0-20.273,1.466-30.149,4.653l1.708-91.817h96.676V248.485"/>
<path fill="#0085CE" d="M193.488,88.469c32.512,0,49.478,19.655,49.478,51.804c0,31.858-17.244,51.816-49.478,51.816
	c-32.197,0-49.453-19.958-49.453-51.816C144.036,108.125,160.988,88.469,193.488,88.469 M193.488,172.276
	c15.972,0,22.333-15.499,22.333-32.003c0-17.365-6.362-32.003-22.333-32.003c-15.971,0-22.309,14.639-22.309,32.003
	C171.18,156.777,177.517,172.276,193.488,172.276z"/>
<polyline fill="#0085CE" points="254.854,90.178 281.137,90.178 281.137,128.495 312.231,128.495 312.231,90.178 338.503,90.178 
	338.503,190.368 312.231,190.368 312.231,147.447 281.137,147.447 281.137,190.368 254.854,190.368 254.854,90.178 "/>
</svg>
