<svg xmlns="http://www.w3.org/2000/svg" xml:space="preserve" width="500" height="500"><path fill="#FFF" d="M250 29C104 29 29 110.2 29 250s75 221 221 221c145.9 0 221-81.2 221-221S396 29 250 29z"/><path fill="#0085CE" d="M249.982 50.977c132.072 0 199.023 66.976 199.023 199.023 0 132.048-66.951 199.012-199.023 199.012-132.048 0-198.987-66.963-198.987-199.012 0-132.048 66.939-199.023 198.987-199.023m0-40.971C91.493 10.006 10 98.188 10 250s81.493 239.994 239.982 239.994C408.496 489.994 490 401.813 490 250S408.496 10.006 249.982 10.006z"/><path fill="#0085CE" d="m117.583 330.753 62.94-107.728h41.952v109.933h21.46v25.459h-21.46v35.505h-32.306v-35.505h-72.586v-27.664m72.585 2.206v-74.186h-.473l-41.722 74.186h42.195zM365.938 248.485h-64.867l-.715 36.487c3.841-.739 8.906-1.721 15.438-1.721 23.605 0 54.239 11.27 54.239 55.584 0 32.076-22.175 58.032-65.582 58.032-13.015 0-28.223-2.205-39.31-4.896l.715-30.609c8.204 3.429 19.776 8.567 34.5 8.567 17.595 0 35.917-8.325 35.917-30.113 0-22.03-19.292-29.628-38.571-29.628-10.373 0-20.273 1.466-30.149 4.653l1.708-91.817h96.676v25.461M193.488 88.469c32.512 0 49.478 19.655 49.478 51.804 0 31.858-17.244 51.816-49.478 51.816-32.197 0-49.453-19.958-49.453-51.816.001-32.148 16.953-51.804 49.453-51.804m0 83.807c15.972 0 22.333-15.499 22.333-32.003 0-17.365-6.362-32.003-22.333-32.003-15.971 0-22.309 14.639-22.309 32.003.001 16.504 6.338 32.003 22.309 32.003zM254.854 90.178h26.283v38.317h31.094V90.178h26.272v100.19h-26.272v-42.921h-31.094v42.921h-26.283V90.178"/></svg>