<svg xmlns="http://www.w3.org/2000/svg" xml:space="preserve" width="500" height="500"><path fill="#FFF" d="M250 29C104 29 29 110.2 29 250s75 221 221 221c145.9 0 221-81.2 221-221S396 29 250 29z"/><path fill="#0085CE" d="M250.024 50.995c132.042 0 198.994 66.952 198.994 199.005s-66.952 199.005-198.994 199.005c-132.066 0-199.042-66.952-199.042-199.005S117.958 50.995 250.024 50.995m0-40.995C91.512 10 10 98.183 10 250s81.512 240 240.024 240C408.512 490 490 401.817 490 250S408.512 10 250.024 10z"/><path fill="#0085CE" d="m115.75 334.424 62.942-106.097h41.961v108.269H242.1v25.062h-21.446v34.968h-32.318v-34.968H115.75v-27.234m72.585 2.172v-73.074h-.477l-41.711 73.074h42.188zM356.884 258.7c-8.927-3.855-18.093-6.743-29.43-6.743-29.167 0-39.062 26.996-40.028 52.082l.477.478c7.972-11.576 18.332-16.875 32.557-16.875 31.841 0 49.193 20.252 49.193 51.365 0 36.4-17.842 60.519-55.948 60.519-46.771 0-57.142-38.822-57.142-78.373 0-45.565 14.703-95.726 69.208-95.726 12.304 0 23.869 1.921 35.445 6.027l-4.332 27.246m-66.57 85.844c0 15.92 6.755 29.908 23.391 29.908 15.682 0 22.198-15.205 22.198-30.146 0-16.397-6.755-31.59-22.914-31.59-16.397-.001-22.675 14.965-22.675 31.828zM192.106 95.808c32.509 0 49.468 19.357 49.468 51.02 0 31.375-17.233 51.019-49.468 51.019-32.223 0-49.468-19.644-49.468-51.019.001-31.662 16.971-51.02 49.468-51.02m0 82.538c15.992 0 22.329-15.264 22.329-31.519 0-17.102-6.337-31.519-22.329-31.519-15.968 0-22.329 14.417-22.329 31.519 0 16.255 6.361 31.519 22.329 31.519zM253.461 97.503h26.268v37.736h31.088V97.503h26.304v98.649h-26.304v-42.259h-31.088v42.259h-26.268V97.503"/></svg>