<?xml version="1.0" encoding="utf-8"?>
<!-- Generator: Adobe Illustrator 15.0.0, SVG Export Plug-In . SVG Version: 6.00 Build 0)  -->
<!DOCTYPE svg PUBLIC "-//W3C//DTD SVG 1.1//EN" "http://www.w3.org/Graphics/SVG/1.1/DTD/svg11.dtd">
<svg version="1.1" id="レイヤー_48" xmlns="http://www.w3.org/2000/svg" xmlns:xlink="http://www.w3.org/1999/xlink" x="0px"
	 y="0px" width="500px" height="500px" viewBox="0 0 500 500" enable-background="new 0 0 500 500" xml:space="preserve">
<path fill="#FFFFFF" d="M250,29C104,29,29,110.2,29,250c0,139.8,75,221,221,221c145.9,0,221-81.2,221-221C471,110.2,396,29,250,29z"/>
<path fill="#0085CE" d="M250.024,50.995c132.042,0,198.994,66.952,198.994,199.005s-66.952,199.005-198.994,199.005
	c-132.066,0-199.042-66.952-199.042-199.005S117.958,50.995,250.024,50.995 M250.024,10C91.512,10,10,98.183,10,250
	s81.512,240,240.024,240C408.512,490,490,401.817,490,250S408.512,10,250.024,10z"/>
<path fill="#0085CE" d="M115.75,334.424l62.942-106.097h41.961v108.269H242.1v25.062h-21.446v34.968h-32.318v-34.968H115.75V334.424
	 M188.335,336.596v-73.074h-0.477l-41.711,73.074H188.335z"/>
<path fill="#0085CE" d="M356.884,258.7c-8.927-3.855-18.093-6.743-29.43-6.743c-29.167,0-39.062,26.996-40.028,52.082l0.477,0.478
	c7.972-11.576,18.332-16.875,32.557-16.875c31.841,0,49.193,20.252,49.193,51.365c0,36.4-17.842,60.519-55.948,60.519
	c-46.771,0-57.142-38.822-57.142-78.373c0-45.565,14.703-95.726,69.208-95.726c12.304,0,23.869,1.921,35.445,6.027L356.884,258.7
	 M290.314,344.544c0,15.92,6.755,29.908,23.391,29.908c15.682,0,22.198-15.205,22.198-30.146c0-16.397-6.755-31.59-22.914-31.59
	C296.592,312.715,290.314,327.681,290.314,344.544z"/>
<path fill="#0085CE" d="M192.106,95.808c32.509,0,49.468,19.357,49.468,51.02c0,31.375-17.233,51.019-49.468,51.019
	c-32.223,0-49.468-19.644-49.468-51.019C142.639,115.166,159.609,95.808,192.106,95.808 M192.106,178.346
	c15.992,0,22.329-15.264,22.329-31.519c0-17.102-6.337-31.519-22.329-31.519c-15.968,0-22.329,14.417-22.329,31.519
	C169.777,163.082,176.138,178.346,192.106,178.346z"/>
<polyline fill="#0085CE" points="253.461,97.503 279.729,97.503 279.729,135.239 310.817,135.239 310.817,97.503 337.121,97.503 
	337.121,196.152 310.817,196.152 310.817,153.893 279.729,153.893 279.729,196.152 253.461,196.152 253.461,97.503 "/>
</svg>
