<?xml version="1.0" encoding="utf-8"?>
<!-- Generator: Adobe Illustrator 15.0.0, SVG Export Plug-In . SVG Version: 6.00 Build 0)  -->
<!DOCTYPE svg PUBLIC "-//W3C//DTD SVG 1.1//EN" "http://www.w3.org/Graphics/SVG/1.1/DTD/svg11.dtd">
<svg version="1.1" id="レイヤー_49" xmlns="http://www.w3.org/2000/svg" xmlns:xlink="http://www.w3.org/1999/xlink" x="0px"
	 y="0px" width="500px" height="500px" viewBox="0 0 500 500" enable-background="new 0 0 500 500" xml:space="preserve">
<path fill="#FFFFFF" d="M250,29C104,29,29,110.2,29,250c0,139.8,75,221,221,221c145.9,0,221-81.2,221-221C471,110.2,396,29,250,29z"/>
<path fill="#0085CE" d="M250,50.995c132.054,0,199.018,66.952,199.018,199.005S382.054,449.005,250,449.005
	S50.982,382.054,50.982,250S117.946,50.995,250,50.995 M250,10C91.488,10,10,98.183,10,250s81.488,240,240,240
	c158.488,0,240-88.183,240-240S408.488,10,250,10z"/>
<path fill="#0085CE" d="M122.398,334.424l62.918-106.097h41.961v108.269h21.47v25.062h-21.47v34.968h-32.306v-34.968h-72.573
	V334.424 M194.971,336.596v-73.074h-0.489l-41.711,73.074H194.971z"/>
<polyline fill="#0085CE" points="264.631,228.327 373.163,228.327 373.163,256.29 313.359,396.625 276.721,396.625 339.149,254.845 
	264.631,254.845 264.631,228.327 "/>
<path fill="#0085CE" d="M196.88,95.808c32.509,0,49.468,19.357,49.468,51.02c0,31.375-17.245,51.019-49.468,51.019
	c-32.235,0-49.456-19.644-49.456-51.019C147.424,115.166,164.371,95.808,196.88,95.808 M196.88,178.346
	c15.968,0,22.341-15.264,22.341-31.519c0-17.102-6.373-31.519-22.341-31.519c-15.98,0-22.33,14.417-22.33,31.519
	C174.551,163.082,180.9,178.346,196.88,178.346z"/>
<polyline fill="#0085CE" points="258.223,97.503 284.514,97.503 284.514,135.239 315.591,135.239 315.591,97.503 341.906,97.503 
	341.906,196.152 315.591,196.152 315.591,153.893 284.514,153.893 284.514,196.152 258.223,196.152 258.223,97.503 "/>
</svg>
