<svg xmlns="http://www.w3.org/2000/svg" xml:space="preserve" width="500" height="500"><path fill="#FFF" d="M250 29C104 29 29 110.2 29 250s75 221 221 221c145.9 0 221-81.2 221-221S396 29 250 29z"/><path fill="#0085CE" d="M250 50.995c132.054 0 199.018 66.952 199.018 199.005S382.054 449.005 250 449.005 50.982 382.054 50.982 250 117.946 50.995 250 50.995M250 10C91.488 10 10 98.183 10 250s81.488 240 240 240c158.488 0 240-88.183 240-240S408.488 10 250 10z"/><path fill="#0085CE" d="m122.398 334.424 62.918-106.097h41.961v108.269h21.47v25.062h-21.47v34.968h-32.306v-34.968h-72.573v-27.234m72.573 2.172v-73.074h-.489l-41.711 73.074h42.2zM264.631 228.327h108.532v27.963l-59.804 140.335h-36.638l62.428-141.78h-74.518v-26.518M196.88 95.808c32.509 0 49.468 19.357 49.468 51.02 0 31.375-17.245 51.019-49.468 51.019-32.235 0-49.456-19.644-49.456-51.019 0-31.662 16.947-51.02 49.456-51.02m0 82.538c15.968 0 22.341-15.264 22.341-31.519 0-17.102-6.373-31.519-22.341-31.519-15.98 0-22.33 14.417-22.33 31.519.001 16.255 6.35 31.519 22.33 31.519zM258.223 97.503h26.291v37.736h31.077V97.503h26.315v98.649h-26.315v-42.259h-31.077v42.259h-26.291V97.503"/></svg>