<svg xmlns="http://www.w3.org/2000/svg" width="75" height="75" fill="none" viewBox="0 0 24 24"><g clip-path="url(#a)"><path fill="#fff" d="M19.2 0H4.8A4.8 4.8 0 0 0 0 4.8v14.4A4.8 4.8 0 0 0 4.8 24h14.4a4.8 4.8 0 0 0 4.8-4.8V4.8A4.8 4.8 0 0 0 19.2 0Z"/><path fill="#DB0042" d="M19.175 23.399H4.783A4.233 4.233 0 0 1 .55 19.166V4.775A4.233 4.233 0 0 1 4.783.542h14.392a4.233 4.233 0 0 1 4.232 4.233v14.391a4.232 4.232 0 0 1-4.232 4.233Z"/><path fill="#fff" d="M8.643 4.14H7.018V2.997h4.614V4.14H9.998v4.859H8.643v-4.86ZM14.095 8.999V6.544L12.2 2.997h1.558l.6 1.447c.187.432.322.754.466 1.143.136-.372.28-.72.457-1.143l.602-1.447h1.523l-1.972 3.505v2.497h-1.338ZM11.598 16.152c0 2.862-1.16 4.843-3.513 4.843-2.354 0-3.463-2.15-3.471-4.783-.009-2.633 1.126-4.817 3.53-4.817s3.454 2.218 3.454 4.757Zm-4.817.06c0 2.133.516 3.14 1.346 3.14.83 0 1.295-1.05 1.295-3.166 0-2.116-.406-3.174-1.312-3.174s-1.329 1.007-1.329 3.174M12.538 20.842V19.53l1.185-1.075c2.04-1.828 3.03-2.87 3.047-3.953 0-.762-.448-1.363-1.515-1.363a3.48 3.48 0 0 0-1.99.761l-.609-1.54a5.08 5.08 0 0 1 3.022-.965c2.117 0 3.26 1.236 3.26 2.903 0 1.668-1.11 2.811-2.472 4.013l-.847.72h3.513v1.786l-6.594.025Z"/></g><defs><clipPath id="a"><path fill="#fff" d="M0 0h75v75H0z"/></clipPath></defs></svg>