<svg xmlns="http://www.w3.org/2000/svg" width="75" height="75" fill="none" viewBox="0 0 24 24"><g clip-path="url(#a)"><path fill="#fff" d="M19.2 0H4.8A4.8 4.8 0 0 0 0 4.8v14.4A4.8 4.8 0 0 0 4.8 24h14.4a4.8 4.8 0 0 0 4.8-4.8V4.8A4.8 4.8 0 0 0 19.2 0Z"/><path fill="#DB0042" d="M19.175 23.399H4.783A4.233 4.233 0 0 1 .55 19.166V4.775A4.233 4.233 0 0 1 4.783.542h14.392a4.233 4.233 0 0 1 4.232 4.233v14.391a4.233 4.233 0 0 1-4.232 4.233Z"/><path fill="#fff" d="M8.643 4.14H7.018V2.997h4.614V4.14H9.998v4.859H8.643v-4.86ZM14.095 8.999V6.544L12.157 2.98h1.557l.601 1.439c.187.432.322.753.466 1.143.135-.373.28-.72.457-1.143l.601-1.44h1.524L15.39 6.477v2.54l-1.295-.017ZM11.598 16.152c0 2.862-1.16 4.851-3.513 4.851-2.354 0-3.463-2.158-3.471-4.791-.009-2.633 1.126-4.817 3.53-4.817s3.454 2.218 3.454 4.757Zm-4.817.06c0 2.133.516 3.14 1.346 3.14.83 0 1.295-1.05 1.295-3.166 0-2.116-.44-3.14-1.312-3.14-.872 0-1.329.999-1.329 3.166ZM12.91 18.718a4.97 4.97 0 0 0 2.159.567c1.126 0 1.693-.542 1.693-1.228 0-.931-.914-1.346-1.871-1.346h-.88v-1.558h.846c.728 0 1.643-.279 1.643-1.066 0-.559-.44-.974-1.372-.974a4.15 4.15 0 0 0-1.93.559l-.44-1.575a5.799 5.799 0 0 1 2.87-.702c1.972 0 3.073 1.05 3.073 2.32a2.217 2.217 0 0 1-1.694 2.158 2.311 2.311 0 0 1 2.015 2.269c0 1.634-1.439 2.836-3.8 2.836a5.722 5.722 0 0 1-2.752-.644l.44-1.616Z"/></g><defs><clipPath id="a"><path fill="#fff" d="M0 0h75v75H0z"/></clipPath></defs></svg>