<svg xmlns="http://www.w3.org/2000/svg" width="75" height="75" fill="none" viewBox="0 0 24 24"><g clip-path="url(#a)"><path fill="#fff" d="M19.2 0H4.8A4.8 4.8 0 0 0 0 4.8v14.4A4.8 4.8 0 0 0 4.8 24h14.4a4.8 4.8 0 0 0 4.8-4.8V4.8A4.8 4.8 0 0 0 19.2 0Z"/><path fill="#DB0042" d="M19.175 23.424H4.783A4.233 4.233 0 0 1 .55 19.192V4.8A4.233 4.233 0 0 1 4.783.567h14.392A4.233 4.233 0 0 1 23.407 4.8v14.392a4.233 4.233 0 0 1-4.232 4.232Z"/><path fill="#fff" d="M8.643 4.14H7.018V2.997h4.614V4.14H9.998v4.859H8.643v-4.86ZM14.095 9.033V6.578L12.2 3.039h1.558l.6 1.44c.187.431.322.753.466 1.142.136-.372.28-.72.457-1.143l.602-1.439h1.523l-1.998 3.454v2.54h-1.312ZM11.598 16.152c0 2.862-1.16 4.843-3.513 4.843-2.354 0-3.463-2.15-3.471-4.783-.009-2.633 1.126-4.817 3.53-4.817s3.454 2.218 3.454 4.757Zm-4.817.06c0 2.133.516 3.14 1.346 3.14.83 0 1.295-1.05 1.295-3.166 0-2.116-.44-3.149-1.312-3.149-.872 0-1.329 1.007-1.329 3.175ZM16.364 20.885v-2.218H12.25v-1.414l3.538-5.68h2.667v5.443h1.1v1.625h-1.1v2.244h-2.091Zm0-3.844V14.96c0-.559 0-1.126.06-1.693-.297.6-.56 1.143-.847 1.693l-1.228 2.032 2.015.05Z"/></g><defs><clipPath id="a"><path fill="#fff" d="M0 0h75v75H0z"/></clipPath></defs></svg>