<svg xmlns="http://www.w3.org/2000/svg" width="75" height="75" fill="none" viewBox="0 0 24 24"><g clip-path="url(#a)"><path fill="#fff" d="M19.2 0H4.8A4.8 4.8 0 0 0 0 4.8v14.4A4.8 4.8 0 0 0 4.8 24h14.4a4.8 4.8 0 0 0 4.8-4.8V4.8A4.8 4.8 0 0 0 19.2 0Z"/><path fill="#DB0042" d="M19.175 23.399H4.783A4.233 4.233 0 0 1 .55 19.166V4.775A4.233 4.233 0 0 1 4.783.542h14.392a4.233 4.233 0 0 1 4.232 4.233v14.391a4.232 4.232 0 0 1-4.232 4.233Z"/><path fill="#fff" d="M8.643 4.14H7.018V2.997h4.614V4.14H9.998v4.859H8.643v-4.86ZM14.095 8.999V6.544L12.2 3.005h1.558l.6 1.44c.187.431.322.753.466 1.15.136-.38.28-.727.457-1.15l.602-1.44h1.523l-1.972 3.497v2.497h-1.338ZM11.598 16.152c0 2.862-1.16 4.851-3.513 4.851-2.354 0-3.463-2.159-3.471-4.791-.009-2.633 1.126-4.817 3.53-4.817s3.454 2.218 3.454 4.757Zm-4.817.06c0 2.133.516 3.14 1.346 3.14.83 0 1.295-1.05 1.295-3.166 0-2.116-.44-3.14-1.312-3.14-.872 0-1.329.998-1.329 3.166ZM18.726 13.342h-3.598l-.186 1.43c.2-.017.4-.017.6 0a4.233 4.233 0 0 1 2.439.678 2.633 2.633 0 0 1 1.134 2.328c0 1.693-1.49 3.259-3.987 3.259a5.924 5.924 0 0 1-2.59-.533l.406-1.626a5.24 5.24 0 0 0 2.082.457c.898 0 1.854-.431 1.854-1.413s-.753-1.55-2.607-1.55a7.397 7.397 0 0 0-1.244.094l.6-4.877h5.08l.017 1.753Z"/></g><defs><clipPath id="a"><path fill="#fff" d="M0 0h75v75H0z"/></clipPath></defs></svg>