<svg xmlns="http://www.w3.org/2000/svg" width="75" height="75" fill="none" viewBox="0 0 24 24"><g clip-path="url(#a)"><path fill="#fff" d="M19.2 0H4.8A4.8 4.8 0 0 0 0 4.8v14.4A4.8 4.8 0 0 0 4.8 24h14.4a4.8 4.8 0 0 0 4.8-4.8V4.8A4.8 4.8 0 0 0 19.2 0Z"/><path fill="#DB0042" d="M19.175 23.399H4.783A4.233 4.233 0 0 1 .55 19.166V4.775A4.233 4.233 0 0 1 4.783.542h14.392a4.233 4.233 0 0 1 4.232 4.233v14.391a4.232 4.232 0 0 1-4.232 4.233Z"/><path fill="#fff" d="M8.643 4.14H7.018V2.997h4.614V4.14H9.998v4.859H8.643v-4.86ZM14.095 8.999V6.544L12.2 3.005h1.558l.6 1.44c.187.431.322.753.466 1.15.136-.38.28-.727.457-1.15l.602-1.44h1.523l-1.972 3.497v2.54l-1.338-.043ZM11.598 16.16c0 2.854-1.16 4.843-3.513 4.843-2.354 0-3.463-2.159-3.471-4.791-.009-2.633 1.126-4.809 3.53-4.809s3.454 2.21 3.454 4.758Zm-4.817.052c0 2.133.516 3.149 1.346 3.149.83 0 1.295-1.058 1.295-3.175 0-2.116-.44-3.14-1.312-3.14-.872 0-1.329.998-1.329 3.166ZM18.455 13.096a6.227 6.227 0 0 0-.846 0c-1.93.153-2.786 1.143-3.031 2.21h.05a2.675 2.675 0 0 1 1.965-.728 2.829 2.829 0 0 1 2.878 3.03 3.328 3.328 0 0 1-3.386 3.387c-2.48 0-3.7-1.846-3.7-4.064a5.553 5.553 0 0 1 1.693-4.14 5.468 5.468 0 0 1 3.573-1.354 4.45 4.45 0 0 1 .846 0l-.042 1.66Zm-1.185 4.656a1.423 1.423 0 0 0-1.388-1.608 1.397 1.397 0 0 0-1.27.847 1.058 1.058 0 0 0-.102.55c0 .99.517 1.88 1.515 1.88.754 0 1.245-.703 1.245-1.643"/></g><defs><clipPath id="a"><path fill="#fff" d="M0 0h75v75H0z"/></clipPath></defs></svg>