<svg xmlns="http://www.w3.org/2000/svg" width="75" height="75" fill="none" viewBox="0 0 24 24"><g clip-path="url(#a)"><path fill="#fff" d="M19.2 0H4.8A4.8 4.8 0 0 0 0 4.8v14.4A4.8 4.8 0 0 0 4.8 24h14.4a4.8 4.8 0 0 0 4.8-4.8V4.8A4.8 4.8 0 0 0 19.2 0Z"/><path fill="#DB0042" d="M19.175 23.399H4.783A4.233 4.233 0 0 1 .55 19.166V4.775A4.233 4.233 0 0 1 4.783.542h14.392a4.233 4.233 0 0 1 4.232 4.233v14.391a4.233 4.233 0 0 1-4.232 4.233Z"/><path fill="#fff" d="M8.643 4.14H7.018V2.997h4.614V4.14H9.998v4.859H8.643v-4.86ZM14.095 8.999V6.544L12.2 3.005h1.558l.6 1.44c.187.44.322.753.466 1.15.136-.372.28-.719.457-1.15l.602-1.44h1.523l-1.972 3.497v2.497h-1.338ZM11.598 16.186c0 2.853-1.16 4.843-3.513 4.843-2.354 0-3.463-2.16-3.471-4.792-.009-2.633 1.126-4.808 3.53-4.808s3.454 2.218 3.454 4.757Zm-4.817.051c0 2.133.516 3.15 1.346 3.15.83 0 1.295-1.059 1.295-3.175 0-2.117-.44-3.141-1.312-3.141-.872 0-1.329.999-1.329 3.166ZM19.183 11.556v1.371l-3.826 7.915h-2.303l3.826-7.475v-.025h-4.25v-1.786h6.553Z"/></g><defs><clipPath id="a"><path fill="#fff" d="M0 0h75v75H0z"/></clipPath></defs></svg>