<svg xmlns="http://www.w3.org/2000/svg" width="75" height="75" fill="none" viewBox="0 0 24 24"><g clip-path="url(#a)"><path fill="#fff" d="M19.2 0H4.8A4.8 4.8 0 0 0 0 4.8v14.4A4.8 4.8 0 0 0 4.8 24h14.4a4.8 4.8 0 0 0 4.8-4.8V4.8A4.8 4.8 0 0 0 19.2 0Z"/><path fill="#DB0042" d="M19.175 23.399H4.783A4.233 4.233 0 0 1 .55 19.166V4.775A4.233 4.233 0 0 1 4.783.542h14.392a4.233 4.233 0 0 1 4.232 4.233v14.391a4.233 4.233 0 0 1-4.232 4.233Z"/><path fill="#fff" d="M8.643 4.14H7.018V2.997h4.614V4.14H9.998v4.859H8.643v-4.86ZM14.095 8.999V6.544L12.2 3.005h1.558l.6 1.44c.187.44.322.753.466 1.15.136-.372.28-.719.457-1.15l.602-1.44h1.523l-1.972 3.497v2.497h-1.338ZM11.598 16.16c0 2.854-1.16 4.843-3.513 4.843-2.354 0-3.463-2.159-3.471-4.791-.009-2.633 1.126-4.809 3.53-4.809s3.454 2.21 3.454 4.758Zm-4.817.052c0 2.133.516 3.149 1.346 3.149.83 0 1.295-1.058 1.295-3.175 0-2.116-.44-3.14-1.312-3.14-.872 0-1.329.998-1.329 3.166ZM14.036 16.06a2.286 2.286 0 0 1-1.338-2.05c0-1.566 1.414-2.607 3.268-2.607 2.176 0 3.073 1.253 3.073 2.379a2.26 2.26 0 0 1-1.354 2.049v.042a2.446 2.446 0 0 1 1.693 2.303c0 1.693-1.414 2.827-3.573 2.827-2.353 0-3.437-1.329-3.437-2.59a2.471 2.471 0 0 1 1.693-2.328l-.025-.026Zm3.15 2.285c0-.847-.619-1.304-1.465-1.532a1.414 1.414 0 0 0-1.126 1.388 1.27 1.27 0 0 0 1.312 1.295 1.177 1.177 0 0 0 1.278-1.151Zm-2.43-4.402c0 .626.55 1.033 1.295 1.261a1.278 1.278 0 0 0 .948-1.177 1.074 1.074 0 0 0-1.134-1.16 1.033 1.033 0 0 0-1.11 1.076Z"/></g><defs><clipPath id="a"><path fill="#fff" d="M0 0h75v75H0z"/></clipPath></defs></svg>