<svg xmlns="http://www.w3.org/2000/svg" width="75" height="75" fill="none" viewBox="0 0 24 24"><g clip-path="url(#a)"><path fill="#fff" d="M19.2 0H4.8A4.8 4.8 0 0 0 0 4.8v14.4A4.8 4.8 0 0 0 4.8 24h14.4a4.8 4.8 0 0 0 4.8-4.8V4.8A4.8 4.8 0 0 0 19.2 0Z"/><path fill="#DB0042" d="M19.175 23.399H4.783A4.233 4.233 0 0 1 .55 19.166V4.775A4.233 4.233 0 0 1 4.783.542h14.392a4.233 4.233 0 0 1 4.232 4.233v14.391a4.233 4.233 0 0 1-4.232 4.233Z"/><path fill="#fff" d="M8.643 4.14H7.018V2.997h4.614V4.14H9.998v4.859H8.643v-4.86ZM14.095 8.999V6.544L12.2 3.005h1.558l.6 1.44c.187.44.322.761.466 1.15.136-.372.28-.719.457-1.15l.602-1.44h1.523l-1.972 3.497v2.497h-1.338ZM11.598 16.16c0 2.854-1.16 4.843-3.513 4.843-2.354 0-3.463-2.158-3.471-4.791-.009-2.633 1.126-4.809 3.53-4.809s3.454 2.21 3.454 4.758Zm-4.817.052c0 2.133.516 3.149 1.346 3.149.83 0 1.295-1.058 1.295-3.175 0-2.116-.406-3.132-1.312-3.132s-1.329.999-1.329 3.166M13.198 19.285c.313.025.627.025.94 0a3.674 3.674 0 0 0 1.828-.567c.592-.395 1.01-1 1.168-1.694a2.54 2.54 0 0 1-1.87.67 2.776 2.776 0 0 1-2.913-2.947 3.388 3.388 0 0 1 3.505-3.344c2.379 0 3.513 1.829 3.513 3.996a5.553 5.553 0 0 1-1.634 4.284 5.443 5.443 0 0 1-3.555 1.286 6.288 6.288 0 0 1-.982 0v-1.684Zm1.312-4.673a1.328 1.328 0 0 0 1.278 1.49 1.38 1.38 0 0 0 1.22-.601 1.21 1.21 0 0 0 .093-.56c0-.981-.356-1.955-1.372-1.955-.728 0-1.253.66-1.253 1.626"/></g><defs><clipPath id="a"><path fill="#fff" d="M0 0h75v75H0z"/></clipPath></defs></svg>