<svg xmlns="http://www.w3.org/2000/svg" width="75" height="75" fill="none" viewBox="0 0 24 24"><g clip-path="url(#a)"><path fill="#fff" d="M19.2 0H4.8A4.8 4.8 0 0 0 0 4.8v14.4A4.8 4.8 0 0 0 4.8 24h14.4a4.8 4.8 0 0 0 4.8-4.8V4.8A4.8 4.8 0 0 0 19.2 0Z"/><path fill="#DB0042" d="M19.175 23.399H4.783A4.233 4.233 0 0 1 .55 19.166V4.775A4.233 4.233 0 0 1 4.783.542h14.392a4.233 4.233 0 0 1 4.232 4.233v14.391a4.232 4.232 0 0 1-4.232 4.233Z"/><path fill="#fff" d="M8.643 4.14H7.018V2.997h4.614V4.14H9.998v4.859H8.643v-4.86ZM14.095 8.999V6.544l-1.938-3.522h1.557l.601 1.44c.187.44.322.761.466 1.15.135-.372.28-.719.457-1.15l.601-1.44h1.524L15.39 6.52v2.497l-1.295-.017ZM7.517 13.486h-.033l-1.77.838-.355-1.626 2.472-1.142h1.786v9.286h-2.1v-7.356ZM19.386 16.16c0 2.854-1.16 4.843-3.521 4.843-2.362 0-3.463-2.159-3.463-4.791 0-2.633 1.135-4.809 3.53-4.809 2.396 0 3.463 2.21 3.463 4.758h-.009Zm-4.808.052c0 2.133.508 3.149 1.337 3.149.83 0 1.304-1.058 1.304-3.175 0-2.116-.44-3.14-1.312-3.14-.872 0-1.33.998-1.33 3.166Z"/></g><defs><clipPath id="a"><path fill="#fff" d="M0 0h75v75H0z"/></clipPath></defs></svg>