<svg xmlns="http://www.w3.org/2000/svg" width="75" height="75" fill="none" viewBox="0 0 24 24"><g clip-path="url(#a)"><path fill="#fff" d="M19.2 0H4.8A4.8 4.8 0 0 0 0 4.8v14.4A4.8 4.8 0 0 0 4.8 24h14.4a4.8 4.8 0 0 0 4.8-4.8V4.8A4.8 4.8 0 0 0 19.2 0Z"/><path fill="#DB0042" d="M19.175 23.39H4.783A4.233 4.233 0 0 1 .55 19.159V4.834A4.233 4.233 0 0 1 4.783.6h14.392a4.233 4.233 0 0 1 4.232 4.233v14.391a4.232 4.232 0 0 1-4.232 4.233"/><path fill="#fff" d="M8.643 4.14H7.018V2.997h4.614V4.14H9.998v4.859H8.643v-4.86ZM14.095 8.999V6.527L12.2 2.98h1.558l.6 1.44c.187.44.322.761.466 1.15.136-.372.28-.72.457-1.15l.602-1.44h1.523l-1.998 3.547v2.54l-1.312-.068ZM7.517 13.486h-.033l-1.77.838-.355-1.626 2.472-1.142h1.786v9.286h-2.1v-7.356ZM15.297 13.486h-.025l-1.77.838-.363-1.626 2.472-1.142h1.786v9.286h-2.1v-7.356Z"/></g><defs><clipPath id="a"><path fill="#fff" d="M0 0h75v75H0z"/></clipPath></defs></svg>