<svg xmlns="http://www.w3.org/2000/svg" width="75" height="75" fill="none" viewBox="0 0 24 24"><g clip-path="url(#a)"><path fill="#fff" d="M19.2 0H4.8A4.8 4.8 0 0 0 0 4.8v14.4A4.8 4.8 0 0 0 4.8 24h14.4a4.8 4.8 0 0 0 4.8-4.8V4.8A4.8 4.8 0 0 0 19.2 0Z"/><path fill="#DB0042" d="M19.175 23.39H4.783A4.233 4.233 0 0 1 .55 19.159V4.766A4.233 4.233 0 0 1 4.783.533h14.392a4.233 4.233 0 0 1 4.232 4.233v14.392a4.232 4.232 0 0 1-4.232 4.232Z"/><path fill="#fff" d="M8.643 4.14H7.018V2.997h4.614V4.14H9.998v4.859H8.643v-4.86ZM14.095 8.999V6.544L12.2 2.997h1.558l.6 1.439c.187.44.322.762.466 1.151.136-.372.28-.72.457-1.151l.602-1.44h1.523l-1.972 3.497v2.54l-1.338-.034ZM7.517 13.486h-.033l-1.77.838-.355-1.626 2.472-1.142h1.786v9.286h-2.1v-7.356ZM12.538 20.834v-1.312l1.185-1.067c2.04-1.829 3.03-2.878 3.047-3.962 0-.753-.448-1.354-1.515-1.354-.726.036-1.421.3-1.99.753l-.609-1.54a5.08 5.08 0 0 1 3.022-.957c2.117 0 3.26 1.227 3.26 2.895s-1.11 2.819-2.472 4.021l-.847.711h3.513V20.8l-6.594.034Z"/></g><defs><clipPath id="a"><path fill="#fff" d="M0 0h75v75H0z"/></clipPath></defs></svg>