<svg xmlns="http://www.w3.org/2000/svg" width="75" height="75" fill="none" viewBox="0 0 24 24"><g clip-path="url(#a)"><path fill="#fff" d="M19.2 0H4.8A4.8 4.8 0 0 0 0 4.8v14.4A4.8 4.8 0 0 0 4.8 24h14.4a4.8 4.8 0 0 0 4.8-4.8V4.8A4.8 4.8 0 0 0 19.2 0Z"/><path fill="#DB0042" d="M19.175 23.399H4.783A4.233 4.233 0 0 1 .55 19.166V4.775A4.233 4.233 0 0 1 4.783.542h14.392a4.233 4.233 0 0 1 4.232 4.233v14.391a4.232 4.232 0 0 1-4.232 4.233Z"/><path fill="#fff" d="M8.643 4.14H7.018V2.997h4.614V4.14H9.998v4.859H8.643v-4.86ZM14.095 8.999V6.544L12.2 2.997h1.558l.6 1.439c.187.44.322.762.466 1.151.136-.372.28-.72.457-1.151l.602-1.44h1.523l-1.972 3.497v2.54l-1.338-.034ZM7.517 13.486h-.033l-1.77.838-.355-1.626 2.472-1.142h1.786v9.286h-2.1v-7.356ZM12.91 18.709c.666.354 1.405.55 2.159.576 1.126 0 1.693-.55 1.693-1.236 0-.923-.914-1.338-1.871-1.338h-.88v-1.557h.846c.728 0 1.643-.288 1.643-1.076 0-.558-.44-.965-1.372-.965a4.149 4.149 0 0 0-1.93.55l-.44-1.566a5.714 5.714 0 0 1 2.87-.702c1.972 0 3.073 1.041 3.073 2.31a2.21 2.21 0 0 1-1.694 2.16 2.303 2.303 0 0 1 2.015 2.268c0 1.626-1.439 2.828-3.8 2.828a5.63 5.63 0 0 1-2.752-.643l.44-1.609Z"/></g><defs><clipPath id="a"><path fill="#fff" d="M0 0h75v75H0z"/></clipPath></defs></svg>