<svg xmlns="http://www.w3.org/2000/svg" width="75" height="75" fill="none" viewBox="0 0 24 24"><g clip-path="url(#a)"><path fill="#fff" d="M19.2 0H4.8A4.8 4.8 0 0 0 0 4.8v14.4A4.8 4.8 0 0 0 4.8 24h14.4a4.8 4.8 0 0 0 4.8-4.8V4.8A4.8 4.8 0 0 0 19.2 0Z"/><path fill="#DB0042" d="M19.175 23.399H4.783A4.233 4.233 0 0 1 .55 19.166V4.775A4.233 4.233 0 0 1 4.783.542h14.392a4.233 4.233 0 0 1 4.232 4.233v14.391a4.232 4.232 0 0 1-4.232 4.233Z"/><path fill="#fff" d="M8.643 4.14H7.018V2.997h4.614V4.14H9.998v4.859H8.643v-4.86ZM14.095 8.999V6.544L12.2 2.997h1.558l.6 1.447c.187.432.322.754.466 1.143.136-.372.28-.72.457-1.143l.602-1.447h1.523l-1.972 3.496v2.54l-1.338-.034ZM7.517 13.486h-.033l-1.77.838-.355-1.626 2.472-1.142h1.786v9.286h-2.1v-7.356ZM18.726 13.342h-3.598l-.186 1.422c.2-.013.4-.013.6 0a4.233 4.233 0 0 1 2.439.669 2.65 2.65 0 0 1 1.134 2.328c0 1.693-1.49 3.26-3.987 3.26a5.926 5.926 0 0 1-2.59-.526l.406-1.634a5.079 5.079 0 0 0 2.082.457c.898 0 1.854-.423 1.854-1.413s-.77-1.558-2.624-1.558a7.501 7.501 0 0 0-1.244.085l.6-4.868h5.08l.034 1.778Z"/></g><defs><clipPath id="a"><path fill="#fff" d="M0 0h75v75H0z"/></clipPath></defs></svg>