<svg xmlns="http://www.w3.org/2000/svg" width="75" height="75" fill="none" viewBox="0 0 24 24"><g clip-path="url(#a)"><path fill="#fff" d="M19.2 0H4.8A4.8 4.8 0 0 0 0 4.8v14.4A4.8 4.8 0 0 0 4.8 24h14.4a4.8 4.8 0 0 0 4.8-4.8V4.8A4.8 4.8 0 0 0 19.2 0Z"/><path fill="#DB0042" d="M19.175 23.399H4.783A4.233 4.233 0 0 1 .55 19.166V4.775A4.233 4.233 0 0 1 4.783.542h14.392a4.233 4.233 0 0 1 4.232 4.233v14.391a4.233 4.233 0 0 1-4.232 4.233Z"/><path fill="#fff" d="M8.643 4.14H7.018V2.997h4.614V4.14H9.998v4.859H8.643v-4.86ZM14.095 8.999V6.544L12.2 2.997h1.558l.6 1.447c.187.432.322.754.466 1.143.136-.372.28-.72.457-1.143l.602-1.447h1.523l-1.972 3.505v2.497h-1.338ZM7.517 13.477h-.033l-1.77.847-.355-1.626 2.472-1.142h1.786v9.278h-2.1v-7.357ZM18.455 13.088a6.04 6.04 0 0 0-.846 0c-1.93.16-2.786 1.143-3.031 2.218h.05a2.675 2.675 0 0 1 2.007-.694 2.827 2.827 0 0 1 2.878 3.03 3.325 3.325 0 0 1-3.386 3.387c-2.48 0-3.7-1.846-3.7-4.055a5.156 5.156 0 0 1 5.232-5.503c.282-.023.565-.023.847 0l-.051 1.617Zm-1.185 4.656a1.42 1.42 0 0 0-1.388-1.6 1.388 1.388 0 0 0-1.27.847 1.092 1.092 0 0 0-.102.558c0 .99.517 1.871 1.515 1.871.754 0 1.245-.703 1.245-1.642"/></g><defs><clipPath id="a"><path fill="#fff" d="M0 0h75v75H0z"/></clipPath></defs></svg>