<svg xmlns="http://www.w3.org/2000/svg" width="75" height="75" fill="none" viewBox="0 0 24 24"><g clip-path="url(#a)"><path fill="#fff" d="M19.2 0H4.8A4.8 4.8 0 0 0 0 4.8v14.4A4.8 4.8 0 0 0 4.8 24h14.4a4.8 4.8 0 0 0 4.8-4.8V4.8A4.8 4.8 0 0 0 19.2 0Z"/><path fill="#DB0042" d="M19.175 23.374H4.783A4.233 4.233 0 0 1 .55 19.14V4.749A4.233 4.233 0 0 1 4.783.516h14.392a4.233 4.233 0 0 1 4.232 4.233v14.392a4.232 4.232 0 0 1-4.232 4.233Z"/><path fill="#fff" d="M8.643 4.14H7.018V2.997h4.614V4.14H9.998v4.859H8.643v-4.86ZM14.095 8.982V6.527L12.2 2.98h1.558l.6 1.448c.187.431.322.753.466 1.142.136-.372.28-.72.457-1.142l.602-1.448h1.523l-1.972 3.505v2.497h-1.338ZM7.517 13.486h-.033l-1.77.838-.355-1.626 2.472-1.142h1.786v9.286h-2.1v-7.356ZM19.183 11.556v1.371l-3.826 7.915h-2.303l3.826-7.475v-.025h-4.25v-1.786h6.553Z"/></g><defs><clipPath id="a"><path fill="#fff" d="M0 0h75v75H0z"/></clipPath></defs></svg>