<svg xmlns="http://www.w3.org/2000/svg" width="75" height="75" fill="none" viewBox="0 0 24 24"><g clip-path="url(#a)"><path fill="#fff" d="M19.2 0H4.8A4.8 4.8 0 0 0 0 4.8v14.4A4.8 4.8 0 0 0 4.8 24h14.4a4.8 4.8 0 0 0 4.8-4.8V4.8A4.8 4.8 0 0 0 19.2 0Z"/><path fill="#DB0042" d="M19.175 23.399H4.783A4.233 4.233 0 0 1 .55 19.166V4.775A4.233 4.233 0 0 1 4.783.542h14.392a4.233 4.233 0 0 1 4.232 4.233v14.391a4.232 4.232 0 0 1-4.232 4.233Z"/><path fill="#fff" d="M8.643 4.14H7.018V2.997h4.614V4.14H9.998v4.859H8.643v-4.86ZM14.095 8.999v-2.43L12.2 3.022h1.558l.6 1.448c.187.432.322.753.466 1.143.136-.373.28-.72.457-1.143l.602-1.448h1.523l-1.972 3.505v2.54l-1.338-.068ZM7.517 13.477h-.033l-1.77.847-.355-1.626 2.472-1.142h1.786v9.278h-2.1v-7.357ZM14.036 16.05a2.278 2.278 0 0 1-1.338-2.04c0-1.574 1.414-2.615 3.268-2.615 2.176 0 3.073 1.261 3.073 2.387a2.252 2.252 0 0 1-1.354 2.04v.06a2.455 2.455 0 0 1 1.693 2.302c0 1.693-1.414 2.828-3.573 2.828-2.353 0-3.437-1.33-3.437-2.54a2.455 2.455 0 0 1 1.693-2.328l-.025-.093Zm3.15 2.287c0-.847-.619-1.296-1.465-1.524a1.405 1.405 0 0 0-1.126 1.38 1.27 1.27 0 0 0 1.312 1.303 1.176 1.176 0 0 0 1.278-1.16Zm-2.43-4.394c0 .626.55 1.024 1.295 1.253a1.279 1.279 0 0 0 .948-1.168 1.065 1.065 0 0 0-1.134-1.16 1.033 1.033 0 0 0-1.11 1.075Z"/></g><defs><clipPath id="a"><path fill="#fff" d="M0 0h75v75H0z"/></clipPath></defs></svg>