<svg xmlns="http://www.w3.org/2000/svg" width="75" height="75" fill="none" viewBox="0 0 24 24"><g clip-path="url(#a)"><path fill="#fff" d="M19.2 0H4.8A4.8 4.8 0 0 0 0 4.8v14.4A4.8 4.8 0 0 0 4.8 24h14.4a4.8 4.8 0 0 0 4.8-4.8V4.8A4.8 4.8 0 0 0 19.2 0Z"/><path fill="#DB0042" d="M19.2 23.399H4.808a4.233 4.233 0 0 1-4.232-4.233V4.775A4.233 4.233 0 0 1 4.808.542H19.2a4.233 4.233 0 0 1 4.233 4.233v14.391A4.233 4.233 0 0 1 19.2 23.4Z"/><path fill="#fff" d="M8.643 4.14H7.018V2.997h4.614V4.14H9.998v4.859H8.643v-4.86ZM14.053 8.999V6.544l-1.896-3.547h1.557l.61 1.447c.186.432.313.754.457 1.143.135-.372.28-.72.457-1.143l.601-1.447h1.524L15.39 6.502v2.497h-1.337ZM7.517 13.477h-.033l-1.77.847-.355-1.634 2.472-1.134h1.786v9.278h-2.1v-7.357ZM13.198 19.285c.313.017.627.017.94 0a3.573 3.573 0 0 0 1.828-.576c.594-.394 1.015-1 1.177-1.693a2.463 2.463 0 0 1-1.871.669 2.777 2.777 0 0 1-2.887-2.896 3.386 3.386 0 0 1 3.505-3.344c2.387 0 3.513 1.83 3.513 4.005a5.012 5.012 0 0 1-5.19 5.57 9.407 9.407 0 0 1-.981 0l-.034-1.735Zm1.312-4.707a1.33 1.33 0 0 0 1.32 1.481 1.372 1.372 0 0 0 1.211-.6 1.15 1.15 0 0 0 .102-.551c0-.99-.356-1.964-1.372-1.964-.728 0-1.261.66-1.261 1.634Z"/></g><defs><clipPath id="a"><path fill="#fff" d="M0 0h75v75H0z"/></clipPath></defs></svg>