<svg xmlns="http://www.w3.org/2000/svg" width="75" height="75" fill="none" viewBox="0 0 24 24"><g clip-path="url(#a)"><path fill="#fff" d="M19.2 0H4.8A4.8 4.8 0 0 0 0 4.8v14.4A4.8 4.8 0 0 0 4.8 24h14.4a4.8 4.8 0 0 0 4.8-4.8V4.8A4.8 4.8 0 0 0 19.2 0Z"/><path fill="#DB0042" d="M19.2 23.399H4.808a4.233 4.233 0 0 1-4.232-4.233V4.775A4.233 4.233 0 0 1 4.808.542H19.2a4.233 4.233 0 0 1 4.233 4.233v14.391A4.233 4.233 0 0 1 19.2 23.4Z"/><path fill="#fff" d="M8.643 4.14H7.018V2.997h4.614V4.14H9.998v4.859H8.643v-4.86ZM14.053 8.999V6.544l-1.896-3.547h1.557l.61 1.447c.186.432.313.754.457 1.143.135-.372.28-.72.457-1.143l.601-1.447h1.524L15.39 6.502v2.497h-1.337ZM4.758 20.842v-1.32l1.185-1.067c2.04-1.829 3.03-2.878 3.039-3.962 0-.753-.44-1.354-1.515-1.354a3.445 3.445 0 0 0-2.015.72l-.618-1.541a5.122 5.122 0 0 1 3.03-.957c2.117 0 3.26 1.227 3.26 2.903 0 1.677-1.118 2.811-2.472 4.013l-.847.711h3.573v1.787l-6.62.067ZM19.386 16.152c0 2.862-1.16 4.843-3.521 4.843-2.362 0-3.454-2.159-3.463-4.783-.008-2.625 1.126-4.817 3.522-4.817s3.462 2.218 3.462 4.757Zm-4.817.06c0 2.125.517 3.14 1.346 3.14.83 0 1.296-1.058 1.296-3.174 0-2.117-.44-3.141-1.313-3.141-.872 0-1.329.999-1.329 3.175Z"/></g><defs><clipPath id="a"><path fill="#fff" d="M0 0h75v75H0z"/></clipPath></defs></svg>