<svg xmlns="http://www.w3.org/2000/svg" width="75" height="75" fill="none" viewBox="0 0 24 24"><g clip-path="url(#a)"><path fill="#fff" d="M19.2 0H4.8A4.8 4.8 0 0 0 0 4.8v14.4A4.8 4.8 0 0 0 4.8 24h14.4a4.8 4.8 0 0 0 4.8-4.8V4.8A4.8 4.8 0 0 0 19.2 0Z"/><path fill="#DB0042" d="M19.2 23.399H4.808a4.233 4.233 0 0 1-4.232-4.233V4.775A4.233 4.233 0 0 1 4.808.542H19.2a4.233 4.233 0 0 1 4.233 4.233v14.391A4.233 4.233 0 0 1 19.2 23.4Z"/><path fill="#fff" d="M8.643 4.14H7.018V2.997h4.614V4.14H9.998v4.859H8.643v-4.86ZM14.053 8.999V6.544L12.157 2.98h1.557l.61 1.448c.186.431.313.753.457 1.142.135-.372.28-.72.457-1.142l.601-1.448h1.524L15.39 6.485v2.54l-1.337-.026ZM4.758 20.842v-1.32l1.185-1.067c2.04-1.828 3.03-2.87 3.039-3.962 0-.753-.44-1.354-1.507-1.354-.726.035-1.422.299-1.99.753l-.617-1.54a5.123 5.123 0 0 1 3.03-.957c2.117 0 3.26 1.227 3.26 2.903 0 1.677-1.118 2.811-2.472 4.013l-.847.711h3.539v1.787l-6.62.033ZM15.297 13.477h-.025l-1.77.847-.363-1.634 2.472-1.134h1.786v9.278h-2.1v-7.357Z"/></g><defs><clipPath id="a"><path fill="#fff" d="M0 0h75v75H0z"/></clipPath></defs></svg>