<svg xmlns="http://www.w3.org/2000/svg" xmlns:xlink="http://www.w3.org/1999/xlink" width="75" height="75"><defs><clipPath id="b"><path d="M4 .625h9v18.75H4Zm0 0"/></clipPath><clipPath id="c"><path d="M16 .625h15v18.75H16Zm0 0"/></clipPath><clipPath id="a"><path d="M0 0h35v20H0z"/></clipPath><clipPath id="e"><path d="M2 1h13v26.637H2Zm0 0"/></clipPath><clipPath id="f"><path d="M20 1h21v26.637H20Zm0 0"/></clipPath><clipPath id="d"><path d="M0 0h43v28H0z"/></clipPath><clipPath id="g"><path d="M0 0h75v75H0z"/></clipPath><g id="h" clip-path="url(#a)"><g clip-path="url(#b)"><path d="M4.473 15.86c.55.214 1.136.32 1.726.308 2.344 0 2.344-1.887 2.344-3.195V.926h3.61v13.82c0 1.926-1.231 4.617-4.954 4.617a9.7 9.7 0 0 1-2.765-.343v-3.16Zm0 0"/></g><g clip-path="url(#c)"><path d="M16.035 19.02V.926h3.645v7.312h7.222V.926h3.649V19.02h-3.649v-7.934H19.68v7.934Zm0 0"/></g></g><g id="i" clip-path="url(#d)"><g clip-path="url(#e)"><path d="M10.168 1.21h4.617v25.981H9.57V7.125l-4.386 3.574-2.606-3.383z"/></g><g clip-path="url(#f)"><path d="M20.922 17.586 30.637 1.21h6.472v16.707h3.313v3.879h-3.313v5.394h-4.984v-5.394H20.922zm11.203.332V6.645h-.074l-6.438 11.273Zm0 0"/></g></g><g id="j" clip-path="url(#g)"><path fill="#85C024" d="M0 68.5v-62A6.5 6.5 0 0 1 6.5 0h62A6.5 6.5 0 0 1 75 6.5v62a6.5 6.5 0 0 1-6.5 6.5h-62A6.5 6.5 0 0 1 0 68.5m0 0"/><path fill="#FFF" d="M7.5 67.5v-60h60v60Zm0 0"/><use xlink:href="#h" transform="translate(20 10)"/><use xlink:href="#i" transform="translate(16 33)"/></g></defs><use xlink:href="#j"/></svg>