<svg xmlns="http://www.w3.org/2000/svg" xmlns:xlink="http://www.w3.org/1999/xlink" width="75" height="75"><defs><clipPath id="b"><path d="M1 .129h29V17H1Zm0 0"/></clipPath><clipPath id="a"><path d="M0 0h31v18H0z"/></clipPath><clipPath id="d"><path d="M2 .621h17v25H2Zm0 0"/></clipPath><clipPath id="e"><path d="M21 .621h18v25H21Zm0 0"/></clipPath><clipPath id="c"><path d="M0 0h41v26H0z"/></clipPath><clipPath id="f"><path d="M0 0h75v75H0z"/></clipPath><g clip-path="url(#a)"><g id="g" clip-path="url(#b)"><path fill="#1E1917" d="M5.883 3.016H1.18V.426h12.644v2.59H9.121v13.82H5.945ZM16.352.426h4.058l6.235 12.293V.426h3.175v16.41h-4L19.527 4.602v12.234h-3.175Zm0 0"/></g></g><g id="h" clip-path="url(#c)"><g clip-path="url(#d)"><path d="M2.566 25.207v-4.055c2.25-2.18 10.457-9.039 10.457-13.468 0-2.22-1.976-3.254-3.949-3.254-2.043 0-3.98.898-5.574 1.937l-.379-4.015a16 16 0 0 1 7.164-1.73c4.606 0 7.586 2.32 7.586 7.062 0 5.125-5.16 9.836-9.11 13.71h9.868v3.813z"/></g><g clip-path="url(#e)"><path d="M21.605 13.188c0-6.06 1.836-12.567 8.383-12.567 7.063 0 8.446 6.957 8.446 12.567 0 5.613-1.45 12.433-8.446 12.433-7.445 0-8.383-7.375-8.383-12.433m11.98 0c0-3.114 0-8.965-3.597-8.965-3.535 0-3.535 5.851-3.535 8.965 0 3.05-.035 8.832 3.535 8.832 3.637 0 3.598-5.782 3.598-8.832m0 0"/></g></g><g id="i" clip-path="url(#f)"><path fill="#E8871E" d="M0 54.148V20.852C0 9.336 9.336 0 20.852 0h33.3C65.664 0 75 9.336 75 20.852v33.296C75 65.664 65.664 75 54.152 75h-33.3C9.336 75 0 65.664 0 54.148m0 0"/><path fill="#FFF" d="M8.32 54.148V20.852c0-6.922 5.61-12.532 12.532-12.532h33.3c6.918 0 12.528 5.61 12.528 12.532v33.296c0 6.922-5.61 12.532-12.528 12.532h-33.3c-6.922 0-12.532-5.61-12.532-12.532m0 0"/><use xlink:href="#g" transform="translate(22 13)"/><use xlink:href="#h" transform="translate(17 36)"/></g></defs><use xlink:href="#i"/></svg>