<svg xmlns="http://www.w3.org/2000/svg" xmlns:xlink="http://www.w3.org/1999/xlink" width="75" height="75"><defs><clipPath id="b"><path d="M1 .129h29V17H1Zm0 0"/></clipPath><clipPath id="a"><path d="M0 0h31v18H0z"/></clipPath><clipPath id="d"><path d="M2 .621h17v25H2Zm0 0"/></clipPath><clipPath id="e"><path d="M23 1h16v24.621H23Zm0 0"/></clipPath><clipPath id="c"><path d="M0 0h41v26H0z"/></clipPath><clipPath id="f"><path d="M0 0h75v75H0z"/></clipPath><g clip-path="url(#a)"><g id="g" clip-path="url(#b)"><path fill="#1E1917" d="M5.883 3.016H1.18V.426h12.644v2.59H9.121v13.82H5.945ZM16.352.426h4.058l6.235 12.293V.426h3.175v16.41h-4L19.527 4.602v12.234h-3.175Zm0 0"/></g></g><g id="h" clip-path="url(#c)"><g clip-path="url(#d)"><path d="M2.809 25.207v-4.055c2.25-2.18 10.457-9.035 10.457-13.468 0-2.211-1.973-3.254-3.95-3.254-2.039 0-3.984.902-5.578 1.941L3.36 2.355C5.543 1.246 8.07.621 10.527.621c4.606 0 7.586 2.32 7.586 7.063 0 5.125-5.16 9.836-9.11 13.71h9.868v3.813z"/></g><g clip-path="url(#e)"><path d="M37.602 4.637h-9.317l-.101 5.16c.554-.106 1.28-.238 2.218-.238 3.391 0 7.79 1.59 7.79 7.855 0 4.535-3.188 8.207-9.415 8.207-1.875 0-4.054-.312-5.648-.695l.105-4.324c1.176.48 2.84 1.207 4.95 1.207 2.527 0 5.156-1.172 5.156-4.258 0-3.117-2.766-4.188-5.535-4.188-1.489 0-2.91.207-4.332.66l.246-12.984h13.883z"/></g></g><g id="i" clip-path="url(#f)"><path fill="#E8871E" d="M0 54.148V20.852C0 9.336 9.336 0 20.852 0h33.3C65.664 0 75 9.336 75 20.852v33.296C75 65.664 65.664 75 54.152 75h-33.3C9.336 75 0 65.664 0 54.148m0 0"/><path fill="#FFF" d="M8.32 54.148V20.852c0-6.922 5.61-12.532 12.532-12.532h33.3c6.918 0 12.528 5.61 12.528 12.532v33.296c0 6.922-5.61 12.532-12.528 12.532h-33.3c-6.922 0-12.532-5.61-12.532-12.532m0 0"/><use xlink:href="#g" transform="translate(22 13)"/><use xlink:href="#h" transform="translate(17 36)"/></g></defs><use xlink:href="#i"/></svg>