<svg xmlns="http://www.w3.org/2000/svg" xmlns:xlink="http://www.w3.org/1999/xlink" width="75" height="75"><defs><clipPath id="b"><path d="M1 .129h29V17H1Zm0 0"/></clipPath><clipPath id="a"><path d="M0 0h31v18H0z"/></clipPath><clipPath id="d"><path d="M2 .621h17v25H2Zm0 0"/></clipPath><clipPath id="e"><path d="M20 1h19v24.621H20Zm0 0"/></clipPath><clipPath id="c"><path d="M0 0h41v26H0z"/></clipPath><clipPath id="f"><path d="M0 0h75v75H0z"/></clipPath><g clip-path="url(#a)"><g id="g" clip-path="url(#b)"><path fill="#1E1917" d="M5.883 3.016H1.18V.426h12.644v2.59H9.121v13.82H5.945ZM16.352.426h4.058l6.235 12.293V.426h3.175v16.41h-4L19.527 4.602v12.234h-3.175Zm0 0"/></g></g><g id="h" clip-path="url(#c)"><g clip-path="url(#d)"><path d="M2.934 20.703c1.656.66 3.457 1.11 5.359 1.11 2.016 0 5.094-.973 5.094-3.426 0-2.844-2.25-3.782-5.336-3.782H5.699v-3.808h2.219c3.25 0 5.367-1.074 5.367-3.184 0-2.422-1.976-3.187-4.156-3.187-1.906 0-3.742.453-5.438 1.281l-.273-3.875c1.934-.766 4.258-1.21 6.75-1.21 2.977 0 7.965 1.034 7.965 6.194 0 3.29-2.043 4.848-4.504 5.786v.07c3.082.41 4.601 2.8 4.601 5.746 0 5.75-5.222 7.203-9.242 7.203-2.113 0-4.535-.281-6.336-.797z"/></g><g clip-path="url(#e)"><path d="m20.203 16.27 9.043-15.235h6.024v15.547h3.078v3.602H35.27v5.02h-4.641v-5.02H20.203zm10.426.312V6.09h-.07l-5.993 10.492Zm0 0"/></g></g><g id="i" clip-path="url(#f)"><path fill="#E8871E" d="M0 54.148V20.852C0 9.336 9.336 0 20.852 0h33.3C65.664 0 75 9.336 75 20.852v33.296C75 65.664 65.664 75 54.152 75h-33.3C9.336 75 0 65.664 0 54.148m0 0"/><path fill="#FFF" d="M8.32 54.148V20.852c0-6.922 5.61-12.532 12.532-12.532h33.3c6.918 0 12.528 5.61 12.528 12.532v33.296c0 6.922-5.61 12.532-12.528 12.532h-33.3c-6.922 0-12.532-5.61-12.532-12.532m0 0"/><use xlink:href="#g" transform="translate(22 13)"/><use xlink:href="#h" transform="translate(17 36)"/></g></defs><use xlink:href="#i"/></svg>