<svg xmlns="http://www.w3.org/2000/svg" xmlns:xlink="http://www.w3.org/1999/xlink" width="75" height="75"><defs><clipPath id="b"><path d="M1 .129h29V17H1Zm0 0"/></clipPath><clipPath id="a"><path d="M0 0h31v18H0z"/></clipPath><clipPath id="d"><path d="M3 .621h16v25H3Zm0 0"/></clipPath><clipPath id="e"><path d="M21 .621h17v25H21Zm0 0"/></clipPath><clipPath id="c"><path d="M0 0h41v26H0z"/></clipPath><clipPath id="f"><path d="M0 0h75v75H0z"/></clipPath><g clip-path="url(#a)"><g id="g" clip-path="url(#b)"><path fill="#1E1917" d="M5.883 3.016H1.18V.426h12.644v2.59H9.121v13.82H5.945ZM16.352.426h4.058l6.235 12.293V.426h3.175v16.41h-4L19.527 4.602v12.234h-3.175Zm0 0"/></g></g><g id="h" clip-path="url(#c)"><g clip-path="url(#d)"><path d="M3.395 20.7c1.664.66 3.464 1.109 5.37 1.109 2.005 0 5.087-.97 5.087-3.422 0-2.844-2.247-3.782-5.332-3.782H6.164v-3.804h2.219c3.254 0 5.367-1.074 5.367-3.188 0-2.422-1.973-3.187-4.16-3.187-1.899 0-3.738.453-5.43 1.281L3.88 1.832C5.82 1.066 8.137.622 10.633.622c2.976 0 7.965 1.038 7.965 6.194 0 3.29-2.047 4.848-4.5 5.786v.07c3.082.41 4.601 2.8 4.601 5.746 0 5.746-5.226 7.203-9.242 7.203-2.113 0-4.539-.281-6.336-.797z"/></g><g clip-path="url(#e)"><path d="M36.047 5.398c-1.281-.554-2.598-.972-4.227-.972-4.187 0-5.61 3.879-5.746 7.48l.07.07c1.141-1.66 2.633-2.425 4.676-2.425 4.567 0 7.059 2.91 7.059 7.375 0 5.23-2.559 8.695-8.031 8.695-6.72 0-8.207-5.578-8.207-11.258C21.64 7.82 23.754.621 31.582.621c1.762 0 3.426.277 5.086.867zm-9.559 12.329c0 2.28.969 4.293 3.36 4.293 2.25 0 3.187-2.184 3.187-4.329 0-2.359-.972-4.539-3.289-4.539-2.355 0-3.258 2.149-3.258 4.575m0 0"/></g></g><g id="i" clip-path="url(#f)"><path fill="#E8871E" d="M0 54.148V20.852C0 9.336 9.336 0 20.852 0h33.3C65.664 0 75 9.336 75 20.852v33.296C75 65.664 65.664 75 54.152 75h-33.3C9.336 75 0 65.664 0 54.148m0 0"/><path fill="#FFF" d="M8.32 54.148V20.852c0-6.922 5.61-12.532 12.532-12.532h33.3c6.918 0 12.528 5.61 12.528 12.532v33.296c0 6.922-5.61 12.532-12.528 12.532h-33.3c-6.922 0-12.532-5.61-12.532-12.532m0 0"/><use xlink:href="#g" transform="translate(22 13)"/><use xlink:href="#h" transform="translate(17 36)"/></g></defs><use xlink:href="#i"/></svg>