<svg xmlns="http://www.w3.org/2000/svg" xmlns:xlink="http://www.w3.org/1999/xlink" width="75" height="75"><defs><clipPath id="b"><path d="M1 .129h29V17H1Zm0 0"/></clipPath><clipPath id="a"><path d="M0 0h31v18H0z"/></clipPath><clipPath id="d"><path d="M3 .621h16v25H3Zm0 0"/></clipPath><clipPath id="e"><path d="M22 1h16v24.621H22Zm0 0"/></clipPath><clipPath id="c"><path d="M0 0h41v26H0z"/></clipPath><clipPath id="f"><path d="M0 0h75v75H0z"/></clipPath><g clip-path="url(#a)"><g id="g" clip-path="url(#b)"><path fill="#1E1917" d="M5.883 3.016H1.18V.426h12.644v2.59H9.121v13.82H5.945ZM16.352.426h4.058l6.235 12.293V.426h3.175v16.41h-4L19.527 4.602v12.234h-3.175Zm0 0"/></g></g><g id="h" clip-path="url(#c)"><g clip-path="url(#d)"><path d="M3.621 20.707c1.66.656 3.461 1.105 5.367 1.105 2.008 0 5.09-.972 5.09-3.425 0-2.844-2.254-3.778-5.332-3.778h-2.36v-3.808H8.61c3.254 0 5.364-1.074 5.364-3.188 0-2.422-1.973-3.183-4.157-3.183-1.902 0-3.738.449-5.433 1.28l-.278-3.878c1.938-.762 4.258-1.21 6.75-1.21 2.977 0 7.965 1.038 7.965 6.194 0 3.293-2.043 4.852-4.496 5.786v.07c3.078.414 4.602 2.805 4.602 5.746 0 5.75-5.23 7.203-9.246 7.203-2.114 0-4.54-.277-6.336-.797z"/></g><g clip-path="url(#e)"><path d="M22.074 1.035h15.582v4.016l-8.59 20.156h-5.261l8.968-20.36H22.074z"/></g></g><g id="i" clip-path="url(#f)"><path fill="#E8871E" d="M0 54.148V20.852C0 9.336 9.336 0 20.852 0h33.3C65.664 0 75 9.336 75 20.852v33.296C75 65.664 65.664 75 54.152 75h-33.3C9.336 75 0 65.664 0 54.148m0 0"/><path fill="#FFF" d="M8.32 54.148V20.852c0-6.922 5.61-12.532 12.532-12.532h33.3c6.918 0 12.528 5.61 12.528 12.532v33.296c0 6.922-5.61 12.532-12.528 12.532h-33.3c-6.922 0-12.532-5.61-12.532-12.532m0 0"/><use xlink:href="#g" transform="translate(22 13)"/><use xlink:href="#h" transform="translate(17 36)"/></g></defs><use xlink:href="#i"/></svg>