<svg xmlns="http://www.w3.org/2000/svg" xmlns:xlink="http://www.w3.org/1999/xlink" width="75" height="75"><defs><clipPath id="b"><path d="M1 .129h29V17H1Zm0 0"/></clipPath><clipPath id="a"><path d="M0 0h31v18H0z"/></clipPath><clipPath id="d"><path d="M3 1h16v24.621H3Zm0 0"/></clipPath><clipPath id="e"><path d="M21 .621h17v25H21Zm0 0"/></clipPath><clipPath id="c"><path d="M0 0h41v26H0z"/></clipPath><clipPath id="f"><path d="M0 0h75v75H0z"/></clipPath><g clip-path="url(#a)"><g id="g" clip-path="url(#b)"><path fill="#1E1917" d="M5.883 3.016H1.18V.426h12.644v2.59H9.121v13.82H5.945ZM16.352.426h4.058l6.235 12.293V.426h3.175v16.41h-4L19.527 4.602v12.234h-3.175Zm0 0"/></g></g><g id="h" clip-path="url(#c)"><g clip-path="url(#d)"><path d="M17.848 4.64H8.5l-.105 5.157c.558-.106 1.289-.242 2.226-.242 3.402 0 7.813 1.59 7.813 7.86 0 4.534-3.196 8.206-9.446 8.206-1.879 0-4.066-.316-5.664-.695l.106-4.328c1.18.484 2.847 1.215 4.965 1.215 2.539 0 5.18-1.18 5.18-4.258 0-3.117-2.782-4.196-5.563-4.196-1.489 0-2.914.211-4.336.664l.242-12.988h13.93z"/></g><g clip-path="url(#e)"><path d="M21.559 25.203v-4.05c2.257-2.18 10.492-9.036 10.492-13.47 0-2.21-1.98-3.253-3.961-3.253-2.047 0-3.992.902-5.594 1.937l-.375-4.012A16.1 16.1 0 0 1 29.31.621c4.617 0 7.605 2.32 7.605 7.063 0 5.12-5.176 9.832-9.137 13.71h9.903v3.81z"/></g></g><g id="i" clip-path="url(#f)"><path fill="#E8871E" d="M0 54.148V20.852C0 9.336 9.336 0 20.852 0h33.3C65.664 0 75 9.336 75 20.852v33.296C75 65.664 65.664 75 54.152 75h-33.3C9.336 75 0 65.664 0 54.148m0 0"/><path fill="#FFF" d="M8.32 54.148V20.852c0-6.922 5.61-12.532 12.532-12.532h33.3c6.918 0 12.528 5.61 12.528 12.532v33.296c0 6.922-5.61 12.532-12.528 12.532h-33.3c-6.922 0-12.532-5.61-12.532-12.532m0 0"/><use xlink:href="#g" transform="translate(22 13)"/><use xlink:href="#h" transform="translate(17 36)"/></g></defs><use xlink:href="#i"/></svg>