<svg xmlns="http://www.w3.org/2000/svg" xmlns:xlink="http://www.w3.org/1999/xlink" width="75" height="75"><defs><clipPath id="b"><path d="M1 .129h29V17H1Zm0 0"/></clipPath><clipPath id="a"><path d="M0 0h31v18H0z"/></clipPath><clipPath id="d"><path d="M3 1h16v24.621H3Zm0 0"/></clipPath><clipPath id="e"><path d="M21.535.621h16.05v25h-16.05Zm0 0"/></clipPath><clipPath id="c"><path d="M0 0h41v26H0z"/></clipPath><clipPath id="f"><path d="M0 0h75v75H0z"/></clipPath><g clip-path="url(#a)"><g id="g" clip-path="url(#b)"><path fill="#1E1917" d="M5.883 3.016H1.18V.426h12.644v2.59H9.121v13.82H5.945ZM16.352.426h4.058l6.235 12.293V.426h3.175v16.41h-4L19.527 4.602v12.234h-3.175Zm0 0"/></g></g><g id="h" clip-path="url(#c)"><g clip-path="url(#d)"><path d="M18.02 4.64H8.676l-.11 5.157c.559-.106 1.29-.242 2.227-.242 3.402 0 7.812 1.59 7.812 7.86 0 4.534-3.19 8.206-9.44 8.206-1.88 0-4.067-.316-5.669-.695l.106-4.328c1.183.484 2.847 1.215 4.964 1.215 2.543 0 5.18-1.18 5.18-4.258 0-3.117-2.781-4.196-5.562-4.196-1.489 0-2.914.211-4.336.664L4.09 1.035h13.93z"/></g><g clip-path="url(#e)"><path d="M22.148 20.707c1.668.656 3.473 1.105 5.383 1.105 2.02 0 5.106-.972 5.106-3.425 0-2.844-2.258-3.778-5.348-3.778h-2.36v-3.808h2.22c3.269 0 5.39-1.074 5.39-3.188 0-2.422-1.98-3.183-4.172-3.183-1.91 0-3.754.449-5.457 1.28l-.273-3.878C24.578 1.07 26.91.622 29.41.622c2.988 0 7.992 1.034 7.992 6.198 0 3.29-2.05 4.844-4.52 5.782v.07c3.095.414 4.626 2.805 4.626 5.746 0 5.746-5.25 7.203-9.281 7.203-2.118 0-4.551-.277-6.356-.797z"/></g></g><g id="i" clip-path="url(#f)"><path fill="#E8871E" d="M0 54.148V20.852C0 9.336 9.336 0 20.852 0h33.3C65.664 0 75 9.336 75 20.852v33.296C75 65.664 65.664 75 54.152 75h-33.3C9.336 75 0 65.664 0 54.148m0 0"/><path fill="#FFF" d="M8.32 54.148V20.852c0-6.922 5.61-12.532 12.532-12.532h33.3c6.918 0 12.528 5.61 12.528 12.532v33.296c0 6.922-5.61 12.532-12.528 12.532h-33.3c-6.922 0-12.532-5.61-12.532-12.532m0 0"/><use xlink:href="#g" transform="translate(22 13)"/><use xlink:href="#h" transform="translate(17 36)"/></g></defs><use xlink:href="#i"/></svg>