<svg xmlns="http://www.w3.org/2000/svg" xmlns:xlink="http://www.w3.org/1999/xlink" width="75" height="75"><defs><clipPath id="b"><path d="M1 .129h29V17H1Zm0 0"/></clipPath><clipPath id="a"><path d="M0 0h31v18H0z"/></clipPath><clipPath id="d"><path d="M3 1h34v24.621H3Zm0 0"/></clipPath><clipPath id="c"><path d="M0 0h41v26H0z"/></clipPath><clipPath id="e"><path d="M0 0h75v75H0z"/></clipPath><g clip-path="url(#a)"><g id="f" clip-path="url(#b)"><path fill="#1E1917" d="M5.883 3.016H1.18V.426h12.644v2.59H9.121v13.82H5.945ZM16.352.426h4.058l6.235 12.293V.426h3.175v16.41h-4L19.527 4.602v12.234h-3.175Zm0 0"/></g></g><g clip-path="url(#c)"><g id="g" clip-path="url(#d)"><path d="M17.91 4.746H8.922l-.11 5.094q1.063-.229 2.149-.23c3.254 0 7.441 1.53 7.441 7.753 0 4.473-3.03 8.09-9.039 8.09a24.3 24.3 0 0 1-5.402-.73l.11-4.246c1.1.507 2.757 1.187 4.742 1.187 2.425 0 4.96-1.133 4.96-4.187s-2.644-4.13-5.293-4.13a13.6 13.6 0 0 0-4.187.676l.219-12.785h13.34Zm3.473-3.508h14.996v3.957l-8.27 19.809h-5.015l8.601-20.031H21.383Zm0 0"/></g></g><g id="h" clip-path="url(#e)"><path fill="#E8871E" d="M0 54.148V20.852C0 9.336 9.336 0 20.852 0h33.3C65.664 0 75 9.336 75 20.852v33.296C75 65.664 65.664 75 54.152 75h-33.3C9.336 75 0 65.664 0 54.148m0 0"/><path fill="#FFF" d="M8.32 54.148V20.852c0-6.922 5.61-12.532 12.532-12.532h33.3c6.918 0 12.528 5.61 12.528 12.532v33.296c0 6.922-5.61 12.532-12.528 12.532h-33.3c-6.922 0-12.532-5.61-12.532-12.532m0 0"/><use xlink:href="#f" transform="translate(22 13)"/><use xlink:href="#g" transform="translate(17 36)"/></g></defs><use xlink:href="#h"/></svg>