<svg xmlns="http://www.w3.org/2000/svg" xmlns:xlink="http://www.w3.org/1999/xlink" width="75" height="75"><defs><clipPath id="b"><path d="M1 .129h29V17H1Zm0 0"/></clipPath><clipPath id="a"><path d="M0 0h31v18H0z"/></clipPath><clipPath id="d"><path d="M3 .621h35v25H3Zm0 0"/></clipPath><clipPath id="c"><path d="M0 0h41v26H0z"/></clipPath><clipPath id="e"><path d="M0 0h75v75H0z"/></clipPath><g clip-path="url(#a)"><g id="f" clip-path="url(#b)"><path fill="#1E1917" d="M5.883 3.016H1.18V.426h12.644v2.59H9.121v13.82H5.945ZM16.352.426h4.058l6.235 12.293V.426h3.175v16.41h-4L19.527 4.602v12.234h-3.175Zm0 0"/></g></g><g clip-path="url(#c)"><g id="g" clip-path="url(#d)"><path fill="#1E1917" d="M17.742 4.715H8.758l-.113 5.094q1.067-.225 2.152-.227c3.254 0 7.496 1.527 7.496 7.75 0 4.473-3.086 8.094-9.043 8.094a24.2 24.2 0 0 1-5.453-.735l.11-4.246c1.1.512 2.757 1.192 4.738 1.192 2.43 0 4.964-1.133 4.964-4.188 0-3.058-2.648-4.133-5.293-4.133-1.421 0-2.84.23-4.191.68l.223-12.785h13.34ZM32.188 7.32c0-1.754-1.102-3-2.864-3-1.656 0-3.422.961-3.422 2.828 0 2.094 2.094 3 3.696 3.622 1.265-.45 2.59-1.98 2.59-3.45m-6.45 11.145c0 1.98 1.653 3.398 3.528 3.398s3.308-1.187 3.308-3.168c0-2.379-1.984-3.508-3.86-4.132-1.651.792-2.976 1.921-2.976 3.96m7.059-6.335c3.031 1.527 4.41 3.562 4.41 6.277 0 4.812-3.367 6.906-7.941 6.906-4.52 0-8.215-1.98-8.215-6.789 0-2.719 1.492-4.527 4.3-5.941v-.059c-2.37-1.074-3.859-3.055-3.859-5.543 0-4.246 3.14-6.226 7.39-6.226 4.079 0 7.716 1.695 7.716 5.66-.032 2.53-1.559 4.793-3.856 5.715Zm0 0"/></g></g><g id="h" clip-path="url(#e)"><path fill="#E8871E" d="M0 54.148V20.852C0 9.336 9.336 0 20.852 0h33.3C65.664 0 75 9.336 75 20.852v33.296C75 65.664 65.664 75 54.152 75h-33.3C9.336 75 0 65.664 0 54.148m0 0"/><path fill="#FFF" d="M8.32 54.148V20.852c0-6.922 5.61-12.532 12.532-12.532h33.3c6.918 0 12.528 5.61 12.528 12.532v33.296c0 6.922-5.61 12.532-12.528 12.532h-33.3c-6.922 0-12.532-5.61-12.532-12.532m0 0"/><use xlink:href="#f" transform="translate(22 13)"/><use xlink:href="#g" transform="translate(17 36)"/></g></defs><use xlink:href="#h"/></svg>