<?xml version="1.0" encoding="UTF-8"?>
<svg width="70" height="30" version="1.1" xml:space="preserve" xmlns="http://www.w3.org/2000/svg" xmlns:xlink="http://www.w3.org/1999/xlink"><defs><clipPath id="a"><path d="M0 0h35v20H0z"/></clipPath><clipPath id="d"><path d="M0 0h43v28H0z"/></clipPath><clipPath><path d="M0 0h35v20H0z"/></clipPath><clipPath><path d="M0 0h43v28H0z"/></clipPath><clipPath><path d="M0 0h35v20H0z"/></clipPath><clipPath><path d="M0 0h43v28H0z"/></clipPath><linearGradient id="i-1" x1="62.794" x2="38.045" y1="-32.785" y2="-8.037" gradientTransform="matrix(1,0,0,-1,2.08,-10.426)" gradientUnits="userSpaceOnUse"><stop stop-color="#9e9e9f" offset="0"/><stop stop-color="#00bb85" offset="1"/></linearGradient><clipPath><path d="m6 0.625h9v18.75h-9z"/></clipPath><clipPath><path d="m17 0.625h12v18.75h-12z"/></clipPath><clipPath id="a-1"><path d="M0 0h35v20H0z"/></clipPath><clipPath><path d="m2 0.762h18v26.875h-18z"/></clipPath><clipPath><path d="m22 0.762h19v26.875h-19z"/></clipPath><clipPath id="d-8"><path d="M0 0h43v28H0z"/></clipPath><clipPath><path d="M0 0h75v75H0z"/></clipPath><g clip-path="url(#a-1)"/><g clip-path="url(#d-8)"/></defs><path d="m30 0h10v30h-10z" fill="#00bb85" stroke-width="0" style="paint-order:fill markers stroke"/><path d="m40 0v5c0 5.42 2.34 7.44 4.87 8.7s5.13 1.3 5.13 1.3h20v5h-20s-3.65 0.035-7.37-1.83c-3.72-1.86-7.63-6.09-7.63-13.2v-5z" fill="url(#i-1)" style="paint-order:fill markers stroke"/></svg>
