<?xml version="1.0" encoding="UTF-8"?>
<svg width="70" height="30" version="1.1" xml:space="preserve" xmlns="http://www.w3.org/2000/svg" xmlns:xlink="http://www.w3.org/1999/xlink"><defs><clipPath><path d="m3 0.129h25v17h-25z"/></clipPath><clipPath id="a-64"><path d="M0 0h31v18H0z"/></clipPath><clipPath><path d="m5 0.621h16v25h-16z"/></clipPath><clipPath id="e"><path d="M23 .621h13V25H23Zm0 0"/></clipPath><clipPath id="c-0"><path d="M0 0h41v26H0z"/></clipPath><clipPath id="f"><path d="M0 0h75v75H0z"/></clipPath><g clip-path="url(#a-64)"/><g id="h" clip-path="url(#c-0)"/></defs><path d="m30 0h10v30h-10z" fill="#00ac9b" style="paint-order:fill markers stroke"/><path d="m40 0v5c0 5.42 2.34 7.44 4.87 8.7s5.13 1.3 5.13 1.3h20v5h-20s-3.65 0.035-7.37-1.83c-3.72-1.86-7.63-6.09-7.63-13.2v-5z" fill="#006cb6" style="paint-order:fill markers stroke"/></svg>
