<svg xmlns="http://www.w3.org/2000/svg" xmlns:xlink="http://www.w3.org/1999/xlink" width="75" height="75"><defs><clipPath id="b"><path d="M5 .129h21V17H5Zm0 0"/></clipPath><clipPath id="a"><path d="M0 0h31v18H0z"/></clipPath><clipPath id="d"><path d="M2 .621h18v25H2Zm0 0"/></clipPath><clipPath id="e"><path d="M21 .621h16v25H21Zm0 0"/></clipPath><clipPath id="c"><path d="M0 0h39v26H0z"/></clipPath><clipPath id="f"><path d="M0 0h75v75H0z"/></clipPath><g clip-path="url(#a)"><g id="g" clip-path="url(#b)"><path fill="#1E1917" d="M10.152 2.973h-4.64V.426h12.617v2.547h-4.637v13.804h-3.34ZM22.203.426h3.281v16.41h-3.28Zm0 0"/></g></g><g id="h" clip-path="url(#c)"><g clip-path="url(#d)"><path d="M2.258 13.191C2.258 7.13 4.09.621 10.637.621c7.062 0 8.445 6.957 8.445 12.57 0 5.61-1.453 12.43-8.445 12.43-7.442 0-8.38-7.375-8.38-12.43m11.981 0c0-3.117 0-8.972-3.601-8.972-3.535 0-3.535 5.855-3.535 8.972 0 3.047-.032 8.829 3.535 8.829 3.636 0 3.601-5.782 3.601-8.829m0 0"/></g><g clip-path="url(#e)"><path d="M21.438 20.703c1.66.656 3.464 1.106 5.37 1.106 2.005 0 5.087-.97 5.087-3.422 0-2.844-2.25-3.778-5.332-3.778h-2.356v-3.808h2.219c3.25 0 5.367-1.074 5.367-3.188 0-2.422-1.977-3.187-4.16-3.187-1.903 0-3.738.453-5.434 1.281l-.273-3.875c1.937-.766 4.254-1.21 6.75-1.21 2.976 0 7.96 1.034 7.96 6.194 0 3.29-2.038 4.848-4.5 5.786v.066c3.087.418 4.606 2.805 4.606 5.75 0 5.746-5.23 7.203-9.246 7.203-2.11 0-4.535-.281-6.336-.797z"/></g></g><g id="i" clip-path="url(#f)"><path fill="#D92123" d="M0 54.148V20.852C0 9.336 9.336 0 20.852 0h33.3C65.664 0 75 9.336 75 20.852v33.296C75 65.664 65.664 75 54.152 75h-33.3C9.336 75 0 65.664 0 54.148m0 0"/><path fill="#FFF" d="M8.32 54.148V20.852c0-6.922 5.61-12.532 12.532-12.532h33.3c6.918 0 12.528 5.61 12.528 12.532v33.296c0 6.922-5.61 12.532-12.528 12.532h-33.3c-6.922 0-12.532-5.61-12.532-12.532m0 0"/><use xlink:href="#g" transform="translate(22 13)"/><use xlink:href="#h" transform="translate(18 36)"/></g></defs><use xlink:href="#i"/></svg>