<svg xmlns="http://www.w3.org/2000/svg" xmlns:xlink="http://www.w3.org/1999/xlink" width="75" height="75"><defs><clipPath id="b"><path d="M5 .129h21V17H5Zm0 0"/></clipPath><clipPath id="a"><path d="M0 0h31v18H0z"/></clipPath><clipPath id="d"><path d="M3 .621h16v25H3Zm0 0"/></clipPath><clipPath id="e"><path d="M22 1h16v24.621H22Zm0 0"/></clipPath><clipPath id="c"><path d="M0 0h41v26H0z"/></clipPath><clipPath id="f"><path d="M0 0h75v75H0z"/></clipPath><g clip-path="url(#a)"><g id="g" clip-path="url(#b)"><path fill="#1E1917" d="M10.152 2.973h-4.64V.426h12.617v2.547h-4.637v13.804h-3.34ZM22.203.426h3.281v16.41h-3.28Zm0 0"/></g></g><g id="h" clip-path="url(#c)"><g clip-path="url(#d)"><path d="M3.5 20.703c1.664.66 3.46 1.106 5.367 1.106 2.008 0 5.09-.97 5.09-3.422 0-2.844-2.254-3.778-5.336-3.778H6.27v-3.808h2.218c3.254 0 5.367-1.07 5.367-3.188 0-2.422-1.976-3.187-4.156-3.187-1.906 0-3.738.453-5.437 1.281l-.278-3.875c1.938-.766 4.258-1.21 6.75-1.21 2.98 0 7.965 1.038 7.965 6.194 0 3.29-2.043 4.848-4.5 5.786v.07c3.082.414 4.602 2.8 4.602 5.746 0 5.746-5.223 7.203-9.242 7.203-2.11 0-4.536-.281-6.336-.797z"/></g><g clip-path="url(#e)"><path d="M37.191 4.637h-9.32l-.101 5.16c.554-.106 1.28-.246 2.218-.246 3.39 0 7.79 1.597 7.79 7.86 0 4.538-3.188 8.21-9.419 8.21-1.87 0-4.05-.312-5.644-.695l.101-4.324c1.18.48 2.84 1.207 4.954 1.207 2.53 0 5.16-1.172 5.16-4.258 0-3.117-2.77-4.188-5.54-4.188-1.488 0-2.91.207-4.331.657l.246-12.985H37.19z"/></g></g><g id="i" clip-path="url(#f)"><path fill="#D92123" d="M0 54.148V20.852C0 9.336 9.336 0 20.852 0h33.3C65.664 0 75 9.336 75 20.852v33.296C75 65.664 65.664 75 54.152 75h-33.3C9.336 75 0 65.664 0 54.148m0 0"/><path fill="#FFF" d="M8.32 54.148V20.852c0-6.922 5.61-12.532 12.532-12.532h33.3c6.918 0 12.528 5.61 12.528 12.532v33.296c0 6.922-5.61 12.532-12.528 12.532h-33.3c-6.922 0-12.532-5.61-12.532-12.532m0 0"/><use xlink:href="#g" transform="translate(22 13)"/><use xlink:href="#h" transform="translate(17 36)"/></g></defs><use xlink:href="#i"/></svg>