<svg xmlns="http://www.w3.org/2000/svg" xmlns:xlink="http://www.w3.org/1999/xlink" width="75" height="75"><defs><clipPath id="b"><path d="M5 .129h21V17H5Zm0 0"/></clipPath><clipPath id="a"><path d="M0 0h31v18H0z"/></clipPath><clipPath id="d"><path d="M2 .621h17v25H2Zm0 0"/></clipPath><clipPath id="e"><path d="M21 .621h18v25H21Zm0 0"/></clipPath><clipPath id="c"><path d="M0 0h41v26H0z"/></clipPath><clipPath id="f"><path d="M0 0h75v75H0z"/></clipPath><g clip-path="url(#a)"><g id="g" clip-path="url(#b)"><path fill="#1E1917" d="M10.152 2.973h-4.64V.426h12.617v2.547h-4.637v13.804h-3.34ZM22.203.426h3.281v16.41h-3.28Zm0 0"/></g></g><g id="h" clip-path="url(#c)"><g clip-path="url(#d)"><path d="M3.258 20.707c1.664.656 3.465 1.105 5.367 1.105 2.012 0 5.09-.972 5.09-3.425 0-2.844-2.254-3.778-5.336-3.778H6.027v-3.808h2.215c3.258 0 5.371-1.074 5.371-3.188 0-2.422-1.976-3.183-4.156-3.183-1.906 0-3.742.449-5.437 1.28l-.274-3.878C5.68 1.07 8.004.622 10.496.622c2.977 0 7.961 1.038 7.961 6.194 0 3.293-2.039 4.852-4.5 5.786v.07c3.082.414 4.605 2.805 4.605 5.746 0 5.75-5.226 7.203-9.246 7.203-2.109 0-4.535-.277-6.336-.797z"/></g><g clip-path="url(#e)"><path d="M33.383 12.184v.07c3.187 1.492 4.637 3.57 4.637 6.336 0 4.883-3.532 7.031-8.31 7.031-4.706 0-8.519-2.043-8.519-6.96 0-2.704 1.524-4.571 4.434-5.99v-.07c-2.426-1.074-4.016-3.081-4.016-5.609 0-4.328 3.29-6.37 7.684-6.37 4.262 0 8.105 1.765 8.105 5.816 0 2.183-1.351 4.71-4.015 5.785zm-7.34 6.407c0 2.008 1.727 3.43 3.668 3.43 1.937 0 3.46-1.211 3.46-3.22 0-2.39-2.042-3.53-4.05-4.19-1.73.831-3.078 1.94-3.078 3.98m6.715-11.32c0-1.801-1.145-3.047-2.977-3.047-1.765 0-3.531.968-3.531 2.906 0 2.078 2.145 3.016 3.809 3.637 1.351-.485 2.699-2.008 2.699-3.496m0 0"/></g></g><g id="i" clip-path="url(#f)"><path fill="#D92123" d="M0 54.148V20.852C0 9.336 9.336 0 20.852 0h33.3C65.664 0 75 9.336 75 20.852v33.296C75 65.664 65.664 75 54.152 75h-33.3C9.336 75 0 65.664 0 54.148m0 0"/><path fill="#FFF" d="M8.32 54.148V20.852c0-6.922 5.61-12.532 12.532-12.532h33.3c6.918 0 12.528 5.61 12.528 12.532v33.296c0 6.922-5.61 12.532-12.528 12.532h-33.3c-6.922 0-12.532-5.61-12.532-12.532m0 0"/><use xlink:href="#g" transform="translate(22 13)"/><use xlink:href="#h" transform="translate(17 36)"/></g></defs><use xlink:href="#i"/></svg>