<svg xmlns="http://www.w3.org/2000/svg" xmlns:xlink="http://www.w3.org/1999/xlink" width="75" height="75"><defs><clipPath id="b"><path d="M5 .129h21V17H5Zm0 0"/></clipPath><clipPath id="a"><path d="M0 0h31v18H0z"/></clipPath><clipPath id="d"><path d="M2 1h19v24.621H2Zm0 0"/></clipPath><clipPath id="e"><path d="M22 .621h17v25H22Zm0 0"/></clipPath><clipPath id="c"><path d="M0 0h41v26H0z"/></clipPath><clipPath id="f"><path d="M0 0h75v75H0z"/></clipPath><g clip-path="url(#a)"><g id="g" clip-path="url(#b)"><path fill="#1E1917" d="M10.152 2.973h-4.64V.426h12.617v2.547h-4.637v13.804h-3.34ZM22.203.426h3.281v16.41h-3.28Zm0 0"/></g></g><g id="h" clip-path="url(#c)"><g clip-path="url(#d)"><path d="m2.41 16.27 9.04-15.235h6.023v15.547h3.078v3.602h-3.078v5.02h-4.641v-5.02H2.41zm10.422.312V6.09h-.066L6.773 16.582Zm0 0"/></g><g clip-path="url(#e)"><path d="M22.523 25.203v-4.05c2.25-2.18 10.457-9.036 10.457-13.47 0-2.21-1.976-3.253-3.949-3.253-2.043 0-3.98.902-5.574 1.941l-.375-4.016c2.18-1.109 4.703-1.734 7.164-1.734 4.602 0 7.582 2.32 7.582 7.063 0 5.125-5.16 9.832-9.11 13.71h9.872v3.81z"/></g></g><g id="i" clip-path="url(#f)"><path fill="#D92123" d="M0 54.148V20.852C0 9.336 9.336 0 20.852 0h33.3C65.664 0 75 9.336 75 20.852v33.296C75 65.664 65.664 75 54.152 75h-33.3C9.336 75 0 65.664 0 54.148m0 0"/><path fill="#FFF" d="M8.32 54.148V20.852c0-6.922 5.61-12.532 12.532-12.532h33.3c6.918 0 12.528 5.61 12.528 12.532v33.296c0 6.922-5.61 12.532-12.528 12.532h-33.3c-6.922 0-12.532-5.61-12.532-12.532m0 0"/><use xlink:href="#g" transform="translate(22 13)"/><use xlink:href="#h" transform="translate(17 36)"/></g></defs><use xlink:href="#i"/></svg>