<svg xmlns="http://www.w3.org/2000/svg" xmlns:xlink="http://www.w3.org/1999/xlink" width="75" height="75"><defs><clipPath id="b"><path d="M5 .129h21V17H5Zm0 0"/></clipPath><clipPath id="a"><path d="M0 0h31v18H0z"/></clipPath><clipPath id="d"><path d="M1 .621h19v25H1Zm0 0"/></clipPath><clipPath id="e"><path d="M21 .621h19v25H21Zm0 0"/></clipPath><clipPath id="c"><path d="M0 0h41v26H0z"/></clipPath><clipPath id="f"><path d="M0 0h75v75H0z"/></clipPath><g clip-path="url(#a)"><g id="g" clip-path="url(#b)"><path fill="#1E1917" d="M10.152 2.973h-4.64V.426h12.617v2.547h-4.637v13.804h-3.34ZM22.203.426h3.281v16.41h-3.28Zm0 0"/></g></g><g id="h" clip-path="url(#c)"><g clip-path="url(#d)"><path d="M1.371 16.316 10.406.852h6.024v15.785h3.082v3.656H16.43v5.094h-4.637v-5.094H1.371zm10.422.32V5.985h-.07L5.73 16.637Zm0 0"/></g><g clip-path="url(#e)"><path d="M21.484 16.316 30.52.852h6.023v15.785h3.086v3.656h-3.086v5.094h-4.637v-5.094H21.484zm10.418.32V5.985h-.066l-5.992 10.653Zm0 0"/></g></g><g id="i" clip-path="url(#f)"><path fill="#D92123" d="M0 54.148V20.852C0 9.336 9.336 0 20.852 0h33.3C65.664 0 75 9.336 75 20.852v33.296C75 65.664 65.664 75 54.152 75h-33.3C9.336 75 0 65.664 0 54.148m0 0"/><path fill="#FFF" d="M8.32 54.148V20.852c0-6.922 5.61-12.532 12.532-12.532h33.3c6.918 0 12.528 5.61 12.528 12.532v33.296c0 6.922-5.61 12.532-12.528 12.532h-33.3c-6.922 0-12.532-5.61-12.532-12.532m0 0"/><use xlink:href="#g" transform="translate(22 13)"/><use xlink:href="#h" transform="translate(17 36)"/></g></defs><use xlink:href="#i"/></svg>