<svg xmlns="http://www.w3.org/2000/svg" xmlns:xlink="http://www.w3.org/1999/xlink" width="75" height="75"><defs><clipPath id="b"><path d="M5 .129h21V17H5Zm0 0"/></clipPath><clipPath id="a"><path d="M0 0h31v18H0z"/></clipPath><clipPath id="d"><path d="M2 .621h19v25H2Zm0 0"/></clipPath><clipPath id="e"><path d="M23 .621h16v25H23Zm0 0"/></clipPath><clipPath id="c"><path d="M0 0h41v26H0z"/></clipPath><clipPath id="f"><path d="M0 0h75v75H0z"/></clipPath><g clip-path="url(#a)"><g id="g" clip-path="url(#b)"><path fill="#1E1917" d="M10.152 2.973h-4.64V.426h12.617v2.547h-4.637v13.804h-3.34ZM22.203.426h3.281v16.41h-3.28Zm0 0"/></g></g><g id="h" clip-path="url(#c)"><g clip-path="url(#d)"><path d="M2.379 16.105 11.414.641h6.024v15.785h3.082v3.652h-3.082v5.098H12.8v-5.098H2.379zm10.422.32V5.774h-.07L6.737 16.426Zm0 0"/></g><g clip-path="url(#e)"><path d="M38.035 4.297h-9.312l-.102 5.238c.547-.11 1.277-.25 2.215-.25 3.387 0 7.789 1.621 7.789 7.985 0 4.601-3.184 8.328-9.418 8.328-1.867 0-4.055-.313-5.645-.703l.106-4.391c1.176.492 2.836 1.226 4.953 1.226 2.524 0 5.156-1.195 5.156-4.32 0-3.164-2.773-4.258-5.539-4.258-1.492 0-2.91.211-4.328.672L24.152.641h13.883z"/></g></g><g id="i" clip-path="url(#f)"><path fill="#D92123" d="M0 54.148V20.852C0 9.336 9.336 0 20.852 0h33.3C65.664 0 75 9.336 75 20.852v33.296C75 65.664 65.664 75 54.152 75h-33.3C9.336 75 0 65.664 0 54.148m0 0"/><path fill="#FFF" d="M8.32 54.148V20.852c0-6.922 5.61-12.532 12.532-12.532h33.3c6.918 0 12.528 5.61 12.528 12.532v33.296c0 6.922-5.61 12.532-12.528 12.532h-33.3c-6.922 0-12.532-5.61-12.532-12.532m0 0"/><use xlink:href="#g" transform="translate(22 13)"/><use xlink:href="#h" transform="translate(17 36)"/></g></defs><use xlink:href="#i"/></svg>