<svg xmlns="http://www.w3.org/2000/svg" xmlns:xlink="http://www.w3.org/1999/xlink" width="75" height="75"><defs><clipPath id="b"><path d="M5 .129h21V17H5Zm0 0"/></clipPath><clipPath id="a"><path d="M0 0h31v18H0z"/></clipPath><clipPath id="d"><path d="M2 1h19v24.621H2Zm0 0"/></clipPath><clipPath id="e"><path d="M22 .621h17v25H22Zm0 0"/></clipPath><clipPath id="c"><path d="M0 0h41v26H0z"/></clipPath><clipPath id="f"><path d="M0 0h75v75H0z"/></clipPath><g clip-path="url(#a)"><g id="g" clip-path="url(#b)"><path fill="#1E1917" d="M10.152 2.973h-4.64V.426h12.617v2.547h-4.637v13.804h-3.34ZM22.203.426h3.281v16.41h-3.28Zm0 0"/></g></g><g id="h" clip-path="url(#c)"><g clip-path="url(#d)"><path d="m2.27 16.27 9.039-15.235h6.023v15.547h3.082v3.602h-3.082v5.02h-4.64v-5.02H2.27zm10.421.312V6.09h-.066L6.637 16.582Zm0 0"/></g><g clip-path="url(#e)"><path d="M36.898 5.398c-1.285-.554-2.601-.968-4.23-.968-4.188 0-5.61 3.875-5.746 7.48l.066.067c1.149-1.66 2.633-2.422 4.68-2.422 4.57 0 7.062 2.906 7.062 7.375 0 5.226-2.562 8.691-8.035 8.691-6.715 0-8.207-5.578-8.207-11.258 0-6.539 2.114-13.742 9.942-13.742 1.765 0 3.425.274 5.09.863zm-9.562 12.325c0 2.289.973 4.297 3.36 4.297 2.253 0 3.187-2.184 3.187-4.329 0-2.355-.969-4.539-3.29-4.539-2.355 0-3.257 2.149-3.257 4.57m0 0"/></g></g><g id="i" clip-path="url(#f)"><path fill="#D92123" d="M0 54.148V20.852C0 9.336 9.336 0 20.852 0h33.3C65.664 0 75 9.336 75 20.852v33.296C75 65.664 65.664 75 54.152 75h-33.3C9.336 75 0 65.664 0 54.148m0 0"/><path fill="#FFF" d="M8.32 54.148V20.852c0-6.922 5.61-12.532 12.532-12.532h33.3c6.918 0 12.528 5.61 12.528 12.532v33.296c0 6.922-5.61 12.532-12.528 12.532h-33.3c-6.922 0-12.532-5.61-12.532-12.532m0 0"/><use xlink:href="#g" transform="translate(22 13)"/><use xlink:href="#h" transform="translate(17 36)"/></g></defs><use xlink:href="#i"/></svg>