<svg xmlns="http://www.w3.org/2000/svg" xmlns:xlink="http://www.w3.org/1999/xlink" width="75" height="75"><defs><clipPath id="b"><path d="M5 .129h21V17H5Zm0 0"/></clipPath><clipPath id="a"><path d="M0 0h31v18H0z"/></clipPath><clipPath id="d"><path d="M2 .621h16v25H2Zm0 0"/></clipPath><clipPath id="e"><path d="M20.2.621h18.726v24.977H20.199Zm0 0"/></clipPath><clipPath id="c"><path d="M0 0h41v26H0z"/></clipPath><clipPath id="f"><path d="M0 0h75v75H0z"/></clipPath><g clip-path="url(#a)"><g id="g" clip-path="url(#b)"><path fill="#1E1917" d="M10.152 2.973h-4.64V.426h12.617v2.547h-4.637v13.804h-3.34ZM22.203.426h3.281v16.41h-3.28Zm0 0"/></g></g><g id="h" clip-path="url(#c)"><g clip-path="url(#d)"><path d="M16.8 4.43H7.458l-.105 5.16c.558-.106 1.289-.242 2.222-.242 3.403 0 7.817 1.59 7.817 7.859 0 4.531-3.196 8.207-9.446 8.207-1.879 0-4.066-.316-5.664-.695l.106-4.328c1.18.484 2.847 1.214 4.965 1.214 2.539 0 5.18-1.18 5.18-4.261 0-3.114-2.782-4.192-5.563-4.192-1.489 0-2.918.207-4.34.66L2.875.829h13.926z"/></g><g clip-path="url(#e)"><path d="M20.52 16.293 29.582.828h6.043v15.785h3.098v3.653h-3.098v5.101h-4.648v-5.101H20.52zm10.453.32V5.961h-.07l-6.008 10.652Zm0 0"/></g></g><g id="i" clip-path="url(#f)"><path fill="#D92123" d="M0 54.148V20.852C0 9.336 9.336 0 20.852 0h33.3C65.664 0 75 9.336 75 20.852v33.296C75 65.664 65.664 75 54.152 75h-33.3C9.336 75 0 65.664 0 54.148m0 0"/><path fill="#FFF" d="M8.32 54.148V20.852c0-6.922 5.61-12.532 12.532-12.532h33.3c6.918 0 12.528 5.61 12.528 12.532v33.296c0 6.922-5.61 12.532-12.528 12.532h-33.3c-6.922 0-12.532-5.61-12.532-12.532m0 0"/><use xlink:href="#g" transform="translate(22 13)"/><use xlink:href="#h" transform="translate(17 36)"/></g></defs><use xlink:href="#i"/></svg>