<svg xmlns="http://www.w3.org/2000/svg" xmlns:xlink="http://www.w3.org/1999/xlink" width="75" height="75"><defs><clipPath id="b"><path d="M5 .129h21V17H5Zm0 0"/></clipPath><clipPath id="a"><path d="M0 0h31v18H0z"/></clipPath><clipPath id="d"><path d="M3 .621h16v25H3Zm0 0"/></clipPath><clipPath id="e"><path d="M22.203.621H38v25H22.203Zm0 0"/></clipPath><clipPath id="c"><path d="M0 0h41v26H0z"/></clipPath><clipPath id="f"><path d="M0 0h75v75H0z"/></clipPath><g clip-path="url(#a)"><g id="g" clip-path="url(#b)"><path fill="#1E1917" d="M10.152 2.973h-4.64V.426h12.617v2.547h-4.637v13.804h-3.34ZM22.203.426h3.281v16.41h-3.28Zm0 0"/></g></g><g id="h" clip-path="url(#c)"><g clip-path="url(#d)"><path d="M17.813 4.258H8.469l-.11 5.16c.563-.105 1.29-.242 2.227-.242 3.402 0 7.812 1.59 7.812 7.86 0 4.53-3.191 8.202-9.445 8.202-1.875 0-4.066-.308-5.664-.691l.11-4.328c1.18.484 2.847 1.215 4.96 1.215 2.54 0 5.18-1.18 5.18-4.262 0-3.113-2.777-4.192-5.559-4.192-1.492 0-2.921.207-4.34.66L3.884.657h13.93z"/></g><g clip-path="url(#e)"><path d="M37.121 4.297h-9.344l-.101 5.238c.55-.11 1.281-.25 2.222-.25 3.403 0 7.813 1.621 7.813 7.985 0 4.605-3.191 8.332-9.445 8.332-1.875 0-4.067-.317-5.664-.707l.105-4.391c1.18.492 2.848 1.226 4.969 1.226 2.535 0 5.176-1.195 5.176-4.32 0-3.164-2.782-4.258-5.559-4.258-1.496 0-2.918.211-4.344.672L23.195.641h13.926z"/></g></g><g id="i" clip-path="url(#f)"><path fill="#D92123" d="M0 54.148V20.852C0 9.336 9.336 0 20.852 0h33.3C65.664 0 75 9.336 75 20.852v33.296C75 65.664 65.664 75 54.152 75h-33.3C9.336 75 0 65.664 0 54.148m0 0"/><path fill="#FFF" d="M8.32 54.148V20.852c0-6.922 5.61-12.532 12.532-12.532h33.3c6.918 0 12.528 5.61 12.528 12.532v33.296c0 6.922-5.61 12.532-12.528 12.532h-33.3c-6.922 0-12.532-5.61-12.532-12.532m0 0"/><use xlink:href="#g" transform="translate(22 13)"/><use xlink:href="#h" transform="translate(17 36)"/></g></defs><use xlink:href="#i"/></svg>