<svg xmlns="http://www.w3.org/2000/svg" xmlns:xlink="http://www.w3.org/1999/xlink" width="75" height="75"><defs><clipPath id="b"><path d="M6 .625h8v18.75H6Zm0 0"/></clipPath><clipPath id="c"><path d="M17 .625h12v18.75H17Zm0 0"/></clipPath><clipPath id="a"><path d="M0 0h35v20H0z"/></clipPath><clipPath id="e"><path d="M3 1h13v26.637H3Zm0 0"/></clipPath><clipPath id="f"><path d="M22 .762h18v26.875H22Zm0 0"/></clipPath><clipPath id="d"><path d="M0 0h43v28H0z"/></clipPath><clipPath id="g"><path d="M0 0h75v75H0z"/></clipPath><g id="h" clip-path="url(#a)"><g clip-path="url(#b)"><path d="M6.168 15.863a4.5 4.5 0 0 0 1.73.309c2.348 0 2.348-1.89 2.348-3.2V.899h3.617v13.848c0 1.93-1.23 4.629-4.965 4.629a10 10 0 0 1-2.77-.348v-3.164Zm0 0"/></g><g clip-path="url(#c)"><path d="M27.488 4.254a9.3 9.3 0 0 0-3.695-.77c-1.23 0-2.852.54-2.852 2.504 0 3.125 7.93 1.813 7.93 7.91 0 3.973-3.156 5.477-6.773 5.477-1.961 0-2.848-.27-4.657-.695l.348-3.278a8.4 8.4 0 0 0 4.078 1.118c1.383 0 3.195-.696 3.195-2.356 0-3.469-7.93-2.043-7.93-8.02 0-4.05 3.161-5.515 6.313-5.515a13 13 0 0 1 4.313.652Zm0 0"/></g></g><g id="i" clip-path="url(#d)"><g clip-path="url(#e)"><path d="M11.004 1.21h4.617v25.981h-5.21V7.125L6.02 10.699 3.414 7.316z"/></g><g clip-path="url(#f)"><path d="M23.137 22.355c1.785.704 3.722 1.188 5.77 1.188 2.156 0 5.472-1.04 5.472-3.684 0-3.054-2.422-4.058-5.734-4.058h-2.532v-4.094H28.5c3.492 0 5.766-1.152 5.766-3.422 0-2.61-2.121-3.426-4.47-3.426-2.042 0-4.019.485-5.839 1.38L23.66 2.07c2.082-.824 4.574-1.308 7.254-1.308 3.203 0 8.566 1.12 8.566 6.664 0 3.535-2.199 5.21-4.84 6.219v.07c3.313.45 4.95 3.02 4.95 6.183 0 6.176-5.621 7.739-9.942 7.739-2.27 0-4.875-.297-6.808-.856z"/></g></g><g id="j" clip-path="url(#g)"><path fill="#DE0615" d="M0 68.5v-62A6.5 6.5 0 0 1 6.5 0h62A6.5 6.5 0 0 1 75 6.5v62a6.5 6.5 0 0 1-6.5 6.5h-62A6.5 6.5 0 0 1 0 68.5m0 0"/><path fill="#FFF" d="M7.5 67.5v-60h60v60Zm0 0"/><use xlink:href="#h" transform="translate(20 10)"/><use xlink:href="#i" transform="translate(16 33)"/></g></defs><use xlink:href="#j"/></svg>