<svg xmlns="http://www.w3.org/2000/svg" xmlns:xlink="http://www.w3.org/1999/xlink" width="75" height="75"><defs><clipPath id="b"><path d="M6 .625h8v18.75H6Zm0 0"/></clipPath><clipPath id="c"><path d="M17 .625h12v18.75H17Zm0 0"/></clipPath><clipPath id="a"><path d="M0 0h35v20H0z"/></clipPath><clipPath id="e"><path d="M3 1h13v26.637H3Zm0 0"/></clipPath><clipPath id="f"><path d="M22 .762h18v26.875H22Zm0 0"/></clipPath><clipPath id="d"><path d="M0 0h43v28H0z"/></clipPath><clipPath id="g"><path d="M0 0h75v75H0z"/></clipPath><g id="h" clip-path="url(#a)"><g clip-path="url(#b)"><path d="M6.168 15.863a4.5 4.5 0 0 0 1.73.309c2.348 0 2.348-1.89 2.348-3.2V.899h3.617v13.848c0 1.93-1.23 4.629-4.965 4.629a10 10 0 0 1-2.77-.348v-3.164Zm0 0"/></g><g clip-path="url(#c)"><path d="M27.488 4.254a9.3 9.3 0 0 0-3.695-.77c-1.23 0-2.852.54-2.852 2.504 0 3.125 7.93 1.813 7.93 7.91 0 3.973-3.156 5.477-6.773 5.477-1.961 0-2.848-.27-4.657-.695l.348-3.278a8.4 8.4 0 0 0 4.078 1.118c1.383 0 3.195-.696 3.195-2.356 0-3.469-7.93-2.043-7.93-8.02 0-4.05 3.161-5.515 6.313-5.515a13 13 0 0 1 4.313.652Zm0 0"/></g></g><g id="i" clip-path="url(#d)"><g clip-path="url(#e)"><path d="M10.668 1.207h4.617v25.984h-5.21V7.125L5.68 10.699 3.078 7.313z"/></g><g clip-path="url(#f)"><path d="M24.441 22.5c1.375.598 2.79 1.043 4.54 1.043 4.503 0 6.03-4.168 6.18-8.043l-.075-.074c-1.227 1.824-2.828 2.605-5.027 2.605-4.914 0-7.59-3.125-7.59-7.926 0-5.625 2.754-9.343 8.633-9.343 7.222 0 8.824 5.992 8.824 12.101 0 7.032-2.27 14.774-10.684 14.774-1.898 0-3.683-.297-5.472-.93zM34.715 9.246c0-2.453-1.043-4.613-3.613-4.613-2.418 0-3.422 2.344-3.422 4.652 0 2.528 1.039 4.875 3.535 4.875 2.531 0 3.5-2.305 3.5-4.914m0 0"/></g></g><g id="j" clip-path="url(#g)"><path fill="#DE0615" d="M0 68.5v-62A6.5 6.5 0 0 1 6.5 0h62A6.5 6.5 0 0 1 75 6.5v62a6.5 6.5 0 0 1-6.5 6.5h-62A6.5 6.5 0 0 1 0 68.5m0 0"/><path fill="#FFF" d="M7.5 67.5v-60h60v60Zm0 0"/><use xlink:href="#h" transform="translate(20 10)"/><use xlink:href="#i" transform="translate(16 33)"/></g></defs><use xlink:href="#j"/></svg>