<svg xmlns="http://www.w3.org/2000/svg" xmlns:xlink="http://www.w3.org/1999/xlink" width="75" height="75"><defs><clipPath id="b"><path d="M6 .625h8v18.75H6Zm0 0"/></clipPath><clipPath id="c"><path d="M17 .625h12v18.75H17Zm0 0"/></clipPath><clipPath id="a"><path d="M0 0h35v20H0z"/></clipPath><clipPath id="e"><path d="M3 .762h18v26.875H3Zm0 0"/></clipPath><clipPath id="f"><path d="M23 1h13v26.637H23Zm0 0"/></clipPath><clipPath id="d"><path d="M0 0h43v28H0z"/></clipPath><clipPath id="g"><path d="M0 0h75v75H0z"/></clipPath><g id="h" clip-path="url(#a)"><g clip-path="url(#b)"><path d="M6.168 15.863a4.5 4.5 0 0 0 1.73.309c2.348 0 2.348-1.89 2.348-3.2V.899h3.617v13.848c0 1.93-1.23 4.629-4.965 4.629a10 10 0 0 1-2.77-.348v-3.164Zm0 0"/></g><g clip-path="url(#c)"><path d="M27.488 4.254a9.3 9.3 0 0 0-3.695-.77c-1.23 0-2.852.54-2.852 2.504 0 3.125 7.93 1.813 7.93 7.91 0 3.973-3.156 5.477-6.773 5.477-1.961 0-2.848-.27-4.657-.695l.348-3.278a8.4 8.4 0 0 0 4.078 1.118c1.383 0 3.195-.696 3.195-2.356 0-3.469-7.93-2.043-7.93-8.02 0-4.05 3.161-5.515 6.313-5.515a13 13 0 0 1 4.313.652Zm0 0"/></g></g><g id="i" clip-path="url(#d)"><g clip-path="url(#e)"><path fill="#1A1A1A" d="M3.594 27.414v-4.36c2.386-2.343 11.09-9.71 11.09-14.472 0-2.387-2.09-3.504-4.184-3.504-2.168 0-4.227.969-5.918 2.086L4.18 2.848C6.492 1.656 9.176.984 11.78.984c4.883 0 8.047 2.496 8.047 7.594 0 5.512-5.473 10.574-9.66 14.742h10.465v4.094z"/></g><g clip-path="url(#f)"><path fill="#1A1A1A" d="M31.43 1.434h4.554v25.98H30.84V7.348l-4.332 3.574-2.57-3.387z"/></g></g><g id="j" clip-path="url(#g)"><path fill="#DE0615" d="M0 68.5v-62A6.5 6.5 0 0 1 6.5 0h62A6.5 6.5 0 0 1 75 6.5v62a6.5 6.5 0 0 1-6.5 6.5h-62A6.5 6.5 0 0 1 0 68.5m0 0"/><path fill="#FFF" d="M7.5 67.5v-60h60v60Zm0 0"/><use xlink:href="#h" transform="translate(20 10)"/><use xlink:href="#i" transform="translate(16 33)"/></g></defs><use xlink:href="#j"/></svg>