<svg xmlns="http://www.w3.org/2000/svg" xmlns:xlink="http://www.w3.org/1999/xlink" width="75" height="75"><defs><clipPath id="b"><path d="M6 .625h8v18.75H6Zm0 0"/></clipPath><clipPath id="c"><path d="M17 .625h12v18.75H17Zm0 0"/></clipPath><clipPath id="a"><path d="M0 0h35v20H0z"/></clipPath><clipPath id="e"><path d="M2 .762h18v26.875H2Zm0 0"/></clipPath><clipPath id="f"><path d="M23 .762h18v26.875H23Zm0 0"/></clipPath><clipPath id="d"><path d="M0 0h43v28H0z"/></clipPath><clipPath id="g"><path d="M0 0h75v75H0z"/></clipPath><g id="h" clip-path="url(#a)"><g clip-path="url(#b)"><path d="M6.168 15.863a4.5 4.5 0 0 0 1.73.309c2.348 0 2.348-1.89 2.348-3.2V.899h3.617v13.848c0 1.93-1.23 4.629-4.965 4.629a10 10 0 0 1-2.77-.348v-3.164Zm0 0"/></g><g clip-path="url(#c)"><path d="M27.488 4.254a9.3 9.3 0 0 0-3.695-.77c-1.23 0-2.852.54-2.852 2.504 0 3.125 7.93 1.813 7.93 7.91 0 3.973-3.156 5.477-6.773 5.477-1.961 0-2.848-.27-4.657-.695l.348-3.278a8.4 8.4 0 0 0 4.078 1.118c1.383 0 3.195-.696 3.195-2.356 0-3.469-7.93-2.043-7.93-8.02 0-4.05 3.161-5.515 6.313-5.515a13 13 0 0 1 4.313.652Zm0 0"/></g></g><g id="i" clip-path="url(#d)"><g clip-path="url(#e)"><path d="M2.703 27.191v-4.359c2.418-2.344 11.242-9.715 11.242-14.477 0-2.382-2.12-3.496-4.246-3.496-2.191 0-4.277.965-5.988 2.082L3.3 2.625C5.648 1.43 8.359.762 11.004.762c4.953 0 8.152 2.492 8.152 7.593 0 5.508-5.543 10.575-9.789 14.743h10.61v4.093z"/></g><g clip-path="url(#f)"><path d="M23.844 22.352c1.789.707 3.722 1.191 5.77 1.191 2.16 0 5.472-1.043 5.472-3.684 0-3.054-2.422-4.062-5.734-4.062h-2.528v-4.09h2.383c3.5 0 5.77-1.16 5.77-3.426 0-2.61-2.125-3.422-4.47-3.422-2.042 0-4.019.48-5.843 1.371l-.297-4.167c2.082-.82 4.578-1.301 7.258-1.301 3.203 0 8.559 1.117 8.559 6.664 0 3.535-2.196 5.207-4.836 6.219v.074c3.312.441 4.949 3.011 4.949 6.176 0 6.175-5.617 7.742-9.938 7.742-2.273 0-4.879-.297-6.812-.856z"/></g></g><g id="j" clip-path="url(#g)"><path fill="#DE0615" d="M0 68.5v-62A6.5 6.5 0 0 1 6.5 0h62A6.5 6.5 0 0 1 75 6.5v62a6.5 6.5 0 0 1-6.5 6.5h-62A6.5 6.5 0 0 1 0 68.5m0 0"/><path fill="#FFF" d="M7.5 67.5v-60h60v60Zm0 0"/><use xlink:href="#h" transform="translate(20 10)"/><use xlink:href="#i" transform="translate(16 33)"/></g></defs><use xlink:href="#j"/></svg>