<svg xmlns="http://www.w3.org/2000/svg" xml:space="preserve" width="75" height="75"><g stroke-width="2.236"><path fill="#f57614" d="M75 75H0V0h75z"/><path fill="#fff" d="M22.531 56.594c-11.447 0-19.269-6.87-19.269-18.494 0-11.245 8.056-18.441 18.802-18.441 3.063 0 5.659.238 8.627 1.296l-.52 6.245c-2.544-1.2-4.759-1.64-7.545-1.64-7.06 0-11.733 4.33-11.733 12.346 0 8.017 5.183 12.585 11.828 12.585 2.596 0 5.045-.291 7.874-1.393l.234 6.297c-2.215.767-5.226 1.199-8.298 1.199M53.023 25.708h-.095c-.52 1.87-1.843 6.006-2.64 8.21l-2.924 8.459h11.032l-2.925-8.458c-.804-2.205-2.024-6.341-2.448-8.211m7.303 22.145H45.53l-3.107 8.352h-7.406l13.948-36.212h8.107L71.21 56.205h-7.778z"/></g></svg>