<svg xmlns="http://www.w3.org/2000/svg" xml:space="preserve" width="75" height="75"><g stroke-width="2.236"><path fill="#40743c" d="M75 75H0V0h75z"/><path fill="#fff" d="M25.107 56.664c-11.455 0-19.267-6.87-19.267-18.494 0-11.236 8.055-18.441 18.791-18.441 3.063 0 5.658.238 8.626 1.296l-.52 6.245c-2.543-1.2-4.758-1.632-7.535-1.632-7.068 0-11.731 4.322-11.731 12.338 0 8.026 5.182 12.585 11.826 12.585 2.587 0 5.035-.282 7.864-1.394l.234 6.297c-2.215.768-5.226 1.2-8.289 1.2M50.499 40.428h-1.981v10.424h2.31c5.796 0 8.573-1.535 8.573-5.336 0-3.642-2.872-5.089-8.902-5.089m.614-14.984h-2.595v9.896h1.886c4.853 0 8.244-.865 8.244-5 0-3.987-3.443-4.896-7.535-4.896m1.505 30.833H41.596V20.064H52.48c7.917 0 13.193 2.593 13.193 9.27 0 4.18-2.457 7.302-7.397 8.308v.097c5.183.67 8.289 3.845 8.289 8.643 0 7.496-6.93 9.895-13.946 9.895"/></g></svg>