<svg xmlns="http://www.w3.org/2000/svg" xml:space="preserve" width="75" height="75"><g stroke-width="2.236"><path fill="#6f2d98" d="M75 75H0V0h75z"/><path fill="#fff" d="M25.574 56.594c-11.446 0-19.267-6.861-19.267-18.485 0-11.245 8.055-18.45 18.791-18.45 3.071 0 5.658.238 8.634 1.296l-.528 6.245c-2.543-1.2-4.75-1.632-7.535-1.632-7.069 0-11.731 4.321-11.731 12.347 0 8.017 5.182 12.585 11.827 12.585 2.595 0 5.044-.291 7.873-1.394l.233 6.289c-2.215.767-5.234 1.199-8.297 1.199M58.839 56.594c-11.455 0-19.267-6.861-19.267-18.485 0-11.245 8.055-18.45 18.791-18.45 3.071 0 5.658.238 8.626 1.296l-.52 6.245c-2.543-1.2-4.758-1.632-7.535-1.632-7.068 0-11.731 4.321-11.731 12.347 0 8.017 5.182 12.585 11.827 12.585 2.587 0 5.035-.291 7.864-1.394l.234 6.289c-2.215.767-5.226 1.199-8.288 1.199"/></g></svg>