<svg xmlns="http://www.w3.org/2000/svg" xml:space="preserve" width="75" height="75"><g stroke-width="2.236"><path fill="#75a2dc" d="M75 75H0V0h75z"/><path fill="#fff" d="M22.33 56.532c-11.446 0-19.276-6.87-19.276-18.494 0-11.236 8.063-18.441 18.8-18.441 3.063 0 5.658.238 8.626 1.296l-.52 6.244c-2.543-1.199-4.758-1.631-7.535-1.631-7.068 0-11.731 4.321-11.731 12.347 0 8.017 5.182 12.585 11.827 12.585 2.587 0 5.044-.291 7.864-1.394l.234 6.289c-2.215.767-5.226 1.2-8.288 1.2M47.86 25.647h-1.877v24.932h1.877c7.873 0 14.189-3.122 14.189-12.444 0-9.745-6.316-12.488-14.189-12.488m.666 30.506H38.82V19.932h9.707c12.008 0 20.963 4.904 20.963 18.256 0 12.682-9.231 17.965-20.963 17.965"/></g></svg>