<svg xmlns="http://www.w3.org/2000/svg" xml:space="preserve" width="75" height="75"><g stroke-width="2.236"><path fill="#83502e" d="M75 75H0V0h75z"/><path fill="#fff" d="M26.577 56.515c-11.68 0-19.648-6.87-19.648-18.494 0-11.245 8.21-18.45 19.163-18.45 3.123 0 5.77.247 8.79 1.296l-.528 6.244c-2.587-1.199-4.854-1.631-7.683-1.631-7.206 0-11.965 4.321-11.965 12.347s5.286 12.585 12.06 12.585c2.639 0 5.14-.291 8.02-1.394l.243 6.289c-2.259.776-5.33 1.208-8.453 1.208M43.379 19.914h21.43v5.997H50.586v8.749h13.072v5.856H50.586v9.56h14.37v6.05H43.379z"/></g></svg>