<svg xmlns="http://www.w3.org/2000/svg" xml:space="preserve" width="75" height="75"><g stroke-width="2.236"><path fill="#3b6c9c" d="M75 75H0V0h75z"/><path fill="#fff" d="M27.996 56.576c-11.446 0-19.267-6.87-19.267-18.494 0-11.236 8.063-18.441 18.8-18.441 3.063 0 5.658.238 8.626 1.297l-.52 6.244c-2.543-1.2-4.758-1.632-7.535-1.632-7.068 0-11.74 4.322-11.74 12.347 0 8.017 5.19 12.585 11.827 12.585 2.595 0 5.044-.291 7.873-1.402l.233 6.297c-2.215.767-5.225 1.2-8.297 1.2M44.486 19.976h19.838v6.103H51.65v9.12h12.017v5.908H51.65v15.081h-7.163z"/></g></svg>