<svg xmlns="http://www.w3.org/2000/svg" xml:space="preserve" width="75" height="75"><g stroke-width="2.236"><path fill="#9c1518" d="M75 75H0V0h75z"/><path fill="#fff" d="M22.909 56.557c-11.446 0-19.267-6.871-19.267-18.496 0-11.237 8.055-18.443 18.8-18.443 3.063 0 5.658.238 8.626 1.297l-.52 6.245c-2.543-1.209-4.758-1.632-7.544-1.632-7.06 0-11.73 4.313-11.73 12.34 0 8.026 5.181 12.587 11.826 12.587 2.596 0 5.044-.291 7.873-1.394l.234 6.298c-2.215.767-5.226 1.2-8.297 1.2M55.889 56.557c-10.927 0-18.981-7.065-18.981-18.638 0-11.29 7.821-18.302 20.115-18.302 3.538 0 6.973.335 9.897 1.394l-.519 6.483c-2.163-1.156-5.753-2.02-9.421-2.02-7.492 0-12.39 4.798-12.39 12.49 0 7.541 4.43 12.534 12.252 12.534 1.453 0 3.062-.141 4.187-.53V40.99h-7.587v-5.812H67.82v19.458c-3.824 1.34-7.873 1.922-11.93 1.922"/></g></svg>