<svg xmlns="http://www.w3.org/2000/svg" xml:space="preserve" width="75" height="75"><g stroke-width="2.236"><path fill="#bfba2e" d="M75 75H0V0h75z"/><path fill="#fff" d="M31.985 56.53c-11.446 0-19.267-6.871-19.267-18.496 0-11.237 8.055-18.444 18.8-18.444 3.063 0 5.65.238 8.626 1.297l-.52 6.245c-2.552-1.2-4.767-1.632-7.544-1.632-7.068 0-11.73 4.322-11.73 12.34 0 8.026 5.181 12.596 11.826 12.596 2.596 0 5.044-.292 7.873-1.394l.234 6.289c-2.224.767-5.234 1.2-8.297 1.2M50.828 19.925h7.163v36.217h-7.163z"/></g></svg>