<svg xmlns="http://www.w3.org/2000/svg" xmlns:xlink="http://www.w3.org/1999/xlink" width="75" height="75"><defs><path id="a" d="M10.844-12.344a5.6 5.6 0 0 0-1.406-.844 3.7 3.7 0 0 0-1.36-.28q-.845 0-1.375.406a1.24 1.24 0 0 0-.516 1.03q0 .442.25.735.265.284.688.485.435.205.969.359.544.158 1.078.328c1.406.469 2.437 1.102 3.094 1.89q.984 1.175.984 3.063-.002 1.282-.437 2.313a4.7 4.7 0 0 1-1.25 1.765q-.831.737-2.032 1.14Q8.341.47 6.812.47C4.72.469 2.774-.156.984-1.406l1.86-3.485q.967.86 1.906 1.282a4.6 4.6 0 0 0 1.875.422c.695 0 1.219-.16 1.563-.485q.528-.48.53-1.11 0-.357-.14-.64a1.3 1.3 0 0 0-.437-.5q-.315-.233-.813-.437a19 19 0 0 0-1.187-.438A23 23 0 0 1 4.5-7.375a5.8 5.8 0 0 1-1.437-.844 4 4 0 0 1-1.016-1.328q-.375-.81-.375-2.047-.002-1.231.406-2.234a5 5 0 0 1 1.14-1.719 5 5 0 0 1 1.798-1.11 7.052 7.052 0 0 1 2.39-.39q1.23.002 2.578.344 1.342.33 2.579 1Zm0 0"/><path id="b" d="M6.422-11.344q-.002 1.502.266 2.735.262 1.237.765 2.14.497.892 1.188 1.39a2.63 2.63 0 0 0 1.562.485q.844.001 1.547-.484.704-.5 1.172-1.39.48-.904.75-2.141c.187-.82.281-1.735.281-2.735q0-1.465-.281-2.703-.27-1.247-.75-2.125-.469-.89-1.172-1.39a2.62 2.62 0 0 0-1.547-.5 2.6 2.6 0 0 0-1.562.5q-.69.5-1.188 1.39-.503.878-.766 2.125c-.18.824-.265 1.727-.265 2.703m-5.828 0q0-2.701.703-4.906.716-2.204 1.984-3.75a9.06 9.06 0 0 1 3.032-2.422c1.164-.57 2.46-.86 3.89-.86 1.395 0 2.68.29 3.86.86A8.7 8.7 0 0 1 17.093-20q1.266 1.546 1.97 3.75.702 2.204.703 4.906 0 2.706-.703 4.906-.704 2.205-1.97 3.782a8.55 8.55 0 0 1-3.03 2.437c-1.18.559-2.465.844-3.86.844-1.43 0-2.726-.285-3.89-.844A8.9 8.9 0 0 1 3.28-2.656C2.437-3.707 1.773-4.97 1.297-6.437.828-7.907.594-9.54.594-11.344m0 0"/><path id="c" d="M8.969-13.797c.156.024.289.031.406.031h.281q1.107 0 1.797-.656.703-.669.703-1.719 0-1.013-.656-1.64-.643-.64-1.656-.64c-.719 0-1.305.241-1.75.718q-.657.72-.656 1.86H2.016q.199-1.765.875-3.141.67-1.39 1.718-2.328a7.2 7.2 0 0 1 2.47-1.438q1.404-.499 3.124-.5 1.67 0 3.031.469c.914.312 1.696.758 2.344 1.328a5.5 5.5 0 0 1 1.5 2.062c.352.805.531 1.703.531 2.703q-.001 1.63-.625 2.672c-.406.688-.992 1.282-1.75 1.782q1.745.532 2.72 1.937.983 1.395.983 3.422-.002 1.689-.671 3.063a7 7 0 0 1-1.844 2.375c-.793.656-1.735 1.164-2.828 1.515q-1.629.546-3.578.547c-1.743 0-3.313-.34-4.72-1.016Q3.202-1.404 1.954-3.625a6.5 6.5 0 0 1-.781-1.984 10.8 10.8 0 0 1-.188-2.016h5.829q.06 1.595.921 2.422c.582.555 1.364.828 2.344.828q1.56 0 2.281-.844c.477-.562.72-1.254.72-2.078 0-.976-.294-1.719-.876-2.219q-.862-.75-2.062-.75-.299 0-.578.047-.268.048-.594.11Zm0 0"/></defs><path fill="#B0C124" d="M74.996 37.5c0-20.71-16.789-37.5-37.5-37.5s-37.5 16.79-37.5 37.5S16.786 75 37.496 75s37.5-16.79 37.5-37.5m0 0"/><path fill="#FFF" d="M65.996 37.5c0-15.742-12.758-28.5-28.5-28.5-15.738 0-28.5 12.758-28.5 28.5S21.758 66 37.496 66c15.742 0 28.5-12.758 28.5-28.5m0 0"/><use xlink:href="#a" x="30.391" y="30.995"/><use xlink:href="#b" x="17.097" y="58.325"/><use xlink:href="#c" x="37.497" y="58.325"/></svg>