<svg xmlns="http://www.w3.org/2000/svg" xmlns:xlink="http://www.w3.org/1999/xlink" width="75" height="75"><defs><path id="a" d="M10.844-12.344a5.6 5.6 0 0 0-1.406-.844 3.7 3.7 0 0 0-1.36-.28q-.845 0-1.375.406a1.24 1.24 0 0 0-.516 1.03q0 .442.25.735.265.284.688.485.435.205.969.359.544.158 1.078.328c1.406.469 2.437 1.102 3.094 1.89q.984 1.175.984 3.063-.002 1.282-.437 2.313a4.7 4.7 0 0 1-1.25 1.765q-.831.737-2.032 1.14Q8.341.47 6.812.47C4.72.469 2.774-.156.984-1.406l1.86-3.485q.967.86 1.906 1.282a4.6 4.6 0 0 0 1.875.422c.695 0 1.219-.16 1.563-.485q.528-.48.53-1.11 0-.357-.14-.64a1.3 1.3 0 0 0-.437-.5q-.315-.233-.813-.437a19 19 0 0 0-1.187-.438A23 23 0 0 1 4.5-7.375a5.8 5.8 0 0 1-1.437-.844 4 4 0 0 1-1.016-1.328q-.375-.81-.375-2.047-.002-1.231.406-2.234a5 5 0 0 1 1.14-1.719 5 5 0 0 1 1.798-1.11 7.052 7.052 0 0 1 2.39-.39q1.23.002 2.578.344 1.342.33 2.579 1Zm0 0"/><path id="b" d="M7.953-17.64H4.656v-4.985h9.172V0H7.953Zm0 0"/><path id="c" d="M11.844-17.64H2.406v-4.985H20.97L8.016 0H1.53Zm0 0"/></defs><path fill="#B0C124" d="M74.996 37.5c0-20.71-16.789-37.5-37.5-37.5s-37.5 16.79-37.5 37.5S16.786 75 37.496 75s37.5-16.79 37.5-37.5m0 0"/><path fill="#FFF" d="M65.996 37.5c0-15.742-12.758-28.5-28.5-28.5-15.738 0-28.5 12.758-28.5 28.5S21.758 66 37.496 66c15.742 0 28.5-12.758 28.5-28.5m0 0"/><use xlink:href="#a" x="30.391" y="30.995"/><use xlink:href="#b" x="18.267" y="58.31"/><use xlink:href="#c" x="36.327" y="58.31"/></svg>