<?xml version="1.0" encoding="UTF-8"?>
<!-- Created with Inkscape (http://www.inkscape.org/) -->
<svg width="75" height="75" version="1.1" viewBox="0 0 75 75" xml:space="preserve" xmlns="http://www.w3.org/2000/svg"><g stroke-width="10.94"><path d="m37.479 0c-20.684 0-37.479 16.795-37.479 37.479 0 20.726 16.795 37.521 37.479 37.521 20.726 0 37.521-16.795 37.521-37.521 0-20.684-16.795-37.479-37.521-37.479m20.513 37.479c0 11.325-9.188 20.513-20.513 20.513-11.325 0-20.47-9.188-20.47-20.513 0-11.282 9.1453-20.47 20.47-20.47 11.325 0 20.513 9.188 20.513 20.47" fill="#435fb5"/><path d="m24.359 40.94c0.128 0.81198 0.34133 1.453 0.68373 1.8803 0.68373 0.76923 1.7522 1.1539 3.3334 1.1539 0.93976 0 1.7094-0.08533 2.3077-0.29908 1.1111-0.38466 1.6666-1.1111 1.6666-2.1368 0-0.64098-0.29867-1.1111-0.81173-1.453-0.55573-0.34191-1.4102-0.64098-2.6068-0.85465l-2.0085-0.47007c-2.0086-0.42732-3.3761-0.89743-4.1026-1.4103-1.2821-0.89743-1.8804-2.2222-1.8804-4.0598 0-1.6667 0.5984-3.0342 1.8376-4.1453 1.2393-1.1111 3.0343-1.6667 5.4274-1.6667 1.9657 0 3.6751 0.51274 5.0854 1.5812 1.4103 1.0256 2.1795 2.5214 2.2222 4.4872h-3.7607c-0.04349-1.1111-0.55573-1.8803-1.4956-2.3504-0.64107-0.34191-1.4103-0.51274-2.3505-0.51274-1.0251 0-1.8376 0.21366-2.4358 0.64098-0.5984 0.38466-0.93977 0.98287-0.93977 1.6667 0 0.68373 0.29867 1.1966 0.8971 1.5385 0.42773 0.21366 1.2393 0.47007 2.4786 0.72656l3.2906 0.81198c1.4531 0.34191 2.5214 0.76923 3.2479 1.3675 1.1111 0.85475 1.6666 2.1368 1.6666 3.8034 0 1.7094-0.64107 3.1197-1.9658 4.2735-1.3247 1.1111-3.205 1.6667-5.5982 1.6667-2.4787 0-4.4018-0.55557-5.812-1.6667-1.4103-1.1111-2.1368-2.6496-2.1368-4.5726z" fill="#231f20"/><path d="m42.735 31.239v5.0427h4.2308c0.81173 0 1.453-0.12825 1.8803-0.34191 0.7264-0.34191 1.0688-1.0256 1.0688-2.0513 0-1.1538-0.34133-1.9231-1.0251-2.3077-0.42773-0.21366-1.0251-0.34191-1.8376-0.34191zm8.0769-2.735c0.68373 0.25641 1.2821 0.72656 1.7522 1.282 0.384 0.47007 0.7264 1.0256 0.93976 1.5812 0.21333 0.59832 0.34133 1.2393 0.34133 1.9658 0 0.89742-0.21333 1.7521-0.68373 2.6068-0.42773 0.89742-1.1539 1.453-2.1795 1.8376 0.85443 0.34191 1.453 0.81198 1.8376 1.453 0.34133 0.64098 0.51307 1.6239 0.51307 2.9487v1.2393c0 0.85475 0.04349 1.453 0.128 1.7521 0.08755 0.47007 0.29867 0.81198 0.68373 1.0256v0.47007h-4.3162c-0.08755-0.38466-0.17067-0.72656-0.21333-0.98286-0.128-0.51274-0.17067-1.0684-0.17067-1.6239l-0.04349-1.7094c0-1.1966-0.21333-1.9658-0.5984-2.3932-0.42773-0.38466-1.1539-0.59832-2.2649-0.59832h-3.8035v7.3077h-3.8035v-18.633h8.9317c1.2821 0 2.2649 0.171 2.9487 0.47007" fill="#231f20"/></g></svg>
