<svg xmlns="http://www.w3.org/2000/svg" xmlns:xlink="http://www.w3.org/1999/xlink" width="75" height="75"><defs><clipPath id="b"><path d="M2 .5h18v25H2Zm0 0"/></clipPath><clipPath id="c"><path d="M21 .5h16v25H21Zm0 0"/></clipPath><clipPath id="a"><path d="M0 0h39v26H0z"/></clipPath><clipPath id="d"><path d="M0 0h75v75H0z"/></clipPath><path id="e" d="M1.64 0h2.485v-6.39c0-1.173-.047-3.688-.094-4.532h.032c.375.906 1.28 2.86 1.984 4.219L9.53 0h3.485v-13.687H10.53v5.75c0 1.375.063 4.015.125 5.015h-.047c-.406-.953-1.343-3.015-1.859-4l-3.437-6.765H1.64Zm0 0"/><path id="f" d="M4.078 0h2.797v-11.437l3.813.062v-2.312H.358v2.312l3.72-.062Zm0 0"/><g id="g" clip-path="url(#a)"><g clip-path="url(#b)"><path d="M2.258 13.07C2.258 7.012 4.09.5 10.637.5c7.062 0 8.445 6.957 8.445 12.57 0 5.61-1.453 12.43-8.445 12.43-7.442 0-8.38-7.375-8.38-12.43m11.981 0c0-3.117 0-8.972-3.601-8.972-3.535 0-3.535 5.855-3.535 8.972 0 3.047-.032 8.828 3.535 8.828 3.636 0 3.601-5.78 3.601-8.828Zm0 0"/></g><g clip-path="url(#c)"><path d="M21.438 20.582c1.66.656 3.464 1.11 5.37 1.11 2.005 0 5.087-.97 5.087-3.426 0-2.84-2.25-3.778-5.332-3.778h-2.356V10.68h2.219c3.25 0 5.367-1.075 5.367-3.188 0-2.422-1.977-3.183-4.16-3.183-1.903 0-3.738.449-5.434 1.28l-.273-3.878C23.863.949 26.18.5 28.676.5c2.976 0 7.96 1.035 7.96 6.2 0 3.288-2.038 4.843-4.5 5.78v.07c3.087.415 4.606 2.805 4.606 5.747 0 5.746-5.23 7.203-9.246 7.203-2.11 0-4.535-.277-6.336-.797l.277-4.121"/></g></g><g id="h" clip-path="url(#d)"><path fill="#E53A7F" d="M0 65V10C0 4.477 4.477 0 10 0h55c5.523 0 10 4.477 10 10v55c0 5.523-4.477 10-10 10H10C4.477 75 0 70.523 0 65Zm0 0"/><path fill="#FFF" d="M6.5 64.102V10.898A4.399 4.399 0 0 1 10.902 6.5h53.2a4.398 4.398 0 0 1 4.398 4.398v53.204a4.398 4.398 0 0 1-4.398 4.398h-53.2A4.399 4.399 0 0 1 6.5 64.102Zm0 0"/><path fill="#6CBD42" d="M11 62.398V12.602A1.6 1.6 0 0 1 12.602 11h49.8c.883 0 1.598.715 1.598 1.602v49.796c0 .887-.715 1.602-1.598 1.602h-49.8A1.599 1.599 0 0 1 11 62.398Zm0 0"/><path fill="#FFF" d="M13.7 61.3V13.7h47.6v47.6Zm0 0"/><use xlink:href="#e" x="24.65" y="29.804"/><use xlink:href="#f" x="39.308" y="29.804"/><use xlink:href="#g" transform="translate(18 34)"/></g></defs><use xlink:href="#h"/></svg>