<svg xmlns="http://www.w3.org/2000/svg" xmlns:xlink="http://www.w3.org/1999/xlink" width="75" height="75"><defs><clipPath id="b"><path d="M2 .5h17v25H2Zm0 0"/></clipPath><clipPath id="c"><path d="M21 .5h16v25H21Zm0 0"/></clipPath><clipPath id="a"><path d="M0 0h39v26H0z"/></clipPath><clipPath id="d"><path d="M0 0h75v75H0z"/></clipPath><path id="e" d="M1.64 0h2.485v-6.39c0-1.173-.047-3.688-.094-4.532h.032c.375.906 1.28 2.86 1.984 4.219L9.53 0h3.485v-13.687H10.53v5.75c0 1.375.063 4.015.125 5.015h-.047c-.406-.953-1.343-3.015-1.859-4l-3.437-6.765H1.64Zm0 0"/><path id="f" d="M4.078 0h2.797v-11.437l3.813.062v-2.312H.358v2.312l3.72-.062Zm0 0"/><g id="g" clip-path="url(#a)"><g clip-path="url(#b)"><path d="M2.047 13.07C2.047 7.012 3.883.5 10.43.5c7.062 0 8.449 6.957 8.449 12.57 0 5.61-1.453 12.43-8.45 12.43-7.445 0-8.382-7.375-8.382-12.43m11.984 0c0-3.117 0-8.972-3.601-8.972-3.532 0-3.532 5.855-3.532 8.972 0 3.047-.035 8.828 3.532 8.828 3.636 0 3.601-5.78 3.601-8.828Zm0 0"/></g><g clip-path="url(#c)"><path d="M36.363 4.52h-9.312l-.102 5.156c.547-.102 1.278-.242 2.211-.242 3.39 0 7.79 1.593 7.79 7.859 0 4.539-3.18 8.207-9.415 8.207-1.87 0-4.055-.312-5.644-.691l.105-4.329c1.172.485 2.836 1.211 4.953 1.211 2.524 0 5.156-1.18 5.156-4.257 0-3.118-2.773-4.192-5.542-4.192-1.489 0-2.907.207-4.325.66L22.477.918h13.886V4.52"/></g></g><g id="h" clip-path="url(#d)"><path fill="#E53A7F" d="M0 65V10C0 4.477 4.477 0 10 0h55c5.523 0 10 4.477 10 10v55c0 5.523-4.477 10-10 10H10C4.477 75 0 70.523 0 65Zm0 0"/><path fill="#FFF" d="M6.5 64.102V10.898A4.399 4.399 0 0 1 10.902 6.5h53.2a4.398 4.398 0 0 1 4.398 4.398v53.204a4.398 4.398 0 0 1-4.398 4.398h-53.2A4.399 4.399 0 0 1 6.5 64.102Zm0 0"/><path fill="#6CBD42" d="M11 62.398V12.602A1.6 1.6 0 0 1 12.602 11h49.8c.883 0 1.598.715 1.598 1.602v49.796c0 .887-.715 1.602-1.598 1.602h-49.8A1.599 1.599 0 0 1 11 62.398Zm0 0"/><path fill="#FFF" d="M13.7 61.3V13.7h47.6v47.6Zm0 0"/><use xlink:href="#e" x="24.65" y="29.804"/><use xlink:href="#f" x="39.308" y="29.804"/><use xlink:href="#g" transform="translate(18 34)"/></g></defs><use xlink:href="#h"/></svg>