<svg xmlns="http://www.w3.org/2000/svg" xmlns:xlink="http://www.w3.org/1999/xlink" width="75" height="75"><defs><clipPath id="b"><path d="M1 .5h17v25H1Zm0 0"/></clipPath><clipPath id="c"><path d="M21 .5h17v25H21Zm0 0"/></clipPath><clipPath id="a"><path d="M0 0h39v26H0z"/></clipPath><clipPath id="d"><path d="M0 0h75v75H0z"/></clipPath><path id="e" d="M1.64 0h2.485v-6.39c0-1.173-.047-3.688-.094-4.532h.032c.375.906 1.28 2.86 1.984 4.219L9.53 0h3.485v-13.687H10.53v5.75c0 1.375.063 4.015.125 5.015h-.047c-.406-.953-1.343-3.015-1.859-4l-3.437-6.765H1.64Zm0 0"/><path id="f" d="M4.078 0h2.797v-11.437l3.813.062v-2.312H.358v2.312l3.72-.062Zm0 0"/><g id="g" clip-path="url(#a)"><g clip-path="url(#b)"><path d="M1.113 13.07C1.113 7.012 2.95.5 9.496.5c7.059 0 8.445 6.957 8.445 12.57 0 5.61-1.457 12.43-8.445 12.43-7.45 0-8.383-7.375-8.383-12.43m11.98 0c0-3.117 0-8.972-3.6-8.972-3.536 0-3.536 5.855-3.536 8.972 0 3.047-.031 8.828 3.535 8.828 3.637 0 3.602-5.78 3.602-8.828Zm0 0"/></g><g clip-path="url(#c)"><path d="M33.246 12.066v.067c3.188 1.492 4.64 3.57 4.64 6.34 0 4.879-3.534 7.027-8.312 7.027-4.71 0-8.515-2.043-8.515-6.957 0-2.703 1.523-4.574 4.43-5.992v-.07c-2.427-1.075-4.016-3.083-4.016-5.61C21.473 2.543 24.762.5 29.156.5c4.262 0 8.106 1.766 8.106 5.816 0 2.18-1.352 4.711-4.016 5.786v-.036m-7.34 6.407c0 2.007 1.73 3.425 3.668 3.425 1.938 0 3.461-1.214 3.461-3.218 0-2.387-2.043-3.532-4.047-4.192-1.734.832-3.082 1.942-3.082 3.985Zm6.715-11.325c0-1.8-1.144-3.05-2.976-3.05-1.766 0-3.532.972-3.532 2.914 0 2.078 2.145 3.008 3.809 3.636 1.348-.488 2.7-2.011 2.7-3.5Zm0 0"/></g></g><g id="h" clip-path="url(#d)"><path fill="#E53A7F" d="M0 65V10C0 4.477 4.477 0 10 0h55c5.523 0 10 4.477 10 10v55c0 5.523-4.477 10-10 10H10C4.477 75 0 70.523 0 65Zm0 0"/><path fill="#FFF" d="M6.5 64.102V10.898A4.399 4.399 0 0 1 10.902 6.5h53.2a4.398 4.398 0 0 1 4.398 4.398v53.204a4.398 4.398 0 0 1-4.398 4.398h-53.2A4.399 4.399 0 0 1 6.5 64.102Zm0 0"/><path fill="#6CBD42" d="M11 62.398V12.602A1.6 1.6 0 0 1 12.602 11h49.8c.883 0 1.598.715 1.598 1.602v49.796c0 .887-.715 1.602-1.598 1.602h-49.8A1.599 1.599 0 0 1 11 62.398Zm0 0"/><path fill="#FFF" d="M13.7 61.3V13.7h47.6v47.6Zm0 0"/><use xlink:href="#e" x="24.65" y="29.804"/><use xlink:href="#f" x="39.308" y="29.804"/><use xlink:href="#g" transform="translate(18 34)"/></g></defs><use xlink:href="#h"/></svg>