<svg xmlns="http://www.w3.org/2000/svg" xmlns:xlink="http://www.w3.org/1999/xlink" width="75" height="75"><defs><clipPath id="b"><path d="M1 .5h18v25H1Zm0 0"/></clipPath><clipPath id="c"><path d="M21 .5h17v25H21Zm0 0"/></clipPath><clipPath id="a"><path d="M0 0h39v26H0z"/></clipPath><clipPath id="d"><path d="M0 0h75v75H0z"/></clipPath><path id="e" d="M1.64 0h2.485v-6.39c0-1.173-.047-3.688-.094-4.532h.032c.375.906 1.28 2.86 1.984 4.219L9.53 0h3.485v-13.687H10.53v5.75c0 1.375.063 4.015.125 5.015h-.047c-.406-.953-1.343-3.015-1.859-4l-3.437-6.765H1.64Zm0 0"/><path id="f" d="M4.078 0h2.797v-11.437l3.813.062v-2.312H.358v2.312l3.72-.062Zm0 0"/><g id="g" clip-path="url(#a)"><g clip-path="url(#b)"><path d="M1.598 13.07C1.598 7.012 3.434.5 9.98.5c7.063 0 8.446 6.957 8.446 12.57 0 5.606-1.453 12.43-8.446 12.43-7.445 0-8.382-7.375-8.382-12.43m11.98 0c0-3.117 0-8.972-3.598-8.972-3.535 0-3.535 5.855-3.535 8.972 0 3.047-.035 8.828 3.535 8.828 3.633 0 3.598-5.78 3.598-8.828Zm0 0"/></g><g clip-path="url(#c)"><path d="M22.996 20.723c1.281.55 2.594.968 4.227.968 4.187 0 5.605-3.878 5.746-7.476l-.07-.07c-1.141 1.695-2.63 2.421-4.676 2.421-4.567 0-7.063-2.906-7.063-7.375C21.16 3.965 23.727.5 29.195.5c6.715 0 8.207 5.574 8.207 11.254 0 6.543-2.113 13.746-9.937 13.746a15.07 15.07 0 0 1-5.094-.863l.625-3.914m9.555-12.328c0-2.286-.969-4.297-3.356-4.297-2.25 0-3.187 2.183-3.187 4.332 0 2.355.969 4.535 3.293 4.535 2.351 0 3.25-2.149 3.25-4.57Zm0 0"/></g></g><g id="h" clip-path="url(#d)"><path fill="#E53A7F" d="M0 65V10C0 4.477 4.477 0 10 0h55c5.523 0 10 4.477 10 10v55c0 5.523-4.477 10-10 10H10C4.477 75 0 70.523 0 65Zm0 0"/><path fill="#FFF" d="M6.5 64.102V10.898A4.399 4.399 0 0 1 10.902 6.5h53.2a4.398 4.398 0 0 1 4.398 4.398v53.204a4.398 4.398 0 0 1-4.398 4.398h-53.2A4.399 4.399 0 0 1 6.5 64.102Zm0 0"/><path fill="#6CBD42" d="M11 62.398V12.602A1.6 1.6 0 0 1 12.602 11h49.8c.883 0 1.598.715 1.598 1.602v49.796c0 .887-.715 1.602-1.598 1.602h-49.8A1.599 1.599 0 0 1 11 62.398Zm0 0"/><path fill="#FFF" d="M13.7 61.3V13.7h47.6v47.6Zm0 0"/><use xlink:href="#e" x="24.65" y="29.804"/><use xlink:href="#f" x="39.308" y="29.804"/><use xlink:href="#g" transform="translate(18 34)"/></g></defs><use xlink:href="#h"/></svg>