<svg xmlns="http://www.w3.org/2000/svg" xmlns:xlink="http://www.w3.org/1999/xlink" width="75" height="75"><defs><clipPath id="b"><path d="M2 .5h12v25H2Zm0 0"/></clipPath><clipPath id="c"><path d="M19 .5h18v25H19Zm0 0"/></clipPath><clipPath id="a"><path d="M0 0h39v26H0z"/></clipPath><clipPath id="d"><path d="M0 0h75v75H0z"/></clipPath><path id="e" d="M1.64 0h2.485v-6.39c0-1.173-.047-3.688-.094-4.532h.032c.375.906 1.28 2.86 1.984 4.219L9.53 0h3.485v-13.687H10.53v5.75c0 1.375.063 4.015.125 5.015h-.047c-.406-.953-1.343-3.015-1.859-4l-3.437-6.765H1.64Zm0 0"/><path id="f" d="M4.078 0h2.797v-11.437l3.813.062v-2.312H.358v2.312l3.72-.062Zm0 0"/><g id="g" clip-path="url(#a)"><g clip-path="url(#b)"><path d="M9.285.918h4.297v24.168H8.73V6.418L4.648 9.746 2.223 6.598 9.285.918"/></g><g clip-path="url(#c)"><path d="M19.95 13.066C19.95 7.012 21.78.5 28.327.5c7.067 0 8.45 6.96 8.45 12.566 0 5.614-1.454 12.434-8.45 12.434-7.445 0-8.379-7.375-8.379-12.434m11.977 0c0-3.113 0-8.964-3.598-8.964-3.531 0-3.531 5.851-3.531 8.964 0 3.051-.035 8.832 3.531 8.832 3.637 0 3.598-5.78 3.598-8.832Zm0 0"/></g></g><g id="h" clip-path="url(#d)"><path fill="#E53A7F" d="M0 65V10C0 4.477 4.477 0 10 0h55c5.523 0 10 4.477 10 10v55c0 5.523-4.477 10-10 10H10C4.477 75 0 70.523 0 65Zm0 0"/><path fill="#FFF" d="M6.5 64.102V10.898A4.399 4.399 0 0 1 10.902 6.5h53.2a4.398 4.398 0 0 1 4.398 4.398v53.204a4.398 4.398 0 0 1-4.398 4.398h-53.2A4.399 4.399 0 0 1 6.5 64.102Zm0 0"/><path fill="#6CBD42" d="M11 62.398V12.602A1.6 1.6 0 0 1 12.602 11h49.8c.883 0 1.598.715 1.598 1.602v49.796c0 .887-.715 1.602-1.598 1.602h-49.8A1.599 1.599 0 0 1 11 62.398Zm0 0"/><path fill="#FFF" d="M13.7 61.3V13.7h47.6v47.6Zm0 0"/><use xlink:href="#e" x="24.65" y="29.804"/><use xlink:href="#f" x="39.308" y="29.804"/><use xlink:href="#g" transform="translate(18 34)"/></g></defs><use xlink:href="#h"/></svg>