<svg xmlns="http://www.w3.org/2000/svg" xmlns:xlink="http://www.w3.org/1999/xlink" width="75" height="75"><defs><clipPath id="b"><path d="M3 .5h13v25H3Zm0 0"/></clipPath><clipPath id="c"><path d="M21 .5h17v25H21Zm0 0"/></clipPath><clipPath id="a"><path d="M0 0h41v26H0z"/></clipPath><clipPath id="d"><path d="M0 0h75v75H0z"/></clipPath><path id="e" d="M1.64 0h2.485v-6.39c0-1.173-.047-3.688-.094-4.532h.032c.375.906 1.28 2.86 1.984 4.219L9.53 0h3.485v-13.687H10.53v5.75c0 1.375.063 4.015.125 5.015h-.047c-.406-.953-1.343-3.015-1.859-4l-3.437-6.765H1.64Zm0 0"/><path id="f" d="M4.078 0h2.797v-11.437l3.813.062v-2.312H.358v2.312l3.72-.062Zm0 0"/><g id="g" clip-path="url(#a)"><g clip-path="url(#b)"><path d="M10.738.918h4.293v24.168h-4.847V6.418L6.098 9.746 3.676 6.598l7.062-5.68"/></g><g clip-path="url(#c)"><path d="M22.023 20.586c1.66.656 3.461 1.105 5.364 1.105 2.008 0 5.093-.968 5.093-3.43 0-2.835-2.253-3.773-5.335-3.773h-2.352v-3.804h2.219c3.25 0 5.363-1.075 5.363-3.188 0-2.422-1.973-3.187-4.156-3.187-1.903 0-3.739.453-5.434 1.285l-.277-3.88C24.445.95 26.766.5 29.258.5c2.976 0 7.965 1.04 7.965 6.2 0 3.288-2.043 4.847-4.5 5.78v.07c3.082.415 4.601 2.805 4.601 5.75 0 5.747-5.226 7.2-9.242 7.2-2.113 0-4.539-.277-6.336-.797l.277-4.117"/></g></g><g id="h" clip-path="url(#d)"><path fill="#E53A7F" d="M0 65V10C0 4.477 4.477 0 10 0h55c5.523 0 10 4.477 10 10v55c0 5.523-4.477 10-10 10H10C4.477 75 0 70.523 0 65Zm0 0"/><path fill="#FFF" d="M6.5 64.102V10.898A4.399 4.399 0 0 1 10.902 6.5h53.2a4.398 4.398 0 0 1 4.398 4.398v53.204a4.398 4.398 0 0 1-4.398 4.398h-53.2A4.399 4.399 0 0 1 6.5 64.102Zm0 0"/><path fill="#6CBD42" d="M11 62.398V12.602A1.6 1.6 0 0 1 12.602 11h49.8c.883 0 1.598.715 1.598 1.602v49.796c0 .887-.715 1.602-1.598 1.602h-49.8A1.599 1.599 0 0 1 11 62.398Zm0 0"/><path fill="#FFF" d="M13.7 61.3V13.7h47.6v47.6Zm0 0"/><use xlink:href="#e" x="24.65" y="29.804"/><use xlink:href="#f" x="39.308" y="29.804"/><use xlink:href="#g" transform="translate(17 34)"/></g></defs><use xlink:href="#h"/></svg>