<svg xmlns="http://www.w3.org/2000/svg" xmlns:xlink="http://www.w3.org/1999/xlink" width="75" height="75"><defs><path id="a" d="M8.438-2.594q1.323.002 2.156-.297 1.576-.56 1.578-2.093-.001-.89-.781-1.375-.785-.48-2.453-.844L7.03-7.625q-2.814-.64-3.875-1.39-1.828-1.23-1.828-3.891c0-1.602.582-2.938 1.75-4 1.176-1.07 2.899-1.61 5.172-1.61 1.895 0 3.508.508 4.844 1.516q2.016 1.5 2.11 4.36h-3.61q-.094-1.624-1.406-2.297-.892-.453-2.188-.454-1.454.001-2.328.594-.86.582-.86 1.625c0 .649.286 1.125.86 1.438q.544.327 2.344.75l3.093.75q2.03.486 3.079 1.297c1.07.843 1.609 2.07 1.609 3.671 0 1.649-.633 3.016-1.89 4.11C12.656-.07 10.878.469 8.577.469q-3.514.001-5.53-1.61Q1.03-2.746 1.03-5.547h3.594q.169 1.22.672 1.828.92 1.125 3.14 1.125m0 0"/><path id="b" d="M1.61-18h3.734V0H1.609Zm0 0"/><path id="c" d="M14.766 0H9.203v-19.047h-6.5v-3.687c1.719-.082 2.914-.196 3.594-.344q1.64-.357 2.672-1.453c.469-.489.82-1.149 1.062-1.985q.218-.731.219-1.093h4.516Zm0 0"/><path id="d" d="M17.172-18.734a37 37 0 0 0-3.625 6.359q-1.172 2.566-2.11 6.281c-.617 2.48-.921 4.512-.921 6.094H4.875c.164-4.945 1.79-10.094 4.875-15.437q2.982-4.98 5.016-6.938H.984l.079-4.875h19.5V-23c-.813.805-1.946 2.227-3.391 4.266m0 0"/></defs><path fill="#FF710A" d="M-.004 62.602V12.398C-.004 5.551 5.551 0 12.398 0h50.2c6.847 0 12.398 5.55 12.398 12.398v50.204c0 6.847-5.55 12.398-12.398 12.398h-50.2C5.551 75-.004 69.45-.004 62.602m0 0"/><path fill="#FFF" d="M6.2 43.5V32c0-.828.667-1.5 1.5-1.5h59.597a1.5 1.5 0 0 1 1.5 1.5v11.5a1.5 1.5 0 0 1-1.5 1.5H7.699c-.832 0-1.5-.672-1.5-1.5m0 0"/><path fill="#FFF" d="M6.2 43.602v19.097a6.1 6.1 0 0 0 6.097 6.102h50.402a6.1 6.1 0 0 0 6.098-6.102V43.602a6.1 6.1 0 0 0-6.098-6.102H12.297a6.1 6.1 0 0 0-6.098 6.102m0 0"/><g fill="#FFF"><use xlink:href="#a" x="25.687" y="24.828"/><use xlink:href="#b" x="42.362" y="24.828"/></g><use xlink:href="#c" x="15.807" y="62.906"/><use xlink:href="#d" x="37.499" y="62.906"/></svg>