<svg xmlns="http://www.w3.org/2000/svg" xmlns:xlink="http://www.w3.org/1999/xlink" width="75" height="75"><defs><clipPath id="b"><path d="M1 .129h16V17H1Zm0 0"/></clipPath><clipPath id="c"><path d="M16 .129h14V17H16Zm0 0"/></clipPath><clipPath id="a"><path d="M0 0h31v18H0z"/></clipPath><clipPath id="e"><path d="M2 .621h17v25H2Zm0 0"/></clipPath><clipPath id="f"><path d="M20 .621h17v25H20Zm0 0"/></clipPath><clipPath id="d"><path d="M0 0h39v26H0z"/></clipPath><clipPath id="g"><path d="M0 0h75v75H0z"/></clipPath><g id="h" clip-path="url(#a)"><g clip-path="url(#b)"><path d="M16.164 3.54V.456H1.437v3.082H7.11v13.106h3.368V3.539Zm0 0"/></g><g clip-path="url(#c)"><path d="M26.172.457v10.926c0 2.328-1.129 2.34-3.195 2.34-3.13 0-3.391-.286-3.391-2.727V9.81h-3.438v.851c0 1.258.082 2.719.47 3.77.843 2.273 3.741 2.375 5.8 2.375 1.023 0 2.336 0 3.344-.16.613-.102 1.277-.262 1.793-.57 1.64-.973 2.008-2.821 2.008-4.59V.456Zm0 0"/></g></g><g id="i" clip-path="url(#d)"><g clip-path="url(#e)"><path d="M2.082 13.191c0-6.062 1.836-12.57 8.379-12.57 7.066 0 8.45 6.957 8.45 12.57 0 5.61-1.454 12.43-8.45 12.43-7.445 0-8.379-7.375-8.379-12.43m11.984 0c0-3.117 0-8.972-3.605-8.972-3.531 0-3.531 5.855-3.531 8.972 0 3.047-.035 8.829 3.53 8.829 3.638 0 3.606-5.782 3.606-8.829m0 0"/></g><g clip-path="url(#f)"><path d="M20.848 25.203v-4.05c2.25-2.18 10.457-9.04 10.457-13.47 0-2.218-1.973-3.257-3.95-3.257-2.039 0-3.98.902-5.57 1.941l-.383-4.015c2.18-1.11 4.711-1.73 7.164-1.73 4.61 0 7.586 2.32 7.586 7.062 0 5.125-5.16 9.832-9.105 13.71h9.871v3.81z"/></g></g><g id="j" clip-path="url(#g)"><path fill="#0546A5" d="M0 54.148V20.852C0 9.336 9.336 0 20.852 0h33.3C65.664 0 75 9.336 75 20.852v33.296C75 65.664 65.664 75 54.152 75h-33.3C9.336 75 0 65.664 0 54.148m0 0"/><path fill="#FFF" d="M8.32 54.148V20.852c0-6.922 5.61-12.532 12.532-12.532h33.3c6.918 0 12.528 5.61 12.528 12.532v33.296c0 6.922-5.61 12.532-12.528 12.532h-33.3c-6.922 0-12.532-5.61-12.532-12.532m0 0"/><use xlink:href="#h" transform="translate(22 13)"/><use xlink:href="#i" transform="translate(18 36)"/></g></defs><use xlink:href="#j"/></svg>