<svg xmlns="http://www.w3.org/2000/svg" xmlns:xlink="http://www.w3.org/1999/xlink" width="75" height="75"><defs><clipPath id="b"><path d="M1 .129h16V17H1Zm0 0"/></clipPath><clipPath id="c"><path d="M16 .129h14V17H16Zm0 0"/></clipPath><clipPath id="a"><path d="M0 0h31v18H0z"/></clipPath><clipPath id="e"><path d="M2 .621h17v25H2Zm0 0"/></clipPath><clipPath id="f"><path d="M21 1h16v24.621H21Zm0 0"/></clipPath><clipPath id="d"><path d="M0 0h39v26H0z"/></clipPath><clipPath id="g"><path d="M0 0h75v75H0z"/></clipPath><g id="h" clip-path="url(#a)"><g clip-path="url(#b)"><path d="M16.164 3.54V.456H1.437v3.082H7.11v13.106h3.368V3.539Zm0 0"/></g><g clip-path="url(#c)"><path d="M26.172.457v10.926c0 2.328-1.129 2.34-3.195 2.34-3.13 0-3.391-.286-3.391-2.727V9.81h-3.438v.851c0 1.258.082 2.719.47 3.77.843 2.273 3.741 2.375 5.8 2.375 1.023 0 2.336 0 3.344-.16.613-.102 1.277-.262 1.793-.57 1.64-.973 2.008-2.821 2.008-4.59V.456Zm0 0"/></g></g><g id="i" clip-path="url(#d)"><g clip-path="url(#e)"><path d="M2.047 13.191C2.047 7.13 3.883.621 10.43.621c7.062 0 8.449 6.957 8.449 12.57 0 5.61-1.453 12.43-8.45 12.43-7.445 0-8.382-7.375-8.382-12.43m11.984 0c0-3.117 0-8.972-3.601-8.972-3.532 0-3.532 5.855-3.532 8.972 0 3.047-.035 8.829 3.532 8.829 3.636 0 3.601-5.782 3.601-8.829m0 0"/></g><g clip-path="url(#f)"><path d="M36.363 4.637h-9.312l-.102 5.16c.547-.106 1.278-.246 2.211-.246 3.39 0 7.79 1.597 7.79 7.863 0 4.535-3.18 8.207-9.415 8.207-1.87 0-4.055-.312-5.644-.695l.105-4.328c1.172.484 2.836 1.215 4.953 1.215 2.524 0 5.156-1.18 5.156-4.262 0-3.117-2.773-4.188-5.542-4.188-1.489 0-2.907.203-4.325.657l.239-12.985h13.886z"/></g></g><g id="j" clip-path="url(#g)"><path fill="#0546A5" d="M0 54.148V20.852C0 9.336 9.336 0 20.852 0h33.3C65.664 0 75 9.336 75 20.852v33.296C75 65.664 65.664 75 54.152 75h-33.3C9.336 75 0 65.664 0 54.148m0 0"/><path fill="#FFF" d="M8.32 54.148V20.852c0-6.922 5.61-12.532 12.532-12.532h33.3c6.918 0 12.528 5.61 12.528 12.532v33.296c0 6.922-5.61 12.532-12.528 12.532h-33.3c-6.922 0-12.532-5.61-12.532-12.532m0 0"/><use xlink:href="#h" transform="translate(22 13)"/><use xlink:href="#i" transform="translate(18 36)"/></g></defs><use xlink:href="#j"/></svg>