<svg xmlns="http://www.w3.org/2000/svg" xmlns:xlink="http://www.w3.org/1999/xlink" width="75" height="75"><defs><clipPath id="b"><path d="M1 .129h16V17H1Zm0 0"/></clipPath><clipPath id="c"><path d="M16 .129h14V17H16Zm0 0"/></clipPath><clipPath id="a"><path d="M0 0h31v18H0z"/></clipPath><clipPath id="e"><path d="M1 .621h18v25H1Zm0 0"/></clipPath><clipPath id="f"><path d="M21 .621h17v25H21Zm0 0"/></clipPath><clipPath id="d"><path d="M0 0h39v26H0z"/></clipPath><clipPath id="g"><path d="M0 0h75v75H0z"/></clipPath><g id="h" clip-path="url(#a)"><g clip-path="url(#b)"><path d="M16.164 3.54V.456H1.437v3.082H7.11v13.106h3.368V3.539Zm0 0"/></g><g clip-path="url(#c)"><path d="M26.172.457v10.926c0 2.328-1.129 2.34-3.195 2.34-3.13 0-3.391-.286-3.391-2.727V9.81h-3.438v.851c0 1.258.082 2.719.47 3.77.843 2.273 3.741 2.375 5.8 2.375 1.023 0 2.336 0 3.344-.16.613-.102 1.277-.262 1.793-.57 1.64-.973 2.008-2.821 2.008-4.59V.456Zm0 0"/></g></g><g id="i" clip-path="url(#d)"><g clip-path="url(#e)"><path d="M1.598 13.191C1.598 7.13 3.43.621 9.98.621c7.063 0 8.446 6.957 8.446 12.57 0 5.606-1.453 12.43-8.446 12.43-7.445 0-8.382-7.375-8.382-12.43m11.984 0c0-3.117 0-8.972-3.602-8.972-3.535 0-3.535 5.855-3.535 8.972 0 3.047-.03 8.829 3.535 8.829 3.633 0 3.602-5.782 3.602-8.829m0 0"/></g><g clip-path="url(#f)"><path d="M35.566 5.398c-1.28-.554-2.601-.972-4.226-.972-4.192 0-5.61 3.879-5.75 7.48l.07.07c1.149-1.66 2.633-2.425 4.676-2.425 4.574 0 7.066 2.91 7.066 7.379 0 5.226-2.562 8.691-8.035 8.691-6.719 0-8.207-5.578-8.207-11.254 0-6.543 2.11-13.746 9.938-13.746 1.77 0 3.43.274 5.09.863zm-9.554 12.329c0 2.28.965 4.293 3.355 4.293 2.254 0 3.184-2.184 3.184-4.329 0-2.359-.969-4.539-3.29-4.539-2.355 0-3.25 2.149-3.25 4.575m0 0"/></g></g><g id="j" clip-path="url(#g)"><path fill="#0546A5" d="M0 54.148V20.852C0 9.336 9.336 0 20.852 0h33.3C65.664 0 75 9.336 75 20.852v33.296C75 65.664 65.664 75 54.152 75h-33.3C9.336 75 0 65.664 0 54.148m0 0"/><path fill="#FFF" d="M8.32 54.148V20.852c0-6.922 5.61-12.532 12.532-12.532h33.3c6.918 0 12.528 5.61 12.528 12.532v33.296c0 6.922-5.61 12.532-12.528 12.532h-33.3c-6.922 0-12.532-5.61-12.532-12.532m0 0"/><use xlink:href="#h" transform="translate(22 13)"/><use xlink:href="#i" transform="translate(18 36)"/></g></defs><use xlink:href="#j"/></svg>