<svg xmlns="http://www.w3.org/2000/svg" xmlns:xlink="http://www.w3.org/1999/xlink" width="75" height="75"><defs><clipPath id="b"><path d="M1 .129h16V17H1Zm0 0"/></clipPath><clipPath id="c"><path d="M16 .129h14V17H16Zm0 0"/></clipPath><clipPath id="a"><path d="M0 0h31v18H0z"/></clipPath><clipPath id="e"><path d="M1 .621h17v25H1Zm0 0"/></clipPath><clipPath id="f"><path d="M21 .621h17v25H21Zm0 0"/></clipPath><clipPath id="d"><path d="M0 0h39v26H0z"/></clipPath><clipPath id="g"><path d="M0 0h75v75H0z"/></clipPath><g id="h" clip-path="url(#a)"><g clip-path="url(#b)"><path d="M16.164 3.54V.456H1.437v3.082H7.11v13.106h3.368V3.539Zm0 0"/></g><g clip-path="url(#c)"><path d="M26.172.457v10.926c0 2.328-1.129 2.34-3.195 2.34-3.13 0-3.391-.286-3.391-2.727V9.81h-3.438v.851c0 1.258.082 2.719.47 3.77.843 2.273 3.741 2.375 5.8 2.375 1.023 0 2.336 0 3.344-.16.613-.102 1.277-.262 1.793-.57 1.64-.973 2.008-2.821 2.008-4.59V.456Zm0 0"/></g></g><g id="i" clip-path="url(#d)"><g clip-path="url(#e)"><path d="M1.113 13.191C1.113 7.13 2.95.621 9.496.621c7.059 0 8.445 6.957 8.445 12.57 0 5.61-1.457 12.43-8.445 12.43-7.45 0-8.383-7.375-8.383-12.43m11.98 0c0-3.117 0-8.972-3.6-8.972-3.536 0-3.536 5.855-3.536 8.972 0 3.047-.031 8.829 3.535 8.829 3.637 0 3.602-5.782 3.602-8.829m0 0"/></g><g clip-path="url(#f)"><path d="M33.246 12.184v.07c3.188 1.492 4.64 3.57 4.64 6.336 0 4.883-3.534 7.031-8.312 7.031-4.71 0-8.515-2.043-8.515-6.96 0-2.704 1.523-4.571 4.43-5.993v-.066c-2.427-1.075-4.016-3.082-4.016-5.614 0-4.324 3.289-6.367 7.683-6.367 4.262 0 8.106 1.766 8.106 5.817 0 2.18-1.352 4.71-4.016 5.785zm-7.34 6.407c0 2.012 1.73 3.43 3.668 3.43s3.461-1.215 3.461-3.22c0-2.39-2.043-3.53-4.047-4.19-1.734.831-3.082 1.94-3.082 3.98m6.715-11.32c0-1.801-1.144-3.051-2.976-3.051-1.766 0-3.532.972-3.532 2.91 0 2.078 2.145 3.012 3.809 3.64 1.348-.488 2.7-2.011 2.7-3.5m0 0"/></g></g><g id="j" clip-path="url(#g)"><path fill="#0546A5" d="M0 54.148V20.852C0 9.336 9.336 0 20.852 0h33.3C65.664 0 75 9.336 75 20.852v33.296C75 65.664 65.664 75 54.152 75h-33.3C9.336 75 0 65.664 0 54.148m0 0"/><path fill="#FFF" d="M8.32 54.148V20.852c0-6.922 5.61-12.532 12.532-12.532h33.3c6.918 0 12.528 5.61 12.528 12.532v33.296c0 6.922-5.61 12.532-12.528 12.532h-33.3c-6.922 0-12.532-5.61-12.532-12.532m0 0"/><use xlink:href="#h" transform="translate(22 13)"/><use xlink:href="#i" transform="translate(18 36)"/></g></defs><use xlink:href="#j"/></svg>