<svg xmlns="http://www.w3.org/2000/svg" xmlns:xlink="http://www.w3.org/1999/xlink" width="75" height="75"><defs><clipPath id="b"><path d="M1 .129h16V17H1Zm0 0"/></clipPath><clipPath id="c"><path d="M16 .129h14V17H16Zm0 0"/></clipPath><clipPath id="a"><path d="M0 0h31v18H0z"/></clipPath><clipPath id="e"><path d="M1 .621h18v25H1Zm0 0"/></clipPath><clipPath id="f"><path d="M21 .621h17v25H21Zm0 0"/></clipPath><clipPath id="d"><path d="M0 0h39v26H0z"/></clipPath><clipPath id="g"><path d="M0 0h75v75H0z"/></clipPath><g id="h" clip-path="url(#a)"><g clip-path="url(#b)"><path d="M16.164 3.54V.456H1.437v3.082H7.11v13.106h3.368V3.539Zm0 0"/></g><g clip-path="url(#c)"><path d="M26.172.457v10.926c0 2.328-1.129 2.34-3.195 2.34-3.13 0-3.391-.286-3.391-2.727V9.81h-3.438v.851c0 1.258.082 2.719.47 3.77.843 2.273 3.741 2.375 5.8 2.375 1.023 0 2.336 0 3.344-.16.613-.102 1.277-.262 1.793-.57 1.64-.973 2.008-2.821 2.008-4.59V.456Zm0 0"/></g></g><g id="i" clip-path="url(#d)"><g clip-path="url(#e)"><path d="M1.598 13.191C1.598 7.13 3.434.621 9.98.621c7.063 0 8.446 6.957 8.446 12.57 0 5.606-1.453 12.43-8.446 12.43-7.445 0-8.382-7.375-8.382-12.43m11.98 0c0-3.117 0-8.972-3.598-8.972-3.535 0-3.535 5.855-3.535 8.972 0 3.047-.035 8.829 3.535 8.829 3.633 0 3.598-5.782 3.598-8.829m0 0"/></g><g clip-path="url(#f)"><path d="M22.996 20.84c1.281.555 2.594.973 4.227.973 4.187 0 5.605-3.88 5.746-7.481l-.07-.07c-1.141 1.695-2.63 2.422-4.676 2.422-4.567 0-7.063-2.907-7.063-7.372 0-5.23 2.567-8.69 8.035-8.69 6.715 0 8.207 5.57 8.207 11.253 0 6.543-2.113 13.746-9.937 13.746-1.766 0-3.43-.281-5.094-.867zm9.555-12.324c0-2.286-.969-4.297-3.356-4.297-2.25 0-3.187 2.183-3.187 4.332 0 2.351.969 4.535 3.293 4.535 2.351 0 3.25-2.149 3.25-4.57m0 0"/></g></g><g id="j" clip-path="url(#g)"><path fill="#0546A5" d="M0 54.148V20.852C0 9.336 9.336 0 20.852 0h33.3C65.664 0 75 9.336 75 20.852v33.296C75 65.664 65.664 75 54.152 75h-33.3C9.336 75 0 65.664 0 54.148m0 0"/><path fill="#FFF" d="M8.32 54.148V20.852c0-6.922 5.61-12.532 12.532-12.532h33.3c6.918 0 12.528 5.61 12.528 12.532v33.296c0 6.922-5.61 12.532-12.528 12.532h-33.3c-6.922 0-12.532-5.61-12.532-12.532m0 0"/><use xlink:href="#h" transform="translate(22 13)"/><use xlink:href="#i" transform="translate(18 36)"/></g></defs><use xlink:href="#j"/></svg>