<svg xmlns="http://www.w3.org/2000/svg" xmlns:xlink="http://www.w3.org/1999/xlink" width="75" height="75"><defs><clipPath id="b"><path d="M1 .129h16V17H1Zm0 0"/></clipPath><clipPath id="c"><path d="M16 .129h14V17H16Zm0 0"/></clipPath><clipPath id="a"><path d="M0 0h31v18H0z"/></clipPath><clipPath id="e"><path d="M3 1h12v24.621H3Zm0 0"/></clipPath><clipPath id="f"><path d="M21 .621h17v25H21Zm0 0"/></clipPath><clipPath id="d"><path d="M0 0h41v26H0z"/></clipPath><clipPath id="g"><path d="M0 0h75v75H0z"/></clipPath><g id="h" clip-path="url(#a)"><g clip-path="url(#b)"><path d="M16.164 3.54V.456H1.437v3.082H7.11v13.106h3.368V3.539Zm0 0"/></g><g clip-path="url(#c)"><path d="M26.172.457v10.926c0 2.328-1.129 2.34-3.195 2.34-3.13 0-3.391-.286-3.391-2.727V9.81h-3.438v.851c0 1.258.082 2.719.47 3.77.843 2.273 3.741 2.375 5.8 2.375 1.023 0 2.336 0 3.344-.16.613-.102 1.277-.262 1.793-.57 1.64-.973 2.008-2.821 2.008-4.59V.456Zm0 0"/></g></g><g id="i" clip-path="url(#d)"><g clip-path="url(#e)"><path d="M10.168 1.04h4.289v24.167H9.613V6.543l-4.086 3.32-2.422-3.148z"/></g><g clip-path="url(#f)"><path d="M36.063 5.402c-1.286-.558-2.598-.972-4.227-.972-4.191 0-5.606 3.879-5.746 7.48l.07.07c1.14-1.66 2.63-2.425 4.672-2.425 4.57 0 7.066 2.906 7.066 7.375 0 5.23-2.562 8.691-8.035 8.691-6.715 0-8.203-5.574-8.203-11.254 0-6.543 2.11-13.746 9.934-13.746 1.77 0 3.426.277 5.09.867zm-9.56 12.325c0 2.285.97 4.293 3.36 4.293 2.25 0 3.184-2.184 3.184-4.329 0-2.355-.969-4.535-3.29-4.535-2.355 0-3.253 2.145-3.253 4.57m0 0"/></g></g><g id="j" clip-path="url(#g)"><path fill="#0546A5" d="M0 54.148V20.852C0 9.336 9.336 0 20.852 0h33.3C65.664 0 75 9.336 75 20.852v33.296C75 65.664 65.664 75 54.152 75h-33.3C9.336 75 0 65.664 0 54.148m0 0"/><path fill="#FFF" d="M8.32 54.148V20.852c0-6.922 5.61-12.532 12.532-12.532h33.3c6.918 0 12.528 5.61 12.528 12.532v33.296c0 6.922-5.61 12.532-12.528 12.532h-33.3c-6.922 0-12.532-5.61-12.532-12.532m0 0"/><use xlink:href="#h" transform="translate(22 13)"/><use xlink:href="#i" transform="translate(17 36)"/></g></defs><use xlink:href="#j"/></svg>