<svg xmlns="http://www.w3.org/2000/svg" xmlns:xlink="http://www.w3.org/1999/xlink" width="75" height="75"><defs><clipPath id="b"><path d="M1 .129h16V17H1Zm0 0"/></clipPath><clipPath id="c"><path d="M16 .129h14V17H16Zm0 0"/></clipPath><clipPath id="a"><path d="M0 0h31v18H0z"/></clipPath><clipPath id="e"><path d="M2 .621h17v25H2Zm0 0"/></clipPath><clipPath id="f"><path d="M21 .621h18v25H21Zm0 0"/></clipPath><clipPath id="d"><path d="M0 0h41v26H0z"/></clipPath><clipPath id="g"><path d="M0 0h75v75H0z"/></clipPath><g id="h" clip-path="url(#a)"><g clip-path="url(#b)"><path d="M16.164 3.54V.456H1.437v3.082H7.11v13.106h3.368V3.539Zm0 0"/></g><g clip-path="url(#c)"><path d="M26.172.457v10.926c0 2.328-1.129 2.34-3.195 2.34-3.13 0-3.391-.286-3.391-2.727V9.81h-3.438v.851c0 1.258.082 2.719.47 3.77.843 2.273 3.741 2.375 5.8 2.375 1.023 0 2.336 0 3.344-.16.613-.102 1.277-.262 1.793-.57 1.64-.973 2.008-2.821 2.008-4.59V.456Zm0 0"/></g></g><g id="i" clip-path="url(#d)"><g clip-path="url(#e)"><path d="M2.566 25.2v-4.048c2.25-2.18 10.457-9.039 10.457-13.468 0-2.22-1.976-3.258-3.949-3.258-2.043 0-3.98.898-5.574 1.941l-.379-4.02A16.05 16.05 0 0 1 10.285.622c4.606 0 7.586 2.316 7.586 7.063 0 5.12-5.16 9.832-9.11 13.71h9.868V25.2z"/></g><g clip-path="url(#f)"><path d="M33.793 12.184v.07c3.187 1.488 4.64 3.566 4.64 6.336 0 4.883-3.53 7.031-8.308 7.031-4.707 0-8.52-2.047-8.52-6.965 0-2.699 1.524-4.57 4.434-5.988v-.066c-2.426-1.075-4.02-3.082-4.02-5.614 0-4.324 3.294-6.367 7.688-6.367 4.258 0 8.105 1.762 8.105 5.817 0 2.18-1.347 4.707-4.019 5.78zm-7.34 6.406c0 2.008 1.73 3.43 3.672 3.43 1.941 0 3.46-1.215 3.46-3.223 0-2.387-2.042-3.531-4.05-4.192-1.734.832-3.082 1.946-3.082 3.985m6.719-11.32c0-1.805-1.14-3.051-2.98-3.051-1.762 0-3.528.968-3.528 2.91 0 2.078 2.145 3.012 3.809 3.633 1.347-.485 2.699-2.008 2.699-3.492m0 0"/></g></g><g id="j" clip-path="url(#g)"><path fill="#0546A5" d="M0 54.148V20.852C0 9.336 9.336 0 20.852 0h33.3C65.664 0 75 9.336 75 20.852v33.296C75 65.664 65.664 75 54.152 75h-33.3C9.336 75 0 65.664 0 54.148m0 0"/><path fill="#FFF" d="M8.32 54.148V20.852c0-6.922 5.61-12.532 12.532-12.532h33.3c6.918 0 12.528 5.61 12.528 12.532v33.296c0 6.922-5.61 12.532-12.528 12.532h-33.3c-6.922 0-12.532-5.61-12.532-12.532m0 0"/><use xlink:href="#h" transform="translate(22 13)"/><use xlink:href="#i" transform="translate(17 36)"/></g></defs><use xlink:href="#j"/></svg>