<svg xmlns="http://www.w3.org/2000/svg" xmlns:xlink="http://www.w3.org/1999/xlink" width="75" height="75"><defs><clipPath id="b"><path d="M1 .129h16V17H1Zm0 0"/></clipPath><clipPath id="c"><path d="M16 .129h14V17H16Zm0 0"/></clipPath><clipPath id="a"><path d="M0 0h31v18H0z"/></clipPath><clipPath id="e"><path d="M3 .621h17v25H3Zm0 0"/></clipPath><clipPath id="f"><path d="M21 1h13v24.621H21Zm0 0"/></clipPath><clipPath id="d"><path d="M0 0h41v26H0z"/></clipPath><clipPath id="g"><path d="M0 0h75v75H0z"/></clipPath><g id="h" clip-path="url(#a)"><g clip-path="url(#b)"><path d="M16.164 3.54V.456H1.437v3.082H7.11v13.106h3.368V3.539Zm0 0"/></g><g clip-path="url(#c)"><path d="M26.172.457v10.926c0 2.328-1.129 2.34-3.195 2.34-3.13 0-3.391-.286-3.391-2.727V9.81h-3.438v.851c0 1.258.082 2.719.47 3.77.843 2.273 3.741 2.375 5.8 2.375 1.023 0 2.336 0 3.344-.16.613-.102 1.277-.262 1.793-.57 1.64-.973 2.008-2.821 2.008-4.59V.456Zm0 0"/></g></g><g id="i" clip-path="url(#d)"><g clip-path="url(#e)"><path fill="#1A1A1A" d="M4.137 20.7c1.64.66 3.414 1.109 5.297 1.109 1.984 0 5.023-.973 5.023-3.426 0-2.844-2.223-3.778-5.262-3.778H6.871v-3.804H9.06c3.21 0 5.3-1.074 5.3-3.188 0-2.426-1.953-3.183-4.105-3.183-1.875 0-3.691.449-5.367 1.277l-.27-3.875c1.914-.766 4.203-1.21 6.66-1.21 2.942 0 7.86 1.03 7.86 6.194 0 3.29-2.016 4.848-4.442 5.786v.066c3.043.414 4.543 2.805 4.543 5.746 0 5.75-5.16 7.207-9.12 7.207-2.087 0-4.477-.277-6.255-.797z"/></g><g clip-path="url(#f)"><path fill="#1A1A1A" d="M28.945 1.035h4.235V25.2h-4.782V6.54l-4.035 3.32-2.386-3.148z"/></g></g><g id="j" clip-path="url(#g)"><path fill="#0546A5" d="M0 54.148V20.852C0 9.336 9.336 0 20.852 0h33.3C65.664 0 75 9.336 75 20.852v33.296C75 65.664 65.664 75 54.152 75h-33.3C9.336 75 0 65.664 0 54.148m0 0"/><path fill="#FFF" d="M8.32 54.148V20.852c0-6.922 5.61-12.532 12.532-12.532h33.3c6.918 0 12.528 5.61 12.528 12.532v33.296c0 6.922-5.61 12.532-12.528 12.532h-33.3c-6.922 0-12.532-5.61-12.532-12.532m0 0"/><use xlink:href="#h" transform="translate(22 13)"/><use xlink:href="#i" transform="translate(17 36)"/></g></defs><use xlink:href="#j"/></svg>