<svg xmlns="http://www.w3.org/2000/svg" xmlns:xlink="http://www.w3.org/1999/xlink" width="75" height="75"><defs><clipPath id="b"><path d="M1 .129h16V17H1Zm0 0"/></clipPath><clipPath id="c"><path d="M16 .129h14V17H16Zm0 0"/></clipPath><clipPath id="a"><path d="M0 0h31v18H0z"/></clipPath><clipPath id="e"><path d="M3 .621h17v25H3Zm0 0"/></clipPath><clipPath id="f"><path d="M21 .621h17v25H21Zm0 0"/></clipPath><clipPath id="d"><path d="M0 0h41v26H0z"/></clipPath><clipPath id="g"><path d="M0 0h75v75H0z"/></clipPath><g id="h" clip-path="url(#a)"><g clip-path="url(#b)"><path d="M16.164 3.54V.456H1.437v3.082H7.11v13.106h3.368V3.539Zm0 0"/></g><g clip-path="url(#c)"><path d="M26.172.457v10.926c0 2.328-1.129 2.34-3.195 2.34-3.13 0-3.391-.286-3.391-2.727V9.81h-3.438v.851c0 1.258.082 2.719.47 3.77.843 2.273 3.741 2.375 5.8 2.375 1.023 0 2.336 0 3.344-.16.613-.102 1.277-.262 1.793-.57 1.64-.973 2.008-2.821 2.008-4.59V.456Zm0 0"/></g></g><g id="i" clip-path="url(#d)"><g clip-path="url(#e)"><path d="M3.707 20.7c1.664.66 3.465 1.109 5.367 1.109 2.008 0 5.09-.97 5.09-3.426 0-2.84-2.25-3.778-5.332-3.778H6.477v-3.804h2.218c3.254 0 5.368-1.078 5.368-3.188 0-2.426-1.973-3.187-4.16-3.187-1.9 0-3.735.453-5.43 1.281l-.278-3.875C6.13 1.066 8.45.622 10.945.622c2.98 0 7.965 1.03 7.965 6.194 0 3.29-2.043 4.848-4.5 5.786v.066c3.082.414 4.602 2.805 4.602 5.746 0 5.75-5.227 7.207-9.242 7.207-2.118 0-4.54-.281-6.34-.797z"/></g><g clip-path="url(#f)"><path d="M22.262 20.7c1.664.66 3.468 1.109 5.37 1.109 2.009 0 5.09-.97 5.09-3.426 0-2.84-2.25-3.778-5.331-3.778h-2.356v-3.804h2.215c3.258 0 5.371-1.078 5.371-3.188 0-2.426-1.976-3.187-4.156-3.187-1.906 0-3.742.453-5.438 1.281l-.277-3.875c1.938-.766 4.262-1.21 6.75-1.21 2.98 0 7.965 1.03 7.965 6.194 0 3.29-2.043 4.848-4.5 5.786v.066c3.082.414 4.605 2.805 4.605 5.746 0 5.75-5.226 7.207-9.246 7.207-2.11 0-4.531-.281-6.336-.797z"/></g></g><g id="j" clip-path="url(#g)"><path fill="#0546A5" d="M0 54.148V20.852C0 9.336 9.336 0 20.852 0h33.3C65.664 0 75 9.336 75 20.852v33.296C75 65.664 65.664 75 54.152 75h-33.3C9.336 75 0 65.664 0 54.148m0 0"/><path fill="#FFF" d="M8.32 54.148V20.852c0-6.922 5.61-12.532 12.532-12.532h33.3c6.918 0 12.528 5.61 12.528 12.532v33.296c0 6.922-5.61 12.532-12.528 12.532h-33.3c-6.922 0-12.532-5.61-12.532-12.532m0 0"/><use xlink:href="#h" transform="translate(22 13)"/><use xlink:href="#i" transform="translate(17 36)"/></g></defs><use xlink:href="#j"/></svg>