<svg xmlns="http://www.w3.org/2000/svg" xmlns:xlink="http://www.w3.org/1999/xlink" width="75" height="75"><defs><clipPath id="b"><path d="M1 .129h16V17H1Zm0 0"/></clipPath><clipPath id="c"><path d="M16 .129h14V17H16Zm0 0"/></clipPath><clipPath id="a"><path d="M0 0h31v18H0z"/></clipPath><clipPath id="e"><path d="M3 .621h16v25H3Zm0 0"/></clipPath><clipPath id="f"><path d="M21 .621h17v25H21Zm0 0"/></clipPath><clipPath id="d"><path d="M0 0h41v26H0z"/></clipPath><clipPath id="g"><path d="M0 0h75v75H0z"/></clipPath><g id="h" clip-path="url(#a)"><g clip-path="url(#b)"><path d="M16.164 3.54V.456H1.437v3.082H7.11v13.106h3.368V3.539Zm0 0"/></g><g clip-path="url(#c)"><path d="M26.172.457v10.926c0 2.328-1.129 2.34-3.195 2.34-3.13 0-3.391-.286-3.391-2.727V9.81h-3.438v.851c0 1.258.082 2.719.47 3.77.843 2.273 3.741 2.375 5.8 2.375 1.023 0 2.336 0 3.344-.16.613-.102 1.277-.262 1.793-.57 1.64-.973 2.008-2.821 2.008-4.59V.456Zm0 0"/></g></g><g id="i" clip-path="url(#d)"><g clip-path="url(#e)"><path d="M3.395 20.707c1.664.656 3.464 1.105 5.367 1.105 2.008 0 5.09-.972 5.09-3.425 0-2.844-2.25-3.778-5.332-3.778H6.164v-3.808h2.219c3.254 0 5.367-1.074 5.367-3.188 0-2.422-1.973-3.183-4.156-3.183-1.903 0-3.739.449-5.434 1.28L3.88 1.833C5.82 1.07 8.137.622 10.629.622c2.98 0 7.969 1.038 7.969 6.194 0 3.293-2.047 4.852-4.5 5.786v.07c3.082.414 4.601 2.805 4.601 5.746 0 5.75-5.226 7.203-9.246 7.203-2.113 0-4.535-.277-6.332-.797z"/></g><g clip-path="url(#f)"><path d="M23.48 20.84c1.278.555 2.594.973 4.22.973 4.187 0 5.609-3.88 5.75-7.481l-.071-.07c-1.14 1.695-2.633 2.425-4.672 2.425-4.57 0-7.066-2.91-7.066-7.375 0-5.23 2.566-8.69 8.035-8.69 6.719 0 8.203 5.573 8.203 11.253 0 6.543-2.11 13.746-9.934 13.746a14.9 14.9 0 0 1-5.09-.867zm9.555-12.324c0-2.286-.969-4.293-3.36-4.293-2.253 0-3.187 2.18-3.187 4.328 0 2.351.969 4.535 3.29 4.535 2.35 0 3.257-2.145 3.257-4.57m0 0"/></g></g><g id="j" clip-path="url(#g)"><path fill="#0546A5" d="M0 54.148V20.852C0 9.336 9.336 0 20.852 0h33.3C65.664 0 75 9.336 75 20.852v33.296C75 65.664 65.664 75 54.152 75h-33.3C9.336 75 0 65.664 0 54.148m0 0"/><path fill="#FFF" d="M8.32 54.148V20.852c0-6.922 5.61-12.532 12.532-12.532h33.3c6.918 0 12.528 5.61 12.528 12.532v33.296c0 6.922-5.61 12.532-12.528 12.532h-33.3c-6.922 0-12.532-5.61-12.532-12.532m0 0"/><use xlink:href="#h" transform="translate(22 13)"/><use xlink:href="#i" transform="translate(17 36)"/></g></defs><use xlink:href="#j"/></svg>