<svg xmlns="http://www.w3.org/2000/svg" xmlns:xlink="http://www.w3.org/1999/xlink" width="75" height="75"><defs><clipPath id="b"><path d="M1 .129h16V17H1Zm0 0"/></clipPath><clipPath id="c"><path d="M16 .129h14V17H16Zm0 0"/></clipPath><clipPath id="a"><path d="M0 0h31v18H0z"/></clipPath><clipPath id="e"><path d="M2 1h19v24.621H2Zm0 0"/></clipPath><clipPath id="f"><path d="M22 .621h17v25H22Zm0 0"/></clipPath><clipPath id="d"><path d="M0 0h41v26H0z"/></clipPath><clipPath id="g"><path d="M0 0h75v75H0z"/></clipPath><g id="h" clip-path="url(#a)"><g clip-path="url(#b)"><path d="M16.164 3.54V.456H1.437v3.082H7.11v13.106h3.368V3.539Zm0 0"/></g><g clip-path="url(#c)"><path d="M26.172.457v10.926c0 2.328-1.129 2.34-3.195 2.34-3.13 0-3.391-.286-3.391-2.727V9.81h-3.438v.851c0 1.258.082 2.719.47 3.77.843 2.273 3.741 2.375 5.8 2.375 1.023 0 2.336 0 3.344-.16.613-.102 1.277-.262 1.793-.57 1.64-.973 2.008-2.821 2.008-4.59V.456Zm0 0"/></g></g><g id="i" clip-path="url(#d)"><g clip-path="url(#e)"><path d="m2.582 16.27 9.04-15.235h6.023v15.547h3.082v3.602h-3.082v5.023h-4.641v-5.023H2.582zm10.422.312V6.09h-.066L6.945 16.582Zm0 0"/></g><g clip-path="url(#f)"><path d="M23.113 20.707c1.664.656 3.461 1.105 5.367 1.105 2.008 0 5.09-.972 5.09-3.425 0-2.844-2.25-3.778-5.332-3.778h-2.351v-3.808h2.21c3.258 0 5.372-1.074 5.372-3.188 0-2.422-1.973-3.183-4.157-3.183-1.902 0-3.738.449-5.437 1.28l-.277-3.878c1.937-.762 4.261-1.21 6.754-1.21 2.976 0 7.964 1.038 7.964 6.194 0 3.293-2.046 4.852-4.504 5.786v.07c3.086.414 4.606 2.805 4.606 5.746 0 5.75-5.227 7.203-9.242 7.203-2.117 0-4.54-.277-6.34-.797z"/></g></g><g id="j" clip-path="url(#g)"><path fill="#0546A5" d="M0 54.148V20.852C0 9.336 9.336 0 20.852 0h33.3C65.664 0 75 9.336 75 20.852v33.296C75 65.664 65.664 75 54.152 75h-33.3C9.336 75 0 65.664 0 54.148m0 0"/><path fill="#FFF" d="M8.32 54.148V20.852c0-6.922 5.61-12.532 12.532-12.532h33.3c6.918 0 12.528 5.61 12.528 12.532v33.296c0 6.922-5.61 12.532-12.528 12.532h-33.3c-6.922 0-12.532-5.61-12.532-12.532m0 0"/><use xlink:href="#h" transform="translate(22 13)"/><use xlink:href="#i" transform="translate(17 36)"/></g></defs><use xlink:href="#j"/></svg>