<svg xmlns="http://www.w3.org/2000/svg" xmlns:xlink="http://www.w3.org/1999/xlink" width="75" height="75"><defs><clipPath id="b"><path d="M5 .625h9v18.75H5Zm0 0"/></clipPath><clipPath id="c"><path d="M16 .625h14v18.75H16Zm0 0"/></clipPath><clipPath id="a"><path d="M0 0h35v20H0z"/></clipPath><clipPath id="e"><path d="M1 .762h20v26.875H1Zm0 0"/></clipPath><clipPath id="f"><path d="M22 .762h18v26.875H22Zm0 0"/></clipPath><clipPath id="d"><path d="M0 0h41v28H0z"/></clipPath><clipPath id="g"><path d="M0 0h75v75H0z"/></clipPath><g id="h" clip-path="url(#a)"><g clip-path="url(#b)"><path d="M5.375 15.871a4.5 4.5 0 0 0 1.73.309c2.344 0 2.344-1.89 2.344-3.2V.926h3.614v13.828c0 1.922-1.231 4.621-4.958 4.621a9.6 9.6 0 0 1-2.77-.348v-3.156Zm0 0"/></g><g clip-path="url(#c)"><path d="M16.98.926h6.305c2.344 0 5.84.652 5.84 4.66 0 2.156-1.46 3.66-3.613 4.043v.039c2.46.23 4.152 1.887 4.152 4.121 0 4.547-4.074 5.238-6.379 5.238H16.98Zm3.614 7.316h1.46c1.536 0 3.419-.344 3.419-2.195 0-2.121-1.844-2.27-3.496-2.27h-1.383Zm0 7.938h1.691c1.692 0 3.727-.426 3.727-2.504 0-2.352-1.922-2.738-3.727-2.738h-1.691Zm0 0"/></g></g><g id="i" clip-path="url(#d)"><g clip-path="url(#e)"><path d="M1.965 14.273C1.965 7.762 3.938.762 10.973.762c7.593 0 9.082 7.48 9.082 13.511 0 6.032-1.563 13.364-9.082 13.364-8 0-9.008-7.926-9.008-13.364m12.879 0c0-3.347 0-9.644-3.871-9.644-3.797 0-3.797 6.297-3.797 9.644 0 3.278-.04 9.493 3.797 9.493 3.91 0 3.87-6.215 3.87-9.493m0 0"/></g><g clip-path="url(#f)"><path d="M22.582 22.352c1.79.707 3.727 1.191 5.773 1.191 2.157 0 5.473-1.043 5.473-3.684 0-3.054-2.422-4.058-5.734-4.058h-2.535v-4.094h2.386c3.496 0 5.77-1.156 5.77-3.43 0-2.601-2.121-3.422-4.473-3.422-2.043 0-4.015.485-5.84 1.375l-.297-4.167c2.086-.82 4.579-1.301 7.258-1.301 3.2 0 8.563 1.113 8.563 6.664 0 3.535-2.196 5.207-4.84 6.219v.07c3.316.45 4.95 3.015 4.95 6.18 0 6.175-5.622 7.742-9.938 7.742-2.27 0-4.875-.297-6.813-.856z"/></g></g><g id="j" clip-path="url(#g)"><path fill="#FFE501" d="M0 68.5v-62A6.5 6.5 0 0 1 6.5 0h62A6.5 6.5 0 0 1 75 6.5v62a6.5 6.5 0 0 1-6.5 6.5h-62A6.5 6.5 0 0 1 0 68.5m0 0"/><path fill="#FFF" d="M7.5 67.5v-60h60v60Zm0 0"/><use xlink:href="#h" transform="translate(20 10)"/><use xlink:href="#i" transform="translate(17 33)"/></g></defs><use xlink:href="#j"/></svg>