<svg xmlns="http://www.w3.org/2000/svg" xmlns:xlink="http://www.w3.org/1999/xlink" width="75" height="75"><defs><clipPath id="b"><path d="M5 .625h9v18.75H5Zm0 0"/></clipPath><clipPath id="c"><path d="M16 .625h14v18.75H16Zm0 0"/></clipPath><clipPath id="a"><path d="M0 0h35v20H0z"/></clipPath><clipPath id="e"><path d="M.074.762H19v26.875H.074Zm0 0"/></clipPath><clipPath id="f"><path d="M22 .762h18.926v26.875H22Zm0 0"/></clipPath><clipPath id="d"><path d="M0 0h41v28H0z"/></clipPath><clipPath id="g"><path d="M0 0h75v75H0z"/></clipPath><g id="h" clip-path="url(#a)"><g clip-path="url(#b)"><path d="M5.375 15.871a4.5 4.5 0 0 0 1.73.309c2.344 0 2.344-1.89 2.344-3.2V.926h3.614v13.828c0 1.922-1.231 4.621-4.958 4.621a9.6 9.6 0 0 1-2.77-.348v-3.156Zm0 0"/></g><g clip-path="url(#c)"><path d="M16.98.926h6.305c2.344 0 5.84.652 5.84 4.66 0 2.156-1.46 3.66-3.613 4.043v.039c2.46.23 4.152 1.887 4.152 4.121 0 4.547-4.074 5.238-6.379 5.238H16.98Zm3.614 7.316h1.46c1.536 0 3.419-.344 3.419-2.195 0-2.121-1.844-2.27-3.496-2.27h-1.383Zm0 7.938h1.691c1.692 0 3.727-.426 3.727-2.504 0-2.352-1.922-2.738-3.727-2.738h-1.691Zm0 0"/></g></g><g id="i" clip-path="url(#d)"><g clip-path="url(#e)"><path d="M.734 14.273C.734 7.762 2.707.762 9.746.762c7.59 0 9.082 7.48 9.082 13.511 0 6.032-1.57 13.364-9.082 13.364-8.004 0-9.012-7.926-9.012-13.364m12.88 0c0-3.347 0-9.644-3.872-9.644-3.8 0-3.8 6.297-3.8 9.644 0 3.278-.032 9.493 3.8 9.493 3.906 0 3.871-6.215 3.871-9.493m0 0"/></g><g clip-path="url(#f)"><path d="M35.277 13.195v.07c3.426 1.606 4.989 3.84 4.989 6.817 0 5.246-3.801 7.555-8.938 7.555-5.058 0-9.152-2.196-9.152-7.48 0-2.907 1.637-4.915 4.762-6.442v-.07c-2.606-1.16-4.317-3.317-4.317-6.036 0-4.648 3.535-6.847 8.262-6.847 4.582 0 8.71 1.898 8.71 6.254 0 2.343-1.448 5.066-4.316 6.218zm-7.89 6.887c0 2.16 1.863 3.684 3.941 3.684 2.086 0 3.727-1.305 3.727-3.461 0-2.567-2.2-3.797-4.356-4.504-1.863.894-3.312 2.086-3.312 4.281M34.609 7.91c0-1.937-1.234-3.281-3.203-3.281-1.898 0-3.797 1.047-3.797 3.133 0 2.234 2.305 3.234 4.094 3.91 1.453-.524 2.906-2.16 2.906-3.762m0 0"/></g></g><g id="j" clip-path="url(#g)"><path fill="#FFE501" d="M0 68.5v-62A6.5 6.5 0 0 1 6.5 0h62A6.5 6.5 0 0 1 75 6.5v62a6.5 6.5 0 0 1-6.5 6.5h-62A6.5 6.5 0 0 1 0 68.5m0 0"/><path fill="#FFF" d="M7.5 67.5v-60h60v60Zm0 0"/><use xlink:href="#h" transform="translate(20 10)"/><use xlink:href="#i" transform="translate(17 33)"/></g></defs><use xlink:href="#j"/></svg>