<svg xmlns="http://www.w3.org/2000/svg" xmlns:xlink="http://www.w3.org/1999/xlink" width="75" height="75"><defs><clipPath id="b"><path d="M5 .625h9v18.75H5Zm0 0"/></clipPath><clipPath id="c"><path d="M16 .625h14v18.75H16Zm0 0"/></clipPath><clipPath id="a"><path d="M0 0h35v20H0z"/></clipPath><clipPath id="e"><path d="M2 1h14v26.637H2Zm0 0"/></clipPath><clipPath id="f"><path d="M21 .762h20v26.875H21Zm0 0"/></clipPath><clipPath id="d"><path d="M0 0h43v28H0z"/></clipPath><clipPath id="g"><path d="M0 0h75v75H0z"/></clipPath><g id="h" clip-path="url(#a)"><g clip-path="url(#b)"><path d="M5.375 15.871a4.5 4.5 0 0 0 1.73.309c2.344 0 2.344-1.89 2.344-3.2V.926h3.614v13.828c0 1.922-1.231 4.621-4.958 4.621a9.6 9.6 0 0 1-2.77-.348v-3.156Zm0 0"/></g><g clip-path="url(#c)"><path d="M16.98.926h6.305c2.344 0 5.84.652 5.84 4.66 0 2.156-1.46 3.66-3.613 4.043v.039c2.46.23 4.152 1.887 4.152 4.121 0 4.547-4.074 5.238-6.379 5.238H16.98Zm3.614 7.316h1.46c1.536 0 3.419-.344 3.419-2.195 0-2.121-1.844-2.27-3.496-2.27h-1.383Zm0 7.938h1.691c1.692 0 3.727-.426 3.727-2.504 0-2.352-1.922-2.738-3.727-2.738h-1.691Zm0 0"/></g></g><g id="i" clip-path="url(#d)"><g clip-path="url(#e)"><path d="M10.52 1.21h4.613v25.981H9.926V7.13l-4.395 3.57-2.605-3.386z"/></g><g clip-path="url(#f)"><path d="M35.086 13.2v.07c3.426 1.597 4.988 3.832 4.988 6.812 0 5.25-3.793 7.555-8.933 7.555-5.063 0-9.157-2.192-9.157-7.48 0-2.907 1.637-4.915 4.762-6.442v-.07c-2.601-1.157-4.316-3.313-4.316-6.032 0-4.656 3.535-6.851 8.261-6.851 4.582 0 8.711 1.898 8.711 6.254 0 2.343-1.449 5.066-4.316 6.214zm-7.887 6.882c0 2.156 1.86 3.684 3.942 3.684s3.722-1.301 3.722-3.461c0-2.567-2.195-3.797-4.355-4.508-1.86.898-3.309 2.09-3.309 4.285M34.418 7.91c0-1.937-1.23-3.277-3.2-3.277-1.898 0-3.8 1.043-3.8 3.129 0 2.23 2.309 3.234 4.098 3.906 1.449-.52 2.902-2.16 2.902-3.758m0 0"/></g></g><g id="j" clip-path="url(#g)"><path fill="#FFE501" d="M0 68.5v-62A6.5 6.5 0 0 1 6.5 0h62A6.5 6.5 0 0 1 75 6.5v62a6.5 6.5 0 0 1-6.5 6.5h-62A6.5 6.5 0 0 1 0 68.5m0 0"/><path fill="#FFF" d="M7.5 67.5v-60h60v60Zm0 0"/><use xlink:href="#h" transform="translate(20 10)"/><use xlink:href="#i" transform="translate(16 33)"/></g></defs><use xlink:href="#j"/></svg>