<svg xmlns="http://www.w3.org/2000/svg" xmlns:xlink="http://www.w3.org/1999/xlink" width="75" height="75"><defs><clipPath id="b"><path d="M5 .625h9v18.75H5Zm0 0"/></clipPath><clipPath id="c"><path d="M16 .625h14v18.75H16Zm0 0"/></clipPath><clipPath id="a"><path d="M0 0h35v20H0z"/></clipPath><clipPath id="e"><path d="M2 .762h18v26.875H2Zm0 0"/></clipPath><clipPath id="f"><path d="M23 .762h18v26.875H23Zm0 0"/></clipPath><clipPath id="d"><path d="M0 0h43v28H0z"/></clipPath><clipPath id="g"><path d="M0 0h75v75H0z"/></clipPath><g id="h" clip-path="url(#a)"><g clip-path="url(#b)"><path d="M5.375 15.871a4.5 4.5 0 0 0 1.73.309c2.344 0 2.344-1.89 2.344-3.2V.926h3.614v13.828c0 1.922-1.231 4.621-4.958 4.621a9.6 9.6 0 0 1-2.77-.348v-3.156Zm0 0"/></g><g clip-path="url(#c)"><path d="M16.98.926h6.305c2.344 0 5.84.652 5.84 4.66 0 2.156-1.46 3.66-3.613 4.043v.039c2.46.23 4.152 1.887 4.152 4.121 0 4.547-4.074 5.238-6.379 5.238H16.98Zm3.614 7.316h1.46c1.536 0 3.419-.344 3.419-2.195 0-2.121-1.844-2.27-3.496-2.27h-1.383Zm0 7.938h1.691c1.692 0 3.727-.426 3.727-2.504 0-2.352-1.922-2.738-3.727-2.738h-1.691Zm0 0"/></g></g><g id="i" clip-path="url(#d)"><g clip-path="url(#e)"><path d="M2.371 27.191v-4.355c2.418-2.348 11.242-9.719 11.242-14.48 0-2.383-2.125-3.497-4.246-3.497-2.195 0-4.281.965-5.992 2.082l-.41-4.316C5.309 1.434 8.027.762 10.672.762c4.945 0 8.148 2.496 8.148 7.593 0 5.512-5.547 10.57-9.785 14.743h10.606v4.093z"/></g><g clip-path="url(#f)"><path d="M38.66 5.898c-1.379-.593-2.793-1.039-4.543-1.039-4.504 0-6.031 4.168-6.18 8.036l.075.074c1.23-1.785 2.828-2.602 5.027-2.602 4.914 0 7.59 3.125 7.59 7.926 0 5.621-2.75 9.344-8.633 9.344-7.219 0-8.82-5.992-8.82-12.098C23.176 8.504 25.44.762 33.859.762c1.899 0 3.684.3 5.47.933zm-10.277 13.25c0 2.457 1.043 4.614 3.613 4.614 2.418 0 3.426-2.34 3.426-4.649 0-2.535-1.047-4.879-3.54-4.879-2.53 0-3.5 2.313-3.5 4.914m0 0"/></g></g><g id="j" clip-path="url(#g)"><path fill="#FFE501" d="M0 68.5v-62A6.5 6.5 0 0 1 6.5 0h62A6.5 6.5 0 0 1 75 6.5v62a6.5 6.5 0 0 1-6.5 6.5h-62A6.5 6.5 0 0 1 0 68.5m0 0"/><path fill="#FFF" d="M7.5 67.5v-60h60v60Zm0 0"/><use xlink:href="#h" transform="translate(20 10)"/><use xlink:href="#i" transform="translate(16 33)"/></g></defs><use xlink:href="#j"/></svg>