<svg xmlns="http://www.w3.org/2000/svg" xmlns:xlink="http://www.w3.org/1999/xlink" width="75" height="75"><defs><clipPath id="b"><path d="M5 .625h9v18.75H5Zm0 0"/></clipPath><clipPath id="c"><path d="M16 .625h14v18.75H16Zm0 0"/></clipPath><clipPath id="a"><path d="M0 0h35v20H0z"/></clipPath><clipPath id="e"><path d="M2 .762h18v26.875H2Zm0 0"/></clipPath><clipPath id="f"><path d="M22 .762h19v26.875H22Zm0 0"/></clipPath><clipPath id="d"><path d="M0 0h43v28H0z"/></clipPath><clipPath id="g"><path d="M0 0h75v75H0z"/></clipPath><g id="h" clip-path="url(#a)"><g clip-path="url(#b)"><path d="M5.375 15.871a4.5 4.5 0 0 0 1.73.309c2.344 0 2.344-1.89 2.344-3.2V.926h3.614v13.828c0 1.922-1.231 4.621-4.958 4.621a9.6 9.6 0 0 1-2.77-.348v-3.156Zm0 0"/></g><g clip-path="url(#c)"><path d="M16.98.926h6.305c2.344 0 5.84.652 5.84 4.66 0 2.156-1.46 3.66-3.613 4.043v.039c2.46.23 4.152 1.887 4.152 4.121 0 4.547-4.074 5.238-6.379 5.238H16.98Zm3.614 7.316h1.46c1.536 0 3.419-.344 3.419-2.195 0-2.121-1.844-2.27-3.496-2.27h-1.383Zm0 7.938h1.691c1.692 0 3.727-.426 3.727-2.504 0-2.352-1.922-2.738-3.727-2.738h-1.691Zm0 0"/></g></g><g id="i" clip-path="url(#d)"><g clip-path="url(#e)"><path d="M2.219 27.188v-4.356c2.422-2.344 11.246-9.715 11.246-14.477 0-2.382-2.125-3.5-4.25-3.5-2.195 0-4.277.965-5.988 2.086l-.41-4.32C5.16 1.43 7.878.761 10.52.761c4.949 0 8.152 2.493 8.152 7.594 0 5.504-5.547 10.57-9.79 14.739h10.61v4.093z"/></g><g clip-path="url(#f)"><path d="M35.793 13.195v.07c3.422 1.602 4.988 3.837 4.988 6.813 0 5.25-3.797 7.559-8.933 7.559-5.063 0-9.157-2.196-9.157-7.485 0-2.902 1.637-4.914 4.766-6.441v-.066c-2.61-1.16-4.32-3.317-4.32-6.036 0-4.648 3.539-6.847 8.261-6.847 4.579 0 8.715 1.894 8.715 6.254 0 2.343-1.453 5.062-4.32 6.214zm-7.89 6.883c0 2.16 1.855 3.688 3.945 3.688 2.086 0 3.722-1.305 3.722-3.461 0-2.57-2.199-3.797-4.355-4.508-1.863.894-3.313 2.09-3.313 4.281M35.124 7.91c0-1.937-1.227-3.281-3.203-3.281-1.895 0-3.793 1.043-3.793 3.133 0 2.23 2.305 3.234 4.09 3.906 1.453-.523 2.906-2.16 2.906-3.758m0 0"/></g></g><g id="j" clip-path="url(#g)"><path fill="#FFE501" d="M0 68.5v-62A6.5 6.5 0 0 1 6.5 0h62A6.5 6.5 0 0 1 75 6.5v62a6.5 6.5 0 0 1-6.5 6.5h-62A6.5 6.5 0 0 1 0 68.5m0 0"/><path fill="#FFF" d="M7.5 67.5v-60h60v60Zm0 0"/><use xlink:href="#h" transform="translate(20 10)"/><use xlink:href="#i" transform="translate(16 33)"/></g></defs><use xlink:href="#j"/></svg>