<svg xmlns="http://www.w3.org/2000/svg" xmlns:xlink="http://www.w3.org/1999/xlink" width="75" height="75"><defs><clipPath id="b"><path d="M5 .625h9v18.75H5Zm0 0"/></clipPath><clipPath id="c"><path d="M16 .625h14v18.75H16Zm0 0"/></clipPath><clipPath id="a"><path d="M0 0h35v20H0z"/></clipPath><clipPath id="e"><path d="M2 .762h18v26.875H2Zm0 0"/></clipPath><clipPath id="f"><path d="M22 .762h19v26.875H22Zm0 0"/></clipPath><clipPath id="d"><path d="M0 0h43v28H0z"/></clipPath><clipPath id="g"><path d="M0 0h75v75H0z"/></clipPath><g id="h" clip-path="url(#a)"><g clip-path="url(#b)"><path d="M5.375 15.871a4.5 4.5 0 0 0 1.73.309c2.344 0 2.344-1.89 2.344-3.2V.926h3.614v13.828c0 1.922-1.231 4.621-4.958 4.621a9.6 9.6 0 0 1-2.77-.348v-3.156Zm0 0"/></g><g clip-path="url(#c)"><path d="M16.98.926h6.305c2.344 0 5.84.652 5.84 4.66 0 2.156-1.46 3.66-3.613 4.043v.039c2.46.23 4.152 1.887 4.152 4.121 0 4.547-4.074 5.238-6.379 5.238H16.98Zm3.614 7.316h1.46c1.536 0 3.419-.344 3.419-2.195 0-2.121-1.844-2.27-3.496-2.27h-1.383Zm0 7.938h1.691c1.692 0 3.727-.426 3.727-2.504 0-2.352-1.922-2.738-3.727-2.738h-1.691Zm0 0"/></g></g><g id="i" clip-path="url(#d)"><g clip-path="url(#e)"><path d="M3.266 22.348c1.785.71 3.718 1.195 5.765 1.195 2.16 0 5.473-1.047 5.473-3.684 0-3.054-2.418-4.062-5.734-4.062H6.238v-4.09h2.387c3.496 0 5.77-1.16 5.77-3.43 0-2.605-2.125-3.422-4.47-3.422-2.046 0-4.023.485-5.847 1.375l-.297-4.167C5.867 1.243 8.363.762 11.043.762c3.203 0 8.562 1.113 8.562 6.66 0 3.535-2.199 5.21-4.84 6.223v.07c3.313.445 4.95 3.012 4.95 6.176 0 6.18-5.617 7.746-9.938 7.746-2.27 0-4.879-.297-6.812-.856z"/></g><g clip-path="url(#f)"><path d="M22.766 27.188v-4.356c2.418-2.344 11.242-9.715 11.242-14.477 0-2.382-2.121-3.5-4.246-3.5-2.196 0-4.282.965-5.992 2.086l-.41-4.32c2.347-1.191 5.066-1.86 7.706-1.86 4.95 0 8.149 2.493 8.149 7.594 0 5.504-5.543 10.57-9.79 14.739h10.61v4.093z"/></g></g><g id="j" clip-path="url(#g)"><path fill="#FFE501" d="M0 68.5v-62A6.5 6.5 0 0 1 6.5 0h62A6.5 6.5 0 0 1 75 6.5v62a6.5 6.5 0 0 1-6.5 6.5h-62A6.5 6.5 0 0 1 0 68.5m0 0"/><path fill="#FFF" d="M7.5 67.5v-60h60v60Zm0 0"/><use xlink:href="#h" transform="translate(20 10)"/><use xlink:href="#i" transform="translate(16 33)"/></g></defs><use xlink:href="#j"/></svg>