<svg xmlns="http://www.w3.org/2000/svg" xmlns:xlink="http://www.w3.org/1999/xlink" width="75" height="75"><defs><clipPath id="b"><path d="M5 .625h9v18.75H5Zm0 0"/></clipPath><clipPath id="c"><path d="M16 .625h14v18.75H16Zm0 0"/></clipPath><clipPath id="a"><path d="M0 0h35v20H0z"/></clipPath><clipPath id="e"><path d="M3 .762h17v26.875H3Zm0 0"/></clipPath><clipPath id="f"><path d="M23 .762h17v26.875H23Zm0 0"/></clipPath><clipPath id="d"><path d="M0 0h43v28H0z"/></clipPath><clipPath id="g"><path d="M0 0h75v75H0z"/></clipPath><g id="h" clip-path="url(#a)"><g clip-path="url(#b)"><path d="M5.375 15.871a4.5 4.5 0 0 0 1.73.309c2.344 0 2.344-1.89 2.344-3.2V.926h3.614v13.828c0 1.922-1.231 4.621-4.958 4.621a9.6 9.6 0 0 1-2.77-.348v-3.156Zm0 0"/></g><g clip-path="url(#c)"><path d="M16.98.926h6.305c2.344 0 5.84.652 5.84 4.66 0 2.156-1.46 3.66-3.613 4.043v.039c2.46.23 4.152 1.887 4.152 4.121 0 4.547-4.074 5.238-6.379 5.238H16.98Zm3.614 7.316h1.46c1.536 0 3.419-.344 3.419-2.195 0-2.121-1.844-2.27-3.496-2.27h-1.383Zm0 7.938h1.691c1.692 0 3.727-.426 3.727-2.504 0-2.352-1.922-2.738-3.727-2.738h-1.691Zm0 0"/></g></g><g id="i" clip-path="url(#d)"><g clip-path="url(#e)"><path d="M3.45 22.348c1.784.71 3.722 1.195 5.769 1.195 2.16 0 5.469-1.047 5.469-3.684 0-3.054-2.418-4.062-5.731-4.062H6.426v-4.09h2.383c3.5 0 5.773-1.16 5.773-3.43 0-2.605-2.125-3.422-4.473-3.422-2.043 0-4.015.485-5.84 1.375l-.296-4.167C6.05 1.243 8.547.762 11.23.762c3.204 0 8.56 1.113 8.56 6.66 0 3.535-2.196 5.21-4.837 6.223v.07c3.313.445 4.95 3.012 4.95 6.176 0 6.18-5.622 7.746-9.938 7.746-2.274 0-4.88-.297-6.817-.856z"/></g><g clip-path="url(#f)"><path d="M23.395 22.348c1.789.71 3.726 1.195 5.773 1.195 2.16 0 5.473-1.047 5.473-3.684 0-3.054-2.422-4.062-5.73-4.062h-2.532v-4.09h2.379c3.5 0 5.773-1.16 5.773-3.43 0-2.605-2.125-3.422-4.468-3.422-2.047 0-4.02.485-5.844 1.375l-.301-4.167C26.004 1.243 28.5.762 31.176.762c3.203 0 8.562 1.113 8.562 6.66 0 3.535-2.195 5.21-4.84 6.223v.07c3.317.445 4.954 3.012 4.954 6.176 0 6.18-5.618 7.746-9.938 7.746-2.27 0-4.875-.297-6.816-.856z"/></g></g><g id="j" clip-path="url(#g)"><path fill="#FFE501" d="M0 68.5v-62A6.5 6.5 0 0 1 6.5 0h62A6.5 6.5 0 0 1 75 6.5v62a6.5 6.5 0 0 1-6.5 6.5h-62A6.5 6.5 0 0 1 0 68.5m0 0"/><path fill="#FFF" d="M7.5 67.5v-60h60v60Zm0 0"/><use xlink:href="#h" transform="translate(20 10)"/><use xlink:href="#i" transform="translate(16 33)"/></g></defs><use xlink:href="#j"/></svg>