<svg xmlns="http://www.w3.org/2000/svg" xmlns:xlink="http://www.w3.org/1999/xlink" width="75" height="75"><defs><clipPath id="b"><path d="M5 .625h9v18.75H5Zm0 0"/></clipPath><clipPath id="c"><path d="M16 .625h14v18.75H16Zm0 0"/></clipPath><clipPath id="a"><path d="M0 0h35v20H0z"/></clipPath><clipPath id="e"><path d="M2 .762h18v26.875H2Zm0 0"/></clipPath><clipPath id="f"><path d="M23 1h18v26.637H23Zm0 0"/></clipPath><clipPath id="d"><path d="M0 0h43v28H0z"/></clipPath><clipPath id="g"><path d="M0 0h75v75H0z"/></clipPath><g id="h" clip-path="url(#a)"><g clip-path="url(#b)"><path d="M5.375 15.871a4.5 4.5 0 0 0 1.73.309c2.344 0 2.344-1.89 2.344-3.2V.926h3.614v13.828c0 1.922-1.231 4.621-4.958 4.621a9.6 9.6 0 0 1-2.77-.348v-3.156Zm0 0"/></g><g clip-path="url(#c)"><path d="M16.98.926h6.305c2.344 0 5.84.652 5.84 4.66 0 2.156-1.46 3.66-3.613 4.043v.039c2.46.23 4.152 1.887 4.152 4.121 0 4.547-4.074 5.238-6.379 5.238H16.98Zm3.614 7.316h1.46c1.536 0 3.419-.344 3.419-2.195 0-2.121-1.844-2.27-3.496-2.27h-1.383Zm0 7.938h1.691c1.692 0 3.727-.426 3.727-2.504 0-2.352-1.922-2.738-3.727-2.738h-1.691Zm0 0"/></g></g><g id="i" clip-path="url(#d)"><g clip-path="url(#e)"><path d="M3.227 22.352c1.789.707 3.718 1.191 5.77 1.191 2.155 0 5.468-1.043 5.468-3.684 0-3.054-2.422-4.058-5.735-4.058H6.2v-4.094h2.386c3.5 0 5.77-1.152 5.77-3.426 0-2.605-2.122-3.426-4.465-3.426-2.051 0-4.02.485-5.848 1.375l-.297-4.167C5.828 1.243 8.324.762 11.004.762c3.2 0 8.562 1.117 8.562 6.664 0 3.535-2.199 5.207-4.836 6.219v.074c3.31.445 4.946 3.011 4.946 6.18 0 6.171-5.617 7.738-9.938 7.738-2.27 0-4.875-.297-6.812-.856z"/></g><g clip-path="url(#f)"><path d="M39.441 5.082H29.426l-.113 5.547c.601-.113 1.382-.266 2.386-.266 3.649 0 8.375 1.719 8.375 8.45 0 4.878-3.426 8.824-10.125 8.824-2.012 0-4.351-.332-6.066-.742l.11-4.653c1.265.52 3.05 1.301 5.32 1.301 2.722 0 5.55-1.266 5.55-4.578 0-3.352-2.98-4.504-5.953-4.504-1.601 0-3.133.223-4.656.707l.262-13.957H39.44z"/></g></g><g id="j" clip-path="url(#g)"><path fill="#FFE501" d="M0 68.5v-62A6.5 6.5 0 0 1 6.5 0h62A6.5 6.5 0 0 1 75 6.5v62a6.5 6.5 0 0 1-6.5 6.5h-62A6.5 6.5 0 0 1 0 68.5m0 0"/><path fill="#FFF" d="M7.5 67.5v-60h60v60Zm0 0"/><use xlink:href="#h" transform="translate(20 10)"/><use xlink:href="#i" transform="translate(16 33)"/></g></defs><use xlink:href="#j"/></svg>