<svg xmlns="http://www.w3.org/2000/svg" xmlns:xlink="http://www.w3.org/1999/xlink" width="75" height="75"><defs><clipPath id="b"><path d="M5 .625h9v18.75H5Zm0 0"/></clipPath><clipPath id="c"><path d="M16 .625h14v18.75H16Zm0 0"/></clipPath><clipPath id="a"><path d="M0 0h35v20H0z"/></clipPath><clipPath id="e"><path d="M2 .762h18v26.875H2Zm0 0"/></clipPath><clipPath id="f"><path d="M22 .762h19v26.875H22Zm0 0"/></clipPath><clipPath id="d"><path d="M0 0h43v28H0z"/></clipPath><clipPath id="g"><path d="M0 0h75v75H0z"/></clipPath><g id="h" clip-path="url(#a)"><g clip-path="url(#b)"><path d="M5.375 15.871a4.5 4.5 0 0 0 1.73.309c2.344 0 2.344-1.89 2.344-3.2V.926h3.614v13.828c0 1.922-1.231 4.621-4.958 4.621a9.6 9.6 0 0 1-2.77-.348v-3.156Zm0 0"/></g><g clip-path="url(#c)"><path d="M16.98.926h6.305c2.344 0 5.84.652 5.84 4.66 0 2.156-1.46 3.66-3.613 4.043v.039c2.46.23 4.152 1.887 4.152 4.121 0 4.547-4.074 5.238-6.379 5.238H16.98Zm3.614 7.316h1.46c1.536 0 3.419-.344 3.419-2.195 0-2.121-1.844-2.27-3.496-2.27h-1.383Zm0 7.938h1.691c1.692 0 3.727-.426 3.727-2.504 0-2.352-1.922-2.738-3.727-2.738h-1.691Zm0 0"/></g></g><g id="i" clip-path="url(#d)"><g clip-path="url(#e)"><path d="M3.113 22.348c1.785.71 3.723 1.195 5.774 1.195 2.156 0 5.465-1.043 5.465-3.684 0-3.054-2.415-4.062-5.73-4.062H6.09v-4.09h2.383c3.5 0 5.773-1.156 5.773-3.426 0-2.605-2.125-3.426-4.473-3.426-2.043 0-4.02.485-5.84 1.375l-.3-4.167C5.719 1.243 8.21.762 10.895.762c3.199 0 8.558 1.117 8.558 6.664 0 3.531-2.195 5.207-4.836 6.219v.074c3.313.441 4.95 3.011 4.95 6.176 0 6.175-5.622 7.742-9.938 7.742-2.27 0-4.879-.297-6.813-.856z"/></g><g clip-path="url(#f)"><path d="M38.215 5.898c-1.38-.597-2.793-1.043-4.543-1.043-4.504 0-6.031 4.168-6.176 8.04l.07.074c1.227-1.785 2.832-2.606 5.028-2.606 4.91 0 7.59 3.13 7.59 7.93 0 5.621-2.754 9.344-8.637 9.344-7.219 0-8.82-5.992-8.82-12.098C22.727 8.504 25 .762 33.414.762c1.895 0 3.684.3 5.469.933zM27.937 19.152c0 2.453 1.043 4.614 3.61 4.614 2.422 0 3.43-2.348 3.43-4.653 0-2.535-1.047-4.879-3.54-4.879-2.527 0-3.5 2.313-3.5 4.918m0 0"/></g></g><g id="j" clip-path="url(#g)"><path fill="#FFE501" d="M0 68.5v-62A6.5 6.5 0 0 1 6.5 0h62A6.5 6.5 0 0 1 75 6.5v62a6.5 6.5 0 0 1-6.5 6.5h-62A6.5 6.5 0 0 1 0 68.5m0 0"/><path fill="#FFF" d="M7.5 67.5v-60h60v60Zm0 0"/><use xlink:href="#h" transform="translate(20 10)"/><use xlink:href="#i" transform="translate(16 33)"/></g></defs><use xlink:href="#j"/></svg>