<svg xmlns="http://www.w3.org/2000/svg" xmlns:xlink="http://www.w3.org/1999/xlink" width="75" height="75"><defs><clipPath id="b"><path d="M5 .625h9v18.75H5Zm0 0"/></clipPath><clipPath id="c"><path d="M16 .625h14v18.75H16Zm0 0"/></clipPath><clipPath id="a"><path d="M0 0h35v20H0z"/></clipPath><clipPath id="e"><path d="M2 .762h18v26.875H2Zm0 0"/></clipPath><clipPath id="f"><path d="M22 .762h19v26.875H22Zm0 0"/></clipPath><clipPath id="d"><path d="M0 0h43v28H0z"/></clipPath><clipPath id="g"><path d="M0 0h75v75H0z"/></clipPath><g id="h" clip-path="url(#a)"><g clip-path="url(#b)"><path d="M5.375 15.871a4.5 4.5 0 0 0 1.73.309c2.344 0 2.344-1.89 2.344-3.2V.926h3.614v13.828c0 1.922-1.231 4.621-4.958 4.621a9.6 9.6 0 0 1-2.77-.348v-3.156Zm0 0"/></g><g clip-path="url(#c)"><path d="M16.98.926h6.305c2.344 0 5.84.652 5.84 4.66 0 2.156-1.46 3.66-3.613 4.043v.039c2.46.23 4.152 1.887 4.152 4.121 0 4.547-4.074 5.238-6.379 5.238H16.98Zm3.614 7.316h1.46c1.536 0 3.419-.344 3.419-2.195 0-2.121-1.844-2.27-3.496-2.27h-1.383Zm0 7.938h1.691c1.692 0 3.727-.426 3.727-2.504 0-2.352-1.922-2.738-3.727-2.738h-1.691Zm0 0"/></g></g><g id="i" clip-path="url(#d)"><g clip-path="url(#e)"><path d="M2.965 22.355c1.789.704 3.723 1.188 5.77 1.188 2.16 0 5.468-1.043 5.468-3.684 0-3.054-2.422-4.058-5.73-4.058H5.945v-4.094h2.38c3.5 0 5.773-1.156 5.773-3.426 0-2.605-2.125-3.422-4.47-3.422-2.046 0-4.023.485-5.847 1.375l-.293-4.168C5.57 1.246 8.066.762 10.746.762c3.203 0 8.559 1.117 8.559 6.664 0 3.539-2.196 5.21-4.836 6.219v.074c3.312.445 4.949 3.015 4.949 6.18 0 6.175-5.617 7.738-9.938 7.738-2.27 0-4.878-.297-6.816-.852z"/></g><g clip-path="url(#f)"><path d="M35.352 13.195v.075c3.421 1.601 4.984 3.835 4.984 6.812 0 5.25-3.8 7.555-8.934 7.555-5.062 0-9.16-2.196-9.16-7.48 0-2.907 1.637-4.915 4.77-6.438v-.074c-2.61-1.157-4.32-3.313-4.32-6.032 0-4.652 3.538-6.851 8.261-6.851 4.582 0 8.715 1.902 8.715 6.254 0 2.347-1.453 5.066-4.316 6.218zm-7.895 6.887c0 2.156 1.86 3.684 3.945 3.684 2.082 0 3.723-1.301 3.723-3.461 0-2.57-2.2-3.797-4.355-4.504-1.86.894-3.313 2.086-3.313 4.281M34.68 7.91c0-1.937-1.23-3.277-3.203-3.277-1.899 0-3.793 1.043-3.793 3.129 0 2.234 2.304 3.238 4.09 3.906 1.453-.52 2.906-2.156 2.906-3.758m0 0"/></g></g><g id="j" clip-path="url(#g)"><path fill="#FFE501" d="M0 68.5v-62A6.5 6.5 0 0 1 6.5 0h62A6.5 6.5 0 0 1 75 6.5v62a6.5 6.5 0 0 1-6.5 6.5h-62A6.5 6.5 0 0 1 0 68.5m0 0"/><path fill="#FFF" d="M7.5 67.5v-60h60v60Zm0 0"/><use xlink:href="#h" transform="translate(20 10)"/><use xlink:href="#i" transform="translate(16 33)"/></g></defs><use xlink:href="#j"/></svg>