<svg xmlns="http://www.w3.org/2000/svg" xmlns:xlink="http://www.w3.org/1999/xlink" width="75" height="75"><defs><clipPath id="b"><path d="M6 .625h9v18.75H6Zm0 0"/></clipPath><clipPath id="c"><path d="M17 .625h12v18.75H17Zm0 0"/></clipPath><clipPath id="a"><path d="M0 0h35v20H0z"/></clipPath><clipPath id="e"><path d="M1 .762h19v26.875H1Zm0 0"/></clipPath><clipPath id="f"><path d="M22 .762h18v26.875H22Zm0 0"/></clipPath><clipPath id="d"><path d="M0 0h41v28H0z"/></clipPath><clipPath id="g"><path d="M0 0h75v75H0z"/></clipPath><g id="h" clip-path="url(#a)"><g clip-path="url(#b)"><path d="M6.375 15.867a4.4 4.4 0 0 0 1.73.309c2.344 0 2.344-1.887 2.344-3.196V.926h3.61v13.828c0 1.922-1.227 4.621-4.954 4.621a9.9 9.9 0 0 1-2.77-.348v-3.16Zm0 0"/></g><g clip-path="url(#c)"><path d="M17.945.926h10.68v2.847h-7.031v4.47h6.418v2.85h-6.418v5.083h7.07v2.851H17.945Zm0 0"/></g></g><g id="i" clip-path="url(#d)"><g clip-path="url(#e)"><path d="M1.258 14.273C1.258 7.762 3.23.762 10.266.762c7.593 0 9.082 7.48 9.082 13.511 0 6.032-1.567 13.364-9.082 13.364-8 0-9.008-7.926-9.008-13.364m12.875 0c0-3.347 0-9.644-3.867-9.644-3.801 0-3.801 6.297-3.801 9.644 0 3.278-.035 9.493 3.8 9.493 3.907 0 3.868-6.215 3.868-9.493m0 0"/></g><g clip-path="url(#f)"><path d="M24.262 22.5c1.375.594 2.789 1.043 4.539 1.043 4.504 0 6.027-4.168 6.18-8.04l-.075-.073c-1.226 1.82-2.828 2.601-5.027 2.601-4.91 0-7.594-3.125-7.594-7.926 0-5.62 2.758-9.343 8.637-9.343 7.223 0 8.824 5.992 8.824 12.101 0 7.032-2.27 14.774-10.684 14.774-1.898 0-3.687-.297-5.472-.93zm10.27-13.25c0-2.457-1.04-4.621-3.61-4.621-2.418 0-3.426 2.348-3.426 4.656 0 2.531 1.043 4.88 3.54 4.88 2.526 0 3.495-2.31 3.495-4.915m0 0"/></g></g><g id="j" clip-path="url(#g)"><path fill="#CF1126" d="M0 68.5v-62A6.5 6.5 0 0 1 6.5 0h62A6.5 6.5 0 0 1 75 6.5v62a6.5 6.5 0 0 1-6.5 6.5h-62A6.5 6.5 0 0 1 0 68.5m0 0"/><path fill="#FFF" d="M7.5 67.5v-60h60v60Zm0 0"/><use xlink:href="#h" transform="translate(20 10)"/><use xlink:href="#i" transform="translate(17 33)"/></g></defs><use xlink:href="#j"/></svg>