<svg xmlns="http://www.w3.org/2000/svg" xmlns:xlink="http://www.w3.org/1999/xlink" width="75" height="75"><defs><clipPath id="b"><path d="M6 .625h9v18.75H6Zm0 0"/></clipPath><clipPath id="c"><path d="M17 .625h12v18.75H17Zm0 0"/></clipPath><clipPath id="a"><path d="M0 0h35v20H0z"/></clipPath><clipPath id="e"><path d="M3 1h13v26.637H3Zm0 0"/></clipPath><clipPath id="f"><path d="M22 1h18v26.637H22Zm0 0"/></clipPath><clipPath id="d"><path d="M0 0h43v28H0z"/></clipPath><clipPath id="g"><path d="M0 0h75v75H0z"/></clipPath><g id="h" clip-path="url(#a)"><g clip-path="url(#b)"><path d="M6.375 15.867a4.4 4.4 0 0 0 1.73.309c2.344 0 2.344-1.887 2.344-3.196V.926h3.61v13.828c0 1.922-1.227 4.621-4.954 4.621a9.9 9.9 0 0 1-2.77-.348v-3.16Zm0 0"/></g><g clip-path="url(#c)"><path d="M17.945.926h10.68v2.847h-7.031v4.47h6.418v2.85h-6.418v5.083h7.07v2.851H17.945Zm0 0"/></g></g><g id="i" clip-path="url(#d)"><g clip-path="url(#e)"><path d="M11.285 1.21h4.613v25.981h-5.21V7.125L6.3 10.699 3.69 7.316z"/></g><g clip-path="url(#f)"><path d="M22.559 1.21h16.75v4.317l-9.23 21.664h-5.657l9.637-21.89h-11.5z"/></g></g><g id="j" clip-path="url(#g)"><path fill="#CF1126" d="M0 68.5v-62A6.5 6.5 0 0 1 6.5 0h62A6.5 6.5 0 0 1 75 6.5v62a6.5 6.5 0 0 1-6.5 6.5h-62A6.5 6.5 0 0 1 0 68.5m0 0"/><path fill="#FFF" d="M7.5 67.5v-60h60v60Zm0 0"/><use xlink:href="#h" transform="translate(20 10)"/><use xlink:href="#i" transform="translate(16 33)"/></g></defs><use xlink:href="#j"/></svg>