<svg xmlns="http://www.w3.org/2000/svg" xmlns:xlink="http://www.w3.org/1999/xlink" width="75" height="75"><defs><clipPath id="b"><path d="M8 .625h9v18.75H8Zm0 0"/></clipPath><clipPath id="c"><path d="M22 .625h5v18.75h-5Zm0 0"/></clipPath><clipPath id="a"><path d="M0 0h35v20H0z"/></clipPath><clipPath id="e"><path d="M2 .762h18v26.875H2Zm0 0"/></clipPath><clipPath id="f"><path d="M22 1h13v26.637H22Zm0 0"/></clipPath><clipPath id="d"><path d="M0 0h41v28H0z"/></clipPath><clipPath id="g"><path d="M0 0h75v75H0z"/></clipPath><g id="h" clip-path="url(#a)"><g clip-path="url(#b)"><path d="M8.8 15.86a4.5 4.5 0 0 0 1.731.308c2.34 0 2.34-1.887 2.34-3.195V.926h3.613v13.82c0 1.926-1.23 4.617-4.957 4.617a9.7 9.7 0 0 1-2.765-.343v-3.16Zm0 0"/></g><g clip-path="url(#c)"><path d="M22.629.926h3.61V19.02h-3.61Zm0 0"/></g></g><g id="i" clip-path="url(#d)"><g clip-path="url(#e)"><path d="M2.137 14.273C2.137 7.762 4.082.762 11.023.762c7.497 0 8.965 7.48 8.965 13.511 0 6.032-1.539 13.364-8.965 13.364-7.898 0-8.886-7.93-8.886-13.364m12.707 0c0-3.351 0-9.644-3.82-9.644-3.743 0-3.743 6.293-3.743 9.644 0 3.278-.039 9.493 3.742 9.493 3.86 0 3.82-6.215 3.82-9.493m0 0"/></g><g clip-path="url(#f)"><path d="M30.195 1.21h4.559v25.981h-5.14V7.13l-4.337 3.57-2.57-3.386z"/></g></g><g id="j" clip-path="url(#g)"><path fill="#FFE500" d="M0 68.5v-62A6.5 6.5 0 0 1 6.5 0h62A6.5 6.5 0 0 1 75 6.5v62a6.5 6.5 0 0 1-6.5 6.5h-62A6.5 6.5 0 0 1 0 68.5m0 0"/><path fill="#FFF" d="M7.5 67.5v-60h60v60Zm0 0"/><use xlink:href="#h" transform="translate(20 10)"/><use xlink:href="#i" transform="translate(17 33)"/></g></defs><use xlink:href="#j"/></svg>