<svg xmlns="http://www.w3.org/2000/svg" width="400" height="400"><path fill="#00AA8D" d="M326.312 399.995H73.688C33.056 399.995 0 366.939 0 326.306V73.693C0 33.06 33.056.005 73.688.005h252.623C366.945.005 400 33.06 400 73.693v252.612c0 40.636-33.055 73.69-73.688 73.69z"/><g fill="#FFF"><path d="M71.223 124.454c13.11-2.112 30.217-3.518 48.014-3.518 30.216 0 49.882 5.62 64.867 16.862 16.409 12.185 26.728 31.622 26.728 59.5 0 30.226-11.017 51.078-26.012 63.95-16.627 13.816-42.175 20.38-73.081 20.38-18.512 0-31.857-1.159-40.516-2.321V124.454zm35.593 128.6c3.046.689 8.195.689 12.42.689 32.547.254 53.87-17.553 53.87-55.266 0-32.801-19.202-50.126-50.127-50.126-7.733 0-13.118.69-16.163 1.405v103.298zM260.257 152.088H217.61v-29.981h121.358v29.981h-43.1v127.909h-35.61V152.088h-.001z"/></g></svg>