<svg xmlns="http://www.w3.org/2000/svg" width="400" height="400"><path fill="#EE86A8" d="M326.894 400H74.256c-40.617 0-73.69-33.057-73.69-73.689V73.689C.566 33.056 33.639 0 74.256 0h252.637c40.617 0 73.689 33.056 73.689 73.689V326.31c.001 40.633-33.071 73.69-73.688 73.69z"/><g fill="#FFF"><path d="M196.722 122.103h35.376v69.81h.488c3.501-6.092 7.254-11.713 10.99-17.335l35.61-52.475h44.063l-52.259 67.236 54.815 90.66h-41.47l-38.875-68.176-13.363 16.646v51.53h-35.376V122.103zM159.986 151.66v-29.557H92.188v29.557h16.084v98.767H92.188v29.572h67.798v-29.572h-16.102V151.66z"/></g></svg>