<svg xmlns="http://www.w3.org/2000/svg" width="400" height="400"><path fill="#0071BE" d="M326.313 400H73.669C33.053 400 0 366.963 0 326.3V73.669C0 33.053 33.053 0 73.669 0h252.645C366.931 0 400 33.053 400 73.669V326.3c-.001 40.663-33.069 73.7-73.687 73.7z"/><g fill="#FFF"><path d="M67.567 122.101h35.38v69.817h.456c3.538-6.086 7.265-11.699 11.007-17.329l35.617-52.488h44.029l-52.223 67.239 54.815 90.667h-41.464l-38.888-68.167-13.351 16.623v51.544h-35.38V122.101zM210.22 124.444c13.13-2.107 30.238-3.506 48.023-3.506 30.238 0 49.893 5.613 64.91 16.856 16.4 12.187 26.685 31.639 26.685 59.518 0 30.208-11.021 51.056-25.992 63.969-16.653 13.805-42.172 20.379-73.07 20.379-18.523 0-31.875-1.196-40.555-2.36l-.001-154.856zm35.616 128.61c3.051.724 8.192.724 12.407.724 32.564.222 53.888-17.595 53.888-55.303 0-32.801-19.216-50.13-50.114-50.13-7.768 0-13.13.708-16.181 1.4v103.309z"/></g></svg>