<svg xmlns="http://www.w3.org/2000/svg" width="400" height="400"><path fill="#009CD3" d="M326.403 400H73.764c-40.616 0-73.69-33.056-73.69-73.69V73.69C.074 33.056 33.148 0 73.764 0h252.639c40.634 0 73.689 33.056 73.689 73.69v252.62c.001 40.634-33.055 73.69-73.689 73.69z"/><g fill="#FFF"><path d="M175.106 219.546c-.707-18.966-1.414-41.921-1.414-64.877h-.472c-5.15 20.145-11.713 42.63-17.788 61.143l-19.22 61.596h-27.887l-16.863-60.906c-5.149-18.731-10.299-41.216-14.289-61.832h-.471c-.689 21.305-1.631 45.676-2.575 65.368L71.081 280h-33.02l10.064-157.896h47.543l15.467 52.71c5.167 18.259 9.845 37.952 13.362 56.464h.944c4.206-18.278 9.591-39.129 14.977-56.7l16.646-52.475h46.854L212.351 280h-34.669l-2.576-60.454zM364.625 272.729c-11.024 3.753-31.858 8.902-52.71 8.902-28.812 0-49.665-7.253-64.207-21.069-14.287-13.817-22.248-34.435-22.248-57.625.235-52.493 38.422-82.466 90.209-82.466 20.38 0 36.065 3.97 43.808 7.488l-7.507 28.813c-8.667-3.971-19.203-6.781-36.537-6.781-29.756 0-52.493 16.609-52.493 51.061 0 32.783 20.617 51.786 49.9 51.786 7.978 0 14.524-.942 17.334-2.122v-33.272h-24.352v-27.869h58.803v83.154z"/></g></svg>