<svg xmlns="http://www.w3.org/2000/svg" width="400" height="400"><path fill="#F18C43" d="M326.229 399.858H73.742c-40.587 0-73.609-33.032-73.609-73.639V73.779C.133 33.174 33.155.142 73.742.142h252.487c40.606 0 73.638 33.032 73.638 73.637V326.22c0 40.606-33.031 73.638-73.638 73.638z"/><g fill="#FFF"><path d="M181.373 199.42c0 51.967-31.139 83.097-77.498 83.097-46.575 0-74.19-35.352-74.19-80.524 0-47.291 30.433-82.643 76.772-82.643 48.462 0 74.916 36.293 74.916 80.07zm-114.008 1.867c0 31.146 14.504 52.908 38.396 52.908 24.107 0 37.924-22.939 37.924-53.616 0-28.555-13.354-52.908-37.924-52.908-24.354 0-38.396 22.939-38.396 53.616zM331.193 219.55c-.725-18.971-1.413-41.91-1.413-64.849h-.471c-5.109 20.13-11.67 42.599-17.758 61.1l-19.206 61.569h-27.867l-16.852-60.864c-5.147-18.717-10.292-41.203-14.279-61.805h-.487c-.708 21.308-1.613 45.643-2.557 65.321l-3.044 59.921h-33.004l10.047-157.785h47.528l15.456 52.673c5.146 18.264 9.838 37.924 13.334 56.424h.943c4.222-18.264 9.621-39.102 14.985-56.66l16.633-52.438h46.821l8.426 157.785h-34.646l-2.589-60.392z"/></g></svg>