<svg xmlns="http://www.w3.org/2000/svg" width="400" height="400"><path d="M326.131 399.717H73.869c-40.578 0-73.586-33.009-73.586-73.586V73.869C.283 33.291 33.291.283 73.869.283h252.262c40.559 0 73.586 33.008 73.586 73.586v252.262c0 40.577-33.028 73.586-73.586 73.586z" style="fill:#890d84;fill-opacity:1"/><path d="M100.637 280.24c-7.047-.773-17.618-2.92-22.457-4.564-7.359-2.5-10.593-3.896-10.593-4.574 0-.333.832-3.888 1.85-7.9 1.017-4.013 2.575-10.271 3.461-13.908l1.612-6.614 3.424 1.58c4.56 2.102 14.277 5.242 19.525 6.308 6.957 1.412 15.508 1.959 21.495 1.373 6.071-.594 9.713-1.75 13.4-4.254 4.877-3.312 7.015-7.61 6.765-13.602-.228-5.457-2.365-9.085-7.652-12.99-2.76-2.039-11.056-6.078-16.416-7.993-15.54-5.552-25.39-10.95-32.79-17.971-5.327-5.053-9.376-11.594-11.167-18.038-1.077-3.878-1.176-4.847-1.167-11.44.008-6.55.115-7.588 1.182-11.441 6.055-21.879 27.927-35.335 57.495-35.373 13.673-.018 27.74 2.548 38.289 6.982 1.978.831 2.074-.024-1.381 12.29-1.374 4.893-2.93 10.518-3.46 12.5-.529 1.98-.998 3.653-1.042 3.716-.045.064-2.254-.732-4.91-1.77-2.654-1.036-6.327-2.276-8.161-2.755-8.597-2.246-22.358-3.01-28.657-1.59-8.62 1.941-13.94 7.082-14.332 13.848-.531 9.166 5.189 14.016 26.196 22.21 16.05 6.26 24.852 11.219 31.47 17.728 7.564 7.44 11.31 15.523 12.136 26.183.837 10.796-1.495 20.477-7.014 29.116-3.44 5.387-11.52 12.351-18.16 15.655-10.372 5.16-20.629 7.32-35.805 7.543-5.244.077-11.155-.038-13.136-.255zM204.027 200.186v-78.39h34.746v60.17h59.746v-60.169h34.746v156.78h-34.746v-32.794c0-29.513-.067-32.82-.67-33.051-.876-.336-57.53-.336-58.406 0-.603.231-.67 3.538-.67 33.05v32.794h-34.746z" style="opacity:1;fill:#fff;fill-opacity:1;stroke:none;stroke-width:.42372882;stroke-opacity:1"/></svg>