<svg xmlns="http://www.w3.org/2000/svg" width="400" height="400"><path fill="#AE0079" d="M326.343 400.061H73.639c-40.626 0-73.69-33.082-73.69-73.708V73.649C-.05 33.003 33.013-.061 73.639-.061h252.704c40.645 0 73.708 33.063 73.708 73.71v252.703c0 40.627-33.064 73.709-73.708 73.709z"/><g fill="#FFF"><path d="M90.752 152.091H48.104v-30.018h121.371v30.018h-43.101V280.03H90.752V152.091zM318.508 219.561c-.709-18.971-1.379-41.933-1.379-64.912h-.488c-5.154 20.15-11.7 42.657-17.793 61.159l-19.225 61.647h-27.895l-16.87-60.94c-5.166-18.736-10.318-41.244-14.309-61.866h-.453c-.707 21.329-1.651 45.705-2.593 65.385l-3.029 59.997h-33.035l10.047-157.956h47.582L254.54 174.8c5.149 18.281 9.849 37.961 13.348 56.479h.943c4.228-18.266 9.63-39.139 14.999-56.695l16.632-52.508h46.865l8.471 157.956h-34.714l-2.576-60.471z"/></g></svg>