<svg xmlns="http://www.w3.org/2000/svg" width="400" height="400"><path fill="#DA0042" d="M326.131 399.717H73.869c-40.578 0-73.586-33.009-73.586-73.586V73.869C.283 33.291 33.291.283 73.869.283h252.262c40.559 0 73.586 33.008 73.586 73.586v252.262c0 40.577-33.028 73.586-73.586 73.586z"/><g fill="#FFF"><path d="M111.802 152.153H69.215v-29.939h121.188v29.939h-43.058v127.733h-35.544V152.153zM254.012 279.887v-64.568l-49.829-93.104h40.958l15.896 37.897c4.908 11.47 8.42 19.881 12.149 30.166h.49c3.495-9.813 7.26-18.94 11.914-30.166l15.916-37.897h39.996l-51.93 91.945v65.728h-35.56z"/></g></svg>