<svg xmlns="http://www.w3.org/2000/svg" width="75" height="75" fill="none" viewBox="0 0 24 24"><g clip-path="url(#a)"><path fill="#fff" d="M19.2 0H4.8A4.8 4.8 0 0 0 0 4.8v14.4A4.8 4.8 0 0 0 4.8 24h14.4a4.8 4.8 0 0 0 4.8-4.8V4.8A4.8 4.8 0 0 0 19.2 0Z"/><path fill="#0071BE" d="M19.2 23.399H4.808a4.233 4.233 0 0 1-4.232-4.233V4.775A4.233 4.233 0 0 1 4.808.542H19.2a4.233 4.233 0 0 1 4.233 4.233v14.391A4.232 4.232 0 0 1 19.2 23.4Z"/><path fill="#fff" d="M6.976 2.963h1.337v2.658c.136-.237.28-.449.424-.66l1.354-1.998h1.693l-1.98 2.54 2.082 3.445H10.31L8.83 6.358l-.508.626v1.964H6.984l-.008-5.985ZM12.394 3.09c.602-.094 1.21-.139 1.82-.135a3.903 3.903 0 0 1 2.472.643 2.658 2.658 0 0 1 1.007 2.26 3.083 3.083 0 0 1-.982 2.43 4.351 4.351 0 0 1-2.777.77c-.514.004-1.03-.024-1.54-.084V3.09Zm1.354 4.885c.155.014.31.014.466 0a1.87 1.87 0 0 0 2.048-2.1 1.692 1.692 0 0 0-1.904-1.905 2.98 2.98 0 0 0-.61.051v3.954ZM11.606 16.152c0 2.862-1.16 4.843-3.513 4.843-2.353 0-3.462-2.159-3.47-4.783-.01-2.625 1.125-4.817 3.53-4.817 2.404 0 3.453 2.218 3.453 4.757Zm-4.817.06c0 2.125.517 3.14 1.346 3.14.83 0 1.296-1.058 1.296-3.166 0-2.108-.44-3.149-1.312-3.149-.872 0-1.33.999-1.33 3.175ZM15.297 13.486h-.025l-1.77.838-.355-1.626 2.472-1.142h1.778v9.286h-2.1v-7.356Z"/></g><defs><clipPath id="a"><path fill="#fff" d="M0 0h75v75H0z"/></clipPath></defs></svg>