<svg xmlns="http://www.w3.org/2000/svg" width="75" height="75" fill="none" viewBox="0 0 24 24"><g clip-path="url(#a)"><path fill="#fff" d="M19.2 0H4.8A4.8 4.8 0 0 0 0 4.8v14.4A4.8 4.8 0 0 0 4.8 24h14.4a4.8 4.8 0 0 0 4.8-4.8V4.8A4.8 4.8 0 0 0 19.2 0Z"/><path fill="#0071BE" d="M19.2 23.407H4.808a4.233 4.233 0 0 1-4.232-4.232V4.783A4.233 4.233 0 0 1 4.808.55H19.2a4.233 4.233 0 0 1 4.233 4.233v14.392a4.232 4.232 0 0 1-4.233 4.232Z"/><path fill="#fff" d="M6.976 2.997h1.337V5.63c.136-.237.28-.45.424-.66L10.09 2.97h1.693l-1.98 2.54 2.082 3.446H10.31L8.83 6.367l-.508.626v2.023H6.984l-.008-6.02ZM12.394 3.09c.602-.094 1.21-.139 1.82-.135a3.902 3.902 0 0 1 2.472.643 2.658 2.658 0 0 1 1.007 2.26 3.083 3.083 0 0 1-.982 2.43 4.351 4.351 0 0 1-2.777.77c-.514.004-1.03-.024-1.54-.084V3.09Zm1.354 4.885c.155.014.31.014.466 0a1.87 1.87 0 0 0 2.048-2.1 1.692 1.692 0 0 0-1.904-1.905 2.98 2.98 0 0 0-.61.051v3.954ZM11.606 16.152c0 2.862-1.16 4.843-3.513 4.843-2.353 0-3.462-2.15-3.47-4.783-.01-2.633 1.125-4.817 3.53-4.817 2.404 0 3.453 2.218 3.453 4.757Zm-4.817.06c0 2.133.517 3.14 1.346 3.14.83 0 1.296-1.058 1.296-3.166 0-2.108-.44-3.149-1.312-3.149-.872 0-1.33 1.007-1.33 3.175ZM12.546 20.868v-1.312l1.185-1.076c2.049-1.828 3.03-2.87 3.048-3.953 0-.762-.449-1.363-1.515-1.363a3.48 3.48 0 0 0-1.99.762l-.61-1.55a5.08 5.08 0 0 1 3.023-.956c2.116 0 3.259 1.236 3.259 2.904s-1.109 2.81-2.472 4.013l-.847.72h3.514v1.81h-6.595Z"/></g><defs><clipPath id="a"><path fill="#fff" d="M0 0h75v75H0z"/></clipPath></defs></svg>