<svg xmlns="http://www.w3.org/2000/svg" width="75" height="75" fill="none" viewBox="0 0 24 24"><g clip-path="url(#a)"><path fill="#fff" d="M19.2 0H4.8A4.8 4.8 0 0 0 0 4.8v14.4A4.8 4.8 0 0 0 4.8 24h14.4a4.8 4.8 0 0 0 4.8-4.8V4.8A4.8 4.8 0 0 0 19.2 0Z"/><path fill="#0071BE" d="M19.2 23.399H4.808a4.233 4.233 0 0 1-4.232-4.233V4.775A4.233 4.233 0 0 1 4.808.542H19.2a4.233 4.233 0 0 1 4.233 4.233v14.391A4.232 4.232 0 0 1 19.2 23.4Z"/><path fill="#fff" d="M6.976 2.997h1.337v2.658c.136-.237.28-.449.424-.66l1.354-1.998h1.693l-1.98 2.54 2.082 3.445H10.31L8.83 6.392l-.508.634v1.956H6.984l-.008-5.985ZM12.394 3.09a11.42 11.42 0 0 1 1.82-.135 3.903 3.903 0 0 1 2.472.643 2.658 2.658 0 0 1 1.007 2.26 3.083 3.083 0 0 1-.982 2.43 4.351 4.351 0 0 1-2.777.77c-.514.004-1.03-.024-1.54-.084V3.09Zm1.354 4.885c.155.014.31.014.466 0a1.87 1.87 0 0 0 2.048-2.1 1.692 1.692 0 0 0-1.904-1.905 2.98 2.98 0 0 0-.61.051v3.954ZM11.606 16.152c0 2.862-1.16 4.843-3.513 4.843-2.353 0-3.462-2.15-3.47-4.783-.01-2.633 1.125-4.817 3.53-4.817 2.404 0 3.453 2.218 3.453 4.757Zm-4.817.06c0 2.133.517 3.14 1.346 3.14.83 0 1.296-1.058 1.296-3.166 0-2.108-.44-3.149-1.312-3.149-.872 0-1.33 1.007-1.33 3.175ZM12.919 18.709a4.842 4.842 0 0 0 2.158.576c1.126 0 1.693-.542 1.693-1.228 0-.931-.914-1.346-1.87-1.346h-.898v-1.558h.847c.728 0 1.642-.279 1.642-1.066 0-.559-.44-.974-1.371-.974a4.15 4.15 0 0 0-1.93.559l-.44-1.575a5.799 5.799 0 0 1 2.869-.702c1.973 0 3.073 1.05 3.073 2.32A2.218 2.218 0 0 1 17 15.872a2.311 2.311 0 0 1 2.015 2.269c0 1.634-1.44 2.827-3.801 2.827a5.74 5.74 0 0 1-2.752-.635l.457-1.625Z"/></g><defs><clipPath id="a"><path fill="#fff" d="M0 0h75v75H0z"/></clipPath></defs></svg>